G04 #@! TF.GenerationSoftware,KiCad,Pcbnew,10.0.3*
G04 #@! TF.CreationDate,2026-07-16T11:54:30-04:00*
G04 #@! TF.ProjectId,FTDIBoard,46544449-426f-4617-9264-2e6b69636164,rev?*
G04 #@! TF.SameCoordinates,Original*
G04 #@! TF.FileFunction,Legend,Top*
G04 #@! TF.FilePolarity,Positive*
%FSLAX46Y46*%
G04 Gerber Fmt 4.6, Leading zero omitted, Abs format (unit mm)*
G04 Created by KiCad (PCBNEW 10.0.3) date 2026-07-16 11:54:30*
%MOMM*%
%LPD*%
G01*
G04 APERTURE LIST*
%ADD10C,0.250000*%
%ADD11C,0.150000*%
%ADD12C,0.000000*%
%ADD13C,0.120000*%
G04 APERTURE END LIST*
D10*
X161135901Y-88345921D02*
X160802568Y-88345921D01*
X160802568Y-88869731D02*
X160802568Y-87869731D01*
X160802568Y-87869731D02*
X161278758Y-87869731D01*
X161516854Y-87869731D02*
X162088282Y-87869731D01*
X161802568Y-88869731D02*
X161802568Y-87869731D01*
X162421616Y-88869731D02*
X162421616Y-87869731D01*
X162421616Y-87869731D02*
X162659711Y-87869731D01*
X162659711Y-87869731D02*
X162802568Y-87917350D01*
X162802568Y-87917350D02*
X162897806Y-88012588D01*
X162897806Y-88012588D02*
X162945425Y-88107826D01*
X162945425Y-88107826D02*
X162993044Y-88298302D01*
X162993044Y-88298302D02*
X162993044Y-88441159D01*
X162993044Y-88441159D02*
X162945425Y-88631635D01*
X162945425Y-88631635D02*
X162897806Y-88726873D01*
X162897806Y-88726873D02*
X162802568Y-88822112D01*
X162802568Y-88822112D02*
X162659711Y-88869731D01*
X162659711Y-88869731D02*
X162421616Y-88869731D01*
X163421616Y-88869731D02*
X163421616Y-87869731D01*
X160802568Y-90479675D02*
X160802568Y-89479675D01*
X160802568Y-89479675D02*
X161183520Y-89479675D01*
X161183520Y-89479675D02*
X161278758Y-89527294D01*
X161278758Y-89527294D02*
X161326377Y-89574913D01*
X161326377Y-89574913D02*
X161373996Y-89670151D01*
X161373996Y-89670151D02*
X161373996Y-89813008D01*
X161373996Y-89813008D02*
X161326377Y-89908246D01*
X161326377Y-89908246D02*
X161278758Y-89955865D01*
X161278758Y-89955865D02*
X161183520Y-90003484D01*
X161183520Y-90003484D02*
X160802568Y-90003484D01*
X161802568Y-90479675D02*
X161802568Y-89813008D01*
X161802568Y-90003484D02*
X161850187Y-89908246D01*
X161850187Y-89908246D02*
X161897806Y-89860627D01*
X161897806Y-89860627D02*
X161993044Y-89813008D01*
X161993044Y-89813008D02*
X162088282Y-89813008D01*
X162564473Y-90479675D02*
X162469235Y-90432056D01*
X162469235Y-90432056D02*
X162421616Y-90384436D01*
X162421616Y-90384436D02*
X162373997Y-90289198D01*
X162373997Y-90289198D02*
X162373997Y-90003484D01*
X162373997Y-90003484D02*
X162421616Y-89908246D01*
X162421616Y-89908246D02*
X162469235Y-89860627D01*
X162469235Y-89860627D02*
X162564473Y-89813008D01*
X162564473Y-89813008D02*
X162707330Y-89813008D01*
X162707330Y-89813008D02*
X162802568Y-89860627D01*
X162802568Y-89860627D02*
X162850187Y-89908246D01*
X162850187Y-89908246D02*
X162897806Y-90003484D01*
X162897806Y-90003484D02*
X162897806Y-90289198D01*
X162897806Y-90289198D02*
X162850187Y-90384436D01*
X162850187Y-90384436D02*
X162802568Y-90432056D01*
X162802568Y-90432056D02*
X162707330Y-90479675D01*
X162707330Y-90479675D02*
X162564473Y-90479675D01*
X163754949Y-89813008D02*
X163754949Y-90622532D01*
X163754949Y-90622532D02*
X163707330Y-90717770D01*
X163707330Y-90717770D02*
X163659711Y-90765389D01*
X163659711Y-90765389D02*
X163564473Y-90813008D01*
X163564473Y-90813008D02*
X163421616Y-90813008D01*
X163421616Y-90813008D02*
X163326378Y-90765389D01*
X163754949Y-90432056D02*
X163659711Y-90479675D01*
X163659711Y-90479675D02*
X163469235Y-90479675D01*
X163469235Y-90479675D02*
X163373997Y-90432056D01*
X163373997Y-90432056D02*
X163326378Y-90384436D01*
X163326378Y-90384436D02*
X163278759Y-90289198D01*
X163278759Y-90289198D02*
X163278759Y-90003484D01*
X163278759Y-90003484D02*
X163326378Y-89908246D01*
X163326378Y-89908246D02*
X163373997Y-89860627D01*
X163373997Y-89860627D02*
X163469235Y-89813008D01*
X163469235Y-89813008D02*
X163659711Y-89813008D01*
X163659711Y-89813008D02*
X163754949Y-89860627D01*
X164231140Y-90479675D02*
X164231140Y-89813008D01*
X164231140Y-90003484D02*
X164278759Y-89908246D01*
X164278759Y-89908246D02*
X164326378Y-89860627D01*
X164326378Y-89860627D02*
X164421616Y-89813008D01*
X164421616Y-89813008D02*
X164516854Y-89813008D01*
X165278759Y-90479675D02*
X165278759Y-89955865D01*
X165278759Y-89955865D02*
X165231140Y-89860627D01*
X165231140Y-89860627D02*
X165135902Y-89813008D01*
X165135902Y-89813008D02*
X164945426Y-89813008D01*
X164945426Y-89813008D02*
X164850188Y-89860627D01*
X165278759Y-90432056D02*
X165183521Y-90479675D01*
X165183521Y-90479675D02*
X164945426Y-90479675D01*
X164945426Y-90479675D02*
X164850188Y-90432056D01*
X164850188Y-90432056D02*
X164802569Y-90336817D01*
X164802569Y-90336817D02*
X164802569Y-90241579D01*
X164802569Y-90241579D02*
X164850188Y-90146341D01*
X164850188Y-90146341D02*
X164945426Y-90098722D01*
X164945426Y-90098722D02*
X165183521Y-90098722D01*
X165183521Y-90098722D02*
X165278759Y-90051103D01*
X165754950Y-90479675D02*
X165754950Y-89813008D01*
X165754950Y-89908246D02*
X165802569Y-89860627D01*
X165802569Y-89860627D02*
X165897807Y-89813008D01*
X165897807Y-89813008D02*
X166040664Y-89813008D01*
X166040664Y-89813008D02*
X166135902Y-89860627D01*
X166135902Y-89860627D02*
X166183521Y-89955865D01*
X166183521Y-89955865D02*
X166183521Y-90479675D01*
X166183521Y-89955865D02*
X166231140Y-89860627D01*
X166231140Y-89860627D02*
X166326378Y-89813008D01*
X166326378Y-89813008D02*
X166469235Y-89813008D01*
X166469235Y-89813008D02*
X166564474Y-89860627D01*
X166564474Y-89860627D02*
X166612093Y-89955865D01*
X166612093Y-89955865D02*
X166612093Y-90479675D01*
X167088283Y-90479675D02*
X167088283Y-89813008D01*
X167088283Y-89908246D02*
X167135902Y-89860627D01*
X167135902Y-89860627D02*
X167231140Y-89813008D01*
X167231140Y-89813008D02*
X167373997Y-89813008D01*
X167373997Y-89813008D02*
X167469235Y-89860627D01*
X167469235Y-89860627D02*
X167516854Y-89955865D01*
X167516854Y-89955865D02*
X167516854Y-90479675D01*
X167516854Y-89955865D02*
X167564473Y-89860627D01*
X167564473Y-89860627D02*
X167659711Y-89813008D01*
X167659711Y-89813008D02*
X167802568Y-89813008D01*
X167802568Y-89813008D02*
X167897807Y-89860627D01*
X167897807Y-89860627D02*
X167945426Y-89955865D01*
X167945426Y-89955865D02*
X167945426Y-90479675D01*
X168802568Y-90432056D02*
X168707330Y-90479675D01*
X168707330Y-90479675D02*
X168516854Y-90479675D01*
X168516854Y-90479675D02*
X168421616Y-90432056D01*
X168421616Y-90432056D02*
X168373997Y-90336817D01*
X168373997Y-90336817D02*
X168373997Y-89955865D01*
X168373997Y-89955865D02*
X168421616Y-89860627D01*
X168421616Y-89860627D02*
X168516854Y-89813008D01*
X168516854Y-89813008D02*
X168707330Y-89813008D01*
X168707330Y-89813008D02*
X168802568Y-89860627D01*
X168802568Y-89860627D02*
X168850187Y-89955865D01*
X168850187Y-89955865D02*
X168850187Y-90051103D01*
X168850187Y-90051103D02*
X168373997Y-90146341D01*
X169278759Y-90479675D02*
X169278759Y-89813008D01*
X169278759Y-90003484D02*
X169326378Y-89908246D01*
X169326378Y-89908246D02*
X169373997Y-89860627D01*
X169373997Y-89860627D02*
X169469235Y-89813008D01*
X169469235Y-89813008D02*
X169564473Y-89813008D01*
X161135901Y-91565809D02*
X161278758Y-91613428D01*
X161278758Y-91613428D02*
X161326377Y-91661047D01*
X161326377Y-91661047D02*
X161373996Y-91756285D01*
X161373996Y-91756285D02*
X161373996Y-91899142D01*
X161373996Y-91899142D02*
X161326377Y-91994380D01*
X161326377Y-91994380D02*
X161278758Y-92042000D01*
X161278758Y-92042000D02*
X161183520Y-92089619D01*
X161183520Y-92089619D02*
X160802568Y-92089619D01*
X160802568Y-92089619D02*
X160802568Y-91089619D01*
X160802568Y-91089619D02*
X161135901Y-91089619D01*
X161135901Y-91089619D02*
X161231139Y-91137238D01*
X161231139Y-91137238D02*
X161278758Y-91184857D01*
X161278758Y-91184857D02*
X161326377Y-91280095D01*
X161326377Y-91280095D02*
X161326377Y-91375333D01*
X161326377Y-91375333D02*
X161278758Y-91470571D01*
X161278758Y-91470571D02*
X161231139Y-91518190D01*
X161231139Y-91518190D02*
X161135901Y-91565809D01*
X161135901Y-91565809D02*
X160802568Y-91565809D01*
X161945425Y-92089619D02*
X161850187Y-92042000D01*
X161850187Y-92042000D02*
X161802568Y-91994380D01*
X161802568Y-91994380D02*
X161754949Y-91899142D01*
X161754949Y-91899142D02*
X161754949Y-91613428D01*
X161754949Y-91613428D02*
X161802568Y-91518190D01*
X161802568Y-91518190D02*
X161850187Y-91470571D01*
X161850187Y-91470571D02*
X161945425Y-91422952D01*
X161945425Y-91422952D02*
X162088282Y-91422952D01*
X162088282Y-91422952D02*
X162183520Y-91470571D01*
X162183520Y-91470571D02*
X162231139Y-91518190D01*
X162231139Y-91518190D02*
X162278758Y-91613428D01*
X162278758Y-91613428D02*
X162278758Y-91899142D01*
X162278758Y-91899142D02*
X162231139Y-91994380D01*
X162231139Y-91994380D02*
X162183520Y-92042000D01*
X162183520Y-92042000D02*
X162088282Y-92089619D01*
X162088282Y-92089619D02*
X161945425Y-92089619D01*
X163135901Y-92089619D02*
X163135901Y-91565809D01*
X163135901Y-91565809D02*
X163088282Y-91470571D01*
X163088282Y-91470571D02*
X162993044Y-91422952D01*
X162993044Y-91422952D02*
X162802568Y-91422952D01*
X162802568Y-91422952D02*
X162707330Y-91470571D01*
X163135901Y-92042000D02*
X163040663Y-92089619D01*
X163040663Y-92089619D02*
X162802568Y-92089619D01*
X162802568Y-92089619D02*
X162707330Y-92042000D01*
X162707330Y-92042000D02*
X162659711Y-91946761D01*
X162659711Y-91946761D02*
X162659711Y-91851523D01*
X162659711Y-91851523D02*
X162707330Y-91756285D01*
X162707330Y-91756285D02*
X162802568Y-91708666D01*
X162802568Y-91708666D02*
X163040663Y-91708666D01*
X163040663Y-91708666D02*
X163135901Y-91661047D01*
X163612092Y-92089619D02*
X163612092Y-91422952D01*
X163612092Y-91613428D02*
X163659711Y-91518190D01*
X163659711Y-91518190D02*
X163707330Y-91470571D01*
X163707330Y-91470571D02*
X163802568Y-91422952D01*
X163802568Y-91422952D02*
X163897806Y-91422952D01*
X164659711Y-92089619D02*
X164659711Y-91089619D01*
X164659711Y-92042000D02*
X164564473Y-92089619D01*
X164564473Y-92089619D02*
X164373997Y-92089619D01*
X164373997Y-92089619D02*
X164278759Y-92042000D01*
X164278759Y-92042000D02*
X164231140Y-91994380D01*
X164231140Y-91994380D02*
X164183521Y-91899142D01*
X164183521Y-91899142D02*
X164183521Y-91613428D01*
X164183521Y-91613428D02*
X164231140Y-91518190D01*
X164231140Y-91518190D02*
X164278759Y-91470571D01*
X164278759Y-91470571D02*
X164373997Y-91422952D01*
X164373997Y-91422952D02*
X164564473Y-91422952D01*
X164564473Y-91422952D02*
X164659711Y-91470571D01*
X176059523Y-73293328D02*
X175583333Y-73293328D01*
X175583333Y-73293328D02*
X175535714Y-73769518D01*
X175535714Y-73769518D02*
X175583333Y-73721899D01*
X175583333Y-73721899D02*
X175678571Y-73674280D01*
X175678571Y-73674280D02*
X175916666Y-73674280D01*
X175916666Y-73674280D02*
X176011904Y-73721899D01*
X176011904Y-73721899D02*
X176059523Y-73769518D01*
X176059523Y-73769518D02*
X176107142Y-73864756D01*
X176107142Y-73864756D02*
X176107142Y-74102851D01*
X176107142Y-74102851D02*
X176059523Y-74198089D01*
X176059523Y-74198089D02*
X176011904Y-74245709D01*
X176011904Y-74245709D02*
X175916666Y-74293328D01*
X175916666Y-74293328D02*
X175678571Y-74293328D01*
X175678571Y-74293328D02*
X175583333Y-74245709D01*
X175583333Y-74245709D02*
X175535714Y-74198089D01*
X176392857Y-73293328D02*
X176726190Y-74293328D01*
X176726190Y-74293328D02*
X177059523Y-73293328D01*
X177226191Y-71614619D02*
X177226191Y-72424142D01*
X177226191Y-72424142D02*
X177273810Y-72519380D01*
X177273810Y-72519380D02*
X177321429Y-72567000D01*
X177321429Y-72567000D02*
X177416667Y-72614619D01*
X177416667Y-72614619D02*
X177607143Y-72614619D01*
X177607143Y-72614619D02*
X177702381Y-72567000D01*
X177702381Y-72567000D02*
X177750000Y-72519380D01*
X177750000Y-72519380D02*
X177797619Y-72424142D01*
X177797619Y-72424142D02*
X177797619Y-71614619D01*
X178273810Y-72614619D02*
X178273810Y-71614619D01*
X178273810Y-71614619D02*
X178654762Y-71614619D01*
X178654762Y-71614619D02*
X178750000Y-71662238D01*
X178750000Y-71662238D02*
X178797619Y-71709857D01*
X178797619Y-71709857D02*
X178845238Y-71805095D01*
X178845238Y-71805095D02*
X178845238Y-71947952D01*
X178845238Y-71947952D02*
X178797619Y-72043190D01*
X178797619Y-72043190D02*
X178750000Y-72090809D01*
X178750000Y-72090809D02*
X178654762Y-72138428D01*
X178654762Y-72138428D02*
X178273810Y-72138428D01*
X179273810Y-72614619D02*
X179273810Y-71614619D01*
X179273810Y-71614619D02*
X179511905Y-71614619D01*
X179511905Y-71614619D02*
X179654762Y-71662238D01*
X179654762Y-71662238D02*
X179750000Y-71757476D01*
X179750000Y-71757476D02*
X179797619Y-71852714D01*
X179797619Y-71852714D02*
X179845238Y-72043190D01*
X179845238Y-72043190D02*
X179845238Y-72186047D01*
X179845238Y-72186047D02*
X179797619Y-72376523D01*
X179797619Y-72376523D02*
X179750000Y-72471761D01*
X179750000Y-72471761D02*
X179654762Y-72567000D01*
X179654762Y-72567000D02*
X179511905Y-72614619D01*
X179511905Y-72614619D02*
X179273810Y-72614619D01*
X180273810Y-72614619D02*
X180273810Y-71614619D01*
X180488095Y-73318014D02*
X180392857Y-73270395D01*
X180392857Y-73270395D02*
X180250000Y-73270395D01*
X180250000Y-73270395D02*
X180107143Y-73318014D01*
X180107143Y-73318014D02*
X180011905Y-73413252D01*
X180011905Y-73413252D02*
X179964286Y-73508490D01*
X179964286Y-73508490D02*
X179916667Y-73698966D01*
X179916667Y-73698966D02*
X179916667Y-73841823D01*
X179916667Y-73841823D02*
X179964286Y-74032299D01*
X179964286Y-74032299D02*
X180011905Y-74127537D01*
X180011905Y-74127537D02*
X180107143Y-74222776D01*
X180107143Y-74222776D02*
X180250000Y-74270395D01*
X180250000Y-74270395D02*
X180345238Y-74270395D01*
X180345238Y-74270395D02*
X180488095Y-74222776D01*
X180488095Y-74222776D02*
X180535714Y-74175156D01*
X180535714Y-74175156D02*
X180535714Y-73841823D01*
X180535714Y-73841823D02*
X180345238Y-73841823D01*
X180964286Y-74270395D02*
X180964286Y-73270395D01*
X180964286Y-73270395D02*
X181535714Y-74270395D01*
X181535714Y-74270395D02*
X181535714Y-73270395D01*
X182011905Y-74270395D02*
X182011905Y-73270395D01*
X182011905Y-73270395D02*
X182250000Y-73270395D01*
X182250000Y-73270395D02*
X182392857Y-73318014D01*
X182392857Y-73318014D02*
X182488095Y-73413252D01*
X182488095Y-73413252D02*
X182535714Y-73508490D01*
X182535714Y-73508490D02*
X182583333Y-73698966D01*
X182583333Y-73698966D02*
X182583333Y-73841823D01*
X182583333Y-73841823D02*
X182535714Y-74032299D01*
X182535714Y-74032299D02*
X182488095Y-74127537D01*
X182488095Y-74127537D02*
X182392857Y-74222776D01*
X182392857Y-74222776D02*
X182250000Y-74270395D01*
X182250000Y-74270395D02*
X182011905Y-74270395D01*
D11*
X149316666Y-71629819D02*
X149316666Y-72344104D01*
X149316666Y-72344104D02*
X149269047Y-72486961D01*
X149269047Y-72486961D02*
X149173809Y-72582200D01*
X149173809Y-72582200D02*
X149030952Y-72629819D01*
X149030952Y-72629819D02*
X148935714Y-72629819D01*
X150316666Y-72629819D02*
X149745238Y-72629819D01*
X150030952Y-72629819D02*
X150030952Y-71629819D01*
X150030952Y-71629819D02*
X149935714Y-71772676D01*
X149935714Y-71772676D02*
X149840476Y-71867914D01*
X149840476Y-71867914D02*
X149745238Y-71915533D01*
X159808333Y-84359580D02*
X159760714Y-84407200D01*
X159760714Y-84407200D02*
X159617857Y-84454819D01*
X159617857Y-84454819D02*
X159522619Y-84454819D01*
X159522619Y-84454819D02*
X159379762Y-84407200D01*
X159379762Y-84407200D02*
X159284524Y-84311961D01*
X159284524Y-84311961D02*
X159236905Y-84216723D01*
X159236905Y-84216723D02*
X159189286Y-84026247D01*
X159189286Y-84026247D02*
X159189286Y-83883390D01*
X159189286Y-83883390D02*
X159236905Y-83692914D01*
X159236905Y-83692914D02*
X159284524Y-83597676D01*
X159284524Y-83597676D02*
X159379762Y-83502438D01*
X159379762Y-83502438D02*
X159522619Y-83454819D01*
X159522619Y-83454819D02*
X159617857Y-83454819D01*
X159617857Y-83454819D02*
X159760714Y-83502438D01*
X159760714Y-83502438D02*
X159808333Y-83550057D01*
X160760714Y-84454819D02*
X160189286Y-84454819D01*
X160475000Y-84454819D02*
X160475000Y-83454819D01*
X160475000Y-83454819D02*
X160379762Y-83597676D01*
X160379762Y-83597676D02*
X160284524Y-83692914D01*
X160284524Y-83692914D02*
X160189286Y-83740533D01*
X182333333Y-81204819D02*
X182000000Y-80728628D01*
X181761905Y-81204819D02*
X181761905Y-80204819D01*
X181761905Y-80204819D02*
X182142857Y-80204819D01*
X182142857Y-80204819D02*
X182238095Y-80252438D01*
X182238095Y-80252438D02*
X182285714Y-80300057D01*
X182285714Y-80300057D02*
X182333333Y-80395295D01*
X182333333Y-80395295D02*
X182333333Y-80538152D01*
X182333333Y-80538152D02*
X182285714Y-80633390D01*
X182285714Y-80633390D02*
X182238095Y-80681009D01*
X182238095Y-80681009D02*
X182142857Y-80728628D01*
X182142857Y-80728628D02*
X181761905Y-80728628D01*
X183238095Y-80204819D02*
X182761905Y-80204819D01*
X182761905Y-80204819D02*
X182714286Y-80681009D01*
X182714286Y-80681009D02*
X182761905Y-80633390D01*
X182761905Y-80633390D02*
X182857143Y-80585771D01*
X182857143Y-80585771D02*
X183095238Y-80585771D01*
X183095238Y-80585771D02*
X183190476Y-80633390D01*
X183190476Y-80633390D02*
X183238095Y-80681009D01*
X183238095Y-80681009D02*
X183285714Y-80776247D01*
X183285714Y-80776247D02*
X183285714Y-81014342D01*
X183285714Y-81014342D02*
X183238095Y-81109580D01*
X183238095Y-81109580D02*
X183190476Y-81157200D01*
X183190476Y-81157200D02*
X183095238Y-81204819D01*
X183095238Y-81204819D02*
X182857143Y-81204819D01*
X182857143Y-81204819D02*
X182761905Y-81157200D01*
X182761905Y-81157200D02*
X182714286Y-81109580D01*
X162333333Y-75609580D02*
X162285714Y-75657200D01*
X162285714Y-75657200D02*
X162142857Y-75704819D01*
X162142857Y-75704819D02*
X162047619Y-75704819D01*
X162047619Y-75704819D02*
X161904762Y-75657200D01*
X161904762Y-75657200D02*
X161809524Y-75561961D01*
X161809524Y-75561961D02*
X161761905Y-75466723D01*
X161761905Y-75466723D02*
X161714286Y-75276247D01*
X161714286Y-75276247D02*
X161714286Y-75133390D01*
X161714286Y-75133390D02*
X161761905Y-74942914D01*
X161761905Y-74942914D02*
X161809524Y-74847676D01*
X161809524Y-74847676D02*
X161904762Y-74752438D01*
X161904762Y-74752438D02*
X162047619Y-74704819D01*
X162047619Y-74704819D02*
X162142857Y-74704819D01*
X162142857Y-74704819D02*
X162285714Y-74752438D01*
X162285714Y-74752438D02*
X162333333Y-74800057D01*
X162714286Y-74800057D02*
X162761905Y-74752438D01*
X162761905Y-74752438D02*
X162857143Y-74704819D01*
X162857143Y-74704819D02*
X163095238Y-74704819D01*
X163095238Y-74704819D02*
X163190476Y-74752438D01*
X163190476Y-74752438D02*
X163238095Y-74800057D01*
X163238095Y-74800057D02*
X163285714Y-74895295D01*
X163285714Y-74895295D02*
X163285714Y-74990533D01*
X163285714Y-74990533D02*
X163238095Y-75133390D01*
X163238095Y-75133390D02*
X162666667Y-75704819D01*
X162666667Y-75704819D02*
X163285714Y-75704819D01*
X172083333Y-79859580D02*
X172035714Y-79907200D01*
X172035714Y-79907200D02*
X171892857Y-79954819D01*
X171892857Y-79954819D02*
X171797619Y-79954819D01*
X171797619Y-79954819D02*
X171654762Y-79907200D01*
X171654762Y-79907200D02*
X171559524Y-79811961D01*
X171559524Y-79811961D02*
X171511905Y-79716723D01*
X171511905Y-79716723D02*
X171464286Y-79526247D01*
X171464286Y-79526247D02*
X171464286Y-79383390D01*
X171464286Y-79383390D02*
X171511905Y-79192914D01*
X171511905Y-79192914D02*
X171559524Y-79097676D01*
X171559524Y-79097676D02*
X171654762Y-79002438D01*
X171654762Y-79002438D02*
X171797619Y-78954819D01*
X171797619Y-78954819D02*
X171892857Y-78954819D01*
X171892857Y-78954819D02*
X172035714Y-79002438D01*
X172035714Y-79002438D02*
X172083333Y-79050057D01*
X172940476Y-79288152D02*
X172940476Y-79954819D01*
X172702381Y-78907200D02*
X172464286Y-79621485D01*
X172464286Y-79621485D02*
X173083333Y-79621485D01*
X180511905Y-84704819D02*
X180511905Y-83704819D01*
X180511905Y-83704819D02*
X180750000Y-83704819D01*
X180750000Y-83704819D02*
X180892857Y-83752438D01*
X180892857Y-83752438D02*
X180988095Y-83847676D01*
X180988095Y-83847676D02*
X181035714Y-83942914D01*
X181035714Y-83942914D02*
X181083333Y-84133390D01*
X181083333Y-84133390D02*
X181083333Y-84276247D01*
X181083333Y-84276247D02*
X181035714Y-84466723D01*
X181035714Y-84466723D02*
X180988095Y-84561961D01*
X180988095Y-84561961D02*
X180892857Y-84657200D01*
X180892857Y-84657200D02*
X180750000Y-84704819D01*
X180750000Y-84704819D02*
X180511905Y-84704819D01*
X182035714Y-84704819D02*
X181464286Y-84704819D01*
X181750000Y-84704819D02*
X181750000Y-83704819D01*
X181750000Y-83704819D02*
X181654762Y-83847676D01*
X181654762Y-83847676D02*
X181559524Y-83942914D01*
X181559524Y-83942914D02*
X181464286Y-83990533D01*
X176508148Y-86100774D02*
X176460529Y-86148394D01*
X176460529Y-86148394D02*
X176317672Y-86196013D01*
X176317672Y-86196013D02*
X176222434Y-86196013D01*
X176222434Y-86196013D02*
X176079577Y-86148394D01*
X176079577Y-86148394D02*
X175984339Y-86053155D01*
X175984339Y-86053155D02*
X175936720Y-85957917D01*
X175936720Y-85957917D02*
X175889101Y-85767441D01*
X175889101Y-85767441D02*
X175889101Y-85624584D01*
X175889101Y-85624584D02*
X175936720Y-85434108D01*
X175936720Y-85434108D02*
X175984339Y-85338870D01*
X175984339Y-85338870D02*
X176079577Y-85243632D01*
X176079577Y-85243632D02*
X176222434Y-85196013D01*
X176222434Y-85196013D02*
X176317672Y-85196013D01*
X176317672Y-85196013D02*
X176460529Y-85243632D01*
X176460529Y-85243632D02*
X176508148Y-85291251D01*
X176841482Y-85196013D02*
X177460529Y-85196013D01*
X177460529Y-85196013D02*
X177127196Y-85576965D01*
X177127196Y-85576965D02*
X177270053Y-85576965D01*
X177270053Y-85576965D02*
X177365291Y-85624584D01*
X177365291Y-85624584D02*
X177412910Y-85672203D01*
X177412910Y-85672203D02*
X177460529Y-85767441D01*
X177460529Y-85767441D02*
X177460529Y-86005536D01*
X177460529Y-86005536D02*
X177412910Y-86100774D01*
X177412910Y-86100774D02*
X177365291Y-86148394D01*
X177365291Y-86148394D02*
X177270053Y-86196013D01*
X177270053Y-86196013D02*
X176984339Y-86196013D01*
X176984339Y-86196013D02*
X176889101Y-86148394D01*
X176889101Y-86148394D02*
X176841482Y-86100774D01*
X178416666Y-77954819D02*
X178416666Y-78669104D01*
X178416666Y-78669104D02*
X178369047Y-78811961D01*
X178369047Y-78811961D02*
X178273809Y-78907200D01*
X178273809Y-78907200D02*
X178130952Y-78954819D01*
X178130952Y-78954819D02*
X178035714Y-78954819D01*
X178797619Y-77954819D02*
X179416666Y-77954819D01*
X179416666Y-77954819D02*
X179083333Y-78335771D01*
X179083333Y-78335771D02*
X179226190Y-78335771D01*
X179226190Y-78335771D02*
X179321428Y-78383390D01*
X179321428Y-78383390D02*
X179369047Y-78431009D01*
X179369047Y-78431009D02*
X179416666Y-78526247D01*
X179416666Y-78526247D02*
X179416666Y-78764342D01*
X179416666Y-78764342D02*
X179369047Y-78859580D01*
X179369047Y-78859580D02*
X179321428Y-78907200D01*
X179321428Y-78907200D02*
X179226190Y-78954819D01*
X179226190Y-78954819D02*
X178940476Y-78954819D01*
X178940476Y-78954819D02*
X178845238Y-78907200D01*
X178845238Y-78907200D02*
X178797619Y-78859580D01*
X158166666Y-81181009D02*
X157833333Y-81181009D01*
X157833333Y-81704819D02*
X157833333Y-80704819D01*
X157833333Y-80704819D02*
X158309523Y-80704819D01*
X159023809Y-81181009D02*
X159166666Y-81228628D01*
X159166666Y-81228628D02*
X159214285Y-81276247D01*
X159214285Y-81276247D02*
X159261904Y-81371485D01*
X159261904Y-81371485D02*
X159261904Y-81514342D01*
X159261904Y-81514342D02*
X159214285Y-81609580D01*
X159214285Y-81609580D02*
X159166666Y-81657200D01*
X159166666Y-81657200D02*
X159071428Y-81704819D01*
X159071428Y-81704819D02*
X158690476Y-81704819D01*
X158690476Y-81704819D02*
X158690476Y-80704819D01*
X158690476Y-80704819D02*
X159023809Y-80704819D01*
X159023809Y-80704819D02*
X159119047Y-80752438D01*
X159119047Y-80752438D02*
X159166666Y-80800057D01*
X159166666Y-80800057D02*
X159214285Y-80895295D01*
X159214285Y-80895295D02*
X159214285Y-80990533D01*
X159214285Y-80990533D02*
X159166666Y-81085771D01*
X159166666Y-81085771D02*
X159119047Y-81133390D01*
X159119047Y-81133390D02*
X159023809Y-81181009D01*
X159023809Y-81181009D02*
X158690476Y-81181009D01*
X160214285Y-81704819D02*
X159642857Y-81704819D01*
X159928571Y-81704819D02*
X159928571Y-80704819D01*
X159928571Y-80704819D02*
X159833333Y-80847676D01*
X159833333Y-80847676D02*
X159738095Y-80942914D01*
X159738095Y-80942914D02*
X159642857Y-80990533D01*
X169213095Y-87604819D02*
X169213095Y-88414342D01*
X169213095Y-88414342D02*
X169260714Y-88509580D01*
X169260714Y-88509580D02*
X169308333Y-88557200D01*
X169308333Y-88557200D02*
X169403571Y-88604819D01*
X169403571Y-88604819D02*
X169594047Y-88604819D01*
X169594047Y-88604819D02*
X169689285Y-88557200D01*
X169689285Y-88557200D02*
X169736904Y-88509580D01*
X169736904Y-88509580D02*
X169784523Y-88414342D01*
X169784523Y-88414342D02*
X169784523Y-87604819D01*
X170784523Y-88604819D02*
X170213095Y-88604819D01*
X170498809Y-88604819D02*
X170498809Y-87604819D01*
X170498809Y-87604819D02*
X170403571Y-87747676D01*
X170403571Y-87747676D02*
X170308333Y-87842914D01*
X170308333Y-87842914D02*
X170213095Y-87890533D01*
X156583333Y-79704819D02*
X156250000Y-79228628D01*
X156011905Y-79704819D02*
X156011905Y-78704819D01*
X156011905Y-78704819D02*
X156392857Y-78704819D01*
X156392857Y-78704819D02*
X156488095Y-78752438D01*
X156488095Y-78752438D02*
X156535714Y-78800057D01*
X156535714Y-78800057D02*
X156583333Y-78895295D01*
X156583333Y-78895295D02*
X156583333Y-79038152D01*
X156583333Y-79038152D02*
X156535714Y-79133390D01*
X156535714Y-79133390D02*
X156488095Y-79181009D01*
X156488095Y-79181009D02*
X156392857Y-79228628D01*
X156392857Y-79228628D02*
X156011905Y-79228628D01*
X156916667Y-78704819D02*
X157535714Y-78704819D01*
X157535714Y-78704819D02*
X157202381Y-79085771D01*
X157202381Y-79085771D02*
X157345238Y-79085771D01*
X157345238Y-79085771D02*
X157440476Y-79133390D01*
X157440476Y-79133390D02*
X157488095Y-79181009D01*
X157488095Y-79181009D02*
X157535714Y-79276247D01*
X157535714Y-79276247D02*
X157535714Y-79514342D01*
X157535714Y-79514342D02*
X157488095Y-79609580D01*
X157488095Y-79609580D02*
X157440476Y-79657200D01*
X157440476Y-79657200D02*
X157345238Y-79704819D01*
X157345238Y-79704819D02*
X157059524Y-79704819D01*
X157059524Y-79704819D02*
X156964286Y-79657200D01*
X156964286Y-79657200D02*
X156916667Y-79609580D01*
X172083333Y-77704819D02*
X171750000Y-77228628D01*
X171511905Y-77704819D02*
X171511905Y-76704819D01*
X171511905Y-76704819D02*
X171892857Y-76704819D01*
X171892857Y-76704819D02*
X171988095Y-76752438D01*
X171988095Y-76752438D02*
X172035714Y-76800057D01*
X172035714Y-76800057D02*
X172083333Y-76895295D01*
X172083333Y-76895295D02*
X172083333Y-77038152D01*
X172083333Y-77038152D02*
X172035714Y-77133390D01*
X172035714Y-77133390D02*
X171988095Y-77181009D01*
X171988095Y-77181009D02*
X171892857Y-77228628D01*
X171892857Y-77228628D02*
X171511905Y-77228628D01*
X172940476Y-77038152D02*
X172940476Y-77704819D01*
X172702381Y-76657200D02*
X172464286Y-77371485D01*
X172464286Y-77371485D02*
X173083333Y-77371485D01*
X157083333Y-74954819D02*
X156750000Y-74478628D01*
X156511905Y-74954819D02*
X156511905Y-73954819D01*
X156511905Y-73954819D02*
X156892857Y-73954819D01*
X156892857Y-73954819D02*
X156988095Y-74002438D01*
X156988095Y-74002438D02*
X157035714Y-74050057D01*
X157035714Y-74050057D02*
X157083333Y-74145295D01*
X157083333Y-74145295D02*
X157083333Y-74288152D01*
X157083333Y-74288152D02*
X157035714Y-74383390D01*
X157035714Y-74383390D02*
X156988095Y-74431009D01*
X156988095Y-74431009D02*
X156892857Y-74478628D01*
X156892857Y-74478628D02*
X156511905Y-74478628D01*
X157464286Y-74050057D02*
X157511905Y-74002438D01*
X157511905Y-74002438D02*
X157607143Y-73954819D01*
X157607143Y-73954819D02*
X157845238Y-73954819D01*
X157845238Y-73954819D02*
X157940476Y-74002438D01*
X157940476Y-74002438D02*
X157988095Y-74050057D01*
X157988095Y-74050057D02*
X158035714Y-74145295D01*
X158035714Y-74145295D02*
X158035714Y-74240533D01*
X158035714Y-74240533D02*
X157988095Y-74383390D01*
X157988095Y-74383390D02*
X157416667Y-74954819D01*
X157416667Y-74954819D02*
X158035714Y-74954819D01*
D12*
G04 #@! TO.C,G\u002A\u002A\u002A*
G36*
X174537583Y-91616225D02*
G01*
X174537583Y-91928802D01*
X174690746Y-91928802D01*
X174843908Y-91928802D01*
X174843908Y-92003820D01*
X174843908Y-92078839D01*
X174603224Y-92078839D01*
X174362540Y-92078839D01*
X174362540Y-91691243D01*
X174362540Y-91303648D01*
X174450061Y-91303648D01*
X174537583Y-91303648D01*
X174537583Y-91616225D01*
G37*
G36*
X172630864Y-91375541D02*
G01*
X172630864Y-91447433D01*
X172483953Y-91447433D01*
X172337041Y-91447433D01*
X172337041Y-91534955D01*
X172337041Y-91622476D01*
X172474575Y-91622476D01*
X172612109Y-91622476D01*
X172612109Y-91694369D01*
X172612109Y-91766262D01*
X172474684Y-91766262D01*
X172337260Y-91766262D01*
X172335588Y-91920987D01*
X172333916Y-92075713D01*
X172247957Y-92077452D01*
X172161998Y-92079191D01*
X172161998Y-91691420D01*
X172161998Y-91303648D01*
X172396431Y-91303648D01*
X172630864Y-91303648D01*
X172630864Y-91375541D01*
G37*
G36*
X173213938Y-91683357D02*
G01*
X173234411Y-91749766D01*
X173253746Y-91812730D01*
X173271631Y-91871219D01*
X173287754Y-91924203D01*
X173301805Y-91970652D01*
X173313471Y-92009534D01*
X173322441Y-92039820D01*
X173328404Y-92060480D01*
X173331048Y-92070482D01*
X173331154Y-92071191D01*
X173328303Y-92074385D01*
X173318862Y-92076498D01*
X173301328Y-92077634D01*
X173274201Y-92077894D01*
X173239208Y-92077443D01*
X173147380Y-92075713D01*
X173118476Y-91978814D01*
X173089573Y-91881915D01*
X172977911Y-91881915D01*
X172866250Y-91881915D01*
X172845329Y-91956934D01*
X172836610Y-91988248D01*
X172828520Y-92017392D01*
X172821984Y-92041026D01*
X172818042Y-92055395D01*
X172811676Y-92078839D01*
X172721270Y-92078839D01*
X172689276Y-92078737D01*
X172662271Y-92078457D01*
X172642452Y-92078037D01*
X172632018Y-92077516D01*
X172630963Y-92077276D01*
X172632760Y-92071189D01*
X172637912Y-92054150D01*
X172646114Y-92027162D01*
X172657058Y-91991230D01*
X172670439Y-91947355D01*
X172685951Y-91896542D01*
X172703288Y-91839793D01*
X172722144Y-91778112D01*
X172733511Y-91740952D01*
X172895376Y-91740952D01*
X172898607Y-91743984D01*
X172907219Y-91745909D01*
X172923061Y-91746974D01*
X172947980Y-91747424D01*
X172977824Y-91747507D01*
X173011941Y-91747389D01*
X173035396Y-91746869D01*
X173050030Y-91745702D01*
X173057685Y-91743641D01*
X173060201Y-91740441D01*
X173059651Y-91736567D01*
X173053478Y-91716101D01*
X173045294Y-91688012D01*
X173035734Y-91654588D01*
X173025436Y-91618115D01*
X173015036Y-91580880D01*
X173005172Y-91545168D01*
X172996478Y-91513266D01*
X172989593Y-91487462D01*
X172985152Y-91470040D01*
X172983938Y-91464625D01*
X172980187Y-91449610D01*
X172976342Y-91441594D01*
X172975509Y-91441182D01*
X172972433Y-91446839D01*
X172967733Y-91461926D01*
X172962248Y-91483612D01*
X172960185Y-91492757D01*
X172953463Y-91521417D01*
X172943712Y-91560036D01*
X172931467Y-91606591D01*
X172917264Y-91659055D01*
X172901638Y-91715406D01*
X172895679Y-91736567D01*
X172895376Y-91740952D01*
X172733511Y-91740952D01*
X172742213Y-91712503D01*
X172748718Y-91691243D01*
X172866374Y-91306774D01*
X172981489Y-91305139D01*
X173096603Y-91303505D01*
X173213938Y-91683357D01*
G37*
G36*
X175315176Y-91305011D02*
G01*
X175340554Y-91305730D01*
X175357382Y-91306870D01*
X175363467Y-91308188D01*
X175366134Y-91314886D01*
X175372071Y-91332304D01*
X175380891Y-91359204D01*
X175392211Y-91394349D01*
X175405645Y-91436501D01*
X175420808Y-91484422D01*
X175437317Y-91536874D01*
X175454785Y-91592621D01*
X175472828Y-91650424D01*
X175491062Y-91709045D01*
X175509102Y-91767248D01*
X175526562Y-91823794D01*
X175543058Y-91877447D01*
X175558205Y-91926967D01*
X175571619Y-91971119D01*
X175582914Y-92008663D01*
X175591707Y-92038363D01*
X175597611Y-92058980D01*
X175600242Y-92069278D01*
X175600344Y-92070065D01*
X175598571Y-92073633D01*
X175592089Y-92076046D01*
X175579156Y-92077444D01*
X175558031Y-92077967D01*
X175526973Y-92077755D01*
X175508516Y-92077443D01*
X175416688Y-92075713D01*
X175387785Y-91978814D01*
X175358881Y-91881915D01*
X175247220Y-91881915D01*
X175135559Y-91881915D01*
X175114637Y-91956934D01*
X175105918Y-91988248D01*
X175097828Y-92017392D01*
X175091293Y-92041026D01*
X175087350Y-92055395D01*
X175080985Y-92078839D01*
X174990578Y-92078839D01*
X174958585Y-92078737D01*
X174931581Y-92078457D01*
X174911764Y-92078037D01*
X174901332Y-92077516D01*
X174900278Y-92077276D01*
X174902075Y-92071188D01*
X174907225Y-92054148D01*
X174915423Y-92027160D01*
X174926362Y-91991225D01*
X174939737Y-91947349D01*
X174955241Y-91896533D01*
X174972569Y-91839782D01*
X174991414Y-91778099D01*
X175002770Y-91740952D01*
X175164710Y-91740952D01*
X175167922Y-91743983D01*
X175176518Y-91745909D01*
X175192343Y-91746973D01*
X175217244Y-91747424D01*
X175247132Y-91747507D01*
X175332371Y-91747507D01*
X175327872Y-91733441D01*
X175322547Y-91715960D01*
X175315018Y-91690137D01*
X175305932Y-91658299D01*
X175295933Y-91622775D01*
X175285667Y-91585893D01*
X175275779Y-91549980D01*
X175266915Y-91517365D01*
X175259721Y-91490376D01*
X175254841Y-91471340D01*
X175253092Y-91463703D01*
X175249359Y-91449041D01*
X175245512Y-91441466D01*
X175244817Y-91441182D01*
X175241727Y-91446836D01*
X175236987Y-91461915D01*
X175231445Y-91483593D01*
X175229352Y-91492757D01*
X175223672Y-91516819D01*
X175215353Y-91549980D01*
X175205168Y-91589312D01*
X175193888Y-91631884D01*
X175182288Y-91674767D01*
X175171140Y-91715034D01*
X175165032Y-91736567D01*
X175164710Y-91740952D01*
X175002770Y-91740952D01*
X175011472Y-91712487D01*
X175017968Y-91691243D01*
X175135554Y-91306774D01*
X175247146Y-91305062D01*
X175283342Y-91304770D01*
X175315176Y-91305011D01*
G37*
G36*
X173713559Y-91299759D02*
G01*
X173713710Y-91299769D01*
X173761692Y-91303848D01*
X173800604Y-91309675D01*
X173833837Y-91318000D01*
X173864785Y-91329576D01*
X173880004Y-91336594D01*
X173920231Y-91362038D01*
X173950879Y-91393526D01*
X173971916Y-91429380D01*
X173983311Y-91467922D01*
X173985034Y-91507476D01*
X173977053Y-91546363D01*
X173959338Y-91582905D01*
X173931857Y-91615425D01*
X173894579Y-91642244D01*
X173885749Y-91646873D01*
X173860237Y-91659495D01*
X173890817Y-91672604D01*
X173934603Y-91697406D01*
X173969339Y-91730091D01*
X173991710Y-91764769D01*
X174001228Y-91786340D01*
X174006610Y-91805920D01*
X174008937Y-91828786D01*
X174009328Y-91850789D01*
X174008645Y-91878718D01*
X174005772Y-91899734D01*
X173999469Y-91919392D01*
X173988882Y-91942464D01*
X173966860Y-91979255D01*
X173939875Y-92008068D01*
X173904909Y-92031782D01*
X173884046Y-92042365D01*
X173854319Y-92054893D01*
X173823878Y-92064521D01*
X173790412Y-92071628D01*
X173751606Y-92076591D01*
X173705150Y-92079788D01*
X173648730Y-92081599D01*
X173643613Y-92081697D01*
X173604946Y-92082247D01*
X173568905Y-92082464D01*
X173538037Y-92082353D01*
X173514888Y-92081924D01*
X173502953Y-92081291D01*
X173480584Y-92078675D01*
X173459410Y-92075678D01*
X173457630Y-92075389D01*
X173437312Y-92072021D01*
X173437312Y-91955191D01*
X173612355Y-91955191D01*
X173679559Y-91952628D01*
X173713014Y-91950836D01*
X173737263Y-91948057D01*
X173755595Y-91943712D01*
X173771302Y-91937221D01*
X173773578Y-91936056D01*
X173800165Y-91916048D01*
X173818413Y-91889761D01*
X173827858Y-91859835D01*
X173828035Y-91828910D01*
X173818477Y-91799627D01*
X173801564Y-91777236D01*
X173779158Y-91760087D01*
X173752026Y-91748095D01*
X173717686Y-91740469D01*
X173673656Y-91736418D01*
X173673308Y-91736401D01*
X173612355Y-91733332D01*
X173612355Y-91844262D01*
X173612355Y-91955191D01*
X173437312Y-91955191D01*
X173437312Y-91844262D01*
X173437312Y-91694755D01*
X173437342Y-91615783D01*
X173437349Y-91611427D01*
X173612355Y-91611427D01*
X173673308Y-91608767D01*
X173707316Y-91606482D01*
X173732224Y-91602678D01*
X173751401Y-91596732D01*
X173759874Y-91592771D01*
X173786674Y-91573075D01*
X173803617Y-91548544D01*
X173810661Y-91521477D01*
X173807763Y-91494175D01*
X173794882Y-91468939D01*
X173771975Y-91448069D01*
X173762630Y-91442745D01*
X173746754Y-91435834D01*
X173730103Y-91431577D01*
X173708991Y-91429390D01*
X173679730Y-91428691D01*
X173673546Y-91428679D01*
X173612355Y-91428679D01*
X173612355Y-91520053D01*
X173612355Y-91611427D01*
X173437349Y-91611427D01*
X173437447Y-91548409D01*
X173437548Y-91520053D01*
X173437649Y-91491731D01*
X173437970Y-91444843D01*
X173438433Y-91406842D01*
X173439059Y-91376823D01*
X173439872Y-91353883D01*
X173440893Y-91337117D01*
X173442145Y-91325622D01*
X173443650Y-91318492D01*
X173445430Y-91314825D01*
X173446697Y-91313887D01*
X173459302Y-91311231D01*
X173481937Y-91308541D01*
X173512130Y-91305948D01*
X173547408Y-91303584D01*
X173585300Y-91301578D01*
X173623333Y-91300062D01*
X173659036Y-91299167D01*
X173689935Y-91299022D01*
X173713559Y-91299759D01*
G37*
G36*
X176019463Y-91302528D02*
G01*
X176068908Y-91309009D01*
X176076792Y-91310551D01*
X176124003Y-91324895D01*
X176166909Y-91346662D01*
X176203284Y-91374281D01*
X176230904Y-91406182D01*
X176242824Y-91427806D01*
X176250529Y-91456204D01*
X176253079Y-91490312D01*
X176250607Y-91525007D01*
X176243248Y-91555167D01*
X176239237Y-91564298D01*
X176218230Y-91595412D01*
X176190754Y-91623014D01*
X176160939Y-91643085D01*
X176155827Y-91645506D01*
X176140964Y-91652933D01*
X176132483Y-91658856D01*
X176131725Y-91660199D01*
X176137103Y-91664335D01*
X176150560Y-91669787D01*
X176156339Y-91671632D01*
X176189165Y-91686938D01*
X176220673Y-91711401D01*
X176247319Y-91741876D01*
X176260811Y-91764343D01*
X176270423Y-91786062D01*
X176275864Y-91805621D01*
X176278227Y-91828321D01*
X176278636Y-91850789D01*
X176277954Y-91878718D01*
X176275080Y-91899734D01*
X176268777Y-91919392D01*
X176258190Y-91942464D01*
X176236168Y-91979255D01*
X176209184Y-92008068D01*
X176174217Y-92031782D01*
X176153354Y-92042365D01*
X176123627Y-92054893D01*
X176093187Y-92064521D01*
X176059720Y-92071628D01*
X176020915Y-92076591D01*
X175974458Y-92079788D01*
X175918039Y-92081599D01*
X175912921Y-92081697D01*
X175874255Y-92082247D01*
X175838214Y-92082464D01*
X175807345Y-92082353D01*
X175784196Y-92081924D01*
X175772262Y-92081291D01*
X175749893Y-92078675D01*
X175728719Y-92075678D01*
X175726938Y-92075389D01*
X175706621Y-92072021D01*
X175706621Y-91955191D01*
X175881664Y-91955191D01*
X175948868Y-91952628D01*
X175982322Y-91950836D01*
X176006571Y-91948057D01*
X176024903Y-91943712D01*
X176040610Y-91937221D01*
X176042886Y-91936056D01*
X176069473Y-91916048D01*
X176087722Y-91889761D01*
X176097167Y-91859835D01*
X176097343Y-91828910D01*
X176087785Y-91799627D01*
X176070872Y-91777236D01*
X176048680Y-91760342D01*
X176021511Y-91748440D01*
X175986953Y-91740763D01*
X175942784Y-91736554D01*
X175881664Y-91733186D01*
X175881664Y-91844188D01*
X175881664Y-91955191D01*
X175706621Y-91955191D01*
X175706621Y-91844188D01*
X175706621Y-91694755D01*
X175706650Y-91615783D01*
X175706657Y-91611427D01*
X175881664Y-91611427D01*
X175942616Y-91608767D01*
X175976625Y-91606482D01*
X176001533Y-91602678D01*
X176020709Y-91596732D01*
X176029183Y-91592771D01*
X176055982Y-91573075D01*
X176072925Y-91548544D01*
X176079969Y-91521477D01*
X176077072Y-91494175D01*
X176064190Y-91468939D01*
X176041283Y-91448069D01*
X176031939Y-91442745D01*
X176016062Y-91435834D01*
X175999412Y-91431577D01*
X175978300Y-91429390D01*
X175949039Y-91428691D01*
X175942854Y-91428679D01*
X175881664Y-91428679D01*
X175881664Y-91520053D01*
X175881664Y-91611427D01*
X175706657Y-91611427D01*
X175706755Y-91548409D01*
X175706856Y-91520053D01*
X175706957Y-91491731D01*
X175707278Y-91444843D01*
X175707741Y-91406842D01*
X175708368Y-91376823D01*
X175709180Y-91353883D01*
X175710202Y-91337117D01*
X175711454Y-91325622D01*
X175712959Y-91318492D01*
X175714739Y-91314825D01*
X175716005Y-91313887D01*
X175725237Y-91312211D01*
X175744567Y-91309943D01*
X175771617Y-91307321D01*
X175804011Y-91304584D01*
X175823844Y-91303072D01*
X175894659Y-91299493D01*
X175960623Y-91299334D01*
X176019463Y-91302528D01*
G37*
G36*
X172091632Y-87524763D02*
G01*
X172106721Y-87533945D01*
X172128872Y-87547957D01*
X172156420Y-87565743D01*
X172187696Y-87586247D01*
X172191366Y-87588671D01*
X172293006Y-87655875D01*
X172293361Y-88715511D01*
X172293717Y-89775147D01*
X172585758Y-89941488D01*
X172877799Y-90107829D01*
X172879444Y-89896177D01*
X172881089Y-89684524D01*
X172851752Y-89648566D01*
X172795390Y-89571953D01*
X172743152Y-89486172D01*
X172696498Y-89394273D01*
X172656886Y-89299304D01*
X172625774Y-89204313D01*
X172611240Y-89146033D01*
X172603846Y-89102352D01*
X172598478Y-89050972D01*
X172595240Y-88995546D01*
X172594240Y-88939727D01*
X172595582Y-88887166D01*
X172599371Y-88841516D01*
X172601941Y-88823977D01*
X172620845Y-88745555D01*
X172648776Y-88673828D01*
X172685112Y-88609538D01*
X172729232Y-88553422D01*
X172780511Y-88506221D01*
X172838329Y-88468673D01*
X172902061Y-88441519D01*
X172930938Y-88433269D01*
X172963577Y-88427990D01*
X173004382Y-88425472D01*
X173049347Y-88425610D01*
X173094467Y-88428301D01*
X173135737Y-88433441D01*
X173163483Y-88439298D01*
X173255370Y-88470169D01*
X173343380Y-88512308D01*
X173427959Y-88565991D01*
X173509552Y-88631492D01*
X173571816Y-88691386D01*
X173651659Y-88782206D01*
X173721561Y-88878899D01*
X173781086Y-88980535D01*
X173829800Y-89086189D01*
X173867268Y-89194931D01*
X173893056Y-89305833D01*
X173905696Y-89403912D01*
X173908061Y-89499570D01*
X173899510Y-89590594D01*
X173880152Y-89676333D01*
X173850095Y-89756136D01*
X173845846Y-89765134D01*
X173831000Y-89794137D01*
X173816420Y-89817786D01*
X173799283Y-89839946D01*
X173776767Y-89864483D01*
X173763364Y-89878095D01*
X173726601Y-89912534D01*
X173693839Y-89937868D01*
X173667079Y-89953748D01*
X173624905Y-89975196D01*
X173625036Y-90262767D01*
X173625167Y-90550338D01*
X173871948Y-90693499D01*
X174118730Y-90836661D01*
X174118730Y-90960753D01*
X174118730Y-91084844D01*
X174070280Y-91084013D01*
X174039023Y-91082860D01*
X174002979Y-91080621D01*
X173969763Y-91077771D01*
X173968693Y-91077661D01*
X173792199Y-91053321D01*
X173620626Y-91017487D01*
X173453955Y-90970152D01*
X173292168Y-90911308D01*
X173135246Y-90840947D01*
X172983171Y-90759063D01*
X172835925Y-90665647D01*
X172693489Y-90560692D01*
X172680876Y-90550657D01*
X172643193Y-90519059D01*
X172599847Y-90480343D01*
X172553116Y-90436738D01*
X172505274Y-90390471D01*
X172458596Y-90343772D01*
X172415358Y-90298868D01*
X172377836Y-90257987D01*
X172354981Y-90231509D01*
X172245672Y-90090869D01*
X172148042Y-89945786D01*
X172062052Y-89796167D01*
X171987659Y-89641922D01*
X171924823Y-89482960D01*
X171873503Y-89319189D01*
X171833657Y-89150518D01*
X171811898Y-89024962D01*
X171799049Y-88916756D01*
X171791051Y-88801322D01*
X171787966Y-88682772D01*
X171789855Y-88565219D01*
X171796780Y-88452777D01*
X171802510Y-88396683D01*
X171824199Y-88253702D01*
X171855427Y-88108161D01*
X171895226Y-87963684D01*
X171942624Y-87823894D01*
X171982433Y-87724642D01*
X171994696Y-87697101D01*
X172009100Y-87666229D01*
X172024638Y-87634013D01*
X172040307Y-87602438D01*
X172055099Y-87573491D01*
X172068011Y-87549158D01*
X172078036Y-87531425D01*
X172084169Y-87522278D01*
X172085275Y-87521467D01*
X172091632Y-87524763D01*
G37*
G36*
X176322775Y-87539561D02*
G01*
X176333121Y-87555153D01*
X176346800Y-87579483D01*
X176363073Y-87611151D01*
X176381199Y-87648757D01*
X176400438Y-87690899D01*
X176405678Y-87702762D01*
X176470566Y-87865921D01*
X176523245Y-88031493D01*
X176563682Y-88199091D01*
X176591844Y-88368326D01*
X176607699Y-88538811D01*
X176611214Y-88710156D01*
X176602357Y-88881975D01*
X176581095Y-89053879D01*
X176547394Y-89225480D01*
X176537348Y-89266993D01*
X176489984Y-89430367D01*
X176431077Y-89589812D01*
X176361087Y-89744614D01*
X176280476Y-89894062D01*
X176189702Y-90037440D01*
X176089229Y-90174037D01*
X175979515Y-90303139D01*
X175861022Y-90424033D01*
X175734210Y-90536005D01*
X175699526Y-90563890D01*
X175562662Y-90664161D01*
X175419280Y-90754626D01*
X175270281Y-90834940D01*
X175116568Y-90904757D01*
X174959043Y-90963731D01*
X174798609Y-91011517D01*
X174636167Y-91047769D01*
X174472619Y-91072140D01*
X174345849Y-91082629D01*
X174268767Y-91086750D01*
X174268767Y-90964527D01*
X174268767Y-90842304D01*
X174667302Y-90609569D01*
X174735776Y-90569587D01*
X174813326Y-90524313D01*
X174898229Y-90474754D01*
X174988759Y-90421917D01*
X175083192Y-90366806D01*
X175179804Y-90310430D01*
X175276870Y-90253793D01*
X175372665Y-90197904D01*
X175465466Y-90143766D01*
X175553547Y-90092388D01*
X175585292Y-90073873D01*
X176104746Y-89770912D01*
X176108845Y-89616741D01*
X176110094Y-89563169D01*
X176111105Y-89506324D01*
X176111882Y-89447519D01*
X176112428Y-89388068D01*
X176112745Y-89329284D01*
X176112838Y-89272479D01*
X176112709Y-89218967D01*
X176112361Y-89170062D01*
X176111799Y-89127076D01*
X176111024Y-89091323D01*
X176110040Y-89064116D01*
X176108850Y-89046768D01*
X176107458Y-89040592D01*
X176107440Y-89040591D01*
X176100823Y-89043604D01*
X176084784Y-89052129D01*
X176060707Y-89065392D01*
X176029979Y-89082619D01*
X175993987Y-89103039D01*
X175954116Y-89125876D01*
X175940691Y-89133611D01*
X175779473Y-89226631D01*
X175740710Y-89335223D01*
X175722553Y-89385534D01*
X175707364Y-89426109D01*
X175694208Y-89459091D01*
X175682148Y-89486622D01*
X175670251Y-89510845D01*
X175657581Y-89533901D01*
X175644282Y-89556182D01*
X175586578Y-89641173D01*
X175522360Y-89719378D01*
X175452684Y-89790002D01*
X175378611Y-89852251D01*
X175301199Y-89905330D01*
X175221505Y-89948445D01*
X175140590Y-89980801D01*
X175059511Y-90001605D01*
X175048129Y-90003563D01*
X174989548Y-90008975D01*
X174927900Y-90007563D01*
X174868059Y-89999673D01*
X174819826Y-89987335D01*
X174754589Y-89959547D01*
X174697167Y-89922094D01*
X174647521Y-89874930D01*
X174605614Y-89818008D01*
X174571409Y-89751281D01*
X174544869Y-89674702D01*
X174534086Y-89630981D01*
X174528385Y-89594358D01*
X174524723Y-89548892D01*
X174523104Y-89498076D01*
X174523533Y-89445403D01*
X174526016Y-89394365D01*
X174530555Y-89348457D01*
X174533662Y-89328162D01*
X174559244Y-89214857D01*
X174595022Y-89103930D01*
X174640224Y-88996784D01*
X174694080Y-88894820D01*
X174755817Y-88799440D01*
X174824664Y-88712044D01*
X174899849Y-88634035D01*
X174931132Y-88606109D01*
X175009352Y-88545326D01*
X175088319Y-88495638D01*
X175167492Y-88457192D01*
X175246328Y-88430132D01*
X175324286Y-88414603D01*
X175400824Y-88410752D01*
X175475399Y-88418722D01*
X175547471Y-88438661D01*
X175550840Y-88439915D01*
X175575782Y-88452239D01*
X175605918Y-88471805D01*
X175638083Y-88496555D01*
X175638361Y-88496786D01*
X175661221Y-88515408D01*
X175681762Y-88531473D01*
X175697365Y-88542967D01*
X175704261Y-88547384D01*
X175709377Y-88548724D01*
X175716960Y-88547941D01*
X175728231Y-88544495D01*
X175744416Y-88537843D01*
X175766735Y-88527446D01*
X175796412Y-88512762D01*
X175834670Y-88493249D01*
X175882430Y-88468523D01*
X175925739Y-88445991D01*
X175966848Y-88424572D01*
X176004049Y-88405159D01*
X176035632Y-88388646D01*
X176059889Y-88375924D01*
X176075112Y-88367886D01*
X176076973Y-88366892D01*
X176106617Y-88350990D01*
X176108231Y-87998040D01*
X176109845Y-87645089D01*
X176209869Y-87589667D01*
X176242098Y-87571994D01*
X176270744Y-87556635D01*
X176293949Y-87544557D01*
X176309859Y-87536728D01*
X176316504Y-87534107D01*
X176322775Y-87539561D01*
G37*
G36*
X174279549Y-86269419D02*
G01*
X174350175Y-86271644D01*
X174415390Y-86275734D01*
X174478708Y-86281975D01*
X174543642Y-86290655D01*
X174613704Y-86302059D01*
X174618853Y-86302960D01*
X174784990Y-86338447D01*
X174948037Y-86385792D01*
X175107295Y-86444583D01*
X175262067Y-86514406D01*
X175411658Y-86594848D01*
X175555368Y-86685496D01*
X175692503Y-86785936D01*
X175822363Y-86895757D01*
X175944253Y-87014544D01*
X176057474Y-87141884D01*
X176079053Y-87168387D01*
X176101942Y-87197674D01*
X176126337Y-87230189D01*
X176151196Y-87264399D01*
X176175474Y-87298768D01*
X176198130Y-87331763D01*
X176218118Y-87361849D01*
X176234396Y-87387491D01*
X176245921Y-87407157D01*
X176251648Y-87419311D01*
X176251816Y-87422415D01*
X176245144Y-87426656D01*
X176229333Y-87435849D01*
X176206218Y-87448954D01*
X176177633Y-87464928D01*
X176148418Y-87481079D01*
X176112732Y-87500560D01*
X176086191Y-87514549D01*
X176067086Y-87523753D01*
X176053706Y-87528881D01*
X176044338Y-87530640D01*
X176037272Y-87529738D01*
X176033923Y-87528445D01*
X176027144Y-87524862D01*
X176012645Y-87516754D01*
X175990171Y-87503973D01*
X175959465Y-87486369D01*
X175920272Y-87463797D01*
X175872337Y-87436107D01*
X175815405Y-87403151D01*
X175749219Y-87364782D01*
X175673524Y-87320852D01*
X175588065Y-87271213D01*
X175492587Y-87215717D01*
X175386833Y-87154217D01*
X175270548Y-87086563D01*
X175265887Y-87083851D01*
X175242391Y-87070183D01*
X175209480Y-87051044D01*
X175168549Y-87027246D01*
X175120994Y-86999600D01*
X175068211Y-86968917D01*
X175011595Y-86936009D01*
X174952541Y-86901686D01*
X174892445Y-86866760D01*
X174865789Y-86851269D01*
X174801853Y-86814114D01*
X174735251Y-86775410D01*
X174667868Y-86736251D01*
X174601586Y-86697732D01*
X174538288Y-86660948D01*
X174479858Y-86626992D01*
X174428178Y-86596959D01*
X174385133Y-86571943D01*
X174379339Y-86568576D01*
X174199215Y-86463898D01*
X173982366Y-86587515D01*
X173930092Y-86617295D01*
X173877140Y-86647424D01*
X173825441Y-86676806D01*
X173776924Y-86704347D01*
X173733521Y-86728949D01*
X173697162Y-86749517D01*
X173670320Y-86764651D01*
X173639422Y-86782187D01*
X173612695Y-86797673D01*
X173591897Y-86810064D01*
X173578784Y-86818316D01*
X173574993Y-86821295D01*
X173579941Y-86825543D01*
X173593686Y-86835238D01*
X173614441Y-86849171D01*
X173640419Y-86866134D01*
X173657688Y-86877211D01*
X173691006Y-86898449D01*
X173725132Y-86920204D01*
X173756629Y-86940284D01*
X173782057Y-86956499D01*
X173788022Y-86960302D01*
X173835532Y-86990603D01*
X173909927Y-86977926D01*
X173974169Y-86967683D01*
X174030505Y-86960412D01*
X174083075Y-86955735D01*
X174136018Y-86953269D01*
X174185614Y-86952629D01*
X174293377Y-86956971D01*
X174396124Y-86969892D01*
X174493163Y-86991041D01*
X174583804Y-87020066D01*
X174667352Y-87056617D01*
X174743118Y-87100343D01*
X174810408Y-87150893D01*
X174868531Y-87207916D01*
X174916796Y-87271062D01*
X174954509Y-87339979D01*
X174955986Y-87343298D01*
X174975632Y-87399589D01*
X174988214Y-87461197D01*
X174993331Y-87524179D01*
X174990583Y-87584590D01*
X174984206Y-87621397D01*
X174962552Y-87686724D01*
X174929308Y-87750005D01*
X174885327Y-87810445D01*
X174831457Y-87867248D01*
X174768551Y-87919620D01*
X174697458Y-87966766D01*
X174619031Y-88007891D01*
X174534119Y-88042199D01*
X174533664Y-88042358D01*
X174445248Y-88068118D01*
X174349197Y-88086804D01*
X174265641Y-88096516D01*
X174232762Y-88099123D01*
X174206927Y-88100787D01*
X174184627Y-88101502D01*
X174162349Y-88101265D01*
X174136585Y-88100071D01*
X174103822Y-88097915D01*
X174081221Y-88096295D01*
X173980263Y-88085044D01*
X173882858Y-88066468D01*
X173789874Y-88041072D01*
X173702182Y-88009357D01*
X173620651Y-87971828D01*
X173546153Y-87928987D01*
X173479557Y-87881337D01*
X173421734Y-87829382D01*
X173373553Y-87773623D01*
X173335885Y-87714566D01*
X173309599Y-87652711D01*
X173308620Y-87649622D01*
X173302555Y-87629260D01*
X173298319Y-87611601D01*
X173295650Y-87593781D01*
X173294282Y-87572932D01*
X173293953Y-87546188D01*
X173294399Y-87510681D01*
X173294647Y-87497788D01*
X173296653Y-87397207D01*
X173249766Y-87369677D01*
X173230847Y-87358530D01*
X173203383Y-87342299D01*
X173169579Y-87322288D01*
X173131638Y-87299801D01*
X173091762Y-87276144D01*
X173069392Y-87262862D01*
X172935904Y-87183577D01*
X172678670Y-87341168D01*
X172626171Y-87373330D01*
X172576025Y-87404049D01*
X172529424Y-87432594D01*
X172487561Y-87458235D01*
X172451629Y-87480241D01*
X172422820Y-87497881D01*
X172402327Y-87510427D01*
X172391545Y-87517022D01*
X172361653Y-87535286D01*
X172258700Y-87470766D01*
X172226904Y-87450579D01*
X172199096Y-87432422D01*
X172176897Y-87417398D01*
X172161928Y-87406604D01*
X172155810Y-87401143D01*
X172155747Y-87400916D01*
X172159287Y-87393112D01*
X172169137Y-87376939D01*
X172184141Y-87354058D01*
X172203144Y-87326128D01*
X172224989Y-87294811D01*
X172248522Y-87261766D01*
X172272587Y-87228655D01*
X172296029Y-87197138D01*
X172313309Y-87174507D01*
X172338598Y-87143621D01*
X172371319Y-87106323D01*
X172409592Y-87064542D01*
X172451536Y-87020207D01*
X172495270Y-86975247D01*
X172538911Y-86931590D01*
X172580580Y-86891166D01*
X172618394Y-86855904D01*
X172650473Y-86827732D01*
X172655870Y-86823254D01*
X172795469Y-86716589D01*
X172940807Y-86620720D01*
X173091399Y-86535895D01*
X173246756Y-86462356D01*
X173406395Y-86400351D01*
X173569827Y-86350125D01*
X173618929Y-86337536D01*
X173723650Y-86313821D01*
X173822949Y-86295612D01*
X173920571Y-86282463D01*
X174020263Y-86273932D01*
X174125769Y-86269575D01*
X174200000Y-86268771D01*
X174279549Y-86269419D01*
G37*
G36*
X159547245Y-90831230D02*
G01*
X159547245Y-90885561D01*
X153027459Y-90885561D01*
X146507673Y-90885561D01*
X146507673Y-90831230D01*
X146507673Y-90776898D01*
X153027459Y-90776898D01*
X159547245Y-90776898D01*
X159547245Y-90831230D01*
G37*
G36*
X159655908Y-87258930D02*
G01*
X159655908Y-87313262D01*
X153108956Y-87313262D01*
X146562005Y-87313262D01*
X146562005Y-87258930D01*
X146562005Y-87204599D01*
X153108956Y-87204599D01*
X159655908Y-87204599D01*
X159655908Y-87258930D01*
G37*
G36*
X155893448Y-89004963D02*
G01*
X155893337Y-89184034D01*
X155893014Y-89355128D01*
X155892496Y-89516324D01*
X155891798Y-89665702D01*
X155890938Y-89801340D01*
X155889930Y-89921318D01*
X155888790Y-90023714D01*
X155887536Y-90106610D01*
X155886184Y-90168083D01*
X155884748Y-90206212D01*
X155883261Y-90219081D01*
X155864263Y-90212996D01*
X155842513Y-90203422D01*
X155811951Y-90188683D01*
X155812037Y-89012443D01*
X155812123Y-87836203D01*
X155852786Y-87813065D01*
X155893448Y-87789927D01*
X155893448Y-89004963D01*
G37*
G36*
X155730419Y-87856517D02*
G01*
X155731411Y-87871468D01*
X155732277Y-87911589D01*
X155733013Y-87974882D01*
X155733613Y-88059351D01*
X155734071Y-88163000D01*
X155734382Y-88283832D01*
X155734540Y-88419850D01*
X155734539Y-88569059D01*
X155734375Y-88729462D01*
X155734040Y-88899061D01*
X155733698Y-89023404D01*
X155732970Y-89235477D01*
X155732154Y-89421791D01*
X155731224Y-89583752D01*
X155730156Y-89722768D01*
X155728924Y-89840245D01*
X155727505Y-89937590D01*
X155725873Y-90016209D01*
X155724003Y-90077509D01*
X155721870Y-90122897D01*
X155719451Y-90153780D01*
X155716719Y-90171564D01*
X155713650Y-90177655D01*
X155713324Y-90177676D01*
X155685766Y-90172968D01*
X155672726Y-90169888D01*
X155668521Y-90167624D01*
X155664842Y-90162036D01*
X155661653Y-90151423D01*
X155658921Y-90134081D01*
X155656609Y-90108308D01*
X155654683Y-90072400D01*
X155653109Y-90024656D01*
X155651850Y-89963373D01*
X155650873Y-89886847D01*
X155650142Y-89793377D01*
X155649622Y-89681258D01*
X155649278Y-89548789D01*
X155649076Y-89394267D01*
X155648981Y-89215989D01*
X155648956Y-89012252D01*
X155648956Y-89011710D01*
X155648956Y-87859744D01*
X155686275Y-87852611D01*
X155715634Y-87850911D01*
X155730419Y-87856517D01*
G37*
G36*
X156246421Y-87452055D02*
G01*
X156273397Y-87457921D01*
X156285065Y-87470906D01*
X156287352Y-87490163D01*
X156283361Y-87508720D01*
X156268556Y-87523686D01*
X156238689Y-87537112D01*
X156189511Y-87551050D01*
X156135491Y-87563493D01*
X156049768Y-87587483D01*
X155986431Y-87618176D01*
X155940983Y-87658351D01*
X155913823Y-87700495D01*
X155886657Y-87754706D01*
X155837686Y-87730756D01*
X155779868Y-87711999D01*
X155703902Y-87700732D01*
X155617713Y-87696823D01*
X155529229Y-87700139D01*
X155446375Y-87710545D01*
X155377076Y-87727910D01*
X155350426Y-87738941D01*
X155325245Y-87749470D01*
X155311242Y-87744287D01*
X155299416Y-87718778D01*
X155296730Y-87711410D01*
X155273821Y-87671508D01*
X155234405Y-87637159D01*
X155175545Y-87606708D01*
X155094310Y-87578501D01*
X155030205Y-87561108D01*
X154965713Y-87544542D01*
X154923144Y-87532023D01*
X154897978Y-87521385D01*
X154885693Y-87510461D01*
X154881767Y-87497084D01*
X154881523Y-87489840D01*
X154881523Y-87455882D01*
X155506336Y-87453303D01*
X155636638Y-87452771D01*
X155760665Y-87452274D01*
X155875339Y-87451825D01*
X155977581Y-87451435D01*
X156064313Y-87451116D01*
X156132455Y-87450879D01*
X156178930Y-87450736D01*
X156198241Y-87450696D01*
X156246421Y-87452055D01*
G37*
G36*
X155343578Y-87806608D02*
G01*
X155362552Y-87815206D01*
X155390882Y-87830367D01*
X155390882Y-89011123D01*
X155390868Y-89217266D01*
X155390802Y-89397945D01*
X155390647Y-89554861D01*
X155390365Y-89689716D01*
X155389919Y-89804211D01*
X155389271Y-89900048D01*
X155388384Y-89978928D01*
X155387220Y-90042552D01*
X155385743Y-90092623D01*
X155383914Y-90130842D01*
X155381696Y-90158909D01*
X155379052Y-90178527D01*
X155375944Y-90191398D01*
X155372336Y-90199222D01*
X155368188Y-90203701D01*
X155364609Y-90205939D01*
X155340396Y-90217229D01*
X155330652Y-90220000D01*
X155329484Y-90206742D01*
X155328335Y-90168272D01*
X155327220Y-90106540D01*
X155326155Y-90023500D01*
X155325154Y-89921103D01*
X155324233Y-89801304D01*
X155323407Y-89666052D01*
X155322692Y-89517303D01*
X155322103Y-89357007D01*
X155321655Y-89187117D01*
X155321403Y-89041684D01*
X155321135Y-88830649D01*
X155320933Y-88645131D01*
X155320810Y-88483479D01*
X155320776Y-88344046D01*
X155320843Y-88225181D01*
X155321021Y-88125236D01*
X155321324Y-88042561D01*
X155321761Y-87975507D01*
X155322345Y-87922425D01*
X155323086Y-87881665D01*
X155323996Y-87851578D01*
X155325086Y-87830515D01*
X155326368Y-87816828D01*
X155327853Y-87808865D01*
X155329553Y-87804979D01*
X155329923Y-87804541D01*
X155343578Y-87806608D01*
G37*
G36*
X155895742Y-90276896D02*
G01*
X155900926Y-90291547D01*
X155922041Y-90330692D01*
X155958699Y-90372749D01*
X156002193Y-90408386D01*
X156019653Y-90418804D01*
X156048786Y-90430407D01*
X156096738Y-90445720D01*
X156155844Y-90462402D01*
X156196231Y-90472775D01*
X156277154Y-90494227D01*
X156334285Y-90513424D01*
X156370715Y-90532008D01*
X156389537Y-90551618D01*
X156393844Y-90573896D01*
X156393452Y-90577409D01*
X156389224Y-90607112D01*
X155656883Y-90607277D01*
X155491681Y-90607202D01*
X155351699Y-90606864D01*
X155234990Y-90606218D01*
X155139609Y-90605217D01*
X155063610Y-90603814D01*
X155005048Y-90601963D01*
X154961977Y-90599617D01*
X154932451Y-90596730D01*
X154914525Y-90593255D01*
X154906428Y-90589328D01*
X154888523Y-90559844D01*
X154896635Y-90532844D01*
X154931065Y-90508074D01*
X154992117Y-90485278D01*
X155046312Y-90471378D01*
X155144400Y-90440597D01*
X155218793Y-90397740D01*
X155270416Y-90342210D01*
X155284033Y-90318124D01*
X155305708Y-90281048D01*
X155322623Y-90269737D01*
X155327802Y-90271892D01*
X155372014Y-90293881D01*
X155436139Y-90309947D01*
X155513554Y-90319985D01*
X155597635Y-90323890D01*
X155681760Y-90321557D01*
X155759305Y-90312879D01*
X155823649Y-90297753D01*
X155862047Y-90280378D01*
X155884584Y-90268850D01*
X155895742Y-90276896D01*
G37*
G36*
X146758956Y-91239018D02*
G01*
X146714812Y-91273809D01*
X146670668Y-91308600D01*
X146670668Y-91598877D01*
X146670756Y-91694764D01*
X146671255Y-91767130D01*
X146672519Y-91819622D01*
X146674901Y-91855886D01*
X146678755Y-91879567D01*
X146684433Y-91894311D01*
X146692290Y-91903764D01*
X146700856Y-91910299D01*
X146732528Y-91926453D01*
X146755187Y-91931444D01*
X146775562Y-91937762D01*
X146779331Y-91945027D01*
X146766417Y-91951337D01*
X146730285Y-91955899D01*
X146674849Y-91958321D01*
X146643502Y-91958610D01*
X146580402Y-91957318D01*
X146534783Y-91953705D01*
X146510556Y-91948161D01*
X146507673Y-91945027D01*
X146518920Y-91933609D01*
X146532122Y-91931444D01*
X146550045Y-91929852D01*
X146563777Y-91922964D01*
X146573872Y-91907610D01*
X146580883Y-91880619D01*
X146585365Y-91838822D01*
X146587871Y-91779048D01*
X146588954Y-91698127D01*
X146589170Y-91604843D01*
X146588996Y-91507370D01*
X146588285Y-91433449D01*
X146586753Y-91379466D01*
X146584116Y-91341809D01*
X146580092Y-91316866D01*
X146574396Y-91301022D01*
X146566745Y-91290665D01*
X146564331Y-91288362D01*
X146536025Y-91270662D01*
X146516791Y-91265882D01*
X146497269Y-91259210D01*
X146494090Y-91252299D01*
X146506987Y-91245947D01*
X146543009Y-91241406D01*
X146598149Y-91239083D01*
X146626523Y-91238867D01*
X146758956Y-91239018D01*
G37*
G36*
X151920454Y-91239018D02*
G01*
X151876309Y-91273809D01*
X151832165Y-91308600D01*
X151832165Y-91598877D01*
X151832253Y-91694764D01*
X151832752Y-91767130D01*
X151834016Y-91819622D01*
X151836398Y-91855886D01*
X151840252Y-91879567D01*
X151845931Y-91894311D01*
X151853788Y-91903764D01*
X151862353Y-91910299D01*
X151894025Y-91926453D01*
X151916685Y-91931444D01*
X151937060Y-91937762D01*
X151940828Y-91945027D01*
X151927914Y-91951337D01*
X151891783Y-91955899D01*
X151836346Y-91958321D01*
X151804999Y-91958610D01*
X151741900Y-91957318D01*
X151696280Y-91953705D01*
X151672053Y-91948161D01*
X151669170Y-91945027D01*
X151680417Y-91933609D01*
X151693620Y-91931444D01*
X151711543Y-91929852D01*
X151725275Y-91922964D01*
X151735369Y-91907610D01*
X151742381Y-91880619D01*
X151746862Y-91838822D01*
X151749368Y-91779048D01*
X151750451Y-91698127D01*
X151750668Y-91604843D01*
X151750494Y-91507370D01*
X151749782Y-91433449D01*
X151748250Y-91379466D01*
X151745614Y-91341809D01*
X151741589Y-91316866D01*
X151735894Y-91301022D01*
X151728243Y-91290665D01*
X151725828Y-91288362D01*
X151697522Y-91270662D01*
X151678288Y-91265882D01*
X151658767Y-91259210D01*
X151655587Y-91252299D01*
X151668485Y-91245947D01*
X151704506Y-91241406D01*
X151759646Y-91239083D01*
X151788021Y-91238867D01*
X151920454Y-91239018D01*
G37*
G36*
X155493864Y-87848333D02*
G01*
X155526349Y-87855571D01*
X155541404Y-87856577D01*
X155546000Y-87857174D01*
X155550021Y-87860098D01*
X155553506Y-87867047D01*
X155556493Y-87879724D01*
X155559021Y-87899826D01*
X155561127Y-87929055D01*
X155562850Y-87969109D01*
X155564229Y-88021689D01*
X155565301Y-88088495D01*
X155566106Y-88171226D01*
X155566681Y-88271582D01*
X155567065Y-88391264D01*
X155567297Y-88531970D01*
X155567414Y-88695402D01*
X155567455Y-88883258D01*
X155567459Y-89011123D01*
X155567384Y-89222569D01*
X155567147Y-89408283D01*
X155566724Y-89569700D01*
X155566097Y-89708253D01*
X155565242Y-89825376D01*
X155564140Y-89922503D01*
X155562770Y-90001068D01*
X155561109Y-90062504D01*
X155559138Y-90108246D01*
X155556835Y-90139727D01*
X155554179Y-90158381D01*
X155551148Y-90165642D01*
X155550480Y-90165854D01*
X155524276Y-90169359D01*
X155502940Y-90174229D01*
X155472379Y-90182420D01*
X155472379Y-89011254D01*
X155472412Y-88805039D01*
X155472533Y-88624346D01*
X155472771Y-88467529D01*
X155473158Y-88332944D01*
X155473722Y-88218946D01*
X155474495Y-88123890D01*
X155475508Y-88046132D01*
X155476790Y-87984027D01*
X155478372Y-87935930D01*
X155480284Y-87900198D01*
X155482557Y-87875184D01*
X155485220Y-87859245D01*
X155488306Y-87850736D01*
X155491843Y-87848012D01*
X155493864Y-87848333D01*
G37*
G36*
X157910507Y-91239018D02*
G01*
X157866363Y-91273809D01*
X157822218Y-91308600D01*
X157822218Y-91598877D01*
X157822306Y-91694764D01*
X157822806Y-91767130D01*
X157824070Y-91819622D01*
X157826452Y-91855886D01*
X157830305Y-91879567D01*
X157835984Y-91894311D01*
X157843841Y-91903764D01*
X157852407Y-91910299D01*
X157884078Y-91926453D01*
X157906738Y-91931444D01*
X157927113Y-91937762D01*
X157930882Y-91945027D01*
X157917968Y-91951337D01*
X157881836Y-91955899D01*
X157826400Y-91958321D01*
X157795053Y-91958610D01*
X157731953Y-91957318D01*
X157686333Y-91953705D01*
X157662107Y-91948161D01*
X157659224Y-91945027D01*
X157670471Y-91933609D01*
X157683673Y-91931444D01*
X157701596Y-91929852D01*
X157715328Y-91922964D01*
X157725423Y-91907610D01*
X157732434Y-91880619D01*
X157736916Y-91838822D01*
X157739421Y-91779048D01*
X157740505Y-91698127D01*
X157740721Y-91604843D01*
X157740547Y-91507370D01*
X157739836Y-91433449D01*
X157738304Y-91379466D01*
X157735667Y-91341809D01*
X157731643Y-91316866D01*
X157725947Y-91301022D01*
X157718296Y-91290665D01*
X157715882Y-91288362D01*
X157687576Y-91270662D01*
X157668341Y-91265882D01*
X157648820Y-91259210D01*
X157645641Y-91252299D01*
X157658538Y-91245947D01*
X157694559Y-91241406D01*
X157749699Y-91239083D01*
X157778074Y-91238867D01*
X157910507Y-91239018D01*
G37*
G36*
X151326092Y-91238737D02*
G01*
X151404918Y-91239336D01*
X151462792Y-91241322D01*
X151502820Y-91245505D01*
X151528108Y-91252691D01*
X151541763Y-91263690D01*
X151546892Y-91279309D01*
X151546599Y-91300357D01*
X151544486Y-91322317D01*
X151540133Y-91367754D01*
X151519615Y-91327005D01*
X151508653Y-91307429D01*
X151495683Y-91295184D01*
X151474459Y-91288265D01*
X151438739Y-91284670D01*
X151382277Y-91282394D01*
X151380390Y-91282332D01*
X151261684Y-91278408D01*
X151261684Y-91592523D01*
X151261684Y-91906638D01*
X151302432Y-91922019D01*
X151333494Y-91936338D01*
X151339880Y-91946873D01*
X151320974Y-91953903D01*
X151276155Y-91957705D01*
X151220935Y-91958610D01*
X151162360Y-91957185D01*
X151120576Y-91953241D01*
X151100043Y-91947274D01*
X151098689Y-91945027D01*
X151109936Y-91933609D01*
X151123138Y-91931444D01*
X151140687Y-91929956D01*
X151154226Y-91923424D01*
X151164271Y-91908748D01*
X151171340Y-91882826D01*
X151175948Y-91842556D01*
X151178614Y-91784839D01*
X151179853Y-91706573D01*
X151180183Y-91604656D01*
X151180186Y-91589155D01*
X151180186Y-91279465D01*
X151074919Y-91279673D01*
X151013871Y-91280813D01*
X150973940Y-91285513D01*
X150949103Y-91296135D01*
X150933339Y-91315036D01*
X150922581Y-91339353D01*
X150909414Y-91367063D01*
X150901432Y-91369233D01*
X150899269Y-91347104D01*
X150903539Y-91302059D01*
X150912221Y-91238717D01*
X151223208Y-91238717D01*
X151326092Y-91238737D01*
G37*
G36*
X149093350Y-91234548D02*
G01*
X149137301Y-91241691D01*
X149177680Y-91256764D01*
X149208905Y-91272821D01*
X149285802Y-91326433D01*
X149340092Y-91391986D01*
X149373227Y-91472103D01*
X149386658Y-91569408D01*
X149387112Y-91594831D01*
X149376396Y-91697363D01*
X149343843Y-91784911D01*
X149288407Y-91859982D01*
X149267940Y-91879741D01*
X149194017Y-91929132D01*
X149106044Y-91959900D01*
X149011165Y-91970414D01*
X148918636Y-91959555D01*
X148825601Y-91925107D01*
X148752037Y-91871923D01*
X148698548Y-91800810D01*
X148665738Y-91712579D01*
X148654210Y-91608036D01*
X148654200Y-91605454D01*
X148659696Y-91548504D01*
X148721982Y-91548504D01*
X148727636Y-91642937D01*
X148746908Y-91720673D01*
X148782164Y-91789738D01*
X148800833Y-91816156D01*
X148862277Y-91878744D01*
X148934512Y-91922165D01*
X149012202Y-91944555D01*
X149090011Y-91944051D01*
X149133569Y-91932354D01*
X149183302Y-91903465D01*
X149233897Y-91857916D01*
X149276624Y-91804463D01*
X149296306Y-91769042D01*
X149320515Y-91684767D01*
X149323246Y-91596367D01*
X149306546Y-91508826D01*
X149272464Y-91427128D01*
X149223051Y-91356255D01*
X149160353Y-91301192D01*
X149090344Y-91268063D01*
X148998188Y-91252180D01*
X148915193Y-91260733D01*
X148843853Y-91291822D01*
X148786665Y-91343548D01*
X148746123Y-91414010D01*
X148724722Y-91501310D01*
X148721982Y-91548504D01*
X148659696Y-91548504D01*
X148664087Y-91503012D01*
X148694941Y-91416220D01*
X148748008Y-91342043D01*
X148772108Y-91318457D01*
X148830015Y-91275227D01*
X148892997Y-91248231D01*
X148968560Y-91235011D01*
X149034090Y-91232638D01*
X149093350Y-91234548D01*
G37*
G36*
X152529821Y-91234548D02*
G01*
X152573772Y-91241691D01*
X152614151Y-91256764D01*
X152645376Y-91272821D01*
X152722273Y-91326433D01*
X152776563Y-91391986D01*
X152809697Y-91472103D01*
X152823129Y-91569408D01*
X152823583Y-91594831D01*
X152812866Y-91697363D01*
X152780314Y-91784911D01*
X152724878Y-91859982D01*
X152704411Y-91879741D01*
X152630488Y-91929132D01*
X152542514Y-91959900D01*
X152447636Y-91970414D01*
X152355106Y-91959555D01*
X152262071Y-91925107D01*
X152188508Y-91871923D01*
X152135019Y-91800810D01*
X152102209Y-91712579D01*
X152090681Y-91608036D01*
X152090671Y-91605454D01*
X152096167Y-91548504D01*
X152158453Y-91548504D01*
X152164106Y-91642937D01*
X152183379Y-91720673D01*
X152218635Y-91789738D01*
X152237304Y-91816156D01*
X152298747Y-91878744D01*
X152370983Y-91922165D01*
X152448673Y-91944555D01*
X152526481Y-91944051D01*
X152570039Y-91932354D01*
X152619773Y-91903465D01*
X152670367Y-91857916D01*
X152713095Y-91804463D01*
X152732777Y-91769042D01*
X152756986Y-91684767D01*
X152759716Y-91596367D01*
X152743016Y-91508826D01*
X152708935Y-91427128D01*
X152659521Y-91356255D01*
X152596824Y-91301192D01*
X152526815Y-91268063D01*
X152434659Y-91252180D01*
X152351663Y-91260733D01*
X152280324Y-91291822D01*
X152223136Y-91343548D01*
X152182594Y-91414010D01*
X152161193Y-91501310D01*
X152158453Y-91548504D01*
X152096167Y-91548504D01*
X152100558Y-91503012D01*
X152131412Y-91416220D01*
X152184479Y-91342043D01*
X152208579Y-91318457D01*
X152266486Y-91275227D01*
X152329468Y-91248231D01*
X152405030Y-91235011D01*
X152470561Y-91232638D01*
X152529821Y-91234548D01*
G37*
G36*
X157752780Y-85958186D02*
G01*
X158195748Y-85961765D01*
X158199795Y-86054798D01*
X158200806Y-86105485D01*
X158197887Y-86133355D01*
X158190392Y-86142557D01*
X158186212Y-86142023D01*
X158170993Y-86125467D01*
X158164226Y-86103321D01*
X158157227Y-86076561D01*
X158141746Y-86057895D01*
X158113632Y-86045949D01*
X158068734Y-86039350D01*
X158002901Y-86036723D01*
X157962243Y-86036471D01*
X157808636Y-86036471D01*
X157808844Y-86454144D01*
X157809209Y-86558438D01*
X157810145Y-86654215D01*
X157811571Y-86738033D01*
X157813405Y-86806449D01*
X157815566Y-86856019D01*
X157817974Y-86883300D01*
X157819031Y-86887270D01*
X157837114Y-86901890D01*
X157870094Y-86919552D01*
X157882031Y-86924801D01*
X157912250Y-86940177D01*
X157926105Y-86952977D01*
X157925521Y-86956412D01*
X157908240Y-86961040D01*
X157871255Y-86964230D01*
X157820751Y-86966036D01*
X157762917Y-86966514D01*
X157703940Y-86965718D01*
X157650006Y-86963705D01*
X157607304Y-86960528D01*
X157582021Y-86956244D01*
X157577775Y-86953315D01*
X157588717Y-86939095D01*
X157616128Y-86919682D01*
X157628699Y-86912546D01*
X157679598Y-86885359D01*
X157683187Y-86460915D01*
X157686777Y-86036471D01*
X157540567Y-86036679D01*
X157478589Y-86037896D01*
X157425592Y-86041026D01*
X157388177Y-86045555D01*
X157374280Y-86049582D01*
X157356252Y-86070663D01*
X157340050Y-86104357D01*
X157339387Y-86106282D01*
X157324991Y-86137665D01*
X157309792Y-86155099D01*
X157308529Y-86155633D01*
X157296767Y-86147880D01*
X157292744Y-86114452D01*
X157296479Y-86055723D01*
X157301149Y-86017809D01*
X157309811Y-85954607D01*
X157752780Y-85958186D01*
G37*
G36*
X147299761Y-85959237D02*
G01*
X147399535Y-85989909D01*
X147452903Y-86016100D01*
X147494099Y-86035265D01*
X147528155Y-86042337D01*
X147535947Y-86041459D01*
X147549641Y-86040016D01*
X147558680Y-86047715D01*
X147564851Y-86069563D01*
X147569943Y-86110566D01*
X147573156Y-86145673D01*
X147577152Y-86212934D01*
X147574791Y-86254168D01*
X147565601Y-86269870D01*
X147549110Y-86260535D01*
X147524847Y-86226657D01*
X147513752Y-86207908D01*
X147447893Y-86115991D01*
X147369784Y-86048182D01*
X147280381Y-86004846D01*
X147180638Y-85986350D01*
X147071511Y-85993061D01*
X146998775Y-86010275D01*
X146920230Y-86047363D01*
X146854375Y-86105759D01*
X146802735Y-86182006D01*
X146766835Y-86272648D01*
X146748200Y-86374227D01*
X146748354Y-86483286D01*
X146758796Y-86554333D01*
X146793031Y-86667711D01*
X146844501Y-86762704D01*
X146911132Y-86837929D01*
X146990851Y-86892005D01*
X147081582Y-86923553D01*
X147181252Y-86931191D01*
X147287787Y-86913537D01*
X147295099Y-86911422D01*
X147392609Y-86871801D01*
X147473643Y-86814118D01*
X147517529Y-86768682D01*
X147545533Y-86738470D01*
X147566474Y-86720477D01*
X147574128Y-86718077D01*
X147575543Y-86734286D01*
X147571439Y-86768121D01*
X147566320Y-86795009D01*
X147545493Y-86856158D01*
X147516358Y-86892314D01*
X147466287Y-86920098D01*
X147395752Y-86943454D01*
X147311248Y-86961294D01*
X147219271Y-86972530D01*
X147126316Y-86976073D01*
X147044197Y-86971455D01*
X146932612Y-86946304D01*
X146834664Y-86898816D01*
X146752421Y-86831234D01*
X146687953Y-86745801D01*
X146643328Y-86644759D01*
X146620617Y-86530351D01*
X146619141Y-86510717D01*
X146624216Y-86390082D01*
X146652613Y-86277698D01*
X146702337Y-86176565D01*
X146771394Y-86089683D01*
X146857789Y-86020050D01*
X146959527Y-85970666D01*
X146983456Y-85962910D01*
X147082672Y-85944712D01*
X147191124Y-85943829D01*
X147299761Y-85959237D01*
G37*
G36*
X156387754Y-85955074D02*
G01*
X156484931Y-85955359D01*
X156569722Y-85955805D01*
X156638925Y-85956386D01*
X156689338Y-85957078D01*
X156717759Y-85957857D01*
X156722932Y-85958369D01*
X156724380Y-85972548D01*
X156727302Y-86006566D01*
X156731078Y-86053178D01*
X156731229Y-86055083D01*
X156734191Y-86105027D01*
X156732793Y-86132699D01*
X156726445Y-86142732D01*
X156720114Y-86142246D01*
X156702383Y-86125117D01*
X156696832Y-86110051D01*
X156688214Y-86080193D01*
X156672314Y-86059561D01*
X156644709Y-86046526D01*
X156600976Y-86039456D01*
X156536691Y-86036722D01*
X156497235Y-86036471D01*
X156429397Y-86037020D01*
X156383993Y-86039106D01*
X156356305Y-86043387D01*
X156341615Y-86050522D01*
X156335959Y-86058963D01*
X156333628Y-86078524D01*
X156331772Y-86120926D01*
X156330378Y-86181850D01*
X156329438Y-86256977D01*
X156328942Y-86341988D01*
X156328877Y-86432563D01*
X156329236Y-86524381D01*
X156330007Y-86613125D01*
X156331180Y-86694473D01*
X156332745Y-86764108D01*
X156334692Y-86817708D01*
X156337010Y-86850955D01*
X156337848Y-86856693D01*
X156351073Y-86887393D01*
X156380986Y-86909135D01*
X156397953Y-86916481D01*
X156435752Y-86933698D01*
X156450255Y-86946935D01*
X156440676Y-86956529D01*
X156406226Y-86962820D01*
X156346118Y-86966146D01*
X156280561Y-86966898D01*
X156206993Y-86965852D01*
X156152302Y-86962871D01*
X156119428Y-86958189D01*
X156110811Y-86953315D01*
X156121761Y-86939094D01*
X156149177Y-86919681D01*
X156161747Y-86912546D01*
X156212646Y-86885359D01*
X156216236Y-86460482D01*
X156219826Y-86035605D01*
X156060033Y-86039434D01*
X155900240Y-86043262D01*
X155869185Y-86108277D01*
X155847052Y-86146635D01*
X155829274Y-86163246D01*
X155818552Y-86157438D01*
X155817587Y-86128541D01*
X155818658Y-86120837D01*
X155823976Y-86084417D01*
X155830389Y-86036917D01*
X155832628Y-86019492D01*
X155840781Y-85954973D01*
X156281393Y-85954973D01*
X156387754Y-85955074D01*
G37*
G36*
X157312860Y-91232052D02*
G01*
X157359101Y-91238250D01*
X157398483Y-91242678D01*
X157411003Y-91243704D01*
X157426435Y-91245964D01*
X157437122Y-91254047D01*
X157445354Y-91273232D01*
X157453419Y-91308800D01*
X157463319Y-91364358D01*
X157465743Y-91401425D01*
X157457630Y-91414530D01*
X157441234Y-91403679D01*
X157418809Y-91368876D01*
X157416410Y-91364252D01*
X157379893Y-91313793D01*
X157333049Y-91278822D01*
X157280794Y-91259208D01*
X157228044Y-91254822D01*
X157179714Y-91265533D01*
X157140721Y-91291213D01*
X157115980Y-91331732D01*
X157109734Y-91372338D01*
X157115612Y-91416254D01*
X157135552Y-91452479D01*
X157173015Y-91484242D01*
X157231458Y-91514774D01*
X157285978Y-91536867D01*
X157375708Y-91578245D01*
X157439432Y-91625326D01*
X157477902Y-91679142D01*
X157491873Y-91740725D01*
X157483286Y-91806820D01*
X157453568Y-91867931D01*
X157403520Y-91916942D01*
X157338220Y-91951375D01*
X157262744Y-91968750D01*
X157182169Y-91966586D01*
X157163448Y-91963063D01*
X157110170Y-91948033D01*
X157076513Y-91927422D01*
X157054952Y-91894650D01*
X157041754Y-91856624D01*
X157027541Y-91804576D01*
X157021913Y-91773433D01*
X157024497Y-91758452D01*
X157033775Y-91754866D01*
X157046397Y-91766200D01*
X157063783Y-91794979D01*
X157072812Y-91813845D01*
X157109406Y-91871394D01*
X157157443Y-91911704D01*
X157212286Y-91935156D01*
X157269294Y-91942135D01*
X157323830Y-91933021D01*
X157371255Y-91908197D01*
X157406930Y-91868047D01*
X157426216Y-91812951D01*
X157428315Y-91784538D01*
X157419840Y-91741163D01*
X157392612Y-91703683D01*
X157343919Y-91669614D01*
X157271053Y-91636472D01*
X157263789Y-91633668D01*
X157183789Y-91600482D01*
X157126089Y-91569628D01*
X157086356Y-91538085D01*
X157060258Y-91502833D01*
X157052346Y-91486257D01*
X157037714Y-91421370D01*
X157047060Y-91361184D01*
X157077246Y-91308760D01*
X157125133Y-91267162D01*
X157187582Y-91239451D01*
X157261455Y-91228690D01*
X157312860Y-91232052D01*
G37*
G36*
X154731394Y-85948559D02*
G01*
X154836064Y-85953863D01*
X154921840Y-85970813D01*
X154995411Y-86001924D01*
X155063469Y-86049712D01*
X155106728Y-86089715D01*
X155167904Y-86160095D01*
X155209699Y-86232294D01*
X155234674Y-86313065D01*
X155245392Y-86409161D01*
X155246252Y-86457540D01*
X155239473Y-86565739D01*
X155218474Y-86656067D01*
X155181001Y-86735041D01*
X155124797Y-86809180D01*
X155124400Y-86809623D01*
X155041317Y-86882109D01*
X154941608Y-86934769D01*
X154828186Y-86966649D01*
X154703962Y-86976797D01*
X154627365Y-86972268D01*
X154526780Y-86948220D01*
X154432282Y-86900837D01*
X154349354Y-86833944D01*
X154283479Y-86751366D01*
X154265753Y-86720027D01*
X154232335Y-86630029D01*
X154214689Y-86527505D01*
X154212999Y-86421136D01*
X154214854Y-86408107D01*
X154319233Y-86408107D01*
X154325077Y-86508151D01*
X154348365Y-86606453D01*
X154389382Y-86699032D01*
X154448415Y-86781905D01*
X154484371Y-86818092D01*
X154570504Y-86879374D01*
X154664791Y-86917619D01*
X154762849Y-86931811D01*
X154860291Y-86920933D01*
X154890052Y-86912188D01*
X154971280Y-86871643D01*
X155038038Y-86809579D01*
X155092128Y-86724316D01*
X155092950Y-86722652D01*
X155131038Y-86615760D01*
X155144498Y-86504063D01*
X155134206Y-86392119D01*
X155101036Y-86284484D01*
X155045863Y-86185715D01*
X154974304Y-86104647D01*
X154924950Y-86065327D01*
X154872764Y-86032840D01*
X154838837Y-86017537D01*
X154768425Y-86001603D01*
X154689631Y-85996429D01*
X154613091Y-86001885D01*
X154549435Y-86017842D01*
X154541650Y-86021136D01*
X154464569Y-86070157D01*
X154403501Y-86137347D01*
X154358731Y-86218723D01*
X154330547Y-86310304D01*
X154319233Y-86408107D01*
X154214854Y-86408107D01*
X154227450Y-86319609D01*
X154255455Y-86237320D01*
X154307293Y-86147589D01*
X154370945Y-86077203D01*
X154452694Y-86019818D01*
X154491031Y-85999497D01*
X154540244Y-85975914D01*
X154578479Y-85960964D01*
X154614878Y-85952708D01*
X154658583Y-85949210D01*
X154718735Y-85948532D01*
X154731394Y-85948559D01*
G37*
G36*
X150179157Y-91241367D02*
G01*
X150198261Y-91244061D01*
X150198987Y-91244540D01*
X150195055Y-91257063D01*
X150176740Y-91275730D01*
X150163315Y-91294626D01*
X150140954Y-91335276D01*
X150111264Y-91394397D01*
X150075852Y-91468708D01*
X150036323Y-91554925D01*
X149998904Y-91639190D01*
X149959494Y-91728496D01*
X149923224Y-91809265D01*
X149891603Y-91878251D01*
X149866139Y-91932207D01*
X149848340Y-91967888D01*
X149839716Y-91982047D01*
X149839542Y-91982135D01*
X149831498Y-91971152D01*
X149814276Y-91938353D01*
X149789370Y-91886904D01*
X149758276Y-91819970D01*
X149722491Y-91740718D01*
X149683509Y-91652312D01*
X149681156Y-91646913D01*
X149634994Y-91541459D01*
X149597745Y-91458156D01*
X149567780Y-91394115D01*
X149543475Y-91346450D01*
X149523200Y-91312274D01*
X149505331Y-91288697D01*
X149488240Y-91272833D01*
X149470301Y-91261795D01*
X149461951Y-91257826D01*
X149455848Y-91251230D01*
X149472513Y-91246358D01*
X149513727Y-91242847D01*
X149541715Y-91241577D01*
X149606466Y-91240600D01*
X149645256Y-91243760D01*
X149659013Y-91251296D01*
X149648659Y-91263450D01*
X149641811Y-91267576D01*
X149622066Y-91287945D01*
X149618154Y-91301482D01*
X149623438Y-91321903D01*
X149637987Y-91360766D01*
X149659853Y-91413823D01*
X149687085Y-91476826D01*
X149717733Y-91545526D01*
X149749846Y-91615675D01*
X149781474Y-91683023D01*
X149810667Y-91743324D01*
X149835474Y-91792327D01*
X149853946Y-91825785D01*
X149864131Y-91839449D01*
X149865071Y-91839372D01*
X149875990Y-91820754D01*
X149894108Y-91781580D01*
X149917464Y-91726870D01*
X149944098Y-91661642D01*
X149972052Y-91590917D01*
X149999364Y-91519713D01*
X150024075Y-91453051D01*
X150044226Y-91395950D01*
X150057855Y-91353428D01*
X150062786Y-91332998D01*
X150065333Y-91297580D01*
X150057175Y-91278128D01*
X150033496Y-91264091D01*
X150030781Y-91262883D01*
X150012782Y-91254055D01*
X150010329Y-91248527D01*
X150026777Y-91245128D01*
X150065477Y-91242684D01*
X150091795Y-91241554D01*
X150141227Y-91240463D01*
X150179157Y-91241367D01*
G37*
G36*
X158483658Y-91233183D02*
G01*
X158589949Y-91257470D01*
X158611418Y-91265161D01*
X158653031Y-91278692D01*
X158685668Y-91285238D01*
X158697459Y-91284706D01*
X158708646Y-91290062D01*
X158717290Y-91317657D01*
X158723500Y-91362517D01*
X158727320Y-91407278D01*
X158728488Y-91439839D01*
X158727056Y-91452204D01*
X158717507Y-91445204D01*
X158699764Y-91421366D01*
X158691847Y-91409026D01*
X158641268Y-91349989D01*
X158572556Y-91301164D01*
X158494155Y-91267148D01*
X158414509Y-91252535D01*
X158403819Y-91252299D01*
X158328859Y-91263579D01*
X158263054Y-91298620D01*
X158213314Y-91346407D01*
X158165393Y-91422040D01*
X158139399Y-91507260D01*
X158134296Y-91597136D01*
X158149050Y-91686735D01*
X158182626Y-91771128D01*
X158233991Y-91845381D01*
X158302110Y-91904564D01*
X158334298Y-91923156D01*
X158395052Y-91942108D01*
X158461510Y-91944204D01*
X158526965Y-91931330D01*
X158584711Y-91905369D01*
X158628042Y-91868207D01*
X158646612Y-91835391D01*
X158661553Y-91773538D01*
X158663914Y-91715594D01*
X158654768Y-91666950D01*
X158635185Y-91632995D01*
X158606240Y-91619119D01*
X158603571Y-91619037D01*
X158577884Y-91614429D01*
X158569277Y-91605454D01*
X158582027Y-91598796D01*
X158617026Y-91594187D01*
X158669395Y-91592204D01*
X158681336Y-91592174D01*
X158735912Y-91592542D01*
X158767195Y-91594099D01*
X158779060Y-91598068D01*
X158775381Y-91605671D01*
X158761058Y-91617341D01*
X158745177Y-91631761D01*
X158735722Y-91649372D01*
X158731224Y-91676880D01*
X158730215Y-91720989D01*
X158730641Y-91756264D01*
X158732562Y-91870321D01*
X158630886Y-91914944D01*
X158542804Y-91946074D01*
X158453768Y-91964160D01*
X158371916Y-91968022D01*
X158317994Y-91960322D01*
X158233235Y-91924910D01*
X158159759Y-91868735D01*
X158103545Y-91796913D01*
X158085814Y-91761658D01*
X158067328Y-91692074D01*
X158062252Y-91609871D01*
X158070326Y-91525908D01*
X158091292Y-91451041D01*
X158093346Y-91446167D01*
X158143226Y-91362252D01*
X158210007Y-91298015D01*
X158290878Y-91254437D01*
X158383032Y-91232499D01*
X158483658Y-91233183D01*
G37*
G36*
X153135135Y-85956570D02*
G01*
X153191216Y-85961275D01*
X153221646Y-85968957D01*
X153226005Y-85979486D01*
X153203871Y-85992732D01*
X153191186Y-85997502D01*
X153157545Y-86015178D01*
X153135835Y-86037006D01*
X153132134Y-86057428D01*
X153128911Y-86102199D01*
X153126254Y-86168507D01*
X153124248Y-86253538D01*
X153122981Y-86354479D01*
X153122539Y-86468516D01*
X153122539Y-86468567D01*
X153122707Y-86586733D01*
X153123303Y-86680586D01*
X153124465Y-86752977D01*
X153126333Y-86806755D01*
X153129044Y-86844773D01*
X153132737Y-86869879D01*
X153137550Y-86884927D01*
X153143126Y-86892369D01*
X153164984Y-86901032D01*
X153205833Y-86904744D01*
X153269142Y-86903754D01*
X153289142Y-86902788D01*
X153399226Y-86889724D01*
X153490287Y-86863691D01*
X153559986Y-86825479D01*
X153585389Y-86802806D01*
X153609628Y-86780273D01*
X153626733Y-86770007D01*
X153627474Y-86769946D01*
X153638279Y-86779558D01*
X153635217Y-86804525D01*
X153621461Y-86839047D01*
X153600184Y-86877324D01*
X153574561Y-86913556D01*
X153547764Y-86941943D01*
X153525777Y-86955812D01*
X153503025Y-86959284D01*
X153459371Y-86962069D01*
X153399564Y-86964168D01*
X153328357Y-86965580D01*
X153250501Y-86966306D01*
X153170748Y-86966344D01*
X153093849Y-86965697D01*
X153024555Y-86964363D01*
X152967618Y-86962342D01*
X152927790Y-86959635D01*
X152909821Y-86956241D01*
X152909371Y-86955807D01*
X152906425Y-86942964D01*
X152907249Y-86942225D01*
X152921361Y-86934954D01*
X152949386Y-86920571D01*
X152952593Y-86918927D01*
X152983428Y-86895354D01*
X152999790Y-86858986D01*
X153002913Y-86844222D01*
X153006336Y-86811360D01*
X153008988Y-86757952D01*
X153010893Y-86688326D01*
X153012075Y-86606816D01*
X153012559Y-86517752D01*
X153012370Y-86425466D01*
X153011532Y-86334288D01*
X153010069Y-86248551D01*
X153008006Y-86172586D01*
X153005367Y-86110724D01*
X153002178Y-86067296D01*
X152998461Y-86046634D01*
X152998403Y-86046521D01*
X152976871Y-86023966D01*
X152942617Y-86003172D01*
X152938077Y-86001181D01*
X152904521Y-85984724D01*
X152893565Y-85972303D01*
X152906188Y-85963528D01*
X152943367Y-85958008D01*
X153006081Y-85955354D01*
X153053823Y-85954973D01*
X153135135Y-85956570D01*
G37*
G36*
X150531961Y-91221151D02*
G01*
X150538540Y-91233149D01*
X150547147Y-91252752D01*
X150563993Y-91293843D01*
X150587540Y-91352566D01*
X150616248Y-91425063D01*
X150648577Y-91507479D01*
X150670868Y-91564706D01*
X150713774Y-91673671D01*
X150749114Y-91759514D01*
X150778264Y-91824766D01*
X150802600Y-91871958D01*
X150823497Y-91903620D01*
X150842329Y-91922283D01*
X150860472Y-91930479D01*
X150870148Y-91931444D01*
X150890900Y-91937614D01*
X150894946Y-91945027D01*
X150882123Y-91951535D01*
X150846629Y-91956178D01*
X150792922Y-91958459D01*
X150772700Y-91958610D01*
X150711803Y-91956882D01*
X150670346Y-91952134D01*
X150650321Y-91945016D01*
X150653716Y-91936179D01*
X150677620Y-91927508D01*
X150697621Y-91914955D01*
X150703270Y-91889450D01*
X150694314Y-91847968D01*
X150670501Y-91787484D01*
X150664888Y-91774942D01*
X150624992Y-91686952D01*
X150488506Y-91686952D01*
X150352021Y-91686952D01*
X150310287Y-91769627D01*
X150283255Y-91831718D01*
X150274468Y-91876587D01*
X150283873Y-91907095D01*
X150307486Y-91924478D01*
X150333222Y-91939207D01*
X150333096Y-91949680D01*
X150306775Y-91956073D01*
X150253928Y-91958562D01*
X150242967Y-91958610D01*
X150196100Y-91957636D01*
X150162141Y-91955074D01*
X150147961Y-91951462D01*
X150147887Y-91951167D01*
X150157025Y-91938024D01*
X150179275Y-91916025D01*
X150181756Y-91913814D01*
X150198197Y-91891575D01*
X150223672Y-91846899D01*
X150256825Y-91782450D01*
X150296303Y-91700892D01*
X150324646Y-91639672D01*
X150378796Y-91639672D01*
X150391306Y-91642705D01*
X150424551Y-91644989D01*
X150472103Y-91646138D01*
X150487459Y-91646203D01*
X150543795Y-91645148D01*
X150577577Y-91641440D01*
X150593354Y-91634264D01*
X150596122Y-91626755D01*
X150591499Y-91604953D01*
X150579426Y-91565929D01*
X150562594Y-91517039D01*
X150543696Y-91465638D01*
X150525425Y-91419080D01*
X150510473Y-91384722D01*
X150502338Y-91370556D01*
X150494439Y-91378898D01*
X150478925Y-91406408D01*
X150458527Y-91447136D01*
X150435977Y-91495133D01*
X150414007Y-91544447D01*
X150395348Y-91589129D01*
X150382731Y-91623228D01*
X150378796Y-91639672D01*
X150324646Y-91639672D01*
X150340750Y-91604889D01*
X150356104Y-91570878D01*
X150395207Y-91483989D01*
X150431256Y-91404339D01*
X150462575Y-91335600D01*
X150487484Y-91281443D01*
X150504308Y-91245538D01*
X150510756Y-91232530D01*
X150522705Y-91214829D01*
X150531961Y-91221151D01*
G37*
G36*
X155712325Y-91239748D02*
G01*
X155779522Y-91242252D01*
X155841426Y-91246382D01*
X155892638Y-91252118D01*
X155903270Y-91253824D01*
X155999984Y-91282226D01*
X156078228Y-91330543D01*
X156138028Y-91398792D01*
X156154420Y-91427032D01*
X156185816Y-91514782D01*
X156193351Y-91605899D01*
X156178686Y-91695580D01*
X156143480Y-91779021D01*
X156089396Y-91851419D01*
X156018092Y-91907969D01*
X155981737Y-91926574D01*
X155950865Y-91936881D01*
X155909312Y-91944561D01*
X155852476Y-91950129D01*
X155775759Y-91954102D01*
X155720267Y-91955879D01*
X155648762Y-91957094D01*
X155587940Y-91956735D01*
X155542453Y-91954942D01*
X155516951Y-91951853D01*
X155513128Y-91949699D01*
X155524086Y-91935846D01*
X155543689Y-91924478D01*
X155553674Y-91919371D01*
X155561257Y-91911642D01*
X155566824Y-91897788D01*
X155570760Y-91874303D01*
X155573450Y-91837683D01*
X155575282Y-91784423D01*
X155576641Y-91711020D01*
X155577564Y-91640526D01*
X155646812Y-91640526D01*
X155648348Y-91717222D01*
X155651482Y-91785623D01*
X155656229Y-91840710D01*
X155662606Y-91877463D01*
X155668462Y-91889974D01*
X155714258Y-91914020D01*
X155780431Y-91926057D01*
X155855510Y-91927160D01*
X155911693Y-91922898D01*
X155952604Y-91912756D01*
X155990030Y-91893277D01*
X156004922Y-91883311D01*
X156051015Y-91842035D01*
X156089140Y-91791901D01*
X156094754Y-91781850D01*
X156111104Y-91745925D01*
X156119884Y-91711492D01*
X156122579Y-91668890D01*
X156120869Y-91612246D01*
X156106972Y-91510279D01*
X156075391Y-91427649D01*
X156024510Y-91361790D01*
X155952714Y-91310134D01*
X155920614Y-91294147D01*
X155868691Y-91277147D01*
X155809667Y-91267635D01*
X155751672Y-91265836D01*
X155702838Y-91271975D01*
X155671294Y-91286278D01*
X155670301Y-91287227D01*
X155662569Y-91308290D01*
X155656344Y-91351173D01*
X155651640Y-91410858D01*
X155648473Y-91482324D01*
X155646859Y-91560553D01*
X155646812Y-91640526D01*
X155577564Y-91640526D01*
X155577912Y-91613968D01*
X155577917Y-91613614D01*
X155578928Y-91514794D01*
X155579064Y-91439546D01*
X155578112Y-91384286D01*
X155575861Y-91345428D01*
X155572098Y-91319388D01*
X155566612Y-91302580D01*
X155559190Y-91291419D01*
X155558833Y-91291021D01*
X155531510Y-91271341D01*
X155511022Y-91265882D01*
X155490120Y-91259770D01*
X155485962Y-91252299D01*
X155498617Y-91246380D01*
X155532981Y-91242185D01*
X155583654Y-91239695D01*
X155645235Y-91238889D01*
X155712325Y-91239748D01*
G37*
G36*
X156844251Y-91278354D02*
G01*
X156839935Y-91323761D01*
X156828399Y-91353123D01*
X156815632Y-91360962D01*
X156805510Y-91349670D01*
X156803502Y-91335902D01*
X156796184Y-91304921D01*
X156772235Y-91283808D01*
X156728662Y-91271311D01*
X156662472Y-91266176D01*
X156636301Y-91265882D01*
X156582192Y-91266183D01*
X156545033Y-91269925D01*
X156521831Y-91281373D01*
X156509590Y-91304787D01*
X156505315Y-91344431D01*
X156506013Y-91404567D01*
X156507475Y-91449251D01*
X156511470Y-91571497D01*
X156599339Y-91575618D01*
X156666847Y-91576812D01*
X156712170Y-91572007D01*
X156739879Y-91559899D01*
X156754547Y-91539181D01*
X156757227Y-91530542D01*
X156767605Y-91501633D01*
X156776957Y-91497982D01*
X156784368Y-91517678D01*
X156788922Y-91558812D01*
X156789919Y-91598663D01*
X156787869Y-91653467D01*
X156782330Y-91688149D01*
X156774218Y-91700799D01*
X156764449Y-91689509D01*
X156757227Y-91666784D01*
X156745760Y-91643043D01*
X156722711Y-91628328D01*
X156683509Y-91621334D01*
X156623581Y-91620754D01*
X156599339Y-91621708D01*
X156511470Y-91625829D01*
X156507565Y-91751413D01*
X156506454Y-91824338D01*
X156510151Y-91874436D01*
X156521204Y-91905950D01*
X156542160Y-91923123D01*
X156575567Y-91930198D01*
X156615639Y-91931444D01*
X156712693Y-91923618D01*
X156789767Y-91899655D01*
X156846961Y-91860998D01*
X156876891Y-91834070D01*
X156892267Y-91824946D01*
X156897886Y-91832362D01*
X156898582Y-91847405D01*
X156889288Y-91871787D01*
X156866091Y-91902588D01*
X156856980Y-91911924D01*
X156815377Y-91951818D01*
X156592113Y-91956128D01*
X156517693Y-91956917D01*
X156453789Y-91956357D01*
X156404883Y-91954590D01*
X156375458Y-91951754D01*
X156368849Y-91949162D01*
X156379796Y-91935729D01*
X156399411Y-91924478D01*
X156409345Y-91919405D01*
X156416901Y-91911737D01*
X156422460Y-91897990D01*
X156426401Y-91874683D01*
X156429101Y-91838334D01*
X156430940Y-91785460D01*
X156432297Y-91712581D01*
X156433550Y-91616214D01*
X156433625Y-91610077D01*
X156434612Y-91510214D01*
X156434706Y-91434034D01*
X156433713Y-91378065D01*
X156431440Y-91338833D01*
X156427693Y-91312866D01*
X156422281Y-91296690D01*
X156415676Y-91287483D01*
X156386813Y-91269806D01*
X156367879Y-91265882D01*
X156346340Y-91260006D01*
X156341684Y-91252299D01*
X156354964Y-91247161D01*
X156393637Y-91243155D01*
X156455947Y-91240376D01*
X156540140Y-91238920D01*
X156592967Y-91238717D01*
X156844251Y-91238717D01*
X156844251Y-91278354D01*
G37*
G36*
X147562241Y-91240219D02*
G01*
X147602058Y-91244350D01*
X147620684Y-91250549D01*
X147621470Y-91252299D01*
X147610502Y-91264428D01*
X147601573Y-91265882D01*
X147587165Y-91269040D01*
X147575891Y-91280403D01*
X147567385Y-91302810D01*
X147561282Y-91339095D01*
X147557216Y-91392096D01*
X147554822Y-91464649D01*
X147553735Y-91559591D01*
X147553555Y-91638519D01*
X147553061Y-91731013D01*
X147551666Y-91812349D01*
X147549503Y-91879021D01*
X147546708Y-91927526D01*
X147543412Y-91954357D01*
X147541373Y-91958610D01*
X147529455Y-91948828D01*
X147502168Y-91921278D01*
X147462015Y-91878652D01*
X147411498Y-91823641D01*
X147353119Y-91758936D01*
X147295135Y-91693743D01*
X147232121Y-91622645D01*
X147175144Y-91558760D01*
X147126622Y-91504767D01*
X147088975Y-91463346D01*
X147064620Y-91437178D01*
X147056034Y-91428877D01*
X147054404Y-91441737D01*
X147052994Y-91477426D01*
X147051894Y-91531609D01*
X147051197Y-91599948D01*
X147050989Y-91667757D01*
X147050989Y-91906638D01*
X147091737Y-91922019D01*
X147123263Y-91936698D01*
X147129118Y-91947470D01*
X147108938Y-91954533D01*
X147062356Y-91958082D01*
X147023823Y-91958610D01*
X146973360Y-91957417D01*
X146935361Y-91954247D01*
X146916251Y-91949713D01*
X146915160Y-91948248D01*
X146926068Y-91935479D01*
X146945480Y-91924478D01*
X146967632Y-91911916D01*
X146984159Y-91894071D01*
X146995768Y-91867268D01*
X147003164Y-91827833D01*
X147007053Y-91772094D01*
X147008140Y-91696375D01*
X147007227Y-91603016D01*
X147005603Y-91515572D01*
X147003554Y-91450927D01*
X147000578Y-91404715D01*
X146996171Y-91372571D01*
X146989834Y-91350127D01*
X146981064Y-91333018D01*
X146975217Y-91324567D01*
X146947074Y-91293984D01*
X146918208Y-91273183D01*
X146917490Y-91272849D01*
X146892151Y-91257094D01*
X146893083Y-91245660D01*
X146919600Y-91239510D01*
X146941809Y-91238717D01*
X146958041Y-91239267D01*
X146973165Y-91242391D01*
X146989574Y-91250292D01*
X147009661Y-91265179D01*
X147035819Y-91289256D01*
X147070441Y-91324730D01*
X147115919Y-91373807D01*
X147174647Y-91438693D01*
X147249017Y-91521594D01*
X147250820Y-91523606D01*
X147506015Y-91808496D01*
X147509743Y-91583876D01*
X147510630Y-91487204D01*
X147509065Y-91414015D01*
X147504171Y-91360669D01*
X147495067Y-91323530D01*
X147480875Y-91298959D01*
X147460717Y-91283319D01*
X147434705Y-91273261D01*
X147400587Y-91260568D01*
X147393175Y-91250618D01*
X147412135Y-91243571D01*
X147457130Y-91239591D01*
X147506015Y-91238717D01*
X147562241Y-91240219D01*
G37*
G36*
X148417963Y-91240219D02*
G01*
X148457780Y-91244350D01*
X148476406Y-91250549D01*
X148477192Y-91252299D01*
X148466224Y-91264428D01*
X148457295Y-91265882D01*
X148442887Y-91269040D01*
X148431613Y-91280403D01*
X148423107Y-91302810D01*
X148417004Y-91339095D01*
X148412938Y-91392096D01*
X148410544Y-91464649D01*
X148409457Y-91559591D01*
X148409277Y-91638519D01*
X148408783Y-91731013D01*
X148407387Y-91812349D01*
X148405225Y-91879021D01*
X148402429Y-91927526D01*
X148399133Y-91954357D01*
X148397095Y-91958610D01*
X148385177Y-91948828D01*
X148357890Y-91921278D01*
X148317737Y-91878652D01*
X148267220Y-91823641D01*
X148208841Y-91758936D01*
X148150857Y-91693743D01*
X148087843Y-91622645D01*
X148030866Y-91558760D01*
X147982344Y-91504767D01*
X147944697Y-91463346D01*
X147920342Y-91437178D01*
X147911756Y-91428877D01*
X147910126Y-91441737D01*
X147908716Y-91477426D01*
X147907616Y-91531609D01*
X147906919Y-91599948D01*
X147906710Y-91667757D01*
X147906710Y-91906638D01*
X147947459Y-91922019D01*
X147978985Y-91936698D01*
X147984840Y-91947470D01*
X147964660Y-91954533D01*
X147918078Y-91958082D01*
X147879545Y-91958610D01*
X147829082Y-91957417D01*
X147791082Y-91954247D01*
X147771973Y-91949713D01*
X147770882Y-91948248D01*
X147781790Y-91935479D01*
X147801202Y-91924478D01*
X147823354Y-91911916D01*
X147839881Y-91894071D01*
X147851490Y-91867268D01*
X147858886Y-91827833D01*
X147862775Y-91772094D01*
X147863862Y-91696375D01*
X147862949Y-91603016D01*
X147861325Y-91515572D01*
X147859276Y-91450927D01*
X147856299Y-91404715D01*
X147851893Y-91372571D01*
X147845556Y-91350127D01*
X147836786Y-91333018D01*
X147830939Y-91324567D01*
X147802796Y-91293984D01*
X147773930Y-91273183D01*
X147773212Y-91272849D01*
X147747873Y-91257094D01*
X147748805Y-91245660D01*
X147775322Y-91239510D01*
X147797531Y-91238717D01*
X147813763Y-91239267D01*
X147828887Y-91242391D01*
X147845296Y-91250292D01*
X147865383Y-91265179D01*
X147891541Y-91289256D01*
X147926163Y-91324730D01*
X147971641Y-91373807D01*
X148030369Y-91438693D01*
X148104739Y-91521594D01*
X148106542Y-91523606D01*
X148361737Y-91808496D01*
X148365465Y-91583876D01*
X148366352Y-91487204D01*
X148364787Y-91414015D01*
X148359893Y-91360669D01*
X148350789Y-91323530D01*
X148336597Y-91298959D01*
X148316439Y-91283319D01*
X148290427Y-91273261D01*
X148256309Y-91260568D01*
X148248897Y-91250618D01*
X148267857Y-91243571D01*
X148312852Y-91239591D01*
X148361737Y-91238717D01*
X148417963Y-91240219D01*
G37*
G36*
X153620209Y-91240219D02*
G01*
X153660026Y-91244350D01*
X153678652Y-91250549D01*
X153679438Y-91252299D01*
X153668470Y-91264428D01*
X153659541Y-91265882D01*
X153645133Y-91269040D01*
X153633859Y-91280403D01*
X153625353Y-91302810D01*
X153619250Y-91339095D01*
X153615184Y-91392096D01*
X153612790Y-91464649D01*
X153611703Y-91559591D01*
X153611523Y-91638519D01*
X153611029Y-91731013D01*
X153609633Y-91812349D01*
X153607471Y-91879021D01*
X153604675Y-91927526D01*
X153601379Y-91954357D01*
X153599341Y-91958610D01*
X153587423Y-91948828D01*
X153560136Y-91921278D01*
X153519983Y-91878652D01*
X153469466Y-91823641D01*
X153411087Y-91758936D01*
X153353103Y-91693743D01*
X153290089Y-91622645D01*
X153233112Y-91558760D01*
X153184590Y-91504767D01*
X153146943Y-91463346D01*
X153122588Y-91437178D01*
X153114002Y-91428877D01*
X153112372Y-91441737D01*
X153110962Y-91477426D01*
X153109862Y-91531609D01*
X153109165Y-91599948D01*
X153108956Y-91667757D01*
X153108956Y-91906638D01*
X153149705Y-91922019D01*
X153181231Y-91936698D01*
X153187086Y-91947470D01*
X153166906Y-91954533D01*
X153120323Y-91958082D01*
X153081791Y-91958610D01*
X153031328Y-91957417D01*
X152993328Y-91954247D01*
X152974219Y-91949713D01*
X152973128Y-91948248D01*
X152984036Y-91935479D01*
X153003448Y-91924478D01*
X153025600Y-91911916D01*
X153042127Y-91894071D01*
X153053736Y-91867268D01*
X153061132Y-91827833D01*
X153065021Y-91772094D01*
X153066108Y-91696375D01*
X153065195Y-91603016D01*
X153063571Y-91515572D01*
X153061522Y-91450927D01*
X153058545Y-91404715D01*
X153054139Y-91372571D01*
X153047802Y-91350127D01*
X153039032Y-91333018D01*
X153033185Y-91324567D01*
X153005042Y-91293984D01*
X152976176Y-91273183D01*
X152975458Y-91272849D01*
X152950119Y-91257094D01*
X152951051Y-91245660D01*
X152977568Y-91239510D01*
X152999777Y-91238717D01*
X153016009Y-91239267D01*
X153031133Y-91242391D01*
X153047542Y-91250292D01*
X153067629Y-91265179D01*
X153093787Y-91289256D01*
X153128409Y-91324730D01*
X153173887Y-91373807D01*
X153232615Y-91438693D01*
X153306985Y-91521594D01*
X153308788Y-91523606D01*
X153563983Y-91808496D01*
X153567711Y-91583876D01*
X153568598Y-91487204D01*
X153567033Y-91414015D01*
X153562139Y-91360669D01*
X153553035Y-91323530D01*
X153538843Y-91298959D01*
X153518685Y-91283319D01*
X153492673Y-91273261D01*
X153458555Y-91260568D01*
X153451143Y-91250618D01*
X153470103Y-91243571D01*
X153515098Y-91239591D01*
X153563983Y-91238717D01*
X153620209Y-91240219D01*
G37*
G36*
X159583097Y-91240219D02*
G01*
X159622913Y-91244350D01*
X159641539Y-91250549D01*
X159642325Y-91252299D01*
X159631358Y-91264428D01*
X159622429Y-91265882D01*
X159608021Y-91269040D01*
X159596746Y-91280403D01*
X159588240Y-91302810D01*
X159582137Y-91339095D01*
X159578072Y-91392096D01*
X159575678Y-91464649D01*
X159574591Y-91559591D01*
X159574411Y-91638519D01*
X159573916Y-91731013D01*
X159572521Y-91812349D01*
X159570359Y-91879021D01*
X159567563Y-91927526D01*
X159564267Y-91954357D01*
X159562229Y-91958610D01*
X159550310Y-91948828D01*
X159523023Y-91921278D01*
X159482870Y-91878652D01*
X159432353Y-91823641D01*
X159373975Y-91758936D01*
X159315990Y-91693743D01*
X159252977Y-91622645D01*
X159196000Y-91558760D01*
X159147478Y-91504767D01*
X159109830Y-91463346D01*
X159085476Y-91437178D01*
X159076889Y-91428877D01*
X159075260Y-91441737D01*
X159073850Y-91477426D01*
X159072750Y-91531609D01*
X159072052Y-91599948D01*
X159071844Y-91667757D01*
X159071844Y-91906638D01*
X159112593Y-91922019D01*
X159144119Y-91936698D01*
X159149974Y-91947470D01*
X159129794Y-91954533D01*
X159083211Y-91958082D01*
X159044678Y-91958610D01*
X158994216Y-91957417D01*
X158956216Y-91954247D01*
X158937106Y-91949713D01*
X158936015Y-91948248D01*
X158946924Y-91935479D01*
X158966336Y-91924478D01*
X158988487Y-91911916D01*
X159005015Y-91894071D01*
X159016624Y-91867268D01*
X159024020Y-91827833D01*
X159027909Y-91772094D01*
X159028996Y-91696375D01*
X159028083Y-91603016D01*
X159026459Y-91515572D01*
X159024410Y-91450927D01*
X159021433Y-91404715D01*
X159017027Y-91372571D01*
X159010690Y-91350127D01*
X159001919Y-91333018D01*
X158996073Y-91324567D01*
X158967929Y-91293984D01*
X158939064Y-91273183D01*
X158938345Y-91272849D01*
X158913006Y-91257094D01*
X158913939Y-91245660D01*
X158940456Y-91239510D01*
X158962665Y-91238717D01*
X158978897Y-91239267D01*
X158994021Y-91242391D01*
X159010430Y-91250292D01*
X159030517Y-91265179D01*
X159056675Y-91289256D01*
X159091297Y-91324730D01*
X159136775Y-91373807D01*
X159195503Y-91438693D01*
X159269873Y-91521594D01*
X159271676Y-91523606D01*
X159526871Y-91808496D01*
X159530599Y-91583876D01*
X159531486Y-91487204D01*
X159529921Y-91414015D01*
X159525026Y-91360669D01*
X159515923Y-91323530D01*
X159501731Y-91298959D01*
X159481573Y-91283319D01*
X159455561Y-91273261D01*
X159421442Y-91260568D01*
X159414031Y-91250618D01*
X159432991Y-91243571D01*
X159477986Y-91239591D01*
X159526871Y-91238717D01*
X159583097Y-91240219D01*
G37*
G36*
X159448697Y-86044515D02*
G01*
X159442908Y-86092655D01*
X159434848Y-86130436D01*
X159426908Y-86148658D01*
X159416397Y-86155532D01*
X159408233Y-86148033D01*
X159399816Y-86121628D01*
X159392016Y-86087798D01*
X159381942Y-86061190D01*
X159362517Y-86042344D01*
X159329631Y-86029924D01*
X159279174Y-86022590D01*
X159207038Y-86019006D01*
X159178973Y-86018436D01*
X159110260Y-86018091D01*
X159064019Y-86019965D01*
X159035611Y-86024573D01*
X159020397Y-86032433D01*
X159017050Y-86036471D01*
X159012358Y-86057197D01*
X159008952Y-86099228D01*
X159007121Y-86156721D01*
X159007153Y-86223831D01*
X159007318Y-86233422D01*
X159010721Y-86410000D01*
X159136305Y-86413905D01*
X159210386Y-86414318D01*
X159262388Y-86409092D01*
X159297100Y-86396610D01*
X159319308Y-86375260D01*
X159332321Y-86347825D01*
X159346228Y-86316323D01*
X159356945Y-86311021D01*
X159364544Y-86332118D01*
X159369094Y-86379815D01*
X159370666Y-86454315D01*
X159370668Y-86457540D01*
X159369446Y-86527249D01*
X159365950Y-86576690D01*
X159360431Y-86603160D01*
X159356745Y-86606952D01*
X159344575Y-86595215D01*
X159334830Y-86566987D01*
X159334812Y-86566897D01*
X159324440Y-86531654D01*
X159306890Y-86508001D01*
X159277491Y-86493990D01*
X159231577Y-86487671D01*
X159164480Y-86487095D01*
X159144914Y-86487588D01*
X159010721Y-86491497D01*
X159006951Y-86676917D01*
X159005588Y-86761640D01*
X159007255Y-86822847D01*
X159014630Y-86864184D01*
X159030388Y-86889298D01*
X159057206Y-86901838D01*
X159097761Y-86905449D01*
X159154728Y-86903779D01*
X159172802Y-86902918D01*
X159282046Y-86890192D01*
X159372819Y-86863815D01*
X159442634Y-86824633D01*
X159466779Y-86802806D01*
X159496008Y-86776312D01*
X159513115Y-86773162D01*
X159519825Y-86793324D01*
X159520079Y-86801866D01*
X159511801Y-86831289D01*
X159490976Y-86871115D01*
X159463619Y-86911908D01*
X159435745Y-86944235D01*
X159422501Y-86954909D01*
X159404476Y-86958106D01*
X159364586Y-86960817D01*
X159307523Y-86963018D01*
X159237976Y-86964686D01*
X159160639Y-86965799D01*
X159080203Y-86966332D01*
X159001358Y-86966262D01*
X158928797Y-86965567D01*
X158867211Y-86964222D01*
X158821291Y-86962205D01*
X158795729Y-86959492D01*
X158792119Y-86958041D01*
X158799080Y-86946384D01*
X158823118Y-86927983D01*
X158833725Y-86921405D01*
X158866157Y-86895859D01*
X158886719Y-86867875D01*
X158888653Y-86862348D01*
X158890543Y-86841021D01*
X158891990Y-86796303D01*
X158892959Y-86731963D01*
X158893415Y-86651772D01*
X158893325Y-86559502D01*
X158892654Y-86458922D01*
X158892487Y-86441965D01*
X158891194Y-86328125D01*
X158889787Y-86238322D01*
X158888045Y-86169427D01*
X158885751Y-86118311D01*
X158882684Y-86081845D01*
X158878626Y-86056901D01*
X158873357Y-86040349D01*
X158866659Y-86029062D01*
X158863287Y-86025050D01*
X158834171Y-86002400D01*
X158810019Y-85993085D01*
X158784685Y-85982460D01*
X158776348Y-85971952D01*
X158780187Y-85966523D01*
X158797363Y-85962306D01*
X158830365Y-85959176D01*
X158881679Y-85957009D01*
X158953795Y-85955677D01*
X159049199Y-85955057D01*
X159113321Y-85954973D01*
X159455884Y-85954973D01*
X159448697Y-86044515D01*
G37*
G36*
X150338495Y-85945316D02*
G01*
X150355245Y-85980989D01*
X150379568Y-86036287D01*
X150410264Y-86108388D01*
X150446132Y-86194470D01*
X150485972Y-86291712D01*
X150528583Y-86397291D01*
X150530676Y-86402516D01*
X150573843Y-86509489D01*
X150614713Y-86609171D01*
X150652009Y-86698571D01*
X150684456Y-86774698D01*
X150710781Y-86834563D01*
X150729708Y-86875173D01*
X150739962Y-86893539D01*
X150740030Y-86893615D01*
X150769248Y-86913731D01*
X150808119Y-86927315D01*
X150809113Y-86927507D01*
X150838466Y-86936907D01*
X150850752Y-86948788D01*
X150850513Y-86950785D01*
X150835831Y-86957330D01*
X150800905Y-86962170D01*
X150752023Y-86965297D01*
X150695471Y-86966702D01*
X150637536Y-86966377D01*
X150584505Y-86964312D01*
X150542664Y-86960499D01*
X150518301Y-86954930D01*
X150514624Y-86951248D01*
X150526121Y-86936561D01*
X150554098Y-86921877D01*
X150557093Y-86920794D01*
X150585897Y-86907358D01*
X150594499Y-86889199D01*
X150591990Y-86868530D01*
X150581604Y-86830287D01*
X150564311Y-86779479D01*
X150542964Y-86723196D01*
X150520417Y-86668527D01*
X150499522Y-86622561D01*
X150483133Y-86592388D01*
X150478373Y-86586224D01*
X150463236Y-86577440D01*
X150435716Y-86571494D01*
X150391611Y-86567954D01*
X150326720Y-86566384D01*
X150284250Y-86566203D01*
X150205681Y-86566604D01*
X150148829Y-86569907D01*
X150108246Y-86579263D01*
X150078483Y-86597822D01*
X150054093Y-86628734D01*
X150029627Y-86675151D01*
X150005502Y-86727400D01*
X149976615Y-86797372D01*
X149963682Y-86848511D01*
X149967010Y-86884189D01*
X149986904Y-86907777D01*
X150023194Y-86922525D01*
X150052155Y-86934512D01*
X150063189Y-86948517D01*
X150062858Y-86950328D01*
X150048219Y-86957302D01*
X150014083Y-86962483D01*
X149967278Y-86965800D01*
X149914632Y-86967180D01*
X149862970Y-86966549D01*
X149819121Y-86963837D01*
X149789911Y-86958970D01*
X149781672Y-86953315D01*
X149792502Y-86937865D01*
X149818581Y-86917001D01*
X149825367Y-86912567D01*
X149837931Y-86902567D01*
X149851903Y-86886459D01*
X149868511Y-86861916D01*
X149888985Y-86826614D01*
X149914553Y-86778224D01*
X149946444Y-86714423D01*
X149985886Y-86632885D01*
X150034108Y-86531282D01*
X150049689Y-86498106D01*
X150127435Y-86498106D01*
X150127555Y-86498357D01*
X150143339Y-86503151D01*
X150179414Y-86506644D01*
X150228950Y-86508812D01*
X150285113Y-86509635D01*
X150341073Y-86509090D01*
X150389996Y-86507156D01*
X150425053Y-86503811D01*
X150439260Y-86499355D01*
X150437184Y-86483387D01*
X150426526Y-86448623D01*
X150409461Y-86400494D01*
X150388163Y-86344435D01*
X150364808Y-86285879D01*
X150341571Y-86230259D01*
X150320628Y-86183009D01*
X150304152Y-86149561D01*
X150294321Y-86135348D01*
X150293486Y-86135229D01*
X150283298Y-86148498D01*
X150265250Y-86181209D01*
X150241827Y-86227928D01*
X150215510Y-86283221D01*
X150188783Y-86341654D01*
X150164129Y-86397793D01*
X150144031Y-86446204D01*
X150130972Y-86481453D01*
X150127435Y-86498106D01*
X150049689Y-86498106D01*
X150092339Y-86407290D01*
X150092720Y-86406476D01*
X150142612Y-86300725D01*
X150189330Y-86203295D01*
X150231564Y-86116805D01*
X150268001Y-86043872D01*
X150297328Y-85987111D01*
X150318235Y-85949142D01*
X150329410Y-85932581D01*
X150330520Y-85932090D01*
X150338495Y-85945316D01*
G37*
G36*
X154521531Y-91250248D02*
G01*
X154556652Y-91258215D01*
X154582980Y-91257103D01*
X154583082Y-91257064D01*
X154595286Y-91257742D01*
X154601245Y-91275324D01*
X154602647Y-91314840D01*
X154602644Y-91315365D01*
X154602213Y-91381337D01*
X154574068Y-91343604D01*
X154532532Y-91301744D01*
X154486415Y-91276708D01*
X154440854Y-91268348D01*
X154400983Y-91276519D01*
X154371937Y-91301072D01*
X154358852Y-91341861D01*
X154358582Y-91349772D01*
X154368319Y-91378596D01*
X154395524Y-91421669D01*
X154437183Y-91475391D01*
X154490286Y-91536162D01*
X154551822Y-91600380D01*
X154618778Y-91664446D01*
X154631232Y-91675737D01*
X154680941Y-91719103D01*
X154714493Y-91743294D01*
X154735125Y-91748155D01*
X154746076Y-91733530D01*
X154750585Y-91699264D01*
X154751531Y-91669973D01*
X154743555Y-91624177D01*
X154721450Y-91587140D01*
X154690628Y-91566587D01*
X154677780Y-91564706D01*
X154659704Y-91557371D01*
X154657406Y-91551123D01*
X154670068Y-91544316D01*
X154704440Y-91539559D01*
X154755098Y-91537561D01*
X154761382Y-91537540D01*
X154813366Y-91537905D01*
X154842557Y-91539882D01*
X154853329Y-91544795D01*
X154850052Y-91553968D01*
X154842993Y-91562254D01*
X154827566Y-91589675D01*
X154813147Y-91632047D01*
X154807213Y-91657700D01*
X154796669Y-91703890D01*
X154784789Y-91742568D01*
X154778991Y-91756100D01*
X154771835Y-91775779D01*
X154775553Y-91794254D01*
X154793307Y-91815366D01*
X154828260Y-91842953D01*
X154879518Y-91878151D01*
X154927582Y-91908207D01*
X154961910Y-91923652D01*
X154989666Y-91927227D01*
X155003097Y-91925466D01*
X155029187Y-91921816D01*
X155032777Y-91927210D01*
X155026405Y-91934585D01*
X155002582Y-91944683D01*
X154960296Y-91950536D01*
X154931329Y-91951393D01*
X154879684Y-91948224D01*
X154838988Y-91936394D01*
X154795005Y-91911401D01*
X154786132Y-91905490D01*
X154748229Y-91880617D01*
X154724273Y-91869295D01*
X154705719Y-91869843D01*
X154684020Y-91880581D01*
X154677890Y-91884194D01*
X154620720Y-91916349D01*
X154576333Y-91936161D01*
X154535376Y-91947032D01*
X154491049Y-91952185D01*
X154441042Y-91953179D01*
X154395370Y-91949782D01*
X154378956Y-91946688D01*
X154294329Y-91913520D01*
X154231521Y-91864254D01*
X154190649Y-91799022D01*
X154171826Y-91717953D01*
X154171167Y-91709091D01*
X154170240Y-91668736D01*
X154235849Y-91668736D01*
X154248736Y-91731379D01*
X154272370Y-91770444D01*
X154311188Y-91813132D01*
X154356211Y-91850656D01*
X154392078Y-91871679D01*
X154448399Y-91886125D01*
X154515702Y-91889143D01*
X154580321Y-91880731D01*
X154608644Y-91871707D01*
X154647844Y-91851581D01*
X154661438Y-91831738D01*
X154650037Y-91807537D01*
X154620739Y-91779729D01*
X154589818Y-91752039D01*
X154546329Y-91710916D01*
X154496611Y-91662433D01*
X154457511Y-91623339D01*
X154411915Y-91578805D01*
X154371746Y-91542544D01*
X154341529Y-91518449D01*
X154326285Y-91510374D01*
X154305611Y-91520060D01*
X154278632Y-91544126D01*
X154271501Y-91552165D01*
X154243484Y-91605249D01*
X154235849Y-91668736D01*
X154170240Y-91668736D01*
X154169980Y-91657407D01*
X154175729Y-91621296D01*
X154190707Y-91589566D01*
X154197972Y-91578289D01*
X154232180Y-91540294D01*
X154274418Y-91509144D01*
X154280650Y-91505865D01*
X154311946Y-91489104D01*
X154322514Y-91476187D01*
X154316428Y-91459878D01*
X154311032Y-91451907D01*
X154292698Y-91405298D01*
X154292456Y-91352156D01*
X154309475Y-91304039D01*
X154322919Y-91286727D01*
X154364860Y-91260453D01*
X154421218Y-91244928D01*
X154480666Y-91242232D01*
X154521531Y-91250248D01*
G37*
G36*
X149082309Y-85955517D02*
G01*
X149127981Y-85957518D01*
X149154960Y-85961527D01*
X149167476Y-85968095D01*
X149169919Y-85975348D01*
X149159046Y-85993355D01*
X149149545Y-85995722D01*
X149125442Y-86004713D01*
X149102005Y-86022888D01*
X149094199Y-86031855D01*
X149088049Y-86043422D01*
X149083359Y-86060679D01*
X149079931Y-86086720D01*
X149077569Y-86124638D01*
X149076076Y-86177525D01*
X149075254Y-86248475D01*
X149074907Y-86340580D01*
X149074839Y-86449638D01*
X149075128Y-86552054D01*
X149075944Y-86646313D01*
X149077214Y-86728804D01*
X149078862Y-86795913D01*
X149080813Y-86844028D01*
X149082992Y-86869536D01*
X149083591Y-86872030D01*
X149100635Y-86890666D01*
X149133751Y-86911687D01*
X149152375Y-86920572D01*
X149185925Y-86937370D01*
X149204591Y-86951532D01*
X149206044Y-86956601D01*
X149189895Y-86961827D01*
X149153389Y-86965152D01*
X149102911Y-86966705D01*
X149044842Y-86966614D01*
X148985565Y-86965007D01*
X148931465Y-86962012D01*
X148888923Y-86957758D01*
X148864323Y-86952373D01*
X148860823Y-86949663D01*
X148868239Y-86935353D01*
X148890822Y-86925099D01*
X148918187Y-86915374D01*
X148938104Y-86899374D01*
X148951714Y-86873162D01*
X148960158Y-86832802D01*
X148964576Y-86774359D01*
X148966108Y-86693895D01*
X148966176Y-86665053D01*
X148966176Y-86471123D01*
X148687726Y-86471123D01*
X148409277Y-86471123D01*
X148409277Y-86673203D01*
X148409605Y-86756157D01*
X148411583Y-86816293D01*
X148416708Y-86857960D01*
X148426474Y-86885504D01*
X148442375Y-86903274D01*
X148465907Y-86915618D01*
X148496234Y-86926130D01*
X148529273Y-86939811D01*
X148535403Y-86950747D01*
X148514746Y-86958900D01*
X148467423Y-86964234D01*
X148393556Y-86966712D01*
X148360654Y-86966898D01*
X148295317Y-86966135D01*
X148240432Y-86964051D01*
X148201374Y-86960955D01*
X148183518Y-86957154D01*
X148183082Y-86956711D01*
X148183058Y-86936816D01*
X148201887Y-86922098D01*
X148217813Y-86919358D01*
X148245481Y-86909844D01*
X148264552Y-86894519D01*
X148270975Y-86884898D01*
X148276063Y-86869849D01*
X148279966Y-86846414D01*
X148282837Y-86811638D01*
X148284826Y-86762565D01*
X148286085Y-86696239D01*
X148286764Y-86609704D01*
X148287016Y-86500004D01*
X148287031Y-86455180D01*
X148287009Y-86333735D01*
X148286593Y-86236596D01*
X148285256Y-86160904D01*
X148282474Y-86103800D01*
X148277721Y-86062424D01*
X148270470Y-86033917D01*
X148260197Y-86015420D01*
X148246376Y-86004074D01*
X148228481Y-85997019D01*
X148205987Y-85991396D01*
X148201583Y-85990357D01*
X148177191Y-85980108D01*
X148171823Y-85968158D01*
X148187517Y-85962956D01*
X148223158Y-85959061D01*
X148272422Y-85956496D01*
X148328985Y-85955286D01*
X148386525Y-85955454D01*
X148438719Y-85957023D01*
X148479242Y-85960018D01*
X148501773Y-85964463D01*
X148504357Y-85966908D01*
X148493136Y-85979745D01*
X148465880Y-85994760D01*
X148463436Y-85995793D01*
X148432589Y-86016091D01*
X148415437Y-86041307D01*
X148415366Y-86041586D01*
X148412915Y-86065906D01*
X148411484Y-86111007D01*
X148411176Y-86170520D01*
X148412094Y-86238075D01*
X148412143Y-86240214D01*
X148416069Y-86410000D01*
X148687726Y-86410000D01*
X148959384Y-86410000D01*
X148963318Y-86247005D01*
X148964762Y-86164668D01*
X148963801Y-86105062D01*
X148959380Y-86063787D01*
X148950447Y-86036444D01*
X148935950Y-86018630D01*
X148914836Y-86005947D01*
X148904569Y-86001436D01*
X148870558Y-85984740D01*
X148859521Y-85972163D01*
X148872369Y-85963316D01*
X148910015Y-85957811D01*
X148973368Y-85955262D01*
X149013716Y-85954973D01*
X149082309Y-85955517D01*
G37*
G36*
X151610262Y-85956359D02*
G01*
X151672566Y-85957330D01*
X151763650Y-85959037D01*
X151832025Y-85960986D01*
X151882144Y-85963709D01*
X151918463Y-85967739D01*
X151945435Y-85973607D01*
X151967515Y-85981846D01*
X151989157Y-85992987D01*
X151994022Y-85995722D01*
X152053776Y-86043495D01*
X152090981Y-86106409D01*
X152105651Y-86184487D01*
X152105898Y-86200299D01*
X152093326Y-86276100D01*
X152059713Y-86345971D01*
X152009445Y-86401827D01*
X151988488Y-86416717D01*
X151958767Y-86437132D01*
X151942118Y-86452541D01*
X151940828Y-86455489D01*
X151947985Y-86469242D01*
X151967888Y-86501866D01*
X151998183Y-86549647D01*
X152036517Y-86608872D01*
X152080053Y-86675103D01*
X152131344Y-86751768D01*
X152171123Y-86808848D01*
X152202256Y-86849805D01*
X152227606Y-86878103D01*
X152250041Y-86897206D01*
X152272425Y-86910576D01*
X152276512Y-86912567D01*
X152310470Y-86930506D01*
X152331249Y-86944987D01*
X152334240Y-86949304D01*
X152323019Y-86961436D01*
X152293095Y-86967861D01*
X152252373Y-86968343D01*
X152208757Y-86962647D01*
X152178303Y-86953951D01*
X152151295Y-86942058D01*
X152126708Y-86926496D01*
X152101876Y-86904096D01*
X152074135Y-86871689D01*
X152040817Y-86826103D01*
X151999258Y-86764170D01*
X151946793Y-86682719D01*
X151936104Y-86665928D01*
X151897112Y-86606265D01*
X151861638Y-86555034D01*
X151832861Y-86516610D01*
X151813962Y-86495364D01*
X151810148Y-86492747D01*
X151777553Y-86486679D01*
X151732232Y-86484992D01*
X151688265Y-86487668D01*
X151663490Y-86492950D01*
X151654435Y-86500358D01*
X151648272Y-86517281D01*
X151644488Y-86548051D01*
X151642571Y-86597002D01*
X151642007Y-86668467D01*
X151642005Y-86674488D01*
X151643504Y-86760838D01*
X151649072Y-86824093D01*
X151660312Y-86868208D01*
X151678829Y-86897143D01*
X151706228Y-86914853D01*
X151743638Y-86925209D01*
X151775097Y-86935186D01*
X151790946Y-86948192D01*
X151791401Y-86950535D01*
X151782929Y-86957761D01*
X151755791Y-86962730D01*
X151707377Y-86965681D01*
X151635078Y-86966854D01*
X151613687Y-86966898D01*
X151547164Y-86966498D01*
X151491105Y-86965403D01*
X151450750Y-86963772D01*
X151431336Y-86961764D01*
X151430452Y-86961357D01*
X151432126Y-86947812D01*
X151447934Y-86930835D01*
X151468158Y-86919993D01*
X151473111Y-86919358D01*
X151493624Y-86909197D01*
X151512197Y-86889170D01*
X151518416Y-86876865D01*
X151523318Y-86857730D01*
X151527049Y-86828768D01*
X151529758Y-86786980D01*
X151531593Y-86729368D01*
X151532703Y-86652934D01*
X151533233Y-86554679D01*
X151533341Y-86460692D01*
X151533341Y-86268649D01*
X151642700Y-86268649D01*
X151643879Y-86328057D01*
X151646404Y-86375893D01*
X151650322Y-86405732D01*
X151652400Y-86411359D01*
X151681789Y-86432526D01*
X151730691Y-86442245D01*
X151793769Y-86440044D01*
X151852003Y-86429092D01*
X151900837Y-86409305D01*
X151943692Y-86379773D01*
X151949073Y-86374525D01*
X151971620Y-86346289D01*
X151984318Y-86314578D01*
X151990682Y-86269201D01*
X151991953Y-86250165D01*
X151988716Y-86172204D01*
X151967492Y-86112144D01*
X151926155Y-86065835D01*
X151884108Y-86039375D01*
X151835731Y-86020552D01*
X151781403Y-86008620D01*
X151728649Y-86004122D01*
X151684989Y-86007599D01*
X151657949Y-86019594D01*
X151655306Y-86022888D01*
X151650478Y-86043787D01*
X151646756Y-86085237D01*
X151644187Y-86140814D01*
X151642819Y-86204093D01*
X151642700Y-86268649D01*
X151533341Y-86268649D01*
X151533341Y-86062401D01*
X151500002Y-86029062D01*
X151469380Y-86006114D01*
X151440413Y-85995769D01*
X151438879Y-85995722D01*
X151415914Y-85986941D01*
X151411095Y-85974309D01*
X151413746Y-85966892D01*
X151424003Y-85961545D01*
X151445325Y-85958042D01*
X151481170Y-85956160D01*
X151534996Y-85955674D01*
X151610262Y-85956359D01*
G37*
G36*
X147501684Y-87448057D02*
G01*
X147539644Y-87456084D01*
X147561347Y-87471781D01*
X147567304Y-87483048D01*
X147572853Y-87509858D01*
X147564760Y-87530315D01*
X147539173Y-87548009D01*
X147492240Y-87566529D01*
X147469742Y-87573973D01*
X147381006Y-87612427D01*
X147316113Y-87663189D01*
X147274406Y-87726831D01*
X147265390Y-87751507D01*
X147262263Y-87767345D01*
X147259505Y-87793944D01*
X147257096Y-87832748D01*
X147255018Y-87885204D01*
X147253250Y-87952754D01*
X147251774Y-88036844D01*
X147250570Y-88138918D01*
X147249618Y-88260421D01*
X147248900Y-88402798D01*
X147248395Y-88567493D01*
X147248085Y-88755950D01*
X147247950Y-88969616D01*
X147247940Y-89051872D01*
X147247905Y-89269239D01*
X147247875Y-89461087D01*
X147247966Y-89629061D01*
X147248295Y-89774809D01*
X147248978Y-89899974D01*
X147250129Y-90006205D01*
X147251865Y-90095147D01*
X147254301Y-90168445D01*
X147257554Y-90227747D01*
X147261739Y-90274697D01*
X147266972Y-90310943D01*
X147273369Y-90338130D01*
X147281046Y-90357904D01*
X147290118Y-90371912D01*
X147300701Y-90381799D01*
X147312911Y-90389211D01*
X147326865Y-90395795D01*
X147342676Y-90403197D01*
X147343021Y-90403369D01*
X147365012Y-90413103D01*
X147389267Y-90420205D01*
X147420304Y-90425072D01*
X147462642Y-90428101D01*
X147520800Y-90429690D01*
X147599296Y-90430236D01*
X147648636Y-90430241D01*
X147764260Y-90429011D01*
X147859027Y-90425346D01*
X147939170Y-90418833D01*
X148010921Y-90409063D01*
X148035748Y-90404697D01*
X148224425Y-90360338D01*
X148392400Y-90301426D01*
X148538882Y-90228354D01*
X148663079Y-90141518D01*
X148764031Y-90041513D01*
X148795674Y-90007053D01*
X148822942Y-89983169D01*
X148838144Y-89975508D01*
X148856730Y-89987614D01*
X148866463Y-90020496D01*
X148866589Y-90068997D01*
X148858894Y-90117263D01*
X148833991Y-90190087D01*
X148792299Y-90270403D01*
X148738226Y-90352578D01*
X148676182Y-90430978D01*
X148610574Y-90499969D01*
X148545811Y-90553918D01*
X148493410Y-90584309D01*
X148474860Y-90591610D01*
X148454404Y-90597788D01*
X148429862Y-90602899D01*
X148399053Y-90607004D01*
X148359799Y-90610158D01*
X148309918Y-90612422D01*
X148247230Y-90613854D01*
X148169556Y-90614510D01*
X148074714Y-90614451D01*
X147960525Y-90613734D01*
X147824809Y-90612417D01*
X147665386Y-90610558D01*
X147560347Y-90609245D01*
X147436779Y-90608011D01*
X147312358Y-90607383D01*
X147192048Y-90607343D01*
X147080817Y-90607872D01*
X146983629Y-90608951D01*
X146905451Y-90610561D01*
X146867620Y-90611864D01*
X146792199Y-90614727D01*
X146723076Y-90616607D01*
X146666391Y-90617390D01*
X146628284Y-90616963D01*
X146619732Y-90616439D01*
X146588509Y-90609638D01*
X146576645Y-90593506D01*
X146575587Y-90580749D01*
X146577739Y-90560242D01*
X146587252Y-90543772D01*
X146608711Y-90527876D01*
X146646705Y-90509093D01*
X146701351Y-90485810D01*
X146774097Y-90449329D01*
X146824331Y-90407492D01*
X146856706Y-90355303D01*
X146873200Y-90301225D01*
X146876137Y-90274797D01*
X146878739Y-90224241D01*
X146881011Y-90149208D01*
X146882956Y-90049350D01*
X146884578Y-89924319D01*
X146885881Y-89773768D01*
X146886869Y-89597348D01*
X146887546Y-89394710D01*
X146887916Y-89165507D01*
X146887994Y-88983761D01*
X146887994Y-87735277D01*
X146847914Y-87689629D01*
X146820917Y-87662810D01*
X146788248Y-87639569D01*
X146744582Y-87617109D01*
X146684599Y-87592634D01*
X146616336Y-87567994D01*
X146569585Y-87550752D01*
X146543084Y-87536994D01*
X146531148Y-87522118D01*
X146528093Y-87501524D01*
X146528047Y-87496527D01*
X146528047Y-87455882D01*
X146887994Y-87460001D01*
X146991592Y-87460704D01*
X147092861Y-87460507D01*
X147186588Y-87459486D01*
X147267563Y-87457718D01*
X147330573Y-87455281D01*
X147363395Y-87453012D01*
X147444068Y-87447200D01*
X147501684Y-87448057D01*
G37*
G36*
X154748812Y-87454287D02*
G01*
X154775339Y-87469892D01*
X154793491Y-87501004D01*
X154805442Y-87551433D01*
X154813366Y-87624987D01*
X154813670Y-87628997D01*
X154818287Y-87703314D01*
X154822213Y-87789156D01*
X154824762Y-87870882D01*
X154825130Y-87890535D01*
X154825851Y-87952196D01*
X154824979Y-87991782D01*
X154821350Y-88014382D01*
X154813799Y-88025082D01*
X154801162Y-88028971D01*
X154793234Y-88029882D01*
X154758307Y-88028194D01*
X154734786Y-88011672D01*
X154719358Y-87976100D01*
X154709534Y-87923436D01*
X154693233Y-87845880D01*
X154666803Y-87789201D01*
X154627117Y-87748027D01*
X154596283Y-87728865D01*
X154580360Y-87721149D01*
X154563083Y-87714923D01*
X154541420Y-87709995D01*
X154512340Y-87706172D01*
X154472812Y-87703262D01*
X154419804Y-87701073D01*
X154350284Y-87699414D01*
X154261222Y-87698091D01*
X154149586Y-87696914D01*
X154082340Y-87696302D01*
X153946863Y-87695392D01*
X153836724Y-87695326D01*
X153750108Y-87696152D01*
X153685200Y-87697912D01*
X153640184Y-87700652D01*
X153613245Y-87704417D01*
X153603543Y-87708152D01*
X153600259Y-87714090D01*
X153597362Y-87727144D01*
X153594830Y-87748857D01*
X153592642Y-87780767D01*
X153590773Y-87824417D01*
X153589202Y-87881346D01*
X153587906Y-87953096D01*
X153586863Y-88041208D01*
X153586051Y-88147221D01*
X153585446Y-88272678D01*
X153585027Y-88419118D01*
X153584770Y-88588082D01*
X153584654Y-88781112D01*
X153584655Y-88999748D01*
X153584656Y-89002599D01*
X153584726Y-89218130D01*
X153584852Y-89408181D01*
X153585065Y-89574436D01*
X153585397Y-89718582D01*
X153585882Y-89842303D01*
X153586550Y-89947284D01*
X153587434Y-90035212D01*
X153588567Y-90107771D01*
X153589980Y-90166646D01*
X153591706Y-90213523D01*
X153593776Y-90250088D01*
X153596223Y-90278024D01*
X153599080Y-90299019D01*
X153602377Y-90314756D01*
X153606148Y-90326922D01*
X153610115Y-90336522D01*
X153646509Y-90394488D01*
X153698122Y-90436854D01*
X153769957Y-90467468D01*
X153786846Y-90472423D01*
X153853125Y-90491777D01*
X153897397Y-90507696D01*
X153924223Y-90522412D01*
X153938163Y-90538159D01*
X153942082Y-90548411D01*
X153946440Y-90566849D01*
X153946920Y-90581334D01*
X153940749Y-90592291D01*
X153925159Y-90600143D01*
X153897379Y-90605313D01*
X153854640Y-90608225D01*
X153794172Y-90609302D01*
X153713204Y-90608969D01*
X153608966Y-90607649D01*
X153559418Y-90606929D01*
X153453443Y-90605804D01*
X153349576Y-90605482D01*
X153252944Y-90605921D01*
X153168671Y-90607077D01*
X153101886Y-90608909D01*
X153061416Y-90611064D01*
X153002840Y-90614930D01*
X152951546Y-90616972D01*
X152915801Y-90616911D01*
X152907826Y-90616252D01*
X152886187Y-90608610D01*
X152879635Y-90588542D01*
X152880661Y-90568712D01*
X152882544Y-90551525D01*
X152886823Y-90538026D01*
X152897220Y-90525652D01*
X152917461Y-90511839D01*
X152951269Y-90494024D01*
X153002370Y-90469643D01*
X153070767Y-90437859D01*
X153130387Y-90406227D01*
X153170400Y-90374382D01*
X153193013Y-90345202D01*
X153224411Y-90294706D01*
X153228494Y-89045080D01*
X153229150Y-88806916D01*
X153229471Y-88595105D01*
X153229449Y-88408837D01*
X153229077Y-88247302D01*
X153228349Y-88109690D01*
X153227257Y-87995190D01*
X153225796Y-87902993D01*
X153223958Y-87832288D01*
X153221736Y-87782264D01*
X153219124Y-87752112D01*
X153217561Y-87743851D01*
X153202546Y-87692247D01*
X152744869Y-87696311D01*
X152620749Y-87697489D01*
X152520800Y-87698713D01*
X152442026Y-87700173D01*
X152381433Y-87702058D01*
X152336025Y-87704558D01*
X152302808Y-87707863D01*
X152278786Y-87712162D01*
X152260965Y-87717645D01*
X152246350Y-87724501D01*
X152239659Y-87728297D01*
X152202490Y-87757192D01*
X152169870Y-87799335D01*
X152139433Y-87858820D01*
X152108810Y-87939739D01*
X152097651Y-87973754D01*
X152071624Y-88044581D01*
X152046524Y-88089413D01*
X152021366Y-88109352D01*
X151995162Y-88105503D01*
X151985774Y-88098916D01*
X151974542Y-88083729D01*
X151969636Y-88058118D01*
X151970279Y-88015523D01*
X151972432Y-87985915D01*
X151980547Y-87894704D01*
X151989747Y-87802702D01*
X151999492Y-87714268D01*
X152009246Y-87633759D01*
X152018469Y-87565532D01*
X152026623Y-87513944D01*
X152033170Y-87483355D01*
X152035181Y-87478040D01*
X152038955Y-87474333D01*
X152046937Y-87471051D01*
X152060719Y-87468165D01*
X152081889Y-87465646D01*
X152112039Y-87463464D01*
X152152759Y-87461590D01*
X152205638Y-87459993D01*
X152272268Y-87458646D01*
X152354238Y-87457517D01*
X152453139Y-87456578D01*
X152570561Y-87455798D01*
X152708094Y-87455149D01*
X152867329Y-87454601D01*
X153049855Y-87454124D01*
X153257264Y-87453689D01*
X153355890Y-87453505D01*
X153543097Y-87453158D01*
X153723269Y-87452811D01*
X153894463Y-87452468D01*
X154054736Y-87452134D01*
X154202142Y-87451814D01*
X154334740Y-87451511D01*
X154450584Y-87451231D01*
X154547731Y-87450978D01*
X154624238Y-87450756D01*
X154678160Y-87450570D01*
X154707554Y-87450424D01*
X154711737Y-87450382D01*
X154748812Y-87454287D01*
G37*
G36*
X150715686Y-87377706D02*
G01*
X150745511Y-87404642D01*
X150773218Y-87454409D01*
X150781196Y-87474524D01*
X150789490Y-87495934D01*
X150807194Y-87540712D01*
X150833575Y-87607026D01*
X150867900Y-87693045D01*
X150909435Y-87796936D01*
X150957446Y-87916868D01*
X151011201Y-88051009D01*
X151069965Y-88197525D01*
X151133005Y-88354586D01*
X151199587Y-88520359D01*
X151268978Y-88693013D01*
X151295848Y-88759840D01*
X151366665Y-88936000D01*
X151435337Y-89106935D01*
X151501089Y-89270712D01*
X151563145Y-89425395D01*
X151620732Y-89569049D01*
X151673075Y-89699738D01*
X151719398Y-89815528D01*
X151758926Y-89914485D01*
X151790885Y-89994672D01*
X151814500Y-90054155D01*
X151828996Y-90090999D01*
X151831606Y-90097754D01*
X151877172Y-90204797D01*
X151926017Y-90297777D01*
X151975801Y-90372846D01*
X152024182Y-90426156D01*
X152038480Y-90437628D01*
X152103279Y-90471796D01*
X152192878Y-90498737D01*
X152203445Y-90501075D01*
X152279956Y-90521655D01*
X152329740Y-90544860D01*
X152353128Y-90570899D01*
X152352573Y-90595232D01*
X152347897Y-90602205D01*
X152337814Y-90607422D01*
X152319153Y-90611013D01*
X152288746Y-90613107D01*
X152243422Y-90613833D01*
X152180012Y-90613323D01*
X152095345Y-90611705D01*
X152003122Y-90609526D01*
X151901881Y-90607550D01*
X151802679Y-90606560D01*
X151710976Y-90606542D01*
X151632236Y-90607477D01*
X151571919Y-90609350D01*
X151546924Y-90610911D01*
X151481790Y-90614787D01*
X151416105Y-90616013D01*
X151362710Y-90614387D01*
X151356764Y-90613904D01*
X151313888Y-90608930D01*
X151291552Y-90601672D01*
X151283163Y-90588535D01*
X151282058Y-90573155D01*
X151286985Y-90550445D01*
X151305618Y-90531509D01*
X151343731Y-90510795D01*
X151349972Y-90507887D01*
X151417001Y-90476515D01*
X151463643Y-90453037D01*
X151494427Y-90434521D01*
X151513882Y-90418034D01*
X151526535Y-90400642D01*
X151532093Y-90389925D01*
X151542045Y-90364035D01*
X151544231Y-90337665D01*
X151538433Y-90301498D01*
X151529147Y-90263984D01*
X151517349Y-90225410D01*
X151497494Y-90167597D01*
X151471217Y-90094758D01*
X151440153Y-90011109D01*
X151405936Y-89920862D01*
X151370199Y-89828233D01*
X151334578Y-89737436D01*
X151300705Y-89652684D01*
X151270217Y-89578192D01*
X151244747Y-89518174D01*
X151225929Y-89476845D01*
X151218301Y-89462425D01*
X151205846Y-89442419D01*
X151193446Y-89425808D01*
X151178610Y-89412294D01*
X151158848Y-89401579D01*
X151131669Y-89393366D01*
X151094584Y-89387356D01*
X151045100Y-89383253D01*
X150980729Y-89380758D01*
X150898980Y-89379574D01*
X150797363Y-89379403D01*
X150673386Y-89379947D01*
X150535836Y-89380833D01*
X150395528Y-89381804D01*
X150279817Y-89382772D01*
X150186131Y-89383870D01*
X150111901Y-89385232D01*
X150054558Y-89386992D01*
X150011530Y-89389285D01*
X149980249Y-89392242D01*
X149958145Y-89396000D01*
X149942647Y-89400690D01*
X149931186Y-89406448D01*
X149922009Y-89412795D01*
X149905943Y-89430052D01*
X149884764Y-89462458D01*
X149857419Y-89512021D01*
X149822854Y-89580751D01*
X149780016Y-89670656D01*
X149729916Y-89779225D01*
X149677466Y-89894973D01*
X149635782Y-89989421D01*
X149603824Y-90065736D01*
X149580555Y-90127085D01*
X149564937Y-90176635D01*
X149555933Y-90217553D01*
X149552504Y-90253007D01*
X149553614Y-90286165D01*
X149556396Y-90308790D01*
X149579247Y-90375208D01*
X149623460Y-90429788D01*
X149684543Y-90469037D01*
X149758005Y-90489459D01*
X149791336Y-90491582D01*
X149826106Y-90501467D01*
X149852463Y-90525864D01*
X149866676Y-90557169D01*
X149865015Y-90587776D01*
X149848250Y-90607615D01*
X149823732Y-90613753D01*
X149778310Y-90617259D01*
X149718125Y-90618054D01*
X149649319Y-90616056D01*
X149578033Y-90611187D01*
X149577406Y-90611130D01*
X149523764Y-90608078D01*
X149450599Y-90606416D01*
X149365519Y-90606191D01*
X149276134Y-90607448D01*
X149222941Y-90608957D01*
X149136497Y-90611727D01*
X149073366Y-90613027D01*
X149029725Y-90612630D01*
X149001750Y-90610309D01*
X148985617Y-90605834D01*
X148977501Y-90598979D01*
X148975102Y-90594195D01*
X148973581Y-90560726D01*
X148997272Y-90532037D01*
X149046966Y-90507315D01*
X149065274Y-90501110D01*
X149126316Y-90474366D01*
X149185453Y-90436306D01*
X149199525Y-90424735D01*
X149210492Y-90415122D01*
X149220531Y-90405824D01*
X149230422Y-90395283D01*
X149240946Y-90381940D01*
X149252883Y-90364237D01*
X149267014Y-90340614D01*
X149284120Y-90309512D01*
X149304981Y-90269373D01*
X149330378Y-90218637D01*
X149361091Y-90155747D01*
X149397901Y-90079142D01*
X149441589Y-89987264D01*
X149492935Y-89878554D01*
X149552720Y-89751453D01*
X149621724Y-89604402D01*
X149700729Y-89435843D01*
X149788355Y-89248823D01*
X149832169Y-89155317D01*
X150044740Y-89155317D01*
X150059891Y-89160618D01*
X150098548Y-89165148D01*
X150157061Y-89168909D01*
X150231782Y-89171901D01*
X150319061Y-89174127D01*
X150415250Y-89175585D01*
X150516698Y-89176279D01*
X150619758Y-89176208D01*
X150720780Y-89175373D01*
X150816114Y-89173775D01*
X150902113Y-89171416D01*
X150975126Y-89168296D01*
X151031504Y-89164416D01*
X151067599Y-89159777D01*
X151079692Y-89155051D01*
X151076040Y-89139510D01*
X151063213Y-89101958D01*
X151042449Y-89045477D01*
X151014985Y-88973148D01*
X150982057Y-88888053D01*
X150944903Y-88793273D01*
X150904759Y-88691890D01*
X150862861Y-88586985D01*
X150820448Y-88481638D01*
X150778755Y-88378932D01*
X150739020Y-88281949D01*
X150702478Y-88193768D01*
X150670368Y-88117472D01*
X150643926Y-88056142D01*
X150624389Y-88012860D01*
X150612993Y-87990706D01*
X150611596Y-87988864D01*
X150595459Y-87981380D01*
X150577689Y-87992653D01*
X150556072Y-88025099D01*
X150529700Y-88078297D01*
X150515326Y-88109381D01*
X150490998Y-88161835D01*
X150458228Y-88232399D01*
X150418532Y-88317819D01*
X150373422Y-88414835D01*
X150324413Y-88520190D01*
X150273018Y-88630629D01*
X150264301Y-88649355D01*
X150214615Y-88756932D01*
X150169050Y-88857214D01*
X150128797Y-88947456D01*
X150095049Y-89024911D01*
X150068996Y-89086833D01*
X150051831Y-89130477D01*
X150044744Y-89153095D01*
X150044740Y-89155317D01*
X149832169Y-89155317D01*
X149845028Y-89127873D01*
X149900005Y-89010549D01*
X149951825Y-88899967D01*
X149999029Y-88799240D01*
X150040157Y-88711485D01*
X150073748Y-88639816D01*
X150098344Y-88587348D01*
X150109815Y-88562888D01*
X150129280Y-88521278D01*
X150158249Y-88459203D01*
X150194777Y-88380837D01*
X150236920Y-88290350D01*
X150282736Y-88191915D01*
X150330280Y-88089704D01*
X150347099Y-88053529D01*
X150415481Y-87906620D01*
X150473482Y-87782491D01*
X150522054Y-87679237D01*
X150562151Y-87594950D01*
X150594726Y-87527722D01*
X150620732Y-87475648D01*
X150641122Y-87436819D01*
X150656848Y-87409329D01*
X150668864Y-87391270D01*
X150678123Y-87380735D01*
X150685578Y-87375818D01*
X150685798Y-87375732D01*
X150715686Y-87377706D01*
G37*
G36*
X156889909Y-87457889D02*
G01*
X156920661Y-87481741D01*
X156930972Y-87492568D01*
X156970078Y-87536988D01*
X157023601Y-87597314D01*
X157090207Y-87672068D01*
X157168563Y-87759771D01*
X157257337Y-87858945D01*
X157355194Y-87968109D01*
X157460802Y-88085786D01*
X157572827Y-88210497D01*
X157689937Y-88340763D01*
X157810797Y-88475104D01*
X157934076Y-88612042D01*
X158058439Y-88750099D01*
X158182554Y-88887794D01*
X158305087Y-89023650D01*
X158424706Y-89156188D01*
X158540076Y-89283928D01*
X158649866Y-89405392D01*
X158752740Y-89519101D01*
X158847368Y-89623576D01*
X158932414Y-89717338D01*
X159006547Y-89798909D01*
X159068433Y-89866809D01*
X159116738Y-89919559D01*
X159150130Y-89955682D01*
X159167275Y-89973697D01*
X159169316Y-89975508D01*
X159171768Y-89962349D01*
X159173918Y-89924565D01*
X159175773Y-89864695D01*
X159177337Y-89785278D01*
X159178617Y-89688852D01*
X159179616Y-89577958D01*
X159180342Y-89455133D01*
X159180798Y-89322917D01*
X159180990Y-89183848D01*
X159180925Y-89040466D01*
X159180606Y-88895310D01*
X159180040Y-88750918D01*
X159179232Y-88609830D01*
X159178187Y-88474584D01*
X159176911Y-88347720D01*
X159175408Y-88231776D01*
X159173685Y-88129292D01*
X159171746Y-88042806D01*
X159169597Y-87974857D01*
X159167244Y-87927984D01*
X159164945Y-87905866D01*
X159133066Y-87805096D01*
X159081092Y-87721889D01*
X159008392Y-87655633D01*
X158914334Y-87605717D01*
X158826332Y-87577878D01*
X158754264Y-87556652D01*
X158707624Y-87534005D01*
X158684675Y-87508725D01*
X158683679Y-87479601D01*
X158683982Y-87478618D01*
X158687457Y-87469361D01*
X158693426Y-87462279D01*
X158705137Y-87457126D01*
X158725834Y-87453654D01*
X158758765Y-87451613D01*
X158807176Y-87450757D01*
X158874314Y-87450838D01*
X158963425Y-87451607D01*
X159028676Y-87452295D01*
X159130136Y-87453109D01*
X159230459Y-87453420D01*
X159323893Y-87453247D01*
X159404686Y-87452609D01*
X159467086Y-87451525D01*
X159490532Y-87450784D01*
X159553455Y-87449794D01*
X159600940Y-87452162D01*
X159627906Y-87457570D01*
X159631106Y-87459604D01*
X159640525Y-87485037D01*
X159626283Y-87515076D01*
X159590704Y-87546401D01*
X159556428Y-87566285D01*
X159509441Y-87592752D01*
X159466601Y-87621787D01*
X159448450Y-87636767D01*
X159436317Y-87648117D01*
X159425515Y-87659145D01*
X159415968Y-87671415D01*
X159407598Y-87686487D01*
X159400328Y-87705927D01*
X159394079Y-87731295D01*
X159388776Y-87764155D01*
X159384339Y-87806070D01*
X159380693Y-87858603D01*
X159377760Y-87923316D01*
X159375462Y-88001773D01*
X159373722Y-88095535D01*
X159372462Y-88206166D01*
X159371606Y-88335229D01*
X159371076Y-88484286D01*
X159370793Y-88654901D01*
X159370682Y-88848635D01*
X159370665Y-89067053D01*
X159370668Y-89207824D01*
X159370595Y-89446154D01*
X159370367Y-89658522D01*
X159369971Y-89846130D01*
X159369391Y-90010183D01*
X159368616Y-90151882D01*
X159367630Y-90272432D01*
X159366420Y-90373034D01*
X159364972Y-90454892D01*
X159363273Y-90519210D01*
X159361308Y-90567190D01*
X159359063Y-90600035D01*
X159356525Y-90618949D01*
X159354368Y-90624770D01*
X159334984Y-90637967D01*
X159312663Y-90637058D01*
X159282217Y-90620232D01*
X159238459Y-90585677D01*
X159235699Y-90583342D01*
X159218850Y-90566556D01*
X159185286Y-90530831D01*
X159136277Y-90477587D01*
X159073091Y-90408246D01*
X158997000Y-90324229D01*
X158909271Y-90226957D01*
X158811174Y-90117851D01*
X158703978Y-89998332D01*
X158588953Y-89869822D01*
X158467369Y-89733741D01*
X158340494Y-89591511D01*
X158209598Y-89444552D01*
X158075950Y-89294286D01*
X157940819Y-89142134D01*
X157805476Y-88989517D01*
X157671189Y-88837856D01*
X157539228Y-88688573D01*
X157410862Y-88543087D01*
X157287360Y-88402822D01*
X157245929Y-88355693D01*
X157221987Y-88327717D01*
X157201160Y-88303014D01*
X157183232Y-88283116D01*
X157167988Y-88269554D01*
X157155214Y-88263862D01*
X157144694Y-88267571D01*
X157136213Y-88282212D01*
X157129555Y-88309318D01*
X157124507Y-88350422D01*
X157120851Y-88407054D01*
X157118375Y-88480747D01*
X157116861Y-88573034D01*
X157116095Y-88685445D01*
X157115862Y-88819514D01*
X157115947Y-88976771D01*
X157116135Y-89158750D01*
X157116207Y-89279385D01*
X157116291Y-89470190D01*
X157116453Y-89635742D01*
X157116740Y-89777954D01*
X157117197Y-89898740D01*
X157117869Y-90000011D01*
X157118802Y-90083682D01*
X157120043Y-90151666D01*
X157121636Y-90205875D01*
X157123628Y-90248222D01*
X157126064Y-90280620D01*
X157128990Y-90304983D01*
X157132451Y-90323223D01*
X157136493Y-90337253D01*
X157141162Y-90348987D01*
X157141790Y-90350381D01*
X157175065Y-90403321D01*
X157222830Y-90442775D01*
X157289730Y-90471881D01*
X157342592Y-90486047D01*
X157394924Y-90499142D01*
X157440935Y-90512870D01*
X157468967Y-90523533D01*
X157500030Y-90548530D01*
X157507815Y-90576518D01*
X157494434Y-90600826D01*
X157461998Y-90614782D01*
X157439765Y-90615819D01*
X157415262Y-90615135D01*
X157367271Y-90614325D01*
X157299470Y-90613432D01*
X157215537Y-90612499D01*
X157119150Y-90611568D01*
X157013986Y-90610681D01*
X156959705Y-90610270D01*
X156839676Y-90609346D01*
X156744019Y-90608379D01*
X156669943Y-90607175D01*
X156614655Y-90605542D01*
X156575362Y-90603286D01*
X156549273Y-90600215D01*
X156533594Y-90596134D01*
X156525534Y-90590850D01*
X156522299Y-90584171D01*
X156521579Y-90579946D01*
X156522596Y-90552708D01*
X156536412Y-90530829D01*
X156567240Y-90510709D01*
X156619290Y-90488748D01*
X156635110Y-90482911D01*
X156717176Y-90448084D01*
X156777711Y-90409435D01*
X156822345Y-90362621D01*
X156850025Y-90317087D01*
X156861415Y-90293623D01*
X156871323Y-90269923D01*
X156879852Y-90244012D01*
X156887103Y-90213916D01*
X156893178Y-90177658D01*
X156898179Y-90133263D01*
X156902207Y-90078755D01*
X156905365Y-90012159D01*
X156907754Y-89931500D01*
X156909476Y-89834801D01*
X156910634Y-89720088D01*
X156911328Y-89585385D01*
X156911660Y-89428715D01*
X156911733Y-89248105D01*
X156911691Y-89120687D01*
X156911537Y-88923291D01*
X156911208Y-88750999D01*
X156910595Y-88601748D01*
X156909587Y-88473479D01*
X156908076Y-88364128D01*
X156905951Y-88271634D01*
X156903104Y-88193935D01*
X156899425Y-88128969D01*
X156894805Y-88074676D01*
X156889134Y-88028992D01*
X156882302Y-87989856D01*
X156874200Y-87955207D01*
X156864720Y-87922982D01*
X156853750Y-87891121D01*
X156845187Y-87868088D01*
X156793740Y-87766929D01*
X156723293Y-87685153D01*
X156633778Y-87622705D01*
X156525130Y-87579529D01*
X156494252Y-87571572D01*
X156431678Y-87552137D01*
X156390469Y-87528656D01*
X156372672Y-87502723D01*
X156377134Y-87480503D01*
X156385311Y-87471254D01*
X156399507Y-87464516D01*
X156423806Y-87459816D01*
X156462292Y-87456682D01*
X156519052Y-87454641D01*
X156598168Y-87453220D01*
X156614835Y-87452997D01*
X156691730Y-87451951D01*
X156760575Y-87450924D01*
X156816120Y-87450000D01*
X156853112Y-87449266D01*
X156864625Y-87448934D01*
X156889909Y-87457889D01*
G37*
G04 #@! TO.C,J1*
D13*
X148935000Y-74170000D02*
X150345000Y-74170000D01*
X148935000Y-83330000D02*
X150345000Y-83330000D01*
X153015000Y-74990000D02*
X152865000Y-74990000D01*
X153015000Y-75790000D02*
X153015000Y-74990000D01*
G04 #@! TO.C,C1*
X157211252Y-83090000D02*
X155788748Y-83090000D01*
X157211252Y-84910000D02*
X155788748Y-84910000D01*
G04 #@! TO.C,R5*
X179727064Y-79840000D02*
X178272936Y-79840000D01*
X179727064Y-81660000D02*
X178272936Y-81660000D01*
G04 #@! TO.C,C2*
X165288748Y-74340000D02*
X166711252Y-74340000D01*
X165288748Y-76160000D02*
X166711252Y-76160000D01*
G04 #@! TO.C,C4*
X171340000Y-83461252D02*
X171340000Y-82038748D01*
X173160000Y-83461252D02*
X173160000Y-82038748D01*
G04 #@! TO.C,D1*
X178000000Y-86710000D02*
X178000000Y-82850000D01*
X178000000Y-86710000D02*
X180000000Y-86710000D01*
X180000000Y-86710000D02*
X180000000Y-82850000D01*
G04 #@! TO.C,C3*
X174090000Y-83461252D02*
X174090000Y-82038748D01*
X175910000Y-83461252D02*
X175910000Y-82038748D01*
G04 #@! TO.C,J3*
X174830000Y-77380000D02*
X174830000Y-74620000D01*
X174830000Y-77380000D02*
X175400000Y-77380000D01*
X175400000Y-74620000D02*
X177940000Y-74620000D01*
X175400000Y-77380000D02*
X175400000Y-78850000D01*
X177020000Y-77380000D02*
X180480000Y-77380000D01*
X179560000Y-74620000D02*
X182670000Y-74620000D01*
X182100000Y-74620000D02*
X182670000Y-74620000D01*
X182670000Y-77380000D02*
X182670000Y-74620000D01*
G04 #@! TO.C,FB1*
X155272936Y-80515000D02*
X155727064Y-80515000D01*
X155272936Y-81985000D02*
X155727064Y-81985000D01*
G04 #@! TO.C,U1*
X163240000Y-76790000D02*
X168760000Y-76790000D01*
X163240000Y-77315000D02*
X163240000Y-76790000D01*
X163240000Y-87210000D02*
X163240000Y-86685000D01*
X168760000Y-76790000D02*
X168760000Y-77315000D01*
X168760000Y-86685000D02*
X168760000Y-87210000D01*
X168760000Y-87210000D02*
X163240000Y-87210000D01*
X169500000Y-86690000D02*
X169840000Y-87160000D01*
X169160000Y-87160000D01*
X169500000Y-86690000D01*
G36*
X169840000Y-87160000D02*
G01*
X169160000Y-87160000D01*
X169500000Y-86690000D01*
X169840000Y-87160000D01*
G37*
G04 #@! TO.C,R3*
X158090000Y-78427064D02*
X158090000Y-76972936D01*
X159910000Y-78427064D02*
X159910000Y-76972936D01*
G04 #@! TO.C,R4*
X172477064Y-74340000D02*
X171022936Y-74340000D01*
X172477064Y-76160000D02*
X171022936Y-76160000D01*
G04 #@! TO.C,R2*
X154090000Y-75977064D02*
X154090000Y-74522936D01*
X155910000Y-75977064D02*
X155910000Y-74522936D01*
G04 #@! TD*
M02*
