M48
; DRILL file KiCad 10.0.3 date 2026-07-16T12:07:56
; FORMAT={-:-/ absolute / metric / decimal}
; #@! TF.CreationDate,2026-07-16T12:07:56-04:00
; #@! TF.GenerationSoftware,Kicad,Pcbnew,10.0.3
; #@! TF.FileFunction,MixedPlating,1,2
FMAT,2
METRIC
; #@! TA.AperFunction,Plated,PTH,ViaDrill
T1C0.300
; #@! TA.AperFunction,Plated,PTH,ComponentDrill
T2C0.800
; #@! TA.AperFunction,Plated,PTH,ComponentDrill
T3C1.000
%
G90
G05
T1
X122.25Y-90.25
X122.25Y-94.25
X126.438Y-97.75
X127.75Y-92.5
X130.975Y-93.225
X131.75Y-88.25
X132.25Y-93.0
X133.25Y-90.0
X133.25Y-92.0
X136.0Y-90.15
X138.425Y-99.161
X139.8Y-102.5
T2
X133.068Y-95.5
X135.568Y-95.5
T3
X118.0Y-84.94
X118.0Y-87.48
X118.0Y-90.02
X118.0Y-92.56
X118.0Y-97.735
X118.0Y-100.275
X140.88Y-85.2
X140.88Y-87.74
X140.88Y-90.28
X140.88Y-92.82
X140.88Y-95.36
X140.88Y-97.9
X140.88Y-100.44
X156.13Y-85.19
X156.13Y-87.73
X156.13Y-90.27
X156.13Y-92.81
X156.13Y-95.35
X156.13Y-97.89
X156.13Y-100.43
M30
