G04 #@! TF.GenerationSoftware,KiCad,Pcbnew,10.0.3*
G04 #@! TF.CreationDate,2026-07-16T12:03:05-04:00*
G04 #@! TF.ProjectId,SEEEDXIAOESP32C6_Accelerometer,53454545-4458-4494-914f-455350333243,rev?*
G04 #@! TF.SameCoordinates,Original*
G04 #@! TF.FileFunction,Copper,L2,Bot*
G04 #@! TF.FilePolarity,Positive*
%FSLAX46Y46*%
G04 Gerber Fmt 4.6, Leading zero omitted, Abs format (unit mm)*
G04 Created by KiCad (PCBNEW 10.0.3) date 2026-07-16 12:03:05*
%MOMM*%
%LPD*%
G01*
G04 APERTURE LIST*
G04 #@! TA.AperFunction,ComponentPad*
%ADD10R,1.700000X1.700000*%
G04 #@! TD*
G04 #@! TA.AperFunction,ComponentPad*
%ADD11C,1.700000*%
G04 #@! TD*
G04 #@! TA.AperFunction,ViaPad*
%ADD12C,0.600000*%
G04 #@! TD*
G04 #@! TA.AperFunction,Conductor*
%ADD13C,0.200000*%
G04 #@! TD*
G04 APERTURE END LIST*
D10*
G04 #@! TO.P,J1,1,Pin_1_1*
G04 #@! TO.N,unconnected-(J1-Pin_1-Pad1)*
X156130000Y-85190000D03*
D11*
G04 #@! TO.P,J1,2,Pin_2_2*
G04 #@! TO.N,GND*
X156130000Y-87730000D03*
G04 #@! TO.P,J1,3,Pin_3_3*
G04 #@! TO.N,3V3*
X156130000Y-90270000D03*
G04 #@! TO.P,J1,4,Pin_4_4*
G04 #@! TO.N,unconnected-(J1-Pin_4-Pad4)*
X156130000Y-92810000D03*
G04 #@! TO.P,J1,5,Pin_5_5*
G04 #@! TO.N,unconnected-(J1-Pin_5-Pad5)*
X156130000Y-95350000D03*
G04 #@! TO.P,J1,6,Pin_6_6*
G04 #@! TO.N,/INT2*
X156130000Y-97890000D03*
G04 #@! TO.P,J1,7,Pin_7_7*
G04 #@! TO.N,unconnected-(J1-Pin_7-Pad7)*
X156130000Y-100430000D03*
G04 #@! TD*
D10*
G04 #@! TO.P,J2,1,Pin_1_1*
G04 #@! TO.N,unconnected-(J2-Pin_1-Pad1)*
X140880000Y-85200000D03*
D11*
G04 #@! TO.P,J2,2,Pin_2_2*
G04 #@! TO.N,unconnected-(J2-Pin_2-Pad2)*
X140880000Y-87740000D03*
G04 #@! TO.P,J2,3,Pin_3_3*
G04 #@! TO.N,unconnected-(J2-Pin_3-Pad3)*
X140880000Y-90280000D03*
G04 #@! TO.P,J2,4,Pin_4_4*
G04 #@! TO.N,/INT1*
X140880000Y-92820000D03*
G04 #@! TO.P,J2,5,Pin_5_5*
G04 #@! TO.N,/SDA*
X140880000Y-95360000D03*
G04 #@! TO.P,J2,6,Pin_6_6*
G04 #@! TO.N,/SCL*
X140880000Y-97900000D03*
G04 #@! TO.P,J2,7,Pin_7_7*
G04 #@! TO.N,unconnected-(J2-Pin_7-Pad7)*
X140880000Y-100440000D03*
G04 #@! TD*
D12*
G04 #@! TO.N,3V3*
X132793500Y-94640000D03*
X134750000Y-90750000D03*
X130356000Y-96952500D03*
X125081000Y-87202500D03*
X138250000Y-86000000D03*
G04 #@! TO.N,GND*
X127250000Y-97000000D03*
X125500000Y-89287500D03*
X132793500Y-97765000D03*
G04 #@! TO.N,/INT2*
X135800000Y-101300000D03*
G04 #@! TD*
G04 #@! TO.N,/INT2*
D13*
X153360000Y-97890000D02*
X156130000Y-97890000D01*
X146000000Y-105250000D02*
X153360000Y-97890000D01*
X136750000Y-105250000D02*
X146000000Y-105250000D01*
X135775000Y-104275000D02*
X136750000Y-105250000D01*
X135775000Y-101325000D02*
X135775000Y-104275000D01*
X135800000Y-101300000D02*
X135775000Y-101325000D01*
G04 #@! TO.N,3V3*
X133860000Y-94640000D02*
X134750000Y-93750000D01*
X123000000Y-97500000D02*
X124500000Y-99000000D01*
X132793500Y-94640000D02*
X133860000Y-94640000D01*
X128308500Y-99000000D02*
X130356000Y-96952500D01*
X138250000Y-86000000D02*
X138250000Y-87250000D01*
X125081000Y-87202500D02*
X123000000Y-89283500D01*
X130481000Y-96952500D02*
X132793500Y-94640000D01*
X130356000Y-96952500D02*
X130481000Y-96952500D01*
X123000000Y-89283500D02*
X123000000Y-97500000D01*
X134750000Y-93750000D02*
X134750000Y-90750000D01*
X138250000Y-87250000D02*
X134750000Y-90750000D01*
X124500000Y-99000000D02*
X128308500Y-99000000D01*
G04 #@! TD*
G04 #@! TA.AperFunction,Conductor*
G04 #@! TO.N,GND*
G36*
X157504418Y-81500816D02*
G01*
X157704561Y-81515130D01*
X157722063Y-81517647D01*
X157913795Y-81559355D01*
X157930760Y-81564336D01*
X158114611Y-81632909D01*
X158130694Y-81640253D01*
X158247495Y-81704032D01*
X158302908Y-81734290D01*
X158317791Y-81743855D01*
X158474864Y-81861438D01*
X158488235Y-81873024D01*
X158626975Y-82011764D01*
X158638561Y-82025135D01*
X158756144Y-82182208D01*
X158765709Y-82197091D01*
X158859743Y-82369300D01*
X158867093Y-82385394D01*
X158935661Y-82569234D01*
X158940645Y-82586209D01*
X158982351Y-82777931D01*
X158984869Y-82795442D01*
X158999184Y-82995580D01*
X158999500Y-83004427D01*
X158999500Y-107070572D01*
X158999184Y-107079419D01*
X158984869Y-107279557D01*
X158982351Y-107297068D01*
X158940645Y-107488790D01*
X158935661Y-107505765D01*
X158867093Y-107689605D01*
X158859743Y-107705699D01*
X158765709Y-107877908D01*
X158756144Y-107892791D01*
X158638561Y-108049864D01*
X158626975Y-108063235D01*
X158488235Y-108201975D01*
X158474864Y-108213561D01*
X158317791Y-108331144D01*
X158302908Y-108340709D01*
X158130699Y-108434743D01*
X158114605Y-108442093D01*
X157930765Y-108510661D01*
X157913790Y-108515645D01*
X157722068Y-108557351D01*
X157704557Y-108559869D01*
X157523779Y-108572799D01*
X157504417Y-108574184D01*
X157495572Y-108574500D01*
X123254428Y-108574500D01*
X123245582Y-108574184D01*
X123223622Y-108572613D01*
X123045442Y-108559869D01*
X123027931Y-108557351D01*
X122836209Y-108515645D01*
X122819234Y-108510661D01*
X122635394Y-108442093D01*
X122619300Y-108434743D01*
X122447091Y-108340709D01*
X122432208Y-108331144D01*
X122275135Y-108213561D01*
X122261764Y-108201975D01*
X122123024Y-108063235D01*
X122111438Y-108049864D01*
X121993855Y-107892791D01*
X121984290Y-107877908D01*
X121890256Y-107705699D01*
X121882909Y-107689611D01*
X121814336Y-107505760D01*
X121809354Y-107488790D01*
X121767648Y-107297068D01*
X121765130Y-107279556D01*
X121750816Y-107079418D01*
X121750500Y-107070572D01*
X121750500Y-101221153D01*
X134999500Y-101221153D01*
X134999500Y-101378846D01*
X135030261Y-101533489D01*
X135030264Y-101533501D01*
X135090602Y-101679172D01*
X135090609Y-101679184D01*
X135153602Y-101773459D01*
X135174480Y-101840136D01*
X135174500Y-101842350D01*
X135174500Y-104188330D01*
X135174499Y-104188348D01*
X135174499Y-104354054D01*
X135174498Y-104354054D01*
X135215423Y-104506785D01*
X135244358Y-104556900D01*
X135244359Y-104556904D01*
X135244360Y-104556904D01*
X135286454Y-104629815D01*
X135294479Y-104643714D01*
X135294481Y-104643717D01*
X135413349Y-104762585D01*
X135413355Y-104762590D01*
X136265139Y-105614374D01*
X136265149Y-105614385D01*
X136269479Y-105618715D01*
X136269480Y-105618716D01*
X136381284Y-105730520D01*
X136468095Y-105780639D01*
X136468097Y-105780641D01*
X136518213Y-105809576D01*
X136518215Y-105809577D01*
X136670942Y-105850500D01*
X136670943Y-105850500D01*
X145913331Y-105850500D01*
X145913347Y-105850501D01*
X145920943Y-105850501D01*
X146079054Y-105850501D01*
X146079057Y-105850501D01*
X146231785Y-105809577D01*
X146281904Y-105780639D01*
X146368716Y-105730520D01*
X146480520Y-105618716D01*
X146480520Y-105618714D01*
X146490728Y-105608507D01*
X146490729Y-105608504D01*
X153572416Y-98526819D01*
X153633739Y-98493334D01*
X153660097Y-98490500D01*
X154844281Y-98490500D01*
X154911320Y-98510185D01*
X154954765Y-98558205D01*
X154974947Y-98597814D01*
X154974948Y-98597815D01*
X155099890Y-98769786D01*
X155250213Y-98920109D01*
X155422182Y-99045050D01*
X155430946Y-99049516D01*
X155481742Y-99097491D01*
X155498536Y-99165312D01*
X155475998Y-99231447D01*
X155430946Y-99270484D01*
X155422182Y-99274949D01*
X155250213Y-99399890D01*
X155099890Y-99550213D01*
X154974951Y-99722179D01*
X154878444Y-99911585D01*
X154812753Y-100113760D01*
X154779500Y-100323713D01*
X154779500Y-100536286D01*
X154801978Y-100678210D01*
X154812754Y-100746243D01*
X154826876Y-100789707D01*
X154878444Y-100948414D01*
X154974951Y-101137820D01*
X155099890Y-101309786D01*
X155250213Y-101460109D01*
X155422179Y-101585048D01*
X155422181Y-101585049D01*
X155422184Y-101585051D01*
X155611588Y-101681557D01*
X155813757Y-101747246D01*
X156023713Y-101780500D01*
X156023714Y-101780500D01*
X156236286Y-101780500D01*
X156236287Y-101780500D01*
X156446243Y-101747246D01*
X156648412Y-101681557D01*
X156837816Y-101585051D01*
X156908769Y-101533501D01*
X157009786Y-101460109D01*
X157009788Y-101460106D01*
X157009792Y-101460104D01*
X157160104Y-101309792D01*
X157160106Y-101309788D01*
X157160109Y-101309786D01*
X157285048Y-101137820D01*
X157285047Y-101137820D01*
X157285051Y-101137816D01*
X157381557Y-100948412D01*
X157447246Y-100746243D01*
X157480500Y-100536287D01*
X157480500Y-100323713D01*
X157447246Y-100113757D01*
X157381557Y-99911588D01*
X157285051Y-99722184D01*
X157285049Y-99722181D01*
X157285048Y-99722179D01*
X157160109Y-99550213D01*
X157009786Y-99399890D01*
X156837820Y-99274951D01*
X156837115Y-99274591D01*
X156829054Y-99270485D01*
X156778259Y-99222512D01*
X156761463Y-99154692D01*
X156783999Y-99088556D01*
X156829054Y-99049515D01*
X156837816Y-99045051D01*
X156859789Y-99029086D01*
X157009786Y-98920109D01*
X157009788Y-98920106D01*
X157009792Y-98920104D01*
X157160104Y-98769792D01*
X157160106Y-98769788D01*
X157160109Y-98769786D01*
X157285048Y-98597820D01*
X157285047Y-98597820D01*
X157285051Y-98597816D01*
X157381557Y-98408412D01*
X157447246Y-98206243D01*
X157480500Y-97996287D01*
X157480500Y-97783713D01*
X157447246Y-97573757D01*
X157381557Y-97371588D01*
X157285051Y-97182184D01*
X157285049Y-97182181D01*
X157285048Y-97182179D01*
X157160109Y-97010213D01*
X157009786Y-96859890D01*
X156837820Y-96734951D01*
X156837115Y-96734591D01*
X156829054Y-96730485D01*
X156778259Y-96682512D01*
X156761463Y-96614692D01*
X156783999Y-96548556D01*
X156829054Y-96509515D01*
X156837816Y-96505051D01*
X156859789Y-96489086D01*
X157009786Y-96380109D01*
X157009788Y-96380106D01*
X157009792Y-96380104D01*
X157160104Y-96229792D01*
X157160106Y-96229788D01*
X157160109Y-96229786D01*
X157285048Y-96057820D01*
X157285047Y-96057820D01*
X157285051Y-96057816D01*
X157381557Y-95868412D01*
X157447246Y-95666243D01*
X157480500Y-95456287D01*
X157480500Y-95243713D01*
X157447246Y-95033757D01*
X157381557Y-94831588D01*
X157285051Y-94642184D01*
X157285049Y-94642181D01*
X157285048Y-94642179D01*
X157160109Y-94470213D01*
X157009786Y-94319890D01*
X156837820Y-94194951D01*
X156837115Y-94194591D01*
X156829054Y-94190485D01*
X156778259Y-94142512D01*
X156761463Y-94074692D01*
X156783999Y-94008556D01*
X156829054Y-93969515D01*
X156837816Y-93965051D01*
X156885231Y-93930602D01*
X157009786Y-93840109D01*
X157009788Y-93840106D01*
X157009792Y-93840104D01*
X157160104Y-93689792D01*
X157160106Y-93689788D01*
X157160109Y-93689786D01*
X157285048Y-93517820D01*
X157285047Y-93517820D01*
X157285051Y-93517816D01*
X157381557Y-93328412D01*
X157447246Y-93126243D01*
X157480500Y-92916287D01*
X157480500Y-92703713D01*
X157447246Y-92493757D01*
X157381557Y-92291588D01*
X157285051Y-92102184D01*
X157285049Y-92102181D01*
X157285048Y-92102179D01*
X157160109Y-91930213D01*
X157009786Y-91779890D01*
X156837820Y-91654951D01*
X156837115Y-91654591D01*
X156829054Y-91650485D01*
X156778259Y-91602512D01*
X156761463Y-91534692D01*
X156783999Y-91468556D01*
X156829054Y-91429515D01*
X156837816Y-91425051D01*
X156968967Y-91329765D01*
X157009786Y-91300109D01*
X157009788Y-91300106D01*
X157009792Y-91300104D01*
X157160104Y-91149792D01*
X157160106Y-91149788D01*
X157160109Y-91149786D01*
X157280921Y-90983501D01*
X157285051Y-90977816D01*
X157381557Y-90788412D01*
X157447246Y-90586243D01*
X157480500Y-90376287D01*
X157480500Y-90163713D01*
X157447246Y-89953757D01*
X157381557Y-89751588D01*
X157285051Y-89562184D01*
X157285049Y-89562181D01*
X157285048Y-89562179D01*
X157160109Y-89390213D01*
X157009786Y-89239890D01*
X156837817Y-89114949D01*
X156828504Y-89110204D01*
X156777707Y-89062230D01*
X156760912Y-88994409D01*
X156783449Y-88928274D01*
X156828507Y-88889232D01*
X156837555Y-88884622D01*
X156891716Y-88845270D01*
X156891717Y-88845270D01*
X156259408Y-88212962D01*
X156322993Y-88195925D01*
X156437007Y-88130099D01*
X156530099Y-88037007D01*
X156595925Y-87922993D01*
X156612962Y-87859409D01*
X157245270Y-88491717D01*
X157245270Y-88491716D01*
X157284622Y-88437554D01*
X157381095Y-88248217D01*
X157446757Y-88046130D01*
X157446757Y-88046127D01*
X157480000Y-87836246D01*
X157480000Y-87623753D01*
X157446757Y-87413872D01*
X157446757Y-87413869D01*
X157381095Y-87211782D01*
X157284624Y-87022449D01*
X157245270Y-86968282D01*
X157245269Y-86968282D01*
X156612962Y-87600590D01*
X156595925Y-87537007D01*
X156530099Y-87422993D01*
X156437007Y-87329901D01*
X156322993Y-87264075D01*
X156259409Y-87247037D01*
X156929627Y-86576818D01*
X156990950Y-86543333D01*
X157017307Y-86540499D01*
X157027872Y-86540499D01*
X157087483Y-86534091D01*
X157222331Y-86483796D01*
X157337546Y-86397546D01*
X157423796Y-86282331D01*
X157474091Y-86147483D01*
X157480500Y-86087873D01*
X157480499Y-84292128D01*
X157474091Y-84232517D01*
X157423796Y-84097669D01*
X157423795Y-84097668D01*
X157423793Y-84097664D01*
X157337547Y-83982455D01*
X157337544Y-83982452D01*
X157222335Y-83896206D01*
X157222328Y-83896202D01*
X157087482Y-83845908D01*
X157087483Y-83845908D01*
X157027883Y-83839501D01*
X157027881Y-83839500D01*
X157027873Y-83839500D01*
X157027864Y-83839500D01*
X155232129Y-83839500D01*
X155232123Y-83839501D01*
X155172516Y-83845908D01*
X155037671Y-83896202D01*
X155037664Y-83896206D01*
X154922455Y-83982452D01*
X154922452Y-83982455D01*
X154836206Y-84097664D01*
X154836202Y-84097671D01*
X154785908Y-84232517D01*
X154779501Y-84292116D01*
X154779501Y-84292123D01*
X154779500Y-84292135D01*
X154779500Y-86087870D01*
X154779501Y-86087876D01*
X154785908Y-86147483D01*
X154836202Y-86282328D01*
X154836206Y-86282335D01*
X154922452Y-86397544D01*
X154922455Y-86397547D01*
X155037664Y-86483793D01*
X155037671Y-86483797D01*
X155062630Y-86493106D01*
X155172517Y-86534091D01*
X155232127Y-86540500D01*
X155242685Y-86540499D01*
X155309723Y-86560179D01*
X155330372Y-86576818D01*
X156000591Y-87247037D01*
X155937007Y-87264075D01*
X155822993Y-87329901D01*
X155729901Y-87422993D01*
X155664075Y-87537007D01*
X155647037Y-87600591D01*
X155014728Y-86968282D01*
X155014727Y-86968282D01*
X154975380Y-87022439D01*
X154878904Y-87211782D01*
X154813242Y-87413869D01*
X154813242Y-87413872D01*
X154780000Y-87623753D01*
X154780000Y-87836246D01*
X154813242Y-88046127D01*
X154813242Y-88046130D01*
X154878904Y-88248217D01*
X154975375Y-88437550D01*
X155014728Y-88491716D01*
X155647037Y-87859408D01*
X155664075Y-87922993D01*
X155729901Y-88037007D01*
X155822993Y-88130099D01*
X155937007Y-88195925D01*
X156000590Y-88212962D01*
X155368282Y-88845269D01*
X155368282Y-88845270D01*
X155422452Y-88884626D01*
X155422451Y-88884626D01*
X155431495Y-88889234D01*
X155482292Y-88937208D01*
X155499087Y-89005029D01*
X155476550Y-89071164D01*
X155431499Y-89110202D01*
X155422182Y-89114949D01*
X155250213Y-89239890D01*
X155099890Y-89390213D01*
X154974951Y-89562179D01*
X154878444Y-89751585D01*
X154812753Y-89953760D01*
X154798999Y-90040602D01*
X154779500Y-90163713D01*
X154779500Y-90376287D01*
X154812754Y-90586243D01*
X154870725Y-90764660D01*
X154878444Y-90788414D01*
X154974951Y-90977820D01*
X155099890Y-91149786D01*
X155250213Y-91300109D01*
X155422182Y-91425050D01*
X155430946Y-91429516D01*
X155481742Y-91477491D01*
X155498536Y-91545312D01*
X155475998Y-91611447D01*
X155430946Y-91650484D01*
X155422182Y-91654949D01*
X155250213Y-91779890D01*
X155099890Y-91930213D01*
X154974951Y-92102179D01*
X154878444Y-92291585D01*
X154812753Y-92493760D01*
X154779500Y-92703713D01*
X154779500Y-92916287D01*
X154812754Y-93126243D01*
X154816003Y-93136243D01*
X154878444Y-93328414D01*
X154974951Y-93517820D01*
X155099890Y-93689786D01*
X155250213Y-93840109D01*
X155422182Y-93965050D01*
X155430946Y-93969516D01*
X155481742Y-94017491D01*
X155498536Y-94085312D01*
X155475998Y-94151447D01*
X155430946Y-94190484D01*
X155422182Y-94194949D01*
X155250213Y-94319890D01*
X155099890Y-94470213D01*
X154974951Y-94642179D01*
X154878444Y-94831585D01*
X154812753Y-95033760D01*
X154780009Y-95240500D01*
X154779500Y-95243713D01*
X154779500Y-95456287D01*
X154812754Y-95666243D01*
X154816003Y-95676243D01*
X154878444Y-95868414D01*
X154974951Y-96057820D01*
X155099890Y-96229786D01*
X155250213Y-96380109D01*
X155422182Y-96505050D01*
X155430946Y-96509516D01*
X155481742Y-96557491D01*
X155498536Y-96625312D01*
X155475998Y-96691447D01*
X155430946Y-96730484D01*
X155422182Y-96734949D01*
X155250213Y-96859890D01*
X155099890Y-97010213D01*
X154974948Y-97182184D01*
X154974947Y-97182185D01*
X154954765Y-97221795D01*
X154906791Y-97272591D01*
X154844281Y-97289500D01*
X153446669Y-97289500D01*
X153446653Y-97289499D01*
X153439057Y-97289499D01*
X153280943Y-97289499D01*
X153173587Y-97318265D01*
X153128210Y-97330424D01*
X153128209Y-97330425D01*
X153078096Y-97359359D01*
X153078095Y-97359360D01*
X153039600Y-97381585D01*
X152991285Y-97409479D01*
X152991282Y-97409481D01*
X152879478Y-97521286D01*
X145787584Y-104613181D01*
X145726261Y-104646666D01*
X145699903Y-104649500D01*
X137050097Y-104649500D01*
X136983058Y-104629815D01*
X136962416Y-104613181D01*
X136411819Y-104062584D01*
X136378334Y-104001261D01*
X136375500Y-103974903D01*
X136375500Y-101907940D01*
X136395185Y-101840901D01*
X136411822Y-101820256D01*
X136421787Y-101810291D01*
X136421789Y-101810289D01*
X136509394Y-101679179D01*
X136569737Y-101533497D01*
X136600500Y-101378842D01*
X136600500Y-101221158D01*
X136600500Y-101221155D01*
X136600499Y-101221153D01*
X136569738Y-101066510D01*
X136569737Y-101066503D01*
X136569735Y-101066498D01*
X136509397Y-100920827D01*
X136509390Y-100920814D01*
X136421789Y-100789711D01*
X136421786Y-100789707D01*
X136310292Y-100678213D01*
X136310288Y-100678210D01*
X136179185Y-100590609D01*
X136179172Y-100590602D01*
X136033501Y-100530264D01*
X136033489Y-100530261D01*
X135878845Y-100499500D01*
X135878842Y-100499500D01*
X135721158Y-100499500D01*
X135721155Y-100499500D01*
X135566510Y-100530261D01*
X135566498Y-100530264D01*
X135420827Y-100590602D01*
X135420814Y-100590609D01*
X135289711Y-100678210D01*
X135289707Y-100678213D01*
X135178213Y-100789707D01*
X135178210Y-100789711D01*
X135090609Y-100920814D01*
X135090602Y-100920827D01*
X135030264Y-101066498D01*
X135030261Y-101066510D01*
X134999500Y-101221153D01*
X121750500Y-101221153D01*
X121750500Y-97579054D01*
X122399498Y-97579054D01*
X122440423Y-97731785D01*
X122452672Y-97753000D01*
X122452673Y-97753003D01*
X122519475Y-97868709D01*
X122519481Y-97868717D01*
X122638349Y-97987585D01*
X122638355Y-97987590D01*
X124015139Y-99364374D01*
X124015149Y-99364385D01*
X124019479Y-99368715D01*
X124019480Y-99368716D01*
X124131284Y-99480520D01*
X124131286Y-99480521D01*
X124131290Y-99480524D01*
X124251988Y-99550208D01*
X124268216Y-99559577D01*
X124380019Y-99589534D01*
X124420942Y-99600500D01*
X124420943Y-99600500D01*
X128221831Y-99600500D01*
X128221847Y-99600501D01*
X128229443Y-99600501D01*
X128387554Y-99600501D01*
X128387557Y-99600501D01*
X128540285Y-99559577D01*
X128590404Y-99530639D01*
X128677216Y-99480520D01*
X128789020Y-99368716D01*
X128789020Y-99368714D01*
X128799228Y-99358507D01*
X128799229Y-99358504D01*
X130370662Y-97787072D01*
X130431983Y-97753589D01*
X130434150Y-97753138D01*
X130492085Y-97741613D01*
X130589497Y-97722237D01*
X130735179Y-97661894D01*
X130866289Y-97574289D01*
X130977789Y-97462789D01*
X131065394Y-97331679D01*
X131125737Y-97185997D01*
X131125737Y-97185994D01*
X131127503Y-97180175D01*
X131128802Y-97180569D01*
X131157973Y-97124787D01*
X131159476Y-97123257D01*
X132808162Y-95474572D01*
X132869483Y-95441089D01*
X132871650Y-95440638D01*
X132929585Y-95429113D01*
X133026997Y-95409737D01*
X133172679Y-95349394D01*
X133172685Y-95349390D01*
X133304375Y-95261398D01*
X133371053Y-95240520D01*
X133373266Y-95240500D01*
X133773331Y-95240500D01*
X133773347Y-95240501D01*
X133780943Y-95240501D01*
X133939054Y-95240501D01*
X133939057Y-95240501D01*
X134091785Y-95199577D01*
X134141904Y-95170639D01*
X134228716Y-95120520D01*
X134340520Y-95008716D01*
X134340520Y-95008714D01*
X134350728Y-94998507D01*
X134350730Y-94998504D01*
X135108506Y-94240728D01*
X135108511Y-94240724D01*
X135118714Y-94230520D01*
X135118716Y-94230520D01*
X135230520Y-94118716D01*
X135290689Y-94014499D01*
X135309577Y-93981785D01*
X135350500Y-93829057D01*
X135350500Y-93670943D01*
X135350500Y-91329765D01*
X135370185Y-91262726D01*
X135371398Y-91260874D01*
X135459390Y-91129185D01*
X135459390Y-91129184D01*
X135459394Y-91129179D01*
X135519737Y-90983497D01*
X135539113Y-90886085D01*
X135550638Y-90828150D01*
X135583023Y-90766239D01*
X135584519Y-90764715D01*
X138608506Y-87740727D01*
X138608511Y-87740724D01*
X138618714Y-87730520D01*
X138618716Y-87730520D01*
X138730520Y-87618716D01*
X138809577Y-87481784D01*
X138850500Y-87329057D01*
X138850500Y-86579765D01*
X138870185Y-86512726D01*
X138871398Y-86510874D01*
X138959390Y-86379185D01*
X138959390Y-86379184D01*
X138959394Y-86379179D01*
X139019737Y-86233497D01*
X139050500Y-86078842D01*
X139050500Y-85921158D01*
X139050500Y-85921155D01*
X139050499Y-85921153D01*
X139019738Y-85766510D01*
X139019737Y-85766503D01*
X139019735Y-85766498D01*
X138959397Y-85620827D01*
X138959390Y-85620814D01*
X138871789Y-85489711D01*
X138871786Y-85489707D01*
X138760292Y-85378213D01*
X138760288Y-85378210D01*
X138629185Y-85290609D01*
X138629172Y-85290602D01*
X138483501Y-85230264D01*
X138483489Y-85230261D01*
X138328845Y-85199500D01*
X138328842Y-85199500D01*
X138171158Y-85199500D01*
X138171155Y-85199500D01*
X138016510Y-85230261D01*
X138016498Y-85230264D01*
X137870827Y-85290602D01*
X137870814Y-85290609D01*
X137739711Y-85378210D01*
X137739707Y-85378213D01*
X137628213Y-85489707D01*
X137628210Y-85489711D01*
X137540609Y-85620814D01*
X137540602Y-85620827D01*
X137480264Y-85766498D01*
X137480261Y-85766510D01*
X137449500Y-85921153D01*
X137449500Y-86078846D01*
X137480261Y-86233489D01*
X137480264Y-86233501D01*
X137540602Y-86379172D01*
X137540609Y-86379185D01*
X137628602Y-86510874D01*
X137649480Y-86577551D01*
X137649500Y-86579765D01*
X137649500Y-86949903D01*
X137629815Y-87016942D01*
X137613181Y-87037584D01*
X134735339Y-89915425D01*
X134674016Y-89948910D01*
X134671850Y-89949361D01*
X134516508Y-89980261D01*
X134516498Y-89980264D01*
X134370827Y-90040602D01*
X134370814Y-90040609D01*
X134239711Y-90128210D01*
X134239707Y-90128213D01*
X134128213Y-90239707D01*
X134128210Y-90239711D01*
X134040609Y-90370814D01*
X134040602Y-90370827D01*
X133980264Y-90516498D01*
X133980261Y-90516510D01*
X133949500Y-90671153D01*
X133949500Y-90828846D01*
X133980261Y-90983489D01*
X133980264Y-90983501D01*
X134040602Y-91129172D01*
X134040609Y-91129185D01*
X134128602Y-91260874D01*
X134149480Y-91327551D01*
X134149500Y-91329765D01*
X134149500Y-93449903D01*
X134129815Y-93516942D01*
X134113181Y-93537584D01*
X133647584Y-94003181D01*
X133620656Y-94017884D01*
X133594838Y-94034477D01*
X133588637Y-94035368D01*
X133586261Y-94036666D01*
X133559903Y-94039500D01*
X133373266Y-94039500D01*
X133306227Y-94019815D01*
X133304375Y-94018602D01*
X133172685Y-93930609D01*
X133172672Y-93930602D01*
X133027001Y-93870264D01*
X133026989Y-93870261D01*
X132872345Y-93839500D01*
X132872342Y-93839500D01*
X132714658Y-93839500D01*
X132714655Y-93839500D01*
X132560010Y-93870261D01*
X132559998Y-93870264D01*
X132414327Y-93930602D01*
X132414314Y-93930609D01*
X132283211Y-94018210D01*
X132283207Y-94018213D01*
X132171713Y-94129707D01*
X132171710Y-94129711D01*
X132084109Y-94260814D01*
X132084102Y-94260827D01*
X132023764Y-94406498D01*
X132023761Y-94406508D01*
X131992861Y-94561850D01*
X131960476Y-94623761D01*
X131958925Y-94625339D01*
X130468584Y-96115681D01*
X130407261Y-96149166D01*
X130380903Y-96152000D01*
X130277155Y-96152000D01*
X130122510Y-96182761D01*
X130122498Y-96182764D01*
X129976827Y-96243102D01*
X129976814Y-96243109D01*
X129845711Y-96330710D01*
X129845707Y-96330713D01*
X129734213Y-96442207D01*
X129734210Y-96442211D01*
X129646609Y-96573314D01*
X129646602Y-96573327D01*
X129586264Y-96718998D01*
X129586261Y-96719008D01*
X129555361Y-96874350D01*
X129522976Y-96936261D01*
X129521425Y-96937839D01*
X128096084Y-98363181D01*
X128034761Y-98396666D01*
X128008403Y-98399500D01*
X124800097Y-98399500D01*
X124733058Y-98379815D01*
X124712416Y-98363181D01*
X123636819Y-97287584D01*
X123603334Y-97226261D01*
X123600500Y-97199903D01*
X123600500Y-89583597D01*
X123620185Y-89516558D01*
X123636819Y-89495916D01*
X124362631Y-88770104D01*
X125095662Y-88037072D01*
X125156983Y-88003589D01*
X125159150Y-88003138D01*
X125217085Y-87991613D01*
X125314497Y-87972237D01*
X125460179Y-87911894D01*
X125591289Y-87824289D01*
X125702789Y-87712789D01*
X125790394Y-87581679D01*
X125850737Y-87435997D01*
X125881500Y-87281342D01*
X125881500Y-87123658D01*
X125881500Y-87123655D01*
X125881499Y-87123653D01*
X125850737Y-86969003D01*
X125805673Y-86860208D01*
X125790397Y-86823327D01*
X125790390Y-86823314D01*
X125702789Y-86692211D01*
X125702786Y-86692207D01*
X125591292Y-86580713D01*
X125591288Y-86580710D01*
X125460185Y-86493109D01*
X125460172Y-86493102D01*
X125314501Y-86432764D01*
X125314489Y-86432761D01*
X125159845Y-86402000D01*
X125159842Y-86402000D01*
X125002158Y-86402000D01*
X125002155Y-86402000D01*
X124847510Y-86432761D01*
X124847498Y-86432764D01*
X124701827Y-86493102D01*
X124701814Y-86493109D01*
X124570711Y-86580710D01*
X124570707Y-86580713D01*
X124459213Y-86692207D01*
X124459210Y-86692211D01*
X124371609Y-86823314D01*
X124371602Y-86823327D01*
X124311264Y-86968998D01*
X124311261Y-86969008D01*
X124280361Y-87124350D01*
X124247976Y-87186261D01*
X124246425Y-87187839D01*
X122519481Y-88914782D01*
X122519479Y-88914785D01*
X122505755Y-88938556D01*
X122475156Y-88991557D01*
X122469361Y-89001594D01*
X122469359Y-89001596D01*
X122440425Y-89051709D01*
X122440424Y-89051710D01*
X122434850Y-89072512D01*
X122399499Y-89204443D01*
X122399499Y-89362557D01*
X122399499Y-89362559D01*
X122399500Y-89372553D01*
X122399500Y-97413330D01*
X122399499Y-97413348D01*
X122399499Y-97579054D01*
X122399498Y-97579054D01*
X121750500Y-97579054D01*
X121750500Y-84302135D01*
X139529500Y-84302135D01*
X139529500Y-86097870D01*
X139529501Y-86097876D01*
X139535908Y-86157483D01*
X139586202Y-86292328D01*
X139586206Y-86292335D01*
X139672452Y-86407544D01*
X139672455Y-86407547D01*
X139787664Y-86493793D01*
X139787671Y-86493797D01*
X139919082Y-86542810D01*
X139975016Y-86584681D01*
X139999433Y-86650145D01*
X139984582Y-86718418D01*
X139963431Y-86746673D01*
X139849889Y-86860215D01*
X139724951Y-87032179D01*
X139628444Y-87221585D01*
X139562753Y-87423760D01*
X139529500Y-87633713D01*
X139529500Y-87846286D01*
X139561151Y-88046127D01*
X139562754Y-88056243D01*
X139625130Y-88248217D01*
X139628444Y-88258414D01*
X139724951Y-88447820D01*
X139849890Y-88619786D01*
X140000213Y-88770109D01*
X140172182Y-88895050D01*
X140180946Y-88899516D01*
X140231742Y-88947491D01*
X140248536Y-89015312D01*
X140225998Y-89081447D01*
X140180946Y-89120484D01*
X140172182Y-89124949D01*
X140000213Y-89249890D01*
X139849890Y-89400213D01*
X139724951Y-89572179D01*
X139628444Y-89761585D01*
X139562753Y-89963760D01*
X139529500Y-90173713D01*
X139529500Y-90386286D01*
X139561169Y-90586239D01*
X139562754Y-90596243D01*
X139625194Y-90788414D01*
X139628444Y-90798414D01*
X139724951Y-90987820D01*
X139849890Y-91159786D01*
X140000213Y-91310109D01*
X140172182Y-91435050D01*
X140180946Y-91439516D01*
X140231742Y-91487491D01*
X140248536Y-91555312D01*
X140225998Y-91621447D01*
X140180946Y-91660484D01*
X140172182Y-91664949D01*
X140000213Y-91789890D01*
X139849890Y-91940213D01*
X139724951Y-92112179D01*
X139628444Y-92301585D01*
X139562753Y-92503760D01*
X139529500Y-92713713D01*
X139529500Y-92926286D01*
X139561169Y-93126239D01*
X139562754Y-93136243D01*
X139625194Y-93328414D01*
X139628444Y-93338414D01*
X139724951Y-93527820D01*
X139849890Y-93699786D01*
X140000213Y-93850109D01*
X140172182Y-93975050D01*
X140180946Y-93979516D01*
X140231742Y-94027491D01*
X140248536Y-94095312D01*
X140225998Y-94161447D01*
X140180946Y-94200484D01*
X140172182Y-94204949D01*
X140000213Y-94329890D01*
X139849890Y-94480213D01*
X139724951Y-94652179D01*
X139628444Y-94841585D01*
X139562753Y-95043760D01*
X139529500Y-95253713D01*
X139529500Y-95466286D01*
X139561169Y-95666239D01*
X139562754Y-95676243D01*
X139625194Y-95868414D01*
X139628444Y-95878414D01*
X139724951Y-96067820D01*
X139849890Y-96239786D01*
X140000213Y-96390109D01*
X140172182Y-96515050D01*
X140180946Y-96519516D01*
X140231742Y-96567491D01*
X140248536Y-96635312D01*
X140225998Y-96701447D01*
X140180946Y-96740484D01*
X140172182Y-96744949D01*
X140000213Y-96869890D01*
X139849890Y-97020213D01*
X139724951Y-97192179D01*
X139628444Y-97381585D01*
X139562753Y-97583760D01*
X139529500Y-97793713D01*
X139529500Y-98006286D01*
X139561169Y-98206239D01*
X139562754Y-98216243D01*
X139625194Y-98408414D01*
X139628444Y-98418414D01*
X139724951Y-98607820D01*
X139849890Y-98779786D01*
X140000213Y-98930109D01*
X140172182Y-99055050D01*
X140180946Y-99059516D01*
X140231742Y-99107491D01*
X140248536Y-99175312D01*
X140225998Y-99241447D01*
X140180946Y-99280484D01*
X140172182Y-99284949D01*
X140000213Y-99409890D01*
X139849890Y-99560213D01*
X139724951Y-99732179D01*
X139628444Y-99921585D01*
X139562753Y-100123760D01*
X139531084Y-100323713D01*
X139529500Y-100333713D01*
X139529500Y-100546287D01*
X139536520Y-100590609D01*
X139561169Y-100746239D01*
X139562754Y-100756243D01*
X139625194Y-100948414D01*
X139628444Y-100958414D01*
X139724951Y-101147820D01*
X139849890Y-101319786D01*
X140000213Y-101470109D01*
X140172179Y-101595048D01*
X140172181Y-101595049D01*
X140172184Y-101595051D01*
X140361588Y-101691557D01*
X140563757Y-101757246D01*
X140773713Y-101790500D01*
X140773714Y-101790500D01*
X140986286Y-101790500D01*
X140986287Y-101790500D01*
X141196243Y-101757246D01*
X141398412Y-101691557D01*
X141587816Y-101595051D01*
X141672533Y-101533501D01*
X141759786Y-101470109D01*
X141759788Y-101470106D01*
X141759792Y-101470104D01*
X141910104Y-101319792D01*
X141910106Y-101319788D01*
X141910109Y-101319786D01*
X142035048Y-101147820D01*
X142035047Y-101147820D01*
X142035051Y-101147816D01*
X142131557Y-100958412D01*
X142197246Y-100756243D01*
X142230500Y-100546287D01*
X142230500Y-100333713D01*
X142197246Y-100123757D01*
X142131557Y-99921588D01*
X142035051Y-99732184D01*
X142035049Y-99732181D01*
X142035048Y-99732179D01*
X141910109Y-99560213D01*
X141759786Y-99409890D01*
X141587820Y-99284951D01*
X141587115Y-99284591D01*
X141579054Y-99280485D01*
X141528259Y-99232512D01*
X141511463Y-99164692D01*
X141533999Y-99098556D01*
X141579054Y-99059515D01*
X141587816Y-99055051D01*
X141609789Y-99039086D01*
X141759786Y-98930109D01*
X141759788Y-98930106D01*
X141759792Y-98930104D01*
X141910104Y-98779792D01*
X141910106Y-98779788D01*
X141910109Y-98779786D01*
X142035048Y-98607820D01*
X142035047Y-98607820D01*
X142035051Y-98607816D01*
X142131557Y-98418412D01*
X142197246Y-98216243D01*
X142230500Y-98006287D01*
X142230500Y-97793713D01*
X142197246Y-97583757D01*
X142131557Y-97381588D01*
X142035051Y-97192184D01*
X142035049Y-97192181D01*
X142035048Y-97192179D01*
X141910109Y-97020213D01*
X141759786Y-96869890D01*
X141587820Y-96744951D01*
X141587115Y-96744591D01*
X141579054Y-96740485D01*
X141528259Y-96692512D01*
X141511463Y-96624692D01*
X141533999Y-96558556D01*
X141579054Y-96519515D01*
X141587816Y-96515051D01*
X141609789Y-96499086D01*
X141759786Y-96390109D01*
X141759788Y-96390106D01*
X141759792Y-96390104D01*
X141910104Y-96239792D01*
X141910106Y-96239788D01*
X141910109Y-96239786D01*
X142035048Y-96067820D01*
X142035047Y-96067820D01*
X142035051Y-96067816D01*
X142131557Y-95878412D01*
X142197246Y-95676243D01*
X142230500Y-95466287D01*
X142230500Y-95253713D01*
X142197246Y-95043757D01*
X142131557Y-94841588D01*
X142035051Y-94652184D01*
X142035049Y-94652181D01*
X142035048Y-94652179D01*
X141910109Y-94480213D01*
X141759786Y-94329890D01*
X141587820Y-94204951D01*
X141587115Y-94204591D01*
X141579054Y-94200485D01*
X141528259Y-94152512D01*
X141511463Y-94084692D01*
X141533999Y-94018556D01*
X141579054Y-93979515D01*
X141587816Y-93975051D01*
X141648995Y-93930602D01*
X141759786Y-93850109D01*
X141759788Y-93850106D01*
X141759792Y-93850104D01*
X141910104Y-93699792D01*
X141910106Y-93699788D01*
X141910109Y-93699786D01*
X142035048Y-93527820D01*
X142035047Y-93527820D01*
X142035051Y-93527816D01*
X142131557Y-93338412D01*
X142197246Y-93136243D01*
X142230500Y-92926287D01*
X142230500Y-92713713D01*
X142197246Y-92503757D01*
X142131557Y-92301588D01*
X142035051Y-92112184D01*
X142035049Y-92112181D01*
X142035048Y-92112179D01*
X141910109Y-91940213D01*
X141759786Y-91789890D01*
X141587820Y-91664951D01*
X141587115Y-91664591D01*
X141579054Y-91660485D01*
X141528259Y-91612512D01*
X141511463Y-91544692D01*
X141533999Y-91478556D01*
X141579054Y-91439515D01*
X141587816Y-91435051D01*
X141732731Y-91329765D01*
X141759786Y-91310109D01*
X141759788Y-91310106D01*
X141759792Y-91310104D01*
X141910104Y-91159792D01*
X141910106Y-91159788D01*
X141910109Y-91159786D01*
X142035048Y-90987820D01*
X142035047Y-90987820D01*
X142035051Y-90987816D01*
X142131557Y-90798412D01*
X142197246Y-90596243D01*
X142230500Y-90386287D01*
X142230500Y-90173713D01*
X142197246Y-89963757D01*
X142131557Y-89761588D01*
X142035051Y-89572184D01*
X142035049Y-89572181D01*
X142035048Y-89572179D01*
X141910109Y-89400213D01*
X141759786Y-89249890D01*
X141587820Y-89124951D01*
X141587115Y-89124591D01*
X141579054Y-89120485D01*
X141528259Y-89072512D01*
X141511463Y-89004692D01*
X141533999Y-88938556D01*
X141579054Y-88899515D01*
X141587816Y-88895051D01*
X141714545Y-88802978D01*
X141759786Y-88770109D01*
X141759788Y-88770106D01*
X141759792Y-88770104D01*
X141910104Y-88619792D01*
X141910106Y-88619788D01*
X141910109Y-88619786D01*
X142035048Y-88447820D01*
X142035047Y-88447820D01*
X142035051Y-88447816D01*
X142131557Y-88258412D01*
X142197246Y-88056243D01*
X142230500Y-87846287D01*
X142230500Y-87633713D01*
X142197246Y-87423757D01*
X142131557Y-87221588D01*
X142035051Y-87032184D01*
X142035049Y-87032181D01*
X142035048Y-87032179D01*
X141910109Y-86860213D01*
X141796569Y-86746673D01*
X141763084Y-86685350D01*
X141768068Y-86615658D01*
X141809940Y-86559725D01*
X141840915Y-86542810D01*
X141972331Y-86493796D01*
X142087546Y-86407546D01*
X142173796Y-86292331D01*
X142224091Y-86157483D01*
X142230500Y-86097873D01*
X142230499Y-84302128D01*
X142229423Y-84292123D01*
X142228562Y-84284116D01*
X142224091Y-84242517D01*
X142173796Y-84107669D01*
X142173795Y-84107668D01*
X142173793Y-84107664D01*
X142087547Y-83992455D01*
X142087544Y-83992452D01*
X141972335Y-83906206D01*
X141972328Y-83906202D01*
X141837482Y-83855908D01*
X141837483Y-83855908D01*
X141777883Y-83849501D01*
X141777881Y-83849500D01*
X141777873Y-83849500D01*
X141777864Y-83849500D01*
X139982129Y-83849500D01*
X139982123Y-83849501D01*
X139922516Y-83855908D01*
X139787671Y-83906202D01*
X139787664Y-83906206D01*
X139672455Y-83992452D01*
X139672452Y-83992455D01*
X139586206Y-84107664D01*
X139586202Y-84107671D01*
X139535908Y-84242517D01*
X139529501Y-84302116D01*
X139529500Y-84302135D01*
X121750500Y-84302135D01*
X121750500Y-83004427D01*
X121750816Y-82995581D01*
X121765130Y-82795443D01*
X121765131Y-82795434D01*
X121767646Y-82777938D01*
X121809356Y-82586200D01*
X121814335Y-82569242D01*
X121882911Y-82385382D01*
X121890251Y-82369310D01*
X121984294Y-82197083D01*
X121993850Y-82182214D01*
X122111443Y-82025128D01*
X122123017Y-82011771D01*
X122261771Y-81873017D01*
X122275128Y-81861443D01*
X122432214Y-81743850D01*
X122447083Y-81734294D01*
X122619310Y-81640251D01*
X122635382Y-81632911D01*
X122819242Y-81564335D01*
X122836200Y-81559356D01*
X123027938Y-81517646D01*
X123045436Y-81515130D01*
X123245582Y-81500816D01*
X123254428Y-81500500D01*
X123315892Y-81500500D01*
X157434108Y-81500500D01*
X157495572Y-81500500D01*
X157504418Y-81500816D01*
G37*
G04 #@! TD.AperFunction*
G04 #@! TD*
M02*
