G04 #@! TF.GenerationSoftware,KiCad,Pcbnew,10.0.3*
G04 #@! TF.CreationDate,2026-07-16T12:03:05-04:00*
G04 #@! TF.ProjectId,SEEEDXIAOESP32C6_Accelerometer,53454545-4458-4494-914f-455350333243,rev?*
G04 #@! TF.SameCoordinates,Original*
G04 #@! TF.FileFunction,Legend,Top*
G04 #@! TF.FilePolarity,Positive*
%FSLAX46Y46*%
G04 Gerber Fmt 4.6, Leading zero omitted, Abs format (unit mm)*
G04 Created by KiCad (PCBNEW 10.0.3) date 2026-07-16 12:03:05*
%MOMM*%
%LPD*%
G01*
G04 APERTURE LIST*
%ADD10C,0.100000*%
%ADD11C,0.150000*%
%ADD12C,0.250000*%
%ADD13C,0.000000*%
%ADD14C,0.120000*%
%ADD15C,0.152400*%
G04 APERTURE END LIST*
D10*
X147600000Y-84550000D02*
X148350000Y-83800000D01*
X148350000Y-83800000D02*
X149100000Y-84550000D01*
X149100000Y-84550000D02*
X147600000Y-84550000D01*
D11*
X144903571Y-85004819D02*
X144903571Y-85814342D01*
X144903571Y-85814342D02*
X144951190Y-85909580D01*
X144951190Y-85909580D02*
X144998809Y-85957200D01*
X144998809Y-85957200D02*
X145094047Y-86004819D01*
X145094047Y-86004819D02*
X145284523Y-86004819D01*
X145284523Y-86004819D02*
X145379761Y-85957200D01*
X145379761Y-85957200D02*
X145427380Y-85909580D01*
X145427380Y-85909580D02*
X145474999Y-85814342D01*
X145474999Y-85814342D02*
X145474999Y-85004819D01*
X145903571Y-85957200D02*
X146046428Y-86004819D01*
X146046428Y-86004819D02*
X146284523Y-86004819D01*
X146284523Y-86004819D02*
X146379761Y-85957200D01*
X146379761Y-85957200D02*
X146427380Y-85909580D01*
X146427380Y-85909580D02*
X146474999Y-85814342D01*
X146474999Y-85814342D02*
X146474999Y-85719104D01*
X146474999Y-85719104D02*
X146427380Y-85623866D01*
X146427380Y-85623866D02*
X146379761Y-85576247D01*
X146379761Y-85576247D02*
X146284523Y-85528628D01*
X146284523Y-85528628D02*
X146094047Y-85481009D01*
X146094047Y-85481009D02*
X145998809Y-85433390D01*
X145998809Y-85433390D02*
X145951190Y-85385771D01*
X145951190Y-85385771D02*
X145903571Y-85290533D01*
X145903571Y-85290533D02*
X145903571Y-85195295D01*
X145903571Y-85195295D02*
X145951190Y-85100057D01*
X145951190Y-85100057D02*
X145998809Y-85052438D01*
X145998809Y-85052438D02*
X146094047Y-85004819D01*
X146094047Y-85004819D02*
X146332142Y-85004819D01*
X146332142Y-85004819D02*
X146474999Y-85052438D01*
X147236904Y-85481009D02*
X147379761Y-85528628D01*
X147379761Y-85528628D02*
X147427380Y-85576247D01*
X147427380Y-85576247D02*
X147474999Y-85671485D01*
X147474999Y-85671485D02*
X147474999Y-85814342D01*
X147474999Y-85814342D02*
X147427380Y-85909580D01*
X147427380Y-85909580D02*
X147379761Y-85957200D01*
X147379761Y-85957200D02*
X147284523Y-86004819D01*
X147284523Y-86004819D02*
X146903571Y-86004819D01*
X146903571Y-86004819D02*
X146903571Y-85004819D01*
X146903571Y-85004819D02*
X147236904Y-85004819D01*
X147236904Y-85004819D02*
X147332142Y-85052438D01*
X147332142Y-85052438D02*
X147379761Y-85100057D01*
X147379761Y-85100057D02*
X147427380Y-85195295D01*
X147427380Y-85195295D02*
X147427380Y-85290533D01*
X147427380Y-85290533D02*
X147379761Y-85385771D01*
X147379761Y-85385771D02*
X147332142Y-85433390D01*
X147332142Y-85433390D02*
X147236904Y-85481009D01*
X147236904Y-85481009D02*
X146903571Y-85481009D01*
X148665476Y-86004819D02*
X148665476Y-85004819D01*
X148665476Y-85481009D02*
X149236904Y-85481009D01*
X149236904Y-86004819D02*
X149236904Y-85004819D01*
X149713095Y-85481009D02*
X150046428Y-85481009D01*
X150189285Y-86004819D02*
X149713095Y-86004819D01*
X149713095Y-86004819D02*
X149713095Y-85004819D01*
X149713095Y-85004819D02*
X150189285Y-85004819D01*
X151189285Y-86004819D02*
X150855952Y-85528628D01*
X150617857Y-86004819D02*
X150617857Y-85004819D01*
X150617857Y-85004819D02*
X150998809Y-85004819D01*
X150998809Y-85004819D02*
X151094047Y-85052438D01*
X151094047Y-85052438D02*
X151141666Y-85100057D01*
X151141666Y-85100057D02*
X151189285Y-85195295D01*
X151189285Y-85195295D02*
X151189285Y-85338152D01*
X151189285Y-85338152D02*
X151141666Y-85433390D01*
X151141666Y-85433390D02*
X151094047Y-85481009D01*
X151094047Y-85481009D02*
X150998809Y-85528628D01*
X150998809Y-85528628D02*
X150617857Y-85528628D01*
X151617857Y-85481009D02*
X151951190Y-85481009D01*
X152094047Y-86004819D02*
X151617857Y-86004819D01*
X151617857Y-86004819D02*
X151617857Y-85004819D01*
X151617857Y-85004819D02*
X152094047Y-85004819D01*
D12*
X125834524Y-83417000D02*
X125977381Y-83464619D01*
X125977381Y-83464619D02*
X126215476Y-83464619D01*
X126215476Y-83464619D02*
X126310714Y-83417000D01*
X126310714Y-83417000D02*
X126358333Y-83369380D01*
X126358333Y-83369380D02*
X126405952Y-83274142D01*
X126405952Y-83274142D02*
X126405952Y-83178904D01*
X126405952Y-83178904D02*
X126358333Y-83083666D01*
X126358333Y-83083666D02*
X126310714Y-83036047D01*
X126310714Y-83036047D02*
X126215476Y-82988428D01*
X126215476Y-82988428D02*
X126025000Y-82940809D01*
X126025000Y-82940809D02*
X125929762Y-82893190D01*
X125929762Y-82893190D02*
X125882143Y-82845571D01*
X125882143Y-82845571D02*
X125834524Y-82750333D01*
X125834524Y-82750333D02*
X125834524Y-82655095D01*
X125834524Y-82655095D02*
X125882143Y-82559857D01*
X125882143Y-82559857D02*
X125929762Y-82512238D01*
X125929762Y-82512238D02*
X126025000Y-82464619D01*
X126025000Y-82464619D02*
X126263095Y-82464619D01*
X126263095Y-82464619D02*
X126405952Y-82512238D01*
X126834524Y-82940809D02*
X127167857Y-82940809D01*
X127310714Y-83464619D02*
X126834524Y-83464619D01*
X126834524Y-83464619D02*
X126834524Y-82464619D01*
X126834524Y-82464619D02*
X127310714Y-82464619D01*
X127739286Y-82940809D02*
X128072619Y-82940809D01*
X128215476Y-83464619D02*
X127739286Y-83464619D01*
X127739286Y-83464619D02*
X127739286Y-82464619D01*
X127739286Y-82464619D02*
X128215476Y-82464619D01*
X128644048Y-82940809D02*
X128977381Y-82940809D01*
X129120238Y-83464619D02*
X128644048Y-83464619D01*
X128644048Y-83464619D02*
X128644048Y-82464619D01*
X128644048Y-82464619D02*
X129120238Y-82464619D01*
X129548810Y-83464619D02*
X129548810Y-82464619D01*
X129548810Y-82464619D02*
X129786905Y-82464619D01*
X129786905Y-82464619D02*
X129929762Y-82512238D01*
X129929762Y-82512238D02*
X130025000Y-82607476D01*
X130025000Y-82607476D02*
X130072619Y-82702714D01*
X130072619Y-82702714D02*
X130120238Y-82893190D01*
X130120238Y-82893190D02*
X130120238Y-83036047D01*
X130120238Y-83036047D02*
X130072619Y-83226523D01*
X130072619Y-83226523D02*
X130025000Y-83321761D01*
X130025000Y-83321761D02*
X129929762Y-83417000D01*
X129929762Y-83417000D02*
X129786905Y-83464619D01*
X129786905Y-83464619D02*
X129548810Y-83464619D01*
X131215477Y-82464619D02*
X131882143Y-83464619D01*
X131882143Y-82464619D02*
X131215477Y-83464619D01*
X132263096Y-83464619D02*
X132263096Y-82464619D01*
X132691667Y-83178904D02*
X133167857Y-83178904D01*
X132596429Y-83464619D02*
X132929762Y-82464619D01*
X132929762Y-82464619D02*
X133263095Y-83464619D01*
X133786905Y-82464619D02*
X133977381Y-82464619D01*
X133977381Y-82464619D02*
X134072619Y-82512238D01*
X134072619Y-82512238D02*
X134167857Y-82607476D01*
X134167857Y-82607476D02*
X134215476Y-82797952D01*
X134215476Y-82797952D02*
X134215476Y-83131285D01*
X134215476Y-83131285D02*
X134167857Y-83321761D01*
X134167857Y-83321761D02*
X134072619Y-83417000D01*
X134072619Y-83417000D02*
X133977381Y-83464619D01*
X133977381Y-83464619D02*
X133786905Y-83464619D01*
X133786905Y-83464619D02*
X133691667Y-83417000D01*
X133691667Y-83417000D02*
X133596429Y-83321761D01*
X133596429Y-83321761D02*
X133548810Y-83131285D01*
X133548810Y-83131285D02*
X133548810Y-82797952D01*
X133548810Y-82797952D02*
X133596429Y-82607476D01*
X133596429Y-82607476D02*
X133691667Y-82512238D01*
X133691667Y-82512238D02*
X133786905Y-82464619D01*
X126525000Y-84690809D02*
X126858333Y-84690809D01*
X127001190Y-85214619D02*
X126525000Y-85214619D01*
X126525000Y-85214619D02*
X126525000Y-84214619D01*
X126525000Y-84214619D02*
X127001190Y-84214619D01*
X127382143Y-85167000D02*
X127525000Y-85214619D01*
X127525000Y-85214619D02*
X127763095Y-85214619D01*
X127763095Y-85214619D02*
X127858333Y-85167000D01*
X127858333Y-85167000D02*
X127905952Y-85119380D01*
X127905952Y-85119380D02*
X127953571Y-85024142D01*
X127953571Y-85024142D02*
X127953571Y-84928904D01*
X127953571Y-84928904D02*
X127905952Y-84833666D01*
X127905952Y-84833666D02*
X127858333Y-84786047D01*
X127858333Y-84786047D02*
X127763095Y-84738428D01*
X127763095Y-84738428D02*
X127572619Y-84690809D01*
X127572619Y-84690809D02*
X127477381Y-84643190D01*
X127477381Y-84643190D02*
X127429762Y-84595571D01*
X127429762Y-84595571D02*
X127382143Y-84500333D01*
X127382143Y-84500333D02*
X127382143Y-84405095D01*
X127382143Y-84405095D02*
X127429762Y-84309857D01*
X127429762Y-84309857D02*
X127477381Y-84262238D01*
X127477381Y-84262238D02*
X127572619Y-84214619D01*
X127572619Y-84214619D02*
X127810714Y-84214619D01*
X127810714Y-84214619D02*
X127953571Y-84262238D01*
X128382143Y-85214619D02*
X128382143Y-84214619D01*
X128382143Y-84214619D02*
X128763095Y-84214619D01*
X128763095Y-84214619D02*
X128858333Y-84262238D01*
X128858333Y-84262238D02*
X128905952Y-84309857D01*
X128905952Y-84309857D02*
X128953571Y-84405095D01*
X128953571Y-84405095D02*
X128953571Y-84547952D01*
X128953571Y-84547952D02*
X128905952Y-84643190D01*
X128905952Y-84643190D02*
X128858333Y-84690809D01*
X128858333Y-84690809D02*
X128763095Y-84738428D01*
X128763095Y-84738428D02*
X128382143Y-84738428D01*
X129286905Y-84214619D02*
X129905952Y-84214619D01*
X129905952Y-84214619D02*
X129572619Y-84595571D01*
X129572619Y-84595571D02*
X129715476Y-84595571D01*
X129715476Y-84595571D02*
X129810714Y-84643190D01*
X129810714Y-84643190D02*
X129858333Y-84690809D01*
X129858333Y-84690809D02*
X129905952Y-84786047D01*
X129905952Y-84786047D02*
X129905952Y-85024142D01*
X129905952Y-85024142D02*
X129858333Y-85119380D01*
X129858333Y-85119380D02*
X129810714Y-85167000D01*
X129810714Y-85167000D02*
X129715476Y-85214619D01*
X129715476Y-85214619D02*
X129429762Y-85214619D01*
X129429762Y-85214619D02*
X129334524Y-85167000D01*
X129334524Y-85167000D02*
X129286905Y-85119380D01*
X130286905Y-84309857D02*
X130334524Y-84262238D01*
X130334524Y-84262238D02*
X130429762Y-84214619D01*
X130429762Y-84214619D02*
X130667857Y-84214619D01*
X130667857Y-84214619D02*
X130763095Y-84262238D01*
X130763095Y-84262238D02*
X130810714Y-84309857D01*
X130810714Y-84309857D02*
X130858333Y-84405095D01*
X130858333Y-84405095D02*
X130858333Y-84500333D01*
X130858333Y-84500333D02*
X130810714Y-84643190D01*
X130810714Y-84643190D02*
X130239286Y-85214619D01*
X130239286Y-85214619D02*
X130858333Y-85214619D01*
X132620238Y-85119380D02*
X132572619Y-85167000D01*
X132572619Y-85167000D02*
X132429762Y-85214619D01*
X132429762Y-85214619D02*
X132334524Y-85214619D01*
X132334524Y-85214619D02*
X132191667Y-85167000D01*
X132191667Y-85167000D02*
X132096429Y-85071761D01*
X132096429Y-85071761D02*
X132048810Y-84976523D01*
X132048810Y-84976523D02*
X132001191Y-84786047D01*
X132001191Y-84786047D02*
X132001191Y-84643190D01*
X132001191Y-84643190D02*
X132048810Y-84452714D01*
X132048810Y-84452714D02*
X132096429Y-84357476D01*
X132096429Y-84357476D02*
X132191667Y-84262238D01*
X132191667Y-84262238D02*
X132334524Y-84214619D01*
X132334524Y-84214619D02*
X132429762Y-84214619D01*
X132429762Y-84214619D02*
X132572619Y-84262238D01*
X132572619Y-84262238D02*
X132620238Y-84309857D01*
X133477381Y-84214619D02*
X133286905Y-84214619D01*
X133286905Y-84214619D02*
X133191667Y-84262238D01*
X133191667Y-84262238D02*
X133144048Y-84309857D01*
X133144048Y-84309857D02*
X133048810Y-84452714D01*
X133048810Y-84452714D02*
X133001191Y-84643190D01*
X133001191Y-84643190D02*
X133001191Y-85024142D01*
X133001191Y-85024142D02*
X133048810Y-85119380D01*
X133048810Y-85119380D02*
X133096429Y-85167000D01*
X133096429Y-85167000D02*
X133191667Y-85214619D01*
X133191667Y-85214619D02*
X133382143Y-85214619D01*
X133382143Y-85214619D02*
X133477381Y-85167000D01*
X133477381Y-85167000D02*
X133525000Y-85119380D01*
X133525000Y-85119380D02*
X133572619Y-85024142D01*
X133572619Y-85024142D02*
X133572619Y-84786047D01*
X133572619Y-84786047D02*
X133525000Y-84690809D01*
X133525000Y-84690809D02*
X133477381Y-84643190D01*
X133477381Y-84643190D02*
X133382143Y-84595571D01*
X133382143Y-84595571D02*
X133191667Y-84595571D01*
X133191667Y-84595571D02*
X133096429Y-84643190D01*
X133096429Y-84643190D02*
X133048810Y-84690809D01*
X133048810Y-84690809D02*
X133001191Y-84786047D01*
X146383333Y-103815809D02*
X146526190Y-103863428D01*
X146526190Y-103863428D02*
X146573809Y-103911047D01*
X146573809Y-103911047D02*
X146621428Y-104006285D01*
X146621428Y-104006285D02*
X146621428Y-104149142D01*
X146621428Y-104149142D02*
X146573809Y-104244380D01*
X146573809Y-104244380D02*
X146526190Y-104292000D01*
X146526190Y-104292000D02*
X146430952Y-104339619D01*
X146430952Y-104339619D02*
X146050000Y-104339619D01*
X146050000Y-104339619D02*
X146050000Y-103339619D01*
X146050000Y-103339619D02*
X146383333Y-103339619D01*
X146383333Y-103339619D02*
X146478571Y-103387238D01*
X146478571Y-103387238D02*
X146526190Y-103434857D01*
X146526190Y-103434857D02*
X146573809Y-103530095D01*
X146573809Y-103530095D02*
X146573809Y-103625333D01*
X146573809Y-103625333D02*
X146526190Y-103720571D01*
X146526190Y-103720571D02*
X146478571Y-103768190D01*
X146478571Y-103768190D02*
X146383333Y-103815809D01*
X146383333Y-103815809D02*
X146050000Y-103815809D01*
X147050000Y-104339619D02*
X147050000Y-103339619D01*
X147050000Y-103339619D02*
X147383333Y-104053904D01*
X147383333Y-104053904D02*
X147716666Y-103339619D01*
X147716666Y-103339619D02*
X147716666Y-104339619D01*
X148192857Y-104339619D02*
X148192857Y-103339619D01*
X148621428Y-103434857D02*
X148669047Y-103387238D01*
X148669047Y-103387238D02*
X148764285Y-103339619D01*
X148764285Y-103339619D02*
X149002380Y-103339619D01*
X149002380Y-103339619D02*
X149097618Y-103387238D01*
X149097618Y-103387238D02*
X149145237Y-103434857D01*
X149145237Y-103434857D02*
X149192856Y-103530095D01*
X149192856Y-103530095D02*
X149192856Y-103625333D01*
X149192856Y-103625333D02*
X149145237Y-103768190D01*
X149145237Y-103768190D02*
X148573809Y-104339619D01*
X148573809Y-104339619D02*
X149192856Y-104339619D01*
X149526190Y-103339619D02*
X150192856Y-103339619D01*
X150192856Y-103339619D02*
X149764285Y-104339619D01*
X150764285Y-103339619D02*
X150859523Y-103339619D01*
X150859523Y-103339619D02*
X150954761Y-103387238D01*
X150954761Y-103387238D02*
X151002380Y-103434857D01*
X151002380Y-103434857D02*
X151049999Y-103530095D01*
X151049999Y-103530095D02*
X151097618Y-103720571D01*
X151097618Y-103720571D02*
X151097618Y-103958666D01*
X151097618Y-103958666D02*
X151049999Y-104149142D01*
X151049999Y-104149142D02*
X151002380Y-104244380D01*
X151002380Y-104244380D02*
X150954761Y-104292000D01*
X150954761Y-104292000D02*
X150859523Y-104339619D01*
X150859523Y-104339619D02*
X150764285Y-104339619D01*
X150764285Y-104339619D02*
X150669047Y-104292000D01*
X150669047Y-104292000D02*
X150621428Y-104244380D01*
X150621428Y-104244380D02*
X150573809Y-104149142D01*
X150573809Y-104149142D02*
X150526190Y-103958666D01*
X150526190Y-103958666D02*
X150526190Y-103720571D01*
X150526190Y-103720571D02*
X150573809Y-103530095D01*
X150573809Y-103530095D02*
X150621428Y-103434857D01*
X150621428Y-103434857D02*
X150669047Y-103387238D01*
X150669047Y-103387238D02*
X150764285Y-103339619D01*
X143529761Y-105603904D02*
X144005951Y-105603904D01*
X143434523Y-105889619D02*
X143767856Y-104889619D01*
X143767856Y-104889619D02*
X144101189Y-105889619D01*
X144863094Y-105842000D02*
X144767856Y-105889619D01*
X144767856Y-105889619D02*
X144577380Y-105889619D01*
X144577380Y-105889619D02*
X144482142Y-105842000D01*
X144482142Y-105842000D02*
X144434523Y-105794380D01*
X144434523Y-105794380D02*
X144386904Y-105699142D01*
X144386904Y-105699142D02*
X144386904Y-105413428D01*
X144386904Y-105413428D02*
X144434523Y-105318190D01*
X144434523Y-105318190D02*
X144482142Y-105270571D01*
X144482142Y-105270571D02*
X144577380Y-105222952D01*
X144577380Y-105222952D02*
X144767856Y-105222952D01*
X144767856Y-105222952D02*
X144863094Y-105270571D01*
X145720237Y-105842000D02*
X145624999Y-105889619D01*
X145624999Y-105889619D02*
X145434523Y-105889619D01*
X145434523Y-105889619D02*
X145339285Y-105842000D01*
X145339285Y-105842000D02*
X145291666Y-105794380D01*
X145291666Y-105794380D02*
X145244047Y-105699142D01*
X145244047Y-105699142D02*
X145244047Y-105413428D01*
X145244047Y-105413428D02*
X145291666Y-105318190D01*
X145291666Y-105318190D02*
X145339285Y-105270571D01*
X145339285Y-105270571D02*
X145434523Y-105222952D01*
X145434523Y-105222952D02*
X145624999Y-105222952D01*
X145624999Y-105222952D02*
X145720237Y-105270571D01*
X146529761Y-105842000D02*
X146434523Y-105889619D01*
X146434523Y-105889619D02*
X146244047Y-105889619D01*
X146244047Y-105889619D02*
X146148809Y-105842000D01*
X146148809Y-105842000D02*
X146101190Y-105746761D01*
X146101190Y-105746761D02*
X146101190Y-105365809D01*
X146101190Y-105365809D02*
X146148809Y-105270571D01*
X146148809Y-105270571D02*
X146244047Y-105222952D01*
X146244047Y-105222952D02*
X146434523Y-105222952D01*
X146434523Y-105222952D02*
X146529761Y-105270571D01*
X146529761Y-105270571D02*
X146577380Y-105365809D01*
X146577380Y-105365809D02*
X146577380Y-105461047D01*
X146577380Y-105461047D02*
X146101190Y-105556285D01*
X147148809Y-105889619D02*
X147053571Y-105842000D01*
X147053571Y-105842000D02*
X147005952Y-105746761D01*
X147005952Y-105746761D02*
X147005952Y-104889619D01*
X147910714Y-105842000D02*
X147815476Y-105889619D01*
X147815476Y-105889619D02*
X147625000Y-105889619D01*
X147625000Y-105889619D02*
X147529762Y-105842000D01*
X147529762Y-105842000D02*
X147482143Y-105746761D01*
X147482143Y-105746761D02*
X147482143Y-105365809D01*
X147482143Y-105365809D02*
X147529762Y-105270571D01*
X147529762Y-105270571D02*
X147625000Y-105222952D01*
X147625000Y-105222952D02*
X147815476Y-105222952D01*
X147815476Y-105222952D02*
X147910714Y-105270571D01*
X147910714Y-105270571D02*
X147958333Y-105365809D01*
X147958333Y-105365809D02*
X147958333Y-105461047D01*
X147958333Y-105461047D02*
X147482143Y-105556285D01*
X148386905Y-105889619D02*
X148386905Y-105222952D01*
X148386905Y-105413428D02*
X148434524Y-105318190D01*
X148434524Y-105318190D02*
X148482143Y-105270571D01*
X148482143Y-105270571D02*
X148577381Y-105222952D01*
X148577381Y-105222952D02*
X148672619Y-105222952D01*
X149148810Y-105889619D02*
X149053572Y-105842000D01*
X149053572Y-105842000D02*
X149005953Y-105794380D01*
X149005953Y-105794380D02*
X148958334Y-105699142D01*
X148958334Y-105699142D02*
X148958334Y-105413428D01*
X148958334Y-105413428D02*
X149005953Y-105318190D01*
X149005953Y-105318190D02*
X149053572Y-105270571D01*
X149053572Y-105270571D02*
X149148810Y-105222952D01*
X149148810Y-105222952D02*
X149291667Y-105222952D01*
X149291667Y-105222952D02*
X149386905Y-105270571D01*
X149386905Y-105270571D02*
X149434524Y-105318190D01*
X149434524Y-105318190D02*
X149482143Y-105413428D01*
X149482143Y-105413428D02*
X149482143Y-105699142D01*
X149482143Y-105699142D02*
X149434524Y-105794380D01*
X149434524Y-105794380D02*
X149386905Y-105842000D01*
X149386905Y-105842000D02*
X149291667Y-105889619D01*
X149291667Y-105889619D02*
X149148810Y-105889619D01*
X149910715Y-105889619D02*
X149910715Y-105222952D01*
X149910715Y-105318190D02*
X149958334Y-105270571D01*
X149958334Y-105270571D02*
X150053572Y-105222952D01*
X150053572Y-105222952D02*
X150196429Y-105222952D01*
X150196429Y-105222952D02*
X150291667Y-105270571D01*
X150291667Y-105270571D02*
X150339286Y-105365809D01*
X150339286Y-105365809D02*
X150339286Y-105889619D01*
X150339286Y-105365809D02*
X150386905Y-105270571D01*
X150386905Y-105270571D02*
X150482143Y-105222952D01*
X150482143Y-105222952D02*
X150625000Y-105222952D01*
X150625000Y-105222952D02*
X150720239Y-105270571D01*
X150720239Y-105270571D02*
X150767858Y-105365809D01*
X150767858Y-105365809D02*
X150767858Y-105889619D01*
X151625000Y-105842000D02*
X151529762Y-105889619D01*
X151529762Y-105889619D02*
X151339286Y-105889619D01*
X151339286Y-105889619D02*
X151244048Y-105842000D01*
X151244048Y-105842000D02*
X151196429Y-105746761D01*
X151196429Y-105746761D02*
X151196429Y-105365809D01*
X151196429Y-105365809D02*
X151244048Y-105270571D01*
X151244048Y-105270571D02*
X151339286Y-105222952D01*
X151339286Y-105222952D02*
X151529762Y-105222952D01*
X151529762Y-105222952D02*
X151625000Y-105270571D01*
X151625000Y-105270571D02*
X151672619Y-105365809D01*
X151672619Y-105365809D02*
X151672619Y-105461047D01*
X151672619Y-105461047D02*
X151196429Y-105556285D01*
X151958334Y-105222952D02*
X152339286Y-105222952D01*
X152101191Y-104889619D02*
X152101191Y-105746761D01*
X152101191Y-105746761D02*
X152148810Y-105842000D01*
X152148810Y-105842000D02*
X152244048Y-105889619D01*
X152244048Y-105889619D02*
X152339286Y-105889619D01*
X153053572Y-105842000D02*
X152958334Y-105889619D01*
X152958334Y-105889619D02*
X152767858Y-105889619D01*
X152767858Y-105889619D02*
X152672620Y-105842000D01*
X152672620Y-105842000D02*
X152625001Y-105746761D01*
X152625001Y-105746761D02*
X152625001Y-105365809D01*
X152625001Y-105365809D02*
X152672620Y-105270571D01*
X152672620Y-105270571D02*
X152767858Y-105222952D01*
X152767858Y-105222952D02*
X152958334Y-105222952D01*
X152958334Y-105222952D02*
X153053572Y-105270571D01*
X153053572Y-105270571D02*
X153101191Y-105365809D01*
X153101191Y-105365809D02*
X153101191Y-105461047D01*
X153101191Y-105461047D02*
X152625001Y-105556285D01*
X153529763Y-105889619D02*
X153529763Y-105222952D01*
X153529763Y-105413428D02*
X153577382Y-105318190D01*
X153577382Y-105318190D02*
X153625001Y-105270571D01*
X153625001Y-105270571D02*
X153720239Y-105222952D01*
X153720239Y-105222952D02*
X153815477Y-105222952D01*
X147054761Y-107015809D02*
X147197618Y-107063428D01*
X147197618Y-107063428D02*
X147245237Y-107111047D01*
X147245237Y-107111047D02*
X147292856Y-107206285D01*
X147292856Y-107206285D02*
X147292856Y-107349142D01*
X147292856Y-107349142D02*
X147245237Y-107444380D01*
X147245237Y-107444380D02*
X147197618Y-107492000D01*
X147197618Y-107492000D02*
X147102380Y-107539619D01*
X147102380Y-107539619D02*
X146721428Y-107539619D01*
X146721428Y-107539619D02*
X146721428Y-106539619D01*
X146721428Y-106539619D02*
X147054761Y-106539619D01*
X147054761Y-106539619D02*
X147149999Y-106587238D01*
X147149999Y-106587238D02*
X147197618Y-106634857D01*
X147197618Y-106634857D02*
X147245237Y-106730095D01*
X147245237Y-106730095D02*
X147245237Y-106825333D01*
X147245237Y-106825333D02*
X147197618Y-106920571D01*
X147197618Y-106920571D02*
X147149999Y-106968190D01*
X147149999Y-106968190D02*
X147054761Y-107015809D01*
X147054761Y-107015809D02*
X146721428Y-107015809D01*
X147864285Y-107539619D02*
X147769047Y-107492000D01*
X147769047Y-107492000D02*
X147721428Y-107444380D01*
X147721428Y-107444380D02*
X147673809Y-107349142D01*
X147673809Y-107349142D02*
X147673809Y-107063428D01*
X147673809Y-107063428D02*
X147721428Y-106968190D01*
X147721428Y-106968190D02*
X147769047Y-106920571D01*
X147769047Y-106920571D02*
X147864285Y-106872952D01*
X147864285Y-106872952D02*
X148007142Y-106872952D01*
X148007142Y-106872952D02*
X148102380Y-106920571D01*
X148102380Y-106920571D02*
X148149999Y-106968190D01*
X148149999Y-106968190D02*
X148197618Y-107063428D01*
X148197618Y-107063428D02*
X148197618Y-107349142D01*
X148197618Y-107349142D02*
X148149999Y-107444380D01*
X148149999Y-107444380D02*
X148102380Y-107492000D01*
X148102380Y-107492000D02*
X148007142Y-107539619D01*
X148007142Y-107539619D02*
X147864285Y-107539619D01*
X149054761Y-107539619D02*
X149054761Y-107015809D01*
X149054761Y-107015809D02*
X149007142Y-106920571D01*
X149007142Y-106920571D02*
X148911904Y-106872952D01*
X148911904Y-106872952D02*
X148721428Y-106872952D01*
X148721428Y-106872952D02*
X148626190Y-106920571D01*
X149054761Y-107492000D02*
X148959523Y-107539619D01*
X148959523Y-107539619D02*
X148721428Y-107539619D01*
X148721428Y-107539619D02*
X148626190Y-107492000D01*
X148626190Y-107492000D02*
X148578571Y-107396761D01*
X148578571Y-107396761D02*
X148578571Y-107301523D01*
X148578571Y-107301523D02*
X148626190Y-107206285D01*
X148626190Y-107206285D02*
X148721428Y-107158666D01*
X148721428Y-107158666D02*
X148959523Y-107158666D01*
X148959523Y-107158666D02*
X149054761Y-107111047D01*
X149530952Y-107539619D02*
X149530952Y-106872952D01*
X149530952Y-107063428D02*
X149578571Y-106968190D01*
X149578571Y-106968190D02*
X149626190Y-106920571D01*
X149626190Y-106920571D02*
X149721428Y-106872952D01*
X149721428Y-106872952D02*
X149816666Y-106872952D01*
X150578571Y-107539619D02*
X150578571Y-106539619D01*
X150578571Y-107492000D02*
X150483333Y-107539619D01*
X150483333Y-107539619D02*
X150292857Y-107539619D01*
X150292857Y-107539619D02*
X150197619Y-107492000D01*
X150197619Y-107492000D02*
X150150000Y-107444380D01*
X150150000Y-107444380D02*
X150102381Y-107349142D01*
X150102381Y-107349142D02*
X150102381Y-107063428D01*
X150102381Y-107063428D02*
X150150000Y-106968190D01*
X150150000Y-106968190D02*
X150197619Y-106920571D01*
X150197619Y-106920571D02*
X150292857Y-106872952D01*
X150292857Y-106872952D02*
X150483333Y-106872952D01*
X150483333Y-106872952D02*
X150578571Y-106920571D01*
D11*
X136376833Y-91157319D02*
X136043500Y-90681128D01*
X135805405Y-91157319D02*
X135805405Y-90157319D01*
X135805405Y-90157319D02*
X136186357Y-90157319D01*
X136186357Y-90157319D02*
X136281595Y-90204938D01*
X136281595Y-90204938D02*
X136329214Y-90252557D01*
X136329214Y-90252557D02*
X136376833Y-90347795D01*
X136376833Y-90347795D02*
X136376833Y-90490652D01*
X136376833Y-90490652D02*
X136329214Y-90585890D01*
X136329214Y-90585890D02*
X136281595Y-90633509D01*
X136281595Y-90633509D02*
X136186357Y-90681128D01*
X136186357Y-90681128D02*
X135805405Y-90681128D01*
X136710167Y-90157319D02*
X137329214Y-90157319D01*
X137329214Y-90157319D02*
X136995881Y-90538271D01*
X136995881Y-90538271D02*
X137138738Y-90538271D01*
X137138738Y-90538271D02*
X137233976Y-90585890D01*
X137233976Y-90585890D02*
X137281595Y-90633509D01*
X137281595Y-90633509D02*
X137329214Y-90728747D01*
X137329214Y-90728747D02*
X137329214Y-90966842D01*
X137329214Y-90966842D02*
X137281595Y-91062080D01*
X137281595Y-91062080D02*
X137233976Y-91109700D01*
X137233976Y-91109700D02*
X137138738Y-91157319D01*
X137138738Y-91157319D02*
X136853024Y-91157319D01*
X136853024Y-91157319D02*
X136757786Y-91109700D01*
X136757786Y-91109700D02*
X136710167Y-91062080D01*
X134376833Y-87657319D02*
X134043500Y-87181128D01*
X133805405Y-87657319D02*
X133805405Y-86657319D01*
X133805405Y-86657319D02*
X134186357Y-86657319D01*
X134186357Y-86657319D02*
X134281595Y-86704938D01*
X134281595Y-86704938D02*
X134329214Y-86752557D01*
X134329214Y-86752557D02*
X134376833Y-86847795D01*
X134376833Y-86847795D02*
X134376833Y-86990652D01*
X134376833Y-86990652D02*
X134329214Y-87085890D01*
X134329214Y-87085890D02*
X134281595Y-87133509D01*
X134281595Y-87133509D02*
X134186357Y-87181128D01*
X134186357Y-87181128D02*
X133805405Y-87181128D01*
X134757786Y-86752557D02*
X134805405Y-86704938D01*
X134805405Y-86704938D02*
X134900643Y-86657319D01*
X134900643Y-86657319D02*
X135138738Y-86657319D01*
X135138738Y-86657319D02*
X135233976Y-86704938D01*
X135233976Y-86704938D02*
X135281595Y-86752557D01*
X135281595Y-86752557D02*
X135329214Y-86847795D01*
X135329214Y-86847795D02*
X135329214Y-86943033D01*
X135329214Y-86943033D02*
X135281595Y-87085890D01*
X135281595Y-87085890D02*
X134710167Y-87657319D01*
X134710167Y-87657319D02*
X135329214Y-87657319D01*
X128781595Y-91107119D02*
X128781595Y-91916642D01*
X128781595Y-91916642D02*
X128829214Y-92011880D01*
X128829214Y-92011880D02*
X128876833Y-92059500D01*
X128876833Y-92059500D02*
X128972071Y-92107119D01*
X128972071Y-92107119D02*
X129162547Y-92107119D01*
X129162547Y-92107119D02*
X129257785Y-92059500D01*
X129257785Y-92059500D02*
X129305404Y-92011880D01*
X129305404Y-92011880D02*
X129353023Y-91916642D01*
X129353023Y-91916642D02*
X129353023Y-91107119D01*
X130353023Y-92107119D02*
X129781595Y-92107119D01*
X130067309Y-92107119D02*
X130067309Y-91107119D01*
X130067309Y-91107119D02*
X129972071Y-91249976D01*
X129972071Y-91249976D02*
X129876833Y-91345214D01*
X129876833Y-91345214D02*
X129781595Y-91392833D01*
X127293500Y-92157319D02*
X127293500Y-92395414D01*
X127055405Y-92300176D02*
X127293500Y-92395414D01*
X127293500Y-92395414D02*
X127531595Y-92300176D01*
X127150643Y-92585890D02*
X127293500Y-92395414D01*
X127293500Y-92395414D02*
X127436357Y-92585890D01*
X123126833Y-87657319D02*
X122793500Y-87181128D01*
X122555405Y-87657319D02*
X122555405Y-86657319D01*
X122555405Y-86657319D02*
X122936357Y-86657319D01*
X122936357Y-86657319D02*
X123031595Y-86704938D01*
X123031595Y-86704938D02*
X123079214Y-86752557D01*
X123079214Y-86752557D02*
X123126833Y-86847795D01*
X123126833Y-86847795D02*
X123126833Y-86990652D01*
X123126833Y-86990652D02*
X123079214Y-87085890D01*
X123079214Y-87085890D02*
X123031595Y-87133509D01*
X123031595Y-87133509D02*
X122936357Y-87181128D01*
X122936357Y-87181128D02*
X122555405Y-87181128D01*
X124079214Y-87657319D02*
X123507786Y-87657319D01*
X123793500Y-87657319D02*
X123793500Y-86657319D01*
X123793500Y-86657319D02*
X123698262Y-86800176D01*
X123698262Y-86800176D02*
X123603024Y-86895414D01*
X123603024Y-86895414D02*
X123507786Y-86943033D01*
X123083333Y-91204819D02*
X122750000Y-90728628D01*
X122511905Y-91204819D02*
X122511905Y-90204819D01*
X122511905Y-90204819D02*
X122892857Y-90204819D01*
X122892857Y-90204819D02*
X122988095Y-90252438D01*
X122988095Y-90252438D02*
X123035714Y-90300057D01*
X123035714Y-90300057D02*
X123083333Y-90395295D01*
X123083333Y-90395295D02*
X123083333Y-90538152D01*
X123083333Y-90538152D02*
X123035714Y-90633390D01*
X123035714Y-90633390D02*
X122988095Y-90681009D01*
X122988095Y-90681009D02*
X122892857Y-90728628D01*
X122892857Y-90728628D02*
X122511905Y-90728628D01*
X123940476Y-90538152D02*
X123940476Y-91204819D01*
X123702381Y-90157200D02*
X123464286Y-90871485D01*
X123464286Y-90871485D02*
X124083333Y-90871485D01*
X155796666Y-81874819D02*
X155796666Y-82589104D01*
X155796666Y-82589104D02*
X155749047Y-82731961D01*
X155749047Y-82731961D02*
X155653809Y-82827200D01*
X155653809Y-82827200D02*
X155510952Y-82874819D01*
X155510952Y-82874819D02*
X155415714Y-82874819D01*
X156796666Y-82874819D02*
X156225238Y-82874819D01*
X156510952Y-82874819D02*
X156510952Y-81874819D01*
X156510952Y-81874819D02*
X156415714Y-82017676D01*
X156415714Y-82017676D02*
X156320476Y-82112914D01*
X156320476Y-82112914D02*
X156225238Y-82160533D01*
X134626833Y-96562080D02*
X134579214Y-96609700D01*
X134579214Y-96609700D02*
X134436357Y-96657319D01*
X134436357Y-96657319D02*
X134341119Y-96657319D01*
X134341119Y-96657319D02*
X134198262Y-96609700D01*
X134198262Y-96609700D02*
X134103024Y-96514461D01*
X134103024Y-96514461D02*
X134055405Y-96419223D01*
X134055405Y-96419223D02*
X134007786Y-96228747D01*
X134007786Y-96228747D02*
X134007786Y-96085890D01*
X134007786Y-96085890D02*
X134055405Y-95895414D01*
X134055405Y-95895414D02*
X134103024Y-95800176D01*
X134103024Y-95800176D02*
X134198262Y-95704938D01*
X134198262Y-95704938D02*
X134341119Y-95657319D01*
X134341119Y-95657319D02*
X134436357Y-95657319D01*
X134436357Y-95657319D02*
X134579214Y-95704938D01*
X134579214Y-95704938D02*
X134626833Y-95752557D01*
X135007786Y-95752557D02*
X135055405Y-95704938D01*
X135055405Y-95704938D02*
X135150643Y-95657319D01*
X135150643Y-95657319D02*
X135388738Y-95657319D01*
X135388738Y-95657319D02*
X135483976Y-95704938D01*
X135483976Y-95704938D02*
X135531595Y-95752557D01*
X135531595Y-95752557D02*
X135579214Y-95847795D01*
X135579214Y-95847795D02*
X135579214Y-95943033D01*
X135579214Y-95943033D02*
X135531595Y-96085890D01*
X135531595Y-96085890D02*
X134960167Y-96657319D01*
X134960167Y-96657319D02*
X135579214Y-96657319D01*
X140546666Y-81884819D02*
X140546666Y-82599104D01*
X140546666Y-82599104D02*
X140499047Y-82741961D01*
X140499047Y-82741961D02*
X140403809Y-82837200D01*
X140403809Y-82837200D02*
X140260952Y-82884819D01*
X140260952Y-82884819D02*
X140165714Y-82884819D01*
X140975238Y-81980057D02*
X141022857Y-81932438D01*
X141022857Y-81932438D02*
X141118095Y-81884819D01*
X141118095Y-81884819D02*
X141356190Y-81884819D01*
X141356190Y-81884819D02*
X141451428Y-81932438D01*
X141451428Y-81932438D02*
X141499047Y-81980057D01*
X141499047Y-81980057D02*
X141546666Y-82075295D01*
X141546666Y-82075295D02*
X141546666Y-82170533D01*
X141546666Y-82170533D02*
X141499047Y-82313390D01*
X141499047Y-82313390D02*
X140927619Y-82884819D01*
X140927619Y-82884819D02*
X141546666Y-82884819D01*
X128626833Y-99162080D02*
X128579214Y-99209700D01*
X128579214Y-99209700D02*
X128436357Y-99257319D01*
X128436357Y-99257319D02*
X128341119Y-99257319D01*
X128341119Y-99257319D02*
X128198262Y-99209700D01*
X128198262Y-99209700D02*
X128103024Y-99114461D01*
X128103024Y-99114461D02*
X128055405Y-99019223D01*
X128055405Y-99019223D02*
X128007786Y-98828747D01*
X128007786Y-98828747D02*
X128007786Y-98685890D01*
X128007786Y-98685890D02*
X128055405Y-98495414D01*
X128055405Y-98495414D02*
X128103024Y-98400176D01*
X128103024Y-98400176D02*
X128198262Y-98304938D01*
X128198262Y-98304938D02*
X128341119Y-98257319D01*
X128341119Y-98257319D02*
X128436357Y-98257319D01*
X128436357Y-98257319D02*
X128579214Y-98304938D01*
X128579214Y-98304938D02*
X128626833Y-98352557D01*
X129579214Y-99257319D02*
X129007786Y-99257319D01*
X129293500Y-99257319D02*
X129293500Y-98257319D01*
X129293500Y-98257319D02*
X129198262Y-98400176D01*
X129198262Y-98400176D02*
X129103024Y-98495414D01*
X129103024Y-98495414D02*
X129007786Y-98543033D01*
D13*
G04 #@! TO.C,G\u002A\u002A\u002A*
G36*
X134897245Y-105606230D02*
G01*
X134897245Y-105660561D01*
X128377459Y-105660561D01*
X121857673Y-105660561D01*
X121857673Y-105606230D01*
X121857673Y-105551898D01*
X128377459Y-105551898D01*
X134897245Y-105551898D01*
X134897245Y-105606230D01*
G37*
G36*
X135005908Y-102033930D02*
G01*
X135005908Y-102088262D01*
X128458956Y-102088262D01*
X121912005Y-102088262D01*
X121912005Y-102033930D01*
X121912005Y-101979599D01*
X128458956Y-101979599D01*
X135005908Y-101979599D01*
X135005908Y-102033930D01*
G37*
G36*
X131243448Y-103779963D02*
G01*
X131243337Y-103959034D01*
X131243014Y-104130128D01*
X131242496Y-104291324D01*
X131241798Y-104440702D01*
X131240938Y-104576340D01*
X131239930Y-104696318D01*
X131238790Y-104798714D01*
X131237536Y-104881610D01*
X131236184Y-104943083D01*
X131234748Y-104981212D01*
X131233261Y-104994081D01*
X131214263Y-104987996D01*
X131192513Y-104978422D01*
X131161951Y-104963683D01*
X131162037Y-103787443D01*
X131162123Y-102611203D01*
X131202786Y-102588065D01*
X131243448Y-102564927D01*
X131243448Y-103779963D01*
G37*
G36*
X131080419Y-102631517D02*
G01*
X131081411Y-102646468D01*
X131082277Y-102686589D01*
X131083013Y-102749882D01*
X131083613Y-102834351D01*
X131084071Y-102938000D01*
X131084382Y-103058832D01*
X131084540Y-103194850D01*
X131084539Y-103344059D01*
X131084375Y-103504462D01*
X131084040Y-103674061D01*
X131083698Y-103798404D01*
X131082970Y-104010477D01*
X131082154Y-104196791D01*
X131081224Y-104358752D01*
X131080156Y-104497768D01*
X131078924Y-104615245D01*
X131077505Y-104712590D01*
X131075873Y-104791209D01*
X131074003Y-104852509D01*
X131071870Y-104897897D01*
X131069451Y-104928780D01*
X131066719Y-104946564D01*
X131063650Y-104952655D01*
X131063324Y-104952676D01*
X131035766Y-104947968D01*
X131022726Y-104944888D01*
X131018521Y-104942624D01*
X131014842Y-104937036D01*
X131011653Y-104926423D01*
X131008921Y-104909081D01*
X131006609Y-104883308D01*
X131004683Y-104847400D01*
X131003109Y-104799656D01*
X131001850Y-104738373D01*
X131000873Y-104661847D01*
X131000142Y-104568377D01*
X130999622Y-104456258D01*
X130999278Y-104323789D01*
X130999076Y-104169267D01*
X130998981Y-103990989D01*
X130998956Y-103787252D01*
X130998956Y-103786710D01*
X130998956Y-102634744D01*
X131036275Y-102627611D01*
X131065634Y-102625911D01*
X131080419Y-102631517D01*
G37*
G36*
X131596421Y-102227055D02*
G01*
X131623397Y-102232921D01*
X131635065Y-102245906D01*
X131637352Y-102265163D01*
X131633361Y-102283720D01*
X131618556Y-102298686D01*
X131588689Y-102312112D01*
X131539511Y-102326050D01*
X131485491Y-102338493D01*
X131399768Y-102362483D01*
X131336431Y-102393176D01*
X131290983Y-102433351D01*
X131263823Y-102475495D01*
X131236657Y-102529706D01*
X131187686Y-102505756D01*
X131129868Y-102486999D01*
X131053902Y-102475732D01*
X130967713Y-102471823D01*
X130879229Y-102475139D01*
X130796375Y-102485545D01*
X130727076Y-102502910D01*
X130700426Y-102513941D01*
X130675245Y-102524470D01*
X130661242Y-102519287D01*
X130649416Y-102493778D01*
X130646730Y-102486410D01*
X130623821Y-102446508D01*
X130584405Y-102412159D01*
X130525545Y-102381708D01*
X130444310Y-102353501D01*
X130380205Y-102336108D01*
X130315713Y-102319542D01*
X130273144Y-102307023D01*
X130247978Y-102296385D01*
X130235693Y-102285461D01*
X130231767Y-102272084D01*
X130231523Y-102264840D01*
X130231523Y-102230882D01*
X130856336Y-102228303D01*
X130986638Y-102227771D01*
X131110665Y-102227274D01*
X131225339Y-102226825D01*
X131327581Y-102226435D01*
X131414313Y-102226116D01*
X131482455Y-102225879D01*
X131528930Y-102225736D01*
X131548241Y-102225696D01*
X131596421Y-102227055D01*
G37*
G36*
X130693578Y-102581608D02*
G01*
X130712552Y-102590206D01*
X130740882Y-102605367D01*
X130740882Y-103786123D01*
X130740868Y-103992266D01*
X130740802Y-104172945D01*
X130740647Y-104329861D01*
X130740365Y-104464716D01*
X130739919Y-104579211D01*
X130739271Y-104675048D01*
X130738384Y-104753928D01*
X130737220Y-104817552D01*
X130735743Y-104867623D01*
X130733914Y-104905842D01*
X130731696Y-104933909D01*
X130729052Y-104953527D01*
X130725944Y-104966398D01*
X130722336Y-104974222D01*
X130718188Y-104978701D01*
X130714609Y-104980939D01*
X130690396Y-104992229D01*
X130680652Y-104995000D01*
X130679484Y-104981742D01*
X130678335Y-104943272D01*
X130677220Y-104881540D01*
X130676155Y-104798500D01*
X130675154Y-104696103D01*
X130674233Y-104576304D01*
X130673407Y-104441052D01*
X130672692Y-104292303D01*
X130672103Y-104132007D01*
X130671655Y-103962117D01*
X130671403Y-103816684D01*
X130671135Y-103605649D01*
X130670933Y-103420131D01*
X130670810Y-103258479D01*
X130670776Y-103119046D01*
X130670843Y-103000181D01*
X130671021Y-102900236D01*
X130671324Y-102817561D01*
X130671761Y-102750507D01*
X130672345Y-102697425D01*
X130673086Y-102656665D01*
X130673996Y-102626578D01*
X130675086Y-102605515D01*
X130676368Y-102591828D01*
X130677853Y-102583865D01*
X130679553Y-102579979D01*
X130679923Y-102579541D01*
X130693578Y-102581608D01*
G37*
G36*
X131245742Y-105051896D02*
G01*
X131250926Y-105066547D01*
X131272041Y-105105692D01*
X131308699Y-105147749D01*
X131352193Y-105183386D01*
X131369653Y-105193804D01*
X131398786Y-105205407D01*
X131446738Y-105220720D01*
X131505844Y-105237402D01*
X131546231Y-105247775D01*
X131627154Y-105269227D01*
X131684285Y-105288424D01*
X131720715Y-105307008D01*
X131739537Y-105326618D01*
X131743844Y-105348896D01*
X131743452Y-105352409D01*
X131739224Y-105382112D01*
X131006883Y-105382277D01*
X130841681Y-105382202D01*
X130701699Y-105381864D01*
X130584990Y-105381218D01*
X130489609Y-105380217D01*
X130413610Y-105378814D01*
X130355048Y-105376963D01*
X130311977Y-105374617D01*
X130282451Y-105371730D01*
X130264525Y-105368255D01*
X130256428Y-105364328D01*
X130238523Y-105334844D01*
X130246635Y-105307844D01*
X130281065Y-105283074D01*
X130342117Y-105260278D01*
X130396312Y-105246378D01*
X130494400Y-105215597D01*
X130568793Y-105172740D01*
X130620416Y-105117210D01*
X130634033Y-105093124D01*
X130655708Y-105056048D01*
X130672623Y-105044737D01*
X130677802Y-105046892D01*
X130722014Y-105068881D01*
X130786139Y-105084947D01*
X130863554Y-105094985D01*
X130947635Y-105098890D01*
X131031760Y-105096557D01*
X131109305Y-105087879D01*
X131173649Y-105072753D01*
X131212047Y-105055378D01*
X131234584Y-105043850D01*
X131245742Y-105051896D01*
G37*
G36*
X122108956Y-106014018D02*
G01*
X122064812Y-106048809D01*
X122020668Y-106083600D01*
X122020668Y-106373877D01*
X122020756Y-106469764D01*
X122021255Y-106542130D01*
X122022519Y-106594622D01*
X122024901Y-106630886D01*
X122028755Y-106654567D01*
X122034433Y-106669311D01*
X122042290Y-106678764D01*
X122050856Y-106685299D01*
X122082528Y-106701453D01*
X122105187Y-106706444D01*
X122125562Y-106712762D01*
X122129331Y-106720027D01*
X122116417Y-106726337D01*
X122080285Y-106730899D01*
X122024849Y-106733321D01*
X121993502Y-106733610D01*
X121930402Y-106732318D01*
X121884783Y-106728705D01*
X121860556Y-106723161D01*
X121857673Y-106720027D01*
X121868920Y-106708609D01*
X121882122Y-106706444D01*
X121900045Y-106704852D01*
X121913777Y-106697964D01*
X121923872Y-106682610D01*
X121930883Y-106655619D01*
X121935365Y-106613822D01*
X121937871Y-106554048D01*
X121938954Y-106473127D01*
X121939170Y-106379843D01*
X121938996Y-106282370D01*
X121938285Y-106208449D01*
X121936753Y-106154466D01*
X121934116Y-106116809D01*
X121930092Y-106091866D01*
X121924396Y-106076022D01*
X121916745Y-106065665D01*
X121914331Y-106063362D01*
X121886025Y-106045662D01*
X121866791Y-106040882D01*
X121847269Y-106034210D01*
X121844090Y-106027299D01*
X121856987Y-106020947D01*
X121893009Y-106016406D01*
X121948149Y-106014083D01*
X121976523Y-106013867D01*
X122108956Y-106014018D01*
G37*
G36*
X127270454Y-106014018D02*
G01*
X127226309Y-106048809D01*
X127182165Y-106083600D01*
X127182165Y-106373877D01*
X127182253Y-106469764D01*
X127182752Y-106542130D01*
X127184016Y-106594622D01*
X127186398Y-106630886D01*
X127190252Y-106654567D01*
X127195931Y-106669311D01*
X127203788Y-106678764D01*
X127212353Y-106685299D01*
X127244025Y-106701453D01*
X127266685Y-106706444D01*
X127287060Y-106712762D01*
X127290828Y-106720027D01*
X127277914Y-106726337D01*
X127241783Y-106730899D01*
X127186346Y-106733321D01*
X127154999Y-106733610D01*
X127091900Y-106732318D01*
X127046280Y-106728705D01*
X127022053Y-106723161D01*
X127019170Y-106720027D01*
X127030417Y-106708609D01*
X127043620Y-106706444D01*
X127061543Y-106704852D01*
X127075275Y-106697964D01*
X127085369Y-106682610D01*
X127092381Y-106655619D01*
X127096862Y-106613822D01*
X127099368Y-106554048D01*
X127100451Y-106473127D01*
X127100668Y-106379843D01*
X127100494Y-106282370D01*
X127099782Y-106208449D01*
X127098250Y-106154466D01*
X127095614Y-106116809D01*
X127091589Y-106091866D01*
X127085894Y-106076022D01*
X127078243Y-106065665D01*
X127075828Y-106063362D01*
X127047522Y-106045662D01*
X127028288Y-106040882D01*
X127008767Y-106034210D01*
X127005587Y-106027299D01*
X127018485Y-106020947D01*
X127054506Y-106016406D01*
X127109646Y-106014083D01*
X127138021Y-106013867D01*
X127270454Y-106014018D01*
G37*
G36*
X130843864Y-102623333D02*
G01*
X130876349Y-102630571D01*
X130891404Y-102631577D01*
X130896000Y-102632174D01*
X130900021Y-102635098D01*
X130903506Y-102642047D01*
X130906493Y-102654724D01*
X130909021Y-102674826D01*
X130911127Y-102704055D01*
X130912850Y-102744109D01*
X130914229Y-102796689D01*
X130915301Y-102863495D01*
X130916106Y-102946226D01*
X130916681Y-103046582D01*
X130917065Y-103166264D01*
X130917297Y-103306970D01*
X130917414Y-103470402D01*
X130917455Y-103658258D01*
X130917459Y-103786123D01*
X130917384Y-103997569D01*
X130917147Y-104183283D01*
X130916724Y-104344700D01*
X130916097Y-104483253D01*
X130915242Y-104600376D01*
X130914140Y-104697503D01*
X130912770Y-104776068D01*
X130911109Y-104837504D01*
X130909138Y-104883246D01*
X130906835Y-104914727D01*
X130904179Y-104933381D01*
X130901148Y-104940642D01*
X130900480Y-104940854D01*
X130874276Y-104944359D01*
X130852940Y-104949229D01*
X130822379Y-104957420D01*
X130822379Y-103786254D01*
X130822412Y-103580039D01*
X130822533Y-103399346D01*
X130822771Y-103242529D01*
X130823158Y-103107944D01*
X130823722Y-102993946D01*
X130824495Y-102898890D01*
X130825508Y-102821132D01*
X130826790Y-102759027D01*
X130828372Y-102710930D01*
X130830284Y-102675198D01*
X130832557Y-102650184D01*
X130835220Y-102634245D01*
X130838306Y-102625736D01*
X130841843Y-102623012D01*
X130843864Y-102623333D01*
G37*
G36*
X133260507Y-106014018D02*
G01*
X133216363Y-106048809D01*
X133172218Y-106083600D01*
X133172218Y-106373877D01*
X133172306Y-106469764D01*
X133172806Y-106542130D01*
X133174070Y-106594622D01*
X133176452Y-106630886D01*
X133180305Y-106654567D01*
X133185984Y-106669311D01*
X133193841Y-106678764D01*
X133202407Y-106685299D01*
X133234078Y-106701453D01*
X133256738Y-106706444D01*
X133277113Y-106712762D01*
X133280882Y-106720027D01*
X133267968Y-106726337D01*
X133231836Y-106730899D01*
X133176400Y-106733321D01*
X133145053Y-106733610D01*
X133081953Y-106732318D01*
X133036333Y-106728705D01*
X133012107Y-106723161D01*
X133009224Y-106720027D01*
X133020471Y-106708609D01*
X133033673Y-106706444D01*
X133051596Y-106704852D01*
X133065328Y-106697964D01*
X133075423Y-106682610D01*
X133082434Y-106655619D01*
X133086916Y-106613822D01*
X133089421Y-106554048D01*
X133090505Y-106473127D01*
X133090721Y-106379843D01*
X133090547Y-106282370D01*
X133089836Y-106208449D01*
X133088304Y-106154466D01*
X133085667Y-106116809D01*
X133081643Y-106091866D01*
X133075947Y-106076022D01*
X133068296Y-106065665D01*
X133065882Y-106063362D01*
X133037576Y-106045662D01*
X133018341Y-106040882D01*
X132998820Y-106034210D01*
X132995641Y-106027299D01*
X133008538Y-106020947D01*
X133044559Y-106016406D01*
X133099699Y-106014083D01*
X133128074Y-106013867D01*
X133260507Y-106014018D01*
G37*
G36*
X126676092Y-106013737D02*
G01*
X126754918Y-106014336D01*
X126812792Y-106016322D01*
X126852820Y-106020505D01*
X126878108Y-106027691D01*
X126891763Y-106038690D01*
X126896892Y-106054309D01*
X126896599Y-106075357D01*
X126894486Y-106097317D01*
X126890133Y-106142754D01*
X126869615Y-106102005D01*
X126858653Y-106082429D01*
X126845683Y-106070184D01*
X126824459Y-106063265D01*
X126788739Y-106059670D01*
X126732277Y-106057394D01*
X126730390Y-106057332D01*
X126611684Y-106053408D01*
X126611684Y-106367523D01*
X126611684Y-106681638D01*
X126652432Y-106697019D01*
X126683494Y-106711338D01*
X126689880Y-106721873D01*
X126670974Y-106728903D01*
X126626155Y-106732705D01*
X126570935Y-106733610D01*
X126512360Y-106732185D01*
X126470576Y-106728241D01*
X126450043Y-106722274D01*
X126448689Y-106720027D01*
X126459936Y-106708609D01*
X126473138Y-106706444D01*
X126490687Y-106704956D01*
X126504226Y-106698424D01*
X126514271Y-106683748D01*
X126521340Y-106657826D01*
X126525948Y-106617556D01*
X126528614Y-106559839D01*
X126529853Y-106481573D01*
X126530183Y-106379656D01*
X126530186Y-106364155D01*
X126530186Y-106054465D01*
X126424919Y-106054673D01*
X126363871Y-106055813D01*
X126323940Y-106060513D01*
X126299103Y-106071135D01*
X126283339Y-106090036D01*
X126272581Y-106114353D01*
X126259414Y-106142063D01*
X126251432Y-106144233D01*
X126249269Y-106122104D01*
X126253539Y-106077059D01*
X126262221Y-106013717D01*
X126573208Y-106013717D01*
X126676092Y-106013737D01*
G37*
G36*
X124443350Y-106009548D02*
G01*
X124487301Y-106016691D01*
X124527680Y-106031764D01*
X124558905Y-106047821D01*
X124635802Y-106101433D01*
X124690092Y-106166986D01*
X124723227Y-106247103D01*
X124736658Y-106344408D01*
X124737112Y-106369831D01*
X124726396Y-106472363D01*
X124693843Y-106559911D01*
X124638407Y-106634982D01*
X124617940Y-106654741D01*
X124544017Y-106704132D01*
X124456044Y-106734900D01*
X124361165Y-106745414D01*
X124268636Y-106734555D01*
X124175601Y-106700107D01*
X124102037Y-106646923D01*
X124048548Y-106575810D01*
X124015738Y-106487579D01*
X124004210Y-106383036D01*
X124004200Y-106380454D01*
X124009696Y-106323504D01*
X124071982Y-106323504D01*
X124077636Y-106417937D01*
X124096908Y-106495673D01*
X124132164Y-106564738D01*
X124150833Y-106591156D01*
X124212277Y-106653744D01*
X124284512Y-106697165D01*
X124362202Y-106719555D01*
X124440011Y-106719051D01*
X124483569Y-106707354D01*
X124533302Y-106678465D01*
X124583897Y-106632916D01*
X124626624Y-106579463D01*
X124646306Y-106544042D01*
X124670515Y-106459767D01*
X124673246Y-106371367D01*
X124656546Y-106283826D01*
X124622464Y-106202128D01*
X124573051Y-106131255D01*
X124510353Y-106076192D01*
X124440344Y-106043063D01*
X124348188Y-106027180D01*
X124265193Y-106035733D01*
X124193853Y-106066822D01*
X124136665Y-106118548D01*
X124096123Y-106189010D01*
X124074722Y-106276310D01*
X124071982Y-106323504D01*
X124009696Y-106323504D01*
X124014087Y-106278012D01*
X124044941Y-106191220D01*
X124098008Y-106117043D01*
X124122108Y-106093457D01*
X124180015Y-106050227D01*
X124242997Y-106023231D01*
X124318560Y-106010011D01*
X124384090Y-106007638D01*
X124443350Y-106009548D01*
G37*
G36*
X127879821Y-106009548D02*
G01*
X127923772Y-106016691D01*
X127964151Y-106031764D01*
X127995376Y-106047821D01*
X128072273Y-106101433D01*
X128126563Y-106166986D01*
X128159697Y-106247103D01*
X128173129Y-106344408D01*
X128173583Y-106369831D01*
X128162866Y-106472363D01*
X128130314Y-106559911D01*
X128074878Y-106634982D01*
X128054411Y-106654741D01*
X127980488Y-106704132D01*
X127892514Y-106734900D01*
X127797636Y-106745414D01*
X127705106Y-106734555D01*
X127612071Y-106700107D01*
X127538508Y-106646923D01*
X127485019Y-106575810D01*
X127452209Y-106487579D01*
X127440681Y-106383036D01*
X127440671Y-106380454D01*
X127446167Y-106323504D01*
X127508453Y-106323504D01*
X127514106Y-106417937D01*
X127533379Y-106495673D01*
X127568635Y-106564738D01*
X127587304Y-106591156D01*
X127648747Y-106653744D01*
X127720983Y-106697165D01*
X127798673Y-106719555D01*
X127876481Y-106719051D01*
X127920039Y-106707354D01*
X127969773Y-106678465D01*
X128020367Y-106632916D01*
X128063095Y-106579463D01*
X128082777Y-106544042D01*
X128106986Y-106459767D01*
X128109716Y-106371367D01*
X128093016Y-106283826D01*
X128058935Y-106202128D01*
X128009521Y-106131255D01*
X127946824Y-106076192D01*
X127876815Y-106043063D01*
X127784659Y-106027180D01*
X127701663Y-106035733D01*
X127630324Y-106066822D01*
X127573136Y-106118548D01*
X127532594Y-106189010D01*
X127511193Y-106276310D01*
X127508453Y-106323504D01*
X127446167Y-106323504D01*
X127450558Y-106278012D01*
X127481412Y-106191220D01*
X127534479Y-106117043D01*
X127558579Y-106093457D01*
X127616486Y-106050227D01*
X127679468Y-106023231D01*
X127755030Y-106010011D01*
X127820561Y-106007638D01*
X127879821Y-106009548D01*
G37*
G36*
X133102780Y-100733186D02*
G01*
X133545748Y-100736765D01*
X133549795Y-100829798D01*
X133550806Y-100880485D01*
X133547887Y-100908355D01*
X133540392Y-100917557D01*
X133536212Y-100917023D01*
X133520993Y-100900467D01*
X133514226Y-100878321D01*
X133507227Y-100851561D01*
X133491746Y-100832895D01*
X133463632Y-100820949D01*
X133418734Y-100814350D01*
X133352901Y-100811723D01*
X133312243Y-100811471D01*
X133158636Y-100811471D01*
X133158844Y-101229144D01*
X133159209Y-101333438D01*
X133160145Y-101429215D01*
X133161571Y-101513033D01*
X133163405Y-101581449D01*
X133165566Y-101631019D01*
X133167974Y-101658300D01*
X133169031Y-101662270D01*
X133187114Y-101676890D01*
X133220094Y-101694552D01*
X133232031Y-101699801D01*
X133262250Y-101715177D01*
X133276105Y-101727977D01*
X133275521Y-101731412D01*
X133258240Y-101736040D01*
X133221255Y-101739230D01*
X133170751Y-101741036D01*
X133112917Y-101741514D01*
X133053940Y-101740718D01*
X133000006Y-101738705D01*
X132957304Y-101735528D01*
X132932021Y-101731244D01*
X132927775Y-101728315D01*
X132938717Y-101714095D01*
X132966128Y-101694682D01*
X132978699Y-101687546D01*
X133029598Y-101660359D01*
X133033187Y-101235915D01*
X133036777Y-100811471D01*
X132890567Y-100811679D01*
X132828589Y-100812896D01*
X132775592Y-100816026D01*
X132738177Y-100820555D01*
X132724280Y-100824582D01*
X132706252Y-100845663D01*
X132690050Y-100879357D01*
X132689387Y-100881282D01*
X132674991Y-100912665D01*
X132659792Y-100930099D01*
X132658529Y-100930633D01*
X132646767Y-100922880D01*
X132642744Y-100889452D01*
X132646479Y-100830723D01*
X132651149Y-100792809D01*
X132659811Y-100729607D01*
X133102780Y-100733186D01*
G37*
G36*
X122649761Y-100734237D02*
G01*
X122749535Y-100764909D01*
X122802903Y-100791100D01*
X122844099Y-100810265D01*
X122878155Y-100817337D01*
X122885947Y-100816459D01*
X122899641Y-100815016D01*
X122908680Y-100822715D01*
X122914851Y-100844563D01*
X122919943Y-100885566D01*
X122923156Y-100920673D01*
X122927152Y-100987934D01*
X122924791Y-101029168D01*
X122915601Y-101044870D01*
X122899110Y-101035535D01*
X122874847Y-101001657D01*
X122863752Y-100982908D01*
X122797893Y-100890991D01*
X122719784Y-100823182D01*
X122630381Y-100779846D01*
X122530638Y-100761350D01*
X122421511Y-100768061D01*
X122348775Y-100785275D01*
X122270230Y-100822363D01*
X122204375Y-100880759D01*
X122152735Y-100957006D01*
X122116835Y-101047648D01*
X122098200Y-101149227D01*
X122098354Y-101258286D01*
X122108796Y-101329333D01*
X122143031Y-101442711D01*
X122194501Y-101537704D01*
X122261132Y-101612929D01*
X122340851Y-101667005D01*
X122431582Y-101698553D01*
X122531252Y-101706191D01*
X122637787Y-101688537D01*
X122645099Y-101686422D01*
X122742609Y-101646801D01*
X122823643Y-101589118D01*
X122867529Y-101543682D01*
X122895533Y-101513470D01*
X122916474Y-101495477D01*
X122924128Y-101493077D01*
X122925543Y-101509286D01*
X122921439Y-101543121D01*
X122916320Y-101570009D01*
X122895493Y-101631158D01*
X122866358Y-101667314D01*
X122816287Y-101695098D01*
X122745752Y-101718454D01*
X122661248Y-101736294D01*
X122569271Y-101747530D01*
X122476316Y-101751073D01*
X122394197Y-101746455D01*
X122282612Y-101721304D01*
X122184664Y-101673816D01*
X122102421Y-101606234D01*
X122037953Y-101520801D01*
X121993328Y-101419759D01*
X121970617Y-101305351D01*
X121969141Y-101285717D01*
X121974216Y-101165082D01*
X122002613Y-101052698D01*
X122052337Y-100951565D01*
X122121394Y-100864683D01*
X122207789Y-100795050D01*
X122309527Y-100745666D01*
X122333456Y-100737910D01*
X122432672Y-100719712D01*
X122541124Y-100718829D01*
X122649761Y-100734237D01*
G37*
G36*
X131737754Y-100730074D02*
G01*
X131834931Y-100730359D01*
X131919722Y-100730805D01*
X131988925Y-100731386D01*
X132039338Y-100732078D01*
X132067759Y-100732857D01*
X132072932Y-100733369D01*
X132074380Y-100747548D01*
X132077302Y-100781566D01*
X132081078Y-100828178D01*
X132081229Y-100830083D01*
X132084191Y-100880027D01*
X132082793Y-100907699D01*
X132076445Y-100917732D01*
X132070114Y-100917246D01*
X132052383Y-100900117D01*
X132046832Y-100885051D01*
X132038214Y-100855193D01*
X132022314Y-100834561D01*
X131994709Y-100821526D01*
X131950976Y-100814456D01*
X131886691Y-100811722D01*
X131847235Y-100811471D01*
X131779397Y-100812020D01*
X131733993Y-100814106D01*
X131706305Y-100818387D01*
X131691615Y-100825522D01*
X131685959Y-100833963D01*
X131683628Y-100853524D01*
X131681772Y-100895926D01*
X131680378Y-100956850D01*
X131679438Y-101031977D01*
X131678942Y-101116988D01*
X131678877Y-101207563D01*
X131679236Y-101299381D01*
X131680007Y-101388125D01*
X131681180Y-101469473D01*
X131682745Y-101539108D01*
X131684692Y-101592708D01*
X131687010Y-101625955D01*
X131687848Y-101631693D01*
X131701073Y-101662393D01*
X131730986Y-101684135D01*
X131747953Y-101691481D01*
X131785752Y-101708698D01*
X131800255Y-101721935D01*
X131790676Y-101731529D01*
X131756226Y-101737820D01*
X131696118Y-101741146D01*
X131630561Y-101741898D01*
X131556993Y-101740852D01*
X131502302Y-101737871D01*
X131469428Y-101733189D01*
X131460811Y-101728315D01*
X131471761Y-101714094D01*
X131499177Y-101694681D01*
X131511747Y-101687546D01*
X131562646Y-101660359D01*
X131566236Y-101235482D01*
X131569826Y-100810605D01*
X131410033Y-100814434D01*
X131250240Y-100818262D01*
X131219185Y-100883277D01*
X131197052Y-100921635D01*
X131179274Y-100938246D01*
X131168552Y-100932438D01*
X131167587Y-100903541D01*
X131168658Y-100895837D01*
X131173976Y-100859417D01*
X131180389Y-100811917D01*
X131182628Y-100794492D01*
X131190781Y-100729973D01*
X131631393Y-100729973D01*
X131737754Y-100730074D01*
G37*
G36*
X132662860Y-106007052D02*
G01*
X132709101Y-106013250D01*
X132748483Y-106017678D01*
X132761003Y-106018704D01*
X132776435Y-106020964D01*
X132787122Y-106029047D01*
X132795354Y-106048232D01*
X132803419Y-106083800D01*
X132813319Y-106139358D01*
X132815743Y-106176425D01*
X132807630Y-106189530D01*
X132791234Y-106178679D01*
X132768809Y-106143876D01*
X132766410Y-106139252D01*
X132729893Y-106088793D01*
X132683049Y-106053822D01*
X132630794Y-106034208D01*
X132578044Y-106029822D01*
X132529714Y-106040533D01*
X132490721Y-106066213D01*
X132465980Y-106106732D01*
X132459734Y-106147338D01*
X132465612Y-106191254D01*
X132485552Y-106227479D01*
X132523015Y-106259242D01*
X132581458Y-106289774D01*
X132635978Y-106311867D01*
X132725708Y-106353245D01*
X132789432Y-106400326D01*
X132827902Y-106454142D01*
X132841873Y-106515725D01*
X132833286Y-106581820D01*
X132803568Y-106642931D01*
X132753520Y-106691942D01*
X132688220Y-106726375D01*
X132612744Y-106743750D01*
X132532169Y-106741586D01*
X132513448Y-106738063D01*
X132460170Y-106723033D01*
X132426513Y-106702422D01*
X132404952Y-106669650D01*
X132391754Y-106631624D01*
X132377541Y-106579576D01*
X132371913Y-106548433D01*
X132374497Y-106533452D01*
X132383775Y-106529866D01*
X132396397Y-106541200D01*
X132413783Y-106569979D01*
X132422812Y-106588845D01*
X132459406Y-106646394D01*
X132507443Y-106686704D01*
X132562286Y-106710156D01*
X132619294Y-106717135D01*
X132673830Y-106708021D01*
X132721255Y-106683197D01*
X132756930Y-106643047D01*
X132776216Y-106587951D01*
X132778315Y-106559538D01*
X132769840Y-106516163D01*
X132742612Y-106478683D01*
X132693919Y-106444614D01*
X132621053Y-106411472D01*
X132613789Y-106408668D01*
X132533789Y-106375482D01*
X132476089Y-106344628D01*
X132436356Y-106313085D01*
X132410258Y-106277833D01*
X132402346Y-106261257D01*
X132387714Y-106196370D01*
X132397060Y-106136184D01*
X132427246Y-106083760D01*
X132475133Y-106042162D01*
X132537582Y-106014451D01*
X132611455Y-106003690D01*
X132662860Y-106007052D01*
G37*
G36*
X130081394Y-100723559D02*
G01*
X130186064Y-100728863D01*
X130271840Y-100745813D01*
X130345411Y-100776924D01*
X130413469Y-100824712D01*
X130456728Y-100864715D01*
X130517904Y-100935095D01*
X130559699Y-101007294D01*
X130584674Y-101088065D01*
X130595392Y-101184161D01*
X130596252Y-101232540D01*
X130589473Y-101340739D01*
X130568474Y-101431067D01*
X130531001Y-101510041D01*
X130474797Y-101584180D01*
X130474400Y-101584623D01*
X130391317Y-101657109D01*
X130291608Y-101709769D01*
X130178186Y-101741649D01*
X130053962Y-101751797D01*
X129977365Y-101747268D01*
X129876780Y-101723220D01*
X129782282Y-101675837D01*
X129699354Y-101608944D01*
X129633479Y-101526366D01*
X129615753Y-101495027D01*
X129582335Y-101405029D01*
X129564689Y-101302505D01*
X129562999Y-101196136D01*
X129564854Y-101183107D01*
X129669233Y-101183107D01*
X129675077Y-101283151D01*
X129698365Y-101381453D01*
X129739382Y-101474032D01*
X129798415Y-101556905D01*
X129834371Y-101593092D01*
X129920504Y-101654374D01*
X130014791Y-101692619D01*
X130112849Y-101706811D01*
X130210291Y-101695933D01*
X130240052Y-101687188D01*
X130321280Y-101646643D01*
X130388038Y-101584579D01*
X130442128Y-101499316D01*
X130442950Y-101497652D01*
X130481038Y-101390760D01*
X130494498Y-101279063D01*
X130484206Y-101167119D01*
X130451036Y-101059484D01*
X130395863Y-100960715D01*
X130324304Y-100879647D01*
X130274950Y-100840327D01*
X130222764Y-100807840D01*
X130188837Y-100792537D01*
X130118425Y-100776603D01*
X130039631Y-100771429D01*
X129963091Y-100776885D01*
X129899435Y-100792842D01*
X129891650Y-100796136D01*
X129814569Y-100845157D01*
X129753501Y-100912347D01*
X129708731Y-100993723D01*
X129680547Y-101085304D01*
X129669233Y-101183107D01*
X129564854Y-101183107D01*
X129577450Y-101094609D01*
X129605455Y-101012320D01*
X129657293Y-100922589D01*
X129720945Y-100852203D01*
X129802694Y-100794818D01*
X129841031Y-100774497D01*
X129890244Y-100750914D01*
X129928479Y-100735964D01*
X129964878Y-100727708D01*
X130008583Y-100724210D01*
X130068735Y-100723532D01*
X130081394Y-100723559D01*
G37*
G36*
X125529157Y-106016367D02*
G01*
X125548261Y-106019061D01*
X125548987Y-106019540D01*
X125545055Y-106032063D01*
X125526740Y-106050730D01*
X125513315Y-106069626D01*
X125490954Y-106110276D01*
X125461264Y-106169397D01*
X125425852Y-106243708D01*
X125386323Y-106329925D01*
X125348904Y-106414190D01*
X125309494Y-106503496D01*
X125273224Y-106584265D01*
X125241603Y-106653251D01*
X125216139Y-106707207D01*
X125198340Y-106742888D01*
X125189716Y-106757047D01*
X125189542Y-106757135D01*
X125181498Y-106746152D01*
X125164276Y-106713353D01*
X125139370Y-106661904D01*
X125108276Y-106594970D01*
X125072491Y-106515718D01*
X125033509Y-106427312D01*
X125031156Y-106421913D01*
X124984994Y-106316459D01*
X124947745Y-106233156D01*
X124917780Y-106169115D01*
X124893475Y-106121450D01*
X124873200Y-106087274D01*
X124855331Y-106063697D01*
X124838240Y-106047833D01*
X124820301Y-106036795D01*
X124811951Y-106032826D01*
X124805848Y-106026230D01*
X124822513Y-106021358D01*
X124863727Y-106017847D01*
X124891715Y-106016577D01*
X124956466Y-106015600D01*
X124995256Y-106018760D01*
X125009013Y-106026296D01*
X124998659Y-106038450D01*
X124991811Y-106042576D01*
X124972066Y-106062945D01*
X124968154Y-106076482D01*
X124973438Y-106096903D01*
X124987987Y-106135766D01*
X125009853Y-106188823D01*
X125037085Y-106251826D01*
X125067733Y-106320526D01*
X125099846Y-106390675D01*
X125131474Y-106458023D01*
X125160667Y-106518324D01*
X125185474Y-106567327D01*
X125203946Y-106600785D01*
X125214131Y-106614449D01*
X125215071Y-106614372D01*
X125225990Y-106595754D01*
X125244108Y-106556580D01*
X125267464Y-106501870D01*
X125294098Y-106436642D01*
X125322052Y-106365917D01*
X125349364Y-106294713D01*
X125374075Y-106228051D01*
X125394226Y-106170950D01*
X125407855Y-106128428D01*
X125412786Y-106107998D01*
X125415333Y-106072580D01*
X125407175Y-106053128D01*
X125383496Y-106039091D01*
X125380781Y-106037883D01*
X125362782Y-106029055D01*
X125360329Y-106023527D01*
X125376777Y-106020128D01*
X125415477Y-106017684D01*
X125441795Y-106016554D01*
X125491227Y-106015463D01*
X125529157Y-106016367D01*
G37*
G36*
X133833658Y-106008183D02*
G01*
X133939949Y-106032470D01*
X133961418Y-106040161D01*
X134003031Y-106053692D01*
X134035668Y-106060238D01*
X134047459Y-106059706D01*
X134058646Y-106065062D01*
X134067290Y-106092657D01*
X134073500Y-106137517D01*
X134077320Y-106182278D01*
X134078488Y-106214839D01*
X134077056Y-106227204D01*
X134067507Y-106220204D01*
X134049764Y-106196366D01*
X134041847Y-106184026D01*
X133991268Y-106124989D01*
X133922556Y-106076164D01*
X133844155Y-106042148D01*
X133764509Y-106027535D01*
X133753819Y-106027299D01*
X133678859Y-106038579D01*
X133613054Y-106073620D01*
X133563314Y-106121407D01*
X133515393Y-106197040D01*
X133489399Y-106282260D01*
X133484296Y-106372136D01*
X133499050Y-106461735D01*
X133532626Y-106546128D01*
X133583991Y-106620381D01*
X133652110Y-106679564D01*
X133684298Y-106698156D01*
X133745052Y-106717108D01*
X133811510Y-106719204D01*
X133876965Y-106706330D01*
X133934711Y-106680369D01*
X133978042Y-106643207D01*
X133996612Y-106610391D01*
X134011553Y-106548538D01*
X134013914Y-106490594D01*
X134004768Y-106441950D01*
X133985185Y-106407995D01*
X133956240Y-106394119D01*
X133953571Y-106394037D01*
X133927884Y-106389429D01*
X133919277Y-106380454D01*
X133932027Y-106373796D01*
X133967026Y-106369187D01*
X134019395Y-106367204D01*
X134031336Y-106367174D01*
X134085912Y-106367542D01*
X134117195Y-106369099D01*
X134129060Y-106373068D01*
X134125381Y-106380671D01*
X134111058Y-106392341D01*
X134095177Y-106406761D01*
X134085722Y-106424372D01*
X134081224Y-106451880D01*
X134080215Y-106495989D01*
X134080641Y-106531264D01*
X134082562Y-106645321D01*
X133980886Y-106689944D01*
X133892804Y-106721074D01*
X133803768Y-106739160D01*
X133721916Y-106743022D01*
X133667994Y-106735322D01*
X133583235Y-106699910D01*
X133509759Y-106643735D01*
X133453545Y-106571913D01*
X133435814Y-106536658D01*
X133417328Y-106467074D01*
X133412252Y-106384871D01*
X133420326Y-106300908D01*
X133441292Y-106226041D01*
X133443346Y-106221167D01*
X133493226Y-106137252D01*
X133560007Y-106073015D01*
X133640878Y-106029437D01*
X133733032Y-106007499D01*
X133833658Y-106008183D01*
G37*
G36*
X128485135Y-100731570D02*
G01*
X128541216Y-100736275D01*
X128571646Y-100743957D01*
X128576005Y-100754486D01*
X128553871Y-100767732D01*
X128541186Y-100772502D01*
X128507545Y-100790178D01*
X128485835Y-100812006D01*
X128482134Y-100832428D01*
X128478911Y-100877199D01*
X128476254Y-100943507D01*
X128474248Y-101028538D01*
X128472981Y-101129479D01*
X128472539Y-101243516D01*
X128472539Y-101243567D01*
X128472707Y-101361733D01*
X128473303Y-101455586D01*
X128474465Y-101527977D01*
X128476333Y-101581755D01*
X128479044Y-101619773D01*
X128482737Y-101644879D01*
X128487550Y-101659927D01*
X128493126Y-101667369D01*
X128514984Y-101676032D01*
X128555833Y-101679744D01*
X128619142Y-101678754D01*
X128639142Y-101677788D01*
X128749226Y-101664724D01*
X128840287Y-101638691D01*
X128909986Y-101600479D01*
X128935389Y-101577806D01*
X128959628Y-101555273D01*
X128976733Y-101545007D01*
X128977474Y-101544946D01*
X128988279Y-101554558D01*
X128985217Y-101579525D01*
X128971461Y-101614047D01*
X128950184Y-101652324D01*
X128924561Y-101688556D01*
X128897764Y-101716943D01*
X128875777Y-101730812D01*
X128853025Y-101734284D01*
X128809371Y-101737069D01*
X128749564Y-101739168D01*
X128678357Y-101740580D01*
X128600501Y-101741306D01*
X128520748Y-101741344D01*
X128443849Y-101740697D01*
X128374555Y-101739363D01*
X128317618Y-101737342D01*
X128277790Y-101734635D01*
X128259821Y-101731241D01*
X128259371Y-101730807D01*
X128256425Y-101717964D01*
X128257249Y-101717225D01*
X128271361Y-101709954D01*
X128299386Y-101695571D01*
X128302593Y-101693927D01*
X128333428Y-101670354D01*
X128349790Y-101633986D01*
X128352913Y-101619222D01*
X128356336Y-101586360D01*
X128358988Y-101532952D01*
X128360893Y-101463326D01*
X128362075Y-101381816D01*
X128362559Y-101292752D01*
X128362370Y-101200466D01*
X128361532Y-101109288D01*
X128360069Y-101023551D01*
X128358006Y-100947586D01*
X128355367Y-100885724D01*
X128352178Y-100842296D01*
X128348461Y-100821634D01*
X128348403Y-100821521D01*
X128326871Y-100798966D01*
X128292617Y-100778172D01*
X128288077Y-100776181D01*
X128254521Y-100759724D01*
X128243565Y-100747303D01*
X128256188Y-100738528D01*
X128293367Y-100733008D01*
X128356081Y-100730354D01*
X128403823Y-100729973D01*
X128485135Y-100731570D01*
G37*
G36*
X125881961Y-105996151D02*
G01*
X125888540Y-106008149D01*
X125897147Y-106027752D01*
X125913993Y-106068843D01*
X125937540Y-106127566D01*
X125966248Y-106200063D01*
X125998577Y-106282479D01*
X126020868Y-106339706D01*
X126063774Y-106448671D01*
X126099114Y-106534514D01*
X126128264Y-106599766D01*
X126152600Y-106646958D01*
X126173497Y-106678620D01*
X126192329Y-106697283D01*
X126210472Y-106705479D01*
X126220148Y-106706444D01*
X126240900Y-106712614D01*
X126244946Y-106720027D01*
X126232123Y-106726535D01*
X126196629Y-106731178D01*
X126142922Y-106733459D01*
X126122700Y-106733610D01*
X126061803Y-106731882D01*
X126020346Y-106727134D01*
X126000321Y-106720016D01*
X126003716Y-106711179D01*
X126027620Y-106702508D01*
X126047621Y-106689955D01*
X126053270Y-106664450D01*
X126044314Y-106622968D01*
X126020501Y-106562484D01*
X126014888Y-106549942D01*
X125974992Y-106461952D01*
X125838506Y-106461952D01*
X125702021Y-106461952D01*
X125660287Y-106544627D01*
X125633255Y-106606718D01*
X125624468Y-106651587D01*
X125633873Y-106682095D01*
X125657486Y-106699478D01*
X125683222Y-106714207D01*
X125683096Y-106724680D01*
X125656775Y-106731073D01*
X125603928Y-106733562D01*
X125592967Y-106733610D01*
X125546100Y-106732636D01*
X125512141Y-106730074D01*
X125497961Y-106726462D01*
X125497887Y-106726167D01*
X125507025Y-106713024D01*
X125529275Y-106691025D01*
X125531756Y-106688814D01*
X125548197Y-106666575D01*
X125573672Y-106621899D01*
X125606825Y-106557450D01*
X125646303Y-106475892D01*
X125674646Y-106414672D01*
X125728796Y-106414672D01*
X125741306Y-106417705D01*
X125774551Y-106419989D01*
X125822103Y-106421138D01*
X125837459Y-106421203D01*
X125893795Y-106420148D01*
X125927577Y-106416440D01*
X125943354Y-106409264D01*
X125946122Y-106401755D01*
X125941499Y-106379953D01*
X125929426Y-106340929D01*
X125912594Y-106292039D01*
X125893696Y-106240638D01*
X125875425Y-106194080D01*
X125860473Y-106159722D01*
X125852338Y-106145556D01*
X125844439Y-106153898D01*
X125828925Y-106181408D01*
X125808527Y-106222136D01*
X125785977Y-106270133D01*
X125764007Y-106319447D01*
X125745348Y-106364129D01*
X125732731Y-106398228D01*
X125728796Y-106414672D01*
X125674646Y-106414672D01*
X125690750Y-106379889D01*
X125706104Y-106345878D01*
X125745207Y-106258989D01*
X125781256Y-106179339D01*
X125812575Y-106110600D01*
X125837484Y-106056443D01*
X125854308Y-106020538D01*
X125860756Y-106007530D01*
X125872705Y-105989829D01*
X125881961Y-105996151D01*
G37*
G36*
X131062325Y-106014748D02*
G01*
X131129522Y-106017252D01*
X131191426Y-106021382D01*
X131242638Y-106027118D01*
X131253270Y-106028824D01*
X131349984Y-106057226D01*
X131428228Y-106105543D01*
X131488028Y-106173792D01*
X131504420Y-106202032D01*
X131535816Y-106289782D01*
X131543351Y-106380899D01*
X131528686Y-106470580D01*
X131493480Y-106554021D01*
X131439396Y-106626419D01*
X131368092Y-106682969D01*
X131331737Y-106701574D01*
X131300865Y-106711881D01*
X131259312Y-106719561D01*
X131202476Y-106725129D01*
X131125759Y-106729102D01*
X131070267Y-106730879D01*
X130998762Y-106732094D01*
X130937940Y-106731735D01*
X130892453Y-106729942D01*
X130866951Y-106726853D01*
X130863128Y-106724699D01*
X130874086Y-106710846D01*
X130893689Y-106699478D01*
X130903674Y-106694371D01*
X130911257Y-106686642D01*
X130916824Y-106672788D01*
X130920760Y-106649303D01*
X130923450Y-106612683D01*
X130925282Y-106559423D01*
X130926641Y-106486020D01*
X130927564Y-106415526D01*
X130996812Y-106415526D01*
X130998348Y-106492222D01*
X131001482Y-106560623D01*
X131006229Y-106615710D01*
X131012606Y-106652463D01*
X131018462Y-106664974D01*
X131064258Y-106689020D01*
X131130431Y-106701057D01*
X131205510Y-106702160D01*
X131261693Y-106697898D01*
X131302604Y-106687756D01*
X131340030Y-106668277D01*
X131354922Y-106658311D01*
X131401015Y-106617035D01*
X131439140Y-106566901D01*
X131444754Y-106556850D01*
X131461104Y-106520925D01*
X131469884Y-106486492D01*
X131472579Y-106443890D01*
X131470869Y-106387246D01*
X131456972Y-106285279D01*
X131425391Y-106202649D01*
X131374510Y-106136790D01*
X131302714Y-106085134D01*
X131270614Y-106069147D01*
X131218691Y-106052147D01*
X131159667Y-106042635D01*
X131101672Y-106040836D01*
X131052838Y-106046975D01*
X131021294Y-106061278D01*
X131020301Y-106062227D01*
X131012569Y-106083290D01*
X131006344Y-106126173D01*
X131001640Y-106185858D01*
X130998473Y-106257324D01*
X130996859Y-106335553D01*
X130996812Y-106415526D01*
X130927564Y-106415526D01*
X130927912Y-106388968D01*
X130927917Y-106388614D01*
X130928928Y-106289794D01*
X130929064Y-106214546D01*
X130928112Y-106159286D01*
X130925861Y-106120428D01*
X130922098Y-106094388D01*
X130916612Y-106077580D01*
X130909190Y-106066419D01*
X130908833Y-106066021D01*
X130881510Y-106046341D01*
X130861022Y-106040882D01*
X130840120Y-106034770D01*
X130835962Y-106027299D01*
X130848617Y-106021380D01*
X130882981Y-106017185D01*
X130933654Y-106014695D01*
X130995235Y-106013889D01*
X131062325Y-106014748D01*
G37*
G36*
X132194251Y-106053354D02*
G01*
X132189935Y-106098761D01*
X132178399Y-106128123D01*
X132165632Y-106135962D01*
X132155510Y-106124670D01*
X132153502Y-106110902D01*
X132146184Y-106079921D01*
X132122235Y-106058808D01*
X132078662Y-106046311D01*
X132012472Y-106041176D01*
X131986301Y-106040882D01*
X131932192Y-106041183D01*
X131895033Y-106044925D01*
X131871831Y-106056373D01*
X131859590Y-106079787D01*
X131855315Y-106119431D01*
X131856013Y-106179567D01*
X131857475Y-106224251D01*
X131861470Y-106346497D01*
X131949339Y-106350618D01*
X132016847Y-106351812D01*
X132062170Y-106347007D01*
X132089879Y-106334899D01*
X132104547Y-106314181D01*
X132107227Y-106305542D01*
X132117605Y-106276633D01*
X132126957Y-106272982D01*
X132134368Y-106292678D01*
X132138922Y-106333812D01*
X132139919Y-106373663D01*
X132137869Y-106428467D01*
X132132330Y-106463149D01*
X132124218Y-106475799D01*
X132114449Y-106464509D01*
X132107227Y-106441784D01*
X132095760Y-106418043D01*
X132072711Y-106403328D01*
X132033509Y-106396334D01*
X131973581Y-106395754D01*
X131949339Y-106396708D01*
X131861470Y-106400829D01*
X131857565Y-106526413D01*
X131856454Y-106599338D01*
X131860151Y-106649436D01*
X131871204Y-106680950D01*
X131892160Y-106698123D01*
X131925567Y-106705198D01*
X131965639Y-106706444D01*
X132062693Y-106698618D01*
X132139767Y-106674655D01*
X132196961Y-106635998D01*
X132226891Y-106609070D01*
X132242267Y-106599946D01*
X132247886Y-106607362D01*
X132248582Y-106622405D01*
X132239288Y-106646787D01*
X132216091Y-106677588D01*
X132206980Y-106686924D01*
X132165377Y-106726818D01*
X131942113Y-106731128D01*
X131867693Y-106731917D01*
X131803789Y-106731357D01*
X131754883Y-106729590D01*
X131725458Y-106726754D01*
X131718849Y-106724162D01*
X131729796Y-106710729D01*
X131749411Y-106699478D01*
X131759345Y-106694405D01*
X131766901Y-106686737D01*
X131772460Y-106672990D01*
X131776401Y-106649683D01*
X131779101Y-106613334D01*
X131780940Y-106560460D01*
X131782297Y-106487581D01*
X131783550Y-106391214D01*
X131783625Y-106385077D01*
X131784612Y-106285214D01*
X131784706Y-106209034D01*
X131783713Y-106153065D01*
X131781440Y-106113833D01*
X131777693Y-106087866D01*
X131772281Y-106071690D01*
X131765676Y-106062483D01*
X131736813Y-106044806D01*
X131717879Y-106040882D01*
X131696340Y-106035006D01*
X131691684Y-106027299D01*
X131704964Y-106022161D01*
X131743637Y-106018155D01*
X131805947Y-106015376D01*
X131890140Y-106013920D01*
X131942967Y-106013717D01*
X132194251Y-106013717D01*
X132194251Y-106053354D01*
G37*
G36*
X122912241Y-106015219D02*
G01*
X122952058Y-106019350D01*
X122970684Y-106025549D01*
X122971470Y-106027299D01*
X122960502Y-106039428D01*
X122951573Y-106040882D01*
X122937165Y-106044040D01*
X122925891Y-106055403D01*
X122917385Y-106077810D01*
X122911282Y-106114095D01*
X122907216Y-106167096D01*
X122904822Y-106239649D01*
X122903735Y-106334591D01*
X122903555Y-106413519D01*
X122903061Y-106506013D01*
X122901666Y-106587349D01*
X122899503Y-106654021D01*
X122896708Y-106702526D01*
X122893412Y-106729357D01*
X122891373Y-106733610D01*
X122879455Y-106723828D01*
X122852168Y-106696278D01*
X122812015Y-106653652D01*
X122761498Y-106598641D01*
X122703119Y-106533936D01*
X122645135Y-106468743D01*
X122582121Y-106397645D01*
X122525144Y-106333760D01*
X122476622Y-106279767D01*
X122438975Y-106238346D01*
X122414620Y-106212178D01*
X122406034Y-106203877D01*
X122404404Y-106216737D01*
X122402994Y-106252426D01*
X122401894Y-106306609D01*
X122401197Y-106374948D01*
X122400989Y-106442757D01*
X122400989Y-106681638D01*
X122441737Y-106697019D01*
X122473263Y-106711698D01*
X122479118Y-106722470D01*
X122458938Y-106729533D01*
X122412356Y-106733082D01*
X122373823Y-106733610D01*
X122323360Y-106732417D01*
X122285361Y-106729247D01*
X122266251Y-106724713D01*
X122265160Y-106723248D01*
X122276068Y-106710479D01*
X122295480Y-106699478D01*
X122317632Y-106686916D01*
X122334159Y-106669071D01*
X122345768Y-106642268D01*
X122353164Y-106602833D01*
X122357053Y-106547094D01*
X122358140Y-106471375D01*
X122357227Y-106378016D01*
X122355603Y-106290572D01*
X122353554Y-106225927D01*
X122350578Y-106179715D01*
X122346171Y-106147571D01*
X122339834Y-106125127D01*
X122331064Y-106108018D01*
X122325217Y-106099567D01*
X122297074Y-106068984D01*
X122268208Y-106048183D01*
X122267490Y-106047849D01*
X122242151Y-106032094D01*
X122243083Y-106020660D01*
X122269600Y-106014510D01*
X122291809Y-106013717D01*
X122308041Y-106014267D01*
X122323165Y-106017391D01*
X122339574Y-106025292D01*
X122359661Y-106040179D01*
X122385819Y-106064256D01*
X122420441Y-106099730D01*
X122465919Y-106148807D01*
X122524647Y-106213693D01*
X122599017Y-106296594D01*
X122600820Y-106298606D01*
X122856015Y-106583496D01*
X122859743Y-106358876D01*
X122860630Y-106262204D01*
X122859065Y-106189015D01*
X122854171Y-106135669D01*
X122845067Y-106098530D01*
X122830875Y-106073959D01*
X122810717Y-106058319D01*
X122784705Y-106048261D01*
X122750587Y-106035568D01*
X122743175Y-106025618D01*
X122762135Y-106018571D01*
X122807130Y-106014591D01*
X122856015Y-106013717D01*
X122912241Y-106015219D01*
G37*
G36*
X123767963Y-106015219D02*
G01*
X123807780Y-106019350D01*
X123826406Y-106025549D01*
X123827192Y-106027299D01*
X123816224Y-106039428D01*
X123807295Y-106040882D01*
X123792887Y-106044040D01*
X123781613Y-106055403D01*
X123773107Y-106077810D01*
X123767004Y-106114095D01*
X123762938Y-106167096D01*
X123760544Y-106239649D01*
X123759457Y-106334591D01*
X123759277Y-106413519D01*
X123758783Y-106506013D01*
X123757387Y-106587349D01*
X123755225Y-106654021D01*
X123752429Y-106702526D01*
X123749133Y-106729357D01*
X123747095Y-106733610D01*
X123735177Y-106723828D01*
X123707890Y-106696278D01*
X123667737Y-106653652D01*
X123617220Y-106598641D01*
X123558841Y-106533936D01*
X123500857Y-106468743D01*
X123437843Y-106397645D01*
X123380866Y-106333760D01*
X123332344Y-106279767D01*
X123294697Y-106238346D01*
X123270342Y-106212178D01*
X123261756Y-106203877D01*
X123260126Y-106216737D01*
X123258716Y-106252426D01*
X123257616Y-106306609D01*
X123256919Y-106374948D01*
X123256710Y-106442757D01*
X123256710Y-106681638D01*
X123297459Y-106697019D01*
X123328985Y-106711698D01*
X123334840Y-106722470D01*
X123314660Y-106729533D01*
X123268078Y-106733082D01*
X123229545Y-106733610D01*
X123179082Y-106732417D01*
X123141082Y-106729247D01*
X123121973Y-106724713D01*
X123120882Y-106723248D01*
X123131790Y-106710479D01*
X123151202Y-106699478D01*
X123173354Y-106686916D01*
X123189881Y-106669071D01*
X123201490Y-106642268D01*
X123208886Y-106602833D01*
X123212775Y-106547094D01*
X123213862Y-106471375D01*
X123212949Y-106378016D01*
X123211325Y-106290572D01*
X123209276Y-106225927D01*
X123206299Y-106179715D01*
X123201893Y-106147571D01*
X123195556Y-106125127D01*
X123186786Y-106108018D01*
X123180939Y-106099567D01*
X123152796Y-106068984D01*
X123123930Y-106048183D01*
X123123212Y-106047849D01*
X123097873Y-106032094D01*
X123098805Y-106020660D01*
X123125322Y-106014510D01*
X123147531Y-106013717D01*
X123163763Y-106014267D01*
X123178887Y-106017391D01*
X123195296Y-106025292D01*
X123215383Y-106040179D01*
X123241541Y-106064256D01*
X123276163Y-106099730D01*
X123321641Y-106148807D01*
X123380369Y-106213693D01*
X123454739Y-106296594D01*
X123456542Y-106298606D01*
X123711737Y-106583496D01*
X123715465Y-106358876D01*
X123716352Y-106262204D01*
X123714787Y-106189015D01*
X123709893Y-106135669D01*
X123700789Y-106098530D01*
X123686597Y-106073959D01*
X123666439Y-106058319D01*
X123640427Y-106048261D01*
X123606309Y-106035568D01*
X123598897Y-106025618D01*
X123617857Y-106018571D01*
X123662852Y-106014591D01*
X123711737Y-106013717D01*
X123767963Y-106015219D01*
G37*
G36*
X128970209Y-106015219D02*
G01*
X129010026Y-106019350D01*
X129028652Y-106025549D01*
X129029438Y-106027299D01*
X129018470Y-106039428D01*
X129009541Y-106040882D01*
X128995133Y-106044040D01*
X128983859Y-106055403D01*
X128975353Y-106077810D01*
X128969250Y-106114095D01*
X128965184Y-106167096D01*
X128962790Y-106239649D01*
X128961703Y-106334591D01*
X128961523Y-106413519D01*
X128961029Y-106506013D01*
X128959633Y-106587349D01*
X128957471Y-106654021D01*
X128954675Y-106702526D01*
X128951379Y-106729357D01*
X128949341Y-106733610D01*
X128937423Y-106723828D01*
X128910136Y-106696278D01*
X128869983Y-106653652D01*
X128819466Y-106598641D01*
X128761087Y-106533936D01*
X128703103Y-106468743D01*
X128640089Y-106397645D01*
X128583112Y-106333760D01*
X128534590Y-106279767D01*
X128496943Y-106238346D01*
X128472588Y-106212178D01*
X128464002Y-106203877D01*
X128462372Y-106216737D01*
X128460962Y-106252426D01*
X128459862Y-106306609D01*
X128459165Y-106374948D01*
X128458956Y-106442757D01*
X128458956Y-106681638D01*
X128499705Y-106697019D01*
X128531231Y-106711698D01*
X128537086Y-106722470D01*
X128516906Y-106729533D01*
X128470323Y-106733082D01*
X128431791Y-106733610D01*
X128381328Y-106732417D01*
X128343328Y-106729247D01*
X128324219Y-106724713D01*
X128323128Y-106723248D01*
X128334036Y-106710479D01*
X128353448Y-106699478D01*
X128375600Y-106686916D01*
X128392127Y-106669071D01*
X128403736Y-106642268D01*
X128411132Y-106602833D01*
X128415021Y-106547094D01*
X128416108Y-106471375D01*
X128415195Y-106378016D01*
X128413571Y-106290572D01*
X128411522Y-106225927D01*
X128408545Y-106179715D01*
X128404139Y-106147571D01*
X128397802Y-106125127D01*
X128389032Y-106108018D01*
X128383185Y-106099567D01*
X128355042Y-106068984D01*
X128326176Y-106048183D01*
X128325458Y-106047849D01*
X128300119Y-106032094D01*
X128301051Y-106020660D01*
X128327568Y-106014510D01*
X128349777Y-106013717D01*
X128366009Y-106014267D01*
X128381133Y-106017391D01*
X128397542Y-106025292D01*
X128417629Y-106040179D01*
X128443787Y-106064256D01*
X128478409Y-106099730D01*
X128523887Y-106148807D01*
X128582615Y-106213693D01*
X128656985Y-106296594D01*
X128658788Y-106298606D01*
X128913983Y-106583496D01*
X128917711Y-106358876D01*
X128918598Y-106262204D01*
X128917033Y-106189015D01*
X128912139Y-106135669D01*
X128903035Y-106098530D01*
X128888843Y-106073959D01*
X128868685Y-106058319D01*
X128842673Y-106048261D01*
X128808555Y-106035568D01*
X128801143Y-106025618D01*
X128820103Y-106018571D01*
X128865098Y-106014591D01*
X128913983Y-106013717D01*
X128970209Y-106015219D01*
G37*
G36*
X134933097Y-106015219D02*
G01*
X134972913Y-106019350D01*
X134991539Y-106025549D01*
X134992325Y-106027299D01*
X134981358Y-106039428D01*
X134972429Y-106040882D01*
X134958021Y-106044040D01*
X134946746Y-106055403D01*
X134938240Y-106077810D01*
X134932137Y-106114095D01*
X134928072Y-106167096D01*
X134925678Y-106239649D01*
X134924591Y-106334591D01*
X134924411Y-106413519D01*
X134923916Y-106506013D01*
X134922521Y-106587349D01*
X134920359Y-106654021D01*
X134917563Y-106702526D01*
X134914267Y-106729357D01*
X134912229Y-106733610D01*
X134900310Y-106723828D01*
X134873023Y-106696278D01*
X134832870Y-106653652D01*
X134782353Y-106598641D01*
X134723975Y-106533936D01*
X134665990Y-106468743D01*
X134602977Y-106397645D01*
X134546000Y-106333760D01*
X134497478Y-106279767D01*
X134459830Y-106238346D01*
X134435476Y-106212178D01*
X134426889Y-106203877D01*
X134425260Y-106216737D01*
X134423850Y-106252426D01*
X134422750Y-106306609D01*
X134422052Y-106374948D01*
X134421844Y-106442757D01*
X134421844Y-106681638D01*
X134462593Y-106697019D01*
X134494119Y-106711698D01*
X134499974Y-106722470D01*
X134479794Y-106729533D01*
X134433211Y-106733082D01*
X134394678Y-106733610D01*
X134344216Y-106732417D01*
X134306216Y-106729247D01*
X134287106Y-106724713D01*
X134286015Y-106723248D01*
X134296924Y-106710479D01*
X134316336Y-106699478D01*
X134338487Y-106686916D01*
X134355015Y-106669071D01*
X134366624Y-106642268D01*
X134374020Y-106602833D01*
X134377909Y-106547094D01*
X134378996Y-106471375D01*
X134378083Y-106378016D01*
X134376459Y-106290572D01*
X134374410Y-106225927D01*
X134371433Y-106179715D01*
X134367027Y-106147571D01*
X134360690Y-106125127D01*
X134351919Y-106108018D01*
X134346073Y-106099567D01*
X134317929Y-106068984D01*
X134289064Y-106048183D01*
X134288345Y-106047849D01*
X134263006Y-106032094D01*
X134263939Y-106020660D01*
X134290456Y-106014510D01*
X134312665Y-106013717D01*
X134328897Y-106014267D01*
X134344021Y-106017391D01*
X134360430Y-106025292D01*
X134380517Y-106040179D01*
X134406675Y-106064256D01*
X134441297Y-106099730D01*
X134486775Y-106148807D01*
X134545503Y-106213693D01*
X134619873Y-106296594D01*
X134621676Y-106298606D01*
X134876871Y-106583496D01*
X134880599Y-106358876D01*
X134881486Y-106262204D01*
X134879921Y-106189015D01*
X134875026Y-106135669D01*
X134865923Y-106098530D01*
X134851731Y-106073959D01*
X134831573Y-106058319D01*
X134805561Y-106048261D01*
X134771442Y-106035568D01*
X134764031Y-106025618D01*
X134782991Y-106018571D01*
X134827986Y-106014591D01*
X134876871Y-106013717D01*
X134933097Y-106015219D01*
G37*
G36*
X134798697Y-100819515D02*
G01*
X134792908Y-100867655D01*
X134784848Y-100905436D01*
X134776908Y-100923658D01*
X134766397Y-100930532D01*
X134758233Y-100923033D01*
X134749816Y-100896628D01*
X134742016Y-100862798D01*
X134731942Y-100836190D01*
X134712517Y-100817344D01*
X134679631Y-100804924D01*
X134629174Y-100797590D01*
X134557038Y-100794006D01*
X134528973Y-100793436D01*
X134460260Y-100793091D01*
X134414019Y-100794965D01*
X134385611Y-100799573D01*
X134370397Y-100807433D01*
X134367050Y-100811471D01*
X134362358Y-100832197D01*
X134358952Y-100874228D01*
X134357121Y-100931721D01*
X134357153Y-100998831D01*
X134357318Y-101008422D01*
X134360721Y-101185000D01*
X134486305Y-101188905D01*
X134560386Y-101189318D01*
X134612388Y-101184092D01*
X134647100Y-101171610D01*
X134669308Y-101150260D01*
X134682321Y-101122825D01*
X134696228Y-101091323D01*
X134706945Y-101086021D01*
X134714544Y-101107118D01*
X134719094Y-101154815D01*
X134720666Y-101229315D01*
X134720668Y-101232540D01*
X134719446Y-101302249D01*
X134715950Y-101351690D01*
X134710431Y-101378160D01*
X134706745Y-101381952D01*
X134694575Y-101370215D01*
X134684830Y-101341987D01*
X134684812Y-101341897D01*
X134674440Y-101306654D01*
X134656890Y-101283001D01*
X134627491Y-101268990D01*
X134581577Y-101262671D01*
X134514480Y-101262095D01*
X134494914Y-101262588D01*
X134360721Y-101266497D01*
X134356951Y-101451917D01*
X134355588Y-101536640D01*
X134357255Y-101597847D01*
X134364630Y-101639184D01*
X134380388Y-101664298D01*
X134407206Y-101676838D01*
X134447761Y-101680449D01*
X134504728Y-101678779D01*
X134522802Y-101677918D01*
X134632046Y-101665192D01*
X134722819Y-101638815D01*
X134792634Y-101599633D01*
X134816779Y-101577806D01*
X134846008Y-101551312D01*
X134863115Y-101548162D01*
X134869825Y-101568324D01*
X134870079Y-101576866D01*
X134861801Y-101606289D01*
X134840976Y-101646115D01*
X134813619Y-101686908D01*
X134785745Y-101719235D01*
X134772501Y-101729909D01*
X134754476Y-101733106D01*
X134714586Y-101735817D01*
X134657523Y-101738018D01*
X134587976Y-101739686D01*
X134510639Y-101740799D01*
X134430203Y-101741332D01*
X134351358Y-101741262D01*
X134278797Y-101740567D01*
X134217211Y-101739222D01*
X134171291Y-101737205D01*
X134145729Y-101734492D01*
X134142119Y-101733041D01*
X134149080Y-101721384D01*
X134173118Y-101702983D01*
X134183725Y-101696405D01*
X134216157Y-101670859D01*
X134236719Y-101642875D01*
X134238653Y-101637348D01*
X134240543Y-101616021D01*
X134241990Y-101571303D01*
X134242959Y-101506963D01*
X134243415Y-101426772D01*
X134243325Y-101334502D01*
X134242654Y-101233922D01*
X134242487Y-101216965D01*
X134241194Y-101103125D01*
X134239787Y-101013322D01*
X134238045Y-100944427D01*
X134235751Y-100893311D01*
X134232684Y-100856845D01*
X134228626Y-100831901D01*
X134223357Y-100815349D01*
X134216659Y-100804062D01*
X134213287Y-100800050D01*
X134184171Y-100777400D01*
X134160019Y-100768085D01*
X134134685Y-100757460D01*
X134126348Y-100746952D01*
X134130187Y-100741523D01*
X134147363Y-100737306D01*
X134180365Y-100734176D01*
X134231679Y-100732009D01*
X134303795Y-100730677D01*
X134399199Y-100730057D01*
X134463321Y-100729973D01*
X134805884Y-100729973D01*
X134798697Y-100819515D01*
G37*
G36*
X125688495Y-100720316D02*
G01*
X125705245Y-100755989D01*
X125729568Y-100811287D01*
X125760264Y-100883388D01*
X125796132Y-100969470D01*
X125835972Y-101066712D01*
X125878583Y-101172291D01*
X125880676Y-101177516D01*
X125923843Y-101284489D01*
X125964713Y-101384171D01*
X126002009Y-101473571D01*
X126034456Y-101549698D01*
X126060781Y-101609563D01*
X126079708Y-101650173D01*
X126089962Y-101668539D01*
X126090030Y-101668615D01*
X126119248Y-101688731D01*
X126158119Y-101702315D01*
X126159113Y-101702507D01*
X126188466Y-101711907D01*
X126200752Y-101723788D01*
X126200513Y-101725785D01*
X126185831Y-101732330D01*
X126150905Y-101737170D01*
X126102023Y-101740297D01*
X126045471Y-101741702D01*
X125987536Y-101741377D01*
X125934505Y-101739312D01*
X125892664Y-101735499D01*
X125868301Y-101729930D01*
X125864624Y-101726248D01*
X125876121Y-101711561D01*
X125904098Y-101696877D01*
X125907093Y-101695794D01*
X125935897Y-101682358D01*
X125944499Y-101664199D01*
X125941990Y-101643530D01*
X125931604Y-101605287D01*
X125914311Y-101554479D01*
X125892964Y-101498196D01*
X125870417Y-101443527D01*
X125849522Y-101397561D01*
X125833133Y-101367388D01*
X125828373Y-101361224D01*
X125813236Y-101352440D01*
X125785716Y-101346494D01*
X125741611Y-101342954D01*
X125676720Y-101341384D01*
X125634250Y-101341203D01*
X125555681Y-101341604D01*
X125498829Y-101344907D01*
X125458246Y-101354263D01*
X125428483Y-101372822D01*
X125404093Y-101403734D01*
X125379627Y-101450151D01*
X125355502Y-101502400D01*
X125326615Y-101572372D01*
X125313682Y-101623511D01*
X125317010Y-101659189D01*
X125336904Y-101682777D01*
X125373194Y-101697525D01*
X125402155Y-101709512D01*
X125413189Y-101723517D01*
X125412858Y-101725328D01*
X125398219Y-101732302D01*
X125364083Y-101737483D01*
X125317278Y-101740800D01*
X125264632Y-101742180D01*
X125212970Y-101741549D01*
X125169121Y-101738837D01*
X125139911Y-101733970D01*
X125131672Y-101728315D01*
X125142502Y-101712865D01*
X125168581Y-101692001D01*
X125175367Y-101687567D01*
X125187931Y-101677567D01*
X125201903Y-101661459D01*
X125218511Y-101636916D01*
X125238985Y-101601614D01*
X125264553Y-101553224D01*
X125296444Y-101489423D01*
X125335886Y-101407885D01*
X125384108Y-101306282D01*
X125399689Y-101273106D01*
X125477435Y-101273106D01*
X125477555Y-101273357D01*
X125493339Y-101278151D01*
X125529414Y-101281644D01*
X125578950Y-101283812D01*
X125635113Y-101284635D01*
X125691073Y-101284090D01*
X125739996Y-101282156D01*
X125775053Y-101278811D01*
X125789260Y-101274355D01*
X125787184Y-101258387D01*
X125776526Y-101223623D01*
X125759461Y-101175494D01*
X125738163Y-101119435D01*
X125714808Y-101060879D01*
X125691571Y-101005259D01*
X125670628Y-100958009D01*
X125654152Y-100924561D01*
X125644321Y-100910348D01*
X125643486Y-100910229D01*
X125633298Y-100923498D01*
X125615250Y-100956209D01*
X125591827Y-101002928D01*
X125565510Y-101058221D01*
X125538783Y-101116654D01*
X125514129Y-101172793D01*
X125494031Y-101221204D01*
X125480972Y-101256453D01*
X125477435Y-101273106D01*
X125399689Y-101273106D01*
X125442339Y-101182290D01*
X125442720Y-101181476D01*
X125492612Y-101075725D01*
X125539330Y-100978295D01*
X125581564Y-100891805D01*
X125618001Y-100818872D01*
X125647328Y-100762111D01*
X125668235Y-100724142D01*
X125679410Y-100707581D01*
X125680520Y-100707090D01*
X125688495Y-100720316D01*
G37*
G36*
X129871531Y-106025248D02*
G01*
X129906652Y-106033215D01*
X129932980Y-106032103D01*
X129933082Y-106032064D01*
X129945286Y-106032742D01*
X129951245Y-106050324D01*
X129952647Y-106089840D01*
X129952644Y-106090365D01*
X129952213Y-106156337D01*
X129924068Y-106118604D01*
X129882532Y-106076744D01*
X129836415Y-106051708D01*
X129790854Y-106043348D01*
X129750983Y-106051519D01*
X129721937Y-106076072D01*
X129708852Y-106116861D01*
X129708582Y-106124772D01*
X129718319Y-106153596D01*
X129745524Y-106196669D01*
X129787183Y-106250391D01*
X129840286Y-106311162D01*
X129901822Y-106375380D01*
X129968778Y-106439446D01*
X129981232Y-106450737D01*
X130030941Y-106494103D01*
X130064493Y-106518294D01*
X130085125Y-106523155D01*
X130096076Y-106508530D01*
X130100585Y-106474264D01*
X130101531Y-106444973D01*
X130093555Y-106399177D01*
X130071450Y-106362140D01*
X130040628Y-106341587D01*
X130027780Y-106339706D01*
X130009704Y-106332371D01*
X130007406Y-106326123D01*
X130020068Y-106319316D01*
X130054440Y-106314559D01*
X130105098Y-106312561D01*
X130111382Y-106312540D01*
X130163366Y-106312905D01*
X130192557Y-106314882D01*
X130203329Y-106319795D01*
X130200052Y-106328968D01*
X130192993Y-106337254D01*
X130177566Y-106364675D01*
X130163147Y-106407047D01*
X130157213Y-106432700D01*
X130146669Y-106478890D01*
X130134789Y-106517568D01*
X130128991Y-106531100D01*
X130121835Y-106550779D01*
X130125553Y-106569254D01*
X130143307Y-106590366D01*
X130178260Y-106617953D01*
X130229518Y-106653151D01*
X130277582Y-106683207D01*
X130311910Y-106698652D01*
X130339666Y-106702227D01*
X130353097Y-106700466D01*
X130379187Y-106696816D01*
X130382777Y-106702210D01*
X130376405Y-106709585D01*
X130352582Y-106719683D01*
X130310296Y-106725536D01*
X130281329Y-106726393D01*
X130229684Y-106723224D01*
X130188988Y-106711394D01*
X130145005Y-106686401D01*
X130136132Y-106680490D01*
X130098229Y-106655617D01*
X130074273Y-106644295D01*
X130055719Y-106644843D01*
X130034020Y-106655581D01*
X130027890Y-106659194D01*
X129970720Y-106691349D01*
X129926333Y-106711161D01*
X129885376Y-106722032D01*
X129841049Y-106727185D01*
X129791042Y-106728179D01*
X129745370Y-106724782D01*
X129728956Y-106721688D01*
X129644329Y-106688520D01*
X129581521Y-106639254D01*
X129540649Y-106574022D01*
X129521826Y-106492953D01*
X129521167Y-106484091D01*
X129520240Y-106443736D01*
X129585849Y-106443736D01*
X129598736Y-106506379D01*
X129622370Y-106545444D01*
X129661188Y-106588132D01*
X129706211Y-106625656D01*
X129742078Y-106646679D01*
X129798399Y-106661125D01*
X129865702Y-106664143D01*
X129930321Y-106655731D01*
X129958644Y-106646707D01*
X129997844Y-106626581D01*
X130011438Y-106606738D01*
X130000037Y-106582537D01*
X129970739Y-106554729D01*
X129939818Y-106527039D01*
X129896329Y-106485916D01*
X129846611Y-106437433D01*
X129807511Y-106398339D01*
X129761915Y-106353805D01*
X129721746Y-106317544D01*
X129691529Y-106293449D01*
X129676285Y-106285374D01*
X129655611Y-106295060D01*
X129628632Y-106319126D01*
X129621501Y-106327165D01*
X129593484Y-106380249D01*
X129585849Y-106443736D01*
X129520240Y-106443736D01*
X129519980Y-106432407D01*
X129525729Y-106396296D01*
X129540707Y-106364566D01*
X129547972Y-106353289D01*
X129582180Y-106315294D01*
X129624418Y-106284144D01*
X129630650Y-106280865D01*
X129661946Y-106264104D01*
X129672514Y-106251187D01*
X129666428Y-106234878D01*
X129661032Y-106226907D01*
X129642698Y-106180298D01*
X129642456Y-106127156D01*
X129659475Y-106079039D01*
X129672919Y-106061727D01*
X129714860Y-106035453D01*
X129771218Y-106019928D01*
X129830666Y-106017232D01*
X129871531Y-106025248D01*
G37*
G36*
X124432309Y-100730517D02*
G01*
X124477981Y-100732518D01*
X124504960Y-100736527D01*
X124517476Y-100743095D01*
X124519919Y-100750348D01*
X124509046Y-100768355D01*
X124499545Y-100770722D01*
X124475442Y-100779713D01*
X124452005Y-100797888D01*
X124444199Y-100806855D01*
X124438049Y-100818422D01*
X124433359Y-100835679D01*
X124429931Y-100861720D01*
X124427569Y-100899638D01*
X124426076Y-100952525D01*
X124425254Y-101023475D01*
X124424907Y-101115580D01*
X124424839Y-101224638D01*
X124425128Y-101327054D01*
X124425944Y-101421313D01*
X124427214Y-101503804D01*
X124428862Y-101570913D01*
X124430813Y-101619028D01*
X124432992Y-101644536D01*
X124433591Y-101647030D01*
X124450635Y-101665666D01*
X124483751Y-101686687D01*
X124502375Y-101695572D01*
X124535925Y-101712370D01*
X124554591Y-101726532D01*
X124556044Y-101731601D01*
X124539895Y-101736827D01*
X124503389Y-101740152D01*
X124452911Y-101741705D01*
X124394842Y-101741614D01*
X124335565Y-101740007D01*
X124281465Y-101737012D01*
X124238923Y-101732758D01*
X124214323Y-101727373D01*
X124210823Y-101724663D01*
X124218239Y-101710353D01*
X124240822Y-101700099D01*
X124268187Y-101690374D01*
X124288104Y-101674374D01*
X124301714Y-101648162D01*
X124310158Y-101607802D01*
X124314576Y-101549359D01*
X124316108Y-101468895D01*
X124316176Y-101440053D01*
X124316176Y-101246123D01*
X124037726Y-101246123D01*
X123759277Y-101246123D01*
X123759277Y-101448203D01*
X123759605Y-101531157D01*
X123761583Y-101591293D01*
X123766708Y-101632960D01*
X123776474Y-101660504D01*
X123792375Y-101678274D01*
X123815907Y-101690618D01*
X123846234Y-101701130D01*
X123879273Y-101714811D01*
X123885403Y-101725747D01*
X123864746Y-101733900D01*
X123817423Y-101739234D01*
X123743556Y-101741712D01*
X123710654Y-101741898D01*
X123645317Y-101741135D01*
X123590432Y-101739051D01*
X123551374Y-101735955D01*
X123533518Y-101732154D01*
X123533082Y-101731711D01*
X123533058Y-101711816D01*
X123551887Y-101697098D01*
X123567813Y-101694358D01*
X123595481Y-101684844D01*
X123614552Y-101669519D01*
X123620975Y-101659898D01*
X123626063Y-101644849D01*
X123629966Y-101621414D01*
X123632837Y-101586638D01*
X123634826Y-101537565D01*
X123636085Y-101471239D01*
X123636764Y-101384704D01*
X123637016Y-101275004D01*
X123637031Y-101230180D01*
X123637009Y-101108735D01*
X123636593Y-101011596D01*
X123635256Y-100935904D01*
X123632474Y-100878800D01*
X123627721Y-100837424D01*
X123620470Y-100808917D01*
X123610197Y-100790420D01*
X123596376Y-100779074D01*
X123578481Y-100772019D01*
X123555987Y-100766396D01*
X123551583Y-100765357D01*
X123527191Y-100755108D01*
X123521823Y-100743158D01*
X123537517Y-100737956D01*
X123573158Y-100734061D01*
X123622422Y-100731496D01*
X123678985Y-100730286D01*
X123736525Y-100730454D01*
X123788719Y-100732023D01*
X123829242Y-100735018D01*
X123851773Y-100739463D01*
X123854357Y-100741908D01*
X123843136Y-100754745D01*
X123815880Y-100769760D01*
X123813436Y-100770793D01*
X123782589Y-100791091D01*
X123765437Y-100816307D01*
X123765366Y-100816586D01*
X123762915Y-100840906D01*
X123761484Y-100886007D01*
X123761176Y-100945520D01*
X123762094Y-101013075D01*
X123762143Y-101015214D01*
X123766069Y-101185000D01*
X124037726Y-101185000D01*
X124309384Y-101185000D01*
X124313318Y-101022005D01*
X124314762Y-100939668D01*
X124313801Y-100880062D01*
X124309380Y-100838787D01*
X124300447Y-100811444D01*
X124285950Y-100793630D01*
X124264836Y-100780947D01*
X124254569Y-100776436D01*
X124220558Y-100759740D01*
X124209521Y-100747163D01*
X124222369Y-100738316D01*
X124260015Y-100732811D01*
X124323368Y-100730262D01*
X124363716Y-100729973D01*
X124432309Y-100730517D01*
G37*
G36*
X126960262Y-100731359D02*
G01*
X127022566Y-100732330D01*
X127113650Y-100734037D01*
X127182025Y-100735986D01*
X127232144Y-100738709D01*
X127268463Y-100742739D01*
X127295435Y-100748607D01*
X127317515Y-100756846D01*
X127339157Y-100767987D01*
X127344022Y-100770722D01*
X127403776Y-100818495D01*
X127440981Y-100881409D01*
X127455651Y-100959487D01*
X127455898Y-100975299D01*
X127443326Y-101051100D01*
X127409713Y-101120971D01*
X127359445Y-101176827D01*
X127338488Y-101191717D01*
X127308767Y-101212132D01*
X127292118Y-101227541D01*
X127290828Y-101230489D01*
X127297985Y-101244242D01*
X127317888Y-101276866D01*
X127348183Y-101324647D01*
X127386517Y-101383872D01*
X127430053Y-101450103D01*
X127481344Y-101526768D01*
X127521123Y-101583848D01*
X127552256Y-101624805D01*
X127577606Y-101653103D01*
X127600041Y-101672206D01*
X127622425Y-101685576D01*
X127626512Y-101687567D01*
X127660470Y-101705506D01*
X127681249Y-101719987D01*
X127684240Y-101724304D01*
X127673019Y-101736436D01*
X127643095Y-101742861D01*
X127602373Y-101743343D01*
X127558757Y-101737647D01*
X127528303Y-101728951D01*
X127501295Y-101717058D01*
X127476708Y-101701496D01*
X127451876Y-101679096D01*
X127424135Y-101646689D01*
X127390817Y-101601103D01*
X127349258Y-101539170D01*
X127296793Y-101457719D01*
X127286104Y-101440928D01*
X127247112Y-101381265D01*
X127211638Y-101330034D01*
X127182861Y-101291610D01*
X127163962Y-101270364D01*
X127160148Y-101267747D01*
X127127553Y-101261679D01*
X127082232Y-101259992D01*
X127038265Y-101262668D01*
X127013490Y-101267950D01*
X127004435Y-101275358D01*
X126998272Y-101292281D01*
X126994488Y-101323051D01*
X126992571Y-101372002D01*
X126992007Y-101443467D01*
X126992005Y-101449488D01*
X126993504Y-101535838D01*
X126999072Y-101599093D01*
X127010312Y-101643208D01*
X127028829Y-101672143D01*
X127056228Y-101689853D01*
X127093638Y-101700209D01*
X127125097Y-101710186D01*
X127140946Y-101723192D01*
X127141401Y-101725535D01*
X127132929Y-101732761D01*
X127105791Y-101737730D01*
X127057377Y-101740681D01*
X126985078Y-101741854D01*
X126963687Y-101741898D01*
X126897164Y-101741498D01*
X126841105Y-101740403D01*
X126800750Y-101738772D01*
X126781336Y-101736764D01*
X126780452Y-101736357D01*
X126782126Y-101722812D01*
X126797934Y-101705835D01*
X126818158Y-101694993D01*
X126823111Y-101694358D01*
X126843624Y-101684197D01*
X126862197Y-101664170D01*
X126868416Y-101651865D01*
X126873318Y-101632730D01*
X126877049Y-101603768D01*
X126879758Y-101561980D01*
X126881593Y-101504368D01*
X126882703Y-101427934D01*
X126883233Y-101329679D01*
X126883341Y-101235692D01*
X126883341Y-101043649D01*
X126992700Y-101043649D01*
X126993879Y-101103057D01*
X126996404Y-101150893D01*
X127000322Y-101180732D01*
X127002400Y-101186359D01*
X127031789Y-101207526D01*
X127080691Y-101217245D01*
X127143769Y-101215044D01*
X127202003Y-101204092D01*
X127250837Y-101184305D01*
X127293692Y-101154773D01*
X127299073Y-101149525D01*
X127321620Y-101121289D01*
X127334318Y-101089578D01*
X127340682Y-101044201D01*
X127341953Y-101025165D01*
X127338716Y-100947204D01*
X127317492Y-100887144D01*
X127276155Y-100840835D01*
X127234108Y-100814375D01*
X127185731Y-100795552D01*
X127131403Y-100783620D01*
X127078649Y-100779122D01*
X127034989Y-100782599D01*
X127007949Y-100794594D01*
X127005306Y-100797888D01*
X127000478Y-100818787D01*
X126996756Y-100860237D01*
X126994187Y-100915814D01*
X126992819Y-100979093D01*
X126992700Y-101043649D01*
X126883341Y-101043649D01*
X126883341Y-100837401D01*
X126850002Y-100804062D01*
X126819380Y-100781114D01*
X126790413Y-100770769D01*
X126788879Y-100770722D01*
X126765914Y-100761941D01*
X126761095Y-100749309D01*
X126763746Y-100741892D01*
X126774003Y-100736545D01*
X126795325Y-100733042D01*
X126831170Y-100731160D01*
X126884996Y-100730674D01*
X126960262Y-100731359D01*
G37*
G36*
X122851684Y-102223057D02*
G01*
X122889644Y-102231084D01*
X122911347Y-102246781D01*
X122917304Y-102258048D01*
X122922853Y-102284858D01*
X122914760Y-102305315D01*
X122889173Y-102323009D01*
X122842240Y-102341529D01*
X122819742Y-102348973D01*
X122731006Y-102387427D01*
X122666113Y-102438189D01*
X122624406Y-102501831D01*
X122615390Y-102526507D01*
X122612263Y-102542345D01*
X122609505Y-102568944D01*
X122607096Y-102607748D01*
X122605018Y-102660204D01*
X122603250Y-102727754D01*
X122601774Y-102811844D01*
X122600570Y-102913918D01*
X122599618Y-103035421D01*
X122598900Y-103177798D01*
X122598395Y-103342493D01*
X122598085Y-103530950D01*
X122597950Y-103744616D01*
X122597940Y-103826872D01*
X122597905Y-104044239D01*
X122597875Y-104236087D01*
X122597966Y-104404061D01*
X122598295Y-104549809D01*
X122598978Y-104674974D01*
X122600129Y-104781205D01*
X122601865Y-104870147D01*
X122604301Y-104943445D01*
X122607554Y-105002747D01*
X122611739Y-105049697D01*
X122616972Y-105085943D01*
X122623369Y-105113130D01*
X122631046Y-105132904D01*
X122640118Y-105146912D01*
X122650701Y-105156799D01*
X122662911Y-105164211D01*
X122676865Y-105170795D01*
X122692676Y-105178197D01*
X122693021Y-105178369D01*
X122715012Y-105188103D01*
X122739267Y-105195205D01*
X122770304Y-105200072D01*
X122812642Y-105203101D01*
X122870800Y-105204690D01*
X122949296Y-105205236D01*
X122998636Y-105205241D01*
X123114260Y-105204011D01*
X123209027Y-105200346D01*
X123289170Y-105193833D01*
X123360921Y-105184063D01*
X123385748Y-105179697D01*
X123574425Y-105135338D01*
X123742400Y-105076426D01*
X123888882Y-105003354D01*
X124013079Y-104916518D01*
X124114031Y-104816513D01*
X124145674Y-104782053D01*
X124172942Y-104758169D01*
X124188144Y-104750508D01*
X124206730Y-104762614D01*
X124216463Y-104795496D01*
X124216589Y-104843997D01*
X124208894Y-104892263D01*
X124183991Y-104965087D01*
X124142299Y-105045403D01*
X124088226Y-105127578D01*
X124026182Y-105205978D01*
X123960574Y-105274969D01*
X123895811Y-105328918D01*
X123843410Y-105359309D01*
X123824860Y-105366610D01*
X123804404Y-105372788D01*
X123779862Y-105377899D01*
X123749053Y-105382004D01*
X123709799Y-105385158D01*
X123659918Y-105387422D01*
X123597230Y-105388854D01*
X123519556Y-105389510D01*
X123424714Y-105389451D01*
X123310525Y-105388734D01*
X123174809Y-105387417D01*
X123015386Y-105385558D01*
X122910347Y-105384245D01*
X122786779Y-105383011D01*
X122662358Y-105382383D01*
X122542048Y-105382343D01*
X122430817Y-105382872D01*
X122333629Y-105383951D01*
X122255451Y-105385561D01*
X122217620Y-105386864D01*
X122142199Y-105389727D01*
X122073076Y-105391607D01*
X122016391Y-105392390D01*
X121978284Y-105391963D01*
X121969732Y-105391439D01*
X121938509Y-105384638D01*
X121926645Y-105368506D01*
X121925587Y-105355749D01*
X121927739Y-105335242D01*
X121937252Y-105318772D01*
X121958711Y-105302876D01*
X121996705Y-105284093D01*
X122051351Y-105260810D01*
X122124097Y-105224329D01*
X122174331Y-105182492D01*
X122206706Y-105130303D01*
X122223200Y-105076225D01*
X122226137Y-105049797D01*
X122228739Y-104999241D01*
X122231011Y-104924208D01*
X122232956Y-104824350D01*
X122234578Y-104699319D01*
X122235881Y-104548768D01*
X122236869Y-104372348D01*
X122237546Y-104169710D01*
X122237916Y-103940507D01*
X122237994Y-103758761D01*
X122237994Y-102510277D01*
X122197914Y-102464629D01*
X122170917Y-102437810D01*
X122138248Y-102414569D01*
X122094582Y-102392109D01*
X122034599Y-102367634D01*
X121966336Y-102342994D01*
X121919585Y-102325752D01*
X121893084Y-102311994D01*
X121881148Y-102297118D01*
X121878093Y-102276524D01*
X121878047Y-102271527D01*
X121878047Y-102230882D01*
X122237994Y-102235001D01*
X122341592Y-102235704D01*
X122442861Y-102235507D01*
X122536588Y-102234486D01*
X122617563Y-102232718D01*
X122680573Y-102230281D01*
X122713395Y-102228012D01*
X122794068Y-102222200D01*
X122851684Y-102223057D01*
G37*
G36*
X130098812Y-102229287D02*
G01*
X130125339Y-102244892D01*
X130143491Y-102276004D01*
X130155442Y-102326433D01*
X130163366Y-102399987D01*
X130163670Y-102403997D01*
X130168287Y-102478314D01*
X130172213Y-102564156D01*
X130174762Y-102645882D01*
X130175130Y-102665535D01*
X130175851Y-102727196D01*
X130174979Y-102766782D01*
X130171350Y-102789382D01*
X130163799Y-102800082D01*
X130151162Y-102803971D01*
X130143234Y-102804882D01*
X130108307Y-102803194D01*
X130084786Y-102786672D01*
X130069358Y-102751100D01*
X130059534Y-102698436D01*
X130043233Y-102620880D01*
X130016803Y-102564201D01*
X129977117Y-102523027D01*
X129946283Y-102503865D01*
X129930360Y-102496149D01*
X129913083Y-102489923D01*
X129891420Y-102484995D01*
X129862340Y-102481172D01*
X129822812Y-102478262D01*
X129769804Y-102476073D01*
X129700284Y-102474414D01*
X129611222Y-102473091D01*
X129499586Y-102471914D01*
X129432340Y-102471302D01*
X129296863Y-102470392D01*
X129186724Y-102470326D01*
X129100108Y-102471152D01*
X129035200Y-102472912D01*
X128990184Y-102475652D01*
X128963245Y-102479417D01*
X128953543Y-102483152D01*
X128950259Y-102489090D01*
X128947362Y-102502144D01*
X128944830Y-102523857D01*
X128942642Y-102555767D01*
X128940773Y-102599417D01*
X128939202Y-102656346D01*
X128937906Y-102728096D01*
X128936863Y-102816208D01*
X128936051Y-102922221D01*
X128935446Y-103047678D01*
X128935027Y-103194118D01*
X128934770Y-103363082D01*
X128934654Y-103556112D01*
X128934655Y-103774748D01*
X128934656Y-103777599D01*
X128934726Y-103993130D01*
X128934852Y-104183181D01*
X128935065Y-104349436D01*
X128935397Y-104493582D01*
X128935882Y-104617303D01*
X128936550Y-104722284D01*
X128937434Y-104810212D01*
X128938567Y-104882771D01*
X128939980Y-104941646D01*
X128941706Y-104988523D01*
X128943776Y-105025088D01*
X128946223Y-105053024D01*
X128949080Y-105074019D01*
X128952377Y-105089756D01*
X128956148Y-105101922D01*
X128960115Y-105111522D01*
X128996509Y-105169488D01*
X129048122Y-105211854D01*
X129119957Y-105242468D01*
X129136846Y-105247423D01*
X129203125Y-105266777D01*
X129247397Y-105282696D01*
X129274223Y-105297412D01*
X129288163Y-105313159D01*
X129292082Y-105323411D01*
X129296440Y-105341849D01*
X129296920Y-105356334D01*
X129290749Y-105367291D01*
X129275159Y-105375143D01*
X129247379Y-105380313D01*
X129204640Y-105383225D01*
X129144172Y-105384302D01*
X129063204Y-105383969D01*
X128958966Y-105382649D01*
X128909418Y-105381929D01*
X128803443Y-105380804D01*
X128699576Y-105380482D01*
X128602944Y-105380921D01*
X128518671Y-105382077D01*
X128451886Y-105383909D01*
X128411416Y-105386064D01*
X128352840Y-105389930D01*
X128301546Y-105391972D01*
X128265801Y-105391911D01*
X128257826Y-105391252D01*
X128236187Y-105383610D01*
X128229635Y-105363542D01*
X128230661Y-105343712D01*
X128232544Y-105326525D01*
X128236823Y-105313026D01*
X128247220Y-105300652D01*
X128267461Y-105286839D01*
X128301269Y-105269024D01*
X128352370Y-105244643D01*
X128420767Y-105212859D01*
X128480387Y-105181227D01*
X128520400Y-105149382D01*
X128543013Y-105120202D01*
X128574411Y-105069706D01*
X128578494Y-103820080D01*
X128579150Y-103581916D01*
X128579471Y-103370105D01*
X128579449Y-103183837D01*
X128579077Y-103022302D01*
X128578349Y-102884690D01*
X128577257Y-102770190D01*
X128575796Y-102677993D01*
X128573958Y-102607288D01*
X128571736Y-102557264D01*
X128569124Y-102527112D01*
X128567561Y-102518851D01*
X128552546Y-102467247D01*
X128094869Y-102471311D01*
X127970749Y-102472489D01*
X127870800Y-102473713D01*
X127792026Y-102475173D01*
X127731433Y-102477058D01*
X127686025Y-102479558D01*
X127652808Y-102482863D01*
X127628786Y-102487162D01*
X127610965Y-102492645D01*
X127596350Y-102499501D01*
X127589659Y-102503297D01*
X127552490Y-102532192D01*
X127519870Y-102574335D01*
X127489433Y-102633820D01*
X127458810Y-102714739D01*
X127447651Y-102748754D01*
X127421624Y-102819581D01*
X127396524Y-102864413D01*
X127371366Y-102884352D01*
X127345162Y-102880503D01*
X127335774Y-102873916D01*
X127324542Y-102858729D01*
X127319636Y-102833118D01*
X127320279Y-102790523D01*
X127322432Y-102760915D01*
X127330547Y-102669704D01*
X127339747Y-102577702D01*
X127349492Y-102489268D01*
X127359246Y-102408759D01*
X127368469Y-102340532D01*
X127376623Y-102288944D01*
X127383170Y-102258355D01*
X127385181Y-102253040D01*
X127388955Y-102249333D01*
X127396937Y-102246051D01*
X127410719Y-102243165D01*
X127431889Y-102240646D01*
X127462039Y-102238464D01*
X127502759Y-102236590D01*
X127555638Y-102234993D01*
X127622268Y-102233646D01*
X127704238Y-102232517D01*
X127803139Y-102231578D01*
X127920561Y-102230798D01*
X128058094Y-102230149D01*
X128217329Y-102229601D01*
X128399855Y-102229124D01*
X128607264Y-102228689D01*
X128705890Y-102228505D01*
X128893097Y-102228158D01*
X129073269Y-102227811D01*
X129244463Y-102227468D01*
X129404736Y-102227134D01*
X129552142Y-102226814D01*
X129684740Y-102226511D01*
X129800584Y-102226231D01*
X129897731Y-102225978D01*
X129974238Y-102225756D01*
X130028160Y-102225570D01*
X130057554Y-102225424D01*
X130061737Y-102225382D01*
X130098812Y-102229287D01*
G37*
G36*
X126065686Y-102152706D02*
G01*
X126095511Y-102179642D01*
X126123218Y-102229409D01*
X126131196Y-102249524D01*
X126139490Y-102270934D01*
X126157194Y-102315712D01*
X126183575Y-102382026D01*
X126217900Y-102468045D01*
X126259435Y-102571936D01*
X126307446Y-102691868D01*
X126361201Y-102826009D01*
X126419965Y-102972525D01*
X126483005Y-103129586D01*
X126549587Y-103295359D01*
X126618978Y-103468013D01*
X126645848Y-103534840D01*
X126716665Y-103711000D01*
X126785337Y-103881935D01*
X126851089Y-104045712D01*
X126913145Y-104200395D01*
X126970732Y-104344049D01*
X127023075Y-104474738D01*
X127069398Y-104590528D01*
X127108926Y-104689485D01*
X127140885Y-104769672D01*
X127164500Y-104829155D01*
X127178996Y-104865999D01*
X127181606Y-104872754D01*
X127227172Y-104979797D01*
X127276017Y-105072777D01*
X127325801Y-105147846D01*
X127374182Y-105201156D01*
X127388480Y-105212628D01*
X127453279Y-105246796D01*
X127542878Y-105273737D01*
X127553445Y-105276075D01*
X127629956Y-105296655D01*
X127679740Y-105319860D01*
X127703128Y-105345899D01*
X127702573Y-105370232D01*
X127697897Y-105377205D01*
X127687814Y-105382422D01*
X127669153Y-105386013D01*
X127638746Y-105388107D01*
X127593422Y-105388833D01*
X127530012Y-105388323D01*
X127445345Y-105386705D01*
X127353122Y-105384526D01*
X127251881Y-105382550D01*
X127152679Y-105381560D01*
X127060976Y-105381542D01*
X126982236Y-105382477D01*
X126921919Y-105384350D01*
X126896924Y-105385911D01*
X126831790Y-105389787D01*
X126766105Y-105391013D01*
X126712710Y-105389387D01*
X126706764Y-105388904D01*
X126663888Y-105383930D01*
X126641552Y-105376672D01*
X126633163Y-105363535D01*
X126632058Y-105348155D01*
X126636985Y-105325445D01*
X126655618Y-105306509D01*
X126693731Y-105285795D01*
X126699972Y-105282887D01*
X126767001Y-105251515D01*
X126813643Y-105228037D01*
X126844427Y-105209521D01*
X126863882Y-105193034D01*
X126876535Y-105175642D01*
X126882093Y-105164925D01*
X126892045Y-105139035D01*
X126894231Y-105112665D01*
X126888433Y-105076498D01*
X126879147Y-105038984D01*
X126867349Y-105000410D01*
X126847494Y-104942597D01*
X126821217Y-104869758D01*
X126790153Y-104786109D01*
X126755936Y-104695862D01*
X126720199Y-104603233D01*
X126684578Y-104512436D01*
X126650705Y-104427684D01*
X126620217Y-104353192D01*
X126594747Y-104293174D01*
X126575929Y-104251845D01*
X126568301Y-104237425D01*
X126555846Y-104217419D01*
X126543446Y-104200808D01*
X126528610Y-104187294D01*
X126508848Y-104176579D01*
X126481669Y-104168366D01*
X126444584Y-104162356D01*
X126395100Y-104158253D01*
X126330729Y-104155758D01*
X126248980Y-104154574D01*
X126147363Y-104154403D01*
X126023386Y-104154947D01*
X125885836Y-104155833D01*
X125745528Y-104156804D01*
X125629817Y-104157772D01*
X125536131Y-104158870D01*
X125461901Y-104160232D01*
X125404558Y-104161992D01*
X125361530Y-104164285D01*
X125330249Y-104167242D01*
X125308145Y-104171000D01*
X125292647Y-104175690D01*
X125281186Y-104181448D01*
X125272009Y-104187795D01*
X125255943Y-104205052D01*
X125234764Y-104237458D01*
X125207419Y-104287021D01*
X125172854Y-104355751D01*
X125130016Y-104445656D01*
X125079916Y-104554225D01*
X125027466Y-104669973D01*
X124985782Y-104764421D01*
X124953824Y-104840736D01*
X124930555Y-104902085D01*
X124914937Y-104951635D01*
X124905933Y-104992553D01*
X124902504Y-105028007D01*
X124903614Y-105061165D01*
X124906396Y-105083790D01*
X124929247Y-105150208D01*
X124973460Y-105204788D01*
X125034543Y-105244037D01*
X125108005Y-105264459D01*
X125141336Y-105266582D01*
X125176106Y-105276467D01*
X125202463Y-105300864D01*
X125216676Y-105332169D01*
X125215015Y-105362776D01*
X125198250Y-105382615D01*
X125173732Y-105388753D01*
X125128310Y-105392259D01*
X125068125Y-105393054D01*
X124999319Y-105391056D01*
X124928033Y-105386187D01*
X124927406Y-105386130D01*
X124873764Y-105383078D01*
X124800599Y-105381416D01*
X124715519Y-105381191D01*
X124626134Y-105382448D01*
X124572941Y-105383957D01*
X124486497Y-105386727D01*
X124423366Y-105388027D01*
X124379725Y-105387630D01*
X124351750Y-105385309D01*
X124335617Y-105380834D01*
X124327501Y-105373979D01*
X124325102Y-105369195D01*
X124323581Y-105335726D01*
X124347272Y-105307037D01*
X124396966Y-105282315D01*
X124415274Y-105276110D01*
X124476316Y-105249366D01*
X124535453Y-105211306D01*
X124549525Y-105199735D01*
X124560492Y-105190122D01*
X124570531Y-105180824D01*
X124580422Y-105170283D01*
X124590946Y-105156940D01*
X124602883Y-105139237D01*
X124617014Y-105115614D01*
X124634120Y-105084512D01*
X124654981Y-105044373D01*
X124680378Y-104993637D01*
X124711091Y-104930747D01*
X124747901Y-104854142D01*
X124791589Y-104762264D01*
X124842935Y-104653554D01*
X124902720Y-104526453D01*
X124971724Y-104379402D01*
X125050729Y-104210843D01*
X125138355Y-104023823D01*
X125182169Y-103930317D01*
X125394740Y-103930317D01*
X125409891Y-103935618D01*
X125448548Y-103940148D01*
X125507061Y-103943909D01*
X125581782Y-103946901D01*
X125669061Y-103949127D01*
X125765250Y-103950585D01*
X125866698Y-103951279D01*
X125969758Y-103951208D01*
X126070780Y-103950373D01*
X126166114Y-103948775D01*
X126252113Y-103946416D01*
X126325126Y-103943296D01*
X126381504Y-103939416D01*
X126417599Y-103934777D01*
X126429692Y-103930051D01*
X126426040Y-103914510D01*
X126413213Y-103876958D01*
X126392449Y-103820477D01*
X126364985Y-103748148D01*
X126332057Y-103663053D01*
X126294903Y-103568273D01*
X126254759Y-103466890D01*
X126212861Y-103361985D01*
X126170448Y-103256638D01*
X126128755Y-103153932D01*
X126089020Y-103056949D01*
X126052478Y-102968768D01*
X126020368Y-102892472D01*
X125993926Y-102831142D01*
X125974389Y-102787860D01*
X125962993Y-102765706D01*
X125961596Y-102763864D01*
X125945459Y-102756380D01*
X125927689Y-102767653D01*
X125906072Y-102800099D01*
X125879700Y-102853297D01*
X125865326Y-102884381D01*
X125840998Y-102936835D01*
X125808228Y-103007399D01*
X125768532Y-103092819D01*
X125723422Y-103189835D01*
X125674413Y-103295190D01*
X125623018Y-103405629D01*
X125614301Y-103424355D01*
X125564615Y-103531932D01*
X125519050Y-103632214D01*
X125478797Y-103722456D01*
X125445049Y-103799911D01*
X125418996Y-103861833D01*
X125401831Y-103905477D01*
X125394744Y-103928095D01*
X125394740Y-103930317D01*
X125182169Y-103930317D01*
X125195028Y-103902873D01*
X125250005Y-103785549D01*
X125301825Y-103674967D01*
X125349029Y-103574240D01*
X125390157Y-103486485D01*
X125423748Y-103414816D01*
X125448344Y-103362348D01*
X125459815Y-103337888D01*
X125479280Y-103296278D01*
X125508249Y-103234203D01*
X125544777Y-103155837D01*
X125586920Y-103065350D01*
X125632736Y-102966915D01*
X125680280Y-102864704D01*
X125697099Y-102828529D01*
X125765481Y-102681620D01*
X125823482Y-102557491D01*
X125872054Y-102454237D01*
X125912151Y-102369950D01*
X125944726Y-102302722D01*
X125970732Y-102250648D01*
X125991122Y-102211819D01*
X126006848Y-102184329D01*
X126018864Y-102166270D01*
X126028123Y-102155735D01*
X126035578Y-102150818D01*
X126035798Y-102150732D01*
X126065686Y-102152706D01*
G37*
G36*
X132239909Y-102232889D02*
G01*
X132270661Y-102256741D01*
X132280972Y-102267568D01*
X132320078Y-102311988D01*
X132373601Y-102372314D01*
X132440207Y-102447068D01*
X132518563Y-102534771D01*
X132607337Y-102633945D01*
X132705194Y-102743109D01*
X132810802Y-102860786D01*
X132922827Y-102985497D01*
X133039937Y-103115763D01*
X133160797Y-103250104D01*
X133284076Y-103387042D01*
X133408439Y-103525099D01*
X133532554Y-103662794D01*
X133655087Y-103798650D01*
X133774706Y-103931188D01*
X133890076Y-104058928D01*
X133999866Y-104180392D01*
X134102740Y-104294101D01*
X134197368Y-104398576D01*
X134282414Y-104492338D01*
X134356547Y-104573909D01*
X134418433Y-104641809D01*
X134466738Y-104694559D01*
X134500130Y-104730682D01*
X134517275Y-104748697D01*
X134519316Y-104750508D01*
X134521768Y-104737349D01*
X134523918Y-104699565D01*
X134525773Y-104639695D01*
X134527337Y-104560278D01*
X134528617Y-104463852D01*
X134529616Y-104352958D01*
X134530342Y-104230133D01*
X134530798Y-104097917D01*
X134530990Y-103958848D01*
X134530925Y-103815466D01*
X134530606Y-103670310D01*
X134530040Y-103525918D01*
X134529232Y-103384830D01*
X134528187Y-103249584D01*
X134526911Y-103122720D01*
X134525408Y-103006776D01*
X134523685Y-102904292D01*
X134521746Y-102817806D01*
X134519597Y-102749857D01*
X134517244Y-102702984D01*
X134514945Y-102680866D01*
X134483066Y-102580096D01*
X134431092Y-102496889D01*
X134358392Y-102430633D01*
X134264334Y-102380717D01*
X134176332Y-102352878D01*
X134104264Y-102331652D01*
X134057624Y-102309005D01*
X134034675Y-102283725D01*
X134033679Y-102254601D01*
X134033982Y-102253618D01*
X134037457Y-102244361D01*
X134043426Y-102237279D01*
X134055137Y-102232126D01*
X134075834Y-102228654D01*
X134108765Y-102226613D01*
X134157176Y-102225757D01*
X134224314Y-102225838D01*
X134313425Y-102226607D01*
X134378676Y-102227295D01*
X134480136Y-102228109D01*
X134580459Y-102228420D01*
X134673893Y-102228247D01*
X134754686Y-102227609D01*
X134817086Y-102226525D01*
X134840532Y-102225784D01*
X134903455Y-102224794D01*
X134950940Y-102227162D01*
X134977906Y-102232570D01*
X134981106Y-102234604D01*
X134990525Y-102260037D01*
X134976283Y-102290076D01*
X134940704Y-102321401D01*
X134906428Y-102341285D01*
X134859441Y-102367752D01*
X134816601Y-102396787D01*
X134798450Y-102411767D01*
X134786317Y-102423117D01*
X134775515Y-102434145D01*
X134765968Y-102446415D01*
X134757598Y-102461487D01*
X134750328Y-102480927D01*
X134744079Y-102506295D01*
X134738776Y-102539155D01*
X134734339Y-102581070D01*
X134730693Y-102633603D01*
X134727760Y-102698316D01*
X134725462Y-102776773D01*
X134723722Y-102870535D01*
X134722462Y-102981166D01*
X134721606Y-103110229D01*
X134721076Y-103259286D01*
X134720793Y-103429901D01*
X134720682Y-103623635D01*
X134720665Y-103842053D01*
X134720668Y-103982824D01*
X134720595Y-104221154D01*
X134720367Y-104433522D01*
X134719971Y-104621130D01*
X134719391Y-104785183D01*
X134718616Y-104926882D01*
X134717630Y-105047432D01*
X134716420Y-105148034D01*
X134714972Y-105229892D01*
X134713273Y-105294210D01*
X134711308Y-105342190D01*
X134709063Y-105375035D01*
X134706525Y-105393949D01*
X134704368Y-105399770D01*
X134684984Y-105412967D01*
X134662663Y-105412058D01*
X134632217Y-105395232D01*
X134588459Y-105360677D01*
X134585699Y-105358342D01*
X134568850Y-105341556D01*
X134535286Y-105305831D01*
X134486277Y-105252587D01*
X134423091Y-105183246D01*
X134347000Y-105099229D01*
X134259271Y-105001957D01*
X134161174Y-104892851D01*
X134053978Y-104773332D01*
X133938953Y-104644822D01*
X133817369Y-104508741D01*
X133690494Y-104366511D01*
X133559598Y-104219552D01*
X133425950Y-104069286D01*
X133290819Y-103917134D01*
X133155476Y-103764517D01*
X133021189Y-103612856D01*
X132889228Y-103463573D01*
X132760862Y-103318087D01*
X132637360Y-103177822D01*
X132595929Y-103130693D01*
X132571987Y-103102717D01*
X132551160Y-103078014D01*
X132533232Y-103058116D01*
X132517988Y-103044554D01*
X132505214Y-103038862D01*
X132494694Y-103042571D01*
X132486213Y-103057212D01*
X132479555Y-103084318D01*
X132474507Y-103125422D01*
X132470851Y-103182054D01*
X132468375Y-103255747D01*
X132466861Y-103348034D01*
X132466095Y-103460445D01*
X132465862Y-103594514D01*
X132465947Y-103751771D01*
X132466135Y-103933750D01*
X132466207Y-104054385D01*
X132466291Y-104245190D01*
X132466453Y-104410742D01*
X132466740Y-104552954D01*
X132467197Y-104673740D01*
X132467869Y-104775011D01*
X132468802Y-104858682D01*
X132470043Y-104926666D01*
X132471636Y-104980875D01*
X132473628Y-105023222D01*
X132476064Y-105055620D01*
X132478990Y-105079983D01*
X132482451Y-105098223D01*
X132486493Y-105112253D01*
X132491162Y-105123987D01*
X132491790Y-105125381D01*
X132525065Y-105178321D01*
X132572830Y-105217775D01*
X132639730Y-105246881D01*
X132692592Y-105261047D01*
X132744924Y-105274142D01*
X132790935Y-105287870D01*
X132818967Y-105298533D01*
X132850030Y-105323530D01*
X132857815Y-105351518D01*
X132844434Y-105375826D01*
X132811998Y-105389782D01*
X132789765Y-105390819D01*
X132765262Y-105390135D01*
X132717271Y-105389325D01*
X132649470Y-105388432D01*
X132565537Y-105387499D01*
X132469150Y-105386568D01*
X132363986Y-105385681D01*
X132309705Y-105385270D01*
X132189676Y-105384346D01*
X132094019Y-105383379D01*
X132019943Y-105382175D01*
X131964655Y-105380542D01*
X131925362Y-105378286D01*
X131899273Y-105375215D01*
X131883594Y-105371134D01*
X131875534Y-105365850D01*
X131872299Y-105359171D01*
X131871579Y-105354946D01*
X131872596Y-105327708D01*
X131886412Y-105305829D01*
X131917240Y-105285709D01*
X131969290Y-105263748D01*
X131985110Y-105257911D01*
X132067176Y-105223084D01*
X132127711Y-105184435D01*
X132172345Y-105137621D01*
X132200025Y-105092087D01*
X132211415Y-105068623D01*
X132221323Y-105044923D01*
X132229852Y-105019012D01*
X132237103Y-104988916D01*
X132243178Y-104952658D01*
X132248179Y-104908263D01*
X132252207Y-104853755D01*
X132255365Y-104787159D01*
X132257754Y-104706500D01*
X132259476Y-104609801D01*
X132260634Y-104495088D01*
X132261328Y-104360385D01*
X132261660Y-104203715D01*
X132261733Y-104023105D01*
X132261691Y-103895687D01*
X132261537Y-103698291D01*
X132261208Y-103525999D01*
X132260595Y-103376748D01*
X132259587Y-103248479D01*
X132258076Y-103139128D01*
X132255951Y-103046634D01*
X132253104Y-102968935D01*
X132249425Y-102903969D01*
X132244805Y-102849676D01*
X132239134Y-102803992D01*
X132232302Y-102764856D01*
X132224200Y-102730207D01*
X132214720Y-102697982D01*
X132203750Y-102666121D01*
X132195187Y-102643088D01*
X132143740Y-102541929D01*
X132073293Y-102460153D01*
X131983778Y-102397705D01*
X131875130Y-102354529D01*
X131844252Y-102346572D01*
X131781678Y-102327137D01*
X131740469Y-102303656D01*
X131722672Y-102277723D01*
X131727134Y-102255503D01*
X131735311Y-102246254D01*
X131749507Y-102239516D01*
X131773806Y-102234816D01*
X131812292Y-102231682D01*
X131869052Y-102229641D01*
X131948168Y-102228220D01*
X131964835Y-102227997D01*
X132041730Y-102226951D01*
X132110575Y-102225924D01*
X132166120Y-102225000D01*
X132203112Y-102224266D01*
X132214625Y-102223934D01*
X132239909Y-102232889D01*
G37*
G36*
X139012583Y-108091225D02*
G01*
X139012583Y-108403802D01*
X139165746Y-108403802D01*
X139318908Y-108403802D01*
X139318908Y-108478820D01*
X139318908Y-108553839D01*
X139078224Y-108553839D01*
X138837540Y-108553839D01*
X138837540Y-108166243D01*
X138837540Y-107778648D01*
X138925061Y-107778648D01*
X139012583Y-107778648D01*
X139012583Y-108091225D01*
G37*
G36*
X137105864Y-107850541D02*
G01*
X137105864Y-107922433D01*
X136958953Y-107922433D01*
X136812041Y-107922433D01*
X136812041Y-108009955D01*
X136812041Y-108097476D01*
X136949575Y-108097476D01*
X137087109Y-108097476D01*
X137087109Y-108169369D01*
X137087109Y-108241262D01*
X136949684Y-108241262D01*
X136812260Y-108241262D01*
X136810588Y-108395987D01*
X136808916Y-108550713D01*
X136722957Y-108552452D01*
X136636998Y-108554191D01*
X136636998Y-108166420D01*
X136636998Y-107778648D01*
X136871431Y-107778648D01*
X137105864Y-107778648D01*
X137105864Y-107850541D01*
G37*
G36*
X137688938Y-108158357D02*
G01*
X137709411Y-108224766D01*
X137728746Y-108287730D01*
X137746631Y-108346219D01*
X137762754Y-108399203D01*
X137776805Y-108445652D01*
X137788471Y-108484534D01*
X137797441Y-108514820D01*
X137803404Y-108535480D01*
X137806048Y-108545482D01*
X137806154Y-108546191D01*
X137803303Y-108549385D01*
X137793862Y-108551498D01*
X137776328Y-108552634D01*
X137749201Y-108552894D01*
X137714208Y-108552443D01*
X137622380Y-108550713D01*
X137593476Y-108453814D01*
X137564573Y-108356915D01*
X137452911Y-108356915D01*
X137341250Y-108356915D01*
X137320329Y-108431934D01*
X137311610Y-108463248D01*
X137303520Y-108492392D01*
X137296984Y-108516026D01*
X137293042Y-108530395D01*
X137286676Y-108553839D01*
X137196270Y-108553839D01*
X137164276Y-108553737D01*
X137137271Y-108553457D01*
X137117452Y-108553037D01*
X137107018Y-108552516D01*
X137105963Y-108552276D01*
X137107760Y-108546189D01*
X137112912Y-108529150D01*
X137121114Y-108502162D01*
X137132058Y-108466230D01*
X137145439Y-108422355D01*
X137160951Y-108371542D01*
X137178288Y-108314793D01*
X137197144Y-108253112D01*
X137208511Y-108215952D01*
X137370376Y-108215952D01*
X137373607Y-108218984D01*
X137382219Y-108220909D01*
X137398061Y-108221974D01*
X137422980Y-108222424D01*
X137452824Y-108222507D01*
X137486941Y-108222389D01*
X137510396Y-108221869D01*
X137525030Y-108220702D01*
X137532685Y-108218641D01*
X137535201Y-108215441D01*
X137534651Y-108211567D01*
X137528478Y-108191101D01*
X137520294Y-108163012D01*
X137510734Y-108129588D01*
X137500436Y-108093115D01*
X137490036Y-108055880D01*
X137480172Y-108020168D01*
X137471478Y-107988266D01*
X137464593Y-107962462D01*
X137460152Y-107945040D01*
X137458938Y-107939625D01*
X137455187Y-107924610D01*
X137451342Y-107916594D01*
X137450509Y-107916182D01*
X137447433Y-107921839D01*
X137442733Y-107936926D01*
X137437248Y-107958612D01*
X137435185Y-107967757D01*
X137428463Y-107996417D01*
X137418712Y-108035036D01*
X137406467Y-108081591D01*
X137392264Y-108134055D01*
X137376638Y-108190406D01*
X137370679Y-108211567D01*
X137370376Y-108215952D01*
X137208511Y-108215952D01*
X137217213Y-108187503D01*
X137223718Y-108166243D01*
X137341374Y-107781774D01*
X137456489Y-107780139D01*
X137571603Y-107778505D01*
X137688938Y-108158357D01*
G37*
G36*
X139790176Y-107780011D02*
G01*
X139815554Y-107780730D01*
X139832382Y-107781870D01*
X139838467Y-107783188D01*
X139841134Y-107789886D01*
X139847071Y-107807304D01*
X139855891Y-107834204D01*
X139867211Y-107869349D01*
X139880645Y-107911501D01*
X139895808Y-107959422D01*
X139912317Y-108011874D01*
X139929785Y-108067621D01*
X139947828Y-108125424D01*
X139966062Y-108184045D01*
X139984102Y-108242248D01*
X140001562Y-108298794D01*
X140018058Y-108352447D01*
X140033205Y-108401967D01*
X140046619Y-108446119D01*
X140057914Y-108483663D01*
X140066707Y-108513363D01*
X140072611Y-108533980D01*
X140075242Y-108544278D01*
X140075344Y-108545065D01*
X140073571Y-108548633D01*
X140067089Y-108551046D01*
X140054156Y-108552444D01*
X140033031Y-108552967D01*
X140001973Y-108552755D01*
X139983516Y-108552443D01*
X139891688Y-108550713D01*
X139862785Y-108453814D01*
X139833881Y-108356915D01*
X139722220Y-108356915D01*
X139610559Y-108356915D01*
X139589637Y-108431934D01*
X139580918Y-108463248D01*
X139572828Y-108492392D01*
X139566293Y-108516026D01*
X139562350Y-108530395D01*
X139555985Y-108553839D01*
X139465578Y-108553839D01*
X139433585Y-108553737D01*
X139406581Y-108553457D01*
X139386764Y-108553037D01*
X139376332Y-108552516D01*
X139375278Y-108552276D01*
X139377075Y-108546188D01*
X139382225Y-108529148D01*
X139390423Y-108502160D01*
X139401362Y-108466225D01*
X139414737Y-108422349D01*
X139430241Y-108371533D01*
X139447569Y-108314782D01*
X139466414Y-108253099D01*
X139477770Y-108215952D01*
X139639710Y-108215952D01*
X139642922Y-108218983D01*
X139651518Y-108220909D01*
X139667343Y-108221973D01*
X139692244Y-108222424D01*
X139722132Y-108222507D01*
X139807371Y-108222507D01*
X139802872Y-108208441D01*
X139797547Y-108190960D01*
X139790018Y-108165137D01*
X139780932Y-108133299D01*
X139770933Y-108097775D01*
X139760667Y-108060893D01*
X139750779Y-108024980D01*
X139741915Y-107992365D01*
X139734721Y-107965376D01*
X139729841Y-107946340D01*
X139728092Y-107938703D01*
X139724359Y-107924041D01*
X139720512Y-107916466D01*
X139719817Y-107916182D01*
X139716727Y-107921836D01*
X139711987Y-107936915D01*
X139706445Y-107958593D01*
X139704352Y-107967757D01*
X139698672Y-107991819D01*
X139690353Y-108024980D01*
X139680168Y-108064312D01*
X139668888Y-108106884D01*
X139657288Y-108149767D01*
X139646140Y-108190034D01*
X139640032Y-108211567D01*
X139639710Y-108215952D01*
X139477770Y-108215952D01*
X139486472Y-108187487D01*
X139492968Y-108166243D01*
X139610554Y-107781774D01*
X139722146Y-107780062D01*
X139758342Y-107779770D01*
X139790176Y-107780011D01*
G37*
G36*
X138188559Y-107774759D02*
G01*
X138188710Y-107774769D01*
X138236692Y-107778848D01*
X138275604Y-107784675D01*
X138308837Y-107793000D01*
X138339785Y-107804576D01*
X138355004Y-107811594D01*
X138395231Y-107837038D01*
X138425879Y-107868526D01*
X138446916Y-107904380D01*
X138458311Y-107942922D01*
X138460034Y-107982476D01*
X138452053Y-108021363D01*
X138434338Y-108057905D01*
X138406857Y-108090425D01*
X138369579Y-108117244D01*
X138360749Y-108121873D01*
X138335237Y-108134495D01*
X138365817Y-108147604D01*
X138409603Y-108172406D01*
X138444339Y-108205091D01*
X138466710Y-108239769D01*
X138476228Y-108261340D01*
X138481610Y-108280920D01*
X138483937Y-108303786D01*
X138484328Y-108325789D01*
X138483645Y-108353718D01*
X138480772Y-108374734D01*
X138474469Y-108394392D01*
X138463882Y-108417464D01*
X138441860Y-108454255D01*
X138414875Y-108483068D01*
X138379909Y-108506782D01*
X138359046Y-108517365D01*
X138329319Y-108529893D01*
X138298878Y-108539521D01*
X138265412Y-108546628D01*
X138226606Y-108551591D01*
X138180150Y-108554788D01*
X138123730Y-108556599D01*
X138118613Y-108556697D01*
X138079946Y-108557247D01*
X138043905Y-108557464D01*
X138013037Y-108557353D01*
X137989888Y-108556924D01*
X137977953Y-108556291D01*
X137955584Y-108553675D01*
X137934410Y-108550678D01*
X137932630Y-108550389D01*
X137912312Y-108547021D01*
X137912312Y-108430191D01*
X138087355Y-108430191D01*
X138154559Y-108427628D01*
X138188014Y-108425836D01*
X138212263Y-108423057D01*
X138230595Y-108418712D01*
X138246302Y-108412221D01*
X138248578Y-108411056D01*
X138275165Y-108391048D01*
X138293413Y-108364761D01*
X138302858Y-108334835D01*
X138303035Y-108303910D01*
X138293477Y-108274627D01*
X138276564Y-108252236D01*
X138254158Y-108235087D01*
X138227026Y-108223095D01*
X138192686Y-108215469D01*
X138148656Y-108211418D01*
X138148308Y-108211401D01*
X138087355Y-108208332D01*
X138087355Y-108319262D01*
X138087355Y-108430191D01*
X137912312Y-108430191D01*
X137912312Y-108319262D01*
X137912312Y-108169755D01*
X137912342Y-108090783D01*
X137912349Y-108086427D01*
X138087355Y-108086427D01*
X138148308Y-108083767D01*
X138182316Y-108081482D01*
X138207224Y-108077678D01*
X138226401Y-108071732D01*
X138234874Y-108067771D01*
X138261674Y-108048075D01*
X138278617Y-108023544D01*
X138285661Y-107996477D01*
X138282763Y-107969175D01*
X138269882Y-107943939D01*
X138246975Y-107923069D01*
X138237630Y-107917745D01*
X138221754Y-107910834D01*
X138205103Y-107906577D01*
X138183991Y-107904390D01*
X138154730Y-107903691D01*
X138148546Y-107903679D01*
X138087355Y-107903679D01*
X138087355Y-107995053D01*
X138087355Y-108086427D01*
X137912349Y-108086427D01*
X137912447Y-108023409D01*
X137912548Y-107995053D01*
X137912649Y-107966731D01*
X137912970Y-107919843D01*
X137913433Y-107881842D01*
X137914059Y-107851823D01*
X137914872Y-107828883D01*
X137915893Y-107812117D01*
X137917145Y-107800622D01*
X137918650Y-107793492D01*
X137920430Y-107789825D01*
X137921697Y-107788887D01*
X137934302Y-107786231D01*
X137956937Y-107783541D01*
X137987130Y-107780948D01*
X138022408Y-107778584D01*
X138060300Y-107776578D01*
X138098333Y-107775062D01*
X138134036Y-107774167D01*
X138164935Y-107774022D01*
X138188559Y-107774759D01*
G37*
G36*
X140494463Y-107777528D02*
G01*
X140543908Y-107784009D01*
X140551792Y-107785551D01*
X140599003Y-107799895D01*
X140641909Y-107821662D01*
X140678284Y-107849281D01*
X140705904Y-107881182D01*
X140717824Y-107902806D01*
X140725529Y-107931204D01*
X140728079Y-107965312D01*
X140725607Y-108000007D01*
X140718248Y-108030167D01*
X140714237Y-108039298D01*
X140693230Y-108070412D01*
X140665754Y-108098014D01*
X140635939Y-108118085D01*
X140630827Y-108120506D01*
X140615964Y-108127933D01*
X140607483Y-108133856D01*
X140606725Y-108135199D01*
X140612103Y-108139335D01*
X140625560Y-108144787D01*
X140631339Y-108146632D01*
X140664165Y-108161938D01*
X140695673Y-108186401D01*
X140722319Y-108216876D01*
X140735811Y-108239343D01*
X140745423Y-108261062D01*
X140750864Y-108280621D01*
X140753227Y-108303321D01*
X140753636Y-108325789D01*
X140752954Y-108353718D01*
X140750080Y-108374734D01*
X140743777Y-108394392D01*
X140733190Y-108417464D01*
X140711168Y-108454255D01*
X140684184Y-108483068D01*
X140649217Y-108506782D01*
X140628354Y-108517365D01*
X140598627Y-108529893D01*
X140568187Y-108539521D01*
X140534720Y-108546628D01*
X140495915Y-108551591D01*
X140449458Y-108554788D01*
X140393039Y-108556599D01*
X140387921Y-108556697D01*
X140349255Y-108557247D01*
X140313214Y-108557464D01*
X140282345Y-108557353D01*
X140259196Y-108556924D01*
X140247262Y-108556291D01*
X140224893Y-108553675D01*
X140203719Y-108550678D01*
X140201938Y-108550389D01*
X140181621Y-108547021D01*
X140181621Y-108430191D01*
X140356664Y-108430191D01*
X140423868Y-108427628D01*
X140457322Y-108425836D01*
X140481571Y-108423057D01*
X140499903Y-108418712D01*
X140515610Y-108412221D01*
X140517886Y-108411056D01*
X140544473Y-108391048D01*
X140562722Y-108364761D01*
X140572167Y-108334835D01*
X140572343Y-108303910D01*
X140562785Y-108274627D01*
X140545872Y-108252236D01*
X140523680Y-108235342D01*
X140496511Y-108223440D01*
X140461953Y-108215763D01*
X140417784Y-108211554D01*
X140356664Y-108208186D01*
X140356664Y-108319188D01*
X140356664Y-108430191D01*
X140181621Y-108430191D01*
X140181621Y-108319188D01*
X140181621Y-108169755D01*
X140181650Y-108090783D01*
X140181657Y-108086427D01*
X140356664Y-108086427D01*
X140417616Y-108083767D01*
X140451625Y-108081482D01*
X140476533Y-108077678D01*
X140495709Y-108071732D01*
X140504183Y-108067771D01*
X140530982Y-108048075D01*
X140547925Y-108023544D01*
X140554969Y-107996477D01*
X140552072Y-107969175D01*
X140539190Y-107943939D01*
X140516283Y-107923069D01*
X140506939Y-107917745D01*
X140491062Y-107910834D01*
X140474412Y-107906577D01*
X140453300Y-107904390D01*
X140424039Y-107903691D01*
X140417854Y-107903679D01*
X140356664Y-107903679D01*
X140356664Y-107995053D01*
X140356664Y-108086427D01*
X140181657Y-108086427D01*
X140181755Y-108023409D01*
X140181856Y-107995053D01*
X140181957Y-107966731D01*
X140182278Y-107919843D01*
X140182741Y-107881842D01*
X140183368Y-107851823D01*
X140184180Y-107828883D01*
X140185202Y-107812117D01*
X140186454Y-107800622D01*
X140187959Y-107793492D01*
X140189739Y-107789825D01*
X140191005Y-107788887D01*
X140200237Y-107787211D01*
X140219567Y-107784943D01*
X140246617Y-107782321D01*
X140279011Y-107779584D01*
X140298844Y-107778072D01*
X140369659Y-107774493D01*
X140435623Y-107774334D01*
X140494463Y-107777528D01*
G37*
G36*
X136566632Y-103999763D02*
G01*
X136581721Y-104008945D01*
X136603872Y-104022957D01*
X136631420Y-104040743D01*
X136662696Y-104061247D01*
X136666366Y-104063671D01*
X136768006Y-104130875D01*
X136768361Y-105190511D01*
X136768717Y-106250147D01*
X137060758Y-106416488D01*
X137352799Y-106582829D01*
X137354444Y-106371177D01*
X137356089Y-106159524D01*
X137326752Y-106123566D01*
X137270390Y-106046953D01*
X137218152Y-105961172D01*
X137171498Y-105869273D01*
X137131886Y-105774304D01*
X137100774Y-105679313D01*
X137086240Y-105621033D01*
X137078846Y-105577352D01*
X137073478Y-105525972D01*
X137070240Y-105470546D01*
X137069240Y-105414727D01*
X137070582Y-105362166D01*
X137074371Y-105316516D01*
X137076941Y-105298977D01*
X137095845Y-105220555D01*
X137123776Y-105148828D01*
X137160112Y-105084538D01*
X137204232Y-105028422D01*
X137255511Y-104981221D01*
X137313329Y-104943673D01*
X137377061Y-104916519D01*
X137405938Y-104908269D01*
X137438577Y-104902990D01*
X137479382Y-104900472D01*
X137524347Y-104900610D01*
X137569467Y-104903301D01*
X137610737Y-104908441D01*
X137638483Y-104914298D01*
X137730370Y-104945169D01*
X137818380Y-104987308D01*
X137902959Y-105040991D01*
X137984552Y-105106492D01*
X138046816Y-105166386D01*
X138126659Y-105257206D01*
X138196561Y-105353899D01*
X138256086Y-105455535D01*
X138304800Y-105561189D01*
X138342268Y-105669931D01*
X138368056Y-105780833D01*
X138380696Y-105878912D01*
X138383061Y-105974570D01*
X138374510Y-106065594D01*
X138355152Y-106151333D01*
X138325095Y-106231136D01*
X138320846Y-106240134D01*
X138306000Y-106269137D01*
X138291420Y-106292786D01*
X138274283Y-106314946D01*
X138251767Y-106339483D01*
X138238364Y-106353095D01*
X138201601Y-106387534D01*
X138168839Y-106412868D01*
X138142079Y-106428748D01*
X138099905Y-106450196D01*
X138100036Y-106737767D01*
X138100167Y-107025338D01*
X138346948Y-107168499D01*
X138593730Y-107311661D01*
X138593730Y-107435753D01*
X138593730Y-107559844D01*
X138545280Y-107559013D01*
X138514023Y-107557860D01*
X138477979Y-107555621D01*
X138444763Y-107552771D01*
X138443693Y-107552661D01*
X138267199Y-107528321D01*
X138095626Y-107492487D01*
X137928955Y-107445152D01*
X137767168Y-107386308D01*
X137610246Y-107315947D01*
X137458171Y-107234063D01*
X137310925Y-107140647D01*
X137168489Y-107035692D01*
X137155876Y-107025657D01*
X137118193Y-106994059D01*
X137074847Y-106955343D01*
X137028116Y-106911738D01*
X136980274Y-106865471D01*
X136933596Y-106818772D01*
X136890358Y-106773868D01*
X136852836Y-106732987D01*
X136829981Y-106706509D01*
X136720672Y-106565869D01*
X136623042Y-106420786D01*
X136537052Y-106271167D01*
X136462659Y-106116922D01*
X136399823Y-105957960D01*
X136348503Y-105794189D01*
X136308657Y-105625518D01*
X136286898Y-105499962D01*
X136274049Y-105391756D01*
X136266051Y-105276322D01*
X136262966Y-105157772D01*
X136264855Y-105040219D01*
X136271780Y-104927777D01*
X136277510Y-104871683D01*
X136299199Y-104728702D01*
X136330427Y-104583161D01*
X136370226Y-104438684D01*
X136417624Y-104298894D01*
X136457433Y-104199642D01*
X136469696Y-104172101D01*
X136484100Y-104141229D01*
X136499638Y-104109013D01*
X136515307Y-104077438D01*
X136530099Y-104048491D01*
X136543011Y-104024158D01*
X136553036Y-104006425D01*
X136559169Y-103997278D01*
X136560275Y-103996467D01*
X136566632Y-103999763D01*
G37*
G36*
X140797775Y-104014561D02*
G01*
X140808121Y-104030153D01*
X140821800Y-104054483D01*
X140838073Y-104086151D01*
X140856199Y-104123757D01*
X140875438Y-104165899D01*
X140880678Y-104177762D01*
X140945566Y-104340921D01*
X140998245Y-104506493D01*
X141038682Y-104674091D01*
X141066844Y-104843326D01*
X141082699Y-105013811D01*
X141086214Y-105185156D01*
X141077357Y-105356975D01*
X141056095Y-105528879D01*
X141022394Y-105700480D01*
X141012348Y-105741993D01*
X140964984Y-105905367D01*
X140906077Y-106064812D01*
X140836087Y-106219614D01*
X140755476Y-106369062D01*
X140664702Y-106512440D01*
X140564229Y-106649037D01*
X140454515Y-106778139D01*
X140336022Y-106899033D01*
X140209210Y-107011005D01*
X140174526Y-107038890D01*
X140037662Y-107139161D01*
X139894280Y-107229626D01*
X139745281Y-107309940D01*
X139591568Y-107379757D01*
X139434043Y-107438731D01*
X139273609Y-107486517D01*
X139111167Y-107522769D01*
X138947619Y-107547140D01*
X138820849Y-107557629D01*
X138743767Y-107561750D01*
X138743767Y-107439527D01*
X138743767Y-107317304D01*
X139142302Y-107084569D01*
X139210776Y-107044587D01*
X139288326Y-106999313D01*
X139373229Y-106949754D01*
X139463759Y-106896917D01*
X139558192Y-106841806D01*
X139654804Y-106785430D01*
X139751870Y-106728793D01*
X139847665Y-106672904D01*
X139940466Y-106618766D01*
X140028547Y-106567388D01*
X140060292Y-106548873D01*
X140579746Y-106245912D01*
X140583845Y-106091741D01*
X140585094Y-106038169D01*
X140586105Y-105981324D01*
X140586882Y-105922519D01*
X140587428Y-105863068D01*
X140587745Y-105804284D01*
X140587838Y-105747479D01*
X140587709Y-105693967D01*
X140587361Y-105645062D01*
X140586799Y-105602076D01*
X140586024Y-105566323D01*
X140585040Y-105539116D01*
X140583850Y-105521768D01*
X140582458Y-105515592D01*
X140582440Y-105515591D01*
X140575823Y-105518604D01*
X140559784Y-105527129D01*
X140535707Y-105540392D01*
X140504979Y-105557619D01*
X140468987Y-105578039D01*
X140429116Y-105600876D01*
X140415691Y-105608611D01*
X140254473Y-105701631D01*
X140215710Y-105810223D01*
X140197553Y-105860534D01*
X140182364Y-105901109D01*
X140169208Y-105934091D01*
X140157148Y-105961622D01*
X140145251Y-105985845D01*
X140132581Y-106008901D01*
X140119282Y-106031182D01*
X140061578Y-106116173D01*
X139997360Y-106194378D01*
X139927684Y-106265002D01*
X139853611Y-106327251D01*
X139776199Y-106380330D01*
X139696505Y-106423445D01*
X139615590Y-106455801D01*
X139534511Y-106476605D01*
X139523129Y-106478563D01*
X139464548Y-106483975D01*
X139402900Y-106482563D01*
X139343059Y-106474673D01*
X139294826Y-106462335D01*
X139229589Y-106434547D01*
X139172167Y-106397094D01*
X139122521Y-106349930D01*
X139080614Y-106293008D01*
X139046409Y-106226281D01*
X139019869Y-106149702D01*
X139009086Y-106105981D01*
X139003385Y-106069358D01*
X138999723Y-106023892D01*
X138998104Y-105973076D01*
X138998533Y-105920403D01*
X139001016Y-105869365D01*
X139005555Y-105823457D01*
X139008662Y-105803162D01*
X139034244Y-105689857D01*
X139070022Y-105578930D01*
X139115224Y-105471784D01*
X139169080Y-105369820D01*
X139230817Y-105274440D01*
X139299664Y-105187044D01*
X139374849Y-105109035D01*
X139406132Y-105081109D01*
X139484352Y-105020326D01*
X139563319Y-104970638D01*
X139642492Y-104932192D01*
X139721328Y-104905132D01*
X139799286Y-104889603D01*
X139875824Y-104885752D01*
X139950399Y-104893722D01*
X140022471Y-104913661D01*
X140025840Y-104914915D01*
X140050782Y-104927239D01*
X140080918Y-104946805D01*
X140113083Y-104971555D01*
X140113361Y-104971786D01*
X140136221Y-104990408D01*
X140156762Y-105006473D01*
X140172365Y-105017967D01*
X140179261Y-105022384D01*
X140184377Y-105023724D01*
X140191960Y-105022941D01*
X140203231Y-105019495D01*
X140219416Y-105012843D01*
X140241735Y-105002446D01*
X140271412Y-104987762D01*
X140309670Y-104968249D01*
X140357430Y-104943523D01*
X140400739Y-104920991D01*
X140441848Y-104899572D01*
X140479049Y-104880159D01*
X140510632Y-104863646D01*
X140534889Y-104850924D01*
X140550112Y-104842886D01*
X140551973Y-104841892D01*
X140581617Y-104825990D01*
X140583231Y-104473040D01*
X140584845Y-104120089D01*
X140684869Y-104064667D01*
X140717098Y-104046994D01*
X140745744Y-104031635D01*
X140768949Y-104019557D01*
X140784859Y-104011728D01*
X140791504Y-104009107D01*
X140797775Y-104014561D01*
G37*
G36*
X138754549Y-102744419D02*
G01*
X138825175Y-102746644D01*
X138890390Y-102750734D01*
X138953708Y-102756975D01*
X139018642Y-102765655D01*
X139088704Y-102777059D01*
X139093853Y-102777960D01*
X139259990Y-102813447D01*
X139423037Y-102860792D01*
X139582295Y-102919583D01*
X139737067Y-102989406D01*
X139886658Y-103069848D01*
X140030368Y-103160496D01*
X140167503Y-103260936D01*
X140297363Y-103370757D01*
X140419253Y-103489544D01*
X140532474Y-103616884D01*
X140554053Y-103643387D01*
X140576942Y-103672674D01*
X140601337Y-103705189D01*
X140626196Y-103739399D01*
X140650474Y-103773768D01*
X140673130Y-103806763D01*
X140693118Y-103836849D01*
X140709396Y-103862491D01*
X140720921Y-103882157D01*
X140726648Y-103894311D01*
X140726816Y-103897415D01*
X140720144Y-103901656D01*
X140704333Y-103910849D01*
X140681218Y-103923954D01*
X140652633Y-103939928D01*
X140623418Y-103956079D01*
X140587732Y-103975560D01*
X140561191Y-103989549D01*
X140542086Y-103998753D01*
X140528706Y-104003881D01*
X140519338Y-104005640D01*
X140512272Y-104004738D01*
X140508923Y-104003445D01*
X140502144Y-103999862D01*
X140487645Y-103991754D01*
X140465171Y-103978973D01*
X140434465Y-103961369D01*
X140395272Y-103938797D01*
X140347337Y-103911107D01*
X140290405Y-103878151D01*
X140224219Y-103839782D01*
X140148524Y-103795852D01*
X140063065Y-103746213D01*
X139967587Y-103690717D01*
X139861833Y-103629217D01*
X139745548Y-103561563D01*
X139740887Y-103558851D01*
X139717391Y-103545183D01*
X139684480Y-103526044D01*
X139643549Y-103502246D01*
X139595994Y-103474600D01*
X139543211Y-103443917D01*
X139486595Y-103411009D01*
X139427541Y-103376686D01*
X139367445Y-103341760D01*
X139340789Y-103326269D01*
X139276853Y-103289114D01*
X139210251Y-103250410D01*
X139142868Y-103211251D01*
X139076586Y-103172732D01*
X139013288Y-103135948D01*
X138954858Y-103101992D01*
X138903178Y-103071959D01*
X138860133Y-103046943D01*
X138854339Y-103043576D01*
X138674215Y-102938898D01*
X138457366Y-103062515D01*
X138405092Y-103092295D01*
X138352140Y-103122424D01*
X138300441Y-103151806D01*
X138251924Y-103179347D01*
X138208521Y-103203949D01*
X138172162Y-103224517D01*
X138145320Y-103239651D01*
X138114422Y-103257187D01*
X138087695Y-103272673D01*
X138066897Y-103285064D01*
X138053784Y-103293316D01*
X138049993Y-103296295D01*
X138054941Y-103300543D01*
X138068686Y-103310238D01*
X138089441Y-103324171D01*
X138115419Y-103341134D01*
X138132688Y-103352211D01*
X138166006Y-103373449D01*
X138200132Y-103395204D01*
X138231629Y-103415284D01*
X138257057Y-103431499D01*
X138263022Y-103435302D01*
X138310532Y-103465603D01*
X138384927Y-103452926D01*
X138449169Y-103442683D01*
X138505505Y-103435412D01*
X138558075Y-103430735D01*
X138611018Y-103428269D01*
X138660614Y-103427629D01*
X138768377Y-103431971D01*
X138871124Y-103444892D01*
X138968163Y-103466041D01*
X139058804Y-103495066D01*
X139142352Y-103531617D01*
X139218118Y-103575343D01*
X139285408Y-103625893D01*
X139343531Y-103682916D01*
X139391796Y-103746062D01*
X139429509Y-103814979D01*
X139430986Y-103818298D01*
X139450632Y-103874589D01*
X139463214Y-103936197D01*
X139468331Y-103999179D01*
X139465583Y-104059590D01*
X139459206Y-104096397D01*
X139437552Y-104161724D01*
X139404308Y-104225005D01*
X139360327Y-104285445D01*
X139306457Y-104342248D01*
X139243551Y-104394620D01*
X139172458Y-104441766D01*
X139094031Y-104482891D01*
X139009119Y-104517199D01*
X139008664Y-104517358D01*
X138920248Y-104543118D01*
X138824197Y-104561804D01*
X138740641Y-104571516D01*
X138707762Y-104574123D01*
X138681927Y-104575787D01*
X138659627Y-104576502D01*
X138637349Y-104576265D01*
X138611585Y-104575071D01*
X138578822Y-104572915D01*
X138556221Y-104571295D01*
X138455263Y-104560044D01*
X138357858Y-104541468D01*
X138264874Y-104516072D01*
X138177182Y-104484357D01*
X138095651Y-104446828D01*
X138021153Y-104403987D01*
X137954557Y-104356337D01*
X137896734Y-104304382D01*
X137848553Y-104248623D01*
X137810885Y-104189566D01*
X137784599Y-104127711D01*
X137783620Y-104124622D01*
X137777555Y-104104260D01*
X137773319Y-104086601D01*
X137770650Y-104068781D01*
X137769282Y-104047932D01*
X137768953Y-104021188D01*
X137769399Y-103985681D01*
X137769647Y-103972788D01*
X137771653Y-103872207D01*
X137724766Y-103844677D01*
X137705847Y-103833530D01*
X137678383Y-103817299D01*
X137644579Y-103797288D01*
X137606638Y-103774801D01*
X137566762Y-103751144D01*
X137544392Y-103737862D01*
X137410904Y-103658577D01*
X137153670Y-103816168D01*
X137101171Y-103848330D01*
X137051025Y-103879049D01*
X137004424Y-103907594D01*
X136962561Y-103933235D01*
X136926629Y-103955241D01*
X136897820Y-103972881D01*
X136877327Y-103985427D01*
X136866545Y-103992022D01*
X136836653Y-104010286D01*
X136733700Y-103945766D01*
X136701904Y-103925579D01*
X136674096Y-103907422D01*
X136651897Y-103892398D01*
X136636928Y-103881604D01*
X136630810Y-103876143D01*
X136630747Y-103875916D01*
X136634287Y-103868112D01*
X136644137Y-103851939D01*
X136659141Y-103829058D01*
X136678144Y-103801128D01*
X136699989Y-103769811D01*
X136723522Y-103736766D01*
X136747587Y-103703655D01*
X136771029Y-103672138D01*
X136788309Y-103649507D01*
X136813598Y-103618621D01*
X136846319Y-103581323D01*
X136884592Y-103539542D01*
X136926536Y-103495207D01*
X136970270Y-103450247D01*
X137013911Y-103406590D01*
X137055580Y-103366166D01*
X137093394Y-103330904D01*
X137125473Y-103302732D01*
X137130870Y-103298254D01*
X137270469Y-103191589D01*
X137415807Y-103095720D01*
X137566399Y-103010895D01*
X137721756Y-102937356D01*
X137881395Y-102875351D01*
X138044827Y-102825125D01*
X138093929Y-102812536D01*
X138198650Y-102788821D01*
X138297949Y-102770612D01*
X138395571Y-102757463D01*
X138495263Y-102748932D01*
X138600769Y-102744575D01*
X138675000Y-102743771D01*
X138754549Y-102744419D01*
G37*
G04 #@! TO.C,R3*
D14*
X134020564Y-89792500D02*
X132566436Y-89792500D01*
X134020564Y-91612500D02*
X132566436Y-91612500D01*
G04 #@! TO.C,R2*
X132020564Y-86292500D02*
X130566436Y-86292500D01*
X132020564Y-88112500D02*
X130566436Y-88112500D01*
G04 #@! TO.C,U1*
D15*
X127892500Y-92555500D02*
X127892500Y-92812011D01*
X127892500Y-95092989D02*
X127892500Y-95349500D01*
X127892500Y-95349500D02*
X128653013Y-95349500D01*
X128653013Y-92555500D02*
X127892500Y-92555500D01*
X130433987Y-95349500D02*
X131194500Y-95349500D01*
X131194500Y-92555500D02*
X130433987Y-92555500D01*
X131194500Y-92812011D02*
X131194500Y-92555500D01*
X131194500Y-95349500D02*
X131194500Y-95092989D01*
D13*
G36*
X131499300Y-93893001D02*
G01*
X131245300Y-93893001D01*
X131245300Y-93512000D01*
X131499300Y-93512000D01*
X131499300Y-93893001D01*
G37*
G04 #@! TO.C,R1*
D14*
X125816436Y-86292500D02*
X127270564Y-86292500D01*
X125816436Y-88112500D02*
X127270564Y-88112500D01*
G04 #@! TO.C,R4*
X124590000Y-91477064D02*
X124590000Y-90022936D01*
X126410000Y-91477064D02*
X126410000Y-90022936D01*
G04 #@! TO.C,J1*
X154800000Y-86460000D02*
X154800000Y-101760000D01*
X154800000Y-86460000D02*
X157460000Y-86460000D01*
X154800000Y-101760000D02*
X157460000Y-101760000D01*
X156130000Y-83860000D02*
X157460000Y-83860000D01*
X157460000Y-83860000D02*
X157460000Y-85190000D01*
X157460000Y-86460000D02*
X157460000Y-101760000D01*
G04 #@! TO.C,C2*
X131883500Y-95491248D02*
X131883500Y-96913752D01*
X133703500Y-95491248D02*
X133703500Y-96913752D01*
G04 #@! TO.C,J2*
X139550000Y-86470000D02*
X139550000Y-101770000D01*
X139550000Y-86470000D02*
X142210000Y-86470000D01*
X139550000Y-101770000D02*
X142210000Y-101770000D01*
X140880000Y-83870000D02*
X142210000Y-83870000D01*
X142210000Y-83870000D02*
X142210000Y-85200000D01*
X142210000Y-86470000D02*
X142210000Y-101770000D01*
G04 #@! TO.C,C1*
X129504752Y-96042500D02*
X128082248Y-96042500D01*
X129504752Y-97862500D02*
X128082248Y-97862500D01*
G04 #@! TD*
M02*
