G04 #@! TF.GenerationSoftware,KiCad,Pcbnew,10.0.3*
G04 #@! TF.CreationDate,2026-07-16T11:36:57-04:00*
G04 #@! TF.ProjectId,555Board,35353542-6f61-4726-942e-6b696361645f,rev?*
G04 #@! TF.SameCoordinates,Original*
G04 #@! TF.FileFunction,Legend,Top*
G04 #@! TF.FilePolarity,Positive*
%FSLAX46Y46*%
G04 Gerber Fmt 4.6, Leading zero omitted, Abs format (unit mm)*
G04 Created by KiCad (PCBNEW 10.0.3) date 2026-07-16 11:36:57*
%MOMM*%
%LPD*%
G01*
G04 APERTURE LIST*
%ADD10C,0.250000*%
%ADD11C,0.150000*%
%ADD12C,0.000000*%
%ADD13C,0.120000*%
G04 APERTURE END LIST*
D10*
X161130952Y-73364619D02*
X161321428Y-73364619D01*
X161321428Y-73364619D02*
X161416666Y-73317000D01*
X161416666Y-73317000D02*
X161464285Y-73269380D01*
X161464285Y-73269380D02*
X161559523Y-73126523D01*
X161559523Y-73126523D02*
X161607142Y-72936047D01*
X161607142Y-72936047D02*
X161607142Y-72555095D01*
X161607142Y-72555095D02*
X161559523Y-72459857D01*
X161559523Y-72459857D02*
X161511904Y-72412238D01*
X161511904Y-72412238D02*
X161416666Y-72364619D01*
X161416666Y-72364619D02*
X161226190Y-72364619D01*
X161226190Y-72364619D02*
X161130952Y-72412238D01*
X161130952Y-72412238D02*
X161083333Y-72459857D01*
X161083333Y-72459857D02*
X161035714Y-72555095D01*
X161035714Y-72555095D02*
X161035714Y-72793190D01*
X161035714Y-72793190D02*
X161083333Y-72888428D01*
X161083333Y-72888428D02*
X161130952Y-72936047D01*
X161130952Y-72936047D02*
X161226190Y-72983666D01*
X161226190Y-72983666D02*
X161416666Y-72983666D01*
X161416666Y-72983666D02*
X161511904Y-72936047D01*
X161511904Y-72936047D02*
X161559523Y-72888428D01*
X161559523Y-72888428D02*
X161607142Y-72793190D01*
X161892857Y-72364619D02*
X162226190Y-73364619D01*
X162226190Y-73364619D02*
X162559523Y-72364619D01*
X164238095Y-72412238D02*
X164142857Y-72364619D01*
X164142857Y-72364619D02*
X164000000Y-72364619D01*
X164000000Y-72364619D02*
X163857143Y-72412238D01*
X163857143Y-72412238D02*
X163761905Y-72507476D01*
X163761905Y-72507476D02*
X163714286Y-72602714D01*
X163714286Y-72602714D02*
X163666667Y-72793190D01*
X163666667Y-72793190D02*
X163666667Y-72936047D01*
X163666667Y-72936047D02*
X163714286Y-73126523D01*
X163714286Y-73126523D02*
X163761905Y-73221761D01*
X163761905Y-73221761D02*
X163857143Y-73317000D01*
X163857143Y-73317000D02*
X164000000Y-73364619D01*
X164000000Y-73364619D02*
X164095238Y-73364619D01*
X164095238Y-73364619D02*
X164238095Y-73317000D01*
X164238095Y-73317000D02*
X164285714Y-73269380D01*
X164285714Y-73269380D02*
X164285714Y-72936047D01*
X164285714Y-72936047D02*
X164095238Y-72936047D01*
X164714286Y-73364619D02*
X164714286Y-72364619D01*
X164714286Y-72364619D02*
X165285714Y-73364619D01*
X165285714Y-73364619D02*
X165285714Y-72364619D01*
X165761905Y-73364619D02*
X165761905Y-72364619D01*
X165761905Y-72364619D02*
X166000000Y-72364619D01*
X166000000Y-72364619D02*
X166142857Y-72412238D01*
X166142857Y-72412238D02*
X166238095Y-72507476D01*
X166238095Y-72507476D02*
X166285714Y-72602714D01*
X166285714Y-72602714D02*
X166333333Y-72793190D01*
X166333333Y-72793190D02*
X166333333Y-72936047D01*
X166333333Y-72936047D02*
X166285714Y-73126523D01*
X166285714Y-73126523D02*
X166238095Y-73221761D01*
X166238095Y-73221761D02*
X166142857Y-73317000D01*
X166142857Y-73317000D02*
X166000000Y-73364619D01*
X166000000Y-73364619D02*
X165761905Y-73364619D01*
X181533332Y-59114619D02*
X181057142Y-59114619D01*
X181057142Y-59114619D02*
X181009523Y-59590809D01*
X181009523Y-59590809D02*
X181057142Y-59543190D01*
X181057142Y-59543190D02*
X181152380Y-59495571D01*
X181152380Y-59495571D02*
X181390475Y-59495571D01*
X181390475Y-59495571D02*
X181485713Y-59543190D01*
X181485713Y-59543190D02*
X181533332Y-59590809D01*
X181533332Y-59590809D02*
X181580951Y-59686047D01*
X181580951Y-59686047D02*
X181580951Y-59924142D01*
X181580951Y-59924142D02*
X181533332Y-60019380D01*
X181533332Y-60019380D02*
X181485713Y-60067000D01*
X181485713Y-60067000D02*
X181390475Y-60114619D01*
X181390475Y-60114619D02*
X181152380Y-60114619D01*
X181152380Y-60114619D02*
X181057142Y-60067000D01*
X181057142Y-60067000D02*
X181009523Y-60019380D01*
X182485713Y-59114619D02*
X182009523Y-59114619D01*
X182009523Y-59114619D02*
X181961904Y-59590809D01*
X181961904Y-59590809D02*
X182009523Y-59543190D01*
X182009523Y-59543190D02*
X182104761Y-59495571D01*
X182104761Y-59495571D02*
X182342856Y-59495571D01*
X182342856Y-59495571D02*
X182438094Y-59543190D01*
X182438094Y-59543190D02*
X182485713Y-59590809D01*
X182485713Y-59590809D02*
X182533332Y-59686047D01*
X182533332Y-59686047D02*
X182533332Y-59924142D01*
X182533332Y-59924142D02*
X182485713Y-60019380D01*
X182485713Y-60019380D02*
X182438094Y-60067000D01*
X182438094Y-60067000D02*
X182342856Y-60114619D01*
X182342856Y-60114619D02*
X182104761Y-60114619D01*
X182104761Y-60114619D02*
X182009523Y-60067000D01*
X182009523Y-60067000D02*
X181961904Y-60019380D01*
X183438094Y-59114619D02*
X182961904Y-59114619D01*
X182961904Y-59114619D02*
X182914285Y-59590809D01*
X182914285Y-59590809D02*
X182961904Y-59543190D01*
X182961904Y-59543190D02*
X183057142Y-59495571D01*
X183057142Y-59495571D02*
X183295237Y-59495571D01*
X183295237Y-59495571D02*
X183390475Y-59543190D01*
X183390475Y-59543190D02*
X183438094Y-59590809D01*
X183438094Y-59590809D02*
X183485713Y-59686047D01*
X183485713Y-59686047D02*
X183485713Y-59924142D01*
X183485713Y-59924142D02*
X183438094Y-60019380D01*
X183438094Y-60019380D02*
X183390475Y-60067000D01*
X183390475Y-60067000D02*
X183295237Y-60114619D01*
X183295237Y-60114619D02*
X183057142Y-60114619D01*
X183057142Y-60114619D02*
X182961904Y-60067000D01*
X182961904Y-60067000D02*
X182914285Y-60019380D01*
X184533333Y-59114619D02*
X185104761Y-59114619D01*
X184819047Y-60114619D02*
X184819047Y-59114619D01*
X185438095Y-60114619D02*
X185438095Y-59447952D01*
X185438095Y-59114619D02*
X185390476Y-59162238D01*
X185390476Y-59162238D02*
X185438095Y-59209857D01*
X185438095Y-59209857D02*
X185485714Y-59162238D01*
X185485714Y-59162238D02*
X185438095Y-59114619D01*
X185438095Y-59114619D02*
X185438095Y-59209857D01*
X185914285Y-60114619D02*
X185914285Y-59447952D01*
X185914285Y-59543190D02*
X185961904Y-59495571D01*
X185961904Y-59495571D02*
X186057142Y-59447952D01*
X186057142Y-59447952D02*
X186199999Y-59447952D01*
X186199999Y-59447952D02*
X186295237Y-59495571D01*
X186295237Y-59495571D02*
X186342856Y-59590809D01*
X186342856Y-59590809D02*
X186342856Y-60114619D01*
X186342856Y-59590809D02*
X186390475Y-59495571D01*
X186390475Y-59495571D02*
X186485713Y-59447952D01*
X186485713Y-59447952D02*
X186628570Y-59447952D01*
X186628570Y-59447952D02*
X186723809Y-59495571D01*
X186723809Y-59495571D02*
X186771428Y-59590809D01*
X186771428Y-59590809D02*
X186771428Y-60114619D01*
X187628570Y-60067000D02*
X187533332Y-60114619D01*
X187533332Y-60114619D02*
X187342856Y-60114619D01*
X187342856Y-60114619D02*
X187247618Y-60067000D01*
X187247618Y-60067000D02*
X187199999Y-59971761D01*
X187199999Y-59971761D02*
X187199999Y-59590809D01*
X187199999Y-59590809D02*
X187247618Y-59495571D01*
X187247618Y-59495571D02*
X187342856Y-59447952D01*
X187342856Y-59447952D02*
X187533332Y-59447952D01*
X187533332Y-59447952D02*
X187628570Y-59495571D01*
X187628570Y-59495571D02*
X187676189Y-59590809D01*
X187676189Y-59590809D02*
X187676189Y-59686047D01*
X187676189Y-59686047D02*
X187199999Y-59781285D01*
X188104761Y-60114619D02*
X188104761Y-59447952D01*
X188104761Y-59638428D02*
X188152380Y-59543190D01*
X188152380Y-59543190D02*
X188199999Y-59495571D01*
X188199999Y-59495571D02*
X188295237Y-59447952D01*
X188295237Y-59447952D02*
X188390475Y-59447952D01*
X189819047Y-59590809D02*
X189961904Y-59638428D01*
X189961904Y-59638428D02*
X190009523Y-59686047D01*
X190009523Y-59686047D02*
X190057142Y-59781285D01*
X190057142Y-59781285D02*
X190057142Y-59924142D01*
X190057142Y-59924142D02*
X190009523Y-60019380D01*
X190009523Y-60019380D02*
X189961904Y-60067000D01*
X189961904Y-60067000D02*
X189866666Y-60114619D01*
X189866666Y-60114619D02*
X189485714Y-60114619D01*
X189485714Y-60114619D02*
X189485714Y-59114619D01*
X189485714Y-59114619D02*
X189819047Y-59114619D01*
X189819047Y-59114619D02*
X189914285Y-59162238D01*
X189914285Y-59162238D02*
X189961904Y-59209857D01*
X189961904Y-59209857D02*
X190009523Y-59305095D01*
X190009523Y-59305095D02*
X190009523Y-59400333D01*
X190009523Y-59400333D02*
X189961904Y-59495571D01*
X189961904Y-59495571D02*
X189914285Y-59543190D01*
X189914285Y-59543190D02*
X189819047Y-59590809D01*
X189819047Y-59590809D02*
X189485714Y-59590809D01*
X190628571Y-60114619D02*
X190533333Y-60067000D01*
X190533333Y-60067000D02*
X190485714Y-60019380D01*
X190485714Y-60019380D02*
X190438095Y-59924142D01*
X190438095Y-59924142D02*
X190438095Y-59638428D01*
X190438095Y-59638428D02*
X190485714Y-59543190D01*
X190485714Y-59543190D02*
X190533333Y-59495571D01*
X190533333Y-59495571D02*
X190628571Y-59447952D01*
X190628571Y-59447952D02*
X190771428Y-59447952D01*
X190771428Y-59447952D02*
X190866666Y-59495571D01*
X190866666Y-59495571D02*
X190914285Y-59543190D01*
X190914285Y-59543190D02*
X190961904Y-59638428D01*
X190961904Y-59638428D02*
X190961904Y-59924142D01*
X190961904Y-59924142D02*
X190914285Y-60019380D01*
X190914285Y-60019380D02*
X190866666Y-60067000D01*
X190866666Y-60067000D02*
X190771428Y-60114619D01*
X190771428Y-60114619D02*
X190628571Y-60114619D01*
X191819047Y-60114619D02*
X191819047Y-59590809D01*
X191819047Y-59590809D02*
X191771428Y-59495571D01*
X191771428Y-59495571D02*
X191676190Y-59447952D01*
X191676190Y-59447952D02*
X191485714Y-59447952D01*
X191485714Y-59447952D02*
X191390476Y-59495571D01*
X191819047Y-60067000D02*
X191723809Y-60114619D01*
X191723809Y-60114619D02*
X191485714Y-60114619D01*
X191485714Y-60114619D02*
X191390476Y-60067000D01*
X191390476Y-60067000D02*
X191342857Y-59971761D01*
X191342857Y-59971761D02*
X191342857Y-59876523D01*
X191342857Y-59876523D02*
X191390476Y-59781285D01*
X191390476Y-59781285D02*
X191485714Y-59733666D01*
X191485714Y-59733666D02*
X191723809Y-59733666D01*
X191723809Y-59733666D02*
X191819047Y-59686047D01*
X192295238Y-60114619D02*
X192295238Y-59447952D01*
X192295238Y-59638428D02*
X192342857Y-59543190D01*
X192342857Y-59543190D02*
X192390476Y-59495571D01*
X192390476Y-59495571D02*
X192485714Y-59447952D01*
X192485714Y-59447952D02*
X192580952Y-59447952D01*
X193342857Y-60114619D02*
X193342857Y-59114619D01*
X193342857Y-60067000D02*
X193247619Y-60114619D01*
X193247619Y-60114619D02*
X193057143Y-60114619D01*
X193057143Y-60114619D02*
X192961905Y-60067000D01*
X192961905Y-60067000D02*
X192914286Y-60019380D01*
X192914286Y-60019380D02*
X192866667Y-59924142D01*
X192866667Y-59924142D02*
X192866667Y-59638428D01*
X192866667Y-59638428D02*
X192914286Y-59543190D01*
X192914286Y-59543190D02*
X192961905Y-59495571D01*
X192961905Y-59495571D02*
X193057143Y-59447952D01*
X193057143Y-59447952D02*
X193247619Y-59447952D01*
X193247619Y-59447952D02*
X193342857Y-59495571D01*
D11*
X186154761Y-74454819D02*
X185821428Y-73978628D01*
X185583333Y-74454819D02*
X185583333Y-73454819D01*
X185583333Y-73454819D02*
X185964285Y-73454819D01*
X185964285Y-73454819D02*
X186059523Y-73502438D01*
X186059523Y-73502438D02*
X186107142Y-73550057D01*
X186107142Y-73550057D02*
X186154761Y-73645295D01*
X186154761Y-73645295D02*
X186154761Y-73788152D01*
X186154761Y-73788152D02*
X186107142Y-73883390D01*
X186107142Y-73883390D02*
X186059523Y-73931009D01*
X186059523Y-73931009D02*
X185964285Y-73978628D01*
X185964285Y-73978628D02*
X185583333Y-73978628D01*
X186440476Y-73454819D02*
X186773809Y-74454819D01*
X186773809Y-74454819D02*
X187107142Y-73454819D01*
X187964285Y-74454819D02*
X187392857Y-74454819D01*
X187678571Y-74454819D02*
X187678571Y-73454819D01*
X187678571Y-73454819D02*
X187583333Y-73597676D01*
X187583333Y-73597676D02*
X187488095Y-73692914D01*
X187488095Y-73692914D02*
X187392857Y-73740533D01*
X175708333Y-66159580D02*
X175660714Y-66207200D01*
X175660714Y-66207200D02*
X175517857Y-66254819D01*
X175517857Y-66254819D02*
X175422619Y-66254819D01*
X175422619Y-66254819D02*
X175279762Y-66207200D01*
X175279762Y-66207200D02*
X175184524Y-66111961D01*
X175184524Y-66111961D02*
X175136905Y-66016723D01*
X175136905Y-66016723D02*
X175089286Y-65826247D01*
X175089286Y-65826247D02*
X175089286Y-65683390D01*
X175089286Y-65683390D02*
X175136905Y-65492914D01*
X175136905Y-65492914D02*
X175184524Y-65397676D01*
X175184524Y-65397676D02*
X175279762Y-65302438D01*
X175279762Y-65302438D02*
X175422619Y-65254819D01*
X175422619Y-65254819D02*
X175517857Y-65254819D01*
X175517857Y-65254819D02*
X175660714Y-65302438D01*
X175660714Y-65302438D02*
X175708333Y-65350057D01*
X176660714Y-66254819D02*
X176089286Y-66254819D01*
X176375000Y-66254819D02*
X176375000Y-65254819D01*
X176375000Y-65254819D02*
X176279762Y-65397676D01*
X176279762Y-65397676D02*
X176184524Y-65492914D01*
X176184524Y-65492914D02*
X176089286Y-65540533D01*
X190583333Y-64704819D02*
X190250000Y-64228628D01*
X190011905Y-64704819D02*
X190011905Y-63704819D01*
X190011905Y-63704819D02*
X190392857Y-63704819D01*
X190392857Y-63704819D02*
X190488095Y-63752438D01*
X190488095Y-63752438D02*
X190535714Y-63800057D01*
X190535714Y-63800057D02*
X190583333Y-63895295D01*
X190583333Y-63895295D02*
X190583333Y-64038152D01*
X190583333Y-64038152D02*
X190535714Y-64133390D01*
X190535714Y-64133390D02*
X190488095Y-64181009D01*
X190488095Y-64181009D02*
X190392857Y-64228628D01*
X190392857Y-64228628D02*
X190011905Y-64228628D01*
X190916667Y-63704819D02*
X191535714Y-63704819D01*
X191535714Y-63704819D02*
X191202381Y-64085771D01*
X191202381Y-64085771D02*
X191345238Y-64085771D01*
X191345238Y-64085771D02*
X191440476Y-64133390D01*
X191440476Y-64133390D02*
X191488095Y-64181009D01*
X191488095Y-64181009D02*
X191535714Y-64276247D01*
X191535714Y-64276247D02*
X191535714Y-64514342D01*
X191535714Y-64514342D02*
X191488095Y-64609580D01*
X191488095Y-64609580D02*
X191440476Y-64657200D01*
X191440476Y-64657200D02*
X191345238Y-64704819D01*
X191345238Y-64704819D02*
X191059524Y-64704819D01*
X191059524Y-64704819D02*
X190964286Y-64657200D01*
X190964286Y-64657200D02*
X190916667Y-64609580D01*
X183083333Y-63704819D02*
X182750000Y-63228628D01*
X182511905Y-63704819D02*
X182511905Y-62704819D01*
X182511905Y-62704819D02*
X182892857Y-62704819D01*
X182892857Y-62704819D02*
X182988095Y-62752438D01*
X182988095Y-62752438D02*
X183035714Y-62800057D01*
X183035714Y-62800057D02*
X183083333Y-62895295D01*
X183083333Y-62895295D02*
X183083333Y-63038152D01*
X183083333Y-63038152D02*
X183035714Y-63133390D01*
X183035714Y-63133390D02*
X182988095Y-63181009D01*
X182988095Y-63181009D02*
X182892857Y-63228628D01*
X182892857Y-63228628D02*
X182511905Y-63228628D01*
X183464286Y-62800057D02*
X183511905Y-62752438D01*
X183511905Y-62752438D02*
X183607143Y-62704819D01*
X183607143Y-62704819D02*
X183845238Y-62704819D01*
X183845238Y-62704819D02*
X183940476Y-62752438D01*
X183940476Y-62752438D02*
X183988095Y-62800057D01*
X183988095Y-62800057D02*
X184035714Y-62895295D01*
X184035714Y-62895295D02*
X184035714Y-62990533D01*
X184035714Y-62990533D02*
X183988095Y-63133390D01*
X183988095Y-63133390D02*
X183416667Y-63704819D01*
X183416667Y-63704819D02*
X184035714Y-63704819D01*
X178238095Y-65804819D02*
X178238095Y-66614342D01*
X178238095Y-66614342D02*
X178285714Y-66709580D01*
X178285714Y-66709580D02*
X178333333Y-66757200D01*
X178333333Y-66757200D02*
X178428571Y-66804819D01*
X178428571Y-66804819D02*
X178619047Y-66804819D01*
X178619047Y-66804819D02*
X178714285Y-66757200D01*
X178714285Y-66757200D02*
X178761904Y-66709580D01*
X178761904Y-66709580D02*
X178809523Y-66614342D01*
X178809523Y-66614342D02*
X178809523Y-65804819D01*
X179809523Y-66804819D02*
X179238095Y-66804819D01*
X179523809Y-66804819D02*
X179523809Y-65804819D01*
X179523809Y-65804819D02*
X179428571Y-65947676D01*
X179428571Y-65947676D02*
X179333333Y-66042914D01*
X179333333Y-66042914D02*
X179238095Y-66090533D01*
X189761905Y-70454819D02*
X189761905Y-69454819D01*
X189761905Y-69454819D02*
X190000000Y-69454819D01*
X190000000Y-69454819D02*
X190142857Y-69502438D01*
X190142857Y-69502438D02*
X190238095Y-69597676D01*
X190238095Y-69597676D02*
X190285714Y-69692914D01*
X190285714Y-69692914D02*
X190333333Y-69883390D01*
X190333333Y-69883390D02*
X190333333Y-70026247D01*
X190333333Y-70026247D02*
X190285714Y-70216723D01*
X190285714Y-70216723D02*
X190238095Y-70311961D01*
X190238095Y-70311961D02*
X190142857Y-70407200D01*
X190142857Y-70407200D02*
X190000000Y-70454819D01*
X190000000Y-70454819D02*
X189761905Y-70454819D01*
X190714286Y-69550057D02*
X190761905Y-69502438D01*
X190761905Y-69502438D02*
X190857143Y-69454819D01*
X190857143Y-69454819D02*
X191095238Y-69454819D01*
X191095238Y-69454819D02*
X191190476Y-69502438D01*
X191190476Y-69502438D02*
X191238095Y-69550057D01*
X191238095Y-69550057D02*
X191285714Y-69645295D01*
X191285714Y-69645295D02*
X191285714Y-69740533D01*
X191285714Y-69740533D02*
X191238095Y-69883390D01*
X191238095Y-69883390D02*
X190666667Y-70454819D01*
X190666667Y-70454819D02*
X191285714Y-70454819D01*
X170511905Y-71704819D02*
X170511905Y-70704819D01*
X170511905Y-70704819D02*
X170750000Y-70704819D01*
X170750000Y-70704819D02*
X170892857Y-70752438D01*
X170892857Y-70752438D02*
X170988095Y-70847676D01*
X170988095Y-70847676D02*
X171035714Y-70942914D01*
X171035714Y-70942914D02*
X171083333Y-71133390D01*
X171083333Y-71133390D02*
X171083333Y-71276247D01*
X171083333Y-71276247D02*
X171035714Y-71466723D01*
X171035714Y-71466723D02*
X170988095Y-71561961D01*
X170988095Y-71561961D02*
X170892857Y-71657200D01*
X170892857Y-71657200D02*
X170750000Y-71704819D01*
X170750000Y-71704819D02*
X170511905Y-71704819D01*
X172035714Y-71704819D02*
X171464286Y-71704819D01*
X171750000Y-71704819D02*
X171750000Y-70704819D01*
X171750000Y-70704819D02*
X171654762Y-70847676D01*
X171654762Y-70847676D02*
X171559524Y-70942914D01*
X171559524Y-70942914D02*
X171464286Y-70990533D01*
X171083333Y-67704819D02*
X170750000Y-67228628D01*
X170511905Y-67704819D02*
X170511905Y-66704819D01*
X170511905Y-66704819D02*
X170892857Y-66704819D01*
X170892857Y-66704819D02*
X170988095Y-66752438D01*
X170988095Y-66752438D02*
X171035714Y-66800057D01*
X171035714Y-66800057D02*
X171083333Y-66895295D01*
X171083333Y-66895295D02*
X171083333Y-67038152D01*
X171083333Y-67038152D02*
X171035714Y-67133390D01*
X171035714Y-67133390D02*
X170988095Y-67181009D01*
X170988095Y-67181009D02*
X170892857Y-67228628D01*
X170892857Y-67228628D02*
X170511905Y-67228628D01*
X172035714Y-67704819D02*
X171464286Y-67704819D01*
X171750000Y-67704819D02*
X171750000Y-66704819D01*
X171750000Y-66704819D02*
X171654762Y-66847676D01*
X171654762Y-66847676D02*
X171559524Y-66942914D01*
X171559524Y-66942914D02*
X171464286Y-66990533D01*
X161916666Y-65954819D02*
X161916666Y-66669104D01*
X161916666Y-66669104D02*
X161869047Y-66811961D01*
X161869047Y-66811961D02*
X161773809Y-66907200D01*
X161773809Y-66907200D02*
X161630952Y-66954819D01*
X161630952Y-66954819D02*
X161535714Y-66954819D01*
X162345238Y-66050057D02*
X162392857Y-66002438D01*
X162392857Y-66002438D02*
X162488095Y-65954819D01*
X162488095Y-65954819D02*
X162726190Y-65954819D01*
X162726190Y-65954819D02*
X162821428Y-66002438D01*
X162821428Y-66002438D02*
X162869047Y-66050057D01*
X162869047Y-66050057D02*
X162916666Y-66145295D01*
X162916666Y-66145295D02*
X162916666Y-66240533D01*
X162916666Y-66240533D02*
X162869047Y-66383390D01*
X162869047Y-66383390D02*
X162297619Y-66954819D01*
X162297619Y-66954819D02*
X162916666Y-66954819D01*
D12*
G04 #@! TO.C,G\u002A\u002A\u002A*
G36*
X177812583Y-64041225D02*
G01*
X177812583Y-64353802D01*
X177965746Y-64353802D01*
X178118908Y-64353802D01*
X178118908Y-64428820D01*
X178118908Y-64503839D01*
X177878224Y-64503839D01*
X177637540Y-64503839D01*
X177637540Y-64116243D01*
X177637540Y-63728648D01*
X177725061Y-63728648D01*
X177812583Y-63728648D01*
X177812583Y-64041225D01*
G37*
G36*
X175905864Y-63800541D02*
G01*
X175905864Y-63872433D01*
X175758953Y-63872433D01*
X175612041Y-63872433D01*
X175612041Y-63959955D01*
X175612041Y-64047476D01*
X175749575Y-64047476D01*
X175887109Y-64047476D01*
X175887109Y-64119369D01*
X175887109Y-64191262D01*
X175749684Y-64191262D01*
X175612260Y-64191262D01*
X175610588Y-64345987D01*
X175608916Y-64500713D01*
X175522957Y-64502452D01*
X175436998Y-64504191D01*
X175436998Y-64116420D01*
X175436998Y-63728648D01*
X175671431Y-63728648D01*
X175905864Y-63728648D01*
X175905864Y-63800541D01*
G37*
G36*
X176488938Y-64108357D02*
G01*
X176509411Y-64174766D01*
X176528746Y-64237730D01*
X176546631Y-64296219D01*
X176562754Y-64349203D01*
X176576805Y-64395652D01*
X176588471Y-64434534D01*
X176597441Y-64464820D01*
X176603404Y-64485480D01*
X176606048Y-64495482D01*
X176606154Y-64496191D01*
X176603303Y-64499385D01*
X176593862Y-64501498D01*
X176576328Y-64502634D01*
X176549201Y-64502894D01*
X176514208Y-64502443D01*
X176422380Y-64500713D01*
X176393476Y-64403814D01*
X176364573Y-64306915D01*
X176252911Y-64306915D01*
X176141250Y-64306915D01*
X176120329Y-64381934D01*
X176111610Y-64413248D01*
X176103520Y-64442392D01*
X176096984Y-64466026D01*
X176093042Y-64480395D01*
X176086676Y-64503839D01*
X175996270Y-64503839D01*
X175964276Y-64503737D01*
X175937271Y-64503457D01*
X175917452Y-64503037D01*
X175907018Y-64502516D01*
X175905963Y-64502276D01*
X175907760Y-64496189D01*
X175912912Y-64479150D01*
X175921114Y-64452162D01*
X175932058Y-64416230D01*
X175945439Y-64372355D01*
X175960951Y-64321542D01*
X175978288Y-64264793D01*
X175997144Y-64203112D01*
X176008511Y-64165952D01*
X176170376Y-64165952D01*
X176173607Y-64168984D01*
X176182219Y-64170909D01*
X176198061Y-64171974D01*
X176222980Y-64172424D01*
X176252824Y-64172507D01*
X176286941Y-64172389D01*
X176310396Y-64171869D01*
X176325030Y-64170702D01*
X176332685Y-64168641D01*
X176335201Y-64165441D01*
X176334651Y-64161567D01*
X176328478Y-64141101D01*
X176320294Y-64113012D01*
X176310734Y-64079588D01*
X176300436Y-64043115D01*
X176290036Y-64005880D01*
X176280172Y-63970168D01*
X176271478Y-63938266D01*
X176264593Y-63912462D01*
X176260152Y-63895040D01*
X176258938Y-63889625D01*
X176255187Y-63874610D01*
X176251342Y-63866594D01*
X176250509Y-63866182D01*
X176247433Y-63871839D01*
X176242733Y-63886926D01*
X176237248Y-63908612D01*
X176235185Y-63917757D01*
X176228463Y-63946417D01*
X176218712Y-63985036D01*
X176206467Y-64031591D01*
X176192264Y-64084055D01*
X176176638Y-64140406D01*
X176170679Y-64161567D01*
X176170376Y-64165952D01*
X176008511Y-64165952D01*
X176017213Y-64137503D01*
X176023718Y-64116243D01*
X176141374Y-63731774D01*
X176256489Y-63730139D01*
X176371603Y-63728505D01*
X176488938Y-64108357D01*
G37*
G36*
X178590176Y-63730011D02*
G01*
X178615554Y-63730730D01*
X178632382Y-63731870D01*
X178638467Y-63733188D01*
X178641134Y-63739886D01*
X178647071Y-63757304D01*
X178655891Y-63784204D01*
X178667211Y-63819349D01*
X178680645Y-63861501D01*
X178695808Y-63909422D01*
X178712317Y-63961874D01*
X178729785Y-64017621D01*
X178747828Y-64075424D01*
X178766062Y-64134045D01*
X178784102Y-64192248D01*
X178801562Y-64248794D01*
X178818058Y-64302447D01*
X178833205Y-64351967D01*
X178846619Y-64396119D01*
X178857914Y-64433663D01*
X178866707Y-64463363D01*
X178872611Y-64483980D01*
X178875242Y-64494278D01*
X178875344Y-64495065D01*
X178873571Y-64498633D01*
X178867089Y-64501046D01*
X178854156Y-64502444D01*
X178833031Y-64502967D01*
X178801973Y-64502755D01*
X178783516Y-64502443D01*
X178691688Y-64500713D01*
X178662785Y-64403814D01*
X178633881Y-64306915D01*
X178522220Y-64306915D01*
X178410559Y-64306915D01*
X178389637Y-64381934D01*
X178380918Y-64413248D01*
X178372828Y-64442392D01*
X178366293Y-64466026D01*
X178362350Y-64480395D01*
X178355985Y-64503839D01*
X178265578Y-64503839D01*
X178233585Y-64503737D01*
X178206581Y-64503457D01*
X178186764Y-64503037D01*
X178176332Y-64502516D01*
X178175278Y-64502276D01*
X178177075Y-64496188D01*
X178182225Y-64479148D01*
X178190423Y-64452160D01*
X178201362Y-64416225D01*
X178214737Y-64372349D01*
X178230241Y-64321533D01*
X178247569Y-64264782D01*
X178266414Y-64203099D01*
X178277770Y-64165952D01*
X178439710Y-64165952D01*
X178442922Y-64168983D01*
X178451518Y-64170909D01*
X178467343Y-64171973D01*
X178492244Y-64172424D01*
X178522132Y-64172507D01*
X178607371Y-64172507D01*
X178602872Y-64158441D01*
X178597547Y-64140960D01*
X178590018Y-64115137D01*
X178580932Y-64083299D01*
X178570933Y-64047775D01*
X178560667Y-64010893D01*
X178550779Y-63974980D01*
X178541915Y-63942365D01*
X178534721Y-63915376D01*
X178529841Y-63896340D01*
X178528092Y-63888703D01*
X178524359Y-63874041D01*
X178520512Y-63866466D01*
X178519817Y-63866182D01*
X178516727Y-63871836D01*
X178511987Y-63886915D01*
X178506445Y-63908593D01*
X178504352Y-63917757D01*
X178498672Y-63941819D01*
X178490353Y-63974980D01*
X178480168Y-64014312D01*
X178468888Y-64056884D01*
X178457288Y-64099767D01*
X178446140Y-64140034D01*
X178440032Y-64161567D01*
X178439710Y-64165952D01*
X178277770Y-64165952D01*
X178286472Y-64137487D01*
X178292968Y-64116243D01*
X178410554Y-63731774D01*
X178522146Y-63730062D01*
X178558342Y-63729770D01*
X178590176Y-63730011D01*
G37*
G36*
X176988559Y-63724759D02*
G01*
X176988710Y-63724769D01*
X177036692Y-63728848D01*
X177075604Y-63734675D01*
X177108837Y-63743000D01*
X177139785Y-63754576D01*
X177155004Y-63761594D01*
X177195231Y-63787038D01*
X177225879Y-63818526D01*
X177246916Y-63854380D01*
X177258311Y-63892922D01*
X177260034Y-63932476D01*
X177252053Y-63971363D01*
X177234338Y-64007905D01*
X177206857Y-64040425D01*
X177169579Y-64067244D01*
X177160749Y-64071873D01*
X177135237Y-64084495D01*
X177165817Y-64097604D01*
X177209603Y-64122406D01*
X177244339Y-64155091D01*
X177266710Y-64189769D01*
X177276228Y-64211340D01*
X177281610Y-64230920D01*
X177283937Y-64253786D01*
X177284328Y-64275789D01*
X177283645Y-64303718D01*
X177280772Y-64324734D01*
X177274469Y-64344392D01*
X177263882Y-64367464D01*
X177241860Y-64404255D01*
X177214875Y-64433068D01*
X177179909Y-64456782D01*
X177159046Y-64467365D01*
X177129319Y-64479893D01*
X177098878Y-64489521D01*
X177065412Y-64496628D01*
X177026606Y-64501591D01*
X176980150Y-64504788D01*
X176923730Y-64506599D01*
X176918613Y-64506697D01*
X176879946Y-64507247D01*
X176843905Y-64507464D01*
X176813037Y-64507353D01*
X176789888Y-64506924D01*
X176777953Y-64506291D01*
X176755584Y-64503675D01*
X176734410Y-64500678D01*
X176732630Y-64500389D01*
X176712312Y-64497021D01*
X176712312Y-64380191D01*
X176887355Y-64380191D01*
X176954559Y-64377628D01*
X176988014Y-64375836D01*
X177012263Y-64373057D01*
X177030595Y-64368712D01*
X177046302Y-64362221D01*
X177048578Y-64361056D01*
X177075165Y-64341048D01*
X177093413Y-64314761D01*
X177102858Y-64284835D01*
X177103035Y-64253910D01*
X177093477Y-64224627D01*
X177076564Y-64202236D01*
X177054158Y-64185087D01*
X177027026Y-64173095D01*
X176992686Y-64165469D01*
X176948656Y-64161418D01*
X176948308Y-64161401D01*
X176887355Y-64158332D01*
X176887355Y-64269262D01*
X176887355Y-64380191D01*
X176712312Y-64380191D01*
X176712312Y-64269262D01*
X176712312Y-64119755D01*
X176712342Y-64040783D01*
X176712349Y-64036427D01*
X176887355Y-64036427D01*
X176948308Y-64033767D01*
X176982316Y-64031482D01*
X177007224Y-64027678D01*
X177026401Y-64021732D01*
X177034874Y-64017771D01*
X177061674Y-63998075D01*
X177078617Y-63973544D01*
X177085661Y-63946477D01*
X177082763Y-63919175D01*
X177069882Y-63893939D01*
X177046975Y-63873069D01*
X177037630Y-63867745D01*
X177021754Y-63860834D01*
X177005103Y-63856577D01*
X176983991Y-63854390D01*
X176954730Y-63853691D01*
X176948546Y-63853679D01*
X176887355Y-63853679D01*
X176887355Y-63945053D01*
X176887355Y-64036427D01*
X176712349Y-64036427D01*
X176712447Y-63973409D01*
X176712548Y-63945053D01*
X176712649Y-63916731D01*
X176712970Y-63869843D01*
X176713433Y-63831842D01*
X176714059Y-63801823D01*
X176714872Y-63778883D01*
X176715893Y-63762117D01*
X176717145Y-63750622D01*
X176718650Y-63743492D01*
X176720430Y-63739825D01*
X176721697Y-63738887D01*
X176734302Y-63736231D01*
X176756937Y-63733541D01*
X176787130Y-63730948D01*
X176822408Y-63728584D01*
X176860300Y-63726578D01*
X176898333Y-63725062D01*
X176934036Y-63724167D01*
X176964935Y-63724022D01*
X176988559Y-63724759D01*
G37*
G36*
X179294463Y-63727528D02*
G01*
X179343908Y-63734009D01*
X179351792Y-63735551D01*
X179399003Y-63749895D01*
X179441909Y-63771662D01*
X179478284Y-63799281D01*
X179505904Y-63831182D01*
X179517824Y-63852806D01*
X179525529Y-63881204D01*
X179528079Y-63915312D01*
X179525607Y-63950007D01*
X179518248Y-63980167D01*
X179514237Y-63989298D01*
X179493230Y-64020412D01*
X179465754Y-64048014D01*
X179435939Y-64068085D01*
X179430827Y-64070506D01*
X179415964Y-64077933D01*
X179407483Y-64083856D01*
X179406725Y-64085199D01*
X179412103Y-64089335D01*
X179425560Y-64094787D01*
X179431339Y-64096632D01*
X179464165Y-64111938D01*
X179495673Y-64136401D01*
X179522319Y-64166876D01*
X179535811Y-64189343D01*
X179545423Y-64211062D01*
X179550864Y-64230621D01*
X179553227Y-64253321D01*
X179553636Y-64275789D01*
X179552954Y-64303718D01*
X179550080Y-64324734D01*
X179543777Y-64344392D01*
X179533190Y-64367464D01*
X179511168Y-64404255D01*
X179484184Y-64433068D01*
X179449217Y-64456782D01*
X179428354Y-64467365D01*
X179398627Y-64479893D01*
X179368187Y-64489521D01*
X179334720Y-64496628D01*
X179295915Y-64501591D01*
X179249458Y-64504788D01*
X179193039Y-64506599D01*
X179187921Y-64506697D01*
X179149255Y-64507247D01*
X179113214Y-64507464D01*
X179082345Y-64507353D01*
X179059196Y-64506924D01*
X179047262Y-64506291D01*
X179024893Y-64503675D01*
X179003719Y-64500678D01*
X179001938Y-64500389D01*
X178981621Y-64497021D01*
X178981621Y-64380191D01*
X179156664Y-64380191D01*
X179223868Y-64377628D01*
X179257322Y-64375836D01*
X179281571Y-64373057D01*
X179299903Y-64368712D01*
X179315610Y-64362221D01*
X179317886Y-64361056D01*
X179344473Y-64341048D01*
X179362722Y-64314761D01*
X179372167Y-64284835D01*
X179372343Y-64253910D01*
X179362785Y-64224627D01*
X179345872Y-64202236D01*
X179323680Y-64185342D01*
X179296511Y-64173440D01*
X179261953Y-64165763D01*
X179217784Y-64161554D01*
X179156664Y-64158186D01*
X179156664Y-64269188D01*
X179156664Y-64380191D01*
X178981621Y-64380191D01*
X178981621Y-64269188D01*
X178981621Y-64119755D01*
X178981650Y-64040783D01*
X178981657Y-64036427D01*
X179156664Y-64036427D01*
X179217616Y-64033767D01*
X179251625Y-64031482D01*
X179276533Y-64027678D01*
X179295709Y-64021732D01*
X179304183Y-64017771D01*
X179330982Y-63998075D01*
X179347925Y-63973544D01*
X179354969Y-63946477D01*
X179352072Y-63919175D01*
X179339190Y-63893939D01*
X179316283Y-63873069D01*
X179306939Y-63867745D01*
X179291062Y-63860834D01*
X179274412Y-63856577D01*
X179253300Y-63854390D01*
X179224039Y-63853691D01*
X179217854Y-63853679D01*
X179156664Y-63853679D01*
X179156664Y-63945053D01*
X179156664Y-64036427D01*
X178981657Y-64036427D01*
X178981755Y-63973409D01*
X178981856Y-63945053D01*
X178981957Y-63916731D01*
X178982278Y-63869843D01*
X178982741Y-63831842D01*
X178983368Y-63801823D01*
X178984180Y-63778883D01*
X178985202Y-63762117D01*
X178986454Y-63750622D01*
X178987959Y-63743492D01*
X178989739Y-63739825D01*
X178991005Y-63738887D01*
X179000237Y-63737211D01*
X179019567Y-63734943D01*
X179046617Y-63732321D01*
X179079011Y-63729584D01*
X179098844Y-63728072D01*
X179169659Y-63724493D01*
X179235623Y-63724334D01*
X179294463Y-63727528D01*
G37*
G36*
X175366632Y-59949763D02*
G01*
X175381721Y-59958945D01*
X175403872Y-59972957D01*
X175431420Y-59990743D01*
X175462696Y-60011247D01*
X175466366Y-60013671D01*
X175568006Y-60080875D01*
X175568361Y-61140511D01*
X175568717Y-62200147D01*
X175860758Y-62366488D01*
X176152799Y-62532829D01*
X176154444Y-62321177D01*
X176156089Y-62109524D01*
X176126752Y-62073566D01*
X176070390Y-61996953D01*
X176018152Y-61911172D01*
X175971498Y-61819273D01*
X175931886Y-61724304D01*
X175900774Y-61629313D01*
X175886240Y-61571033D01*
X175878846Y-61527352D01*
X175873478Y-61475972D01*
X175870240Y-61420546D01*
X175869240Y-61364727D01*
X175870582Y-61312166D01*
X175874371Y-61266516D01*
X175876941Y-61248977D01*
X175895845Y-61170555D01*
X175923776Y-61098828D01*
X175960112Y-61034538D01*
X176004232Y-60978422D01*
X176055511Y-60931221D01*
X176113329Y-60893673D01*
X176177061Y-60866519D01*
X176205938Y-60858269D01*
X176238577Y-60852990D01*
X176279382Y-60850472D01*
X176324347Y-60850610D01*
X176369467Y-60853301D01*
X176410737Y-60858441D01*
X176438483Y-60864298D01*
X176530370Y-60895169D01*
X176618380Y-60937308D01*
X176702959Y-60990991D01*
X176784552Y-61056492D01*
X176846816Y-61116386D01*
X176926659Y-61207206D01*
X176996561Y-61303899D01*
X177056086Y-61405535D01*
X177104800Y-61511189D01*
X177142268Y-61619931D01*
X177168056Y-61730833D01*
X177180696Y-61828912D01*
X177183061Y-61924570D01*
X177174510Y-62015594D01*
X177155152Y-62101333D01*
X177125095Y-62181136D01*
X177120846Y-62190134D01*
X177106000Y-62219137D01*
X177091420Y-62242786D01*
X177074283Y-62264946D01*
X177051767Y-62289483D01*
X177038364Y-62303095D01*
X177001601Y-62337534D01*
X176968839Y-62362868D01*
X176942079Y-62378748D01*
X176899905Y-62400196D01*
X176900036Y-62687767D01*
X176900167Y-62975338D01*
X177146948Y-63118499D01*
X177393730Y-63261661D01*
X177393730Y-63385753D01*
X177393730Y-63509844D01*
X177345280Y-63509013D01*
X177314023Y-63507860D01*
X177277979Y-63505621D01*
X177244763Y-63502771D01*
X177243693Y-63502661D01*
X177067199Y-63478321D01*
X176895626Y-63442487D01*
X176728955Y-63395152D01*
X176567168Y-63336308D01*
X176410246Y-63265947D01*
X176258171Y-63184063D01*
X176110925Y-63090647D01*
X175968489Y-62985692D01*
X175955876Y-62975657D01*
X175918193Y-62944059D01*
X175874847Y-62905343D01*
X175828116Y-62861738D01*
X175780274Y-62815471D01*
X175733596Y-62768772D01*
X175690358Y-62723868D01*
X175652836Y-62682987D01*
X175629981Y-62656509D01*
X175520672Y-62515869D01*
X175423042Y-62370786D01*
X175337052Y-62221167D01*
X175262659Y-62066922D01*
X175199823Y-61907960D01*
X175148503Y-61744189D01*
X175108657Y-61575518D01*
X175086898Y-61449962D01*
X175074049Y-61341756D01*
X175066051Y-61226322D01*
X175062966Y-61107772D01*
X175064855Y-60990219D01*
X175071780Y-60877777D01*
X175077510Y-60821683D01*
X175099199Y-60678702D01*
X175130427Y-60533161D01*
X175170226Y-60388684D01*
X175217624Y-60248894D01*
X175257433Y-60149642D01*
X175269696Y-60122101D01*
X175284100Y-60091229D01*
X175299638Y-60059013D01*
X175315307Y-60027438D01*
X175330099Y-59998491D01*
X175343011Y-59974158D01*
X175353036Y-59956425D01*
X175359169Y-59947278D01*
X175360275Y-59946467D01*
X175366632Y-59949763D01*
G37*
G36*
X179597775Y-59964561D02*
G01*
X179608121Y-59980153D01*
X179621800Y-60004483D01*
X179638073Y-60036151D01*
X179656199Y-60073757D01*
X179675438Y-60115899D01*
X179680678Y-60127762D01*
X179745566Y-60290921D01*
X179798245Y-60456493D01*
X179838682Y-60624091D01*
X179866844Y-60793326D01*
X179882699Y-60963811D01*
X179886214Y-61135156D01*
X179877357Y-61306975D01*
X179856095Y-61478879D01*
X179822394Y-61650480D01*
X179812348Y-61691993D01*
X179764984Y-61855367D01*
X179706077Y-62014812D01*
X179636087Y-62169614D01*
X179555476Y-62319062D01*
X179464702Y-62462440D01*
X179364229Y-62599037D01*
X179254515Y-62728139D01*
X179136022Y-62849033D01*
X179009210Y-62961005D01*
X178974526Y-62988890D01*
X178837662Y-63089161D01*
X178694280Y-63179626D01*
X178545281Y-63259940D01*
X178391568Y-63329757D01*
X178234043Y-63388731D01*
X178073609Y-63436517D01*
X177911167Y-63472769D01*
X177747619Y-63497140D01*
X177620849Y-63507629D01*
X177543767Y-63511750D01*
X177543767Y-63389527D01*
X177543767Y-63267304D01*
X177942302Y-63034569D01*
X178010776Y-62994587D01*
X178088326Y-62949313D01*
X178173229Y-62899754D01*
X178263759Y-62846917D01*
X178358192Y-62791806D01*
X178454804Y-62735430D01*
X178551870Y-62678793D01*
X178647665Y-62622904D01*
X178740466Y-62568766D01*
X178828547Y-62517388D01*
X178860292Y-62498873D01*
X179379746Y-62195912D01*
X179383845Y-62041741D01*
X179385094Y-61988169D01*
X179386105Y-61931324D01*
X179386882Y-61872519D01*
X179387428Y-61813068D01*
X179387745Y-61754284D01*
X179387838Y-61697479D01*
X179387709Y-61643967D01*
X179387361Y-61595062D01*
X179386799Y-61552076D01*
X179386024Y-61516323D01*
X179385040Y-61489116D01*
X179383850Y-61471768D01*
X179382458Y-61465592D01*
X179382440Y-61465591D01*
X179375823Y-61468604D01*
X179359784Y-61477129D01*
X179335707Y-61490392D01*
X179304979Y-61507619D01*
X179268987Y-61528039D01*
X179229116Y-61550876D01*
X179215691Y-61558611D01*
X179054473Y-61651631D01*
X179015710Y-61760223D01*
X178997553Y-61810534D01*
X178982364Y-61851109D01*
X178969208Y-61884091D01*
X178957148Y-61911622D01*
X178945251Y-61935845D01*
X178932581Y-61958901D01*
X178919282Y-61981182D01*
X178861578Y-62066173D01*
X178797360Y-62144378D01*
X178727684Y-62215002D01*
X178653611Y-62277251D01*
X178576199Y-62330330D01*
X178496505Y-62373445D01*
X178415590Y-62405801D01*
X178334511Y-62426605D01*
X178323129Y-62428563D01*
X178264548Y-62433975D01*
X178202900Y-62432563D01*
X178143059Y-62424673D01*
X178094826Y-62412335D01*
X178029589Y-62384547D01*
X177972167Y-62347094D01*
X177922521Y-62299930D01*
X177880614Y-62243008D01*
X177846409Y-62176281D01*
X177819869Y-62099702D01*
X177809086Y-62055981D01*
X177803385Y-62019358D01*
X177799723Y-61973892D01*
X177798104Y-61923076D01*
X177798533Y-61870403D01*
X177801016Y-61819365D01*
X177805555Y-61773457D01*
X177808662Y-61753162D01*
X177834244Y-61639857D01*
X177870022Y-61528930D01*
X177915224Y-61421784D01*
X177969080Y-61319820D01*
X178030817Y-61224440D01*
X178099664Y-61137044D01*
X178174849Y-61059035D01*
X178206132Y-61031109D01*
X178284352Y-60970326D01*
X178363319Y-60920638D01*
X178442492Y-60882192D01*
X178521328Y-60855132D01*
X178599286Y-60839603D01*
X178675824Y-60835752D01*
X178750399Y-60843722D01*
X178822471Y-60863661D01*
X178825840Y-60864915D01*
X178850782Y-60877239D01*
X178880918Y-60896805D01*
X178913083Y-60921555D01*
X178913361Y-60921786D01*
X178936221Y-60940408D01*
X178956762Y-60956473D01*
X178972365Y-60967967D01*
X178979261Y-60972384D01*
X178984377Y-60973724D01*
X178991960Y-60972941D01*
X179003231Y-60969495D01*
X179019416Y-60962843D01*
X179041735Y-60952446D01*
X179071412Y-60937762D01*
X179109670Y-60918249D01*
X179157430Y-60893523D01*
X179200739Y-60870991D01*
X179241848Y-60849572D01*
X179279049Y-60830159D01*
X179310632Y-60813646D01*
X179334889Y-60800924D01*
X179350112Y-60792886D01*
X179351973Y-60791892D01*
X179381617Y-60775990D01*
X179383231Y-60423040D01*
X179384845Y-60070089D01*
X179484869Y-60014667D01*
X179517098Y-59996994D01*
X179545744Y-59981635D01*
X179568949Y-59969557D01*
X179584859Y-59961728D01*
X179591504Y-59959107D01*
X179597775Y-59964561D01*
G37*
G36*
X177554549Y-58694419D02*
G01*
X177625175Y-58696644D01*
X177690390Y-58700734D01*
X177753708Y-58706975D01*
X177818642Y-58715655D01*
X177888704Y-58727059D01*
X177893853Y-58727960D01*
X178059990Y-58763447D01*
X178223037Y-58810792D01*
X178382295Y-58869583D01*
X178537067Y-58939406D01*
X178686658Y-59019848D01*
X178830368Y-59110496D01*
X178967503Y-59210936D01*
X179097363Y-59320757D01*
X179219253Y-59439544D01*
X179332474Y-59566884D01*
X179354053Y-59593387D01*
X179376942Y-59622674D01*
X179401337Y-59655189D01*
X179426196Y-59689399D01*
X179450474Y-59723768D01*
X179473130Y-59756763D01*
X179493118Y-59786849D01*
X179509396Y-59812491D01*
X179520921Y-59832157D01*
X179526648Y-59844311D01*
X179526816Y-59847415D01*
X179520144Y-59851656D01*
X179504333Y-59860849D01*
X179481218Y-59873954D01*
X179452633Y-59889928D01*
X179423418Y-59906079D01*
X179387732Y-59925560D01*
X179361191Y-59939549D01*
X179342086Y-59948753D01*
X179328706Y-59953881D01*
X179319338Y-59955640D01*
X179312272Y-59954738D01*
X179308923Y-59953445D01*
X179302144Y-59949862D01*
X179287645Y-59941754D01*
X179265171Y-59928973D01*
X179234465Y-59911369D01*
X179195272Y-59888797D01*
X179147337Y-59861107D01*
X179090405Y-59828151D01*
X179024219Y-59789782D01*
X178948524Y-59745852D01*
X178863065Y-59696213D01*
X178767587Y-59640717D01*
X178661833Y-59579217D01*
X178545548Y-59511563D01*
X178540887Y-59508851D01*
X178517391Y-59495183D01*
X178484480Y-59476044D01*
X178443549Y-59452246D01*
X178395994Y-59424600D01*
X178343211Y-59393917D01*
X178286595Y-59361009D01*
X178227541Y-59326686D01*
X178167445Y-59291760D01*
X178140789Y-59276269D01*
X178076853Y-59239114D01*
X178010251Y-59200410D01*
X177942868Y-59161251D01*
X177876586Y-59122732D01*
X177813288Y-59085948D01*
X177754858Y-59051992D01*
X177703178Y-59021959D01*
X177660133Y-58996943D01*
X177654339Y-58993576D01*
X177474215Y-58888898D01*
X177257366Y-59012515D01*
X177205092Y-59042295D01*
X177152140Y-59072424D01*
X177100441Y-59101806D01*
X177051924Y-59129347D01*
X177008521Y-59153949D01*
X176972162Y-59174517D01*
X176945320Y-59189651D01*
X176914422Y-59207187D01*
X176887695Y-59222673D01*
X176866897Y-59235064D01*
X176853784Y-59243316D01*
X176849993Y-59246295D01*
X176854941Y-59250543D01*
X176868686Y-59260238D01*
X176889441Y-59274171D01*
X176915419Y-59291134D01*
X176932688Y-59302211D01*
X176966006Y-59323449D01*
X177000132Y-59345204D01*
X177031629Y-59365284D01*
X177057057Y-59381499D01*
X177063022Y-59385302D01*
X177110532Y-59415603D01*
X177184927Y-59402926D01*
X177249169Y-59392683D01*
X177305505Y-59385412D01*
X177358075Y-59380735D01*
X177411018Y-59378269D01*
X177460614Y-59377629D01*
X177568377Y-59381971D01*
X177671124Y-59394892D01*
X177768163Y-59416041D01*
X177858804Y-59445066D01*
X177942352Y-59481617D01*
X178018118Y-59525343D01*
X178085408Y-59575893D01*
X178143531Y-59632916D01*
X178191796Y-59696062D01*
X178229509Y-59764979D01*
X178230986Y-59768298D01*
X178250632Y-59824589D01*
X178263214Y-59886197D01*
X178268331Y-59949179D01*
X178265583Y-60009590D01*
X178259206Y-60046397D01*
X178237552Y-60111724D01*
X178204308Y-60175005D01*
X178160327Y-60235445D01*
X178106457Y-60292248D01*
X178043551Y-60344620D01*
X177972458Y-60391766D01*
X177894031Y-60432891D01*
X177809119Y-60467199D01*
X177808664Y-60467358D01*
X177720248Y-60493118D01*
X177624197Y-60511804D01*
X177540641Y-60521516D01*
X177507762Y-60524123D01*
X177481927Y-60525787D01*
X177459627Y-60526502D01*
X177437349Y-60526265D01*
X177411585Y-60525071D01*
X177378822Y-60522915D01*
X177356221Y-60521295D01*
X177255263Y-60510044D01*
X177157858Y-60491468D01*
X177064874Y-60466072D01*
X176977182Y-60434357D01*
X176895651Y-60396828D01*
X176821153Y-60353987D01*
X176754557Y-60306337D01*
X176696734Y-60254382D01*
X176648553Y-60198623D01*
X176610885Y-60139566D01*
X176584599Y-60077711D01*
X176583620Y-60074622D01*
X176577555Y-60054260D01*
X176573319Y-60036601D01*
X176570650Y-60018781D01*
X176569282Y-59997932D01*
X176568953Y-59971188D01*
X176569399Y-59935681D01*
X176569647Y-59922788D01*
X176571653Y-59822207D01*
X176524766Y-59794677D01*
X176505847Y-59783530D01*
X176478383Y-59767299D01*
X176444579Y-59747288D01*
X176406638Y-59724801D01*
X176366762Y-59701144D01*
X176344392Y-59687862D01*
X176210904Y-59608577D01*
X175953670Y-59766168D01*
X175901171Y-59798330D01*
X175851025Y-59829049D01*
X175804424Y-59857594D01*
X175762561Y-59883235D01*
X175726629Y-59905241D01*
X175697820Y-59922881D01*
X175677327Y-59935427D01*
X175666545Y-59942022D01*
X175636653Y-59960286D01*
X175533700Y-59895766D01*
X175501904Y-59875579D01*
X175474096Y-59857422D01*
X175451897Y-59842398D01*
X175436928Y-59831604D01*
X175430810Y-59826143D01*
X175430747Y-59825916D01*
X175434287Y-59818112D01*
X175444137Y-59801939D01*
X175459141Y-59779058D01*
X175478144Y-59751128D01*
X175499989Y-59719811D01*
X175523522Y-59686766D01*
X175547587Y-59653655D01*
X175571029Y-59622138D01*
X175588309Y-59599507D01*
X175613598Y-59568621D01*
X175646319Y-59531323D01*
X175684592Y-59489542D01*
X175726536Y-59445207D01*
X175770270Y-59400247D01*
X175813911Y-59356590D01*
X175855580Y-59316166D01*
X175893394Y-59280904D01*
X175925473Y-59252732D01*
X175930870Y-59248254D01*
X176070469Y-59141589D01*
X176215807Y-59045720D01*
X176366399Y-58960895D01*
X176521756Y-58887356D01*
X176681395Y-58825351D01*
X176844827Y-58775125D01*
X176893929Y-58762536D01*
X176998650Y-58738821D01*
X177097949Y-58720612D01*
X177195571Y-58707463D01*
X177295263Y-58698932D01*
X177400769Y-58694575D01*
X177475000Y-58693771D01*
X177554549Y-58694419D01*
G37*
G36*
X164379157Y-63841367D02*
G01*
X164398261Y-63844061D01*
X164398987Y-63844540D01*
X164395055Y-63857063D01*
X164376740Y-63875730D01*
X164363315Y-63894626D01*
X164340954Y-63935276D01*
X164311264Y-63994397D01*
X164275852Y-64068708D01*
X164236323Y-64154925D01*
X164198904Y-64239190D01*
X164159494Y-64328496D01*
X164123224Y-64409265D01*
X164091603Y-64478251D01*
X164066139Y-64532207D01*
X164048340Y-64567888D01*
X164039716Y-64582047D01*
X164039542Y-64582135D01*
X164031498Y-64571152D01*
X164014276Y-64538353D01*
X163989370Y-64486904D01*
X163958276Y-64419970D01*
X163922491Y-64340718D01*
X163883509Y-64252312D01*
X163881156Y-64246913D01*
X163834994Y-64141459D01*
X163797745Y-64058156D01*
X163767780Y-63994115D01*
X163743475Y-63946450D01*
X163723200Y-63912274D01*
X163705331Y-63888697D01*
X163688240Y-63872833D01*
X163670301Y-63861795D01*
X163661951Y-63857826D01*
X163655848Y-63851230D01*
X163672513Y-63846358D01*
X163713727Y-63842847D01*
X163741715Y-63841577D01*
X163806466Y-63840600D01*
X163845256Y-63843760D01*
X163859013Y-63851296D01*
X163848659Y-63863450D01*
X163841811Y-63867576D01*
X163822066Y-63887945D01*
X163818154Y-63901482D01*
X163823438Y-63921903D01*
X163837987Y-63960766D01*
X163859853Y-64013823D01*
X163887085Y-64076826D01*
X163917733Y-64145526D01*
X163949846Y-64215675D01*
X163981474Y-64283023D01*
X164010667Y-64343324D01*
X164035474Y-64392327D01*
X164053946Y-64425785D01*
X164064131Y-64439449D01*
X164065071Y-64439372D01*
X164075990Y-64420754D01*
X164094108Y-64381580D01*
X164117464Y-64326870D01*
X164144098Y-64261642D01*
X164172052Y-64190917D01*
X164199364Y-64119713D01*
X164224075Y-64053051D01*
X164244226Y-63995950D01*
X164257855Y-63953428D01*
X164262786Y-63932998D01*
X164265333Y-63897580D01*
X164257175Y-63878128D01*
X164233496Y-63864091D01*
X164230781Y-63862883D01*
X164212782Y-63854055D01*
X164210329Y-63848527D01*
X164226777Y-63845128D01*
X164265477Y-63842684D01*
X164291795Y-63841554D01*
X164341227Y-63840463D01*
X164379157Y-63841367D01*
G37*
G36*
X163293350Y-63834548D02*
G01*
X163337301Y-63841691D01*
X163377680Y-63856764D01*
X163408905Y-63872821D01*
X163485802Y-63926433D01*
X163540092Y-63991986D01*
X163573227Y-64072103D01*
X163586658Y-64169408D01*
X163587112Y-64194831D01*
X163576396Y-64297363D01*
X163543843Y-64384911D01*
X163488407Y-64459982D01*
X163467940Y-64479741D01*
X163394017Y-64529132D01*
X163306044Y-64559900D01*
X163211165Y-64570414D01*
X163118636Y-64559555D01*
X163025601Y-64525107D01*
X162952037Y-64471923D01*
X162898548Y-64400810D01*
X162865738Y-64312579D01*
X162854210Y-64208036D01*
X162854200Y-64205454D01*
X162859696Y-64148504D01*
X162921982Y-64148504D01*
X162927636Y-64242937D01*
X162946908Y-64320673D01*
X162982164Y-64389738D01*
X163000833Y-64416156D01*
X163062277Y-64478744D01*
X163134512Y-64522165D01*
X163212202Y-64544555D01*
X163290011Y-64544051D01*
X163333569Y-64532354D01*
X163383302Y-64503465D01*
X163433897Y-64457916D01*
X163476624Y-64404463D01*
X163496306Y-64369042D01*
X163520515Y-64284767D01*
X163523246Y-64196367D01*
X163506546Y-64108826D01*
X163472464Y-64027128D01*
X163423051Y-63956255D01*
X163360353Y-63901192D01*
X163290344Y-63868063D01*
X163198188Y-63852180D01*
X163115193Y-63860733D01*
X163043853Y-63891822D01*
X162986665Y-63943548D01*
X162946123Y-64014010D01*
X162924722Y-64101310D01*
X162921982Y-64148504D01*
X162859696Y-64148504D01*
X162864087Y-64103012D01*
X162894941Y-64016220D01*
X162948008Y-63942043D01*
X162972108Y-63918457D01*
X163030015Y-63875227D01*
X163092997Y-63848231D01*
X163168560Y-63835011D01*
X163234090Y-63832638D01*
X163293350Y-63834548D01*
G37*
G36*
X166729821Y-63834548D02*
G01*
X166773772Y-63841691D01*
X166814151Y-63856764D01*
X166845376Y-63872821D01*
X166922273Y-63926433D01*
X166976563Y-63991986D01*
X167009697Y-64072103D01*
X167023129Y-64169408D01*
X167023583Y-64194831D01*
X167012866Y-64297363D01*
X166980314Y-64384911D01*
X166924878Y-64459982D01*
X166904411Y-64479741D01*
X166830488Y-64529132D01*
X166742514Y-64559900D01*
X166647636Y-64570414D01*
X166555106Y-64559555D01*
X166462071Y-64525107D01*
X166388508Y-64471923D01*
X166335019Y-64400810D01*
X166302209Y-64312579D01*
X166290681Y-64208036D01*
X166290671Y-64205454D01*
X166296167Y-64148504D01*
X166358453Y-64148504D01*
X166364106Y-64242937D01*
X166383379Y-64320673D01*
X166418635Y-64389738D01*
X166437304Y-64416156D01*
X166498747Y-64478744D01*
X166570983Y-64522165D01*
X166648673Y-64544555D01*
X166726481Y-64544051D01*
X166770039Y-64532354D01*
X166819773Y-64503465D01*
X166870367Y-64457916D01*
X166913095Y-64404463D01*
X166932777Y-64369042D01*
X166956986Y-64284767D01*
X166959716Y-64196367D01*
X166943016Y-64108826D01*
X166908935Y-64027128D01*
X166859521Y-63956255D01*
X166796824Y-63901192D01*
X166726815Y-63868063D01*
X166634659Y-63852180D01*
X166551663Y-63860733D01*
X166480324Y-63891822D01*
X166423136Y-63943548D01*
X166382594Y-64014010D01*
X166361193Y-64101310D01*
X166358453Y-64148504D01*
X166296167Y-64148504D01*
X166300558Y-64103012D01*
X166331412Y-64016220D01*
X166384479Y-63942043D01*
X166408579Y-63918457D01*
X166466486Y-63875227D01*
X166529468Y-63848231D01*
X166605030Y-63835011D01*
X166670561Y-63832638D01*
X166729821Y-63834548D01*
G37*
G36*
X171512860Y-63832052D02*
G01*
X171559101Y-63838250D01*
X171598483Y-63842678D01*
X171611003Y-63843704D01*
X171626435Y-63845964D01*
X171637122Y-63854047D01*
X171645354Y-63873232D01*
X171653419Y-63908800D01*
X171663319Y-63964358D01*
X171665743Y-64001425D01*
X171657630Y-64014530D01*
X171641234Y-64003679D01*
X171618809Y-63968876D01*
X171616410Y-63964252D01*
X171579893Y-63913793D01*
X171533049Y-63878822D01*
X171480794Y-63859208D01*
X171428044Y-63854822D01*
X171379714Y-63865533D01*
X171340721Y-63891213D01*
X171315980Y-63931732D01*
X171309734Y-63972338D01*
X171315612Y-64016254D01*
X171335552Y-64052479D01*
X171373015Y-64084242D01*
X171431458Y-64114774D01*
X171485978Y-64136867D01*
X171575708Y-64178245D01*
X171639432Y-64225326D01*
X171677902Y-64279142D01*
X171691873Y-64340725D01*
X171683286Y-64406820D01*
X171653568Y-64467931D01*
X171603520Y-64516942D01*
X171538220Y-64551375D01*
X171462744Y-64568750D01*
X171382169Y-64566586D01*
X171363448Y-64563063D01*
X171310170Y-64548033D01*
X171276513Y-64527422D01*
X171254952Y-64494650D01*
X171241754Y-64456624D01*
X171227541Y-64404576D01*
X171221913Y-64373433D01*
X171224497Y-64358452D01*
X171233775Y-64354866D01*
X171246397Y-64366200D01*
X171263783Y-64394979D01*
X171272812Y-64413845D01*
X171309406Y-64471394D01*
X171357443Y-64511704D01*
X171412286Y-64535156D01*
X171469294Y-64542135D01*
X171523830Y-64533021D01*
X171571255Y-64508197D01*
X171606930Y-64468047D01*
X171626216Y-64412951D01*
X171628315Y-64384538D01*
X171619840Y-64341163D01*
X171592612Y-64303683D01*
X171543919Y-64269614D01*
X171471053Y-64236472D01*
X171463789Y-64233668D01*
X171383789Y-64200482D01*
X171326089Y-64169628D01*
X171286356Y-64138085D01*
X171260258Y-64102833D01*
X171252346Y-64086257D01*
X171237714Y-64021370D01*
X171247060Y-63961184D01*
X171277246Y-63908760D01*
X171325133Y-63867162D01*
X171387582Y-63839451D01*
X171461455Y-63828690D01*
X171512860Y-63832052D01*
G37*
G36*
X172683658Y-63833183D02*
G01*
X172789949Y-63857470D01*
X172811418Y-63865161D01*
X172853031Y-63878692D01*
X172885668Y-63885238D01*
X172897459Y-63884706D01*
X172908646Y-63890062D01*
X172917290Y-63917657D01*
X172923500Y-63962517D01*
X172927320Y-64007278D01*
X172928488Y-64039839D01*
X172927056Y-64052204D01*
X172917507Y-64045204D01*
X172899764Y-64021366D01*
X172891847Y-64009026D01*
X172841268Y-63949989D01*
X172772556Y-63901164D01*
X172694155Y-63867148D01*
X172614509Y-63852535D01*
X172603819Y-63852299D01*
X172528859Y-63863579D01*
X172463054Y-63898620D01*
X172413314Y-63946407D01*
X172365393Y-64022040D01*
X172339399Y-64107260D01*
X172334296Y-64197136D01*
X172349050Y-64286735D01*
X172382626Y-64371128D01*
X172433991Y-64445381D01*
X172502110Y-64504564D01*
X172534298Y-64523156D01*
X172595052Y-64542108D01*
X172661510Y-64544204D01*
X172726965Y-64531330D01*
X172784711Y-64505369D01*
X172828042Y-64468207D01*
X172846612Y-64435391D01*
X172861553Y-64373538D01*
X172863914Y-64315594D01*
X172854768Y-64266950D01*
X172835185Y-64232995D01*
X172806240Y-64219119D01*
X172803571Y-64219037D01*
X172777884Y-64214429D01*
X172769277Y-64205454D01*
X172782027Y-64198796D01*
X172817026Y-64194187D01*
X172869395Y-64192204D01*
X172881336Y-64192174D01*
X172935912Y-64192542D01*
X172967195Y-64194099D01*
X172979060Y-64198068D01*
X172975381Y-64205671D01*
X172961058Y-64217341D01*
X172945177Y-64231761D01*
X172935722Y-64249372D01*
X172931224Y-64276880D01*
X172930215Y-64320989D01*
X172930641Y-64356264D01*
X172932562Y-64470321D01*
X172830886Y-64514944D01*
X172742804Y-64546074D01*
X172653768Y-64564160D01*
X172571916Y-64568022D01*
X172517994Y-64560322D01*
X172433235Y-64524910D01*
X172359759Y-64468735D01*
X172303545Y-64396913D01*
X172285814Y-64361658D01*
X172267328Y-64292074D01*
X172262252Y-64209871D01*
X172270326Y-64125908D01*
X172291292Y-64051041D01*
X172293346Y-64046167D01*
X172343226Y-63962252D01*
X172410007Y-63898015D01*
X172490878Y-63854437D01*
X172583032Y-63832499D01*
X172683658Y-63833183D01*
G37*
G36*
X160958956Y-63839018D02*
G01*
X160914812Y-63873809D01*
X160870668Y-63908600D01*
X160870668Y-64198877D01*
X160870756Y-64294764D01*
X160871255Y-64367130D01*
X160872519Y-64419622D01*
X160874901Y-64455886D01*
X160878755Y-64479567D01*
X160884433Y-64494311D01*
X160892290Y-64503764D01*
X160900856Y-64510299D01*
X160932528Y-64526453D01*
X160955187Y-64531444D01*
X160975562Y-64537762D01*
X160979331Y-64545027D01*
X160966417Y-64551337D01*
X160930285Y-64555899D01*
X160874849Y-64558321D01*
X160843502Y-64558610D01*
X160780402Y-64557318D01*
X160734783Y-64553705D01*
X160710556Y-64548161D01*
X160707673Y-64545027D01*
X160718920Y-64533609D01*
X160732122Y-64531444D01*
X160750045Y-64529852D01*
X160763777Y-64522964D01*
X160773872Y-64507610D01*
X160780883Y-64480619D01*
X160785365Y-64438822D01*
X160787871Y-64379048D01*
X160788954Y-64298127D01*
X160789170Y-64204843D01*
X160788996Y-64107370D01*
X160788285Y-64033449D01*
X160786753Y-63979466D01*
X160784116Y-63941809D01*
X160780092Y-63916866D01*
X160774396Y-63901022D01*
X160766745Y-63890665D01*
X160764331Y-63888362D01*
X160736025Y-63870662D01*
X160716791Y-63865882D01*
X160697269Y-63859210D01*
X160694090Y-63852299D01*
X160706987Y-63845947D01*
X160743009Y-63841406D01*
X160798149Y-63839083D01*
X160826523Y-63838867D01*
X160958956Y-63839018D01*
G37*
G36*
X161762241Y-63840219D02*
G01*
X161802058Y-63844350D01*
X161820684Y-63850549D01*
X161821470Y-63852299D01*
X161810502Y-63864428D01*
X161801573Y-63865882D01*
X161787165Y-63869040D01*
X161775891Y-63880403D01*
X161767385Y-63902810D01*
X161761282Y-63939095D01*
X161757216Y-63992096D01*
X161754822Y-64064649D01*
X161753735Y-64159591D01*
X161753555Y-64238519D01*
X161753061Y-64331013D01*
X161751666Y-64412349D01*
X161749503Y-64479021D01*
X161746708Y-64527526D01*
X161743412Y-64554357D01*
X161741373Y-64558610D01*
X161729455Y-64548828D01*
X161702168Y-64521278D01*
X161662015Y-64478652D01*
X161611498Y-64423641D01*
X161553119Y-64358936D01*
X161495135Y-64293743D01*
X161432121Y-64222645D01*
X161375144Y-64158760D01*
X161326622Y-64104767D01*
X161288975Y-64063346D01*
X161264620Y-64037178D01*
X161256034Y-64028877D01*
X161254404Y-64041737D01*
X161252994Y-64077426D01*
X161251894Y-64131609D01*
X161251197Y-64199948D01*
X161250989Y-64267757D01*
X161250989Y-64506638D01*
X161291737Y-64522019D01*
X161323263Y-64536698D01*
X161329118Y-64547470D01*
X161308938Y-64554533D01*
X161262356Y-64558082D01*
X161223823Y-64558610D01*
X161173360Y-64557417D01*
X161135361Y-64554247D01*
X161116251Y-64549713D01*
X161115160Y-64548248D01*
X161126068Y-64535479D01*
X161145480Y-64524478D01*
X161167632Y-64511916D01*
X161184159Y-64494071D01*
X161195768Y-64467268D01*
X161203164Y-64427833D01*
X161207053Y-64372094D01*
X161208140Y-64296375D01*
X161207227Y-64203016D01*
X161205603Y-64115572D01*
X161203554Y-64050927D01*
X161200578Y-64004715D01*
X161196171Y-63972571D01*
X161189834Y-63950127D01*
X161181064Y-63933018D01*
X161175217Y-63924567D01*
X161147074Y-63893984D01*
X161118208Y-63873183D01*
X161117490Y-63872849D01*
X161092151Y-63857094D01*
X161093083Y-63845660D01*
X161119600Y-63839510D01*
X161141809Y-63838717D01*
X161158041Y-63839267D01*
X161173165Y-63842391D01*
X161189574Y-63850292D01*
X161209661Y-63865179D01*
X161235819Y-63889256D01*
X161270441Y-63924730D01*
X161315919Y-63973807D01*
X161374647Y-64038693D01*
X161449017Y-64121594D01*
X161450820Y-64123606D01*
X161706015Y-64408496D01*
X161709743Y-64183876D01*
X161710630Y-64087204D01*
X161709065Y-64014015D01*
X161704171Y-63960669D01*
X161695067Y-63923530D01*
X161680875Y-63898959D01*
X161660717Y-63883319D01*
X161634705Y-63873261D01*
X161600587Y-63860568D01*
X161593175Y-63850618D01*
X161612135Y-63843571D01*
X161657130Y-63839591D01*
X161706015Y-63838717D01*
X161762241Y-63840219D01*
G37*
G36*
X162617963Y-63840219D02*
G01*
X162657780Y-63844350D01*
X162676406Y-63850549D01*
X162677192Y-63852299D01*
X162666224Y-63864428D01*
X162657295Y-63865882D01*
X162642887Y-63869040D01*
X162631613Y-63880403D01*
X162623107Y-63902810D01*
X162617004Y-63939095D01*
X162612938Y-63992096D01*
X162610544Y-64064649D01*
X162609457Y-64159591D01*
X162609277Y-64238519D01*
X162608783Y-64331013D01*
X162607387Y-64412349D01*
X162605225Y-64479021D01*
X162602429Y-64527526D01*
X162599133Y-64554357D01*
X162597095Y-64558610D01*
X162585177Y-64548828D01*
X162557890Y-64521278D01*
X162517737Y-64478652D01*
X162467220Y-64423641D01*
X162408841Y-64358936D01*
X162350857Y-64293743D01*
X162287843Y-64222645D01*
X162230866Y-64158760D01*
X162182344Y-64104767D01*
X162144697Y-64063346D01*
X162120342Y-64037178D01*
X162111756Y-64028877D01*
X162110126Y-64041737D01*
X162108716Y-64077426D01*
X162107616Y-64131609D01*
X162106919Y-64199948D01*
X162106710Y-64267757D01*
X162106710Y-64506638D01*
X162147459Y-64522019D01*
X162178985Y-64536698D01*
X162184840Y-64547470D01*
X162164660Y-64554533D01*
X162118078Y-64558082D01*
X162079545Y-64558610D01*
X162029082Y-64557417D01*
X161991082Y-64554247D01*
X161971973Y-64549713D01*
X161970882Y-64548248D01*
X161981790Y-64535479D01*
X162001202Y-64524478D01*
X162023354Y-64511916D01*
X162039881Y-64494071D01*
X162051490Y-64467268D01*
X162058886Y-64427833D01*
X162062775Y-64372094D01*
X162063862Y-64296375D01*
X162062949Y-64203016D01*
X162061325Y-64115572D01*
X162059276Y-64050927D01*
X162056299Y-64004715D01*
X162051893Y-63972571D01*
X162045556Y-63950127D01*
X162036786Y-63933018D01*
X162030939Y-63924567D01*
X162002796Y-63893984D01*
X161973930Y-63873183D01*
X161973212Y-63872849D01*
X161947873Y-63857094D01*
X161948805Y-63845660D01*
X161975322Y-63839510D01*
X161997531Y-63838717D01*
X162013763Y-63839267D01*
X162028887Y-63842391D01*
X162045296Y-63850292D01*
X162065383Y-63865179D01*
X162091541Y-63889256D01*
X162126163Y-63924730D01*
X162171641Y-63973807D01*
X162230369Y-64038693D01*
X162304739Y-64121594D01*
X162306542Y-64123606D01*
X162561737Y-64408496D01*
X162565465Y-64183876D01*
X162566352Y-64087204D01*
X162564787Y-64014015D01*
X162559893Y-63960669D01*
X162550789Y-63923530D01*
X162536597Y-63898959D01*
X162516439Y-63883319D01*
X162490427Y-63873261D01*
X162456309Y-63860568D01*
X162448897Y-63850618D01*
X162467857Y-63843571D01*
X162512852Y-63839591D01*
X162561737Y-63838717D01*
X162617963Y-63840219D01*
G37*
G36*
X164731961Y-63821151D02*
G01*
X164738540Y-63833149D01*
X164747147Y-63852752D01*
X164763993Y-63893843D01*
X164787540Y-63952566D01*
X164816248Y-64025063D01*
X164848577Y-64107479D01*
X164870868Y-64164706D01*
X164913774Y-64273671D01*
X164949114Y-64359514D01*
X164978264Y-64424766D01*
X165002600Y-64471958D01*
X165023497Y-64503620D01*
X165042329Y-64522283D01*
X165060472Y-64530479D01*
X165070148Y-64531444D01*
X165090900Y-64537614D01*
X165094946Y-64545027D01*
X165082123Y-64551535D01*
X165046629Y-64556178D01*
X164992922Y-64558459D01*
X164972700Y-64558610D01*
X164911803Y-64556882D01*
X164870346Y-64552134D01*
X164850321Y-64545016D01*
X164853716Y-64536179D01*
X164877620Y-64527508D01*
X164897621Y-64514955D01*
X164903270Y-64489450D01*
X164894314Y-64447968D01*
X164870501Y-64387484D01*
X164864888Y-64374942D01*
X164824992Y-64286952D01*
X164688506Y-64286952D01*
X164552021Y-64286952D01*
X164510287Y-64369627D01*
X164483255Y-64431718D01*
X164474468Y-64476587D01*
X164483873Y-64507095D01*
X164507486Y-64524478D01*
X164533222Y-64539207D01*
X164533096Y-64549680D01*
X164506775Y-64556073D01*
X164453928Y-64558562D01*
X164442967Y-64558610D01*
X164396100Y-64557636D01*
X164362141Y-64555074D01*
X164347961Y-64551462D01*
X164347887Y-64551167D01*
X164357025Y-64538024D01*
X164379275Y-64516025D01*
X164381756Y-64513814D01*
X164398197Y-64491575D01*
X164423672Y-64446899D01*
X164456825Y-64382450D01*
X164496303Y-64300892D01*
X164524646Y-64239672D01*
X164578796Y-64239672D01*
X164591306Y-64242705D01*
X164624551Y-64244989D01*
X164672103Y-64246138D01*
X164687459Y-64246203D01*
X164743795Y-64245148D01*
X164777577Y-64241440D01*
X164793354Y-64234264D01*
X164796122Y-64226755D01*
X164791499Y-64204953D01*
X164779426Y-64165929D01*
X164762594Y-64117039D01*
X164743696Y-64065638D01*
X164725425Y-64019080D01*
X164710473Y-63984722D01*
X164702338Y-63970556D01*
X164694439Y-63978898D01*
X164678925Y-64006408D01*
X164658527Y-64047136D01*
X164635977Y-64095133D01*
X164614007Y-64144447D01*
X164595348Y-64189129D01*
X164582731Y-64223228D01*
X164578796Y-64239672D01*
X164524646Y-64239672D01*
X164540750Y-64204889D01*
X164556104Y-64170878D01*
X164595207Y-64083989D01*
X164631256Y-64004339D01*
X164662575Y-63935600D01*
X164687484Y-63881443D01*
X164704308Y-63845538D01*
X164710756Y-63832530D01*
X164722705Y-63814829D01*
X164731961Y-63821151D01*
G37*
G36*
X165526092Y-63838737D02*
G01*
X165604918Y-63839336D01*
X165662792Y-63841322D01*
X165702820Y-63845505D01*
X165728108Y-63852691D01*
X165741763Y-63863690D01*
X165746892Y-63879309D01*
X165746599Y-63900357D01*
X165744486Y-63922317D01*
X165740133Y-63967754D01*
X165719615Y-63927005D01*
X165708653Y-63907429D01*
X165695683Y-63895184D01*
X165674459Y-63888265D01*
X165638739Y-63884670D01*
X165582277Y-63882394D01*
X165580390Y-63882332D01*
X165461684Y-63878408D01*
X165461684Y-64192523D01*
X165461684Y-64506638D01*
X165502432Y-64522019D01*
X165533494Y-64536338D01*
X165539880Y-64546873D01*
X165520974Y-64553903D01*
X165476155Y-64557705D01*
X165420935Y-64558610D01*
X165362360Y-64557185D01*
X165320576Y-64553241D01*
X165300043Y-64547274D01*
X165298689Y-64545027D01*
X165309936Y-64533609D01*
X165323138Y-64531444D01*
X165340687Y-64529956D01*
X165354226Y-64523424D01*
X165364271Y-64508748D01*
X165371340Y-64482826D01*
X165375948Y-64442556D01*
X165378614Y-64384839D01*
X165379853Y-64306573D01*
X165380183Y-64204656D01*
X165380186Y-64189155D01*
X165380186Y-63879465D01*
X165274919Y-63879673D01*
X165213871Y-63880813D01*
X165173940Y-63885513D01*
X165149103Y-63896135D01*
X165133339Y-63915036D01*
X165122581Y-63939353D01*
X165109414Y-63967063D01*
X165101432Y-63969233D01*
X165099269Y-63947104D01*
X165103539Y-63902059D01*
X165112221Y-63838717D01*
X165423208Y-63838717D01*
X165526092Y-63838737D01*
G37*
G36*
X166120454Y-63839018D02*
G01*
X166076309Y-63873809D01*
X166032165Y-63908600D01*
X166032165Y-64198877D01*
X166032253Y-64294764D01*
X166032752Y-64367130D01*
X166034016Y-64419622D01*
X166036398Y-64455886D01*
X166040252Y-64479567D01*
X166045931Y-64494311D01*
X166053788Y-64503764D01*
X166062353Y-64510299D01*
X166094025Y-64526453D01*
X166116685Y-64531444D01*
X166137060Y-64537762D01*
X166140828Y-64545027D01*
X166127914Y-64551337D01*
X166091783Y-64555899D01*
X166036346Y-64558321D01*
X166004999Y-64558610D01*
X165941900Y-64557318D01*
X165896280Y-64553705D01*
X165872053Y-64548161D01*
X165869170Y-64545027D01*
X165880417Y-64533609D01*
X165893620Y-64531444D01*
X165911543Y-64529852D01*
X165925275Y-64522964D01*
X165935369Y-64507610D01*
X165942381Y-64480619D01*
X165946862Y-64438822D01*
X165949368Y-64379048D01*
X165950451Y-64298127D01*
X165950668Y-64204843D01*
X165950494Y-64107370D01*
X165949782Y-64033449D01*
X165948250Y-63979466D01*
X165945614Y-63941809D01*
X165941589Y-63916866D01*
X165935894Y-63901022D01*
X165928243Y-63890665D01*
X165925828Y-63888362D01*
X165897522Y-63870662D01*
X165878288Y-63865882D01*
X165858767Y-63859210D01*
X165855587Y-63852299D01*
X165868485Y-63845947D01*
X165904506Y-63841406D01*
X165959646Y-63839083D01*
X165988021Y-63838867D01*
X166120454Y-63839018D01*
G37*
G36*
X167820209Y-63840219D02*
G01*
X167860026Y-63844350D01*
X167878652Y-63850549D01*
X167879438Y-63852299D01*
X167868470Y-63864428D01*
X167859541Y-63865882D01*
X167845133Y-63869040D01*
X167833859Y-63880403D01*
X167825353Y-63902810D01*
X167819250Y-63939095D01*
X167815184Y-63992096D01*
X167812790Y-64064649D01*
X167811703Y-64159591D01*
X167811523Y-64238519D01*
X167811029Y-64331013D01*
X167809633Y-64412349D01*
X167807471Y-64479021D01*
X167804675Y-64527526D01*
X167801379Y-64554357D01*
X167799341Y-64558610D01*
X167787423Y-64548828D01*
X167760136Y-64521278D01*
X167719983Y-64478652D01*
X167669466Y-64423641D01*
X167611087Y-64358936D01*
X167553103Y-64293743D01*
X167490089Y-64222645D01*
X167433112Y-64158760D01*
X167384590Y-64104767D01*
X167346943Y-64063346D01*
X167322588Y-64037178D01*
X167314002Y-64028877D01*
X167312372Y-64041737D01*
X167310962Y-64077426D01*
X167309862Y-64131609D01*
X167309165Y-64199948D01*
X167308956Y-64267757D01*
X167308956Y-64506638D01*
X167349705Y-64522019D01*
X167381231Y-64536698D01*
X167387086Y-64547470D01*
X167366906Y-64554533D01*
X167320323Y-64558082D01*
X167281791Y-64558610D01*
X167231328Y-64557417D01*
X167193328Y-64554247D01*
X167174219Y-64549713D01*
X167173128Y-64548248D01*
X167184036Y-64535479D01*
X167203448Y-64524478D01*
X167225600Y-64511916D01*
X167242127Y-64494071D01*
X167253736Y-64467268D01*
X167261132Y-64427833D01*
X167265021Y-64372094D01*
X167266108Y-64296375D01*
X167265195Y-64203016D01*
X167263571Y-64115572D01*
X167261522Y-64050927D01*
X167258545Y-64004715D01*
X167254139Y-63972571D01*
X167247802Y-63950127D01*
X167239032Y-63933018D01*
X167233185Y-63924567D01*
X167205042Y-63893984D01*
X167176176Y-63873183D01*
X167175458Y-63872849D01*
X167150119Y-63857094D01*
X167151051Y-63845660D01*
X167177568Y-63839510D01*
X167199777Y-63838717D01*
X167216009Y-63839267D01*
X167231133Y-63842391D01*
X167247542Y-63850292D01*
X167267629Y-63865179D01*
X167293787Y-63889256D01*
X167328409Y-63924730D01*
X167373887Y-63973807D01*
X167432615Y-64038693D01*
X167506985Y-64121594D01*
X167508788Y-64123606D01*
X167763983Y-64408496D01*
X167767711Y-64183876D01*
X167768598Y-64087204D01*
X167767033Y-64014015D01*
X167762139Y-63960669D01*
X167753035Y-63923530D01*
X167738843Y-63898959D01*
X167718685Y-63883319D01*
X167692673Y-63873261D01*
X167658555Y-63860568D01*
X167651143Y-63850618D01*
X167670103Y-63843571D01*
X167715098Y-63839591D01*
X167763983Y-63838717D01*
X167820209Y-63840219D01*
G37*
G36*
X168721531Y-63850248D02*
G01*
X168756652Y-63858215D01*
X168782980Y-63857103D01*
X168783082Y-63857064D01*
X168795286Y-63857742D01*
X168801245Y-63875324D01*
X168802647Y-63914840D01*
X168802644Y-63915365D01*
X168802213Y-63981337D01*
X168774068Y-63943604D01*
X168732532Y-63901744D01*
X168686415Y-63876708D01*
X168640854Y-63868348D01*
X168600983Y-63876519D01*
X168571937Y-63901072D01*
X168558852Y-63941861D01*
X168558582Y-63949772D01*
X168568319Y-63978596D01*
X168595524Y-64021669D01*
X168637183Y-64075391D01*
X168690286Y-64136162D01*
X168751822Y-64200380D01*
X168818778Y-64264446D01*
X168831232Y-64275737D01*
X168880941Y-64319103D01*
X168914493Y-64343294D01*
X168935125Y-64348155D01*
X168946076Y-64333530D01*
X168950585Y-64299264D01*
X168951531Y-64269973D01*
X168943555Y-64224177D01*
X168921450Y-64187140D01*
X168890628Y-64166587D01*
X168877780Y-64164706D01*
X168859704Y-64157371D01*
X168857406Y-64151123D01*
X168870068Y-64144316D01*
X168904440Y-64139559D01*
X168955098Y-64137561D01*
X168961382Y-64137540D01*
X169013366Y-64137905D01*
X169042557Y-64139882D01*
X169053329Y-64144795D01*
X169050052Y-64153968D01*
X169042993Y-64162254D01*
X169027566Y-64189675D01*
X169013147Y-64232047D01*
X169007213Y-64257700D01*
X168996669Y-64303890D01*
X168984789Y-64342568D01*
X168978991Y-64356100D01*
X168971835Y-64375779D01*
X168975553Y-64394254D01*
X168993307Y-64415366D01*
X169028260Y-64442953D01*
X169079518Y-64478151D01*
X169127582Y-64508207D01*
X169161910Y-64523652D01*
X169189666Y-64527227D01*
X169203097Y-64525466D01*
X169229187Y-64521816D01*
X169232777Y-64527210D01*
X169226405Y-64534585D01*
X169202582Y-64544683D01*
X169160296Y-64550536D01*
X169131329Y-64551393D01*
X169079684Y-64548224D01*
X169038988Y-64536394D01*
X168995005Y-64511401D01*
X168986132Y-64505490D01*
X168948229Y-64480617D01*
X168924273Y-64469295D01*
X168905719Y-64469843D01*
X168884020Y-64480581D01*
X168877890Y-64484194D01*
X168820720Y-64516349D01*
X168776333Y-64536161D01*
X168735376Y-64547032D01*
X168691049Y-64552185D01*
X168641042Y-64553179D01*
X168595370Y-64549782D01*
X168578956Y-64546688D01*
X168494329Y-64513520D01*
X168431521Y-64464254D01*
X168390649Y-64399022D01*
X168371826Y-64317953D01*
X168371167Y-64309091D01*
X168370240Y-64268736D01*
X168435849Y-64268736D01*
X168448736Y-64331379D01*
X168472370Y-64370444D01*
X168511188Y-64413132D01*
X168556211Y-64450656D01*
X168592078Y-64471679D01*
X168648399Y-64486125D01*
X168715702Y-64489143D01*
X168780321Y-64480731D01*
X168808644Y-64471707D01*
X168847844Y-64451581D01*
X168861438Y-64431738D01*
X168850037Y-64407537D01*
X168820739Y-64379729D01*
X168789818Y-64352039D01*
X168746329Y-64310916D01*
X168696611Y-64262433D01*
X168657511Y-64223339D01*
X168611915Y-64178805D01*
X168571746Y-64142544D01*
X168541529Y-64118449D01*
X168526285Y-64110374D01*
X168505611Y-64120060D01*
X168478632Y-64144126D01*
X168471501Y-64152165D01*
X168443484Y-64205249D01*
X168435849Y-64268736D01*
X168370240Y-64268736D01*
X168369980Y-64257407D01*
X168375729Y-64221296D01*
X168390707Y-64189566D01*
X168397972Y-64178289D01*
X168432180Y-64140294D01*
X168474418Y-64109144D01*
X168480650Y-64105865D01*
X168511946Y-64089104D01*
X168522514Y-64076187D01*
X168516428Y-64059878D01*
X168511032Y-64051907D01*
X168492698Y-64005298D01*
X168492456Y-63952156D01*
X168509475Y-63904039D01*
X168522919Y-63886727D01*
X168564860Y-63860453D01*
X168621218Y-63844928D01*
X168680666Y-63842232D01*
X168721531Y-63850248D01*
G37*
G36*
X169912325Y-63839748D02*
G01*
X169979522Y-63842252D01*
X170041426Y-63846382D01*
X170092638Y-63852118D01*
X170103270Y-63853824D01*
X170199984Y-63882226D01*
X170278228Y-63930543D01*
X170338028Y-63998792D01*
X170354420Y-64027032D01*
X170385816Y-64114782D01*
X170393351Y-64205899D01*
X170378686Y-64295580D01*
X170343480Y-64379021D01*
X170289396Y-64451419D01*
X170218092Y-64507969D01*
X170181737Y-64526574D01*
X170150865Y-64536881D01*
X170109312Y-64544561D01*
X170052476Y-64550129D01*
X169975759Y-64554102D01*
X169920267Y-64555879D01*
X169848762Y-64557094D01*
X169787940Y-64556735D01*
X169742453Y-64554942D01*
X169716951Y-64551853D01*
X169713128Y-64549699D01*
X169724086Y-64535846D01*
X169743689Y-64524478D01*
X169753674Y-64519371D01*
X169761257Y-64511642D01*
X169766824Y-64497788D01*
X169770760Y-64474303D01*
X169773450Y-64437683D01*
X169775282Y-64384423D01*
X169776641Y-64311020D01*
X169777564Y-64240526D01*
X169846812Y-64240526D01*
X169848348Y-64317222D01*
X169851482Y-64385623D01*
X169856229Y-64440710D01*
X169862606Y-64477463D01*
X169868462Y-64489974D01*
X169914258Y-64514020D01*
X169980431Y-64526057D01*
X170055510Y-64527160D01*
X170111693Y-64522898D01*
X170152604Y-64512756D01*
X170190030Y-64493277D01*
X170204922Y-64483311D01*
X170251015Y-64442035D01*
X170289140Y-64391901D01*
X170294754Y-64381850D01*
X170311104Y-64345925D01*
X170319884Y-64311492D01*
X170322579Y-64268890D01*
X170320869Y-64212246D01*
X170306972Y-64110279D01*
X170275391Y-64027649D01*
X170224510Y-63961790D01*
X170152714Y-63910134D01*
X170120614Y-63894147D01*
X170068691Y-63877147D01*
X170009667Y-63867635D01*
X169951672Y-63865836D01*
X169902838Y-63871975D01*
X169871294Y-63886278D01*
X169870301Y-63887227D01*
X169862569Y-63908290D01*
X169856344Y-63951173D01*
X169851640Y-64010858D01*
X169848473Y-64082324D01*
X169846859Y-64160553D01*
X169846812Y-64240526D01*
X169777564Y-64240526D01*
X169777912Y-64213968D01*
X169777917Y-64213614D01*
X169778928Y-64114794D01*
X169779064Y-64039546D01*
X169778112Y-63984286D01*
X169775861Y-63945428D01*
X169772098Y-63919388D01*
X169766612Y-63902580D01*
X169759190Y-63891419D01*
X169758833Y-63891021D01*
X169731510Y-63871341D01*
X169711022Y-63865882D01*
X169690120Y-63859770D01*
X169685962Y-63852299D01*
X169698617Y-63846380D01*
X169732981Y-63842185D01*
X169783654Y-63839695D01*
X169845235Y-63838889D01*
X169912325Y-63839748D01*
G37*
G36*
X171044251Y-63878354D02*
G01*
X171039935Y-63923761D01*
X171028399Y-63953123D01*
X171015632Y-63960962D01*
X171005510Y-63949670D01*
X171003502Y-63935902D01*
X170996184Y-63904921D01*
X170972235Y-63883808D01*
X170928662Y-63871311D01*
X170862472Y-63866176D01*
X170836301Y-63865882D01*
X170782192Y-63866183D01*
X170745033Y-63869925D01*
X170721831Y-63881373D01*
X170709590Y-63904787D01*
X170705315Y-63944431D01*
X170706013Y-64004567D01*
X170707475Y-64049251D01*
X170711470Y-64171497D01*
X170799339Y-64175618D01*
X170866847Y-64176812D01*
X170912170Y-64172007D01*
X170939879Y-64159899D01*
X170954547Y-64139181D01*
X170957227Y-64130542D01*
X170967605Y-64101633D01*
X170976957Y-64097982D01*
X170984368Y-64117678D01*
X170988922Y-64158812D01*
X170989919Y-64198663D01*
X170987869Y-64253467D01*
X170982330Y-64288149D01*
X170974218Y-64300799D01*
X170964449Y-64289509D01*
X170957227Y-64266784D01*
X170945760Y-64243043D01*
X170922711Y-64228328D01*
X170883509Y-64221334D01*
X170823581Y-64220754D01*
X170799339Y-64221708D01*
X170711470Y-64225829D01*
X170707565Y-64351413D01*
X170706454Y-64424338D01*
X170710151Y-64474436D01*
X170721204Y-64505950D01*
X170742160Y-64523123D01*
X170775567Y-64530198D01*
X170815639Y-64531444D01*
X170912693Y-64523618D01*
X170989767Y-64499655D01*
X171046961Y-64460998D01*
X171076891Y-64434070D01*
X171092267Y-64424946D01*
X171097886Y-64432362D01*
X171098582Y-64447405D01*
X171089288Y-64471787D01*
X171066091Y-64502588D01*
X171056980Y-64511924D01*
X171015377Y-64551818D01*
X170792113Y-64556128D01*
X170717693Y-64556917D01*
X170653789Y-64556357D01*
X170604883Y-64554590D01*
X170575458Y-64551754D01*
X170568849Y-64549162D01*
X170579796Y-64535729D01*
X170599411Y-64524478D01*
X170609345Y-64519405D01*
X170616901Y-64511737D01*
X170622460Y-64497990D01*
X170626401Y-64474683D01*
X170629101Y-64438334D01*
X170630940Y-64385460D01*
X170632297Y-64312581D01*
X170633550Y-64216214D01*
X170633625Y-64210077D01*
X170634612Y-64110214D01*
X170634706Y-64034034D01*
X170633713Y-63978065D01*
X170631440Y-63938833D01*
X170627693Y-63912866D01*
X170622281Y-63896690D01*
X170615676Y-63887483D01*
X170586813Y-63869806D01*
X170567879Y-63865882D01*
X170546340Y-63860006D01*
X170541684Y-63852299D01*
X170554964Y-63847161D01*
X170593637Y-63843155D01*
X170655947Y-63840376D01*
X170740140Y-63838920D01*
X170792967Y-63838717D01*
X171044251Y-63838717D01*
X171044251Y-63878354D01*
G37*
G36*
X172110507Y-63839018D02*
G01*
X172066363Y-63873809D01*
X172022218Y-63908600D01*
X172022218Y-64198877D01*
X172022306Y-64294764D01*
X172022806Y-64367130D01*
X172024070Y-64419622D01*
X172026452Y-64455886D01*
X172030305Y-64479567D01*
X172035984Y-64494311D01*
X172043841Y-64503764D01*
X172052407Y-64510299D01*
X172084078Y-64526453D01*
X172106738Y-64531444D01*
X172127113Y-64537762D01*
X172130882Y-64545027D01*
X172117968Y-64551337D01*
X172081836Y-64555899D01*
X172026400Y-64558321D01*
X171995053Y-64558610D01*
X171931953Y-64557318D01*
X171886333Y-64553705D01*
X171862107Y-64548161D01*
X171859224Y-64545027D01*
X171870471Y-64533609D01*
X171883673Y-64531444D01*
X171901596Y-64529852D01*
X171915328Y-64522964D01*
X171925423Y-64507610D01*
X171932434Y-64480619D01*
X171936916Y-64438822D01*
X171939421Y-64379048D01*
X171940505Y-64298127D01*
X171940721Y-64204843D01*
X171940547Y-64107370D01*
X171939836Y-64033449D01*
X171938304Y-63979466D01*
X171935667Y-63941809D01*
X171931643Y-63916866D01*
X171925947Y-63901022D01*
X171918296Y-63890665D01*
X171915882Y-63888362D01*
X171887576Y-63870662D01*
X171868341Y-63865882D01*
X171848820Y-63859210D01*
X171845641Y-63852299D01*
X171858538Y-63845947D01*
X171894559Y-63841406D01*
X171949699Y-63839083D01*
X171978074Y-63838867D01*
X172110507Y-63839018D01*
G37*
G36*
X173783097Y-63840219D02*
G01*
X173822913Y-63844350D01*
X173841539Y-63850549D01*
X173842325Y-63852299D01*
X173831358Y-63864428D01*
X173822429Y-63865882D01*
X173808021Y-63869040D01*
X173796746Y-63880403D01*
X173788240Y-63902810D01*
X173782137Y-63939095D01*
X173778072Y-63992096D01*
X173775678Y-64064649D01*
X173774591Y-64159591D01*
X173774411Y-64238519D01*
X173773916Y-64331013D01*
X173772521Y-64412349D01*
X173770359Y-64479021D01*
X173767563Y-64527526D01*
X173764267Y-64554357D01*
X173762229Y-64558610D01*
X173750310Y-64548828D01*
X173723023Y-64521278D01*
X173682870Y-64478652D01*
X173632353Y-64423641D01*
X173573975Y-64358936D01*
X173515990Y-64293743D01*
X173452977Y-64222645D01*
X173396000Y-64158760D01*
X173347478Y-64104767D01*
X173309830Y-64063346D01*
X173285476Y-64037178D01*
X173276889Y-64028877D01*
X173275260Y-64041737D01*
X173273850Y-64077426D01*
X173272750Y-64131609D01*
X173272052Y-64199948D01*
X173271844Y-64267757D01*
X173271844Y-64506638D01*
X173312593Y-64522019D01*
X173344119Y-64536698D01*
X173349974Y-64547470D01*
X173329794Y-64554533D01*
X173283211Y-64558082D01*
X173244678Y-64558610D01*
X173194216Y-64557417D01*
X173156216Y-64554247D01*
X173137106Y-64549713D01*
X173136015Y-64548248D01*
X173146924Y-64535479D01*
X173166336Y-64524478D01*
X173188487Y-64511916D01*
X173205015Y-64494071D01*
X173216624Y-64467268D01*
X173224020Y-64427833D01*
X173227909Y-64372094D01*
X173228996Y-64296375D01*
X173228083Y-64203016D01*
X173226459Y-64115572D01*
X173224410Y-64050927D01*
X173221433Y-64004715D01*
X173217027Y-63972571D01*
X173210690Y-63950127D01*
X173201919Y-63933018D01*
X173196073Y-63924567D01*
X173167929Y-63893984D01*
X173139064Y-63873183D01*
X173138345Y-63872849D01*
X173113006Y-63857094D01*
X173113939Y-63845660D01*
X173140456Y-63839510D01*
X173162665Y-63838717D01*
X173178897Y-63839267D01*
X173194021Y-63842391D01*
X173210430Y-63850292D01*
X173230517Y-63865179D01*
X173256675Y-63889256D01*
X173291297Y-63924730D01*
X173336775Y-63973807D01*
X173395503Y-64038693D01*
X173469873Y-64121594D01*
X173471676Y-64123606D01*
X173726871Y-64408496D01*
X173730599Y-64183876D01*
X173731486Y-64087204D01*
X173729921Y-64014015D01*
X173725026Y-63960669D01*
X173715923Y-63923530D01*
X173701731Y-63898959D01*
X173681573Y-63883319D01*
X173655561Y-63873261D01*
X173621442Y-63860568D01*
X173614031Y-63850618D01*
X173632991Y-63843571D01*
X173677986Y-63839591D01*
X173726871Y-63838717D01*
X173783097Y-63840219D01*
G37*
G36*
X173747245Y-63431230D02*
G01*
X173747245Y-63485561D01*
X167227459Y-63485561D01*
X160707673Y-63485561D01*
X160707673Y-63431230D01*
X160707673Y-63376898D01*
X167227459Y-63376898D01*
X173747245Y-63376898D01*
X173747245Y-63431230D01*
G37*
G36*
X171089909Y-60057889D02*
G01*
X171120661Y-60081741D01*
X171130972Y-60092568D01*
X171170078Y-60136988D01*
X171223601Y-60197314D01*
X171290207Y-60272068D01*
X171368563Y-60359771D01*
X171457337Y-60458945D01*
X171555194Y-60568109D01*
X171660802Y-60685786D01*
X171772827Y-60810497D01*
X171889937Y-60940763D01*
X172010797Y-61075104D01*
X172134076Y-61212042D01*
X172258439Y-61350099D01*
X172382554Y-61487794D01*
X172505087Y-61623650D01*
X172624706Y-61756188D01*
X172740076Y-61883928D01*
X172849866Y-62005392D01*
X172952740Y-62119101D01*
X173047368Y-62223576D01*
X173132414Y-62317338D01*
X173206547Y-62398909D01*
X173268433Y-62466809D01*
X173316738Y-62519559D01*
X173350130Y-62555682D01*
X173367275Y-62573697D01*
X173369316Y-62575508D01*
X173371768Y-62562349D01*
X173373918Y-62524565D01*
X173375773Y-62464695D01*
X173377337Y-62385278D01*
X173378617Y-62288852D01*
X173379616Y-62177958D01*
X173380342Y-62055133D01*
X173380798Y-61922917D01*
X173380990Y-61783848D01*
X173380925Y-61640466D01*
X173380606Y-61495310D01*
X173380040Y-61350918D01*
X173379232Y-61209830D01*
X173378187Y-61074584D01*
X173376911Y-60947720D01*
X173375408Y-60831776D01*
X173373685Y-60729292D01*
X173371746Y-60642806D01*
X173369597Y-60574857D01*
X173367244Y-60527984D01*
X173364945Y-60505866D01*
X173333066Y-60405096D01*
X173281092Y-60321889D01*
X173208392Y-60255633D01*
X173114334Y-60205717D01*
X173026332Y-60177878D01*
X172954264Y-60156652D01*
X172907624Y-60134005D01*
X172884675Y-60108725D01*
X172883679Y-60079601D01*
X172883982Y-60078618D01*
X172887457Y-60069361D01*
X172893426Y-60062279D01*
X172905137Y-60057126D01*
X172925834Y-60053654D01*
X172958765Y-60051613D01*
X173007176Y-60050757D01*
X173074314Y-60050838D01*
X173163425Y-60051607D01*
X173228676Y-60052295D01*
X173330136Y-60053109D01*
X173430459Y-60053420D01*
X173523893Y-60053247D01*
X173604686Y-60052609D01*
X173667086Y-60051525D01*
X173690532Y-60050784D01*
X173753455Y-60049794D01*
X173800940Y-60052162D01*
X173827906Y-60057570D01*
X173831106Y-60059604D01*
X173840525Y-60085037D01*
X173826283Y-60115076D01*
X173790704Y-60146401D01*
X173756428Y-60166285D01*
X173709441Y-60192752D01*
X173666601Y-60221787D01*
X173648450Y-60236767D01*
X173636317Y-60248117D01*
X173625515Y-60259145D01*
X173615968Y-60271415D01*
X173607598Y-60286487D01*
X173600328Y-60305927D01*
X173594079Y-60331295D01*
X173588776Y-60364155D01*
X173584339Y-60406070D01*
X173580693Y-60458603D01*
X173577760Y-60523316D01*
X173575462Y-60601773D01*
X173573722Y-60695535D01*
X173572462Y-60806166D01*
X173571606Y-60935229D01*
X173571076Y-61084286D01*
X173570793Y-61254901D01*
X173570682Y-61448635D01*
X173570665Y-61667053D01*
X173570668Y-61807824D01*
X173570595Y-62046154D01*
X173570367Y-62258522D01*
X173569971Y-62446130D01*
X173569391Y-62610183D01*
X173568616Y-62751882D01*
X173567630Y-62872432D01*
X173566420Y-62973034D01*
X173564972Y-63054892D01*
X173563273Y-63119210D01*
X173561308Y-63167190D01*
X173559063Y-63200035D01*
X173556525Y-63218949D01*
X173554368Y-63224770D01*
X173534984Y-63237967D01*
X173512663Y-63237058D01*
X173482217Y-63220232D01*
X173438459Y-63185677D01*
X173435699Y-63183342D01*
X173418850Y-63166556D01*
X173385286Y-63130831D01*
X173336277Y-63077587D01*
X173273091Y-63008246D01*
X173197000Y-62924229D01*
X173109271Y-62826957D01*
X173011174Y-62717851D01*
X172903978Y-62598332D01*
X172788953Y-62469822D01*
X172667369Y-62333741D01*
X172540494Y-62191511D01*
X172409598Y-62044552D01*
X172275950Y-61894286D01*
X172140819Y-61742134D01*
X172005476Y-61589517D01*
X171871189Y-61437856D01*
X171739228Y-61288573D01*
X171610862Y-61143087D01*
X171487360Y-61002822D01*
X171445929Y-60955693D01*
X171421987Y-60927717D01*
X171401160Y-60903014D01*
X171383232Y-60883116D01*
X171367988Y-60869554D01*
X171355214Y-60863862D01*
X171344694Y-60867571D01*
X171336213Y-60882212D01*
X171329555Y-60909318D01*
X171324507Y-60950422D01*
X171320851Y-61007054D01*
X171318375Y-61080747D01*
X171316861Y-61173034D01*
X171316095Y-61285445D01*
X171315862Y-61419514D01*
X171315947Y-61576771D01*
X171316135Y-61758750D01*
X171316207Y-61879385D01*
X171316291Y-62070190D01*
X171316453Y-62235742D01*
X171316740Y-62377954D01*
X171317197Y-62498740D01*
X171317869Y-62600011D01*
X171318802Y-62683682D01*
X171320043Y-62751666D01*
X171321636Y-62805875D01*
X171323628Y-62848222D01*
X171326064Y-62880620D01*
X171328990Y-62904983D01*
X171332451Y-62923223D01*
X171336493Y-62937253D01*
X171341162Y-62948987D01*
X171341790Y-62950381D01*
X171375065Y-63003321D01*
X171422830Y-63042775D01*
X171489730Y-63071881D01*
X171542592Y-63086047D01*
X171594924Y-63099142D01*
X171640935Y-63112870D01*
X171668967Y-63123533D01*
X171700030Y-63148530D01*
X171707815Y-63176518D01*
X171694434Y-63200826D01*
X171661998Y-63214782D01*
X171639765Y-63215819D01*
X171615262Y-63215135D01*
X171567271Y-63214325D01*
X171499470Y-63213432D01*
X171415537Y-63212499D01*
X171319150Y-63211568D01*
X171213986Y-63210681D01*
X171159705Y-63210270D01*
X171039676Y-63209346D01*
X170944019Y-63208379D01*
X170869943Y-63207175D01*
X170814655Y-63205542D01*
X170775362Y-63203286D01*
X170749273Y-63200215D01*
X170733594Y-63196134D01*
X170725534Y-63190850D01*
X170722299Y-63184171D01*
X170721579Y-63179946D01*
X170722596Y-63152708D01*
X170736412Y-63130829D01*
X170767240Y-63110709D01*
X170819290Y-63088748D01*
X170835110Y-63082911D01*
X170917176Y-63048084D01*
X170977711Y-63009435D01*
X171022345Y-62962621D01*
X171050025Y-62917087D01*
X171061415Y-62893623D01*
X171071323Y-62869923D01*
X171079852Y-62844012D01*
X171087103Y-62813916D01*
X171093178Y-62777658D01*
X171098179Y-62733263D01*
X171102207Y-62678755D01*
X171105365Y-62612159D01*
X171107754Y-62531500D01*
X171109476Y-62434801D01*
X171110634Y-62320088D01*
X171111328Y-62185385D01*
X171111660Y-62028715D01*
X171111733Y-61848105D01*
X171111691Y-61720687D01*
X171111537Y-61523291D01*
X171111208Y-61350999D01*
X171110595Y-61201748D01*
X171109587Y-61073479D01*
X171108076Y-60964128D01*
X171105951Y-60871634D01*
X171103104Y-60793935D01*
X171099425Y-60728969D01*
X171094805Y-60674676D01*
X171089134Y-60628992D01*
X171082302Y-60589856D01*
X171074200Y-60555207D01*
X171064720Y-60522982D01*
X171053750Y-60491121D01*
X171045187Y-60468088D01*
X170993740Y-60366929D01*
X170923293Y-60285153D01*
X170833778Y-60222705D01*
X170725130Y-60179529D01*
X170694252Y-60171572D01*
X170631678Y-60152137D01*
X170590469Y-60128656D01*
X170572672Y-60102723D01*
X170577134Y-60080503D01*
X170585311Y-60071254D01*
X170599507Y-60064516D01*
X170623806Y-60059816D01*
X170662292Y-60056682D01*
X170719052Y-60054641D01*
X170798168Y-60053220D01*
X170814835Y-60052997D01*
X170891730Y-60051951D01*
X170960575Y-60050924D01*
X171016120Y-60050000D01*
X171053112Y-60049266D01*
X171064625Y-60048934D01*
X171089909Y-60057889D01*
G37*
G36*
X161701684Y-60048057D02*
G01*
X161739644Y-60056084D01*
X161761347Y-60071781D01*
X161767304Y-60083048D01*
X161772853Y-60109858D01*
X161764760Y-60130315D01*
X161739173Y-60148009D01*
X161692240Y-60166529D01*
X161669742Y-60173973D01*
X161581006Y-60212427D01*
X161516113Y-60263189D01*
X161474406Y-60326831D01*
X161465390Y-60351507D01*
X161462263Y-60367345D01*
X161459505Y-60393944D01*
X161457096Y-60432748D01*
X161455018Y-60485204D01*
X161453250Y-60552754D01*
X161451774Y-60636844D01*
X161450570Y-60738918D01*
X161449618Y-60860421D01*
X161448900Y-61002798D01*
X161448395Y-61167493D01*
X161448085Y-61355950D01*
X161447950Y-61569616D01*
X161447940Y-61651872D01*
X161447905Y-61869239D01*
X161447875Y-62061087D01*
X161447966Y-62229061D01*
X161448295Y-62374809D01*
X161448978Y-62499974D01*
X161450129Y-62606205D01*
X161451865Y-62695147D01*
X161454301Y-62768445D01*
X161457554Y-62827747D01*
X161461739Y-62874697D01*
X161466972Y-62910943D01*
X161473369Y-62938130D01*
X161481046Y-62957904D01*
X161490118Y-62971912D01*
X161500701Y-62981799D01*
X161512911Y-62989211D01*
X161526865Y-62995795D01*
X161542676Y-63003197D01*
X161543021Y-63003369D01*
X161565012Y-63013103D01*
X161589267Y-63020205D01*
X161620304Y-63025072D01*
X161662642Y-63028101D01*
X161720800Y-63029690D01*
X161799296Y-63030236D01*
X161848636Y-63030241D01*
X161964260Y-63029011D01*
X162059027Y-63025346D01*
X162139170Y-63018833D01*
X162210921Y-63009063D01*
X162235748Y-63004697D01*
X162424425Y-62960338D01*
X162592400Y-62901426D01*
X162738882Y-62828354D01*
X162863079Y-62741518D01*
X162964031Y-62641513D01*
X162995674Y-62607053D01*
X163022942Y-62583169D01*
X163038144Y-62575508D01*
X163056730Y-62587614D01*
X163066463Y-62620496D01*
X163066589Y-62668997D01*
X163058894Y-62717263D01*
X163033991Y-62790087D01*
X162992299Y-62870403D01*
X162938226Y-62952578D01*
X162876182Y-63030978D01*
X162810574Y-63099969D01*
X162745811Y-63153918D01*
X162693410Y-63184309D01*
X162674860Y-63191610D01*
X162654404Y-63197788D01*
X162629862Y-63202899D01*
X162599053Y-63207004D01*
X162559799Y-63210158D01*
X162509918Y-63212422D01*
X162447230Y-63213854D01*
X162369556Y-63214510D01*
X162274714Y-63214451D01*
X162160525Y-63213734D01*
X162024809Y-63212417D01*
X161865386Y-63210558D01*
X161760347Y-63209245D01*
X161636779Y-63208011D01*
X161512358Y-63207383D01*
X161392048Y-63207343D01*
X161280817Y-63207872D01*
X161183629Y-63208951D01*
X161105451Y-63210561D01*
X161067620Y-63211864D01*
X160992199Y-63214727D01*
X160923076Y-63216607D01*
X160866391Y-63217390D01*
X160828284Y-63216963D01*
X160819732Y-63216439D01*
X160788509Y-63209638D01*
X160776645Y-63193506D01*
X160775587Y-63180749D01*
X160777739Y-63160242D01*
X160787252Y-63143772D01*
X160808711Y-63127876D01*
X160846705Y-63109093D01*
X160901351Y-63085810D01*
X160974097Y-63049329D01*
X161024331Y-63007492D01*
X161056706Y-62955303D01*
X161073200Y-62901225D01*
X161076137Y-62874797D01*
X161078739Y-62824241D01*
X161081011Y-62749208D01*
X161082956Y-62649350D01*
X161084578Y-62524319D01*
X161085881Y-62373768D01*
X161086869Y-62197348D01*
X161087546Y-61994710D01*
X161087916Y-61765507D01*
X161087994Y-61583761D01*
X161087994Y-60335277D01*
X161047914Y-60289629D01*
X161020917Y-60262810D01*
X160988248Y-60239569D01*
X160944582Y-60217109D01*
X160884599Y-60192634D01*
X160816336Y-60167994D01*
X160769585Y-60150752D01*
X160743084Y-60136994D01*
X160731148Y-60122118D01*
X160728093Y-60101524D01*
X160728047Y-60096527D01*
X160728047Y-60055882D01*
X161087994Y-60060001D01*
X161191592Y-60060704D01*
X161292861Y-60060507D01*
X161386588Y-60059486D01*
X161467563Y-60057718D01*
X161530573Y-60055281D01*
X161563395Y-60053012D01*
X161644068Y-60047200D01*
X161701684Y-60048057D01*
G37*
G36*
X164915686Y-59977706D02*
G01*
X164945511Y-60004642D01*
X164973218Y-60054409D01*
X164981196Y-60074524D01*
X164989490Y-60095934D01*
X165007194Y-60140712D01*
X165033575Y-60207026D01*
X165067900Y-60293045D01*
X165109435Y-60396936D01*
X165157446Y-60516868D01*
X165211201Y-60651009D01*
X165269965Y-60797525D01*
X165333005Y-60954586D01*
X165399587Y-61120359D01*
X165468978Y-61293013D01*
X165495848Y-61359840D01*
X165566665Y-61536000D01*
X165635337Y-61706935D01*
X165701089Y-61870712D01*
X165763145Y-62025395D01*
X165820732Y-62169049D01*
X165873075Y-62299738D01*
X165919398Y-62415528D01*
X165958926Y-62514485D01*
X165990885Y-62594672D01*
X166014500Y-62654155D01*
X166028996Y-62690999D01*
X166031606Y-62697754D01*
X166077172Y-62804797D01*
X166126017Y-62897777D01*
X166175801Y-62972846D01*
X166224182Y-63026156D01*
X166238480Y-63037628D01*
X166303279Y-63071796D01*
X166392878Y-63098737D01*
X166403445Y-63101075D01*
X166479956Y-63121655D01*
X166529740Y-63144860D01*
X166553128Y-63170899D01*
X166552573Y-63195232D01*
X166547897Y-63202205D01*
X166537814Y-63207422D01*
X166519153Y-63211013D01*
X166488746Y-63213107D01*
X166443422Y-63213833D01*
X166380012Y-63213323D01*
X166295345Y-63211705D01*
X166203122Y-63209526D01*
X166101881Y-63207550D01*
X166002679Y-63206560D01*
X165910976Y-63206542D01*
X165832236Y-63207477D01*
X165771919Y-63209350D01*
X165746924Y-63210911D01*
X165681790Y-63214787D01*
X165616105Y-63216013D01*
X165562710Y-63214387D01*
X165556764Y-63213904D01*
X165513888Y-63208930D01*
X165491552Y-63201672D01*
X165483163Y-63188535D01*
X165482058Y-63173155D01*
X165486985Y-63150445D01*
X165505618Y-63131509D01*
X165543731Y-63110795D01*
X165549972Y-63107887D01*
X165617001Y-63076515D01*
X165663643Y-63053037D01*
X165694427Y-63034521D01*
X165713882Y-63018034D01*
X165726535Y-63000642D01*
X165732093Y-62989925D01*
X165742045Y-62964035D01*
X165744231Y-62937665D01*
X165738433Y-62901498D01*
X165729147Y-62863984D01*
X165717349Y-62825410D01*
X165697494Y-62767597D01*
X165671217Y-62694758D01*
X165640153Y-62611109D01*
X165605936Y-62520862D01*
X165570199Y-62428233D01*
X165534578Y-62337436D01*
X165500705Y-62252684D01*
X165470217Y-62178192D01*
X165444747Y-62118174D01*
X165425929Y-62076845D01*
X165418301Y-62062425D01*
X165405846Y-62042419D01*
X165393446Y-62025808D01*
X165378610Y-62012294D01*
X165358848Y-62001579D01*
X165331669Y-61993366D01*
X165294584Y-61987356D01*
X165245100Y-61983253D01*
X165180729Y-61980758D01*
X165098980Y-61979574D01*
X164997363Y-61979403D01*
X164873386Y-61979947D01*
X164735836Y-61980833D01*
X164595528Y-61981804D01*
X164479817Y-61982772D01*
X164386131Y-61983870D01*
X164311901Y-61985232D01*
X164254558Y-61986992D01*
X164211530Y-61989285D01*
X164180249Y-61992242D01*
X164158145Y-61996000D01*
X164142647Y-62000690D01*
X164131186Y-62006448D01*
X164122009Y-62012795D01*
X164105943Y-62030052D01*
X164084764Y-62062458D01*
X164057419Y-62112021D01*
X164022854Y-62180751D01*
X163980016Y-62270656D01*
X163929916Y-62379225D01*
X163877466Y-62494973D01*
X163835782Y-62589421D01*
X163803824Y-62665736D01*
X163780555Y-62727085D01*
X163764937Y-62776635D01*
X163755933Y-62817553D01*
X163752504Y-62853007D01*
X163753614Y-62886165D01*
X163756396Y-62908790D01*
X163779247Y-62975208D01*
X163823460Y-63029788D01*
X163884543Y-63069037D01*
X163958005Y-63089459D01*
X163991336Y-63091582D01*
X164026106Y-63101467D01*
X164052463Y-63125864D01*
X164066676Y-63157169D01*
X164065015Y-63187776D01*
X164048250Y-63207615D01*
X164023732Y-63213753D01*
X163978310Y-63217259D01*
X163918125Y-63218054D01*
X163849319Y-63216056D01*
X163778033Y-63211187D01*
X163777406Y-63211130D01*
X163723764Y-63208078D01*
X163650599Y-63206416D01*
X163565519Y-63206191D01*
X163476134Y-63207448D01*
X163422941Y-63208957D01*
X163336497Y-63211727D01*
X163273366Y-63213027D01*
X163229725Y-63212630D01*
X163201750Y-63210309D01*
X163185617Y-63205834D01*
X163177501Y-63198979D01*
X163175102Y-63194195D01*
X163173581Y-63160726D01*
X163197272Y-63132037D01*
X163246966Y-63107315D01*
X163265274Y-63101110D01*
X163326316Y-63074366D01*
X163385453Y-63036306D01*
X163399525Y-63024735D01*
X163410492Y-63015122D01*
X163420531Y-63005824D01*
X163430422Y-62995283D01*
X163440946Y-62981940D01*
X163452883Y-62964237D01*
X163467014Y-62940614D01*
X163484120Y-62909512D01*
X163504981Y-62869373D01*
X163530378Y-62818637D01*
X163561091Y-62755747D01*
X163597901Y-62679142D01*
X163641589Y-62587264D01*
X163692935Y-62478554D01*
X163752720Y-62351453D01*
X163821724Y-62204402D01*
X163900729Y-62035843D01*
X163988355Y-61848823D01*
X164032169Y-61755317D01*
X164244740Y-61755317D01*
X164259891Y-61760618D01*
X164298548Y-61765148D01*
X164357061Y-61768909D01*
X164431782Y-61771901D01*
X164519061Y-61774127D01*
X164615250Y-61775585D01*
X164716698Y-61776279D01*
X164819758Y-61776208D01*
X164920780Y-61775373D01*
X165016114Y-61773775D01*
X165102113Y-61771416D01*
X165175126Y-61768296D01*
X165231504Y-61764416D01*
X165267599Y-61759777D01*
X165279692Y-61755051D01*
X165276040Y-61739510D01*
X165263213Y-61701958D01*
X165242449Y-61645477D01*
X165214985Y-61573148D01*
X165182057Y-61488053D01*
X165144903Y-61393273D01*
X165104759Y-61291890D01*
X165062861Y-61186985D01*
X165020448Y-61081638D01*
X164978755Y-60978932D01*
X164939020Y-60881949D01*
X164902478Y-60793768D01*
X164870368Y-60717472D01*
X164843926Y-60656142D01*
X164824389Y-60612860D01*
X164812993Y-60590706D01*
X164811596Y-60588864D01*
X164795459Y-60581380D01*
X164777689Y-60592653D01*
X164756072Y-60625099D01*
X164729700Y-60678297D01*
X164715326Y-60709381D01*
X164690998Y-60761835D01*
X164658228Y-60832399D01*
X164618532Y-60917819D01*
X164573422Y-61014835D01*
X164524413Y-61120190D01*
X164473018Y-61230629D01*
X164464301Y-61249355D01*
X164414615Y-61356932D01*
X164369050Y-61457214D01*
X164328797Y-61547456D01*
X164295049Y-61624911D01*
X164268996Y-61686833D01*
X164251831Y-61730477D01*
X164244744Y-61753095D01*
X164244740Y-61755317D01*
X164032169Y-61755317D01*
X164045028Y-61727873D01*
X164100005Y-61610549D01*
X164151825Y-61499967D01*
X164199029Y-61399240D01*
X164240157Y-61311485D01*
X164273748Y-61239816D01*
X164298344Y-61187348D01*
X164309815Y-61162888D01*
X164329280Y-61121278D01*
X164358249Y-61059203D01*
X164394777Y-60980837D01*
X164436920Y-60890350D01*
X164482736Y-60791915D01*
X164530280Y-60689704D01*
X164547099Y-60653529D01*
X164615481Y-60506620D01*
X164673482Y-60382491D01*
X164722054Y-60279237D01*
X164762151Y-60194950D01*
X164794726Y-60127722D01*
X164820732Y-60075648D01*
X164841122Y-60036819D01*
X164856848Y-60009329D01*
X164868864Y-59991270D01*
X164878123Y-59980735D01*
X164885578Y-59975818D01*
X164885798Y-59975732D01*
X164915686Y-59977706D01*
G37*
G36*
X168948812Y-60054287D02*
G01*
X168975339Y-60069892D01*
X168993491Y-60101004D01*
X169005442Y-60151433D01*
X169013366Y-60224987D01*
X169013670Y-60228997D01*
X169018287Y-60303314D01*
X169022213Y-60389156D01*
X169024762Y-60470882D01*
X169025130Y-60490535D01*
X169025851Y-60552196D01*
X169024979Y-60591782D01*
X169021350Y-60614382D01*
X169013799Y-60625082D01*
X169001162Y-60628971D01*
X168993234Y-60629882D01*
X168958307Y-60628194D01*
X168934786Y-60611672D01*
X168919358Y-60576100D01*
X168909534Y-60523436D01*
X168893233Y-60445880D01*
X168866803Y-60389201D01*
X168827117Y-60348027D01*
X168796283Y-60328865D01*
X168780360Y-60321149D01*
X168763083Y-60314923D01*
X168741420Y-60309995D01*
X168712340Y-60306172D01*
X168672812Y-60303262D01*
X168619804Y-60301073D01*
X168550284Y-60299414D01*
X168461222Y-60298091D01*
X168349586Y-60296914D01*
X168282340Y-60296302D01*
X168146863Y-60295392D01*
X168036724Y-60295326D01*
X167950108Y-60296152D01*
X167885200Y-60297912D01*
X167840184Y-60300652D01*
X167813245Y-60304417D01*
X167803543Y-60308152D01*
X167800259Y-60314090D01*
X167797362Y-60327144D01*
X167794830Y-60348857D01*
X167792642Y-60380767D01*
X167790773Y-60424417D01*
X167789202Y-60481346D01*
X167787906Y-60553096D01*
X167786863Y-60641208D01*
X167786051Y-60747221D01*
X167785446Y-60872678D01*
X167785027Y-61019118D01*
X167784770Y-61188082D01*
X167784654Y-61381112D01*
X167784655Y-61599748D01*
X167784656Y-61602599D01*
X167784726Y-61818130D01*
X167784852Y-62008181D01*
X167785065Y-62174436D01*
X167785397Y-62318582D01*
X167785882Y-62442303D01*
X167786550Y-62547284D01*
X167787434Y-62635212D01*
X167788567Y-62707771D01*
X167789980Y-62766646D01*
X167791706Y-62813523D01*
X167793776Y-62850088D01*
X167796223Y-62878024D01*
X167799080Y-62899019D01*
X167802377Y-62914756D01*
X167806148Y-62926922D01*
X167810115Y-62936522D01*
X167846509Y-62994488D01*
X167898122Y-63036854D01*
X167969957Y-63067468D01*
X167986846Y-63072423D01*
X168053125Y-63091777D01*
X168097397Y-63107696D01*
X168124223Y-63122412D01*
X168138163Y-63138159D01*
X168142082Y-63148411D01*
X168146440Y-63166849D01*
X168146920Y-63181334D01*
X168140749Y-63192291D01*
X168125159Y-63200143D01*
X168097379Y-63205313D01*
X168054640Y-63208225D01*
X167994172Y-63209302D01*
X167913204Y-63208969D01*
X167808966Y-63207649D01*
X167759418Y-63206929D01*
X167653443Y-63205804D01*
X167549576Y-63205482D01*
X167452944Y-63205921D01*
X167368671Y-63207077D01*
X167301886Y-63208909D01*
X167261416Y-63211064D01*
X167202840Y-63214930D01*
X167151546Y-63216972D01*
X167115801Y-63216911D01*
X167107826Y-63216252D01*
X167086187Y-63208610D01*
X167079635Y-63188542D01*
X167080661Y-63168712D01*
X167082544Y-63151525D01*
X167086823Y-63138026D01*
X167097220Y-63125652D01*
X167117461Y-63111839D01*
X167151269Y-63094024D01*
X167202370Y-63069643D01*
X167270767Y-63037859D01*
X167330387Y-63006227D01*
X167370400Y-62974382D01*
X167393013Y-62945202D01*
X167424411Y-62894706D01*
X167428494Y-61645080D01*
X167429150Y-61406916D01*
X167429471Y-61195105D01*
X167429449Y-61008837D01*
X167429077Y-60847302D01*
X167428349Y-60709690D01*
X167427257Y-60595190D01*
X167425796Y-60502993D01*
X167423958Y-60432288D01*
X167421736Y-60382264D01*
X167419124Y-60352112D01*
X167417561Y-60343851D01*
X167402546Y-60292247D01*
X166944869Y-60296311D01*
X166820749Y-60297489D01*
X166720800Y-60298713D01*
X166642026Y-60300173D01*
X166581433Y-60302058D01*
X166536025Y-60304558D01*
X166502808Y-60307863D01*
X166478786Y-60312162D01*
X166460965Y-60317645D01*
X166446350Y-60324501D01*
X166439659Y-60328297D01*
X166402490Y-60357192D01*
X166369870Y-60399335D01*
X166339433Y-60458820D01*
X166308810Y-60539739D01*
X166297651Y-60573754D01*
X166271624Y-60644581D01*
X166246524Y-60689413D01*
X166221366Y-60709352D01*
X166195162Y-60705503D01*
X166185774Y-60698916D01*
X166174542Y-60683729D01*
X166169636Y-60658118D01*
X166170279Y-60615523D01*
X166172432Y-60585915D01*
X166180547Y-60494704D01*
X166189747Y-60402702D01*
X166199492Y-60314268D01*
X166209246Y-60233759D01*
X166218469Y-60165532D01*
X166226623Y-60113944D01*
X166233170Y-60083355D01*
X166235181Y-60078040D01*
X166238955Y-60074333D01*
X166246937Y-60071051D01*
X166260719Y-60068165D01*
X166281889Y-60065646D01*
X166312039Y-60063464D01*
X166352759Y-60061590D01*
X166405638Y-60059993D01*
X166472268Y-60058646D01*
X166554238Y-60057517D01*
X166653139Y-60056578D01*
X166770561Y-60055798D01*
X166908094Y-60055149D01*
X167067329Y-60054601D01*
X167249855Y-60054124D01*
X167457264Y-60053689D01*
X167555890Y-60053505D01*
X167743097Y-60053158D01*
X167923269Y-60052811D01*
X168094463Y-60052468D01*
X168254736Y-60052134D01*
X168402142Y-60051814D01*
X168534740Y-60051511D01*
X168650584Y-60051231D01*
X168747731Y-60050978D01*
X168824238Y-60050756D01*
X168878160Y-60050570D01*
X168907554Y-60050424D01*
X168911737Y-60050382D01*
X168948812Y-60054287D01*
G37*
G36*
X170095742Y-62876896D02*
G01*
X170100926Y-62891547D01*
X170122041Y-62930692D01*
X170158699Y-62972749D01*
X170202193Y-63008386D01*
X170219653Y-63018804D01*
X170248786Y-63030407D01*
X170296738Y-63045720D01*
X170355844Y-63062402D01*
X170396231Y-63072775D01*
X170477154Y-63094227D01*
X170534285Y-63113424D01*
X170570715Y-63132008D01*
X170589537Y-63151618D01*
X170593844Y-63173896D01*
X170593452Y-63177409D01*
X170589224Y-63207112D01*
X169856883Y-63207277D01*
X169691681Y-63207202D01*
X169551699Y-63206864D01*
X169434990Y-63206218D01*
X169339609Y-63205217D01*
X169263610Y-63203814D01*
X169205048Y-63201963D01*
X169161977Y-63199617D01*
X169132451Y-63196730D01*
X169114525Y-63193255D01*
X169106428Y-63189328D01*
X169088523Y-63159844D01*
X169096635Y-63132844D01*
X169131065Y-63108074D01*
X169192117Y-63085278D01*
X169246312Y-63071378D01*
X169344400Y-63040597D01*
X169418793Y-62997740D01*
X169470416Y-62942210D01*
X169484033Y-62918124D01*
X169505708Y-62881048D01*
X169522623Y-62869737D01*
X169527802Y-62871892D01*
X169572014Y-62893881D01*
X169636139Y-62909947D01*
X169713554Y-62919985D01*
X169797635Y-62923890D01*
X169881760Y-62921557D01*
X169959305Y-62912879D01*
X170023649Y-62897753D01*
X170062047Y-62880378D01*
X170084584Y-62868850D01*
X170095742Y-62876896D01*
G37*
G36*
X169543578Y-60406608D02*
G01*
X169562552Y-60415206D01*
X169590882Y-60430367D01*
X169590882Y-61611123D01*
X169590868Y-61817266D01*
X169590802Y-61997945D01*
X169590647Y-62154861D01*
X169590365Y-62289716D01*
X169589919Y-62404211D01*
X169589271Y-62500048D01*
X169588384Y-62578928D01*
X169587220Y-62642552D01*
X169585743Y-62692623D01*
X169583914Y-62730842D01*
X169581696Y-62758909D01*
X169579052Y-62778527D01*
X169575944Y-62791398D01*
X169572336Y-62799222D01*
X169568188Y-62803701D01*
X169564609Y-62805939D01*
X169540396Y-62817229D01*
X169530652Y-62820000D01*
X169529484Y-62806742D01*
X169528335Y-62768272D01*
X169527220Y-62706540D01*
X169526155Y-62623500D01*
X169525154Y-62521103D01*
X169524233Y-62401304D01*
X169523407Y-62266052D01*
X169522692Y-62117303D01*
X169522103Y-61957007D01*
X169521655Y-61787117D01*
X169521403Y-61641684D01*
X169521135Y-61430649D01*
X169520933Y-61245131D01*
X169520810Y-61083479D01*
X169520776Y-60944046D01*
X169520843Y-60825181D01*
X169521021Y-60725236D01*
X169521324Y-60642561D01*
X169521761Y-60575507D01*
X169522345Y-60522425D01*
X169523086Y-60481665D01*
X169523996Y-60451578D01*
X169525086Y-60430515D01*
X169526368Y-60416828D01*
X169527853Y-60408865D01*
X169529553Y-60404979D01*
X169529923Y-60404541D01*
X169543578Y-60406608D01*
G37*
G36*
X170093448Y-61604963D02*
G01*
X170093337Y-61784034D01*
X170093014Y-61955128D01*
X170092496Y-62116324D01*
X170091798Y-62265702D01*
X170090938Y-62401340D01*
X170089930Y-62521318D01*
X170088790Y-62623714D01*
X170087536Y-62706610D01*
X170086184Y-62768083D01*
X170084748Y-62806212D01*
X170083261Y-62819081D01*
X170064263Y-62812996D01*
X170042513Y-62803422D01*
X170011951Y-62788683D01*
X170012037Y-61612443D01*
X170012123Y-60436203D01*
X170052786Y-60413065D01*
X170093448Y-60389927D01*
X170093448Y-61604963D01*
G37*
G36*
X169693864Y-60448333D02*
G01*
X169726349Y-60455571D01*
X169741404Y-60456577D01*
X169746000Y-60457174D01*
X169750021Y-60460098D01*
X169753506Y-60467047D01*
X169756493Y-60479724D01*
X169759021Y-60499826D01*
X169761127Y-60529055D01*
X169762850Y-60569109D01*
X169764229Y-60621689D01*
X169765301Y-60688495D01*
X169766106Y-60771226D01*
X169766681Y-60871582D01*
X169767065Y-60991264D01*
X169767297Y-61131970D01*
X169767414Y-61295402D01*
X169767455Y-61483258D01*
X169767459Y-61611123D01*
X169767384Y-61822569D01*
X169767147Y-62008283D01*
X169766724Y-62169700D01*
X169766097Y-62308253D01*
X169765242Y-62425376D01*
X169764140Y-62522503D01*
X169762770Y-62601068D01*
X169761109Y-62662504D01*
X169759138Y-62708246D01*
X169756835Y-62739727D01*
X169754179Y-62758381D01*
X169751148Y-62765642D01*
X169750480Y-62765854D01*
X169724276Y-62769359D01*
X169702940Y-62774229D01*
X169672379Y-62782420D01*
X169672379Y-61611254D01*
X169672412Y-61405039D01*
X169672533Y-61224346D01*
X169672771Y-61067529D01*
X169673158Y-60932944D01*
X169673722Y-60818946D01*
X169674495Y-60723890D01*
X169675508Y-60646132D01*
X169676790Y-60584027D01*
X169678372Y-60535930D01*
X169680284Y-60500198D01*
X169682557Y-60475184D01*
X169685220Y-60459245D01*
X169688306Y-60450736D01*
X169691843Y-60448012D01*
X169693864Y-60448333D01*
G37*
G36*
X169930419Y-60456517D02*
G01*
X169931411Y-60471468D01*
X169932277Y-60511589D01*
X169933013Y-60574882D01*
X169933613Y-60659351D01*
X169934071Y-60763000D01*
X169934382Y-60883832D01*
X169934540Y-61019850D01*
X169934539Y-61169059D01*
X169934375Y-61329462D01*
X169934040Y-61499061D01*
X169933698Y-61623404D01*
X169932970Y-61835477D01*
X169932154Y-62021791D01*
X169931224Y-62183752D01*
X169930156Y-62322768D01*
X169928924Y-62440245D01*
X169927505Y-62537590D01*
X169925873Y-62616209D01*
X169924003Y-62677509D01*
X169921870Y-62722897D01*
X169919451Y-62753780D01*
X169916719Y-62771564D01*
X169913650Y-62777655D01*
X169913324Y-62777676D01*
X169885766Y-62772968D01*
X169872726Y-62769888D01*
X169868521Y-62767624D01*
X169864842Y-62762036D01*
X169861653Y-62751423D01*
X169858921Y-62734081D01*
X169856609Y-62708308D01*
X169854683Y-62672400D01*
X169853109Y-62624656D01*
X169851850Y-62563373D01*
X169850873Y-62486847D01*
X169850142Y-62393377D01*
X169849622Y-62281258D01*
X169849278Y-62148789D01*
X169849076Y-61994267D01*
X169848981Y-61815989D01*
X169848956Y-61612252D01*
X169848956Y-61611710D01*
X169848956Y-60459744D01*
X169886275Y-60452611D01*
X169915634Y-60450911D01*
X169930419Y-60456517D01*
G37*
G36*
X170446421Y-60052055D02*
G01*
X170473397Y-60057921D01*
X170485065Y-60070906D01*
X170487352Y-60090163D01*
X170483361Y-60108720D01*
X170468556Y-60123686D01*
X170438689Y-60137112D01*
X170389511Y-60151050D01*
X170335491Y-60163493D01*
X170249768Y-60187483D01*
X170186431Y-60218176D01*
X170140983Y-60258351D01*
X170113823Y-60300495D01*
X170086657Y-60354706D01*
X170037686Y-60330756D01*
X169979868Y-60311999D01*
X169903902Y-60300732D01*
X169817713Y-60296823D01*
X169729229Y-60300139D01*
X169646375Y-60310545D01*
X169577076Y-60327910D01*
X169550426Y-60338941D01*
X169525245Y-60349470D01*
X169511242Y-60344287D01*
X169499416Y-60318778D01*
X169496730Y-60311410D01*
X169473821Y-60271508D01*
X169434405Y-60237159D01*
X169375545Y-60206708D01*
X169294310Y-60178501D01*
X169230205Y-60161108D01*
X169165713Y-60144542D01*
X169123144Y-60132023D01*
X169097978Y-60121385D01*
X169085693Y-60110461D01*
X169081767Y-60097084D01*
X169081523Y-60089840D01*
X169081523Y-60055882D01*
X169706336Y-60053303D01*
X169836638Y-60052771D01*
X169960665Y-60052274D01*
X170075339Y-60051825D01*
X170177581Y-60051435D01*
X170264313Y-60051116D01*
X170332455Y-60050879D01*
X170378930Y-60050736D01*
X170398241Y-60050696D01*
X170446421Y-60052055D01*
G37*
G36*
X173855908Y-59858930D02*
G01*
X173855908Y-59913262D01*
X167308956Y-59913262D01*
X160762005Y-59913262D01*
X160762005Y-59858930D01*
X160762005Y-59804599D01*
X167308956Y-59804599D01*
X173855908Y-59804599D01*
X173855908Y-59858930D01*
G37*
G36*
X161499761Y-58559237D02*
G01*
X161599535Y-58589909D01*
X161652903Y-58616100D01*
X161694099Y-58635265D01*
X161728155Y-58642337D01*
X161735947Y-58641459D01*
X161749641Y-58640016D01*
X161758680Y-58647715D01*
X161764851Y-58669563D01*
X161769943Y-58710566D01*
X161773156Y-58745673D01*
X161777152Y-58812934D01*
X161774791Y-58854168D01*
X161765601Y-58869870D01*
X161749110Y-58860535D01*
X161724847Y-58826657D01*
X161713752Y-58807908D01*
X161647893Y-58715991D01*
X161569784Y-58648182D01*
X161480381Y-58604846D01*
X161380638Y-58586350D01*
X161271511Y-58593061D01*
X161198775Y-58610275D01*
X161120230Y-58647363D01*
X161054375Y-58705759D01*
X161002735Y-58782006D01*
X160966835Y-58872648D01*
X160948200Y-58974227D01*
X160948354Y-59083286D01*
X160958796Y-59154333D01*
X160993031Y-59267711D01*
X161044501Y-59362704D01*
X161111132Y-59437929D01*
X161190851Y-59492005D01*
X161281582Y-59523553D01*
X161381252Y-59531191D01*
X161487787Y-59513537D01*
X161495099Y-59511422D01*
X161592609Y-59471801D01*
X161673643Y-59414118D01*
X161717529Y-59368682D01*
X161745533Y-59338470D01*
X161766474Y-59320477D01*
X161774128Y-59318077D01*
X161775543Y-59334286D01*
X161771439Y-59368121D01*
X161766320Y-59395009D01*
X161745493Y-59456158D01*
X161716358Y-59492314D01*
X161666287Y-59520098D01*
X161595752Y-59543454D01*
X161511248Y-59561294D01*
X161419271Y-59572530D01*
X161326316Y-59576073D01*
X161244197Y-59571455D01*
X161132612Y-59546304D01*
X161034664Y-59498816D01*
X160952421Y-59431234D01*
X160887953Y-59345801D01*
X160843328Y-59244759D01*
X160820617Y-59130351D01*
X160819141Y-59110717D01*
X160824216Y-58990082D01*
X160852613Y-58877698D01*
X160902337Y-58776565D01*
X160971394Y-58689683D01*
X161057789Y-58620050D01*
X161159527Y-58570666D01*
X161183456Y-58562910D01*
X161282672Y-58544712D01*
X161391124Y-58543829D01*
X161499761Y-58559237D01*
G37*
G36*
X168931394Y-58548559D02*
G01*
X169036064Y-58553863D01*
X169121840Y-58570813D01*
X169195411Y-58601924D01*
X169263469Y-58649712D01*
X169306728Y-58689715D01*
X169367904Y-58760095D01*
X169409699Y-58832294D01*
X169434674Y-58913065D01*
X169445392Y-59009161D01*
X169446252Y-59057540D01*
X169439473Y-59165739D01*
X169418474Y-59256067D01*
X169381001Y-59335041D01*
X169324797Y-59409180D01*
X169324400Y-59409623D01*
X169241317Y-59482109D01*
X169141608Y-59534769D01*
X169028186Y-59566649D01*
X168903962Y-59576797D01*
X168827365Y-59572268D01*
X168726780Y-59548220D01*
X168632282Y-59500837D01*
X168549354Y-59433944D01*
X168483479Y-59351366D01*
X168465753Y-59320027D01*
X168432335Y-59230029D01*
X168414689Y-59127505D01*
X168412999Y-59021136D01*
X168414854Y-59008107D01*
X168519233Y-59008107D01*
X168525077Y-59108151D01*
X168548365Y-59206453D01*
X168589382Y-59299032D01*
X168648415Y-59381905D01*
X168684371Y-59418092D01*
X168770504Y-59479374D01*
X168864791Y-59517619D01*
X168962849Y-59531811D01*
X169060291Y-59520933D01*
X169090052Y-59512188D01*
X169171280Y-59471643D01*
X169238038Y-59409579D01*
X169292128Y-59324316D01*
X169292950Y-59322652D01*
X169331038Y-59215760D01*
X169344498Y-59104063D01*
X169334206Y-58992119D01*
X169301036Y-58884484D01*
X169245863Y-58785715D01*
X169174304Y-58704647D01*
X169124950Y-58665327D01*
X169072764Y-58632840D01*
X169038837Y-58617537D01*
X168968425Y-58601603D01*
X168889631Y-58596429D01*
X168813091Y-58601885D01*
X168749435Y-58617842D01*
X168741650Y-58621136D01*
X168664569Y-58670157D01*
X168603501Y-58737347D01*
X168558731Y-58818723D01*
X168530547Y-58910304D01*
X168519233Y-59008107D01*
X168414854Y-59008107D01*
X168427450Y-58919609D01*
X168455455Y-58837320D01*
X168507293Y-58747589D01*
X168570945Y-58677203D01*
X168652694Y-58619818D01*
X168691031Y-58599497D01*
X168740244Y-58575914D01*
X168778479Y-58560964D01*
X168814878Y-58552708D01*
X168858583Y-58549210D01*
X168918735Y-58548532D01*
X168931394Y-58548559D01*
G37*
G36*
X163282309Y-58555517D02*
G01*
X163327981Y-58557518D01*
X163354960Y-58561527D01*
X163367476Y-58568095D01*
X163369919Y-58575348D01*
X163359046Y-58593355D01*
X163349545Y-58595722D01*
X163325442Y-58604713D01*
X163302005Y-58622888D01*
X163294199Y-58631855D01*
X163288049Y-58643422D01*
X163283359Y-58660679D01*
X163279931Y-58686720D01*
X163277569Y-58724638D01*
X163276076Y-58777525D01*
X163275254Y-58848475D01*
X163274907Y-58940580D01*
X163274839Y-59049638D01*
X163275128Y-59152054D01*
X163275944Y-59246313D01*
X163277214Y-59328804D01*
X163278862Y-59395913D01*
X163280813Y-59444028D01*
X163282992Y-59469536D01*
X163283591Y-59472030D01*
X163300635Y-59490666D01*
X163333751Y-59511687D01*
X163352375Y-59520572D01*
X163385925Y-59537370D01*
X163404591Y-59551532D01*
X163406044Y-59556601D01*
X163389895Y-59561827D01*
X163353389Y-59565152D01*
X163302911Y-59566705D01*
X163244842Y-59566614D01*
X163185565Y-59565007D01*
X163131465Y-59562012D01*
X163088923Y-59557758D01*
X163064323Y-59552373D01*
X163060823Y-59549663D01*
X163068239Y-59535353D01*
X163090822Y-59525099D01*
X163118187Y-59515374D01*
X163138104Y-59499374D01*
X163151714Y-59473162D01*
X163160158Y-59432802D01*
X163164576Y-59374359D01*
X163166108Y-59293895D01*
X163166176Y-59265053D01*
X163166176Y-59071123D01*
X162887726Y-59071123D01*
X162609277Y-59071123D01*
X162609277Y-59273203D01*
X162609605Y-59356157D01*
X162611583Y-59416293D01*
X162616708Y-59457960D01*
X162626474Y-59485504D01*
X162642375Y-59503274D01*
X162665907Y-59515618D01*
X162696234Y-59526130D01*
X162729273Y-59539811D01*
X162735403Y-59550747D01*
X162714746Y-59558900D01*
X162667423Y-59564234D01*
X162593556Y-59566712D01*
X162560654Y-59566898D01*
X162495317Y-59566135D01*
X162440432Y-59564051D01*
X162401374Y-59560955D01*
X162383518Y-59557154D01*
X162383082Y-59556711D01*
X162383058Y-59536816D01*
X162401887Y-59522098D01*
X162417813Y-59519358D01*
X162445481Y-59509844D01*
X162464552Y-59494519D01*
X162470975Y-59484898D01*
X162476063Y-59469849D01*
X162479966Y-59446414D01*
X162482837Y-59411638D01*
X162484826Y-59362565D01*
X162486085Y-59296239D01*
X162486764Y-59209704D01*
X162487016Y-59100004D01*
X162487031Y-59055180D01*
X162487009Y-58933735D01*
X162486593Y-58836596D01*
X162485256Y-58760904D01*
X162482474Y-58703800D01*
X162477721Y-58662424D01*
X162470470Y-58633917D01*
X162460197Y-58615420D01*
X162446376Y-58604074D01*
X162428481Y-58597019D01*
X162405987Y-58591396D01*
X162401583Y-58590357D01*
X162377191Y-58580108D01*
X162371823Y-58568158D01*
X162387517Y-58562956D01*
X162423158Y-58559061D01*
X162472422Y-58556496D01*
X162528985Y-58555286D01*
X162586525Y-58555454D01*
X162638719Y-58557023D01*
X162679242Y-58560018D01*
X162701773Y-58564463D01*
X162704357Y-58566908D01*
X162693136Y-58579745D01*
X162665880Y-58594760D01*
X162663436Y-58595793D01*
X162632589Y-58616091D01*
X162615437Y-58641307D01*
X162615366Y-58641586D01*
X162612915Y-58665906D01*
X162611484Y-58711007D01*
X162611176Y-58770520D01*
X162612094Y-58838075D01*
X162612143Y-58840214D01*
X162616069Y-59010000D01*
X162887726Y-59010000D01*
X163159384Y-59010000D01*
X163163318Y-58847005D01*
X163164762Y-58764668D01*
X163163801Y-58705062D01*
X163159380Y-58663787D01*
X163150447Y-58636444D01*
X163135950Y-58618630D01*
X163114836Y-58605947D01*
X163104569Y-58601436D01*
X163070558Y-58584740D01*
X163059521Y-58572163D01*
X163072369Y-58563316D01*
X163110015Y-58557811D01*
X163173368Y-58555262D01*
X163213716Y-58554973D01*
X163282309Y-58555517D01*
G37*
G36*
X164538495Y-58545316D02*
G01*
X164555245Y-58580989D01*
X164579568Y-58636287D01*
X164610264Y-58708388D01*
X164646132Y-58794470D01*
X164685972Y-58891712D01*
X164728583Y-58997291D01*
X164730676Y-59002516D01*
X164773843Y-59109489D01*
X164814713Y-59209171D01*
X164852009Y-59298571D01*
X164884456Y-59374698D01*
X164910781Y-59434563D01*
X164929708Y-59475173D01*
X164939962Y-59493539D01*
X164940030Y-59493615D01*
X164969248Y-59513731D01*
X165008119Y-59527315D01*
X165009113Y-59527507D01*
X165038466Y-59536907D01*
X165050752Y-59548788D01*
X165050513Y-59550785D01*
X165035831Y-59557330D01*
X165000905Y-59562170D01*
X164952023Y-59565297D01*
X164895471Y-59566702D01*
X164837536Y-59566377D01*
X164784505Y-59564312D01*
X164742664Y-59560499D01*
X164718301Y-59554930D01*
X164714624Y-59551248D01*
X164726121Y-59536561D01*
X164754098Y-59521877D01*
X164757093Y-59520794D01*
X164785897Y-59507358D01*
X164794499Y-59489199D01*
X164791990Y-59468530D01*
X164781604Y-59430287D01*
X164764311Y-59379479D01*
X164742964Y-59323196D01*
X164720417Y-59268527D01*
X164699522Y-59222561D01*
X164683133Y-59192388D01*
X164678373Y-59186224D01*
X164663236Y-59177440D01*
X164635716Y-59171494D01*
X164591611Y-59167954D01*
X164526720Y-59166384D01*
X164484250Y-59166203D01*
X164405681Y-59166604D01*
X164348829Y-59169907D01*
X164308246Y-59179263D01*
X164278483Y-59197822D01*
X164254093Y-59228734D01*
X164229627Y-59275151D01*
X164205502Y-59327400D01*
X164176615Y-59397372D01*
X164163682Y-59448511D01*
X164167010Y-59484189D01*
X164186904Y-59507777D01*
X164223194Y-59522525D01*
X164252155Y-59534512D01*
X164263189Y-59548517D01*
X164262858Y-59550328D01*
X164248219Y-59557302D01*
X164214083Y-59562483D01*
X164167278Y-59565800D01*
X164114632Y-59567180D01*
X164062970Y-59566549D01*
X164019121Y-59563837D01*
X163989911Y-59558970D01*
X163981672Y-59553315D01*
X163992502Y-59537865D01*
X164018581Y-59517001D01*
X164025367Y-59512567D01*
X164037931Y-59502567D01*
X164051903Y-59486459D01*
X164068511Y-59461916D01*
X164088985Y-59426614D01*
X164114553Y-59378224D01*
X164146444Y-59314423D01*
X164185886Y-59232885D01*
X164234108Y-59131282D01*
X164249689Y-59098106D01*
X164327435Y-59098106D01*
X164327555Y-59098357D01*
X164343339Y-59103151D01*
X164379414Y-59106644D01*
X164428950Y-59108812D01*
X164485113Y-59109635D01*
X164541073Y-59109090D01*
X164589996Y-59107156D01*
X164625053Y-59103811D01*
X164639260Y-59099355D01*
X164637184Y-59083387D01*
X164626526Y-59048623D01*
X164609461Y-59000494D01*
X164588163Y-58944435D01*
X164564808Y-58885879D01*
X164541571Y-58830259D01*
X164520628Y-58783009D01*
X164504152Y-58749561D01*
X164494321Y-58735348D01*
X164493486Y-58735229D01*
X164483298Y-58748498D01*
X164465250Y-58781209D01*
X164441827Y-58827928D01*
X164415510Y-58883221D01*
X164388783Y-58941654D01*
X164364129Y-58997793D01*
X164344031Y-59046204D01*
X164330972Y-59081453D01*
X164327435Y-59098106D01*
X164249689Y-59098106D01*
X164292339Y-59007290D01*
X164292720Y-59006476D01*
X164342612Y-58900725D01*
X164389330Y-58803295D01*
X164431564Y-58716805D01*
X164468001Y-58643872D01*
X164497328Y-58587111D01*
X164518235Y-58549142D01*
X164529410Y-58532581D01*
X164530520Y-58532090D01*
X164538495Y-58545316D01*
G37*
G36*
X165810262Y-58556359D02*
G01*
X165872566Y-58557330D01*
X165963650Y-58559037D01*
X166032025Y-58560986D01*
X166082144Y-58563709D01*
X166118463Y-58567739D01*
X166145435Y-58573607D01*
X166167515Y-58581846D01*
X166189157Y-58592987D01*
X166194022Y-58595722D01*
X166253776Y-58643495D01*
X166290981Y-58706409D01*
X166305651Y-58784487D01*
X166305898Y-58800299D01*
X166293326Y-58876100D01*
X166259713Y-58945971D01*
X166209445Y-59001827D01*
X166188488Y-59016717D01*
X166158767Y-59037132D01*
X166142118Y-59052541D01*
X166140828Y-59055489D01*
X166147985Y-59069242D01*
X166167888Y-59101866D01*
X166198183Y-59149647D01*
X166236517Y-59208872D01*
X166280053Y-59275103D01*
X166331344Y-59351768D01*
X166371123Y-59408848D01*
X166402256Y-59449805D01*
X166427606Y-59478103D01*
X166450041Y-59497206D01*
X166472425Y-59510576D01*
X166476512Y-59512567D01*
X166510470Y-59530506D01*
X166531249Y-59544987D01*
X166534240Y-59549304D01*
X166523019Y-59561436D01*
X166493095Y-59567861D01*
X166452373Y-59568343D01*
X166408757Y-59562647D01*
X166378303Y-59553951D01*
X166351295Y-59542058D01*
X166326708Y-59526496D01*
X166301876Y-59504096D01*
X166274135Y-59471689D01*
X166240817Y-59426103D01*
X166199258Y-59364170D01*
X166146793Y-59282719D01*
X166136104Y-59265928D01*
X166097112Y-59206265D01*
X166061638Y-59155034D01*
X166032861Y-59116610D01*
X166013962Y-59095364D01*
X166010148Y-59092747D01*
X165977553Y-59086679D01*
X165932232Y-59084992D01*
X165888265Y-59087668D01*
X165863490Y-59092950D01*
X165854435Y-59100358D01*
X165848272Y-59117281D01*
X165844488Y-59148051D01*
X165842571Y-59197002D01*
X165842007Y-59268467D01*
X165842005Y-59274488D01*
X165843504Y-59360838D01*
X165849072Y-59424093D01*
X165860312Y-59468208D01*
X165878829Y-59497143D01*
X165906228Y-59514853D01*
X165943638Y-59525209D01*
X165975097Y-59535186D01*
X165990946Y-59548192D01*
X165991401Y-59550535D01*
X165982929Y-59557761D01*
X165955791Y-59562730D01*
X165907377Y-59565681D01*
X165835078Y-59566854D01*
X165813687Y-59566898D01*
X165747164Y-59566498D01*
X165691105Y-59565403D01*
X165650750Y-59563772D01*
X165631336Y-59561764D01*
X165630452Y-59561357D01*
X165632126Y-59547812D01*
X165647934Y-59530835D01*
X165668158Y-59519993D01*
X165673111Y-59519358D01*
X165693624Y-59509197D01*
X165712197Y-59489170D01*
X165718416Y-59476865D01*
X165723318Y-59457730D01*
X165727049Y-59428768D01*
X165729758Y-59386980D01*
X165731593Y-59329368D01*
X165732703Y-59252934D01*
X165733233Y-59154679D01*
X165733341Y-59060692D01*
X165733341Y-58868649D01*
X165842700Y-58868649D01*
X165843879Y-58928057D01*
X165846404Y-58975893D01*
X165850322Y-59005732D01*
X165852400Y-59011359D01*
X165881789Y-59032526D01*
X165930691Y-59042245D01*
X165993769Y-59040044D01*
X166052003Y-59029092D01*
X166100837Y-59009305D01*
X166143692Y-58979773D01*
X166149073Y-58974525D01*
X166171620Y-58946289D01*
X166184318Y-58914578D01*
X166190682Y-58869201D01*
X166191953Y-58850165D01*
X166188716Y-58772204D01*
X166167492Y-58712144D01*
X166126155Y-58665835D01*
X166084108Y-58639375D01*
X166035731Y-58620552D01*
X165981403Y-58608620D01*
X165928649Y-58604122D01*
X165884989Y-58607599D01*
X165857949Y-58619594D01*
X165855306Y-58622888D01*
X165850478Y-58643787D01*
X165846756Y-58685237D01*
X165844187Y-58740814D01*
X165842819Y-58804093D01*
X165842700Y-58868649D01*
X165733341Y-58868649D01*
X165733341Y-58662401D01*
X165700002Y-58629062D01*
X165669380Y-58606114D01*
X165640413Y-58595769D01*
X165638879Y-58595722D01*
X165615914Y-58586941D01*
X165611095Y-58574309D01*
X165613746Y-58566892D01*
X165624003Y-58561545D01*
X165645325Y-58558042D01*
X165681170Y-58556160D01*
X165734996Y-58555674D01*
X165810262Y-58556359D01*
G37*
G36*
X167335135Y-58556570D02*
G01*
X167391216Y-58561275D01*
X167421646Y-58568957D01*
X167426005Y-58579486D01*
X167403871Y-58592732D01*
X167391186Y-58597502D01*
X167357545Y-58615178D01*
X167335835Y-58637006D01*
X167332134Y-58657428D01*
X167328911Y-58702199D01*
X167326254Y-58768507D01*
X167324248Y-58853538D01*
X167322981Y-58954479D01*
X167322539Y-59068516D01*
X167322539Y-59068567D01*
X167322707Y-59186733D01*
X167323303Y-59280586D01*
X167324465Y-59352977D01*
X167326333Y-59406755D01*
X167329044Y-59444773D01*
X167332737Y-59469879D01*
X167337550Y-59484927D01*
X167343126Y-59492369D01*
X167364984Y-59501032D01*
X167405833Y-59504744D01*
X167469142Y-59503754D01*
X167489142Y-59502788D01*
X167599226Y-59489724D01*
X167690287Y-59463691D01*
X167759986Y-59425479D01*
X167785389Y-59402806D01*
X167809628Y-59380273D01*
X167826733Y-59370007D01*
X167827474Y-59369946D01*
X167838279Y-59379558D01*
X167835217Y-59404525D01*
X167821461Y-59439047D01*
X167800184Y-59477324D01*
X167774561Y-59513556D01*
X167747764Y-59541943D01*
X167725777Y-59555812D01*
X167703025Y-59559284D01*
X167659371Y-59562069D01*
X167599564Y-59564168D01*
X167528357Y-59565580D01*
X167450501Y-59566306D01*
X167370748Y-59566344D01*
X167293849Y-59565697D01*
X167224555Y-59564363D01*
X167167618Y-59562342D01*
X167127790Y-59559635D01*
X167109821Y-59556241D01*
X167109371Y-59555807D01*
X167106425Y-59542964D01*
X167107249Y-59542225D01*
X167121361Y-59534954D01*
X167149386Y-59520571D01*
X167152593Y-59518927D01*
X167183428Y-59495354D01*
X167199790Y-59458986D01*
X167202913Y-59444222D01*
X167206336Y-59411360D01*
X167208988Y-59357952D01*
X167210893Y-59288326D01*
X167212075Y-59206816D01*
X167212559Y-59117752D01*
X167212370Y-59025466D01*
X167211532Y-58934288D01*
X167210069Y-58848551D01*
X167208006Y-58772586D01*
X167205367Y-58710724D01*
X167202178Y-58667296D01*
X167198461Y-58646634D01*
X167198403Y-58646521D01*
X167176871Y-58623966D01*
X167142617Y-58603172D01*
X167138077Y-58601181D01*
X167104521Y-58584724D01*
X167093565Y-58572303D01*
X167106188Y-58563528D01*
X167143367Y-58558008D01*
X167206081Y-58555354D01*
X167253823Y-58554973D01*
X167335135Y-58556570D01*
G37*
G36*
X170587754Y-58555074D02*
G01*
X170684931Y-58555359D01*
X170769722Y-58555805D01*
X170838925Y-58556386D01*
X170889338Y-58557078D01*
X170917759Y-58557857D01*
X170922932Y-58558369D01*
X170924380Y-58572548D01*
X170927302Y-58606566D01*
X170931078Y-58653178D01*
X170931229Y-58655083D01*
X170934191Y-58705027D01*
X170932793Y-58732699D01*
X170926445Y-58742732D01*
X170920114Y-58742246D01*
X170902383Y-58725117D01*
X170896832Y-58710051D01*
X170888214Y-58680193D01*
X170872314Y-58659561D01*
X170844709Y-58646526D01*
X170800976Y-58639456D01*
X170736691Y-58636722D01*
X170697235Y-58636471D01*
X170629397Y-58637020D01*
X170583993Y-58639106D01*
X170556305Y-58643387D01*
X170541615Y-58650522D01*
X170535959Y-58658963D01*
X170533628Y-58678524D01*
X170531772Y-58720926D01*
X170530378Y-58781850D01*
X170529438Y-58856977D01*
X170528942Y-58941988D01*
X170528877Y-59032563D01*
X170529236Y-59124381D01*
X170530007Y-59213125D01*
X170531180Y-59294473D01*
X170532745Y-59364108D01*
X170534692Y-59417708D01*
X170537010Y-59450955D01*
X170537848Y-59456693D01*
X170551073Y-59487393D01*
X170580986Y-59509135D01*
X170597953Y-59516481D01*
X170635752Y-59533698D01*
X170650255Y-59546935D01*
X170640676Y-59556529D01*
X170606226Y-59562820D01*
X170546118Y-59566146D01*
X170480561Y-59566898D01*
X170406993Y-59565852D01*
X170352302Y-59562871D01*
X170319428Y-59558189D01*
X170310811Y-59553315D01*
X170321761Y-59539094D01*
X170349177Y-59519681D01*
X170361747Y-59512546D01*
X170412646Y-59485359D01*
X170416236Y-59060482D01*
X170419826Y-58635605D01*
X170260033Y-58639434D01*
X170100240Y-58643262D01*
X170069185Y-58708277D01*
X170047052Y-58746635D01*
X170029274Y-58763246D01*
X170018552Y-58757438D01*
X170017587Y-58728541D01*
X170018658Y-58720837D01*
X170023976Y-58684417D01*
X170030389Y-58636917D01*
X170032628Y-58619492D01*
X170040781Y-58554973D01*
X170481393Y-58554973D01*
X170587754Y-58555074D01*
G37*
G36*
X171952780Y-58558186D02*
G01*
X172395748Y-58561765D01*
X172399795Y-58654798D01*
X172400806Y-58705485D01*
X172397887Y-58733355D01*
X172390392Y-58742557D01*
X172386212Y-58742023D01*
X172370993Y-58725467D01*
X172364226Y-58703321D01*
X172357227Y-58676561D01*
X172341746Y-58657895D01*
X172313632Y-58645949D01*
X172268734Y-58639350D01*
X172202901Y-58636723D01*
X172162243Y-58636471D01*
X172008636Y-58636471D01*
X172008844Y-59054144D01*
X172009209Y-59158438D01*
X172010145Y-59254215D01*
X172011571Y-59338033D01*
X172013405Y-59406449D01*
X172015566Y-59456019D01*
X172017974Y-59483300D01*
X172019031Y-59487270D01*
X172037114Y-59501890D01*
X172070094Y-59519552D01*
X172082031Y-59524801D01*
X172112250Y-59540177D01*
X172126105Y-59552977D01*
X172125521Y-59556412D01*
X172108240Y-59561040D01*
X172071255Y-59564230D01*
X172020751Y-59566036D01*
X171962917Y-59566514D01*
X171903940Y-59565718D01*
X171850006Y-59563705D01*
X171807304Y-59560528D01*
X171782021Y-59556244D01*
X171777775Y-59553315D01*
X171788717Y-59539095D01*
X171816128Y-59519682D01*
X171828699Y-59512546D01*
X171879598Y-59485359D01*
X171883187Y-59060915D01*
X171886777Y-58636471D01*
X171740567Y-58636679D01*
X171678589Y-58637896D01*
X171625592Y-58641026D01*
X171588177Y-58645555D01*
X171574280Y-58649582D01*
X171556252Y-58670663D01*
X171540050Y-58704357D01*
X171539387Y-58706282D01*
X171524991Y-58737665D01*
X171509792Y-58755099D01*
X171508529Y-58755633D01*
X171496767Y-58747880D01*
X171492744Y-58714452D01*
X171496479Y-58655723D01*
X171501149Y-58617809D01*
X171509811Y-58554607D01*
X171952780Y-58558186D01*
G37*
G36*
X173648697Y-58644515D02*
G01*
X173642908Y-58692655D01*
X173634848Y-58730436D01*
X173626908Y-58748658D01*
X173616397Y-58755532D01*
X173608233Y-58748033D01*
X173599816Y-58721628D01*
X173592016Y-58687798D01*
X173581942Y-58661190D01*
X173562517Y-58642344D01*
X173529631Y-58629924D01*
X173479174Y-58622590D01*
X173407038Y-58619006D01*
X173378973Y-58618436D01*
X173310260Y-58618091D01*
X173264019Y-58619965D01*
X173235611Y-58624573D01*
X173220397Y-58632433D01*
X173217050Y-58636471D01*
X173212358Y-58657197D01*
X173208952Y-58699228D01*
X173207121Y-58756721D01*
X173207153Y-58823831D01*
X173207318Y-58833422D01*
X173210721Y-59010000D01*
X173336305Y-59013905D01*
X173410386Y-59014318D01*
X173462388Y-59009092D01*
X173497100Y-58996610D01*
X173519308Y-58975260D01*
X173532321Y-58947825D01*
X173546228Y-58916323D01*
X173556945Y-58911021D01*
X173564544Y-58932118D01*
X173569094Y-58979815D01*
X173570666Y-59054315D01*
X173570668Y-59057540D01*
X173569446Y-59127249D01*
X173565950Y-59176690D01*
X173560431Y-59203160D01*
X173556745Y-59206952D01*
X173544575Y-59195215D01*
X173534830Y-59166987D01*
X173534812Y-59166897D01*
X173524440Y-59131654D01*
X173506890Y-59108001D01*
X173477491Y-59093990D01*
X173431577Y-59087671D01*
X173364480Y-59087095D01*
X173344914Y-59087588D01*
X173210721Y-59091497D01*
X173206951Y-59276917D01*
X173205588Y-59361640D01*
X173207255Y-59422847D01*
X173214630Y-59464184D01*
X173230388Y-59489298D01*
X173257206Y-59501838D01*
X173297761Y-59505449D01*
X173354728Y-59503779D01*
X173372802Y-59502918D01*
X173482046Y-59490192D01*
X173572819Y-59463815D01*
X173642634Y-59424633D01*
X173666779Y-59402806D01*
X173696008Y-59376312D01*
X173713115Y-59373162D01*
X173719825Y-59393324D01*
X173720079Y-59401866D01*
X173711801Y-59431289D01*
X173690976Y-59471115D01*
X173663619Y-59511908D01*
X173635745Y-59544235D01*
X173622501Y-59554909D01*
X173604476Y-59558106D01*
X173564586Y-59560817D01*
X173507523Y-59563018D01*
X173437976Y-59564686D01*
X173360639Y-59565799D01*
X173280203Y-59566332D01*
X173201358Y-59566262D01*
X173128797Y-59565567D01*
X173067211Y-59564222D01*
X173021291Y-59562205D01*
X172995729Y-59559492D01*
X172992119Y-59558041D01*
X172999080Y-59546384D01*
X173023118Y-59527983D01*
X173033725Y-59521405D01*
X173066157Y-59495859D01*
X173086719Y-59467875D01*
X173088653Y-59462348D01*
X173090543Y-59441021D01*
X173091990Y-59396303D01*
X173092959Y-59331963D01*
X173093415Y-59251772D01*
X173093325Y-59159502D01*
X173092654Y-59058922D01*
X173092487Y-59041965D01*
X173091194Y-58928125D01*
X173089787Y-58838322D01*
X173088045Y-58769427D01*
X173085751Y-58718311D01*
X173082684Y-58681845D01*
X173078626Y-58656901D01*
X173073357Y-58640349D01*
X173066659Y-58629062D01*
X173063287Y-58625050D01*
X173034171Y-58602400D01*
X173010019Y-58593085D01*
X172984685Y-58582460D01*
X172976348Y-58571952D01*
X172980187Y-58566523D01*
X172997363Y-58562306D01*
X173030365Y-58559176D01*
X173081679Y-58557009D01*
X173153795Y-58555677D01*
X173249199Y-58555057D01*
X173313321Y-58554973D01*
X173655884Y-58554973D01*
X173648697Y-58644515D01*
G37*
G04 #@! TO.C,RV1*
D13*
X184140000Y-67390000D02*
X185520000Y-67390000D01*
X184140000Y-72610000D02*
X184140000Y-67390000D01*
X184720000Y-72610000D02*
X184140000Y-72610000D01*
X187020000Y-72610000D02*
X186480000Y-72610000D01*
X187980000Y-67390000D02*
X189360000Y-67390000D01*
X189360000Y-67390000D02*
X189360000Y-72610000D01*
X189360000Y-72610000D02*
X188780000Y-72610000D01*
G04 #@! TO.C,C1*
X172590000Y-67961252D02*
X172590000Y-66538748D01*
X174410000Y-67961252D02*
X174410000Y-66538748D01*
G04 #@! TO.C,R3*
X191890000Y-64977064D02*
X191890000Y-63522936D01*
X193710000Y-64977064D02*
X193710000Y-63522936D01*
G04 #@! TO.C,R2*
X183977064Y-64090000D02*
X182522936Y-64090000D01*
X183977064Y-65910000D02*
X182522936Y-65910000D01*
G04 #@! TO.C,U1*
X176940000Y-67190000D02*
X181060000Y-67190000D01*
X176940000Y-67285000D02*
X176940000Y-67190000D01*
X176940000Y-72310000D02*
X176940000Y-72215000D01*
X181060000Y-67190000D02*
X181060000Y-67285000D01*
X181060000Y-72215000D02*
X181060000Y-72310000D01*
X181060000Y-72310000D02*
X176940000Y-72310000D01*
X176400000Y-67280000D02*
X176160000Y-66950000D01*
X176640000Y-66950000D01*
X176400000Y-67280000D01*
G36*
X176400000Y-67280000D02*
G01*
X176160000Y-66950000D01*
X176640000Y-66950000D01*
X176400000Y-67280000D01*
G37*
G04 #@! TO.C,D2*
X191615000Y-67715000D02*
X191615000Y-71600000D01*
X193885000Y-67715000D02*
X191615000Y-67715000D01*
X193885000Y-71600000D02*
X193885000Y-67715000D01*
G04 #@! TO.C,D1*
X167865000Y-69965000D02*
X167865000Y-73850000D01*
X170135000Y-69965000D02*
X167865000Y-69965000D01*
X170135000Y-73850000D02*
X170135000Y-69965000D01*
G04 #@! TO.C,R1*
X168090000Y-67977064D02*
X168090000Y-66522936D01*
X169910000Y-67977064D02*
X169910000Y-66522936D01*
G04 #@! TO.C,J2*
X160850000Y-70380000D02*
X160850000Y-67620000D01*
X160850000Y-70380000D02*
X161420000Y-70380000D01*
X161420000Y-67620000D02*
X163960000Y-67620000D01*
X161420000Y-70380000D02*
X161420000Y-71850000D01*
X163040000Y-70380000D02*
X166150000Y-70380000D01*
X165580000Y-67620000D02*
X166150000Y-67620000D01*
X166150000Y-70380000D02*
X166150000Y-67620000D01*
G04 #@! TD*
M02*
