G04 #@! TF.GenerationSoftware,KiCad,Pcbnew,10.0.3*
G04 #@! TF.CreationDate,2026-07-16T12:48:17-04:00*
G04 #@! TF.ProjectId,MultiplexerBoard,4d756c74-6970-46c6-9578-6572426f6172,rev?*
G04 #@! TF.SameCoordinates,Original*
G04 #@! TF.FileFunction,Legend,Top*
G04 #@! TF.FilePolarity,Positive*
%FSLAX46Y46*%
G04 Gerber Fmt 4.6, Leading zero omitted, Abs format (unit mm)*
G04 Created by KiCad (PCBNEW 10.0.3) date 2026-07-16 12:48:17*
%MOMM*%
%LPD*%
G01*
G04 APERTURE LIST*
%ADD10C,0.250000*%
%ADD11C,0.150000*%
%ADD12C,0.000000*%
%ADD13C,0.120000*%
%ADD14C,0.127000*%
%ADD15C,0.200000*%
G04 APERTURE END LIST*
D10*
X162095237Y-114949619D02*
X162095237Y-113949619D01*
X162095237Y-113949619D02*
X162428570Y-114663904D01*
X162428570Y-114663904D02*
X162761903Y-113949619D01*
X162761903Y-113949619D02*
X162761903Y-114949619D01*
X163666665Y-114282952D02*
X163666665Y-114949619D01*
X163238094Y-114282952D02*
X163238094Y-114806761D01*
X163238094Y-114806761D02*
X163285713Y-114902000D01*
X163285713Y-114902000D02*
X163380951Y-114949619D01*
X163380951Y-114949619D02*
X163523808Y-114949619D01*
X163523808Y-114949619D02*
X163619046Y-114902000D01*
X163619046Y-114902000D02*
X163666665Y-114854380D01*
X164285713Y-114949619D02*
X164190475Y-114902000D01*
X164190475Y-114902000D02*
X164142856Y-114806761D01*
X164142856Y-114806761D02*
X164142856Y-113949619D01*
X164523809Y-114282952D02*
X164904761Y-114282952D01*
X164666666Y-113949619D02*
X164666666Y-114806761D01*
X164666666Y-114806761D02*
X164714285Y-114902000D01*
X164714285Y-114902000D02*
X164809523Y-114949619D01*
X164809523Y-114949619D02*
X164904761Y-114949619D01*
X165238095Y-114949619D02*
X165238095Y-114282952D01*
X165238095Y-113949619D02*
X165190476Y-113997238D01*
X165190476Y-113997238D02*
X165238095Y-114044857D01*
X165238095Y-114044857D02*
X165285714Y-113997238D01*
X165285714Y-113997238D02*
X165238095Y-113949619D01*
X165238095Y-113949619D02*
X165238095Y-114044857D01*
X165714285Y-114282952D02*
X165714285Y-115282952D01*
X165714285Y-114330571D02*
X165809523Y-114282952D01*
X165809523Y-114282952D02*
X165999999Y-114282952D01*
X165999999Y-114282952D02*
X166095237Y-114330571D01*
X166095237Y-114330571D02*
X166142856Y-114378190D01*
X166142856Y-114378190D02*
X166190475Y-114473428D01*
X166190475Y-114473428D02*
X166190475Y-114759142D01*
X166190475Y-114759142D02*
X166142856Y-114854380D01*
X166142856Y-114854380D02*
X166095237Y-114902000D01*
X166095237Y-114902000D02*
X165999999Y-114949619D01*
X165999999Y-114949619D02*
X165809523Y-114949619D01*
X165809523Y-114949619D02*
X165714285Y-114902000D01*
X166761904Y-114949619D02*
X166666666Y-114902000D01*
X166666666Y-114902000D02*
X166619047Y-114806761D01*
X166619047Y-114806761D02*
X166619047Y-113949619D01*
X167523809Y-114902000D02*
X167428571Y-114949619D01*
X167428571Y-114949619D02*
X167238095Y-114949619D01*
X167238095Y-114949619D02*
X167142857Y-114902000D01*
X167142857Y-114902000D02*
X167095238Y-114806761D01*
X167095238Y-114806761D02*
X167095238Y-114425809D01*
X167095238Y-114425809D02*
X167142857Y-114330571D01*
X167142857Y-114330571D02*
X167238095Y-114282952D01*
X167238095Y-114282952D02*
X167428571Y-114282952D01*
X167428571Y-114282952D02*
X167523809Y-114330571D01*
X167523809Y-114330571D02*
X167571428Y-114425809D01*
X167571428Y-114425809D02*
X167571428Y-114521047D01*
X167571428Y-114521047D02*
X167095238Y-114616285D01*
X167904762Y-114949619D02*
X168428571Y-114282952D01*
X167904762Y-114282952D02*
X168428571Y-114949619D01*
X169190476Y-114902000D02*
X169095238Y-114949619D01*
X169095238Y-114949619D02*
X168904762Y-114949619D01*
X168904762Y-114949619D02*
X168809524Y-114902000D01*
X168809524Y-114902000D02*
X168761905Y-114806761D01*
X168761905Y-114806761D02*
X168761905Y-114425809D01*
X168761905Y-114425809D02*
X168809524Y-114330571D01*
X168809524Y-114330571D02*
X168904762Y-114282952D01*
X168904762Y-114282952D02*
X169095238Y-114282952D01*
X169095238Y-114282952D02*
X169190476Y-114330571D01*
X169190476Y-114330571D02*
X169238095Y-114425809D01*
X169238095Y-114425809D02*
X169238095Y-114521047D01*
X169238095Y-114521047D02*
X168761905Y-114616285D01*
X169666667Y-114949619D02*
X169666667Y-114282952D01*
X169666667Y-114473428D02*
X169714286Y-114378190D01*
X169714286Y-114378190D02*
X169761905Y-114330571D01*
X169761905Y-114330571D02*
X169857143Y-114282952D01*
X169857143Y-114282952D02*
X169952381Y-114282952D01*
X171380953Y-114425809D02*
X171523810Y-114473428D01*
X171523810Y-114473428D02*
X171571429Y-114521047D01*
X171571429Y-114521047D02*
X171619048Y-114616285D01*
X171619048Y-114616285D02*
X171619048Y-114759142D01*
X171619048Y-114759142D02*
X171571429Y-114854380D01*
X171571429Y-114854380D02*
X171523810Y-114902000D01*
X171523810Y-114902000D02*
X171428572Y-114949619D01*
X171428572Y-114949619D02*
X171047620Y-114949619D01*
X171047620Y-114949619D02*
X171047620Y-113949619D01*
X171047620Y-113949619D02*
X171380953Y-113949619D01*
X171380953Y-113949619D02*
X171476191Y-113997238D01*
X171476191Y-113997238D02*
X171523810Y-114044857D01*
X171523810Y-114044857D02*
X171571429Y-114140095D01*
X171571429Y-114140095D02*
X171571429Y-114235333D01*
X171571429Y-114235333D02*
X171523810Y-114330571D01*
X171523810Y-114330571D02*
X171476191Y-114378190D01*
X171476191Y-114378190D02*
X171380953Y-114425809D01*
X171380953Y-114425809D02*
X171047620Y-114425809D01*
X172190477Y-114949619D02*
X172095239Y-114902000D01*
X172095239Y-114902000D02*
X172047620Y-114854380D01*
X172047620Y-114854380D02*
X172000001Y-114759142D01*
X172000001Y-114759142D02*
X172000001Y-114473428D01*
X172000001Y-114473428D02*
X172047620Y-114378190D01*
X172047620Y-114378190D02*
X172095239Y-114330571D01*
X172095239Y-114330571D02*
X172190477Y-114282952D01*
X172190477Y-114282952D02*
X172333334Y-114282952D01*
X172333334Y-114282952D02*
X172428572Y-114330571D01*
X172428572Y-114330571D02*
X172476191Y-114378190D01*
X172476191Y-114378190D02*
X172523810Y-114473428D01*
X172523810Y-114473428D02*
X172523810Y-114759142D01*
X172523810Y-114759142D02*
X172476191Y-114854380D01*
X172476191Y-114854380D02*
X172428572Y-114902000D01*
X172428572Y-114902000D02*
X172333334Y-114949619D01*
X172333334Y-114949619D02*
X172190477Y-114949619D01*
X173380953Y-114949619D02*
X173380953Y-114425809D01*
X173380953Y-114425809D02*
X173333334Y-114330571D01*
X173333334Y-114330571D02*
X173238096Y-114282952D01*
X173238096Y-114282952D02*
X173047620Y-114282952D01*
X173047620Y-114282952D02*
X172952382Y-114330571D01*
X173380953Y-114902000D02*
X173285715Y-114949619D01*
X173285715Y-114949619D02*
X173047620Y-114949619D01*
X173047620Y-114949619D02*
X172952382Y-114902000D01*
X172952382Y-114902000D02*
X172904763Y-114806761D01*
X172904763Y-114806761D02*
X172904763Y-114711523D01*
X172904763Y-114711523D02*
X172952382Y-114616285D01*
X172952382Y-114616285D02*
X173047620Y-114568666D01*
X173047620Y-114568666D02*
X173285715Y-114568666D01*
X173285715Y-114568666D02*
X173380953Y-114521047D01*
X173857144Y-114949619D02*
X173857144Y-114282952D01*
X173857144Y-114473428D02*
X173904763Y-114378190D01*
X173904763Y-114378190D02*
X173952382Y-114330571D01*
X173952382Y-114330571D02*
X174047620Y-114282952D01*
X174047620Y-114282952D02*
X174142858Y-114282952D01*
X174904763Y-114949619D02*
X174904763Y-113949619D01*
X174904763Y-114902000D02*
X174809525Y-114949619D01*
X174809525Y-114949619D02*
X174619049Y-114949619D01*
X174619049Y-114949619D02*
X174523811Y-114902000D01*
X174523811Y-114902000D02*
X174476192Y-114854380D01*
X174476192Y-114854380D02*
X174428573Y-114759142D01*
X174428573Y-114759142D02*
X174428573Y-114473428D01*
X174428573Y-114473428D02*
X174476192Y-114378190D01*
X174476192Y-114378190D02*
X174523811Y-114330571D01*
X174523811Y-114330571D02*
X174619049Y-114282952D01*
X174619049Y-114282952D02*
X174809525Y-114282952D01*
X174809525Y-114282952D02*
X174904763Y-114330571D01*
X185093044Y-131449619D02*
X185283520Y-131449619D01*
X185283520Y-131449619D02*
X185378758Y-131497238D01*
X185378758Y-131497238D02*
X185473996Y-131592476D01*
X185473996Y-131592476D02*
X185521615Y-131782952D01*
X185521615Y-131782952D02*
X185521615Y-132116285D01*
X185521615Y-132116285D02*
X185473996Y-132306761D01*
X185473996Y-132306761D02*
X185378758Y-132402000D01*
X185378758Y-132402000D02*
X185283520Y-132449619D01*
X185283520Y-132449619D02*
X185093044Y-132449619D01*
X185093044Y-132449619D02*
X184997806Y-132402000D01*
X184997806Y-132402000D02*
X184902568Y-132306761D01*
X184902568Y-132306761D02*
X184854949Y-132116285D01*
X184854949Y-132116285D02*
X184854949Y-131782952D01*
X184854949Y-131782952D02*
X184902568Y-131592476D01*
X184902568Y-131592476D02*
X184997806Y-131497238D01*
X184997806Y-131497238D02*
X185093044Y-131449619D01*
X185950187Y-131449619D02*
X185950187Y-132259142D01*
X185950187Y-132259142D02*
X185997806Y-132354380D01*
X185997806Y-132354380D02*
X186045425Y-132402000D01*
X186045425Y-132402000D02*
X186140663Y-132449619D01*
X186140663Y-132449619D02*
X186331139Y-132449619D01*
X186331139Y-132449619D02*
X186426377Y-132402000D01*
X186426377Y-132402000D02*
X186473996Y-132354380D01*
X186473996Y-132354380D02*
X186521615Y-132259142D01*
X186521615Y-132259142D02*
X186521615Y-131449619D01*
X186854949Y-131449619D02*
X187426377Y-131449619D01*
X187140663Y-132449619D02*
X187140663Y-131449619D01*
X184902568Y-129425809D02*
X185235901Y-129425809D01*
X185378758Y-129949619D02*
X184902568Y-129949619D01*
X184902568Y-129949619D02*
X184902568Y-128949619D01*
X184902568Y-128949619D02*
X185378758Y-128949619D01*
X185807330Y-129949619D02*
X185807330Y-128949619D01*
X185807330Y-128949619D02*
X186378758Y-129949619D01*
X186378758Y-129949619D02*
X186378758Y-128949619D01*
X186807330Y-129663904D02*
X187283520Y-129663904D01*
X186712092Y-129949619D02*
X187045425Y-128949619D01*
X187045425Y-128949619D02*
X187378758Y-129949619D01*
X185426377Y-126497238D02*
X185331139Y-126449619D01*
X185331139Y-126449619D02*
X185188282Y-126449619D01*
X185188282Y-126449619D02*
X185045425Y-126497238D01*
X185045425Y-126497238D02*
X184950187Y-126592476D01*
X184950187Y-126592476D02*
X184902568Y-126687714D01*
X184902568Y-126687714D02*
X184854949Y-126878190D01*
X184854949Y-126878190D02*
X184854949Y-127021047D01*
X184854949Y-127021047D02*
X184902568Y-127211523D01*
X184902568Y-127211523D02*
X184950187Y-127306761D01*
X184950187Y-127306761D02*
X185045425Y-127402000D01*
X185045425Y-127402000D02*
X185188282Y-127449619D01*
X185188282Y-127449619D02*
X185283520Y-127449619D01*
X185283520Y-127449619D02*
X185426377Y-127402000D01*
X185426377Y-127402000D02*
X185473996Y-127354380D01*
X185473996Y-127354380D02*
X185473996Y-127021047D01*
X185473996Y-127021047D02*
X185283520Y-127021047D01*
X185902568Y-127449619D02*
X185902568Y-126449619D01*
X185902568Y-126449619D02*
X186473996Y-127449619D01*
X186473996Y-127449619D02*
X186473996Y-126449619D01*
X186950187Y-127449619D02*
X186950187Y-126449619D01*
X186950187Y-126449619D02*
X187188282Y-126449619D01*
X187188282Y-126449619D02*
X187331139Y-126497238D01*
X187331139Y-126497238D02*
X187426377Y-126592476D01*
X187426377Y-126592476D02*
X187473996Y-126687714D01*
X187473996Y-126687714D02*
X187521615Y-126878190D01*
X187521615Y-126878190D02*
X187521615Y-127021047D01*
X187521615Y-127021047D02*
X187473996Y-127211523D01*
X187473996Y-127211523D02*
X187426377Y-127306761D01*
X187426377Y-127306761D02*
X187331139Y-127402000D01*
X187331139Y-127402000D02*
X187188282Y-127449619D01*
X187188282Y-127449619D02*
X186950187Y-127449619D01*
X184854949Y-124902000D02*
X184997806Y-124949619D01*
X184997806Y-124949619D02*
X185235901Y-124949619D01*
X185235901Y-124949619D02*
X185331139Y-124902000D01*
X185331139Y-124902000D02*
X185378758Y-124854380D01*
X185378758Y-124854380D02*
X185426377Y-124759142D01*
X185426377Y-124759142D02*
X185426377Y-124663904D01*
X185426377Y-124663904D02*
X185378758Y-124568666D01*
X185378758Y-124568666D02*
X185331139Y-124521047D01*
X185331139Y-124521047D02*
X185235901Y-124473428D01*
X185235901Y-124473428D02*
X185045425Y-124425809D01*
X185045425Y-124425809D02*
X184950187Y-124378190D01*
X184950187Y-124378190D02*
X184902568Y-124330571D01*
X184902568Y-124330571D02*
X184854949Y-124235333D01*
X184854949Y-124235333D02*
X184854949Y-124140095D01*
X184854949Y-124140095D02*
X184902568Y-124044857D01*
X184902568Y-124044857D02*
X184950187Y-123997238D01*
X184950187Y-123997238D02*
X185045425Y-123949619D01*
X185045425Y-123949619D02*
X185283520Y-123949619D01*
X185283520Y-123949619D02*
X185426377Y-123997238D01*
X185807330Y-124044857D02*
X185854949Y-123997238D01*
X185854949Y-123997238D02*
X185950187Y-123949619D01*
X185950187Y-123949619D02*
X186188282Y-123949619D01*
X186188282Y-123949619D02*
X186283520Y-123997238D01*
X186283520Y-123997238D02*
X186331139Y-124044857D01*
X186331139Y-124044857D02*
X186378758Y-124140095D01*
X186378758Y-124140095D02*
X186378758Y-124235333D01*
X186378758Y-124235333D02*
X186331139Y-124378190D01*
X186331139Y-124378190D02*
X185759711Y-124949619D01*
X185759711Y-124949619D02*
X186378758Y-124949619D01*
X184854949Y-122402000D02*
X184997806Y-122449619D01*
X184997806Y-122449619D02*
X185235901Y-122449619D01*
X185235901Y-122449619D02*
X185331139Y-122402000D01*
X185331139Y-122402000D02*
X185378758Y-122354380D01*
X185378758Y-122354380D02*
X185426377Y-122259142D01*
X185426377Y-122259142D02*
X185426377Y-122163904D01*
X185426377Y-122163904D02*
X185378758Y-122068666D01*
X185378758Y-122068666D02*
X185331139Y-122021047D01*
X185331139Y-122021047D02*
X185235901Y-121973428D01*
X185235901Y-121973428D02*
X185045425Y-121925809D01*
X185045425Y-121925809D02*
X184950187Y-121878190D01*
X184950187Y-121878190D02*
X184902568Y-121830571D01*
X184902568Y-121830571D02*
X184854949Y-121735333D01*
X184854949Y-121735333D02*
X184854949Y-121640095D01*
X184854949Y-121640095D02*
X184902568Y-121544857D01*
X184902568Y-121544857D02*
X184950187Y-121497238D01*
X184950187Y-121497238D02*
X185045425Y-121449619D01*
X185045425Y-121449619D02*
X185283520Y-121449619D01*
X185283520Y-121449619D02*
X185426377Y-121497238D01*
X186378758Y-122449619D02*
X185807330Y-122449619D01*
X186093044Y-122449619D02*
X186093044Y-121449619D01*
X186093044Y-121449619D02*
X185997806Y-121592476D01*
X185997806Y-121592476D02*
X185902568Y-121687714D01*
X185902568Y-121687714D02*
X185807330Y-121735333D01*
X184854949Y-119902000D02*
X184997806Y-119949619D01*
X184997806Y-119949619D02*
X185235901Y-119949619D01*
X185235901Y-119949619D02*
X185331139Y-119902000D01*
X185331139Y-119902000D02*
X185378758Y-119854380D01*
X185378758Y-119854380D02*
X185426377Y-119759142D01*
X185426377Y-119759142D02*
X185426377Y-119663904D01*
X185426377Y-119663904D02*
X185378758Y-119568666D01*
X185378758Y-119568666D02*
X185331139Y-119521047D01*
X185331139Y-119521047D02*
X185235901Y-119473428D01*
X185235901Y-119473428D02*
X185045425Y-119425809D01*
X185045425Y-119425809D02*
X184950187Y-119378190D01*
X184950187Y-119378190D02*
X184902568Y-119330571D01*
X184902568Y-119330571D02*
X184854949Y-119235333D01*
X184854949Y-119235333D02*
X184854949Y-119140095D01*
X184854949Y-119140095D02*
X184902568Y-119044857D01*
X184902568Y-119044857D02*
X184950187Y-118997238D01*
X184950187Y-118997238D02*
X185045425Y-118949619D01*
X185045425Y-118949619D02*
X185283520Y-118949619D01*
X185283520Y-118949619D02*
X185426377Y-118997238D01*
X186045425Y-118949619D02*
X186140663Y-118949619D01*
X186140663Y-118949619D02*
X186235901Y-118997238D01*
X186235901Y-118997238D02*
X186283520Y-119044857D01*
X186283520Y-119044857D02*
X186331139Y-119140095D01*
X186331139Y-119140095D02*
X186378758Y-119330571D01*
X186378758Y-119330571D02*
X186378758Y-119568666D01*
X186378758Y-119568666D02*
X186331139Y-119759142D01*
X186331139Y-119759142D02*
X186283520Y-119854380D01*
X186283520Y-119854380D02*
X186235901Y-119902000D01*
X186235901Y-119902000D02*
X186140663Y-119949619D01*
X186140663Y-119949619D02*
X186045425Y-119949619D01*
X186045425Y-119949619D02*
X185950187Y-119902000D01*
X185950187Y-119902000D02*
X185902568Y-119854380D01*
X185902568Y-119854380D02*
X185854949Y-119759142D01*
X185854949Y-119759142D02*
X185807330Y-119568666D01*
X185807330Y-119568666D02*
X185807330Y-119330571D01*
X185807330Y-119330571D02*
X185854949Y-119140095D01*
X185854949Y-119140095D02*
X185902568Y-119044857D01*
X185902568Y-119044857D02*
X185950187Y-118997238D01*
X185950187Y-118997238D02*
X186045425Y-118949619D01*
X185378758Y-116449619D02*
X184902568Y-116449619D01*
X184902568Y-116449619D02*
X184854949Y-116925809D01*
X184854949Y-116925809D02*
X184902568Y-116878190D01*
X184902568Y-116878190D02*
X184997806Y-116830571D01*
X184997806Y-116830571D02*
X185235901Y-116830571D01*
X185235901Y-116830571D02*
X185331139Y-116878190D01*
X185331139Y-116878190D02*
X185378758Y-116925809D01*
X185378758Y-116925809D02*
X185426377Y-117021047D01*
X185426377Y-117021047D02*
X185426377Y-117259142D01*
X185426377Y-117259142D02*
X185378758Y-117354380D01*
X185378758Y-117354380D02*
X185331139Y-117402000D01*
X185331139Y-117402000D02*
X185235901Y-117449619D01*
X185235901Y-117449619D02*
X184997806Y-117449619D01*
X184997806Y-117449619D02*
X184902568Y-117402000D01*
X184902568Y-117402000D02*
X184854949Y-117354380D01*
X185712092Y-116449619D02*
X186045425Y-117449619D01*
X186045425Y-117449619D02*
X186378758Y-116449619D01*
X149145051Y-132949619D02*
X149145051Y-131949619D01*
X149526003Y-131949619D02*
X150192669Y-131949619D01*
X150192669Y-131949619D02*
X149764098Y-132949619D01*
X149145051Y-130449619D02*
X149145051Y-129449619D01*
X150049812Y-129449619D02*
X149859336Y-129449619D01*
X149859336Y-129449619D02*
X149764098Y-129497238D01*
X149764098Y-129497238D02*
X149716479Y-129544857D01*
X149716479Y-129544857D02*
X149621241Y-129687714D01*
X149621241Y-129687714D02*
X149573622Y-129878190D01*
X149573622Y-129878190D02*
X149573622Y-130259142D01*
X149573622Y-130259142D02*
X149621241Y-130354380D01*
X149621241Y-130354380D02*
X149668860Y-130402000D01*
X149668860Y-130402000D02*
X149764098Y-130449619D01*
X149764098Y-130449619D02*
X149954574Y-130449619D01*
X149954574Y-130449619D02*
X150049812Y-130402000D01*
X150049812Y-130402000D02*
X150097431Y-130354380D01*
X150097431Y-130354380D02*
X150145050Y-130259142D01*
X150145050Y-130259142D02*
X150145050Y-130021047D01*
X150145050Y-130021047D02*
X150097431Y-129925809D01*
X150097431Y-129925809D02*
X150049812Y-129878190D01*
X150049812Y-129878190D02*
X149954574Y-129830571D01*
X149954574Y-129830571D02*
X149764098Y-129830571D01*
X149764098Y-129830571D02*
X149668860Y-129878190D01*
X149668860Y-129878190D02*
X149621241Y-129925809D01*
X149621241Y-129925809D02*
X149573622Y-130021047D01*
X149145051Y-127949619D02*
X149145051Y-126949619D01*
X150097431Y-126949619D02*
X149621241Y-126949619D01*
X149621241Y-126949619D02*
X149573622Y-127425809D01*
X149573622Y-127425809D02*
X149621241Y-127378190D01*
X149621241Y-127378190D02*
X149716479Y-127330571D01*
X149716479Y-127330571D02*
X149954574Y-127330571D01*
X149954574Y-127330571D02*
X150049812Y-127378190D01*
X150049812Y-127378190D02*
X150097431Y-127425809D01*
X150097431Y-127425809D02*
X150145050Y-127521047D01*
X150145050Y-127521047D02*
X150145050Y-127759142D01*
X150145050Y-127759142D02*
X150097431Y-127854380D01*
X150097431Y-127854380D02*
X150049812Y-127902000D01*
X150049812Y-127902000D02*
X149954574Y-127949619D01*
X149954574Y-127949619D02*
X149716479Y-127949619D01*
X149716479Y-127949619D02*
X149621241Y-127902000D01*
X149621241Y-127902000D02*
X149573622Y-127854380D01*
X149145051Y-125449619D02*
X149145051Y-124449619D01*
X150049812Y-124782952D02*
X150049812Y-125449619D01*
X149811717Y-124402000D02*
X149573622Y-125116285D01*
X149573622Y-125116285D02*
X150192669Y-125116285D01*
X149145051Y-122949619D02*
X149145051Y-121949619D01*
X149526003Y-121949619D02*
X150145050Y-121949619D01*
X150145050Y-121949619D02*
X149811717Y-122330571D01*
X149811717Y-122330571D02*
X149954574Y-122330571D01*
X149954574Y-122330571D02*
X150049812Y-122378190D01*
X150049812Y-122378190D02*
X150097431Y-122425809D01*
X150097431Y-122425809D02*
X150145050Y-122521047D01*
X150145050Y-122521047D02*
X150145050Y-122759142D01*
X150145050Y-122759142D02*
X150097431Y-122854380D01*
X150097431Y-122854380D02*
X150049812Y-122902000D01*
X150049812Y-122902000D02*
X149954574Y-122949619D01*
X149954574Y-122949619D02*
X149668860Y-122949619D01*
X149668860Y-122949619D02*
X149573622Y-122902000D01*
X149573622Y-122902000D02*
X149526003Y-122854380D01*
X149145051Y-120449619D02*
X149145051Y-119449619D01*
X149573622Y-119544857D02*
X149621241Y-119497238D01*
X149621241Y-119497238D02*
X149716479Y-119449619D01*
X149716479Y-119449619D02*
X149954574Y-119449619D01*
X149954574Y-119449619D02*
X150049812Y-119497238D01*
X150049812Y-119497238D02*
X150097431Y-119544857D01*
X150097431Y-119544857D02*
X150145050Y-119640095D01*
X150145050Y-119640095D02*
X150145050Y-119735333D01*
X150145050Y-119735333D02*
X150097431Y-119878190D01*
X150097431Y-119878190D02*
X149526003Y-120449619D01*
X149526003Y-120449619D02*
X150145050Y-120449619D01*
X149145051Y-117949619D02*
X149145051Y-116949619D01*
X150145050Y-117949619D02*
X149573622Y-117949619D01*
X149859336Y-117949619D02*
X149859336Y-116949619D01*
X149859336Y-116949619D02*
X149764098Y-117092476D01*
X149764098Y-117092476D02*
X149668860Y-117187714D01*
X149668860Y-117187714D02*
X149573622Y-117235333D01*
X149145051Y-115449619D02*
X149145051Y-114449619D01*
X149811717Y-114449619D02*
X149906955Y-114449619D01*
X149906955Y-114449619D02*
X150002193Y-114497238D01*
X150002193Y-114497238D02*
X150049812Y-114544857D01*
X150049812Y-114544857D02*
X150097431Y-114640095D01*
X150097431Y-114640095D02*
X150145050Y-114830571D01*
X150145050Y-114830571D02*
X150145050Y-115068666D01*
X150145050Y-115068666D02*
X150097431Y-115259142D01*
X150097431Y-115259142D02*
X150049812Y-115354380D01*
X150049812Y-115354380D02*
X150002193Y-115402000D01*
X150002193Y-115402000D02*
X149906955Y-115449619D01*
X149906955Y-115449619D02*
X149811717Y-115449619D01*
X149811717Y-115449619D02*
X149716479Y-115402000D01*
X149716479Y-115402000D02*
X149668860Y-115354380D01*
X149668860Y-115354380D02*
X149621241Y-115259142D01*
X149621241Y-115259142D02*
X149573622Y-115068666D01*
X149573622Y-115068666D02*
X149573622Y-114830571D01*
X149573622Y-114830571D02*
X149621241Y-114640095D01*
X149621241Y-114640095D02*
X149668860Y-114544857D01*
X149668860Y-114544857D02*
X149716479Y-114497238D01*
X149716479Y-114497238D02*
X149811717Y-114449619D01*
D11*
X156166666Y-113454819D02*
X156166666Y-114169104D01*
X156166666Y-114169104D02*
X156119047Y-114311961D01*
X156119047Y-114311961D02*
X156023809Y-114407200D01*
X156023809Y-114407200D02*
X155880952Y-114454819D01*
X155880952Y-114454819D02*
X155785714Y-114454819D01*
X157166666Y-114454819D02*
X156595238Y-114454819D01*
X156880952Y-114454819D02*
X156880952Y-113454819D01*
X156880952Y-113454819D02*
X156785714Y-113597676D01*
X156785714Y-113597676D02*
X156690476Y-113692914D01*
X156690476Y-113692914D02*
X156595238Y-113740533D01*
X180661666Y-113954819D02*
X180661666Y-114669104D01*
X180661666Y-114669104D02*
X180614047Y-114811961D01*
X180614047Y-114811961D02*
X180518809Y-114907200D01*
X180518809Y-114907200D02*
X180375952Y-114954819D01*
X180375952Y-114954819D02*
X180280714Y-114954819D01*
X181090238Y-114050057D02*
X181137857Y-114002438D01*
X181137857Y-114002438D02*
X181233095Y-113954819D01*
X181233095Y-113954819D02*
X181471190Y-113954819D01*
X181471190Y-113954819D02*
X181566428Y-114002438D01*
X181566428Y-114002438D02*
X181614047Y-114050057D01*
X181614047Y-114050057D02*
X181661666Y-114145295D01*
X181661666Y-114145295D02*
X181661666Y-114240533D01*
X181661666Y-114240533D02*
X181614047Y-114383390D01*
X181614047Y-114383390D02*
X181042619Y-114954819D01*
X181042619Y-114954819D02*
X181661666Y-114954819D01*
X165738095Y-116307819D02*
X165738095Y-117117342D01*
X165738095Y-117117342D02*
X165785714Y-117212580D01*
X165785714Y-117212580D02*
X165833333Y-117260200D01*
X165833333Y-117260200D02*
X165928571Y-117307819D01*
X165928571Y-117307819D02*
X166119047Y-117307819D01*
X166119047Y-117307819D02*
X166214285Y-117260200D01*
X166214285Y-117260200D02*
X166261904Y-117212580D01*
X166261904Y-117212580D02*
X166309523Y-117117342D01*
X166309523Y-117117342D02*
X166309523Y-116307819D01*
X167309523Y-117307819D02*
X166738095Y-117307819D01*
X167023809Y-117307819D02*
X167023809Y-116307819D01*
X167023809Y-116307819D02*
X166928571Y-116450676D01*
X166928571Y-116450676D02*
X166833333Y-116545914D01*
X166833333Y-116545914D02*
X166738095Y-116593533D01*
X163033333Y-129629819D02*
X162700000Y-129153628D01*
X162461905Y-129629819D02*
X162461905Y-128629819D01*
X162461905Y-128629819D02*
X162842857Y-128629819D01*
X162842857Y-128629819D02*
X162938095Y-128677438D01*
X162938095Y-128677438D02*
X162985714Y-128725057D01*
X162985714Y-128725057D02*
X163033333Y-128820295D01*
X163033333Y-128820295D02*
X163033333Y-128963152D01*
X163033333Y-128963152D02*
X162985714Y-129058390D01*
X162985714Y-129058390D02*
X162938095Y-129106009D01*
X162938095Y-129106009D02*
X162842857Y-129153628D01*
X162842857Y-129153628D02*
X162461905Y-129153628D01*
X163985714Y-129629819D02*
X163414286Y-129629819D01*
X163700000Y-129629819D02*
X163700000Y-128629819D01*
X163700000Y-128629819D02*
X163604762Y-128772676D01*
X163604762Y-128772676D02*
X163509524Y-128867914D01*
X163509524Y-128867914D02*
X163414286Y-128915533D01*
D12*
G04 #@! TO.C,G\u002A\u002A\u002A*
G36*
X171222245Y-135881230D02*
G01*
X171222245Y-135935561D01*
X164702459Y-135935561D01*
X158182673Y-135935561D01*
X158182673Y-135881230D01*
X158182673Y-135826898D01*
X164702459Y-135826898D01*
X171222245Y-135826898D01*
X171222245Y-135881230D01*
G37*
G36*
X171330908Y-132308930D02*
G01*
X171330908Y-132363262D01*
X164783956Y-132363262D01*
X158237005Y-132363262D01*
X158237005Y-132308930D01*
X158237005Y-132254599D01*
X164783956Y-132254599D01*
X171330908Y-132254599D01*
X171330908Y-132308930D01*
G37*
G36*
X167568448Y-134054963D02*
G01*
X167568337Y-134234034D01*
X167568014Y-134405128D01*
X167567496Y-134566324D01*
X167566798Y-134715702D01*
X167565938Y-134851340D01*
X167564930Y-134971318D01*
X167563790Y-135073714D01*
X167562536Y-135156610D01*
X167561184Y-135218083D01*
X167559748Y-135256212D01*
X167558261Y-135269081D01*
X167539263Y-135262996D01*
X167517513Y-135253422D01*
X167486951Y-135238683D01*
X167487037Y-134062443D01*
X167487123Y-132886203D01*
X167527786Y-132863065D01*
X167568448Y-132839927D01*
X167568448Y-134054963D01*
G37*
G36*
X167405419Y-132906517D02*
G01*
X167406411Y-132921468D01*
X167407277Y-132961589D01*
X167408013Y-133024882D01*
X167408613Y-133109351D01*
X167409071Y-133213000D01*
X167409382Y-133333832D01*
X167409540Y-133469850D01*
X167409539Y-133619059D01*
X167409375Y-133779462D01*
X167409040Y-133949061D01*
X167408698Y-134073404D01*
X167407970Y-134285477D01*
X167407154Y-134471791D01*
X167406224Y-134633752D01*
X167405156Y-134772768D01*
X167403924Y-134890245D01*
X167402505Y-134987590D01*
X167400873Y-135066209D01*
X167399003Y-135127509D01*
X167396870Y-135172897D01*
X167394451Y-135203780D01*
X167391719Y-135221564D01*
X167388650Y-135227655D01*
X167388324Y-135227676D01*
X167360766Y-135222968D01*
X167347726Y-135219888D01*
X167343521Y-135217624D01*
X167339842Y-135212036D01*
X167336653Y-135201423D01*
X167333921Y-135184081D01*
X167331609Y-135158308D01*
X167329683Y-135122400D01*
X167328109Y-135074656D01*
X167326850Y-135013373D01*
X167325873Y-134936847D01*
X167325142Y-134843377D01*
X167324622Y-134731258D01*
X167324278Y-134598789D01*
X167324076Y-134444267D01*
X167323981Y-134265989D01*
X167323956Y-134062252D01*
X167323956Y-134061710D01*
X167323956Y-132909744D01*
X167361275Y-132902611D01*
X167390634Y-132900911D01*
X167405419Y-132906517D01*
G37*
G36*
X167921421Y-132502055D02*
G01*
X167948397Y-132507921D01*
X167960065Y-132520906D01*
X167962352Y-132540163D01*
X167958361Y-132558720D01*
X167943556Y-132573686D01*
X167913689Y-132587112D01*
X167864511Y-132601050D01*
X167810491Y-132613493D01*
X167724768Y-132637483D01*
X167661431Y-132668176D01*
X167615983Y-132708351D01*
X167588823Y-132750495D01*
X167561657Y-132804706D01*
X167512686Y-132780756D01*
X167454868Y-132761999D01*
X167378902Y-132750732D01*
X167292713Y-132746823D01*
X167204229Y-132750139D01*
X167121375Y-132760545D01*
X167052076Y-132777910D01*
X167025426Y-132788941D01*
X167000245Y-132799470D01*
X166986242Y-132794287D01*
X166974416Y-132768778D01*
X166971730Y-132761410D01*
X166948821Y-132721508D01*
X166909405Y-132687159D01*
X166850545Y-132656708D01*
X166769310Y-132628501D01*
X166705205Y-132611108D01*
X166640713Y-132594542D01*
X166598144Y-132582023D01*
X166572978Y-132571385D01*
X166560693Y-132560461D01*
X166556767Y-132547084D01*
X166556523Y-132539840D01*
X166556523Y-132505882D01*
X167181336Y-132503303D01*
X167311638Y-132502771D01*
X167435665Y-132502274D01*
X167550339Y-132501825D01*
X167652581Y-132501435D01*
X167739313Y-132501116D01*
X167807455Y-132500879D01*
X167853930Y-132500736D01*
X167873241Y-132500696D01*
X167921421Y-132502055D01*
G37*
G36*
X167018578Y-132856608D02*
G01*
X167037552Y-132865206D01*
X167065882Y-132880367D01*
X167065882Y-134061123D01*
X167065868Y-134267266D01*
X167065802Y-134447945D01*
X167065647Y-134604861D01*
X167065365Y-134739716D01*
X167064919Y-134854211D01*
X167064271Y-134950048D01*
X167063384Y-135028928D01*
X167062220Y-135092552D01*
X167060743Y-135142623D01*
X167058914Y-135180842D01*
X167056696Y-135208909D01*
X167054052Y-135228527D01*
X167050944Y-135241398D01*
X167047336Y-135249222D01*
X167043188Y-135253701D01*
X167039609Y-135255939D01*
X167015396Y-135267229D01*
X167005652Y-135270000D01*
X167004484Y-135256742D01*
X167003335Y-135218272D01*
X167002220Y-135156540D01*
X167001155Y-135073500D01*
X167000154Y-134971103D01*
X166999233Y-134851304D01*
X166998407Y-134716052D01*
X166997692Y-134567303D01*
X166997103Y-134407007D01*
X166996655Y-134237117D01*
X166996403Y-134091684D01*
X166996135Y-133880649D01*
X166995933Y-133695131D01*
X166995810Y-133533479D01*
X166995776Y-133394046D01*
X166995843Y-133275181D01*
X166996021Y-133175236D01*
X166996324Y-133092561D01*
X166996761Y-133025507D01*
X166997345Y-132972425D01*
X166998086Y-132931665D01*
X166998996Y-132901578D01*
X167000086Y-132880515D01*
X167001368Y-132866828D01*
X167002853Y-132858865D01*
X167004553Y-132854979D01*
X167004923Y-132854541D01*
X167018578Y-132856608D01*
G37*
G36*
X167570742Y-135326896D02*
G01*
X167575926Y-135341547D01*
X167597041Y-135380692D01*
X167633699Y-135422749D01*
X167677193Y-135458386D01*
X167694653Y-135468804D01*
X167723786Y-135480407D01*
X167771738Y-135495720D01*
X167830844Y-135512402D01*
X167871231Y-135522775D01*
X167952154Y-135544227D01*
X168009285Y-135563424D01*
X168045715Y-135582008D01*
X168064537Y-135601618D01*
X168068844Y-135623896D01*
X168068452Y-135627409D01*
X168064224Y-135657112D01*
X167331883Y-135657277D01*
X167166681Y-135657202D01*
X167026699Y-135656864D01*
X166909990Y-135656218D01*
X166814609Y-135655217D01*
X166738610Y-135653814D01*
X166680048Y-135651963D01*
X166636977Y-135649617D01*
X166607451Y-135646730D01*
X166589525Y-135643255D01*
X166581428Y-135639328D01*
X166563523Y-135609844D01*
X166571635Y-135582844D01*
X166606065Y-135558074D01*
X166667117Y-135535278D01*
X166721312Y-135521378D01*
X166819400Y-135490597D01*
X166893793Y-135447740D01*
X166945416Y-135392210D01*
X166959033Y-135368124D01*
X166980708Y-135331048D01*
X166997623Y-135319737D01*
X167002802Y-135321892D01*
X167047014Y-135343881D01*
X167111139Y-135359947D01*
X167188554Y-135369985D01*
X167272635Y-135373890D01*
X167356760Y-135371557D01*
X167434305Y-135362879D01*
X167498649Y-135347753D01*
X167537047Y-135330378D01*
X167559584Y-135318850D01*
X167570742Y-135326896D01*
G37*
G36*
X158433956Y-136289018D02*
G01*
X158389812Y-136323809D01*
X158345668Y-136358600D01*
X158345668Y-136648877D01*
X158345756Y-136744764D01*
X158346255Y-136817130D01*
X158347519Y-136869622D01*
X158349901Y-136905886D01*
X158353755Y-136929567D01*
X158359433Y-136944311D01*
X158367290Y-136953764D01*
X158375856Y-136960299D01*
X158407528Y-136976453D01*
X158430187Y-136981444D01*
X158450562Y-136987762D01*
X158454331Y-136995027D01*
X158441417Y-137001337D01*
X158405285Y-137005899D01*
X158349849Y-137008321D01*
X158318502Y-137008610D01*
X158255402Y-137007318D01*
X158209783Y-137003705D01*
X158185556Y-136998161D01*
X158182673Y-136995027D01*
X158193920Y-136983609D01*
X158207122Y-136981444D01*
X158225045Y-136979852D01*
X158238777Y-136972964D01*
X158248872Y-136957610D01*
X158255883Y-136930619D01*
X158260365Y-136888822D01*
X158262871Y-136829048D01*
X158263954Y-136748127D01*
X158264170Y-136654843D01*
X158263996Y-136557370D01*
X158263285Y-136483449D01*
X158261753Y-136429466D01*
X158259116Y-136391809D01*
X158255092Y-136366866D01*
X158249396Y-136351022D01*
X158241745Y-136340665D01*
X158239331Y-136338362D01*
X158211025Y-136320662D01*
X158191791Y-136315882D01*
X158172269Y-136309210D01*
X158169090Y-136302299D01*
X158181987Y-136295947D01*
X158218009Y-136291406D01*
X158273149Y-136289083D01*
X158301523Y-136288867D01*
X158433956Y-136289018D01*
G37*
G36*
X163595454Y-136289018D02*
G01*
X163551309Y-136323809D01*
X163507165Y-136358600D01*
X163507165Y-136648877D01*
X163507253Y-136744764D01*
X163507752Y-136817130D01*
X163509016Y-136869622D01*
X163511398Y-136905886D01*
X163515252Y-136929567D01*
X163520931Y-136944311D01*
X163528788Y-136953764D01*
X163537353Y-136960299D01*
X163569025Y-136976453D01*
X163591685Y-136981444D01*
X163612060Y-136987762D01*
X163615828Y-136995027D01*
X163602914Y-137001337D01*
X163566783Y-137005899D01*
X163511346Y-137008321D01*
X163479999Y-137008610D01*
X163416900Y-137007318D01*
X163371280Y-137003705D01*
X163347053Y-136998161D01*
X163344170Y-136995027D01*
X163355417Y-136983609D01*
X163368620Y-136981444D01*
X163386543Y-136979852D01*
X163400275Y-136972964D01*
X163410369Y-136957610D01*
X163417381Y-136930619D01*
X163421862Y-136888822D01*
X163424368Y-136829048D01*
X163425451Y-136748127D01*
X163425668Y-136654843D01*
X163425494Y-136557370D01*
X163424782Y-136483449D01*
X163423250Y-136429466D01*
X163420614Y-136391809D01*
X163416589Y-136366866D01*
X163410894Y-136351022D01*
X163403243Y-136340665D01*
X163400828Y-136338362D01*
X163372522Y-136320662D01*
X163353288Y-136315882D01*
X163333767Y-136309210D01*
X163330587Y-136302299D01*
X163343485Y-136295947D01*
X163379506Y-136291406D01*
X163434646Y-136289083D01*
X163463021Y-136288867D01*
X163595454Y-136289018D01*
G37*
G36*
X167168864Y-132898333D02*
G01*
X167201349Y-132905571D01*
X167216404Y-132906577D01*
X167221000Y-132907174D01*
X167225021Y-132910098D01*
X167228506Y-132917047D01*
X167231493Y-132929724D01*
X167234021Y-132949826D01*
X167236127Y-132979055D01*
X167237850Y-133019109D01*
X167239229Y-133071689D01*
X167240301Y-133138495D01*
X167241106Y-133221226D01*
X167241681Y-133321582D01*
X167242065Y-133441264D01*
X167242297Y-133581970D01*
X167242414Y-133745402D01*
X167242455Y-133933258D01*
X167242459Y-134061123D01*
X167242384Y-134272569D01*
X167242147Y-134458283D01*
X167241724Y-134619700D01*
X167241097Y-134758253D01*
X167240242Y-134875376D01*
X167239140Y-134972503D01*
X167237770Y-135051068D01*
X167236109Y-135112504D01*
X167234138Y-135158246D01*
X167231835Y-135189727D01*
X167229179Y-135208381D01*
X167226148Y-135215642D01*
X167225480Y-135215854D01*
X167199276Y-135219359D01*
X167177940Y-135224229D01*
X167147379Y-135232420D01*
X167147379Y-134061254D01*
X167147412Y-133855039D01*
X167147533Y-133674346D01*
X167147771Y-133517529D01*
X167148158Y-133382944D01*
X167148722Y-133268946D01*
X167149495Y-133173890D01*
X167150508Y-133096132D01*
X167151790Y-133034027D01*
X167153372Y-132985930D01*
X167155284Y-132950198D01*
X167157557Y-132925184D01*
X167160220Y-132909245D01*
X167163306Y-132900736D01*
X167166843Y-132898012D01*
X167168864Y-132898333D01*
G37*
G36*
X169585507Y-136289018D02*
G01*
X169541363Y-136323809D01*
X169497218Y-136358600D01*
X169497218Y-136648877D01*
X169497306Y-136744764D01*
X169497806Y-136817130D01*
X169499070Y-136869622D01*
X169501452Y-136905886D01*
X169505305Y-136929567D01*
X169510984Y-136944311D01*
X169518841Y-136953764D01*
X169527407Y-136960299D01*
X169559078Y-136976453D01*
X169581738Y-136981444D01*
X169602113Y-136987762D01*
X169605882Y-136995027D01*
X169592968Y-137001337D01*
X169556836Y-137005899D01*
X169501400Y-137008321D01*
X169470053Y-137008610D01*
X169406953Y-137007318D01*
X169361333Y-137003705D01*
X169337107Y-136998161D01*
X169334224Y-136995027D01*
X169345471Y-136983609D01*
X169358673Y-136981444D01*
X169376596Y-136979852D01*
X169390328Y-136972964D01*
X169400423Y-136957610D01*
X169407434Y-136930619D01*
X169411916Y-136888822D01*
X169414421Y-136829048D01*
X169415505Y-136748127D01*
X169415721Y-136654843D01*
X169415547Y-136557370D01*
X169414836Y-136483449D01*
X169413304Y-136429466D01*
X169410667Y-136391809D01*
X169406643Y-136366866D01*
X169400947Y-136351022D01*
X169393296Y-136340665D01*
X169390882Y-136338362D01*
X169362576Y-136320662D01*
X169343341Y-136315882D01*
X169323820Y-136309210D01*
X169320641Y-136302299D01*
X169333538Y-136295947D01*
X169369559Y-136291406D01*
X169424699Y-136289083D01*
X169453074Y-136288867D01*
X169585507Y-136289018D01*
G37*
G36*
X163001092Y-136288737D02*
G01*
X163079918Y-136289336D01*
X163137792Y-136291322D01*
X163177820Y-136295505D01*
X163203108Y-136302691D01*
X163216763Y-136313690D01*
X163221892Y-136329309D01*
X163221599Y-136350357D01*
X163219486Y-136372317D01*
X163215133Y-136417754D01*
X163194615Y-136377005D01*
X163183653Y-136357429D01*
X163170683Y-136345184D01*
X163149459Y-136338265D01*
X163113739Y-136334670D01*
X163057277Y-136332394D01*
X163055390Y-136332332D01*
X162936684Y-136328408D01*
X162936684Y-136642523D01*
X162936684Y-136956638D01*
X162977432Y-136972019D01*
X163008494Y-136986338D01*
X163014880Y-136996873D01*
X162995974Y-137003903D01*
X162951155Y-137007705D01*
X162895935Y-137008610D01*
X162837360Y-137007185D01*
X162795576Y-137003241D01*
X162775043Y-136997274D01*
X162773689Y-136995027D01*
X162784936Y-136983609D01*
X162798138Y-136981444D01*
X162815687Y-136979956D01*
X162829226Y-136973424D01*
X162839271Y-136958748D01*
X162846340Y-136932826D01*
X162850948Y-136892556D01*
X162853614Y-136834839D01*
X162854853Y-136756573D01*
X162855183Y-136654656D01*
X162855186Y-136639155D01*
X162855186Y-136329465D01*
X162749919Y-136329673D01*
X162688871Y-136330813D01*
X162648940Y-136335513D01*
X162624103Y-136346135D01*
X162608339Y-136365036D01*
X162597581Y-136389353D01*
X162584414Y-136417063D01*
X162576432Y-136419233D01*
X162574269Y-136397104D01*
X162578539Y-136352059D01*
X162587221Y-136288717D01*
X162898208Y-136288717D01*
X163001092Y-136288737D01*
G37*
G36*
X160768350Y-136284548D02*
G01*
X160812301Y-136291691D01*
X160852680Y-136306764D01*
X160883905Y-136322821D01*
X160960802Y-136376433D01*
X161015092Y-136441986D01*
X161048227Y-136522103D01*
X161061658Y-136619408D01*
X161062112Y-136644831D01*
X161051396Y-136747363D01*
X161018843Y-136834911D01*
X160963407Y-136909982D01*
X160942940Y-136929741D01*
X160869017Y-136979132D01*
X160781044Y-137009900D01*
X160686165Y-137020414D01*
X160593636Y-137009555D01*
X160500601Y-136975107D01*
X160427037Y-136921923D01*
X160373548Y-136850810D01*
X160340738Y-136762579D01*
X160329210Y-136658036D01*
X160329200Y-136655454D01*
X160334696Y-136598504D01*
X160396982Y-136598504D01*
X160402636Y-136692937D01*
X160421908Y-136770673D01*
X160457164Y-136839738D01*
X160475833Y-136866156D01*
X160537277Y-136928744D01*
X160609512Y-136972165D01*
X160687202Y-136994555D01*
X160765011Y-136994051D01*
X160808569Y-136982354D01*
X160858302Y-136953465D01*
X160908897Y-136907916D01*
X160951624Y-136854463D01*
X160971306Y-136819042D01*
X160995515Y-136734767D01*
X160998246Y-136646367D01*
X160981546Y-136558826D01*
X160947464Y-136477128D01*
X160898051Y-136406255D01*
X160835353Y-136351192D01*
X160765344Y-136318063D01*
X160673188Y-136302180D01*
X160590193Y-136310733D01*
X160518853Y-136341822D01*
X160461665Y-136393548D01*
X160421123Y-136464010D01*
X160399722Y-136551310D01*
X160396982Y-136598504D01*
X160334696Y-136598504D01*
X160339087Y-136553012D01*
X160369941Y-136466220D01*
X160423008Y-136392043D01*
X160447108Y-136368457D01*
X160505015Y-136325227D01*
X160567997Y-136298231D01*
X160643560Y-136285011D01*
X160709090Y-136282638D01*
X160768350Y-136284548D01*
G37*
G36*
X164204821Y-136284548D02*
G01*
X164248772Y-136291691D01*
X164289151Y-136306764D01*
X164320376Y-136322821D01*
X164397273Y-136376433D01*
X164451563Y-136441986D01*
X164484697Y-136522103D01*
X164498129Y-136619408D01*
X164498583Y-136644831D01*
X164487866Y-136747363D01*
X164455314Y-136834911D01*
X164399878Y-136909982D01*
X164379411Y-136929741D01*
X164305488Y-136979132D01*
X164217514Y-137009900D01*
X164122636Y-137020414D01*
X164030106Y-137009555D01*
X163937071Y-136975107D01*
X163863508Y-136921923D01*
X163810019Y-136850810D01*
X163777209Y-136762579D01*
X163765681Y-136658036D01*
X163765671Y-136655454D01*
X163771167Y-136598504D01*
X163833453Y-136598504D01*
X163839106Y-136692937D01*
X163858379Y-136770673D01*
X163893635Y-136839738D01*
X163912304Y-136866156D01*
X163973747Y-136928744D01*
X164045983Y-136972165D01*
X164123673Y-136994555D01*
X164201481Y-136994051D01*
X164245039Y-136982354D01*
X164294773Y-136953465D01*
X164345367Y-136907916D01*
X164388095Y-136854463D01*
X164407777Y-136819042D01*
X164431986Y-136734767D01*
X164434716Y-136646367D01*
X164418016Y-136558826D01*
X164383935Y-136477128D01*
X164334521Y-136406255D01*
X164271824Y-136351192D01*
X164201815Y-136318063D01*
X164109659Y-136302180D01*
X164026663Y-136310733D01*
X163955324Y-136341822D01*
X163898136Y-136393548D01*
X163857594Y-136464010D01*
X163836193Y-136551310D01*
X163833453Y-136598504D01*
X163771167Y-136598504D01*
X163775558Y-136553012D01*
X163806412Y-136466220D01*
X163859479Y-136392043D01*
X163883579Y-136368457D01*
X163941486Y-136325227D01*
X164004468Y-136298231D01*
X164080030Y-136285011D01*
X164145561Y-136282638D01*
X164204821Y-136284548D01*
G37*
G36*
X169427780Y-131008186D02*
G01*
X169870748Y-131011765D01*
X169874795Y-131104798D01*
X169875806Y-131155485D01*
X169872887Y-131183355D01*
X169865392Y-131192557D01*
X169861212Y-131192023D01*
X169845993Y-131175467D01*
X169839226Y-131153321D01*
X169832227Y-131126561D01*
X169816746Y-131107895D01*
X169788632Y-131095949D01*
X169743734Y-131089350D01*
X169677901Y-131086723D01*
X169637243Y-131086471D01*
X169483636Y-131086471D01*
X169483844Y-131504144D01*
X169484209Y-131608438D01*
X169485145Y-131704215D01*
X169486571Y-131788033D01*
X169488405Y-131856449D01*
X169490566Y-131906019D01*
X169492974Y-131933300D01*
X169494031Y-131937270D01*
X169512114Y-131951890D01*
X169545094Y-131969552D01*
X169557031Y-131974801D01*
X169587250Y-131990177D01*
X169601105Y-132002977D01*
X169600521Y-132006412D01*
X169583240Y-132011040D01*
X169546255Y-132014230D01*
X169495751Y-132016036D01*
X169437917Y-132016514D01*
X169378940Y-132015718D01*
X169325006Y-132013705D01*
X169282304Y-132010528D01*
X169257021Y-132006244D01*
X169252775Y-132003315D01*
X169263717Y-131989095D01*
X169291128Y-131969682D01*
X169303699Y-131962546D01*
X169354598Y-131935359D01*
X169358187Y-131510915D01*
X169361777Y-131086471D01*
X169215567Y-131086679D01*
X169153589Y-131087896D01*
X169100592Y-131091026D01*
X169063177Y-131095555D01*
X169049280Y-131099582D01*
X169031252Y-131120663D01*
X169015050Y-131154357D01*
X169014387Y-131156282D01*
X168999991Y-131187665D01*
X168984792Y-131205099D01*
X168983529Y-131205633D01*
X168971767Y-131197880D01*
X168967744Y-131164452D01*
X168971479Y-131105723D01*
X168976149Y-131067809D01*
X168984811Y-131004607D01*
X169427780Y-131008186D01*
G37*
G36*
X158974761Y-131009237D02*
G01*
X159074535Y-131039909D01*
X159127903Y-131066100D01*
X159169099Y-131085265D01*
X159203155Y-131092337D01*
X159210947Y-131091459D01*
X159224641Y-131090016D01*
X159233680Y-131097715D01*
X159239851Y-131119563D01*
X159244943Y-131160566D01*
X159248156Y-131195673D01*
X159252152Y-131262934D01*
X159249791Y-131304168D01*
X159240601Y-131319870D01*
X159224110Y-131310535D01*
X159199847Y-131276657D01*
X159188752Y-131257908D01*
X159122893Y-131165991D01*
X159044784Y-131098182D01*
X158955381Y-131054846D01*
X158855638Y-131036350D01*
X158746511Y-131043061D01*
X158673775Y-131060275D01*
X158595230Y-131097363D01*
X158529375Y-131155759D01*
X158477735Y-131232006D01*
X158441835Y-131322648D01*
X158423200Y-131424227D01*
X158423354Y-131533286D01*
X158433796Y-131604333D01*
X158468031Y-131717711D01*
X158519501Y-131812704D01*
X158586132Y-131887929D01*
X158665851Y-131942005D01*
X158756582Y-131973553D01*
X158856252Y-131981191D01*
X158962787Y-131963537D01*
X158970099Y-131961422D01*
X159067609Y-131921801D01*
X159148643Y-131864118D01*
X159192529Y-131818682D01*
X159220533Y-131788470D01*
X159241474Y-131770477D01*
X159249128Y-131768077D01*
X159250543Y-131784286D01*
X159246439Y-131818121D01*
X159241320Y-131845009D01*
X159220493Y-131906158D01*
X159191358Y-131942314D01*
X159141287Y-131970098D01*
X159070752Y-131993454D01*
X158986248Y-132011294D01*
X158894271Y-132022530D01*
X158801316Y-132026073D01*
X158719197Y-132021455D01*
X158607612Y-131996304D01*
X158509664Y-131948816D01*
X158427421Y-131881234D01*
X158362953Y-131795801D01*
X158318328Y-131694759D01*
X158295617Y-131580351D01*
X158294141Y-131560717D01*
X158299216Y-131440082D01*
X158327613Y-131327698D01*
X158377337Y-131226565D01*
X158446394Y-131139683D01*
X158532789Y-131070050D01*
X158634527Y-131020666D01*
X158658456Y-131012910D01*
X158757672Y-130994712D01*
X158866124Y-130993829D01*
X158974761Y-131009237D01*
G37*
G36*
X168062754Y-131005074D02*
G01*
X168159931Y-131005359D01*
X168244722Y-131005805D01*
X168313925Y-131006386D01*
X168364338Y-131007078D01*
X168392759Y-131007857D01*
X168397932Y-131008369D01*
X168399380Y-131022548D01*
X168402302Y-131056566D01*
X168406078Y-131103178D01*
X168406229Y-131105083D01*
X168409191Y-131155027D01*
X168407793Y-131182699D01*
X168401445Y-131192732D01*
X168395114Y-131192246D01*
X168377383Y-131175117D01*
X168371832Y-131160051D01*
X168363214Y-131130193D01*
X168347314Y-131109561D01*
X168319709Y-131096526D01*
X168275976Y-131089456D01*
X168211691Y-131086722D01*
X168172235Y-131086471D01*
X168104397Y-131087020D01*
X168058993Y-131089106D01*
X168031305Y-131093387D01*
X168016615Y-131100522D01*
X168010959Y-131108963D01*
X168008628Y-131128524D01*
X168006772Y-131170926D01*
X168005378Y-131231850D01*
X168004438Y-131306977D01*
X168003942Y-131391988D01*
X168003877Y-131482563D01*
X168004236Y-131574381D01*
X168005007Y-131663125D01*
X168006180Y-131744473D01*
X168007745Y-131814108D01*
X168009692Y-131867708D01*
X168012010Y-131900955D01*
X168012848Y-131906693D01*
X168026073Y-131937393D01*
X168055986Y-131959135D01*
X168072953Y-131966481D01*
X168110752Y-131983698D01*
X168125255Y-131996935D01*
X168115676Y-132006529D01*
X168081226Y-132012820D01*
X168021118Y-132016146D01*
X167955561Y-132016898D01*
X167881993Y-132015852D01*
X167827302Y-132012871D01*
X167794428Y-132008189D01*
X167785811Y-132003315D01*
X167796761Y-131989094D01*
X167824177Y-131969681D01*
X167836747Y-131962546D01*
X167887646Y-131935359D01*
X167891236Y-131510482D01*
X167894826Y-131085605D01*
X167735033Y-131089434D01*
X167575240Y-131093262D01*
X167544185Y-131158277D01*
X167522052Y-131196635D01*
X167504274Y-131213246D01*
X167493552Y-131207438D01*
X167492587Y-131178541D01*
X167493658Y-131170837D01*
X167498976Y-131134417D01*
X167505389Y-131086917D01*
X167507628Y-131069492D01*
X167515781Y-131004973D01*
X167956393Y-131004973D01*
X168062754Y-131005074D01*
G37*
G36*
X168987860Y-136282052D02*
G01*
X169034101Y-136288250D01*
X169073483Y-136292678D01*
X169086003Y-136293704D01*
X169101435Y-136295964D01*
X169112122Y-136304047D01*
X169120354Y-136323232D01*
X169128419Y-136358800D01*
X169138319Y-136414358D01*
X169140743Y-136451425D01*
X169132630Y-136464530D01*
X169116234Y-136453679D01*
X169093809Y-136418876D01*
X169091410Y-136414252D01*
X169054893Y-136363793D01*
X169008049Y-136328822D01*
X168955794Y-136309208D01*
X168903044Y-136304822D01*
X168854714Y-136315533D01*
X168815721Y-136341213D01*
X168790980Y-136381732D01*
X168784734Y-136422338D01*
X168790612Y-136466254D01*
X168810552Y-136502479D01*
X168848015Y-136534242D01*
X168906458Y-136564774D01*
X168960978Y-136586867D01*
X169050708Y-136628245D01*
X169114432Y-136675326D01*
X169152902Y-136729142D01*
X169166873Y-136790725D01*
X169158286Y-136856820D01*
X169128568Y-136917931D01*
X169078520Y-136966942D01*
X169013220Y-137001375D01*
X168937744Y-137018750D01*
X168857169Y-137016586D01*
X168838448Y-137013063D01*
X168785170Y-136998033D01*
X168751513Y-136977422D01*
X168729952Y-136944650D01*
X168716754Y-136906624D01*
X168702541Y-136854576D01*
X168696913Y-136823433D01*
X168699497Y-136808452D01*
X168708775Y-136804866D01*
X168721397Y-136816200D01*
X168738783Y-136844979D01*
X168747812Y-136863845D01*
X168784406Y-136921394D01*
X168832443Y-136961704D01*
X168887286Y-136985156D01*
X168944294Y-136992135D01*
X168998830Y-136983021D01*
X169046255Y-136958197D01*
X169081930Y-136918047D01*
X169101216Y-136862951D01*
X169103315Y-136834538D01*
X169094840Y-136791163D01*
X169067612Y-136753683D01*
X169018919Y-136719614D01*
X168946053Y-136686472D01*
X168938789Y-136683668D01*
X168858789Y-136650482D01*
X168801089Y-136619628D01*
X168761356Y-136588085D01*
X168735258Y-136552833D01*
X168727346Y-136536257D01*
X168712714Y-136471370D01*
X168722060Y-136411184D01*
X168752246Y-136358760D01*
X168800133Y-136317162D01*
X168862582Y-136289451D01*
X168936455Y-136278690D01*
X168987860Y-136282052D01*
G37*
G36*
X166406394Y-130998559D02*
G01*
X166511064Y-131003863D01*
X166596840Y-131020813D01*
X166670411Y-131051924D01*
X166738469Y-131099712D01*
X166781728Y-131139715D01*
X166842904Y-131210095D01*
X166884699Y-131282294D01*
X166909674Y-131363065D01*
X166920392Y-131459161D01*
X166921252Y-131507540D01*
X166914473Y-131615739D01*
X166893474Y-131706067D01*
X166856001Y-131785041D01*
X166799797Y-131859180D01*
X166799400Y-131859623D01*
X166716317Y-131932109D01*
X166616608Y-131984769D01*
X166503186Y-132016649D01*
X166378962Y-132026797D01*
X166302365Y-132022268D01*
X166201780Y-131998220D01*
X166107282Y-131950837D01*
X166024354Y-131883944D01*
X165958479Y-131801366D01*
X165940753Y-131770027D01*
X165907335Y-131680029D01*
X165889689Y-131577505D01*
X165887999Y-131471136D01*
X165889854Y-131458107D01*
X165994233Y-131458107D01*
X166000077Y-131558151D01*
X166023365Y-131656453D01*
X166064382Y-131749032D01*
X166123415Y-131831905D01*
X166159371Y-131868092D01*
X166245504Y-131929374D01*
X166339791Y-131967619D01*
X166437849Y-131981811D01*
X166535291Y-131970933D01*
X166565052Y-131962188D01*
X166646280Y-131921643D01*
X166713038Y-131859579D01*
X166767128Y-131774316D01*
X166767950Y-131772652D01*
X166806038Y-131665760D01*
X166819498Y-131554063D01*
X166809206Y-131442119D01*
X166776036Y-131334484D01*
X166720863Y-131235715D01*
X166649304Y-131154647D01*
X166599950Y-131115327D01*
X166547764Y-131082840D01*
X166513837Y-131067537D01*
X166443425Y-131051603D01*
X166364631Y-131046429D01*
X166288091Y-131051885D01*
X166224435Y-131067842D01*
X166216650Y-131071136D01*
X166139569Y-131120157D01*
X166078501Y-131187347D01*
X166033731Y-131268723D01*
X166005547Y-131360304D01*
X165994233Y-131458107D01*
X165889854Y-131458107D01*
X165902450Y-131369609D01*
X165930455Y-131287320D01*
X165982293Y-131197589D01*
X166045945Y-131127203D01*
X166127694Y-131069818D01*
X166166031Y-131049497D01*
X166215244Y-131025914D01*
X166253479Y-131010964D01*
X166289878Y-131002708D01*
X166333583Y-130999210D01*
X166393735Y-130998532D01*
X166406394Y-130998559D01*
G37*
G36*
X161854157Y-136291367D02*
G01*
X161873261Y-136294061D01*
X161873987Y-136294540D01*
X161870055Y-136307063D01*
X161851740Y-136325730D01*
X161838315Y-136344626D01*
X161815954Y-136385276D01*
X161786264Y-136444397D01*
X161750852Y-136518708D01*
X161711323Y-136604925D01*
X161673904Y-136689190D01*
X161634494Y-136778496D01*
X161598224Y-136859265D01*
X161566603Y-136928251D01*
X161541139Y-136982207D01*
X161523340Y-137017888D01*
X161514716Y-137032047D01*
X161514542Y-137032135D01*
X161506498Y-137021152D01*
X161489276Y-136988353D01*
X161464370Y-136936904D01*
X161433276Y-136869970D01*
X161397491Y-136790718D01*
X161358509Y-136702312D01*
X161356156Y-136696913D01*
X161309994Y-136591459D01*
X161272745Y-136508156D01*
X161242780Y-136444115D01*
X161218475Y-136396450D01*
X161198200Y-136362274D01*
X161180331Y-136338697D01*
X161163240Y-136322833D01*
X161145301Y-136311795D01*
X161136951Y-136307826D01*
X161130848Y-136301230D01*
X161147513Y-136296358D01*
X161188727Y-136292847D01*
X161216715Y-136291577D01*
X161281466Y-136290600D01*
X161320256Y-136293760D01*
X161334013Y-136301296D01*
X161323659Y-136313450D01*
X161316811Y-136317576D01*
X161297066Y-136337945D01*
X161293154Y-136351482D01*
X161298438Y-136371903D01*
X161312987Y-136410766D01*
X161334853Y-136463823D01*
X161362085Y-136526826D01*
X161392733Y-136595526D01*
X161424846Y-136665675D01*
X161456474Y-136733023D01*
X161485667Y-136793324D01*
X161510474Y-136842327D01*
X161528946Y-136875785D01*
X161539131Y-136889449D01*
X161540071Y-136889372D01*
X161550990Y-136870754D01*
X161569108Y-136831580D01*
X161592464Y-136776870D01*
X161619098Y-136711642D01*
X161647052Y-136640917D01*
X161674364Y-136569713D01*
X161699075Y-136503051D01*
X161719226Y-136445950D01*
X161732855Y-136403428D01*
X161737786Y-136382998D01*
X161740333Y-136347580D01*
X161732175Y-136328128D01*
X161708496Y-136314091D01*
X161705781Y-136312883D01*
X161687782Y-136304055D01*
X161685329Y-136298527D01*
X161701777Y-136295128D01*
X161740477Y-136292684D01*
X161766795Y-136291554D01*
X161816227Y-136290463D01*
X161854157Y-136291367D01*
G37*
G36*
X170158658Y-136283183D02*
G01*
X170264949Y-136307470D01*
X170286418Y-136315161D01*
X170328031Y-136328692D01*
X170360668Y-136335238D01*
X170372459Y-136334706D01*
X170383646Y-136340062D01*
X170392290Y-136367657D01*
X170398500Y-136412517D01*
X170402320Y-136457278D01*
X170403488Y-136489839D01*
X170402056Y-136502204D01*
X170392507Y-136495204D01*
X170374764Y-136471366D01*
X170366847Y-136459026D01*
X170316268Y-136399989D01*
X170247556Y-136351164D01*
X170169155Y-136317148D01*
X170089509Y-136302535D01*
X170078819Y-136302299D01*
X170003859Y-136313579D01*
X169938054Y-136348620D01*
X169888314Y-136396407D01*
X169840393Y-136472040D01*
X169814399Y-136557260D01*
X169809296Y-136647136D01*
X169824050Y-136736735D01*
X169857626Y-136821128D01*
X169908991Y-136895381D01*
X169977110Y-136954564D01*
X170009298Y-136973156D01*
X170070052Y-136992108D01*
X170136510Y-136994204D01*
X170201965Y-136981330D01*
X170259711Y-136955369D01*
X170303042Y-136918207D01*
X170321612Y-136885391D01*
X170336553Y-136823538D01*
X170338914Y-136765594D01*
X170329768Y-136716950D01*
X170310185Y-136682995D01*
X170281240Y-136669119D01*
X170278571Y-136669037D01*
X170252884Y-136664429D01*
X170244277Y-136655454D01*
X170257027Y-136648796D01*
X170292026Y-136644187D01*
X170344395Y-136642204D01*
X170356336Y-136642174D01*
X170410912Y-136642542D01*
X170442195Y-136644099D01*
X170454060Y-136648068D01*
X170450381Y-136655671D01*
X170436058Y-136667341D01*
X170420177Y-136681761D01*
X170410722Y-136699372D01*
X170406224Y-136726880D01*
X170405215Y-136770989D01*
X170405641Y-136806264D01*
X170407562Y-136920321D01*
X170305886Y-136964944D01*
X170217804Y-136996074D01*
X170128768Y-137014160D01*
X170046916Y-137018022D01*
X169992994Y-137010322D01*
X169908235Y-136974910D01*
X169834759Y-136918735D01*
X169778545Y-136846913D01*
X169760814Y-136811658D01*
X169742328Y-136742074D01*
X169737252Y-136659871D01*
X169745326Y-136575908D01*
X169766292Y-136501041D01*
X169768346Y-136496167D01*
X169818226Y-136412252D01*
X169885007Y-136348015D01*
X169965878Y-136304437D01*
X170058032Y-136282499D01*
X170158658Y-136283183D01*
G37*
G36*
X164810135Y-131006570D02*
G01*
X164866216Y-131011275D01*
X164896646Y-131018957D01*
X164901005Y-131029486D01*
X164878871Y-131042732D01*
X164866186Y-131047502D01*
X164832545Y-131065178D01*
X164810835Y-131087006D01*
X164807134Y-131107428D01*
X164803911Y-131152199D01*
X164801254Y-131218507D01*
X164799248Y-131303538D01*
X164797981Y-131404479D01*
X164797539Y-131518516D01*
X164797539Y-131518567D01*
X164797707Y-131636733D01*
X164798303Y-131730586D01*
X164799465Y-131802977D01*
X164801333Y-131856755D01*
X164804044Y-131894773D01*
X164807737Y-131919879D01*
X164812550Y-131934927D01*
X164818126Y-131942369D01*
X164839984Y-131951032D01*
X164880833Y-131954744D01*
X164944142Y-131953754D01*
X164964142Y-131952788D01*
X165074226Y-131939724D01*
X165165287Y-131913691D01*
X165234986Y-131875479D01*
X165260389Y-131852806D01*
X165284628Y-131830273D01*
X165301733Y-131820007D01*
X165302474Y-131819946D01*
X165313279Y-131829558D01*
X165310217Y-131854525D01*
X165296461Y-131889047D01*
X165275184Y-131927324D01*
X165249561Y-131963556D01*
X165222764Y-131991943D01*
X165200777Y-132005812D01*
X165178025Y-132009284D01*
X165134371Y-132012069D01*
X165074564Y-132014168D01*
X165003357Y-132015580D01*
X164925501Y-132016306D01*
X164845748Y-132016344D01*
X164768849Y-132015697D01*
X164699555Y-132014363D01*
X164642618Y-132012342D01*
X164602790Y-132009635D01*
X164584821Y-132006241D01*
X164584371Y-132005807D01*
X164581425Y-131992964D01*
X164582249Y-131992225D01*
X164596361Y-131984954D01*
X164624386Y-131970571D01*
X164627593Y-131968927D01*
X164658428Y-131945354D01*
X164674790Y-131908986D01*
X164677913Y-131894222D01*
X164681336Y-131861360D01*
X164683988Y-131807952D01*
X164685893Y-131738326D01*
X164687075Y-131656816D01*
X164687559Y-131567752D01*
X164687370Y-131475466D01*
X164686532Y-131384288D01*
X164685069Y-131298551D01*
X164683006Y-131222586D01*
X164680367Y-131160724D01*
X164677178Y-131117296D01*
X164673461Y-131096634D01*
X164673403Y-131096521D01*
X164651871Y-131073966D01*
X164617617Y-131053172D01*
X164613077Y-131051181D01*
X164579521Y-131034724D01*
X164568565Y-131022303D01*
X164581188Y-131013528D01*
X164618367Y-131008008D01*
X164681081Y-131005354D01*
X164728823Y-131004973D01*
X164810135Y-131006570D01*
G37*
G36*
X162206961Y-136271151D02*
G01*
X162213540Y-136283149D01*
X162222147Y-136302752D01*
X162238993Y-136343843D01*
X162262540Y-136402566D01*
X162291248Y-136475063D01*
X162323577Y-136557479D01*
X162345868Y-136614706D01*
X162388774Y-136723671D01*
X162424114Y-136809514D01*
X162453264Y-136874766D01*
X162477600Y-136921958D01*
X162498497Y-136953620D01*
X162517329Y-136972283D01*
X162535472Y-136980479D01*
X162545148Y-136981444D01*
X162565900Y-136987614D01*
X162569946Y-136995027D01*
X162557123Y-137001535D01*
X162521629Y-137006178D01*
X162467922Y-137008459D01*
X162447700Y-137008610D01*
X162386803Y-137006882D01*
X162345346Y-137002134D01*
X162325321Y-136995016D01*
X162328716Y-136986179D01*
X162352620Y-136977508D01*
X162372621Y-136964955D01*
X162378270Y-136939450D01*
X162369314Y-136897968D01*
X162345501Y-136837484D01*
X162339888Y-136824942D01*
X162299992Y-136736952D01*
X162163506Y-136736952D01*
X162027021Y-136736952D01*
X161985287Y-136819627D01*
X161958255Y-136881718D01*
X161949468Y-136926587D01*
X161958873Y-136957095D01*
X161982486Y-136974478D01*
X162008222Y-136989207D01*
X162008096Y-136999680D01*
X161981775Y-137006073D01*
X161928928Y-137008562D01*
X161917967Y-137008610D01*
X161871100Y-137007636D01*
X161837141Y-137005074D01*
X161822961Y-137001462D01*
X161822887Y-137001167D01*
X161832025Y-136988024D01*
X161854275Y-136966025D01*
X161856756Y-136963814D01*
X161873197Y-136941575D01*
X161898672Y-136896899D01*
X161931825Y-136832450D01*
X161971303Y-136750892D01*
X161999646Y-136689672D01*
X162053796Y-136689672D01*
X162066306Y-136692705D01*
X162099551Y-136694989D01*
X162147103Y-136696138D01*
X162162459Y-136696203D01*
X162218795Y-136695148D01*
X162252577Y-136691440D01*
X162268354Y-136684264D01*
X162271122Y-136676755D01*
X162266499Y-136654953D01*
X162254426Y-136615929D01*
X162237594Y-136567039D01*
X162218696Y-136515638D01*
X162200425Y-136469080D01*
X162185473Y-136434722D01*
X162177338Y-136420556D01*
X162169439Y-136428898D01*
X162153925Y-136456408D01*
X162133527Y-136497136D01*
X162110977Y-136545133D01*
X162089007Y-136594447D01*
X162070348Y-136639129D01*
X162057731Y-136673228D01*
X162053796Y-136689672D01*
X161999646Y-136689672D01*
X162015750Y-136654889D01*
X162031104Y-136620878D01*
X162070207Y-136533989D01*
X162106256Y-136454339D01*
X162137575Y-136385600D01*
X162162484Y-136331443D01*
X162179308Y-136295538D01*
X162185756Y-136282530D01*
X162197705Y-136264829D01*
X162206961Y-136271151D01*
G37*
G36*
X167387325Y-136289748D02*
G01*
X167454522Y-136292252D01*
X167516426Y-136296382D01*
X167567638Y-136302118D01*
X167578270Y-136303824D01*
X167674984Y-136332226D01*
X167753228Y-136380543D01*
X167813028Y-136448792D01*
X167829420Y-136477032D01*
X167860816Y-136564782D01*
X167868351Y-136655899D01*
X167853686Y-136745580D01*
X167818480Y-136829021D01*
X167764396Y-136901419D01*
X167693092Y-136957969D01*
X167656737Y-136976574D01*
X167625865Y-136986881D01*
X167584312Y-136994561D01*
X167527476Y-137000129D01*
X167450759Y-137004102D01*
X167395267Y-137005879D01*
X167323762Y-137007094D01*
X167262940Y-137006735D01*
X167217453Y-137004942D01*
X167191951Y-137001853D01*
X167188128Y-136999699D01*
X167199086Y-136985846D01*
X167218689Y-136974478D01*
X167228674Y-136969371D01*
X167236257Y-136961642D01*
X167241824Y-136947788D01*
X167245760Y-136924303D01*
X167248450Y-136887683D01*
X167250282Y-136834423D01*
X167251641Y-136761020D01*
X167252564Y-136690526D01*
X167321812Y-136690526D01*
X167323348Y-136767222D01*
X167326482Y-136835623D01*
X167331229Y-136890710D01*
X167337606Y-136927463D01*
X167343462Y-136939974D01*
X167389258Y-136964020D01*
X167455431Y-136976057D01*
X167530510Y-136977160D01*
X167586693Y-136972898D01*
X167627604Y-136962756D01*
X167665030Y-136943277D01*
X167679922Y-136933311D01*
X167726015Y-136892035D01*
X167764140Y-136841901D01*
X167769754Y-136831850D01*
X167786104Y-136795925D01*
X167794884Y-136761492D01*
X167797579Y-136718890D01*
X167795869Y-136662246D01*
X167781972Y-136560279D01*
X167750391Y-136477649D01*
X167699510Y-136411790D01*
X167627714Y-136360134D01*
X167595614Y-136344147D01*
X167543691Y-136327147D01*
X167484667Y-136317635D01*
X167426672Y-136315836D01*
X167377838Y-136321975D01*
X167346294Y-136336278D01*
X167345301Y-136337227D01*
X167337569Y-136358290D01*
X167331344Y-136401173D01*
X167326640Y-136460858D01*
X167323473Y-136532324D01*
X167321859Y-136610553D01*
X167321812Y-136690526D01*
X167252564Y-136690526D01*
X167252912Y-136663968D01*
X167252917Y-136663614D01*
X167253928Y-136564794D01*
X167254064Y-136489546D01*
X167253112Y-136434286D01*
X167250861Y-136395428D01*
X167247098Y-136369388D01*
X167241612Y-136352580D01*
X167234190Y-136341419D01*
X167233833Y-136341021D01*
X167206510Y-136321341D01*
X167186022Y-136315882D01*
X167165120Y-136309770D01*
X167160962Y-136302299D01*
X167173617Y-136296380D01*
X167207981Y-136292185D01*
X167258654Y-136289695D01*
X167320235Y-136288889D01*
X167387325Y-136289748D01*
G37*
G36*
X168519251Y-136328354D02*
G01*
X168514935Y-136373761D01*
X168503399Y-136403123D01*
X168490632Y-136410962D01*
X168480510Y-136399670D01*
X168478502Y-136385902D01*
X168471184Y-136354921D01*
X168447235Y-136333808D01*
X168403662Y-136321311D01*
X168337472Y-136316176D01*
X168311301Y-136315882D01*
X168257192Y-136316183D01*
X168220033Y-136319925D01*
X168196831Y-136331373D01*
X168184590Y-136354787D01*
X168180315Y-136394431D01*
X168181013Y-136454567D01*
X168182475Y-136499251D01*
X168186470Y-136621497D01*
X168274339Y-136625618D01*
X168341847Y-136626812D01*
X168387170Y-136622007D01*
X168414879Y-136609899D01*
X168429547Y-136589181D01*
X168432227Y-136580542D01*
X168442605Y-136551633D01*
X168451957Y-136547982D01*
X168459368Y-136567678D01*
X168463922Y-136608812D01*
X168464919Y-136648663D01*
X168462869Y-136703467D01*
X168457330Y-136738149D01*
X168449218Y-136750799D01*
X168439449Y-136739509D01*
X168432227Y-136716784D01*
X168420760Y-136693043D01*
X168397711Y-136678328D01*
X168358509Y-136671334D01*
X168298581Y-136670754D01*
X168274339Y-136671708D01*
X168186470Y-136675829D01*
X168182565Y-136801413D01*
X168181454Y-136874338D01*
X168185151Y-136924436D01*
X168196204Y-136955950D01*
X168217160Y-136973123D01*
X168250567Y-136980198D01*
X168290639Y-136981444D01*
X168387693Y-136973618D01*
X168464767Y-136949655D01*
X168521961Y-136910998D01*
X168551891Y-136884070D01*
X168567267Y-136874946D01*
X168572886Y-136882362D01*
X168573582Y-136897405D01*
X168564288Y-136921787D01*
X168541091Y-136952588D01*
X168531980Y-136961924D01*
X168490377Y-137001818D01*
X168267113Y-137006128D01*
X168192693Y-137006917D01*
X168128789Y-137006357D01*
X168079883Y-137004590D01*
X168050458Y-137001754D01*
X168043849Y-136999162D01*
X168054796Y-136985729D01*
X168074411Y-136974478D01*
X168084345Y-136969405D01*
X168091901Y-136961737D01*
X168097460Y-136947990D01*
X168101401Y-136924683D01*
X168104101Y-136888334D01*
X168105940Y-136835460D01*
X168107297Y-136762581D01*
X168108550Y-136666214D01*
X168108625Y-136660077D01*
X168109612Y-136560214D01*
X168109706Y-136484034D01*
X168108713Y-136428065D01*
X168106440Y-136388833D01*
X168102693Y-136362866D01*
X168097281Y-136346690D01*
X168090676Y-136337483D01*
X168061813Y-136319806D01*
X168042879Y-136315882D01*
X168021340Y-136310006D01*
X168016684Y-136302299D01*
X168029964Y-136297161D01*
X168068637Y-136293155D01*
X168130947Y-136290376D01*
X168215140Y-136288920D01*
X168267967Y-136288717D01*
X168519251Y-136288717D01*
X168519251Y-136328354D01*
G37*
G36*
X159237241Y-136290219D02*
G01*
X159277058Y-136294350D01*
X159295684Y-136300549D01*
X159296470Y-136302299D01*
X159285502Y-136314428D01*
X159276573Y-136315882D01*
X159262165Y-136319040D01*
X159250891Y-136330403D01*
X159242385Y-136352810D01*
X159236282Y-136389095D01*
X159232216Y-136442096D01*
X159229822Y-136514649D01*
X159228735Y-136609591D01*
X159228555Y-136688519D01*
X159228061Y-136781013D01*
X159226666Y-136862349D01*
X159224503Y-136929021D01*
X159221708Y-136977526D01*
X159218412Y-137004357D01*
X159216373Y-137008610D01*
X159204455Y-136998828D01*
X159177168Y-136971278D01*
X159137015Y-136928652D01*
X159086498Y-136873641D01*
X159028119Y-136808936D01*
X158970135Y-136743743D01*
X158907121Y-136672645D01*
X158850144Y-136608760D01*
X158801622Y-136554767D01*
X158763975Y-136513346D01*
X158739620Y-136487178D01*
X158731034Y-136478877D01*
X158729404Y-136491737D01*
X158727994Y-136527426D01*
X158726894Y-136581609D01*
X158726197Y-136649948D01*
X158725989Y-136717757D01*
X158725989Y-136956638D01*
X158766737Y-136972019D01*
X158798263Y-136986698D01*
X158804118Y-136997470D01*
X158783938Y-137004533D01*
X158737356Y-137008082D01*
X158698823Y-137008610D01*
X158648360Y-137007417D01*
X158610361Y-137004247D01*
X158591251Y-136999713D01*
X158590160Y-136998248D01*
X158601068Y-136985479D01*
X158620480Y-136974478D01*
X158642632Y-136961916D01*
X158659159Y-136944071D01*
X158670768Y-136917268D01*
X158678164Y-136877833D01*
X158682053Y-136822094D01*
X158683140Y-136746375D01*
X158682227Y-136653016D01*
X158680603Y-136565572D01*
X158678554Y-136500927D01*
X158675578Y-136454715D01*
X158671171Y-136422571D01*
X158664834Y-136400127D01*
X158656064Y-136383018D01*
X158650217Y-136374567D01*
X158622074Y-136343984D01*
X158593208Y-136323183D01*
X158592490Y-136322849D01*
X158567151Y-136307094D01*
X158568083Y-136295660D01*
X158594600Y-136289510D01*
X158616809Y-136288717D01*
X158633041Y-136289267D01*
X158648165Y-136292391D01*
X158664574Y-136300292D01*
X158684661Y-136315179D01*
X158710819Y-136339256D01*
X158745441Y-136374730D01*
X158790919Y-136423807D01*
X158849647Y-136488693D01*
X158924017Y-136571594D01*
X158925820Y-136573606D01*
X159181015Y-136858496D01*
X159184743Y-136633876D01*
X159185630Y-136537204D01*
X159184065Y-136464015D01*
X159179171Y-136410669D01*
X159170067Y-136373530D01*
X159155875Y-136348959D01*
X159135717Y-136333319D01*
X159109705Y-136323261D01*
X159075587Y-136310568D01*
X159068175Y-136300618D01*
X159087135Y-136293571D01*
X159132130Y-136289591D01*
X159181015Y-136288717D01*
X159237241Y-136290219D01*
G37*
G36*
X160092963Y-136290219D02*
G01*
X160132780Y-136294350D01*
X160151406Y-136300549D01*
X160152192Y-136302299D01*
X160141224Y-136314428D01*
X160132295Y-136315882D01*
X160117887Y-136319040D01*
X160106613Y-136330403D01*
X160098107Y-136352810D01*
X160092004Y-136389095D01*
X160087938Y-136442096D01*
X160085544Y-136514649D01*
X160084457Y-136609591D01*
X160084277Y-136688519D01*
X160083783Y-136781013D01*
X160082387Y-136862349D01*
X160080225Y-136929021D01*
X160077429Y-136977526D01*
X160074133Y-137004357D01*
X160072095Y-137008610D01*
X160060177Y-136998828D01*
X160032890Y-136971278D01*
X159992737Y-136928652D01*
X159942220Y-136873641D01*
X159883841Y-136808936D01*
X159825857Y-136743743D01*
X159762843Y-136672645D01*
X159705866Y-136608760D01*
X159657344Y-136554767D01*
X159619697Y-136513346D01*
X159595342Y-136487178D01*
X159586756Y-136478877D01*
X159585126Y-136491737D01*
X159583716Y-136527426D01*
X159582616Y-136581609D01*
X159581919Y-136649948D01*
X159581710Y-136717757D01*
X159581710Y-136956638D01*
X159622459Y-136972019D01*
X159653985Y-136986698D01*
X159659840Y-136997470D01*
X159639660Y-137004533D01*
X159593078Y-137008082D01*
X159554545Y-137008610D01*
X159504082Y-137007417D01*
X159466082Y-137004247D01*
X159446973Y-136999713D01*
X159445882Y-136998248D01*
X159456790Y-136985479D01*
X159476202Y-136974478D01*
X159498354Y-136961916D01*
X159514881Y-136944071D01*
X159526490Y-136917268D01*
X159533886Y-136877833D01*
X159537775Y-136822094D01*
X159538862Y-136746375D01*
X159537949Y-136653016D01*
X159536325Y-136565572D01*
X159534276Y-136500927D01*
X159531299Y-136454715D01*
X159526893Y-136422571D01*
X159520556Y-136400127D01*
X159511786Y-136383018D01*
X159505939Y-136374567D01*
X159477796Y-136343984D01*
X159448930Y-136323183D01*
X159448212Y-136322849D01*
X159422873Y-136307094D01*
X159423805Y-136295660D01*
X159450322Y-136289510D01*
X159472531Y-136288717D01*
X159488763Y-136289267D01*
X159503887Y-136292391D01*
X159520296Y-136300292D01*
X159540383Y-136315179D01*
X159566541Y-136339256D01*
X159601163Y-136374730D01*
X159646641Y-136423807D01*
X159705369Y-136488693D01*
X159779739Y-136571594D01*
X159781542Y-136573606D01*
X160036737Y-136858496D01*
X160040465Y-136633876D01*
X160041352Y-136537204D01*
X160039787Y-136464015D01*
X160034893Y-136410669D01*
X160025789Y-136373530D01*
X160011597Y-136348959D01*
X159991439Y-136333319D01*
X159965427Y-136323261D01*
X159931309Y-136310568D01*
X159923897Y-136300618D01*
X159942857Y-136293571D01*
X159987852Y-136289591D01*
X160036737Y-136288717D01*
X160092963Y-136290219D01*
G37*
G36*
X165295209Y-136290219D02*
G01*
X165335026Y-136294350D01*
X165353652Y-136300549D01*
X165354438Y-136302299D01*
X165343470Y-136314428D01*
X165334541Y-136315882D01*
X165320133Y-136319040D01*
X165308859Y-136330403D01*
X165300353Y-136352810D01*
X165294250Y-136389095D01*
X165290184Y-136442096D01*
X165287790Y-136514649D01*
X165286703Y-136609591D01*
X165286523Y-136688519D01*
X165286029Y-136781013D01*
X165284633Y-136862349D01*
X165282471Y-136929021D01*
X165279675Y-136977526D01*
X165276379Y-137004357D01*
X165274341Y-137008610D01*
X165262423Y-136998828D01*
X165235136Y-136971278D01*
X165194983Y-136928652D01*
X165144466Y-136873641D01*
X165086087Y-136808936D01*
X165028103Y-136743743D01*
X164965089Y-136672645D01*
X164908112Y-136608760D01*
X164859590Y-136554767D01*
X164821943Y-136513346D01*
X164797588Y-136487178D01*
X164789002Y-136478877D01*
X164787372Y-136491737D01*
X164785962Y-136527426D01*
X164784862Y-136581609D01*
X164784165Y-136649948D01*
X164783956Y-136717757D01*
X164783956Y-136956638D01*
X164824705Y-136972019D01*
X164856231Y-136986698D01*
X164862086Y-136997470D01*
X164841906Y-137004533D01*
X164795323Y-137008082D01*
X164756791Y-137008610D01*
X164706328Y-137007417D01*
X164668328Y-137004247D01*
X164649219Y-136999713D01*
X164648128Y-136998248D01*
X164659036Y-136985479D01*
X164678448Y-136974478D01*
X164700600Y-136961916D01*
X164717127Y-136944071D01*
X164728736Y-136917268D01*
X164736132Y-136877833D01*
X164740021Y-136822094D01*
X164741108Y-136746375D01*
X164740195Y-136653016D01*
X164738571Y-136565572D01*
X164736522Y-136500927D01*
X164733545Y-136454715D01*
X164729139Y-136422571D01*
X164722802Y-136400127D01*
X164714032Y-136383018D01*
X164708185Y-136374567D01*
X164680042Y-136343984D01*
X164651176Y-136323183D01*
X164650458Y-136322849D01*
X164625119Y-136307094D01*
X164626051Y-136295660D01*
X164652568Y-136289510D01*
X164674777Y-136288717D01*
X164691009Y-136289267D01*
X164706133Y-136292391D01*
X164722542Y-136300292D01*
X164742629Y-136315179D01*
X164768787Y-136339256D01*
X164803409Y-136374730D01*
X164848887Y-136423807D01*
X164907615Y-136488693D01*
X164981985Y-136571594D01*
X164983788Y-136573606D01*
X165238983Y-136858496D01*
X165242711Y-136633876D01*
X165243598Y-136537204D01*
X165242033Y-136464015D01*
X165237139Y-136410669D01*
X165228035Y-136373530D01*
X165213843Y-136348959D01*
X165193685Y-136333319D01*
X165167673Y-136323261D01*
X165133555Y-136310568D01*
X165126143Y-136300618D01*
X165145103Y-136293571D01*
X165190098Y-136289591D01*
X165238983Y-136288717D01*
X165295209Y-136290219D01*
G37*
G36*
X171258097Y-136290219D02*
G01*
X171297913Y-136294350D01*
X171316539Y-136300549D01*
X171317325Y-136302299D01*
X171306358Y-136314428D01*
X171297429Y-136315882D01*
X171283021Y-136319040D01*
X171271746Y-136330403D01*
X171263240Y-136352810D01*
X171257137Y-136389095D01*
X171253072Y-136442096D01*
X171250678Y-136514649D01*
X171249591Y-136609591D01*
X171249411Y-136688519D01*
X171248916Y-136781013D01*
X171247521Y-136862349D01*
X171245359Y-136929021D01*
X171242563Y-136977526D01*
X171239267Y-137004357D01*
X171237229Y-137008610D01*
X171225310Y-136998828D01*
X171198023Y-136971278D01*
X171157870Y-136928652D01*
X171107353Y-136873641D01*
X171048975Y-136808936D01*
X170990990Y-136743743D01*
X170927977Y-136672645D01*
X170871000Y-136608760D01*
X170822478Y-136554767D01*
X170784830Y-136513346D01*
X170760476Y-136487178D01*
X170751889Y-136478877D01*
X170750260Y-136491737D01*
X170748850Y-136527426D01*
X170747750Y-136581609D01*
X170747052Y-136649948D01*
X170746844Y-136717757D01*
X170746844Y-136956638D01*
X170787593Y-136972019D01*
X170819119Y-136986698D01*
X170824974Y-136997470D01*
X170804794Y-137004533D01*
X170758211Y-137008082D01*
X170719678Y-137008610D01*
X170669216Y-137007417D01*
X170631216Y-137004247D01*
X170612106Y-136999713D01*
X170611015Y-136998248D01*
X170621924Y-136985479D01*
X170641336Y-136974478D01*
X170663487Y-136961916D01*
X170680015Y-136944071D01*
X170691624Y-136917268D01*
X170699020Y-136877833D01*
X170702909Y-136822094D01*
X170703996Y-136746375D01*
X170703083Y-136653016D01*
X170701459Y-136565572D01*
X170699410Y-136500927D01*
X170696433Y-136454715D01*
X170692027Y-136422571D01*
X170685690Y-136400127D01*
X170676919Y-136383018D01*
X170671073Y-136374567D01*
X170642929Y-136343984D01*
X170614064Y-136323183D01*
X170613345Y-136322849D01*
X170588006Y-136307094D01*
X170588939Y-136295660D01*
X170615456Y-136289510D01*
X170637665Y-136288717D01*
X170653897Y-136289267D01*
X170669021Y-136292391D01*
X170685430Y-136300292D01*
X170705517Y-136315179D01*
X170731675Y-136339256D01*
X170766297Y-136374730D01*
X170811775Y-136423807D01*
X170870503Y-136488693D01*
X170944873Y-136571594D01*
X170946676Y-136573606D01*
X171201871Y-136858496D01*
X171205599Y-136633876D01*
X171206486Y-136537204D01*
X171204921Y-136464015D01*
X171200026Y-136410669D01*
X171190923Y-136373530D01*
X171176731Y-136348959D01*
X171156573Y-136333319D01*
X171130561Y-136323261D01*
X171096442Y-136310568D01*
X171089031Y-136300618D01*
X171107991Y-136293571D01*
X171152986Y-136289591D01*
X171201871Y-136288717D01*
X171258097Y-136290219D01*
G37*
G36*
X171123697Y-131094515D02*
G01*
X171117908Y-131142655D01*
X171109848Y-131180436D01*
X171101908Y-131198658D01*
X171091397Y-131205532D01*
X171083233Y-131198033D01*
X171074816Y-131171628D01*
X171067016Y-131137798D01*
X171056942Y-131111190D01*
X171037517Y-131092344D01*
X171004631Y-131079924D01*
X170954174Y-131072590D01*
X170882038Y-131069006D01*
X170853973Y-131068436D01*
X170785260Y-131068091D01*
X170739019Y-131069965D01*
X170710611Y-131074573D01*
X170695397Y-131082433D01*
X170692050Y-131086471D01*
X170687358Y-131107197D01*
X170683952Y-131149228D01*
X170682121Y-131206721D01*
X170682153Y-131273831D01*
X170682318Y-131283422D01*
X170685721Y-131460000D01*
X170811305Y-131463905D01*
X170885386Y-131464318D01*
X170937388Y-131459092D01*
X170972100Y-131446610D01*
X170994308Y-131425260D01*
X171007321Y-131397825D01*
X171021228Y-131366323D01*
X171031945Y-131361021D01*
X171039544Y-131382118D01*
X171044094Y-131429815D01*
X171045666Y-131504315D01*
X171045668Y-131507540D01*
X171044446Y-131577249D01*
X171040950Y-131626690D01*
X171035431Y-131653160D01*
X171031745Y-131656952D01*
X171019575Y-131645215D01*
X171009830Y-131616987D01*
X171009812Y-131616897D01*
X170999440Y-131581654D01*
X170981890Y-131558001D01*
X170952491Y-131543990D01*
X170906577Y-131537671D01*
X170839480Y-131537095D01*
X170819914Y-131537588D01*
X170685721Y-131541497D01*
X170681951Y-131726917D01*
X170680588Y-131811640D01*
X170682255Y-131872847D01*
X170689630Y-131914184D01*
X170705388Y-131939298D01*
X170732206Y-131951838D01*
X170772761Y-131955449D01*
X170829728Y-131953779D01*
X170847802Y-131952918D01*
X170957046Y-131940192D01*
X171047819Y-131913815D01*
X171117634Y-131874633D01*
X171141779Y-131852806D01*
X171171008Y-131826312D01*
X171188115Y-131823162D01*
X171194825Y-131843324D01*
X171195079Y-131851866D01*
X171186801Y-131881289D01*
X171165976Y-131921115D01*
X171138619Y-131961908D01*
X171110745Y-131994235D01*
X171097501Y-132004909D01*
X171079476Y-132008106D01*
X171039586Y-132010817D01*
X170982523Y-132013018D01*
X170912976Y-132014686D01*
X170835639Y-132015799D01*
X170755203Y-132016332D01*
X170676358Y-132016262D01*
X170603797Y-132015567D01*
X170542211Y-132014222D01*
X170496291Y-132012205D01*
X170470729Y-132009492D01*
X170467119Y-132008041D01*
X170474080Y-131996384D01*
X170498118Y-131977983D01*
X170508725Y-131971405D01*
X170541157Y-131945859D01*
X170561719Y-131917875D01*
X170563653Y-131912348D01*
X170565543Y-131891021D01*
X170566990Y-131846303D01*
X170567959Y-131781963D01*
X170568415Y-131701772D01*
X170568325Y-131609502D01*
X170567654Y-131508922D01*
X170567487Y-131491965D01*
X170566194Y-131378125D01*
X170564787Y-131288322D01*
X170563045Y-131219427D01*
X170560751Y-131168311D01*
X170557684Y-131131845D01*
X170553626Y-131106901D01*
X170548357Y-131090349D01*
X170541659Y-131079062D01*
X170538287Y-131075050D01*
X170509171Y-131052400D01*
X170485019Y-131043085D01*
X170459685Y-131032460D01*
X170451348Y-131021952D01*
X170455187Y-131016523D01*
X170472363Y-131012306D01*
X170505365Y-131009176D01*
X170556679Y-131007009D01*
X170628795Y-131005677D01*
X170724199Y-131005057D01*
X170788321Y-131004973D01*
X171130884Y-131004973D01*
X171123697Y-131094515D01*
G37*
G36*
X162013495Y-130995316D02*
G01*
X162030245Y-131030989D01*
X162054568Y-131086287D01*
X162085264Y-131158388D01*
X162121132Y-131244470D01*
X162160972Y-131341712D01*
X162203583Y-131447291D01*
X162205676Y-131452516D01*
X162248843Y-131559489D01*
X162289713Y-131659171D01*
X162327009Y-131748571D01*
X162359456Y-131824698D01*
X162385781Y-131884563D01*
X162404708Y-131925173D01*
X162414962Y-131943539D01*
X162415030Y-131943615D01*
X162444248Y-131963731D01*
X162483119Y-131977315D01*
X162484113Y-131977507D01*
X162513466Y-131986907D01*
X162525752Y-131998788D01*
X162525513Y-132000785D01*
X162510831Y-132007330D01*
X162475905Y-132012170D01*
X162427023Y-132015297D01*
X162370471Y-132016702D01*
X162312536Y-132016377D01*
X162259505Y-132014312D01*
X162217664Y-132010499D01*
X162193301Y-132004930D01*
X162189624Y-132001248D01*
X162201121Y-131986561D01*
X162229098Y-131971877D01*
X162232093Y-131970794D01*
X162260897Y-131957358D01*
X162269499Y-131939199D01*
X162266990Y-131918530D01*
X162256604Y-131880287D01*
X162239311Y-131829479D01*
X162217964Y-131773196D01*
X162195417Y-131718527D01*
X162174522Y-131672561D01*
X162158133Y-131642388D01*
X162153373Y-131636224D01*
X162138236Y-131627440D01*
X162110716Y-131621494D01*
X162066611Y-131617954D01*
X162001720Y-131616384D01*
X161959250Y-131616203D01*
X161880681Y-131616604D01*
X161823829Y-131619907D01*
X161783246Y-131629263D01*
X161753483Y-131647822D01*
X161729093Y-131678734D01*
X161704627Y-131725151D01*
X161680502Y-131777400D01*
X161651615Y-131847372D01*
X161638682Y-131898511D01*
X161642010Y-131934189D01*
X161661904Y-131957777D01*
X161698194Y-131972525D01*
X161727155Y-131984512D01*
X161738189Y-131998517D01*
X161737858Y-132000328D01*
X161723219Y-132007302D01*
X161689083Y-132012483D01*
X161642278Y-132015800D01*
X161589632Y-132017180D01*
X161537970Y-132016549D01*
X161494121Y-132013837D01*
X161464911Y-132008970D01*
X161456672Y-132003315D01*
X161467502Y-131987865D01*
X161493581Y-131967001D01*
X161500367Y-131962567D01*
X161512931Y-131952567D01*
X161526903Y-131936459D01*
X161543511Y-131911916D01*
X161563985Y-131876614D01*
X161589553Y-131828224D01*
X161621444Y-131764423D01*
X161660886Y-131682885D01*
X161709108Y-131581282D01*
X161724689Y-131548106D01*
X161802435Y-131548106D01*
X161802555Y-131548357D01*
X161818339Y-131553151D01*
X161854414Y-131556644D01*
X161903950Y-131558812D01*
X161960113Y-131559635D01*
X162016073Y-131559090D01*
X162064996Y-131557156D01*
X162100053Y-131553811D01*
X162114260Y-131549355D01*
X162112184Y-131533387D01*
X162101526Y-131498623D01*
X162084461Y-131450494D01*
X162063163Y-131394435D01*
X162039808Y-131335879D01*
X162016571Y-131280259D01*
X161995628Y-131233009D01*
X161979152Y-131199561D01*
X161969321Y-131185348D01*
X161968486Y-131185229D01*
X161958298Y-131198498D01*
X161940250Y-131231209D01*
X161916827Y-131277928D01*
X161890510Y-131333221D01*
X161863783Y-131391654D01*
X161839129Y-131447793D01*
X161819031Y-131496204D01*
X161805972Y-131531453D01*
X161802435Y-131548106D01*
X161724689Y-131548106D01*
X161767339Y-131457290D01*
X161767720Y-131456476D01*
X161817612Y-131350725D01*
X161864330Y-131253295D01*
X161906564Y-131166805D01*
X161943001Y-131093872D01*
X161972328Y-131037111D01*
X161993235Y-130999142D01*
X162004410Y-130982581D01*
X162005520Y-130982090D01*
X162013495Y-130995316D01*
G37*
G36*
X166196531Y-136300248D02*
G01*
X166231652Y-136308215D01*
X166257980Y-136307103D01*
X166258082Y-136307064D01*
X166270286Y-136307742D01*
X166276245Y-136325324D01*
X166277647Y-136364840D01*
X166277644Y-136365365D01*
X166277213Y-136431337D01*
X166249068Y-136393604D01*
X166207532Y-136351744D01*
X166161415Y-136326708D01*
X166115854Y-136318348D01*
X166075983Y-136326519D01*
X166046937Y-136351072D01*
X166033852Y-136391861D01*
X166033582Y-136399772D01*
X166043319Y-136428596D01*
X166070524Y-136471669D01*
X166112183Y-136525391D01*
X166165286Y-136586162D01*
X166226822Y-136650380D01*
X166293778Y-136714446D01*
X166306232Y-136725737D01*
X166355941Y-136769103D01*
X166389493Y-136793294D01*
X166410125Y-136798155D01*
X166421076Y-136783530D01*
X166425585Y-136749264D01*
X166426531Y-136719973D01*
X166418555Y-136674177D01*
X166396450Y-136637140D01*
X166365628Y-136616587D01*
X166352780Y-136614706D01*
X166334704Y-136607371D01*
X166332406Y-136601123D01*
X166345068Y-136594316D01*
X166379440Y-136589559D01*
X166430098Y-136587561D01*
X166436382Y-136587540D01*
X166488366Y-136587905D01*
X166517557Y-136589882D01*
X166528329Y-136594795D01*
X166525052Y-136603968D01*
X166517993Y-136612254D01*
X166502566Y-136639675D01*
X166488147Y-136682047D01*
X166482213Y-136707700D01*
X166471669Y-136753890D01*
X166459789Y-136792568D01*
X166453991Y-136806100D01*
X166446835Y-136825779D01*
X166450553Y-136844254D01*
X166468307Y-136865366D01*
X166503260Y-136892953D01*
X166554518Y-136928151D01*
X166602582Y-136958207D01*
X166636910Y-136973652D01*
X166664666Y-136977227D01*
X166678097Y-136975466D01*
X166704187Y-136971816D01*
X166707777Y-136977210D01*
X166701405Y-136984585D01*
X166677582Y-136994683D01*
X166635296Y-137000536D01*
X166606329Y-137001393D01*
X166554684Y-136998224D01*
X166513988Y-136986394D01*
X166470005Y-136961401D01*
X166461132Y-136955490D01*
X166423229Y-136930617D01*
X166399273Y-136919295D01*
X166380719Y-136919843D01*
X166359020Y-136930581D01*
X166352890Y-136934194D01*
X166295720Y-136966349D01*
X166251333Y-136986161D01*
X166210376Y-136997032D01*
X166166049Y-137002185D01*
X166116042Y-137003179D01*
X166070370Y-136999782D01*
X166053956Y-136996688D01*
X165969329Y-136963520D01*
X165906521Y-136914254D01*
X165865649Y-136849022D01*
X165846826Y-136767953D01*
X165846167Y-136759091D01*
X165845240Y-136718736D01*
X165910849Y-136718736D01*
X165923736Y-136781379D01*
X165947370Y-136820444D01*
X165986188Y-136863132D01*
X166031211Y-136900656D01*
X166067078Y-136921679D01*
X166123399Y-136936125D01*
X166190702Y-136939143D01*
X166255321Y-136930731D01*
X166283644Y-136921707D01*
X166322844Y-136901581D01*
X166336438Y-136881738D01*
X166325037Y-136857537D01*
X166295739Y-136829729D01*
X166264818Y-136802039D01*
X166221329Y-136760916D01*
X166171611Y-136712433D01*
X166132511Y-136673339D01*
X166086915Y-136628805D01*
X166046746Y-136592544D01*
X166016529Y-136568449D01*
X166001285Y-136560374D01*
X165980611Y-136570060D01*
X165953632Y-136594126D01*
X165946501Y-136602165D01*
X165918484Y-136655249D01*
X165910849Y-136718736D01*
X165845240Y-136718736D01*
X165844980Y-136707407D01*
X165850729Y-136671296D01*
X165865707Y-136639566D01*
X165872972Y-136628289D01*
X165907180Y-136590294D01*
X165949418Y-136559144D01*
X165955650Y-136555865D01*
X165986946Y-136539104D01*
X165997514Y-136526187D01*
X165991428Y-136509878D01*
X165986032Y-136501907D01*
X165967698Y-136455298D01*
X165967456Y-136402156D01*
X165984475Y-136354039D01*
X165997919Y-136336727D01*
X166039860Y-136310453D01*
X166096218Y-136294928D01*
X166155666Y-136292232D01*
X166196531Y-136300248D01*
G37*
G36*
X160757309Y-131005517D02*
G01*
X160802981Y-131007518D01*
X160829960Y-131011527D01*
X160842476Y-131018095D01*
X160844919Y-131025348D01*
X160834046Y-131043355D01*
X160824545Y-131045722D01*
X160800442Y-131054713D01*
X160777005Y-131072888D01*
X160769199Y-131081855D01*
X160763049Y-131093422D01*
X160758359Y-131110679D01*
X160754931Y-131136720D01*
X160752569Y-131174638D01*
X160751076Y-131227525D01*
X160750254Y-131298475D01*
X160749907Y-131390580D01*
X160749839Y-131499638D01*
X160750128Y-131602054D01*
X160750944Y-131696313D01*
X160752214Y-131778804D01*
X160753862Y-131845913D01*
X160755813Y-131894028D01*
X160757992Y-131919536D01*
X160758591Y-131922030D01*
X160775635Y-131940666D01*
X160808751Y-131961687D01*
X160827375Y-131970572D01*
X160860925Y-131987370D01*
X160879591Y-132001532D01*
X160881044Y-132006601D01*
X160864895Y-132011827D01*
X160828389Y-132015152D01*
X160777911Y-132016705D01*
X160719842Y-132016614D01*
X160660565Y-132015007D01*
X160606465Y-132012012D01*
X160563923Y-132007758D01*
X160539323Y-132002373D01*
X160535823Y-131999663D01*
X160543239Y-131985353D01*
X160565822Y-131975099D01*
X160593187Y-131965374D01*
X160613104Y-131949374D01*
X160626714Y-131923162D01*
X160635158Y-131882802D01*
X160639576Y-131824359D01*
X160641108Y-131743895D01*
X160641176Y-131715053D01*
X160641176Y-131521123D01*
X160362726Y-131521123D01*
X160084277Y-131521123D01*
X160084277Y-131723203D01*
X160084605Y-131806157D01*
X160086583Y-131866293D01*
X160091708Y-131907960D01*
X160101474Y-131935504D01*
X160117375Y-131953274D01*
X160140907Y-131965618D01*
X160171234Y-131976130D01*
X160204273Y-131989811D01*
X160210403Y-132000747D01*
X160189746Y-132008900D01*
X160142423Y-132014234D01*
X160068556Y-132016712D01*
X160035654Y-132016898D01*
X159970317Y-132016135D01*
X159915432Y-132014051D01*
X159876374Y-132010955D01*
X159858518Y-132007154D01*
X159858082Y-132006711D01*
X159858058Y-131986816D01*
X159876887Y-131972098D01*
X159892813Y-131969358D01*
X159920481Y-131959844D01*
X159939552Y-131944519D01*
X159945975Y-131934898D01*
X159951063Y-131919849D01*
X159954966Y-131896414D01*
X159957837Y-131861638D01*
X159959826Y-131812565D01*
X159961085Y-131746239D01*
X159961764Y-131659704D01*
X159962016Y-131550004D01*
X159962031Y-131505180D01*
X159962009Y-131383735D01*
X159961593Y-131286596D01*
X159960256Y-131210904D01*
X159957474Y-131153800D01*
X159952721Y-131112424D01*
X159945470Y-131083917D01*
X159935197Y-131065420D01*
X159921376Y-131054074D01*
X159903481Y-131047019D01*
X159880987Y-131041396D01*
X159876583Y-131040357D01*
X159852191Y-131030108D01*
X159846823Y-131018158D01*
X159862517Y-131012956D01*
X159898158Y-131009061D01*
X159947422Y-131006496D01*
X160003985Y-131005286D01*
X160061525Y-131005454D01*
X160113719Y-131007023D01*
X160154242Y-131010018D01*
X160176773Y-131014463D01*
X160179357Y-131016908D01*
X160168136Y-131029745D01*
X160140880Y-131044760D01*
X160138436Y-131045793D01*
X160107589Y-131066091D01*
X160090437Y-131091307D01*
X160090366Y-131091586D01*
X160087915Y-131115906D01*
X160086484Y-131161007D01*
X160086176Y-131220520D01*
X160087094Y-131288075D01*
X160087143Y-131290214D01*
X160091069Y-131460000D01*
X160362726Y-131460000D01*
X160634384Y-131460000D01*
X160638318Y-131297005D01*
X160639762Y-131214668D01*
X160638801Y-131155062D01*
X160634380Y-131113787D01*
X160625447Y-131086444D01*
X160610950Y-131068630D01*
X160589836Y-131055947D01*
X160579569Y-131051436D01*
X160545558Y-131034740D01*
X160534521Y-131022163D01*
X160547369Y-131013316D01*
X160585015Y-131007811D01*
X160648368Y-131005262D01*
X160688716Y-131004973D01*
X160757309Y-131005517D01*
G37*
G36*
X163285262Y-131006359D02*
G01*
X163347566Y-131007330D01*
X163438650Y-131009037D01*
X163507025Y-131010986D01*
X163557144Y-131013709D01*
X163593463Y-131017739D01*
X163620435Y-131023607D01*
X163642515Y-131031846D01*
X163664157Y-131042987D01*
X163669022Y-131045722D01*
X163728776Y-131093495D01*
X163765981Y-131156409D01*
X163780651Y-131234487D01*
X163780898Y-131250299D01*
X163768326Y-131326100D01*
X163734713Y-131395971D01*
X163684445Y-131451827D01*
X163663488Y-131466717D01*
X163633767Y-131487132D01*
X163617118Y-131502541D01*
X163615828Y-131505489D01*
X163622985Y-131519242D01*
X163642888Y-131551866D01*
X163673183Y-131599647D01*
X163711517Y-131658872D01*
X163755053Y-131725103D01*
X163806344Y-131801768D01*
X163846123Y-131858848D01*
X163877256Y-131899805D01*
X163902606Y-131928103D01*
X163925041Y-131947206D01*
X163947425Y-131960576D01*
X163951512Y-131962567D01*
X163985470Y-131980506D01*
X164006249Y-131994987D01*
X164009240Y-131999304D01*
X163998019Y-132011436D01*
X163968095Y-132017861D01*
X163927373Y-132018343D01*
X163883757Y-132012647D01*
X163853303Y-132003951D01*
X163826295Y-131992058D01*
X163801708Y-131976496D01*
X163776876Y-131954096D01*
X163749135Y-131921689D01*
X163715817Y-131876103D01*
X163674258Y-131814170D01*
X163621793Y-131732719D01*
X163611104Y-131715928D01*
X163572112Y-131656265D01*
X163536638Y-131605034D01*
X163507861Y-131566610D01*
X163488962Y-131545364D01*
X163485148Y-131542747D01*
X163452553Y-131536679D01*
X163407232Y-131534992D01*
X163363265Y-131537668D01*
X163338490Y-131542950D01*
X163329435Y-131550358D01*
X163323272Y-131567281D01*
X163319488Y-131598051D01*
X163317571Y-131647002D01*
X163317007Y-131718467D01*
X163317005Y-131724488D01*
X163318504Y-131810838D01*
X163324072Y-131874093D01*
X163335312Y-131918208D01*
X163353829Y-131947143D01*
X163381228Y-131964853D01*
X163418638Y-131975209D01*
X163450097Y-131985186D01*
X163465946Y-131998192D01*
X163466401Y-132000535D01*
X163457929Y-132007761D01*
X163430791Y-132012730D01*
X163382377Y-132015681D01*
X163310078Y-132016854D01*
X163288687Y-132016898D01*
X163222164Y-132016498D01*
X163166105Y-132015403D01*
X163125750Y-132013772D01*
X163106336Y-132011764D01*
X163105452Y-132011357D01*
X163107126Y-131997812D01*
X163122934Y-131980835D01*
X163143158Y-131969993D01*
X163148111Y-131969358D01*
X163168624Y-131959197D01*
X163187197Y-131939170D01*
X163193416Y-131926865D01*
X163198318Y-131907730D01*
X163202049Y-131878768D01*
X163204758Y-131836980D01*
X163206593Y-131779368D01*
X163207703Y-131702934D01*
X163208233Y-131604679D01*
X163208341Y-131510692D01*
X163208341Y-131318649D01*
X163317700Y-131318649D01*
X163318879Y-131378057D01*
X163321404Y-131425893D01*
X163325322Y-131455732D01*
X163327400Y-131461359D01*
X163356789Y-131482526D01*
X163405691Y-131492245D01*
X163468769Y-131490044D01*
X163527003Y-131479092D01*
X163575837Y-131459305D01*
X163618692Y-131429773D01*
X163624073Y-131424525D01*
X163646620Y-131396289D01*
X163659318Y-131364578D01*
X163665682Y-131319201D01*
X163666953Y-131300165D01*
X163663716Y-131222204D01*
X163642492Y-131162144D01*
X163601155Y-131115835D01*
X163559108Y-131089375D01*
X163510731Y-131070552D01*
X163456403Y-131058620D01*
X163403649Y-131054122D01*
X163359989Y-131057599D01*
X163332949Y-131069594D01*
X163330306Y-131072888D01*
X163325478Y-131093787D01*
X163321756Y-131135237D01*
X163319187Y-131190814D01*
X163317819Y-131254093D01*
X163317700Y-131318649D01*
X163208341Y-131318649D01*
X163208341Y-131112401D01*
X163175002Y-131079062D01*
X163144380Y-131056114D01*
X163115413Y-131045769D01*
X163113879Y-131045722D01*
X163090914Y-131036941D01*
X163086095Y-131024309D01*
X163088746Y-131016892D01*
X163099003Y-131011545D01*
X163120325Y-131008042D01*
X163156170Y-131006160D01*
X163209996Y-131005674D01*
X163285262Y-131006359D01*
G37*
G36*
X159176684Y-132498057D02*
G01*
X159214644Y-132506084D01*
X159236347Y-132521781D01*
X159242304Y-132533048D01*
X159247853Y-132559858D01*
X159239760Y-132580315D01*
X159214173Y-132598009D01*
X159167240Y-132616529D01*
X159144742Y-132623973D01*
X159056006Y-132662427D01*
X158991113Y-132713189D01*
X158949406Y-132776831D01*
X158940390Y-132801507D01*
X158937263Y-132817345D01*
X158934505Y-132843944D01*
X158932096Y-132882748D01*
X158930018Y-132935204D01*
X158928250Y-133002754D01*
X158926774Y-133086844D01*
X158925570Y-133188918D01*
X158924618Y-133310421D01*
X158923900Y-133452798D01*
X158923395Y-133617493D01*
X158923085Y-133805950D01*
X158922950Y-134019616D01*
X158922940Y-134101872D01*
X158922905Y-134319239D01*
X158922875Y-134511087D01*
X158922966Y-134679061D01*
X158923295Y-134824809D01*
X158923978Y-134949974D01*
X158925129Y-135056205D01*
X158926865Y-135145147D01*
X158929301Y-135218445D01*
X158932554Y-135277747D01*
X158936739Y-135324697D01*
X158941972Y-135360943D01*
X158948369Y-135388130D01*
X158956046Y-135407904D01*
X158965118Y-135421912D01*
X158975701Y-135431799D01*
X158987911Y-135439211D01*
X159001865Y-135445795D01*
X159017676Y-135453197D01*
X159018021Y-135453369D01*
X159040012Y-135463103D01*
X159064267Y-135470205D01*
X159095304Y-135475072D01*
X159137642Y-135478101D01*
X159195800Y-135479690D01*
X159274296Y-135480236D01*
X159323636Y-135480241D01*
X159439260Y-135479011D01*
X159534027Y-135475346D01*
X159614170Y-135468833D01*
X159685921Y-135459063D01*
X159710748Y-135454697D01*
X159899425Y-135410338D01*
X160067400Y-135351426D01*
X160213882Y-135278354D01*
X160338079Y-135191518D01*
X160439031Y-135091513D01*
X160470674Y-135057053D01*
X160497942Y-135033169D01*
X160513144Y-135025508D01*
X160531730Y-135037614D01*
X160541463Y-135070496D01*
X160541589Y-135118997D01*
X160533894Y-135167263D01*
X160508991Y-135240087D01*
X160467299Y-135320403D01*
X160413226Y-135402578D01*
X160351182Y-135480978D01*
X160285574Y-135549969D01*
X160220811Y-135603918D01*
X160168410Y-135634309D01*
X160149860Y-135641610D01*
X160129404Y-135647788D01*
X160104862Y-135652899D01*
X160074053Y-135657004D01*
X160034799Y-135660158D01*
X159984918Y-135662422D01*
X159922230Y-135663854D01*
X159844556Y-135664510D01*
X159749714Y-135664451D01*
X159635525Y-135663734D01*
X159499809Y-135662417D01*
X159340386Y-135660558D01*
X159235347Y-135659245D01*
X159111779Y-135658011D01*
X158987358Y-135657383D01*
X158867048Y-135657343D01*
X158755817Y-135657872D01*
X158658629Y-135658951D01*
X158580451Y-135660561D01*
X158542620Y-135661864D01*
X158467199Y-135664727D01*
X158398076Y-135666607D01*
X158341391Y-135667390D01*
X158303284Y-135666963D01*
X158294732Y-135666439D01*
X158263509Y-135659638D01*
X158251645Y-135643506D01*
X158250587Y-135630749D01*
X158252739Y-135610242D01*
X158262252Y-135593772D01*
X158283711Y-135577876D01*
X158321705Y-135559093D01*
X158376351Y-135535810D01*
X158449097Y-135499329D01*
X158499331Y-135457492D01*
X158531706Y-135405303D01*
X158548200Y-135351225D01*
X158551137Y-135324797D01*
X158553739Y-135274241D01*
X158556011Y-135199208D01*
X158557956Y-135099350D01*
X158559578Y-134974319D01*
X158560881Y-134823768D01*
X158561869Y-134647348D01*
X158562546Y-134444710D01*
X158562916Y-134215507D01*
X158562994Y-134033761D01*
X158562994Y-132785277D01*
X158522914Y-132739629D01*
X158495917Y-132712810D01*
X158463248Y-132689569D01*
X158419582Y-132667109D01*
X158359599Y-132642634D01*
X158291336Y-132617994D01*
X158244585Y-132600752D01*
X158218084Y-132586994D01*
X158206148Y-132572118D01*
X158203093Y-132551524D01*
X158203047Y-132546527D01*
X158203047Y-132505882D01*
X158562994Y-132510001D01*
X158666592Y-132510704D01*
X158767861Y-132510507D01*
X158861588Y-132509486D01*
X158942563Y-132507718D01*
X159005573Y-132505281D01*
X159038395Y-132503012D01*
X159119068Y-132497200D01*
X159176684Y-132498057D01*
G37*
G36*
X166423812Y-132504287D02*
G01*
X166450339Y-132519892D01*
X166468491Y-132551004D01*
X166480442Y-132601433D01*
X166488366Y-132674987D01*
X166488670Y-132678997D01*
X166493287Y-132753314D01*
X166497213Y-132839156D01*
X166499762Y-132920882D01*
X166500130Y-132940535D01*
X166500851Y-133002196D01*
X166499979Y-133041782D01*
X166496350Y-133064382D01*
X166488799Y-133075082D01*
X166476162Y-133078971D01*
X166468234Y-133079882D01*
X166433307Y-133078194D01*
X166409786Y-133061672D01*
X166394358Y-133026100D01*
X166384534Y-132973436D01*
X166368233Y-132895880D01*
X166341803Y-132839201D01*
X166302117Y-132798027D01*
X166271283Y-132778865D01*
X166255360Y-132771149D01*
X166238083Y-132764923D01*
X166216420Y-132759995D01*
X166187340Y-132756172D01*
X166147812Y-132753262D01*
X166094804Y-132751073D01*
X166025284Y-132749414D01*
X165936222Y-132748091D01*
X165824586Y-132746914D01*
X165757340Y-132746302D01*
X165621863Y-132745392D01*
X165511724Y-132745326D01*
X165425108Y-132746152D01*
X165360200Y-132747912D01*
X165315184Y-132750652D01*
X165288245Y-132754417D01*
X165278543Y-132758152D01*
X165275259Y-132764090D01*
X165272362Y-132777144D01*
X165269830Y-132798857D01*
X165267642Y-132830767D01*
X165265773Y-132874417D01*
X165264202Y-132931346D01*
X165262906Y-133003096D01*
X165261863Y-133091208D01*
X165261051Y-133197221D01*
X165260446Y-133322678D01*
X165260027Y-133469118D01*
X165259770Y-133638082D01*
X165259654Y-133831112D01*
X165259655Y-134049748D01*
X165259656Y-134052599D01*
X165259726Y-134268130D01*
X165259852Y-134458181D01*
X165260065Y-134624436D01*
X165260397Y-134768582D01*
X165260882Y-134892303D01*
X165261550Y-134997284D01*
X165262434Y-135085212D01*
X165263567Y-135157771D01*
X165264980Y-135216646D01*
X165266706Y-135263523D01*
X165268776Y-135300088D01*
X165271223Y-135328024D01*
X165274080Y-135349019D01*
X165277377Y-135364756D01*
X165281148Y-135376922D01*
X165285115Y-135386522D01*
X165321509Y-135444488D01*
X165373122Y-135486854D01*
X165444957Y-135517468D01*
X165461846Y-135522423D01*
X165528125Y-135541777D01*
X165572397Y-135557696D01*
X165599223Y-135572412D01*
X165613163Y-135588159D01*
X165617082Y-135598411D01*
X165621440Y-135616849D01*
X165621920Y-135631334D01*
X165615749Y-135642291D01*
X165600159Y-135650143D01*
X165572379Y-135655313D01*
X165529640Y-135658225D01*
X165469172Y-135659302D01*
X165388204Y-135658969D01*
X165283966Y-135657649D01*
X165234418Y-135656929D01*
X165128443Y-135655804D01*
X165024576Y-135655482D01*
X164927944Y-135655921D01*
X164843671Y-135657077D01*
X164776886Y-135658909D01*
X164736416Y-135661064D01*
X164677840Y-135664930D01*
X164626546Y-135666972D01*
X164590801Y-135666911D01*
X164582826Y-135666252D01*
X164561187Y-135658610D01*
X164554635Y-135638542D01*
X164555661Y-135618712D01*
X164557544Y-135601525D01*
X164561823Y-135588026D01*
X164572220Y-135575652D01*
X164592461Y-135561839D01*
X164626269Y-135544024D01*
X164677370Y-135519643D01*
X164745767Y-135487859D01*
X164805387Y-135456227D01*
X164845400Y-135424382D01*
X164868013Y-135395202D01*
X164899411Y-135344706D01*
X164903494Y-134095080D01*
X164904150Y-133856916D01*
X164904471Y-133645105D01*
X164904449Y-133458837D01*
X164904077Y-133297302D01*
X164903349Y-133159690D01*
X164902257Y-133045190D01*
X164900796Y-132952993D01*
X164898958Y-132882288D01*
X164896736Y-132832264D01*
X164894124Y-132802112D01*
X164892561Y-132793851D01*
X164877546Y-132742247D01*
X164419869Y-132746311D01*
X164295749Y-132747489D01*
X164195800Y-132748713D01*
X164117026Y-132750173D01*
X164056433Y-132752058D01*
X164011025Y-132754558D01*
X163977808Y-132757863D01*
X163953786Y-132762162D01*
X163935965Y-132767645D01*
X163921350Y-132774501D01*
X163914659Y-132778297D01*
X163877490Y-132807192D01*
X163844870Y-132849335D01*
X163814433Y-132908820D01*
X163783810Y-132989739D01*
X163772651Y-133023754D01*
X163746624Y-133094581D01*
X163721524Y-133139413D01*
X163696366Y-133159352D01*
X163670162Y-133155503D01*
X163660774Y-133148916D01*
X163649542Y-133133729D01*
X163644636Y-133108118D01*
X163645279Y-133065523D01*
X163647432Y-133035915D01*
X163655547Y-132944704D01*
X163664747Y-132852702D01*
X163674492Y-132764268D01*
X163684246Y-132683759D01*
X163693469Y-132615532D01*
X163701623Y-132563944D01*
X163708170Y-132533355D01*
X163710181Y-132528040D01*
X163713955Y-132524333D01*
X163721937Y-132521051D01*
X163735719Y-132518165D01*
X163756889Y-132515646D01*
X163787039Y-132513464D01*
X163827759Y-132511590D01*
X163880638Y-132509993D01*
X163947268Y-132508646D01*
X164029238Y-132507517D01*
X164128139Y-132506578D01*
X164245561Y-132505798D01*
X164383094Y-132505149D01*
X164542329Y-132504601D01*
X164724855Y-132504124D01*
X164932264Y-132503689D01*
X165030890Y-132503505D01*
X165218097Y-132503158D01*
X165398269Y-132502811D01*
X165569463Y-132502468D01*
X165729736Y-132502134D01*
X165877142Y-132501814D01*
X166009740Y-132501511D01*
X166125584Y-132501231D01*
X166222731Y-132500978D01*
X166299238Y-132500756D01*
X166353160Y-132500570D01*
X166382554Y-132500424D01*
X166386737Y-132500382D01*
X166423812Y-132504287D01*
G37*
G36*
X162390686Y-132427706D02*
G01*
X162420511Y-132454642D01*
X162448218Y-132504409D01*
X162456196Y-132524524D01*
X162464490Y-132545934D01*
X162482194Y-132590712D01*
X162508575Y-132657026D01*
X162542900Y-132743045D01*
X162584435Y-132846936D01*
X162632446Y-132966868D01*
X162686201Y-133101009D01*
X162744965Y-133247525D01*
X162808005Y-133404586D01*
X162874587Y-133570359D01*
X162943978Y-133743013D01*
X162970848Y-133809840D01*
X163041665Y-133986000D01*
X163110337Y-134156935D01*
X163176089Y-134320712D01*
X163238145Y-134475395D01*
X163295732Y-134619049D01*
X163348075Y-134749738D01*
X163394398Y-134865528D01*
X163433926Y-134964485D01*
X163465885Y-135044672D01*
X163489500Y-135104155D01*
X163503996Y-135140999D01*
X163506606Y-135147754D01*
X163552172Y-135254797D01*
X163601017Y-135347777D01*
X163650801Y-135422846D01*
X163699182Y-135476156D01*
X163713480Y-135487628D01*
X163778279Y-135521796D01*
X163867878Y-135548737D01*
X163878445Y-135551075D01*
X163954956Y-135571655D01*
X164004740Y-135594860D01*
X164028128Y-135620899D01*
X164027573Y-135645232D01*
X164022897Y-135652205D01*
X164012814Y-135657422D01*
X163994153Y-135661013D01*
X163963746Y-135663107D01*
X163918422Y-135663833D01*
X163855012Y-135663323D01*
X163770345Y-135661705D01*
X163678122Y-135659526D01*
X163576881Y-135657550D01*
X163477679Y-135656560D01*
X163385976Y-135656542D01*
X163307236Y-135657477D01*
X163246919Y-135659350D01*
X163221924Y-135660911D01*
X163156790Y-135664787D01*
X163091105Y-135666013D01*
X163037710Y-135664387D01*
X163031764Y-135663904D01*
X162988888Y-135658930D01*
X162966552Y-135651672D01*
X162958163Y-135638535D01*
X162957058Y-135623155D01*
X162961985Y-135600445D01*
X162980618Y-135581509D01*
X163018731Y-135560795D01*
X163024972Y-135557887D01*
X163092001Y-135526515D01*
X163138643Y-135503037D01*
X163169427Y-135484521D01*
X163188882Y-135468034D01*
X163201535Y-135450642D01*
X163207093Y-135439925D01*
X163217045Y-135414035D01*
X163219231Y-135387665D01*
X163213433Y-135351498D01*
X163204147Y-135313984D01*
X163192349Y-135275410D01*
X163172494Y-135217597D01*
X163146217Y-135144758D01*
X163115153Y-135061109D01*
X163080936Y-134970862D01*
X163045199Y-134878233D01*
X163009578Y-134787436D01*
X162975705Y-134702684D01*
X162945217Y-134628192D01*
X162919747Y-134568174D01*
X162900929Y-134526845D01*
X162893301Y-134512425D01*
X162880846Y-134492419D01*
X162868446Y-134475808D01*
X162853610Y-134462294D01*
X162833848Y-134451579D01*
X162806669Y-134443366D01*
X162769584Y-134437356D01*
X162720100Y-134433253D01*
X162655729Y-134430758D01*
X162573980Y-134429574D01*
X162472363Y-134429403D01*
X162348386Y-134429947D01*
X162210836Y-134430833D01*
X162070528Y-134431804D01*
X161954817Y-134432772D01*
X161861131Y-134433870D01*
X161786901Y-134435232D01*
X161729558Y-134436992D01*
X161686530Y-134439285D01*
X161655249Y-134442242D01*
X161633145Y-134446000D01*
X161617647Y-134450690D01*
X161606186Y-134456448D01*
X161597009Y-134462795D01*
X161580943Y-134480052D01*
X161559764Y-134512458D01*
X161532419Y-134562021D01*
X161497854Y-134630751D01*
X161455016Y-134720656D01*
X161404916Y-134829225D01*
X161352466Y-134944973D01*
X161310782Y-135039421D01*
X161278824Y-135115736D01*
X161255555Y-135177085D01*
X161239937Y-135226635D01*
X161230933Y-135267553D01*
X161227504Y-135303007D01*
X161228614Y-135336165D01*
X161231396Y-135358790D01*
X161254247Y-135425208D01*
X161298460Y-135479788D01*
X161359543Y-135519037D01*
X161433005Y-135539459D01*
X161466336Y-135541582D01*
X161501106Y-135551467D01*
X161527463Y-135575864D01*
X161541676Y-135607169D01*
X161540015Y-135637776D01*
X161523250Y-135657615D01*
X161498732Y-135663753D01*
X161453310Y-135667259D01*
X161393125Y-135668054D01*
X161324319Y-135666056D01*
X161253033Y-135661187D01*
X161252406Y-135661130D01*
X161198764Y-135658078D01*
X161125599Y-135656416D01*
X161040519Y-135656191D01*
X160951134Y-135657448D01*
X160897941Y-135658957D01*
X160811497Y-135661727D01*
X160748366Y-135663027D01*
X160704725Y-135662630D01*
X160676750Y-135660309D01*
X160660617Y-135655834D01*
X160652501Y-135648979D01*
X160650102Y-135644195D01*
X160648581Y-135610726D01*
X160672272Y-135582037D01*
X160721966Y-135557315D01*
X160740274Y-135551110D01*
X160801316Y-135524366D01*
X160860453Y-135486306D01*
X160874525Y-135474735D01*
X160885492Y-135465122D01*
X160895531Y-135455824D01*
X160905422Y-135445283D01*
X160915946Y-135431940D01*
X160927883Y-135414237D01*
X160942014Y-135390614D01*
X160959120Y-135359512D01*
X160979981Y-135319373D01*
X161005378Y-135268637D01*
X161036091Y-135205747D01*
X161072901Y-135129142D01*
X161116589Y-135037264D01*
X161167935Y-134928554D01*
X161227720Y-134801453D01*
X161296724Y-134654402D01*
X161375729Y-134485843D01*
X161463355Y-134298823D01*
X161507169Y-134205317D01*
X161719740Y-134205317D01*
X161734891Y-134210618D01*
X161773548Y-134215148D01*
X161832061Y-134218909D01*
X161906782Y-134221901D01*
X161994061Y-134224127D01*
X162090250Y-134225585D01*
X162191698Y-134226279D01*
X162294758Y-134226208D01*
X162395780Y-134225373D01*
X162491114Y-134223775D01*
X162577113Y-134221416D01*
X162650126Y-134218296D01*
X162706504Y-134214416D01*
X162742599Y-134209777D01*
X162754692Y-134205051D01*
X162751040Y-134189510D01*
X162738213Y-134151958D01*
X162717449Y-134095477D01*
X162689985Y-134023148D01*
X162657057Y-133938053D01*
X162619903Y-133843273D01*
X162579759Y-133741890D01*
X162537861Y-133636985D01*
X162495448Y-133531638D01*
X162453755Y-133428932D01*
X162414020Y-133331949D01*
X162377478Y-133243768D01*
X162345368Y-133167472D01*
X162318926Y-133106142D01*
X162299389Y-133062860D01*
X162287993Y-133040706D01*
X162286596Y-133038864D01*
X162270459Y-133031380D01*
X162252689Y-133042653D01*
X162231072Y-133075099D01*
X162204700Y-133128297D01*
X162190326Y-133159381D01*
X162165998Y-133211835D01*
X162133228Y-133282399D01*
X162093532Y-133367819D01*
X162048422Y-133464835D01*
X161999413Y-133570190D01*
X161948018Y-133680629D01*
X161939301Y-133699355D01*
X161889615Y-133806932D01*
X161844050Y-133907214D01*
X161803797Y-133997456D01*
X161770049Y-134074911D01*
X161743996Y-134136833D01*
X161726831Y-134180477D01*
X161719744Y-134203095D01*
X161719740Y-134205317D01*
X161507169Y-134205317D01*
X161520028Y-134177873D01*
X161575005Y-134060549D01*
X161626825Y-133949967D01*
X161674029Y-133849240D01*
X161715157Y-133761485D01*
X161748748Y-133689816D01*
X161773344Y-133637348D01*
X161784815Y-133612888D01*
X161804280Y-133571278D01*
X161833249Y-133509203D01*
X161869777Y-133430837D01*
X161911920Y-133340350D01*
X161957736Y-133241915D01*
X162005280Y-133139704D01*
X162022099Y-133103529D01*
X162090481Y-132956620D01*
X162148482Y-132832491D01*
X162197054Y-132729237D01*
X162237151Y-132644950D01*
X162269726Y-132577722D01*
X162295732Y-132525648D01*
X162316122Y-132486819D01*
X162331848Y-132459329D01*
X162343864Y-132441270D01*
X162353123Y-132430735D01*
X162360578Y-132425818D01*
X162360798Y-132425732D01*
X162390686Y-132427706D01*
G37*
G36*
X168564909Y-132507889D02*
G01*
X168595661Y-132531741D01*
X168605972Y-132542568D01*
X168645078Y-132586988D01*
X168698601Y-132647314D01*
X168765207Y-132722068D01*
X168843563Y-132809771D01*
X168932337Y-132908945D01*
X169030194Y-133018109D01*
X169135802Y-133135786D01*
X169247827Y-133260497D01*
X169364937Y-133390763D01*
X169485797Y-133525104D01*
X169609076Y-133662042D01*
X169733439Y-133800099D01*
X169857554Y-133937794D01*
X169980087Y-134073650D01*
X170099706Y-134206188D01*
X170215076Y-134333928D01*
X170324866Y-134455392D01*
X170427740Y-134569101D01*
X170522368Y-134673576D01*
X170607414Y-134767338D01*
X170681547Y-134848909D01*
X170743433Y-134916809D01*
X170791738Y-134969559D01*
X170825130Y-135005682D01*
X170842275Y-135023697D01*
X170844316Y-135025508D01*
X170846768Y-135012349D01*
X170848918Y-134974565D01*
X170850773Y-134914695D01*
X170852337Y-134835278D01*
X170853617Y-134738852D01*
X170854616Y-134627958D01*
X170855342Y-134505133D01*
X170855798Y-134372917D01*
X170855990Y-134233848D01*
X170855925Y-134090466D01*
X170855606Y-133945310D01*
X170855040Y-133800918D01*
X170854232Y-133659830D01*
X170853187Y-133524584D01*
X170851911Y-133397720D01*
X170850408Y-133281776D01*
X170848685Y-133179292D01*
X170846746Y-133092806D01*
X170844597Y-133024857D01*
X170842244Y-132977984D01*
X170839945Y-132955866D01*
X170808066Y-132855096D01*
X170756092Y-132771889D01*
X170683392Y-132705633D01*
X170589334Y-132655717D01*
X170501332Y-132627878D01*
X170429264Y-132606652D01*
X170382624Y-132584005D01*
X170359675Y-132558725D01*
X170358679Y-132529601D01*
X170358982Y-132528618D01*
X170362457Y-132519361D01*
X170368426Y-132512279D01*
X170380137Y-132507126D01*
X170400834Y-132503654D01*
X170433765Y-132501613D01*
X170482176Y-132500757D01*
X170549314Y-132500838D01*
X170638425Y-132501607D01*
X170703676Y-132502295D01*
X170805136Y-132503109D01*
X170905459Y-132503420D01*
X170998893Y-132503247D01*
X171079686Y-132502609D01*
X171142086Y-132501525D01*
X171165532Y-132500784D01*
X171228455Y-132499794D01*
X171275940Y-132502162D01*
X171302906Y-132507570D01*
X171306106Y-132509604D01*
X171315525Y-132535037D01*
X171301283Y-132565076D01*
X171265704Y-132596401D01*
X171231428Y-132616285D01*
X171184441Y-132642752D01*
X171141601Y-132671787D01*
X171123450Y-132686767D01*
X171111317Y-132698117D01*
X171100515Y-132709145D01*
X171090968Y-132721415D01*
X171082598Y-132736487D01*
X171075328Y-132755927D01*
X171069079Y-132781295D01*
X171063776Y-132814155D01*
X171059339Y-132856070D01*
X171055693Y-132908603D01*
X171052760Y-132973316D01*
X171050462Y-133051773D01*
X171048722Y-133145535D01*
X171047462Y-133256166D01*
X171046606Y-133385229D01*
X171046076Y-133534286D01*
X171045793Y-133704901D01*
X171045682Y-133898635D01*
X171045665Y-134117053D01*
X171045668Y-134257824D01*
X171045595Y-134496154D01*
X171045367Y-134708522D01*
X171044971Y-134896130D01*
X171044391Y-135060183D01*
X171043616Y-135201882D01*
X171042630Y-135322432D01*
X171041420Y-135423034D01*
X171039972Y-135504892D01*
X171038273Y-135569210D01*
X171036308Y-135617190D01*
X171034063Y-135650035D01*
X171031525Y-135668949D01*
X171029368Y-135674770D01*
X171009984Y-135687967D01*
X170987663Y-135687058D01*
X170957217Y-135670232D01*
X170913459Y-135635677D01*
X170910699Y-135633342D01*
X170893850Y-135616556D01*
X170860286Y-135580831D01*
X170811277Y-135527587D01*
X170748091Y-135458246D01*
X170672000Y-135374229D01*
X170584271Y-135276957D01*
X170486174Y-135167851D01*
X170378978Y-135048332D01*
X170263953Y-134919822D01*
X170142369Y-134783741D01*
X170015494Y-134641511D01*
X169884598Y-134494552D01*
X169750950Y-134344286D01*
X169615819Y-134192134D01*
X169480476Y-134039517D01*
X169346189Y-133887856D01*
X169214228Y-133738573D01*
X169085862Y-133593087D01*
X168962360Y-133452822D01*
X168920929Y-133405693D01*
X168896987Y-133377717D01*
X168876160Y-133353014D01*
X168858232Y-133333116D01*
X168842988Y-133319554D01*
X168830214Y-133313862D01*
X168819694Y-133317571D01*
X168811213Y-133332212D01*
X168804555Y-133359318D01*
X168799507Y-133400422D01*
X168795851Y-133457054D01*
X168793375Y-133530747D01*
X168791861Y-133623034D01*
X168791095Y-133735445D01*
X168790862Y-133869514D01*
X168790947Y-134026771D01*
X168791135Y-134208750D01*
X168791207Y-134329385D01*
X168791291Y-134520190D01*
X168791453Y-134685742D01*
X168791740Y-134827954D01*
X168792197Y-134948740D01*
X168792869Y-135050011D01*
X168793802Y-135133682D01*
X168795043Y-135201666D01*
X168796636Y-135255875D01*
X168798628Y-135298222D01*
X168801064Y-135330620D01*
X168803990Y-135354983D01*
X168807451Y-135373223D01*
X168811493Y-135387253D01*
X168816162Y-135398987D01*
X168816790Y-135400381D01*
X168850065Y-135453321D01*
X168897830Y-135492775D01*
X168964730Y-135521881D01*
X169017592Y-135536047D01*
X169069924Y-135549142D01*
X169115935Y-135562870D01*
X169143967Y-135573533D01*
X169175030Y-135598530D01*
X169182815Y-135626518D01*
X169169434Y-135650826D01*
X169136998Y-135664782D01*
X169114765Y-135665819D01*
X169090262Y-135665135D01*
X169042271Y-135664325D01*
X168974470Y-135663432D01*
X168890537Y-135662499D01*
X168794150Y-135661568D01*
X168688986Y-135660681D01*
X168634705Y-135660270D01*
X168514676Y-135659346D01*
X168419019Y-135658379D01*
X168344943Y-135657175D01*
X168289655Y-135655542D01*
X168250362Y-135653286D01*
X168224273Y-135650215D01*
X168208594Y-135646134D01*
X168200534Y-135640850D01*
X168197299Y-135634171D01*
X168196579Y-135629946D01*
X168197596Y-135602708D01*
X168211412Y-135580829D01*
X168242240Y-135560709D01*
X168294290Y-135538748D01*
X168310110Y-135532911D01*
X168392176Y-135498084D01*
X168452711Y-135459435D01*
X168497345Y-135412621D01*
X168525025Y-135367087D01*
X168536415Y-135343623D01*
X168546323Y-135319923D01*
X168554852Y-135294012D01*
X168562103Y-135263916D01*
X168568178Y-135227658D01*
X168573179Y-135183263D01*
X168577207Y-135128755D01*
X168580365Y-135062159D01*
X168582754Y-134981500D01*
X168584476Y-134884801D01*
X168585634Y-134770088D01*
X168586328Y-134635385D01*
X168586660Y-134478715D01*
X168586733Y-134298105D01*
X168586691Y-134170687D01*
X168586537Y-133973291D01*
X168586208Y-133800999D01*
X168585595Y-133651748D01*
X168584587Y-133523479D01*
X168583076Y-133414128D01*
X168580951Y-133321634D01*
X168578104Y-133243935D01*
X168574425Y-133178969D01*
X168569805Y-133124676D01*
X168564134Y-133078992D01*
X168557302Y-133039856D01*
X168549200Y-133005207D01*
X168539720Y-132972982D01*
X168528750Y-132941121D01*
X168520187Y-132918088D01*
X168468740Y-132816929D01*
X168398293Y-132735153D01*
X168308778Y-132672705D01*
X168200130Y-132629529D01*
X168169252Y-132621572D01*
X168106678Y-132602137D01*
X168065469Y-132578656D01*
X168047672Y-132552723D01*
X168052134Y-132530503D01*
X168060311Y-132521254D01*
X168074507Y-132514516D01*
X168098806Y-132509816D01*
X168137292Y-132506682D01*
X168194052Y-132504641D01*
X168273168Y-132503220D01*
X168289835Y-132502997D01*
X168366730Y-132501951D01*
X168435575Y-132500924D01*
X168491120Y-132500000D01*
X168528112Y-132499266D01*
X168539625Y-132498934D01*
X168564909Y-132507889D01*
G37*
G36*
X174837583Y-136441225D02*
G01*
X174837583Y-136753802D01*
X174990746Y-136753802D01*
X175143908Y-136753802D01*
X175143908Y-136828820D01*
X175143908Y-136903839D01*
X174903224Y-136903839D01*
X174662540Y-136903839D01*
X174662540Y-136516243D01*
X174662540Y-136128648D01*
X174750061Y-136128648D01*
X174837583Y-136128648D01*
X174837583Y-136441225D01*
G37*
G36*
X172930864Y-136200541D02*
G01*
X172930864Y-136272433D01*
X172783953Y-136272433D01*
X172637041Y-136272433D01*
X172637041Y-136359955D01*
X172637041Y-136447476D01*
X172774575Y-136447476D01*
X172912109Y-136447476D01*
X172912109Y-136519369D01*
X172912109Y-136591262D01*
X172774684Y-136591262D01*
X172637260Y-136591262D01*
X172635588Y-136745987D01*
X172633916Y-136900713D01*
X172547957Y-136902452D01*
X172461998Y-136904191D01*
X172461998Y-136516420D01*
X172461998Y-136128648D01*
X172696431Y-136128648D01*
X172930864Y-136128648D01*
X172930864Y-136200541D01*
G37*
G36*
X173513938Y-136508357D02*
G01*
X173534411Y-136574766D01*
X173553746Y-136637730D01*
X173571631Y-136696219D01*
X173587754Y-136749203D01*
X173601805Y-136795652D01*
X173613471Y-136834534D01*
X173622441Y-136864820D01*
X173628404Y-136885480D01*
X173631048Y-136895482D01*
X173631154Y-136896191D01*
X173628303Y-136899385D01*
X173618862Y-136901498D01*
X173601328Y-136902634D01*
X173574201Y-136902894D01*
X173539208Y-136902443D01*
X173447380Y-136900713D01*
X173418476Y-136803814D01*
X173389573Y-136706915D01*
X173277911Y-136706915D01*
X173166250Y-136706915D01*
X173145329Y-136781934D01*
X173136610Y-136813248D01*
X173128520Y-136842392D01*
X173121984Y-136866026D01*
X173118042Y-136880395D01*
X173111676Y-136903839D01*
X173021270Y-136903839D01*
X172989276Y-136903737D01*
X172962271Y-136903457D01*
X172942452Y-136903037D01*
X172932018Y-136902516D01*
X172930963Y-136902276D01*
X172932760Y-136896189D01*
X172937912Y-136879150D01*
X172946114Y-136852162D01*
X172957058Y-136816230D01*
X172970439Y-136772355D01*
X172985951Y-136721542D01*
X173003288Y-136664793D01*
X173022144Y-136603112D01*
X173033511Y-136565952D01*
X173195376Y-136565952D01*
X173198607Y-136568984D01*
X173207219Y-136570909D01*
X173223061Y-136571974D01*
X173247980Y-136572424D01*
X173277824Y-136572507D01*
X173311941Y-136572389D01*
X173335396Y-136571869D01*
X173350030Y-136570702D01*
X173357685Y-136568641D01*
X173360201Y-136565441D01*
X173359651Y-136561567D01*
X173353478Y-136541101D01*
X173345294Y-136513012D01*
X173335734Y-136479588D01*
X173325436Y-136443115D01*
X173315036Y-136405880D01*
X173305172Y-136370168D01*
X173296478Y-136338266D01*
X173289593Y-136312462D01*
X173285152Y-136295040D01*
X173283938Y-136289625D01*
X173280187Y-136274610D01*
X173276342Y-136266594D01*
X173275509Y-136266182D01*
X173272433Y-136271839D01*
X173267733Y-136286926D01*
X173262248Y-136308612D01*
X173260185Y-136317757D01*
X173253463Y-136346417D01*
X173243712Y-136385036D01*
X173231467Y-136431591D01*
X173217264Y-136484055D01*
X173201638Y-136540406D01*
X173195679Y-136561567D01*
X173195376Y-136565952D01*
X173033511Y-136565952D01*
X173042213Y-136537503D01*
X173048718Y-136516243D01*
X173166374Y-136131774D01*
X173281489Y-136130139D01*
X173396603Y-136128505D01*
X173513938Y-136508357D01*
G37*
G36*
X175615176Y-136130011D02*
G01*
X175640554Y-136130730D01*
X175657382Y-136131870D01*
X175663467Y-136133188D01*
X175666134Y-136139886D01*
X175672071Y-136157304D01*
X175680891Y-136184204D01*
X175692211Y-136219349D01*
X175705645Y-136261501D01*
X175720808Y-136309422D01*
X175737317Y-136361874D01*
X175754785Y-136417621D01*
X175772828Y-136475424D01*
X175791062Y-136534045D01*
X175809102Y-136592248D01*
X175826562Y-136648794D01*
X175843058Y-136702447D01*
X175858205Y-136751967D01*
X175871619Y-136796119D01*
X175882914Y-136833663D01*
X175891707Y-136863363D01*
X175897611Y-136883980D01*
X175900242Y-136894278D01*
X175900344Y-136895065D01*
X175898571Y-136898633D01*
X175892089Y-136901046D01*
X175879156Y-136902444D01*
X175858031Y-136902967D01*
X175826973Y-136902755D01*
X175808516Y-136902443D01*
X175716688Y-136900713D01*
X175687785Y-136803814D01*
X175658881Y-136706915D01*
X175547220Y-136706915D01*
X175435559Y-136706915D01*
X175414637Y-136781934D01*
X175405918Y-136813248D01*
X175397828Y-136842392D01*
X175391293Y-136866026D01*
X175387350Y-136880395D01*
X175380985Y-136903839D01*
X175290578Y-136903839D01*
X175258585Y-136903737D01*
X175231581Y-136903457D01*
X175211764Y-136903037D01*
X175201332Y-136902516D01*
X175200278Y-136902276D01*
X175202075Y-136896188D01*
X175207225Y-136879148D01*
X175215423Y-136852160D01*
X175226362Y-136816225D01*
X175239737Y-136772349D01*
X175255241Y-136721533D01*
X175272569Y-136664782D01*
X175291414Y-136603099D01*
X175302770Y-136565952D01*
X175464710Y-136565952D01*
X175467922Y-136568983D01*
X175476518Y-136570909D01*
X175492343Y-136571973D01*
X175517244Y-136572424D01*
X175547132Y-136572507D01*
X175632371Y-136572507D01*
X175627872Y-136558441D01*
X175622547Y-136540960D01*
X175615018Y-136515137D01*
X175605932Y-136483299D01*
X175595933Y-136447775D01*
X175585667Y-136410893D01*
X175575779Y-136374980D01*
X175566915Y-136342365D01*
X175559721Y-136315376D01*
X175554841Y-136296340D01*
X175553092Y-136288703D01*
X175549359Y-136274041D01*
X175545512Y-136266466D01*
X175544817Y-136266182D01*
X175541727Y-136271836D01*
X175536987Y-136286915D01*
X175531445Y-136308593D01*
X175529352Y-136317757D01*
X175523672Y-136341819D01*
X175515353Y-136374980D01*
X175505168Y-136414312D01*
X175493888Y-136456884D01*
X175482288Y-136499767D01*
X175471140Y-136540034D01*
X175465032Y-136561567D01*
X175464710Y-136565952D01*
X175302770Y-136565952D01*
X175311472Y-136537487D01*
X175317968Y-136516243D01*
X175435554Y-136131774D01*
X175547146Y-136130062D01*
X175583342Y-136129770D01*
X175615176Y-136130011D01*
G37*
G36*
X174013559Y-136124759D02*
G01*
X174013710Y-136124769D01*
X174061692Y-136128848D01*
X174100604Y-136134675D01*
X174133837Y-136143000D01*
X174164785Y-136154576D01*
X174180004Y-136161594D01*
X174220231Y-136187038D01*
X174250879Y-136218526D01*
X174271916Y-136254380D01*
X174283311Y-136292922D01*
X174285034Y-136332476D01*
X174277053Y-136371363D01*
X174259338Y-136407905D01*
X174231857Y-136440425D01*
X174194579Y-136467244D01*
X174185749Y-136471873D01*
X174160237Y-136484495D01*
X174190817Y-136497604D01*
X174234603Y-136522406D01*
X174269339Y-136555091D01*
X174291710Y-136589769D01*
X174301228Y-136611340D01*
X174306610Y-136630920D01*
X174308937Y-136653786D01*
X174309328Y-136675789D01*
X174308645Y-136703718D01*
X174305772Y-136724734D01*
X174299469Y-136744392D01*
X174288882Y-136767464D01*
X174266860Y-136804255D01*
X174239875Y-136833068D01*
X174204909Y-136856782D01*
X174184046Y-136867365D01*
X174154319Y-136879893D01*
X174123878Y-136889521D01*
X174090412Y-136896628D01*
X174051606Y-136901591D01*
X174005150Y-136904788D01*
X173948730Y-136906599D01*
X173943613Y-136906697D01*
X173904946Y-136907247D01*
X173868905Y-136907464D01*
X173838037Y-136907353D01*
X173814888Y-136906924D01*
X173802953Y-136906291D01*
X173780584Y-136903675D01*
X173759410Y-136900678D01*
X173757630Y-136900389D01*
X173737312Y-136897021D01*
X173737312Y-136780191D01*
X173912355Y-136780191D01*
X173979559Y-136777628D01*
X174013014Y-136775836D01*
X174037263Y-136773057D01*
X174055595Y-136768712D01*
X174071302Y-136762221D01*
X174073578Y-136761056D01*
X174100165Y-136741048D01*
X174118413Y-136714761D01*
X174127858Y-136684835D01*
X174128035Y-136653910D01*
X174118477Y-136624627D01*
X174101564Y-136602236D01*
X174079158Y-136585087D01*
X174052026Y-136573095D01*
X174017686Y-136565469D01*
X173973656Y-136561418D01*
X173973308Y-136561401D01*
X173912355Y-136558332D01*
X173912355Y-136669262D01*
X173912355Y-136780191D01*
X173737312Y-136780191D01*
X173737312Y-136669262D01*
X173737312Y-136519755D01*
X173737342Y-136440783D01*
X173737349Y-136436427D01*
X173912355Y-136436427D01*
X173973308Y-136433767D01*
X174007316Y-136431482D01*
X174032224Y-136427678D01*
X174051401Y-136421732D01*
X174059874Y-136417771D01*
X174086674Y-136398075D01*
X174103617Y-136373544D01*
X174110661Y-136346477D01*
X174107763Y-136319175D01*
X174094882Y-136293939D01*
X174071975Y-136273069D01*
X174062630Y-136267745D01*
X174046754Y-136260834D01*
X174030103Y-136256577D01*
X174008991Y-136254390D01*
X173979730Y-136253691D01*
X173973546Y-136253679D01*
X173912355Y-136253679D01*
X173912355Y-136345053D01*
X173912355Y-136436427D01*
X173737349Y-136436427D01*
X173737447Y-136373409D01*
X173737548Y-136345053D01*
X173737649Y-136316731D01*
X173737970Y-136269843D01*
X173738433Y-136231842D01*
X173739059Y-136201823D01*
X173739872Y-136178883D01*
X173740893Y-136162117D01*
X173742145Y-136150622D01*
X173743650Y-136143492D01*
X173745430Y-136139825D01*
X173746697Y-136138887D01*
X173759302Y-136136231D01*
X173781937Y-136133541D01*
X173812130Y-136130948D01*
X173847408Y-136128584D01*
X173885300Y-136126578D01*
X173923333Y-136125062D01*
X173959036Y-136124167D01*
X173989935Y-136124022D01*
X174013559Y-136124759D01*
G37*
G36*
X176319463Y-136127528D02*
G01*
X176368908Y-136134009D01*
X176376792Y-136135551D01*
X176424003Y-136149895D01*
X176466909Y-136171662D01*
X176503284Y-136199281D01*
X176530904Y-136231182D01*
X176542824Y-136252806D01*
X176550529Y-136281204D01*
X176553079Y-136315312D01*
X176550607Y-136350007D01*
X176543248Y-136380167D01*
X176539237Y-136389298D01*
X176518230Y-136420412D01*
X176490754Y-136448014D01*
X176460939Y-136468085D01*
X176455827Y-136470506D01*
X176440964Y-136477933D01*
X176432483Y-136483856D01*
X176431725Y-136485199D01*
X176437103Y-136489335D01*
X176450560Y-136494787D01*
X176456339Y-136496632D01*
X176489165Y-136511938D01*
X176520673Y-136536401D01*
X176547319Y-136566876D01*
X176560811Y-136589343D01*
X176570423Y-136611062D01*
X176575864Y-136630621D01*
X176578227Y-136653321D01*
X176578636Y-136675789D01*
X176577954Y-136703718D01*
X176575080Y-136724734D01*
X176568777Y-136744392D01*
X176558190Y-136767464D01*
X176536168Y-136804255D01*
X176509184Y-136833068D01*
X176474217Y-136856782D01*
X176453354Y-136867365D01*
X176423627Y-136879893D01*
X176393187Y-136889521D01*
X176359720Y-136896628D01*
X176320915Y-136901591D01*
X176274458Y-136904788D01*
X176218039Y-136906599D01*
X176212921Y-136906697D01*
X176174255Y-136907247D01*
X176138214Y-136907464D01*
X176107345Y-136907353D01*
X176084196Y-136906924D01*
X176072262Y-136906291D01*
X176049893Y-136903675D01*
X176028719Y-136900678D01*
X176026938Y-136900389D01*
X176006621Y-136897021D01*
X176006621Y-136780191D01*
X176181664Y-136780191D01*
X176248868Y-136777628D01*
X176282322Y-136775836D01*
X176306571Y-136773057D01*
X176324903Y-136768712D01*
X176340610Y-136762221D01*
X176342886Y-136761056D01*
X176369473Y-136741048D01*
X176387722Y-136714761D01*
X176397167Y-136684835D01*
X176397343Y-136653910D01*
X176387785Y-136624627D01*
X176370872Y-136602236D01*
X176348680Y-136585342D01*
X176321511Y-136573440D01*
X176286953Y-136565763D01*
X176242784Y-136561554D01*
X176181664Y-136558186D01*
X176181664Y-136669188D01*
X176181664Y-136780191D01*
X176006621Y-136780191D01*
X176006621Y-136669188D01*
X176006621Y-136519755D01*
X176006650Y-136440783D01*
X176006657Y-136436427D01*
X176181664Y-136436427D01*
X176242616Y-136433767D01*
X176276625Y-136431482D01*
X176301533Y-136427678D01*
X176320709Y-136421732D01*
X176329183Y-136417771D01*
X176355982Y-136398075D01*
X176372925Y-136373544D01*
X176379969Y-136346477D01*
X176377072Y-136319175D01*
X176364190Y-136293939D01*
X176341283Y-136273069D01*
X176331939Y-136267745D01*
X176316062Y-136260834D01*
X176299412Y-136256577D01*
X176278300Y-136254390D01*
X176249039Y-136253691D01*
X176242854Y-136253679D01*
X176181664Y-136253679D01*
X176181664Y-136345053D01*
X176181664Y-136436427D01*
X176006657Y-136436427D01*
X176006755Y-136373409D01*
X176006856Y-136345053D01*
X176006957Y-136316731D01*
X176007278Y-136269843D01*
X176007741Y-136231842D01*
X176008368Y-136201823D01*
X176009180Y-136178883D01*
X176010202Y-136162117D01*
X176011454Y-136150622D01*
X176012959Y-136143492D01*
X176014739Y-136139825D01*
X176016005Y-136138887D01*
X176025237Y-136137211D01*
X176044567Y-136134943D01*
X176071617Y-136132321D01*
X176104011Y-136129584D01*
X176123844Y-136128072D01*
X176194659Y-136124493D01*
X176260623Y-136124334D01*
X176319463Y-136127528D01*
G37*
G36*
X172391632Y-132349763D02*
G01*
X172406721Y-132358945D01*
X172428872Y-132372957D01*
X172456420Y-132390743D01*
X172487696Y-132411247D01*
X172491366Y-132413671D01*
X172593006Y-132480875D01*
X172593361Y-133540511D01*
X172593717Y-134600147D01*
X172885758Y-134766488D01*
X173177799Y-134932829D01*
X173179444Y-134721177D01*
X173181089Y-134509524D01*
X173151752Y-134473566D01*
X173095390Y-134396953D01*
X173043152Y-134311172D01*
X172996498Y-134219273D01*
X172956886Y-134124304D01*
X172925774Y-134029313D01*
X172911240Y-133971033D01*
X172903846Y-133927352D01*
X172898478Y-133875972D01*
X172895240Y-133820546D01*
X172894240Y-133764727D01*
X172895582Y-133712166D01*
X172899371Y-133666516D01*
X172901941Y-133648977D01*
X172920845Y-133570555D01*
X172948776Y-133498828D01*
X172985112Y-133434538D01*
X173029232Y-133378422D01*
X173080511Y-133331221D01*
X173138329Y-133293673D01*
X173202061Y-133266519D01*
X173230938Y-133258269D01*
X173263577Y-133252990D01*
X173304382Y-133250472D01*
X173349347Y-133250610D01*
X173394467Y-133253301D01*
X173435737Y-133258441D01*
X173463483Y-133264298D01*
X173555370Y-133295169D01*
X173643380Y-133337308D01*
X173727959Y-133390991D01*
X173809552Y-133456492D01*
X173871816Y-133516386D01*
X173951659Y-133607206D01*
X174021561Y-133703899D01*
X174081086Y-133805535D01*
X174129800Y-133911189D01*
X174167268Y-134019931D01*
X174193056Y-134130833D01*
X174205696Y-134228912D01*
X174208061Y-134324570D01*
X174199510Y-134415594D01*
X174180152Y-134501333D01*
X174150095Y-134581136D01*
X174145846Y-134590134D01*
X174131000Y-134619137D01*
X174116420Y-134642786D01*
X174099283Y-134664946D01*
X174076767Y-134689483D01*
X174063364Y-134703095D01*
X174026601Y-134737534D01*
X173993839Y-134762868D01*
X173967079Y-134778748D01*
X173924905Y-134800196D01*
X173925036Y-135087767D01*
X173925167Y-135375338D01*
X174171948Y-135518499D01*
X174418730Y-135661661D01*
X174418730Y-135785753D01*
X174418730Y-135909844D01*
X174370280Y-135909013D01*
X174339023Y-135907860D01*
X174302979Y-135905621D01*
X174269763Y-135902771D01*
X174268693Y-135902661D01*
X174092199Y-135878321D01*
X173920626Y-135842487D01*
X173753955Y-135795152D01*
X173592168Y-135736308D01*
X173435246Y-135665947D01*
X173283171Y-135584063D01*
X173135925Y-135490647D01*
X172993489Y-135385692D01*
X172980876Y-135375657D01*
X172943193Y-135344059D01*
X172899847Y-135305343D01*
X172853116Y-135261738D01*
X172805274Y-135215471D01*
X172758596Y-135168772D01*
X172715358Y-135123868D01*
X172677836Y-135082987D01*
X172654981Y-135056509D01*
X172545672Y-134915869D01*
X172448042Y-134770786D01*
X172362052Y-134621167D01*
X172287659Y-134466922D01*
X172224823Y-134307960D01*
X172173503Y-134144189D01*
X172133657Y-133975518D01*
X172111898Y-133849962D01*
X172099049Y-133741756D01*
X172091051Y-133626322D01*
X172087966Y-133507772D01*
X172089855Y-133390219D01*
X172096780Y-133277777D01*
X172102510Y-133221683D01*
X172124199Y-133078702D01*
X172155427Y-132933161D01*
X172195226Y-132788684D01*
X172242624Y-132648894D01*
X172282433Y-132549642D01*
X172294696Y-132522101D01*
X172309100Y-132491229D01*
X172324638Y-132459013D01*
X172340307Y-132427438D01*
X172355099Y-132398491D01*
X172368011Y-132374158D01*
X172378036Y-132356425D01*
X172384169Y-132347278D01*
X172385275Y-132346467D01*
X172391632Y-132349763D01*
G37*
G36*
X176622775Y-132364561D02*
G01*
X176633121Y-132380153D01*
X176646800Y-132404483D01*
X176663073Y-132436151D01*
X176681199Y-132473757D01*
X176700438Y-132515899D01*
X176705678Y-132527762D01*
X176770566Y-132690921D01*
X176823245Y-132856493D01*
X176863682Y-133024091D01*
X176891844Y-133193326D01*
X176907699Y-133363811D01*
X176911214Y-133535156D01*
X176902357Y-133706975D01*
X176881095Y-133878879D01*
X176847394Y-134050480D01*
X176837348Y-134091993D01*
X176789984Y-134255367D01*
X176731077Y-134414812D01*
X176661087Y-134569614D01*
X176580476Y-134719062D01*
X176489702Y-134862440D01*
X176389229Y-134999037D01*
X176279515Y-135128139D01*
X176161022Y-135249033D01*
X176034210Y-135361005D01*
X175999526Y-135388890D01*
X175862662Y-135489161D01*
X175719280Y-135579626D01*
X175570281Y-135659940D01*
X175416568Y-135729757D01*
X175259043Y-135788731D01*
X175098609Y-135836517D01*
X174936167Y-135872769D01*
X174772619Y-135897140D01*
X174645849Y-135907629D01*
X174568767Y-135911750D01*
X174568767Y-135789527D01*
X174568767Y-135667304D01*
X174967302Y-135434569D01*
X175035776Y-135394587D01*
X175113326Y-135349313D01*
X175198229Y-135299754D01*
X175288759Y-135246917D01*
X175383192Y-135191806D01*
X175479804Y-135135430D01*
X175576870Y-135078793D01*
X175672665Y-135022904D01*
X175765466Y-134968766D01*
X175853547Y-134917388D01*
X175885292Y-134898873D01*
X176404746Y-134595912D01*
X176408845Y-134441741D01*
X176410094Y-134388169D01*
X176411105Y-134331324D01*
X176411882Y-134272519D01*
X176412428Y-134213068D01*
X176412745Y-134154284D01*
X176412838Y-134097479D01*
X176412709Y-134043967D01*
X176412361Y-133995062D01*
X176411799Y-133952076D01*
X176411024Y-133916323D01*
X176410040Y-133889116D01*
X176408850Y-133871768D01*
X176407458Y-133865592D01*
X176407440Y-133865591D01*
X176400823Y-133868604D01*
X176384784Y-133877129D01*
X176360707Y-133890392D01*
X176329979Y-133907619D01*
X176293987Y-133928039D01*
X176254116Y-133950876D01*
X176240691Y-133958611D01*
X176079473Y-134051631D01*
X176040710Y-134160223D01*
X176022553Y-134210534D01*
X176007364Y-134251109D01*
X175994208Y-134284091D01*
X175982148Y-134311622D01*
X175970251Y-134335845D01*
X175957581Y-134358901D01*
X175944282Y-134381182D01*
X175886578Y-134466173D01*
X175822360Y-134544378D01*
X175752684Y-134615002D01*
X175678611Y-134677251D01*
X175601199Y-134730330D01*
X175521505Y-134773445D01*
X175440590Y-134805801D01*
X175359511Y-134826605D01*
X175348129Y-134828563D01*
X175289548Y-134833975D01*
X175227900Y-134832563D01*
X175168059Y-134824673D01*
X175119826Y-134812335D01*
X175054589Y-134784547D01*
X174997167Y-134747094D01*
X174947521Y-134699930D01*
X174905614Y-134643008D01*
X174871409Y-134576281D01*
X174844869Y-134499702D01*
X174834086Y-134455981D01*
X174828385Y-134419358D01*
X174824723Y-134373892D01*
X174823104Y-134323076D01*
X174823533Y-134270403D01*
X174826016Y-134219365D01*
X174830555Y-134173457D01*
X174833662Y-134153162D01*
X174859244Y-134039857D01*
X174895022Y-133928930D01*
X174940224Y-133821784D01*
X174994080Y-133719820D01*
X175055817Y-133624440D01*
X175124664Y-133537044D01*
X175199849Y-133459035D01*
X175231132Y-133431109D01*
X175309352Y-133370326D01*
X175388319Y-133320638D01*
X175467492Y-133282192D01*
X175546328Y-133255132D01*
X175624286Y-133239603D01*
X175700824Y-133235752D01*
X175775399Y-133243722D01*
X175847471Y-133263661D01*
X175850840Y-133264915D01*
X175875782Y-133277239D01*
X175905918Y-133296805D01*
X175938083Y-133321555D01*
X175938361Y-133321786D01*
X175961221Y-133340408D01*
X175981762Y-133356473D01*
X175997365Y-133367967D01*
X176004261Y-133372384D01*
X176009377Y-133373724D01*
X176016960Y-133372941D01*
X176028231Y-133369495D01*
X176044416Y-133362843D01*
X176066735Y-133352446D01*
X176096412Y-133337762D01*
X176134670Y-133318249D01*
X176182430Y-133293523D01*
X176225739Y-133270991D01*
X176266848Y-133249572D01*
X176304049Y-133230159D01*
X176335632Y-133213646D01*
X176359889Y-133200924D01*
X176375112Y-133192886D01*
X176376973Y-133191892D01*
X176406617Y-133175990D01*
X176408231Y-132823040D01*
X176409845Y-132470089D01*
X176509869Y-132414667D01*
X176542098Y-132396994D01*
X176570744Y-132381635D01*
X176593949Y-132369557D01*
X176609859Y-132361728D01*
X176616504Y-132359107D01*
X176622775Y-132364561D01*
G37*
G36*
X174579549Y-131094419D02*
G01*
X174650175Y-131096644D01*
X174715390Y-131100734D01*
X174778708Y-131106975D01*
X174843642Y-131115655D01*
X174913704Y-131127059D01*
X174918853Y-131127960D01*
X175084990Y-131163447D01*
X175248037Y-131210792D01*
X175407295Y-131269583D01*
X175562067Y-131339406D01*
X175711658Y-131419848D01*
X175855368Y-131510496D01*
X175992503Y-131610936D01*
X176122363Y-131720757D01*
X176244253Y-131839544D01*
X176357474Y-131966884D01*
X176379053Y-131993387D01*
X176401942Y-132022674D01*
X176426337Y-132055189D01*
X176451196Y-132089399D01*
X176475474Y-132123768D01*
X176498130Y-132156763D01*
X176518118Y-132186849D01*
X176534396Y-132212491D01*
X176545921Y-132232157D01*
X176551648Y-132244311D01*
X176551816Y-132247415D01*
X176545144Y-132251656D01*
X176529333Y-132260849D01*
X176506218Y-132273954D01*
X176477633Y-132289928D01*
X176448418Y-132306079D01*
X176412732Y-132325560D01*
X176386191Y-132339549D01*
X176367086Y-132348753D01*
X176353706Y-132353881D01*
X176344338Y-132355640D01*
X176337272Y-132354738D01*
X176333923Y-132353445D01*
X176327144Y-132349862D01*
X176312645Y-132341754D01*
X176290171Y-132328973D01*
X176259465Y-132311369D01*
X176220272Y-132288797D01*
X176172337Y-132261107D01*
X176115405Y-132228151D01*
X176049219Y-132189782D01*
X175973524Y-132145852D01*
X175888065Y-132096213D01*
X175792587Y-132040717D01*
X175686833Y-131979217D01*
X175570548Y-131911563D01*
X175565887Y-131908851D01*
X175542391Y-131895183D01*
X175509480Y-131876044D01*
X175468549Y-131852246D01*
X175420994Y-131824600D01*
X175368211Y-131793917D01*
X175311595Y-131761009D01*
X175252541Y-131726686D01*
X175192445Y-131691760D01*
X175165789Y-131676269D01*
X175101853Y-131639114D01*
X175035251Y-131600410D01*
X174967868Y-131561251D01*
X174901586Y-131522732D01*
X174838288Y-131485948D01*
X174779858Y-131451992D01*
X174728178Y-131421959D01*
X174685133Y-131396943D01*
X174679339Y-131393576D01*
X174499215Y-131288898D01*
X174282366Y-131412515D01*
X174230092Y-131442295D01*
X174177140Y-131472424D01*
X174125441Y-131501806D01*
X174076924Y-131529347D01*
X174033521Y-131553949D01*
X173997162Y-131574517D01*
X173970320Y-131589651D01*
X173939422Y-131607187D01*
X173912695Y-131622673D01*
X173891897Y-131635064D01*
X173878784Y-131643316D01*
X173874993Y-131646295D01*
X173879941Y-131650543D01*
X173893686Y-131660238D01*
X173914441Y-131674171D01*
X173940419Y-131691134D01*
X173957688Y-131702211D01*
X173991006Y-131723449D01*
X174025132Y-131745204D01*
X174056629Y-131765284D01*
X174082057Y-131781499D01*
X174088022Y-131785302D01*
X174135532Y-131815603D01*
X174209927Y-131802926D01*
X174274169Y-131792683D01*
X174330505Y-131785412D01*
X174383075Y-131780735D01*
X174436018Y-131778269D01*
X174485614Y-131777629D01*
X174593377Y-131781971D01*
X174696124Y-131794892D01*
X174793163Y-131816041D01*
X174883804Y-131845066D01*
X174967352Y-131881617D01*
X175043118Y-131925343D01*
X175110408Y-131975893D01*
X175168531Y-132032916D01*
X175216796Y-132096062D01*
X175254509Y-132164979D01*
X175255986Y-132168298D01*
X175275632Y-132224589D01*
X175288214Y-132286197D01*
X175293331Y-132349179D01*
X175290583Y-132409590D01*
X175284206Y-132446397D01*
X175262552Y-132511724D01*
X175229308Y-132575005D01*
X175185327Y-132635445D01*
X175131457Y-132692248D01*
X175068551Y-132744620D01*
X174997458Y-132791766D01*
X174919031Y-132832891D01*
X174834119Y-132867199D01*
X174833664Y-132867358D01*
X174745248Y-132893118D01*
X174649197Y-132911804D01*
X174565641Y-132921516D01*
X174532762Y-132924123D01*
X174506927Y-132925787D01*
X174484627Y-132926502D01*
X174462349Y-132926265D01*
X174436585Y-132925071D01*
X174403822Y-132922915D01*
X174381221Y-132921295D01*
X174280263Y-132910044D01*
X174182858Y-132891468D01*
X174089874Y-132866072D01*
X174002182Y-132834357D01*
X173920651Y-132796828D01*
X173846153Y-132753987D01*
X173779557Y-132706337D01*
X173721734Y-132654382D01*
X173673553Y-132598623D01*
X173635885Y-132539566D01*
X173609599Y-132477711D01*
X173608620Y-132474622D01*
X173602555Y-132454260D01*
X173598319Y-132436601D01*
X173595650Y-132418781D01*
X173594282Y-132397932D01*
X173593953Y-132371188D01*
X173594399Y-132335681D01*
X173594647Y-132322788D01*
X173596653Y-132222207D01*
X173549766Y-132194677D01*
X173530847Y-132183530D01*
X173503383Y-132167299D01*
X173469579Y-132147288D01*
X173431638Y-132124801D01*
X173391762Y-132101144D01*
X173369392Y-132087862D01*
X173235904Y-132008577D01*
X172978670Y-132166168D01*
X172926171Y-132198330D01*
X172876025Y-132229049D01*
X172829424Y-132257594D01*
X172787561Y-132283235D01*
X172751629Y-132305241D01*
X172722820Y-132322881D01*
X172702327Y-132335427D01*
X172691545Y-132342022D01*
X172661653Y-132360286D01*
X172558700Y-132295766D01*
X172526904Y-132275579D01*
X172499096Y-132257422D01*
X172476897Y-132242398D01*
X172461928Y-132231604D01*
X172455810Y-132226143D01*
X172455747Y-132225916D01*
X172459287Y-132218112D01*
X172469137Y-132201939D01*
X172484141Y-132179058D01*
X172503144Y-132151128D01*
X172524989Y-132119811D01*
X172548522Y-132086766D01*
X172572587Y-132053655D01*
X172596029Y-132022138D01*
X172613309Y-131999507D01*
X172638598Y-131968621D01*
X172671319Y-131931323D01*
X172709592Y-131889542D01*
X172751536Y-131845207D01*
X172795270Y-131800247D01*
X172838911Y-131756590D01*
X172880580Y-131716166D01*
X172918394Y-131680904D01*
X172950473Y-131652732D01*
X172955870Y-131648254D01*
X173095469Y-131541589D01*
X173240807Y-131445720D01*
X173391399Y-131360895D01*
X173546756Y-131287356D01*
X173706395Y-131225351D01*
X173869827Y-131175125D01*
X173918929Y-131162536D01*
X174023650Y-131138821D01*
X174122949Y-131120612D01*
X174220571Y-131107463D01*
X174320263Y-131098932D01*
X174425769Y-131094575D01*
X174500000Y-131093771D01*
X174579549Y-131094419D01*
G37*
G04 #@! TO.C,J1*
D13*
X155175000Y-133400000D02*
X155175000Y-133970000D01*
X155175000Y-128320000D02*
X155175000Y-131780000D01*
X155175000Y-123240000D02*
X155175000Y-126700000D01*
X155175000Y-118160000D02*
X155175000Y-121620000D01*
X155175000Y-114000000D02*
X155175000Y-116540000D01*
X152415000Y-133970000D02*
X155175000Y-133970000D01*
X152415000Y-130860000D02*
X152415000Y-133970000D01*
X152415000Y-125780000D02*
X152415000Y-129240000D01*
X152415000Y-120700000D02*
X152415000Y-124160000D01*
X152415000Y-115620000D02*
X152415000Y-119080000D01*
X152415000Y-114000000D02*
X150945000Y-114000000D01*
X152415000Y-113430000D02*
X155175000Y-113430000D01*
X152415000Y-113430000D02*
X152415000Y-114000000D01*
G04 #@! TO.C,J2*
X179615000Y-115500000D02*
X179615000Y-116070000D01*
X179615000Y-115500000D02*
X182375000Y-115500000D01*
X179615000Y-116070000D02*
X178145000Y-116070000D01*
X179615000Y-117690000D02*
X179615000Y-121150000D01*
X179615000Y-122770000D02*
X179615000Y-126230000D01*
X179615000Y-127850000D02*
X179615000Y-131310000D01*
X179615000Y-133500000D02*
X182375000Y-133500000D01*
X182375000Y-116070000D02*
X182375000Y-118610000D01*
X182375000Y-120230000D02*
X182375000Y-123690000D01*
X182375000Y-125310000D02*
X182375000Y-128770000D01*
X182375000Y-130390000D02*
X182375000Y-133500000D01*
X182375000Y-132930000D02*
X182375000Y-133500000D01*
G04 #@! TO.C,U1*
D14*
X164650000Y-117665000D02*
X168550000Y-117665000D01*
X164650000Y-127785000D02*
X168550000Y-127785000D01*
D15*
X162365000Y-117690000D02*
G75*
G02*
X162165000Y-117690000I-100000J0D01*
G01*
X162165000Y-117690000D02*
G75*
G02*
X162365000Y-117690000I100000J0D01*
G01*
G04 #@! TO.C,R1*
D13*
X161935000Y-126847936D02*
X161935000Y-128302064D01*
X160115000Y-126847936D02*
X160115000Y-128302064D01*
G04 #@! TD*
M02*
