G04 #@! TF.GenerationSoftware,KiCad,Pcbnew,10.0.3*
G04 #@! TF.CreationDate,2026-07-16T13:28:58-04:00*
G04 #@! TF.ProjectId,LiPoBMS,4c69506f-424d-4532-9e6b-696361645f70,rev?*
G04 #@! TF.SameCoordinates,Original*
G04 #@! TF.FileFunction,Legend,Top*
G04 #@! TF.FilePolarity,Positive*
%FSLAX46Y46*%
G04 Gerber Fmt 4.6, Leading zero omitted, Abs format (unit mm)*
G04 Created by KiCad (PCBNEW 10.0.3) date 2026-07-16 13:28:58*
%MOMM*%
%LPD*%
G01*
G04 APERTURE LIST*
%ADD10C,0.250000*%
%ADD11C,0.150000*%
%ADD12C,0.000000*%
%ADD13C,0.120000*%
%ADD14C,0.152400*%
G04 APERTURE END LIST*
D10*
X143878758Y-71449619D02*
X143402568Y-71449619D01*
X143402568Y-71449619D02*
X143402568Y-70449619D01*
X144212092Y-71449619D02*
X144212092Y-70782952D01*
X144212092Y-70449619D02*
X144164473Y-70497238D01*
X144164473Y-70497238D02*
X144212092Y-70544857D01*
X144212092Y-70544857D02*
X144259711Y-70497238D01*
X144259711Y-70497238D02*
X144212092Y-70449619D01*
X144212092Y-70449619D02*
X144212092Y-70544857D01*
X144688282Y-71449619D02*
X144688282Y-70449619D01*
X144688282Y-70449619D02*
X145069234Y-70449619D01*
X145069234Y-70449619D02*
X145164472Y-70497238D01*
X145164472Y-70497238D02*
X145212091Y-70544857D01*
X145212091Y-70544857D02*
X145259710Y-70640095D01*
X145259710Y-70640095D02*
X145259710Y-70782952D01*
X145259710Y-70782952D02*
X145212091Y-70878190D01*
X145212091Y-70878190D02*
X145164472Y-70925809D01*
X145164472Y-70925809D02*
X145069234Y-70973428D01*
X145069234Y-70973428D02*
X144688282Y-70973428D01*
X145831139Y-71449619D02*
X145735901Y-71402000D01*
X145735901Y-71402000D02*
X145688282Y-71354380D01*
X145688282Y-71354380D02*
X145640663Y-71259142D01*
X145640663Y-71259142D02*
X145640663Y-70973428D01*
X145640663Y-70973428D02*
X145688282Y-70878190D01*
X145688282Y-70878190D02*
X145735901Y-70830571D01*
X145735901Y-70830571D02*
X145831139Y-70782952D01*
X145831139Y-70782952D02*
X145973996Y-70782952D01*
X145973996Y-70782952D02*
X146069234Y-70830571D01*
X146069234Y-70830571D02*
X146116853Y-70878190D01*
X146116853Y-70878190D02*
X146164472Y-70973428D01*
X146164472Y-70973428D02*
X146164472Y-71259142D01*
X146164472Y-71259142D02*
X146116853Y-71354380D01*
X146116853Y-71354380D02*
X146069234Y-71402000D01*
X146069234Y-71402000D02*
X145973996Y-71449619D01*
X145973996Y-71449619D02*
X145831139Y-71449619D01*
X147688282Y-70925809D02*
X147831139Y-70973428D01*
X147831139Y-70973428D02*
X147878758Y-71021047D01*
X147878758Y-71021047D02*
X147926377Y-71116285D01*
X147926377Y-71116285D02*
X147926377Y-71259142D01*
X147926377Y-71259142D02*
X147878758Y-71354380D01*
X147878758Y-71354380D02*
X147831139Y-71402000D01*
X147831139Y-71402000D02*
X147735901Y-71449619D01*
X147735901Y-71449619D02*
X147354949Y-71449619D01*
X147354949Y-71449619D02*
X147354949Y-70449619D01*
X147354949Y-70449619D02*
X147688282Y-70449619D01*
X147688282Y-70449619D02*
X147783520Y-70497238D01*
X147783520Y-70497238D02*
X147831139Y-70544857D01*
X147831139Y-70544857D02*
X147878758Y-70640095D01*
X147878758Y-70640095D02*
X147878758Y-70735333D01*
X147878758Y-70735333D02*
X147831139Y-70830571D01*
X147831139Y-70830571D02*
X147783520Y-70878190D01*
X147783520Y-70878190D02*
X147688282Y-70925809D01*
X147688282Y-70925809D02*
X147354949Y-70925809D01*
X148354949Y-71449619D02*
X148354949Y-70449619D01*
X148354949Y-70449619D02*
X148688282Y-71163904D01*
X148688282Y-71163904D02*
X149021615Y-70449619D01*
X149021615Y-70449619D02*
X149021615Y-71449619D01*
X149450187Y-71402000D02*
X149593044Y-71449619D01*
X149593044Y-71449619D02*
X149831139Y-71449619D01*
X149831139Y-71449619D02*
X149926377Y-71402000D01*
X149926377Y-71402000D02*
X149973996Y-71354380D01*
X149973996Y-71354380D02*
X150021615Y-71259142D01*
X150021615Y-71259142D02*
X150021615Y-71163904D01*
X150021615Y-71163904D02*
X149973996Y-71068666D01*
X149973996Y-71068666D02*
X149926377Y-71021047D01*
X149926377Y-71021047D02*
X149831139Y-70973428D01*
X149831139Y-70973428D02*
X149640663Y-70925809D01*
X149640663Y-70925809D02*
X149545425Y-70878190D01*
X149545425Y-70878190D02*
X149497806Y-70830571D01*
X149497806Y-70830571D02*
X149450187Y-70735333D01*
X149450187Y-70735333D02*
X149450187Y-70640095D01*
X149450187Y-70640095D02*
X149497806Y-70544857D01*
X149497806Y-70544857D02*
X149545425Y-70497238D01*
X149545425Y-70497238D02*
X149640663Y-70449619D01*
X149640663Y-70449619D02*
X149878758Y-70449619D01*
X149878758Y-70449619D02*
X150021615Y-70497238D01*
X151545425Y-70925809D02*
X151688282Y-70973428D01*
X151688282Y-70973428D02*
X151735901Y-71021047D01*
X151735901Y-71021047D02*
X151783520Y-71116285D01*
X151783520Y-71116285D02*
X151783520Y-71259142D01*
X151783520Y-71259142D02*
X151735901Y-71354380D01*
X151735901Y-71354380D02*
X151688282Y-71402000D01*
X151688282Y-71402000D02*
X151593044Y-71449619D01*
X151593044Y-71449619D02*
X151212092Y-71449619D01*
X151212092Y-71449619D02*
X151212092Y-70449619D01*
X151212092Y-70449619D02*
X151545425Y-70449619D01*
X151545425Y-70449619D02*
X151640663Y-70497238D01*
X151640663Y-70497238D02*
X151688282Y-70544857D01*
X151688282Y-70544857D02*
X151735901Y-70640095D01*
X151735901Y-70640095D02*
X151735901Y-70735333D01*
X151735901Y-70735333D02*
X151688282Y-70830571D01*
X151688282Y-70830571D02*
X151640663Y-70878190D01*
X151640663Y-70878190D02*
X151545425Y-70925809D01*
X151545425Y-70925809D02*
X151212092Y-70925809D01*
X152354949Y-71449619D02*
X152259711Y-71402000D01*
X152259711Y-71402000D02*
X152212092Y-71354380D01*
X152212092Y-71354380D02*
X152164473Y-71259142D01*
X152164473Y-71259142D02*
X152164473Y-70973428D01*
X152164473Y-70973428D02*
X152212092Y-70878190D01*
X152212092Y-70878190D02*
X152259711Y-70830571D01*
X152259711Y-70830571D02*
X152354949Y-70782952D01*
X152354949Y-70782952D02*
X152497806Y-70782952D01*
X152497806Y-70782952D02*
X152593044Y-70830571D01*
X152593044Y-70830571D02*
X152640663Y-70878190D01*
X152640663Y-70878190D02*
X152688282Y-70973428D01*
X152688282Y-70973428D02*
X152688282Y-71259142D01*
X152688282Y-71259142D02*
X152640663Y-71354380D01*
X152640663Y-71354380D02*
X152593044Y-71402000D01*
X152593044Y-71402000D02*
X152497806Y-71449619D01*
X152497806Y-71449619D02*
X152354949Y-71449619D01*
X153545425Y-71449619D02*
X153545425Y-70925809D01*
X153545425Y-70925809D02*
X153497806Y-70830571D01*
X153497806Y-70830571D02*
X153402568Y-70782952D01*
X153402568Y-70782952D02*
X153212092Y-70782952D01*
X153212092Y-70782952D02*
X153116854Y-70830571D01*
X153545425Y-71402000D02*
X153450187Y-71449619D01*
X153450187Y-71449619D02*
X153212092Y-71449619D01*
X153212092Y-71449619D02*
X153116854Y-71402000D01*
X153116854Y-71402000D02*
X153069235Y-71306761D01*
X153069235Y-71306761D02*
X153069235Y-71211523D01*
X153069235Y-71211523D02*
X153116854Y-71116285D01*
X153116854Y-71116285D02*
X153212092Y-71068666D01*
X153212092Y-71068666D02*
X153450187Y-71068666D01*
X153450187Y-71068666D02*
X153545425Y-71021047D01*
X154021616Y-71449619D02*
X154021616Y-70782952D01*
X154021616Y-70973428D02*
X154069235Y-70878190D01*
X154069235Y-70878190D02*
X154116854Y-70830571D01*
X154116854Y-70830571D02*
X154212092Y-70782952D01*
X154212092Y-70782952D02*
X154307330Y-70782952D01*
X155069235Y-71449619D02*
X155069235Y-70449619D01*
X155069235Y-71402000D02*
X154973997Y-71449619D01*
X154973997Y-71449619D02*
X154783521Y-71449619D01*
X154783521Y-71449619D02*
X154688283Y-71402000D01*
X154688283Y-71402000D02*
X154640664Y-71354380D01*
X154640664Y-71354380D02*
X154593045Y-71259142D01*
X154593045Y-71259142D02*
X154593045Y-70973428D01*
X154593045Y-70973428D02*
X154640664Y-70878190D01*
X154640664Y-70878190D02*
X154688283Y-70830571D01*
X154688283Y-70830571D02*
X154783521Y-70782952D01*
X154783521Y-70782952D02*
X154973997Y-70782952D01*
X154973997Y-70782952D02*
X155069235Y-70830571D01*
X165060658Y-84354380D02*
X165013039Y-84402000D01*
X165013039Y-84402000D02*
X164870182Y-84449619D01*
X164870182Y-84449619D02*
X164774944Y-84449619D01*
X164774944Y-84449619D02*
X164632087Y-84402000D01*
X164632087Y-84402000D02*
X164536849Y-84306761D01*
X164536849Y-84306761D02*
X164489230Y-84211523D01*
X164489230Y-84211523D02*
X164441611Y-84021047D01*
X164441611Y-84021047D02*
X164441611Y-83878190D01*
X164441611Y-83878190D02*
X164489230Y-83687714D01*
X164489230Y-83687714D02*
X164536849Y-83592476D01*
X164536849Y-83592476D02*
X164632087Y-83497238D01*
X164632087Y-83497238D02*
X164774944Y-83449619D01*
X164774944Y-83449619D02*
X164870182Y-83449619D01*
X164870182Y-83449619D02*
X165013039Y-83497238D01*
X165013039Y-83497238D02*
X165060658Y-83544857D01*
X165489230Y-84449619D02*
X165489230Y-83449619D01*
X165917801Y-84449619D02*
X165917801Y-83925809D01*
X165917801Y-83925809D02*
X165870182Y-83830571D01*
X165870182Y-83830571D02*
X165774944Y-83782952D01*
X165774944Y-83782952D02*
X165632087Y-83782952D01*
X165632087Y-83782952D02*
X165536849Y-83830571D01*
X165536849Y-83830571D02*
X165489230Y-83878190D01*
X166822563Y-84449619D02*
X166822563Y-83925809D01*
X166822563Y-83925809D02*
X166774944Y-83830571D01*
X166774944Y-83830571D02*
X166679706Y-83782952D01*
X166679706Y-83782952D02*
X166489230Y-83782952D01*
X166489230Y-83782952D02*
X166393992Y-83830571D01*
X166822563Y-84402000D02*
X166727325Y-84449619D01*
X166727325Y-84449619D02*
X166489230Y-84449619D01*
X166489230Y-84449619D02*
X166393992Y-84402000D01*
X166393992Y-84402000D02*
X166346373Y-84306761D01*
X166346373Y-84306761D02*
X166346373Y-84211523D01*
X166346373Y-84211523D02*
X166393992Y-84116285D01*
X166393992Y-84116285D02*
X166489230Y-84068666D01*
X166489230Y-84068666D02*
X166727325Y-84068666D01*
X166727325Y-84068666D02*
X166822563Y-84021047D01*
X167298754Y-84449619D02*
X167298754Y-83782952D01*
X167298754Y-83973428D02*
X167346373Y-83878190D01*
X167346373Y-83878190D02*
X167393992Y-83830571D01*
X167393992Y-83830571D02*
X167489230Y-83782952D01*
X167489230Y-83782952D02*
X167584468Y-83782952D01*
X168346373Y-83782952D02*
X168346373Y-84592476D01*
X168346373Y-84592476D02*
X168298754Y-84687714D01*
X168298754Y-84687714D02*
X168251135Y-84735333D01*
X168251135Y-84735333D02*
X168155897Y-84782952D01*
X168155897Y-84782952D02*
X168013040Y-84782952D01*
X168013040Y-84782952D02*
X167917802Y-84735333D01*
X168346373Y-84402000D02*
X168251135Y-84449619D01*
X168251135Y-84449619D02*
X168060659Y-84449619D01*
X168060659Y-84449619D02*
X167965421Y-84402000D01*
X167965421Y-84402000D02*
X167917802Y-84354380D01*
X167917802Y-84354380D02*
X167870183Y-84259142D01*
X167870183Y-84259142D02*
X167870183Y-83973428D01*
X167870183Y-83973428D02*
X167917802Y-83878190D01*
X167917802Y-83878190D02*
X167965421Y-83830571D01*
X167965421Y-83830571D02*
X168060659Y-83782952D01*
X168060659Y-83782952D02*
X168251135Y-83782952D01*
X168251135Y-83782952D02*
X168346373Y-83830571D01*
X168822564Y-84449619D02*
X168822564Y-83782952D01*
X168822564Y-83449619D02*
X168774945Y-83497238D01*
X168774945Y-83497238D02*
X168822564Y-83544857D01*
X168822564Y-83544857D02*
X168870183Y-83497238D01*
X168870183Y-83497238D02*
X168822564Y-83449619D01*
X168822564Y-83449619D02*
X168822564Y-83544857D01*
X169298754Y-83782952D02*
X169298754Y-84449619D01*
X169298754Y-83878190D02*
X169346373Y-83830571D01*
X169346373Y-83830571D02*
X169441611Y-83782952D01*
X169441611Y-83782952D02*
X169584468Y-83782952D01*
X169584468Y-83782952D02*
X169679706Y-83830571D01*
X169679706Y-83830571D02*
X169727325Y-83925809D01*
X169727325Y-83925809D02*
X169727325Y-84449619D01*
X170632087Y-83782952D02*
X170632087Y-84592476D01*
X170632087Y-84592476D02*
X170584468Y-84687714D01*
X170584468Y-84687714D02*
X170536849Y-84735333D01*
X170536849Y-84735333D02*
X170441611Y-84782952D01*
X170441611Y-84782952D02*
X170298754Y-84782952D01*
X170298754Y-84782952D02*
X170203516Y-84735333D01*
X170632087Y-84402000D02*
X170536849Y-84449619D01*
X170536849Y-84449619D02*
X170346373Y-84449619D01*
X170346373Y-84449619D02*
X170251135Y-84402000D01*
X170251135Y-84402000D02*
X170203516Y-84354380D01*
X170203516Y-84354380D02*
X170155897Y-84259142D01*
X170155897Y-84259142D02*
X170155897Y-83973428D01*
X170155897Y-83973428D02*
X170203516Y-83878190D01*
X170203516Y-83878190D02*
X170251135Y-83830571D01*
X170251135Y-83830571D02*
X170346373Y-83782952D01*
X170346373Y-83782952D02*
X170536849Y-83782952D01*
X170536849Y-83782952D02*
X170632087Y-83830571D01*
X171108278Y-84354380D02*
X171155897Y-84402000D01*
X171155897Y-84402000D02*
X171108278Y-84449619D01*
X171108278Y-84449619D02*
X171060659Y-84402000D01*
X171060659Y-84402000D02*
X171108278Y-84354380D01*
X171108278Y-84354380D02*
X171108278Y-84449619D01*
X171584468Y-84354380D02*
X171632087Y-84402000D01*
X171632087Y-84402000D02*
X171584468Y-84449619D01*
X171584468Y-84449619D02*
X171536849Y-84402000D01*
X171536849Y-84402000D02*
X171584468Y-84354380D01*
X171584468Y-84354380D02*
X171584468Y-84449619D01*
X172060658Y-84354380D02*
X172108277Y-84402000D01*
X172108277Y-84402000D02*
X172060658Y-84449619D01*
X172060658Y-84449619D02*
X172013039Y-84402000D01*
X172013039Y-84402000D02*
X172060658Y-84354380D01*
X172060658Y-84354380D02*
X172060658Y-84449619D01*
X141287907Y-75449619D02*
X140811717Y-75449619D01*
X140811717Y-75449619D02*
X140764098Y-75925809D01*
X140764098Y-75925809D02*
X140811717Y-75878190D01*
X140811717Y-75878190D02*
X140906955Y-75830571D01*
X140906955Y-75830571D02*
X141145050Y-75830571D01*
X141145050Y-75830571D02*
X141240288Y-75878190D01*
X141240288Y-75878190D02*
X141287907Y-75925809D01*
X141287907Y-75925809D02*
X141335526Y-76021047D01*
X141335526Y-76021047D02*
X141335526Y-76259142D01*
X141335526Y-76259142D02*
X141287907Y-76354380D01*
X141287907Y-76354380D02*
X141240288Y-76402000D01*
X141240288Y-76402000D02*
X141145050Y-76449619D01*
X141145050Y-76449619D02*
X140906955Y-76449619D01*
X140906955Y-76449619D02*
X140811717Y-76402000D01*
X140811717Y-76402000D02*
X140764098Y-76354380D01*
X141621241Y-75449619D02*
X141954574Y-76449619D01*
X141954574Y-76449619D02*
X142287907Y-75449619D01*
X142811717Y-75449619D02*
X142906955Y-75449619D01*
X142906955Y-75449619D02*
X143002193Y-75497238D01*
X143002193Y-75497238D02*
X143049812Y-75544857D01*
X143049812Y-75544857D02*
X143097431Y-75640095D01*
X143097431Y-75640095D02*
X143145050Y-75830571D01*
X143145050Y-75830571D02*
X143145050Y-76068666D01*
X143145050Y-76068666D02*
X143097431Y-76259142D01*
X143097431Y-76259142D02*
X143049812Y-76354380D01*
X143049812Y-76354380D02*
X143002193Y-76402000D01*
X143002193Y-76402000D02*
X142906955Y-76449619D01*
X142906955Y-76449619D02*
X142811717Y-76449619D01*
X142811717Y-76449619D02*
X142716479Y-76402000D01*
X142716479Y-76402000D02*
X142668860Y-76354380D01*
X142668860Y-76354380D02*
X142621241Y-76259142D01*
X142621241Y-76259142D02*
X142573622Y-76068666D01*
X142573622Y-76068666D02*
X142573622Y-75830571D01*
X142573622Y-75830571D02*
X142621241Y-75640095D01*
X142621241Y-75640095D02*
X142668860Y-75544857D01*
X142668860Y-75544857D02*
X142716479Y-75497238D01*
X142716479Y-75497238D02*
X142811717Y-75449619D01*
X141049812Y-77997238D02*
X140954574Y-77949619D01*
X140954574Y-77949619D02*
X140811717Y-77949619D01*
X140811717Y-77949619D02*
X140668860Y-77997238D01*
X140668860Y-77997238D02*
X140573622Y-78092476D01*
X140573622Y-78092476D02*
X140526003Y-78187714D01*
X140526003Y-78187714D02*
X140478384Y-78378190D01*
X140478384Y-78378190D02*
X140478384Y-78521047D01*
X140478384Y-78521047D02*
X140526003Y-78711523D01*
X140526003Y-78711523D02*
X140573622Y-78806761D01*
X140573622Y-78806761D02*
X140668860Y-78902000D01*
X140668860Y-78902000D02*
X140811717Y-78949619D01*
X140811717Y-78949619D02*
X140906955Y-78949619D01*
X140906955Y-78949619D02*
X141049812Y-78902000D01*
X141049812Y-78902000D02*
X141097431Y-78854380D01*
X141097431Y-78854380D02*
X141097431Y-78521047D01*
X141097431Y-78521047D02*
X140906955Y-78521047D01*
X141526003Y-78949619D02*
X141526003Y-77949619D01*
X141526003Y-77949619D02*
X142097431Y-78949619D01*
X142097431Y-78949619D02*
X142097431Y-77949619D01*
X142573622Y-78949619D02*
X142573622Y-77949619D01*
X142573622Y-77949619D02*
X142811717Y-77949619D01*
X142811717Y-77949619D02*
X142954574Y-77997238D01*
X142954574Y-77997238D02*
X143049812Y-78092476D01*
X143049812Y-78092476D02*
X143097431Y-78187714D01*
X143097431Y-78187714D02*
X143145050Y-78378190D01*
X143145050Y-78378190D02*
X143145050Y-78521047D01*
X143145050Y-78521047D02*
X143097431Y-78711523D01*
X143097431Y-78711523D02*
X143049812Y-78806761D01*
X143049812Y-78806761D02*
X142954574Y-78902000D01*
X142954574Y-78902000D02*
X142811717Y-78949619D01*
X142811717Y-78949619D02*
X142573622Y-78949619D01*
X173426377Y-75497238D02*
X173331139Y-75449619D01*
X173331139Y-75449619D02*
X173188282Y-75449619D01*
X173188282Y-75449619D02*
X173045425Y-75497238D01*
X173045425Y-75497238D02*
X172950187Y-75592476D01*
X172950187Y-75592476D02*
X172902568Y-75687714D01*
X172902568Y-75687714D02*
X172854949Y-75878190D01*
X172854949Y-75878190D02*
X172854949Y-76021047D01*
X172854949Y-76021047D02*
X172902568Y-76211523D01*
X172902568Y-76211523D02*
X172950187Y-76306761D01*
X172950187Y-76306761D02*
X173045425Y-76402000D01*
X173045425Y-76402000D02*
X173188282Y-76449619D01*
X173188282Y-76449619D02*
X173283520Y-76449619D01*
X173283520Y-76449619D02*
X173426377Y-76402000D01*
X173426377Y-76402000D02*
X173473996Y-76354380D01*
X173473996Y-76354380D02*
X173473996Y-76021047D01*
X173473996Y-76021047D02*
X173283520Y-76021047D01*
X173902568Y-76449619D02*
X173902568Y-75449619D01*
X173902568Y-75449619D02*
X174473996Y-76449619D01*
X174473996Y-76449619D02*
X174473996Y-75449619D01*
X174950187Y-76449619D02*
X174950187Y-75449619D01*
X174950187Y-75449619D02*
X175188282Y-75449619D01*
X175188282Y-75449619D02*
X175331139Y-75497238D01*
X175331139Y-75497238D02*
X175426377Y-75592476D01*
X175426377Y-75592476D02*
X175473996Y-75687714D01*
X175473996Y-75687714D02*
X175521615Y-75878190D01*
X175521615Y-75878190D02*
X175521615Y-76021047D01*
X175521615Y-76021047D02*
X175473996Y-76211523D01*
X175473996Y-76211523D02*
X175426377Y-76306761D01*
X175426377Y-76306761D02*
X175331139Y-76402000D01*
X175331139Y-76402000D02*
X175188282Y-76449619D01*
X175188282Y-76449619D02*
X174950187Y-76449619D01*
X172759711Y-72949619D02*
X173093044Y-73949619D01*
X173093044Y-73949619D02*
X173426377Y-72949619D01*
X174093044Y-73425809D02*
X174235901Y-73473428D01*
X174235901Y-73473428D02*
X174283520Y-73521047D01*
X174283520Y-73521047D02*
X174331139Y-73616285D01*
X174331139Y-73616285D02*
X174331139Y-73759142D01*
X174331139Y-73759142D02*
X174283520Y-73854380D01*
X174283520Y-73854380D02*
X174235901Y-73902000D01*
X174235901Y-73902000D02*
X174140663Y-73949619D01*
X174140663Y-73949619D02*
X173759711Y-73949619D01*
X173759711Y-73949619D02*
X173759711Y-72949619D01*
X173759711Y-72949619D02*
X174093044Y-72949619D01*
X174093044Y-72949619D02*
X174188282Y-72997238D01*
X174188282Y-72997238D02*
X174235901Y-73044857D01*
X174235901Y-73044857D02*
X174283520Y-73140095D01*
X174283520Y-73140095D02*
X174283520Y-73235333D01*
X174283520Y-73235333D02*
X174235901Y-73330571D01*
X174235901Y-73330571D02*
X174188282Y-73378190D01*
X174188282Y-73378190D02*
X174093044Y-73425809D01*
X174093044Y-73425809D02*
X173759711Y-73425809D01*
X174712092Y-73663904D02*
X175188282Y-73663904D01*
X174616854Y-73949619D02*
X174950187Y-72949619D01*
X174950187Y-72949619D02*
X175283520Y-73949619D01*
X175473997Y-72949619D02*
X176045425Y-72949619D01*
X175759711Y-73949619D02*
X175759711Y-72949619D01*
D11*
X162833333Y-70859580D02*
X162785714Y-70907200D01*
X162785714Y-70907200D02*
X162642857Y-70954819D01*
X162642857Y-70954819D02*
X162547619Y-70954819D01*
X162547619Y-70954819D02*
X162404762Y-70907200D01*
X162404762Y-70907200D02*
X162309524Y-70811961D01*
X162309524Y-70811961D02*
X162261905Y-70716723D01*
X162261905Y-70716723D02*
X162214286Y-70526247D01*
X162214286Y-70526247D02*
X162214286Y-70383390D01*
X162214286Y-70383390D02*
X162261905Y-70192914D01*
X162261905Y-70192914D02*
X162309524Y-70097676D01*
X162309524Y-70097676D02*
X162404762Y-70002438D01*
X162404762Y-70002438D02*
X162547619Y-69954819D01*
X162547619Y-69954819D02*
X162642857Y-69954819D01*
X162642857Y-69954819D02*
X162785714Y-70002438D01*
X162785714Y-70002438D02*
X162833333Y-70050057D01*
X163214286Y-70050057D02*
X163261905Y-70002438D01*
X163261905Y-70002438D02*
X163357143Y-69954819D01*
X163357143Y-69954819D02*
X163595238Y-69954819D01*
X163595238Y-69954819D02*
X163690476Y-70002438D01*
X163690476Y-70002438D02*
X163738095Y-70050057D01*
X163738095Y-70050057D02*
X163785714Y-70145295D01*
X163785714Y-70145295D02*
X163785714Y-70240533D01*
X163785714Y-70240533D02*
X163738095Y-70383390D01*
X163738095Y-70383390D02*
X163166667Y-70954819D01*
X163166667Y-70954819D02*
X163785714Y-70954819D01*
X165333333Y-79954819D02*
X165000000Y-79478628D01*
X164761905Y-79954819D02*
X164761905Y-78954819D01*
X164761905Y-78954819D02*
X165142857Y-78954819D01*
X165142857Y-78954819D02*
X165238095Y-79002438D01*
X165238095Y-79002438D02*
X165285714Y-79050057D01*
X165285714Y-79050057D02*
X165333333Y-79145295D01*
X165333333Y-79145295D02*
X165333333Y-79288152D01*
X165333333Y-79288152D02*
X165285714Y-79383390D01*
X165285714Y-79383390D02*
X165238095Y-79431009D01*
X165238095Y-79431009D02*
X165142857Y-79478628D01*
X165142857Y-79478628D02*
X164761905Y-79478628D01*
X165714286Y-79050057D02*
X165761905Y-79002438D01*
X165761905Y-79002438D02*
X165857143Y-78954819D01*
X165857143Y-78954819D02*
X166095238Y-78954819D01*
X166095238Y-78954819D02*
X166190476Y-79002438D01*
X166190476Y-79002438D02*
X166238095Y-79050057D01*
X166238095Y-79050057D02*
X166285714Y-79145295D01*
X166285714Y-79145295D02*
X166285714Y-79240533D01*
X166285714Y-79240533D02*
X166238095Y-79383390D01*
X166238095Y-79383390D02*
X165666667Y-79954819D01*
X165666667Y-79954819D02*
X166285714Y-79954819D01*
X158344006Y-79744858D02*
X158010673Y-79268667D01*
X157772578Y-79744858D02*
X157772578Y-78744858D01*
X157772578Y-78744858D02*
X158153530Y-78744858D01*
X158153530Y-78744858D02*
X158248768Y-78792477D01*
X158248768Y-78792477D02*
X158296387Y-78840096D01*
X158296387Y-78840096D02*
X158344006Y-78935334D01*
X158344006Y-78935334D02*
X158344006Y-79078191D01*
X158344006Y-79078191D02*
X158296387Y-79173429D01*
X158296387Y-79173429D02*
X158248768Y-79221048D01*
X158248768Y-79221048D02*
X158153530Y-79268667D01*
X158153530Y-79268667D02*
X157772578Y-79268667D01*
X159296387Y-79744858D02*
X158724959Y-79744858D01*
X159010673Y-79744858D02*
X159010673Y-78744858D01*
X159010673Y-78744858D02*
X158915435Y-78887715D01*
X158915435Y-78887715D02*
X158820197Y-78982953D01*
X158820197Y-78982953D02*
X158724959Y-79030572D01*
X168666666Y-70304819D02*
X168666666Y-71019104D01*
X168666666Y-71019104D02*
X168619047Y-71161961D01*
X168619047Y-71161961D02*
X168523809Y-71257200D01*
X168523809Y-71257200D02*
X168380952Y-71304819D01*
X168380952Y-71304819D02*
X168285714Y-71304819D01*
X169095238Y-70400057D02*
X169142857Y-70352438D01*
X169142857Y-70352438D02*
X169238095Y-70304819D01*
X169238095Y-70304819D02*
X169476190Y-70304819D01*
X169476190Y-70304819D02*
X169571428Y-70352438D01*
X169571428Y-70352438D02*
X169619047Y-70400057D01*
X169619047Y-70400057D02*
X169666666Y-70495295D01*
X169666666Y-70495295D02*
X169666666Y-70590533D01*
X169666666Y-70590533D02*
X169619047Y-70733390D01*
X169619047Y-70733390D02*
X169047619Y-71304819D01*
X169047619Y-71304819D02*
X169666666Y-71304819D01*
X146666666Y-72804819D02*
X146666666Y-73519104D01*
X146666666Y-73519104D02*
X146619047Y-73661961D01*
X146619047Y-73661961D02*
X146523809Y-73757200D01*
X146523809Y-73757200D02*
X146380952Y-73804819D01*
X146380952Y-73804819D02*
X146285714Y-73804819D01*
X147666666Y-73804819D02*
X147095238Y-73804819D01*
X147380952Y-73804819D02*
X147380952Y-72804819D01*
X147380952Y-72804819D02*
X147285714Y-72947676D01*
X147285714Y-72947676D02*
X147190476Y-73042914D01*
X147190476Y-73042914D02*
X147095238Y-73090533D01*
X157261905Y-84454819D02*
X157261905Y-83454819D01*
X157261905Y-83454819D02*
X157500000Y-83454819D01*
X157500000Y-83454819D02*
X157642857Y-83502438D01*
X157642857Y-83502438D02*
X157738095Y-83597676D01*
X157738095Y-83597676D02*
X157785714Y-83692914D01*
X157785714Y-83692914D02*
X157833333Y-83883390D01*
X157833333Y-83883390D02*
X157833333Y-84026247D01*
X157833333Y-84026247D02*
X157785714Y-84216723D01*
X157785714Y-84216723D02*
X157738095Y-84311961D01*
X157738095Y-84311961D02*
X157642857Y-84407200D01*
X157642857Y-84407200D02*
X157500000Y-84454819D01*
X157500000Y-84454819D02*
X157261905Y-84454819D01*
X158785714Y-84454819D02*
X158214286Y-84454819D01*
X158500000Y-84454819D02*
X158500000Y-83454819D01*
X158500000Y-83454819D02*
X158404762Y-83597676D01*
X158404762Y-83597676D02*
X158309524Y-83692914D01*
X158309524Y-83692914D02*
X158214286Y-83740533D01*
X151333333Y-76859580D02*
X151285714Y-76907200D01*
X151285714Y-76907200D02*
X151142857Y-76954819D01*
X151142857Y-76954819D02*
X151047619Y-76954819D01*
X151047619Y-76954819D02*
X150904762Y-76907200D01*
X150904762Y-76907200D02*
X150809524Y-76811961D01*
X150809524Y-76811961D02*
X150761905Y-76716723D01*
X150761905Y-76716723D02*
X150714286Y-76526247D01*
X150714286Y-76526247D02*
X150714286Y-76383390D01*
X150714286Y-76383390D02*
X150761905Y-76192914D01*
X150761905Y-76192914D02*
X150809524Y-76097676D01*
X150809524Y-76097676D02*
X150904762Y-76002438D01*
X150904762Y-76002438D02*
X151047619Y-75954819D01*
X151047619Y-75954819D02*
X151142857Y-75954819D01*
X151142857Y-75954819D02*
X151285714Y-76002438D01*
X151285714Y-76002438D02*
X151333333Y-76050057D01*
X152285714Y-76954819D02*
X151714286Y-76954819D01*
X152000000Y-76954819D02*
X152000000Y-75954819D01*
X152000000Y-75954819D02*
X151904762Y-76097676D01*
X151904762Y-76097676D02*
X151809524Y-76192914D01*
X151809524Y-76192914D02*
X151714286Y-76240533D01*
X157738095Y-73454819D02*
X157738095Y-74264342D01*
X157738095Y-74264342D02*
X157785714Y-74359580D01*
X157785714Y-74359580D02*
X157833333Y-74407200D01*
X157833333Y-74407200D02*
X157928571Y-74454819D01*
X157928571Y-74454819D02*
X158119047Y-74454819D01*
X158119047Y-74454819D02*
X158214285Y-74407200D01*
X158214285Y-74407200D02*
X158261904Y-74359580D01*
X158261904Y-74359580D02*
X158309523Y-74264342D01*
X158309523Y-74264342D02*
X158309523Y-73454819D01*
X159309523Y-74454819D02*
X158738095Y-74454819D01*
X159023809Y-74454819D02*
X159023809Y-73454819D01*
X159023809Y-73454819D02*
X158928571Y-73597676D01*
X158928571Y-73597676D02*
X158833333Y-73692914D01*
X158833333Y-73692914D02*
X158738095Y-73740533D01*
X160049400Y-78555819D02*
X160049400Y-78793914D01*
X159811305Y-78698676D02*
X160049400Y-78793914D01*
X160049400Y-78793914D02*
X160287495Y-78698676D01*
X159906543Y-78984390D02*
X160049400Y-78793914D01*
X160049400Y-78793914D02*
X160192257Y-78984390D01*
X160049399Y-79045180D02*
X160049399Y-78807085D01*
X160287494Y-78902323D02*
X160049399Y-78807085D01*
X160049399Y-78807085D02*
X159811304Y-78902323D01*
X160192256Y-78616609D02*
X160049399Y-78807085D01*
X160049399Y-78807085D02*
X159906542Y-78616609D01*
D12*
G04 #@! TO.C,G\u002A\u002A\u002A*
G36*
X154883280Y-85381230D02*
G01*
X154883280Y-85435561D01*
X148363494Y-85435561D01*
X141843708Y-85435561D01*
X141843708Y-85381230D01*
X141843708Y-85326898D01*
X148363494Y-85326898D01*
X154883280Y-85326898D01*
X154883280Y-85381230D01*
G37*
G36*
X154991943Y-81808930D02*
G01*
X154991943Y-81863262D01*
X148444991Y-81863262D01*
X141898040Y-81863262D01*
X141898040Y-81808930D01*
X141898040Y-81754599D01*
X148444991Y-81754599D01*
X154991943Y-81754599D01*
X154991943Y-81808930D01*
G37*
G36*
X151229483Y-83554963D02*
G01*
X151229372Y-83734034D01*
X151229049Y-83905128D01*
X151228531Y-84066324D01*
X151227833Y-84215702D01*
X151226973Y-84351340D01*
X151225965Y-84471318D01*
X151224825Y-84573714D01*
X151223571Y-84656610D01*
X151222219Y-84718083D01*
X151220783Y-84756212D01*
X151219296Y-84769081D01*
X151200298Y-84762996D01*
X151178548Y-84753422D01*
X151147986Y-84738683D01*
X151148072Y-83562443D01*
X151148158Y-82386203D01*
X151188821Y-82363065D01*
X151229483Y-82339927D01*
X151229483Y-83554963D01*
G37*
G36*
X151066454Y-82406517D02*
G01*
X151067446Y-82421468D01*
X151068312Y-82461589D01*
X151069048Y-82524882D01*
X151069648Y-82609351D01*
X151070106Y-82713000D01*
X151070417Y-82833832D01*
X151070575Y-82969850D01*
X151070574Y-83119059D01*
X151070410Y-83279462D01*
X151070075Y-83449061D01*
X151069733Y-83573404D01*
X151069005Y-83785477D01*
X151068189Y-83971791D01*
X151067259Y-84133752D01*
X151066191Y-84272768D01*
X151064959Y-84390245D01*
X151063540Y-84487590D01*
X151061908Y-84566209D01*
X151060038Y-84627509D01*
X151057905Y-84672897D01*
X151055486Y-84703780D01*
X151052754Y-84721564D01*
X151049685Y-84727655D01*
X151049359Y-84727676D01*
X151021801Y-84722968D01*
X151008761Y-84719888D01*
X151004556Y-84717624D01*
X151000877Y-84712036D01*
X150997688Y-84701423D01*
X150994956Y-84684081D01*
X150992644Y-84658308D01*
X150990718Y-84622400D01*
X150989144Y-84574656D01*
X150987885Y-84513373D01*
X150986908Y-84436847D01*
X150986177Y-84343377D01*
X150985657Y-84231258D01*
X150985313Y-84098789D01*
X150985111Y-83944267D01*
X150985016Y-83765989D01*
X150984991Y-83562252D01*
X150984991Y-83561710D01*
X150984991Y-82409744D01*
X151022310Y-82402611D01*
X151051669Y-82400911D01*
X151066454Y-82406517D01*
G37*
G36*
X151582456Y-82002055D02*
G01*
X151609432Y-82007921D01*
X151621100Y-82020906D01*
X151623387Y-82040163D01*
X151619396Y-82058720D01*
X151604591Y-82073686D01*
X151574724Y-82087112D01*
X151525546Y-82101050D01*
X151471526Y-82113493D01*
X151385803Y-82137483D01*
X151322466Y-82168176D01*
X151277018Y-82208351D01*
X151249858Y-82250495D01*
X151222692Y-82304706D01*
X151173721Y-82280756D01*
X151115903Y-82261999D01*
X151039937Y-82250732D01*
X150953748Y-82246823D01*
X150865264Y-82250139D01*
X150782410Y-82260545D01*
X150713111Y-82277910D01*
X150686461Y-82288941D01*
X150661280Y-82299470D01*
X150647277Y-82294287D01*
X150635451Y-82268778D01*
X150632765Y-82261410D01*
X150609856Y-82221508D01*
X150570440Y-82187159D01*
X150511580Y-82156708D01*
X150430345Y-82128501D01*
X150366240Y-82111108D01*
X150301748Y-82094542D01*
X150259179Y-82082023D01*
X150234013Y-82071385D01*
X150221728Y-82060461D01*
X150217802Y-82047084D01*
X150217558Y-82039840D01*
X150217558Y-82005882D01*
X150842371Y-82003303D01*
X150972673Y-82002771D01*
X151096700Y-82002274D01*
X151211374Y-82001825D01*
X151313616Y-82001435D01*
X151400348Y-82001116D01*
X151468490Y-82000879D01*
X151514965Y-82000736D01*
X151534276Y-82000696D01*
X151582456Y-82002055D01*
G37*
G36*
X150679613Y-82356608D02*
G01*
X150698587Y-82365206D01*
X150726917Y-82380367D01*
X150726917Y-83561123D01*
X150726903Y-83767266D01*
X150726837Y-83947945D01*
X150726682Y-84104861D01*
X150726400Y-84239716D01*
X150725954Y-84354211D01*
X150725306Y-84450048D01*
X150724419Y-84528928D01*
X150723255Y-84592552D01*
X150721778Y-84642623D01*
X150719949Y-84680842D01*
X150717731Y-84708909D01*
X150715087Y-84728527D01*
X150711979Y-84741398D01*
X150708371Y-84749222D01*
X150704223Y-84753701D01*
X150700644Y-84755939D01*
X150676431Y-84767229D01*
X150666687Y-84770000D01*
X150665519Y-84756742D01*
X150664370Y-84718272D01*
X150663255Y-84656540D01*
X150662190Y-84573500D01*
X150661189Y-84471103D01*
X150660268Y-84351304D01*
X150659442Y-84216052D01*
X150658727Y-84067303D01*
X150658138Y-83907007D01*
X150657690Y-83737117D01*
X150657438Y-83591684D01*
X150657170Y-83380649D01*
X150656968Y-83195131D01*
X150656845Y-83033479D01*
X150656811Y-82894046D01*
X150656878Y-82775181D01*
X150657056Y-82675236D01*
X150657359Y-82592561D01*
X150657796Y-82525507D01*
X150658380Y-82472425D01*
X150659121Y-82431665D01*
X150660031Y-82401578D01*
X150661121Y-82380515D01*
X150662403Y-82366828D01*
X150663888Y-82358865D01*
X150665588Y-82354979D01*
X150665958Y-82354541D01*
X150679613Y-82356608D01*
G37*
G36*
X151231777Y-84826896D02*
G01*
X151236961Y-84841547D01*
X151258076Y-84880692D01*
X151294734Y-84922749D01*
X151338228Y-84958386D01*
X151355688Y-84968804D01*
X151384821Y-84980407D01*
X151432773Y-84995720D01*
X151491879Y-85012402D01*
X151532266Y-85022775D01*
X151613189Y-85044227D01*
X151670320Y-85063424D01*
X151706750Y-85082008D01*
X151725572Y-85101618D01*
X151729879Y-85123896D01*
X151729487Y-85127409D01*
X151725259Y-85157112D01*
X150992918Y-85157277D01*
X150827716Y-85157202D01*
X150687734Y-85156864D01*
X150571025Y-85156218D01*
X150475644Y-85155217D01*
X150399645Y-85153814D01*
X150341083Y-85151963D01*
X150298012Y-85149617D01*
X150268486Y-85146730D01*
X150250560Y-85143255D01*
X150242463Y-85139328D01*
X150224558Y-85109844D01*
X150232670Y-85082844D01*
X150267100Y-85058074D01*
X150328152Y-85035278D01*
X150382347Y-85021378D01*
X150480435Y-84990597D01*
X150554828Y-84947740D01*
X150606451Y-84892210D01*
X150620068Y-84868124D01*
X150641743Y-84831048D01*
X150658658Y-84819737D01*
X150663837Y-84821892D01*
X150708049Y-84843881D01*
X150772174Y-84859947D01*
X150849589Y-84869985D01*
X150933670Y-84873890D01*
X151017795Y-84871557D01*
X151095340Y-84862879D01*
X151159684Y-84847753D01*
X151198082Y-84830378D01*
X151220619Y-84818850D01*
X151231777Y-84826896D01*
G37*
G36*
X142094991Y-85789018D02*
G01*
X142050847Y-85823809D01*
X142006703Y-85858600D01*
X142006703Y-86148877D01*
X142006791Y-86244764D01*
X142007290Y-86317130D01*
X142008554Y-86369622D01*
X142010936Y-86405886D01*
X142014790Y-86429567D01*
X142020468Y-86444311D01*
X142028325Y-86453764D01*
X142036891Y-86460299D01*
X142068563Y-86476453D01*
X142091222Y-86481444D01*
X142111597Y-86487762D01*
X142115366Y-86495027D01*
X142102452Y-86501337D01*
X142066320Y-86505899D01*
X142010884Y-86508321D01*
X141979537Y-86508610D01*
X141916437Y-86507318D01*
X141870818Y-86503705D01*
X141846591Y-86498161D01*
X141843708Y-86495027D01*
X141854955Y-86483609D01*
X141868157Y-86481444D01*
X141886080Y-86479852D01*
X141899812Y-86472964D01*
X141909907Y-86457610D01*
X141916918Y-86430619D01*
X141921400Y-86388822D01*
X141923906Y-86329048D01*
X141924989Y-86248127D01*
X141925205Y-86154843D01*
X141925031Y-86057370D01*
X141924320Y-85983449D01*
X141922788Y-85929466D01*
X141920151Y-85891809D01*
X141916127Y-85866866D01*
X141910431Y-85851022D01*
X141902780Y-85840665D01*
X141900366Y-85838362D01*
X141872060Y-85820662D01*
X141852826Y-85815882D01*
X141833304Y-85809210D01*
X141830125Y-85802299D01*
X141843022Y-85795947D01*
X141879044Y-85791406D01*
X141934184Y-85789083D01*
X141962558Y-85788867D01*
X142094991Y-85789018D01*
G37*
G36*
X147256489Y-85789018D02*
G01*
X147212344Y-85823809D01*
X147168200Y-85858600D01*
X147168200Y-86148877D01*
X147168288Y-86244764D01*
X147168787Y-86317130D01*
X147170051Y-86369622D01*
X147172433Y-86405886D01*
X147176287Y-86429567D01*
X147181966Y-86444311D01*
X147189823Y-86453764D01*
X147198388Y-86460299D01*
X147230060Y-86476453D01*
X147252720Y-86481444D01*
X147273095Y-86487762D01*
X147276863Y-86495027D01*
X147263949Y-86501337D01*
X147227818Y-86505899D01*
X147172381Y-86508321D01*
X147141034Y-86508610D01*
X147077935Y-86507318D01*
X147032315Y-86503705D01*
X147008088Y-86498161D01*
X147005205Y-86495027D01*
X147016452Y-86483609D01*
X147029655Y-86481444D01*
X147047578Y-86479852D01*
X147061310Y-86472964D01*
X147071404Y-86457610D01*
X147078416Y-86430619D01*
X147082897Y-86388822D01*
X147085403Y-86329048D01*
X147086486Y-86248127D01*
X147086703Y-86154843D01*
X147086529Y-86057370D01*
X147085817Y-85983449D01*
X147084285Y-85929466D01*
X147081649Y-85891809D01*
X147077624Y-85866866D01*
X147071929Y-85851022D01*
X147064278Y-85840665D01*
X147061863Y-85838362D01*
X147033557Y-85820662D01*
X147014323Y-85815882D01*
X146994802Y-85809210D01*
X146991622Y-85802299D01*
X147004520Y-85795947D01*
X147040541Y-85791406D01*
X147095681Y-85789083D01*
X147124056Y-85788867D01*
X147256489Y-85789018D01*
G37*
G36*
X150829899Y-82398333D02*
G01*
X150862384Y-82405571D01*
X150877439Y-82406577D01*
X150882035Y-82407174D01*
X150886056Y-82410098D01*
X150889541Y-82417047D01*
X150892528Y-82429724D01*
X150895056Y-82449826D01*
X150897162Y-82479055D01*
X150898885Y-82519109D01*
X150900264Y-82571689D01*
X150901336Y-82638495D01*
X150902141Y-82721226D01*
X150902716Y-82821582D01*
X150903100Y-82941264D01*
X150903332Y-83081970D01*
X150903449Y-83245402D01*
X150903490Y-83433258D01*
X150903494Y-83561123D01*
X150903419Y-83772569D01*
X150903182Y-83958283D01*
X150902759Y-84119700D01*
X150902132Y-84258253D01*
X150901277Y-84375376D01*
X150900175Y-84472503D01*
X150898805Y-84551068D01*
X150897144Y-84612504D01*
X150895173Y-84658246D01*
X150892870Y-84689727D01*
X150890214Y-84708381D01*
X150887183Y-84715642D01*
X150886515Y-84715854D01*
X150860311Y-84719359D01*
X150838975Y-84724229D01*
X150808414Y-84732420D01*
X150808414Y-83561254D01*
X150808447Y-83355039D01*
X150808568Y-83174346D01*
X150808806Y-83017529D01*
X150809193Y-82882944D01*
X150809757Y-82768946D01*
X150810530Y-82673890D01*
X150811543Y-82596132D01*
X150812825Y-82534027D01*
X150814407Y-82485930D01*
X150816319Y-82450198D01*
X150818592Y-82425184D01*
X150821255Y-82409245D01*
X150824341Y-82400736D01*
X150827878Y-82398012D01*
X150829899Y-82398333D01*
G37*
G36*
X153246542Y-85789018D02*
G01*
X153202398Y-85823809D01*
X153158253Y-85858600D01*
X153158253Y-86148877D01*
X153158341Y-86244764D01*
X153158841Y-86317130D01*
X153160105Y-86369622D01*
X153162487Y-86405886D01*
X153166340Y-86429567D01*
X153172019Y-86444311D01*
X153179876Y-86453764D01*
X153188442Y-86460299D01*
X153220113Y-86476453D01*
X153242773Y-86481444D01*
X153263148Y-86487762D01*
X153266917Y-86495027D01*
X153254003Y-86501337D01*
X153217871Y-86505899D01*
X153162435Y-86508321D01*
X153131088Y-86508610D01*
X153067988Y-86507318D01*
X153022368Y-86503705D01*
X152998142Y-86498161D01*
X152995259Y-86495027D01*
X153006506Y-86483609D01*
X153019708Y-86481444D01*
X153037631Y-86479852D01*
X153051363Y-86472964D01*
X153061458Y-86457610D01*
X153068469Y-86430619D01*
X153072951Y-86388822D01*
X153075456Y-86329048D01*
X153076540Y-86248127D01*
X153076756Y-86154843D01*
X153076582Y-86057370D01*
X153075871Y-85983449D01*
X153074339Y-85929466D01*
X153071702Y-85891809D01*
X153067678Y-85866866D01*
X153061982Y-85851022D01*
X153054331Y-85840665D01*
X153051917Y-85838362D01*
X153023611Y-85820662D01*
X153004376Y-85815882D01*
X152984855Y-85809210D01*
X152981676Y-85802299D01*
X152994573Y-85795947D01*
X153030594Y-85791406D01*
X153085734Y-85789083D01*
X153114109Y-85788867D01*
X153246542Y-85789018D01*
G37*
G36*
X146662127Y-85788737D02*
G01*
X146740953Y-85789336D01*
X146798827Y-85791322D01*
X146838855Y-85795505D01*
X146864143Y-85802691D01*
X146877798Y-85813690D01*
X146882927Y-85829309D01*
X146882634Y-85850357D01*
X146880521Y-85872317D01*
X146876168Y-85917754D01*
X146855650Y-85877005D01*
X146844688Y-85857429D01*
X146831718Y-85845184D01*
X146810494Y-85838265D01*
X146774774Y-85834670D01*
X146718312Y-85832394D01*
X146716425Y-85832332D01*
X146597719Y-85828408D01*
X146597719Y-86142523D01*
X146597719Y-86456638D01*
X146638467Y-86472019D01*
X146669529Y-86486338D01*
X146675915Y-86496873D01*
X146657009Y-86503903D01*
X146612190Y-86507705D01*
X146556970Y-86508610D01*
X146498395Y-86507185D01*
X146456611Y-86503241D01*
X146436078Y-86497274D01*
X146434724Y-86495027D01*
X146445971Y-86483609D01*
X146459173Y-86481444D01*
X146476722Y-86479956D01*
X146490261Y-86473424D01*
X146500306Y-86458748D01*
X146507375Y-86432826D01*
X146511983Y-86392556D01*
X146514649Y-86334839D01*
X146515888Y-86256573D01*
X146516218Y-86154656D01*
X146516221Y-86139155D01*
X146516221Y-85829465D01*
X146410954Y-85829673D01*
X146349906Y-85830813D01*
X146309975Y-85835513D01*
X146285138Y-85846135D01*
X146269374Y-85865036D01*
X146258616Y-85889353D01*
X146245449Y-85917063D01*
X146237467Y-85919233D01*
X146235304Y-85897104D01*
X146239574Y-85852059D01*
X146248256Y-85788717D01*
X146559243Y-85788717D01*
X146662127Y-85788737D01*
G37*
G36*
X144429385Y-85784548D02*
G01*
X144473336Y-85791691D01*
X144513715Y-85806764D01*
X144544940Y-85822821D01*
X144621837Y-85876433D01*
X144676127Y-85941986D01*
X144709262Y-86022103D01*
X144722693Y-86119408D01*
X144723147Y-86144831D01*
X144712431Y-86247363D01*
X144679878Y-86334911D01*
X144624442Y-86409982D01*
X144603975Y-86429741D01*
X144530052Y-86479132D01*
X144442079Y-86509900D01*
X144347200Y-86520414D01*
X144254671Y-86509555D01*
X144161636Y-86475107D01*
X144088072Y-86421923D01*
X144034583Y-86350810D01*
X144001773Y-86262579D01*
X143990245Y-86158036D01*
X143990235Y-86155454D01*
X143995731Y-86098504D01*
X144058017Y-86098504D01*
X144063671Y-86192937D01*
X144082943Y-86270673D01*
X144118199Y-86339738D01*
X144136868Y-86366156D01*
X144198312Y-86428744D01*
X144270547Y-86472165D01*
X144348237Y-86494555D01*
X144426046Y-86494051D01*
X144469604Y-86482354D01*
X144519337Y-86453465D01*
X144569932Y-86407916D01*
X144612659Y-86354463D01*
X144632341Y-86319042D01*
X144656550Y-86234767D01*
X144659281Y-86146367D01*
X144642581Y-86058826D01*
X144608499Y-85977128D01*
X144559086Y-85906255D01*
X144496388Y-85851192D01*
X144426379Y-85818063D01*
X144334223Y-85802180D01*
X144251228Y-85810733D01*
X144179888Y-85841822D01*
X144122700Y-85893548D01*
X144082158Y-85964010D01*
X144060757Y-86051310D01*
X144058017Y-86098504D01*
X143995731Y-86098504D01*
X144000122Y-86053012D01*
X144030976Y-85966220D01*
X144084043Y-85892043D01*
X144108143Y-85868457D01*
X144166050Y-85825227D01*
X144229032Y-85798231D01*
X144304595Y-85785011D01*
X144370125Y-85782638D01*
X144429385Y-85784548D01*
G37*
G36*
X147865856Y-85784548D02*
G01*
X147909807Y-85791691D01*
X147950186Y-85806764D01*
X147981411Y-85822821D01*
X148058308Y-85876433D01*
X148112598Y-85941986D01*
X148145732Y-86022103D01*
X148159164Y-86119408D01*
X148159618Y-86144831D01*
X148148901Y-86247363D01*
X148116349Y-86334911D01*
X148060913Y-86409982D01*
X148040446Y-86429741D01*
X147966523Y-86479132D01*
X147878549Y-86509900D01*
X147783671Y-86520414D01*
X147691141Y-86509555D01*
X147598106Y-86475107D01*
X147524543Y-86421923D01*
X147471054Y-86350810D01*
X147438244Y-86262579D01*
X147426716Y-86158036D01*
X147426706Y-86155454D01*
X147432202Y-86098504D01*
X147494488Y-86098504D01*
X147500141Y-86192937D01*
X147519414Y-86270673D01*
X147554670Y-86339738D01*
X147573339Y-86366156D01*
X147634782Y-86428744D01*
X147707018Y-86472165D01*
X147784708Y-86494555D01*
X147862516Y-86494051D01*
X147906074Y-86482354D01*
X147955808Y-86453465D01*
X148006402Y-86407916D01*
X148049130Y-86354463D01*
X148068812Y-86319042D01*
X148093021Y-86234767D01*
X148095751Y-86146367D01*
X148079051Y-86058826D01*
X148044970Y-85977128D01*
X147995556Y-85906255D01*
X147932859Y-85851192D01*
X147862850Y-85818063D01*
X147770694Y-85802180D01*
X147687698Y-85810733D01*
X147616359Y-85841822D01*
X147559171Y-85893548D01*
X147518629Y-85964010D01*
X147497228Y-86051310D01*
X147494488Y-86098504D01*
X147432202Y-86098504D01*
X147436593Y-86053012D01*
X147467447Y-85966220D01*
X147520514Y-85892043D01*
X147544614Y-85868457D01*
X147602521Y-85825227D01*
X147665503Y-85798231D01*
X147741065Y-85785011D01*
X147806596Y-85782638D01*
X147865856Y-85784548D01*
G37*
G36*
X153088815Y-80508186D02*
G01*
X153531783Y-80511765D01*
X153535830Y-80604798D01*
X153536841Y-80655485D01*
X153533922Y-80683355D01*
X153526427Y-80692557D01*
X153522247Y-80692023D01*
X153507028Y-80675467D01*
X153500261Y-80653321D01*
X153493262Y-80626561D01*
X153477781Y-80607895D01*
X153449667Y-80595949D01*
X153404769Y-80589350D01*
X153338936Y-80586723D01*
X153298278Y-80586471D01*
X153144671Y-80586471D01*
X153144879Y-81004144D01*
X153145244Y-81108438D01*
X153146180Y-81204215D01*
X153147606Y-81288033D01*
X153149440Y-81356449D01*
X153151601Y-81406019D01*
X153154009Y-81433300D01*
X153155066Y-81437270D01*
X153173149Y-81451890D01*
X153206129Y-81469552D01*
X153218066Y-81474801D01*
X153248285Y-81490177D01*
X153262140Y-81502977D01*
X153261556Y-81506412D01*
X153244275Y-81511040D01*
X153207290Y-81514230D01*
X153156786Y-81516036D01*
X153098952Y-81516514D01*
X153039975Y-81515718D01*
X152986041Y-81513705D01*
X152943339Y-81510528D01*
X152918056Y-81506244D01*
X152913810Y-81503315D01*
X152924752Y-81489095D01*
X152952163Y-81469682D01*
X152964734Y-81462546D01*
X153015633Y-81435359D01*
X153019222Y-81010915D01*
X153022812Y-80586471D01*
X152876602Y-80586679D01*
X152814624Y-80587896D01*
X152761627Y-80591026D01*
X152724212Y-80595555D01*
X152710315Y-80599582D01*
X152692287Y-80620663D01*
X152676085Y-80654357D01*
X152675422Y-80656282D01*
X152661026Y-80687665D01*
X152645827Y-80705099D01*
X152644564Y-80705633D01*
X152632802Y-80697880D01*
X152628779Y-80664452D01*
X152632514Y-80605723D01*
X152637184Y-80567809D01*
X152645846Y-80504607D01*
X153088815Y-80508186D01*
G37*
G36*
X142635796Y-80509237D02*
G01*
X142735570Y-80539909D01*
X142788938Y-80566100D01*
X142830134Y-80585265D01*
X142864190Y-80592337D01*
X142871982Y-80591459D01*
X142885676Y-80590016D01*
X142894715Y-80597715D01*
X142900886Y-80619563D01*
X142905978Y-80660566D01*
X142909191Y-80695673D01*
X142913187Y-80762934D01*
X142910826Y-80804168D01*
X142901636Y-80819870D01*
X142885145Y-80810535D01*
X142860882Y-80776657D01*
X142849787Y-80757908D01*
X142783928Y-80665991D01*
X142705819Y-80598182D01*
X142616416Y-80554846D01*
X142516673Y-80536350D01*
X142407546Y-80543061D01*
X142334810Y-80560275D01*
X142256265Y-80597363D01*
X142190410Y-80655759D01*
X142138770Y-80732006D01*
X142102870Y-80822648D01*
X142084235Y-80924227D01*
X142084389Y-81033286D01*
X142094831Y-81104333D01*
X142129066Y-81217711D01*
X142180536Y-81312704D01*
X142247167Y-81387929D01*
X142326886Y-81442005D01*
X142417617Y-81473553D01*
X142517287Y-81481191D01*
X142623822Y-81463537D01*
X142631134Y-81461422D01*
X142728644Y-81421801D01*
X142809678Y-81364118D01*
X142853564Y-81318682D01*
X142881568Y-81288470D01*
X142902509Y-81270477D01*
X142910163Y-81268077D01*
X142911578Y-81284286D01*
X142907474Y-81318121D01*
X142902355Y-81345009D01*
X142881528Y-81406158D01*
X142852393Y-81442314D01*
X142802322Y-81470098D01*
X142731787Y-81493454D01*
X142647283Y-81511294D01*
X142555306Y-81522530D01*
X142462351Y-81526073D01*
X142380232Y-81521455D01*
X142268647Y-81496304D01*
X142170699Y-81448816D01*
X142088456Y-81381234D01*
X142023988Y-81295801D01*
X141979363Y-81194759D01*
X141956652Y-81080351D01*
X141955176Y-81060717D01*
X141960251Y-80940082D01*
X141988648Y-80827698D01*
X142038372Y-80726565D01*
X142107429Y-80639683D01*
X142193824Y-80570050D01*
X142295562Y-80520666D01*
X142319491Y-80512910D01*
X142418707Y-80494712D01*
X142527159Y-80493829D01*
X142635796Y-80509237D01*
G37*
G36*
X151723789Y-80505074D02*
G01*
X151820966Y-80505359D01*
X151905757Y-80505805D01*
X151974960Y-80506386D01*
X152025373Y-80507078D01*
X152053794Y-80507857D01*
X152058967Y-80508369D01*
X152060415Y-80522548D01*
X152063337Y-80556566D01*
X152067113Y-80603178D01*
X152067264Y-80605083D01*
X152070226Y-80655027D01*
X152068828Y-80682699D01*
X152062480Y-80692732D01*
X152056149Y-80692246D01*
X152038418Y-80675117D01*
X152032867Y-80660051D01*
X152024249Y-80630193D01*
X152008349Y-80609561D01*
X151980744Y-80596526D01*
X151937011Y-80589456D01*
X151872726Y-80586722D01*
X151833270Y-80586471D01*
X151765432Y-80587020D01*
X151720028Y-80589106D01*
X151692340Y-80593387D01*
X151677650Y-80600522D01*
X151671994Y-80608963D01*
X151669663Y-80628524D01*
X151667807Y-80670926D01*
X151666413Y-80731850D01*
X151665473Y-80806977D01*
X151664977Y-80891988D01*
X151664912Y-80982563D01*
X151665271Y-81074381D01*
X151666042Y-81163125D01*
X151667215Y-81244473D01*
X151668780Y-81314108D01*
X151670727Y-81367708D01*
X151673045Y-81400955D01*
X151673883Y-81406693D01*
X151687108Y-81437393D01*
X151717021Y-81459135D01*
X151733988Y-81466481D01*
X151771787Y-81483698D01*
X151786290Y-81496935D01*
X151776711Y-81506529D01*
X151742261Y-81512820D01*
X151682153Y-81516146D01*
X151616596Y-81516898D01*
X151543028Y-81515852D01*
X151488337Y-81512871D01*
X151455463Y-81508189D01*
X151446846Y-81503315D01*
X151457796Y-81489094D01*
X151485212Y-81469681D01*
X151497782Y-81462546D01*
X151548681Y-81435359D01*
X151552271Y-81010482D01*
X151555861Y-80585605D01*
X151396068Y-80589434D01*
X151236275Y-80593262D01*
X151205220Y-80658277D01*
X151183087Y-80696635D01*
X151165309Y-80713246D01*
X151154587Y-80707438D01*
X151153622Y-80678541D01*
X151154693Y-80670837D01*
X151160011Y-80634417D01*
X151166424Y-80586917D01*
X151168663Y-80569492D01*
X151176816Y-80504973D01*
X151617428Y-80504973D01*
X151723789Y-80505074D01*
G37*
G36*
X152648895Y-85782052D02*
G01*
X152695136Y-85788250D01*
X152734518Y-85792678D01*
X152747038Y-85793704D01*
X152762470Y-85795964D01*
X152773157Y-85804047D01*
X152781389Y-85823232D01*
X152789454Y-85858800D01*
X152799354Y-85914358D01*
X152801778Y-85951425D01*
X152793665Y-85964530D01*
X152777269Y-85953679D01*
X152754844Y-85918876D01*
X152752445Y-85914252D01*
X152715928Y-85863793D01*
X152669084Y-85828822D01*
X152616829Y-85809208D01*
X152564079Y-85804822D01*
X152515749Y-85815533D01*
X152476756Y-85841213D01*
X152452015Y-85881732D01*
X152445769Y-85922338D01*
X152451647Y-85966254D01*
X152471587Y-86002479D01*
X152509050Y-86034242D01*
X152567493Y-86064774D01*
X152622013Y-86086867D01*
X152711743Y-86128245D01*
X152775467Y-86175326D01*
X152813937Y-86229142D01*
X152827908Y-86290725D01*
X152819321Y-86356820D01*
X152789603Y-86417931D01*
X152739555Y-86466942D01*
X152674255Y-86501375D01*
X152598779Y-86518750D01*
X152518204Y-86516586D01*
X152499483Y-86513063D01*
X152446205Y-86498033D01*
X152412548Y-86477422D01*
X152390987Y-86444650D01*
X152377789Y-86406624D01*
X152363576Y-86354576D01*
X152357948Y-86323433D01*
X152360532Y-86308452D01*
X152369810Y-86304866D01*
X152382432Y-86316200D01*
X152399818Y-86344979D01*
X152408847Y-86363845D01*
X152445441Y-86421394D01*
X152493478Y-86461704D01*
X152548321Y-86485156D01*
X152605329Y-86492135D01*
X152659865Y-86483021D01*
X152707290Y-86458197D01*
X152742965Y-86418047D01*
X152762251Y-86362951D01*
X152764350Y-86334538D01*
X152755875Y-86291163D01*
X152728647Y-86253683D01*
X152679954Y-86219614D01*
X152607088Y-86186472D01*
X152599824Y-86183668D01*
X152519824Y-86150482D01*
X152462124Y-86119628D01*
X152422391Y-86088085D01*
X152396293Y-86052833D01*
X152388381Y-86036257D01*
X152373749Y-85971370D01*
X152383095Y-85911184D01*
X152413281Y-85858760D01*
X152461168Y-85817162D01*
X152523617Y-85789451D01*
X152597490Y-85778690D01*
X152648895Y-85782052D01*
G37*
G36*
X150067429Y-80498559D02*
G01*
X150172099Y-80503863D01*
X150257875Y-80520813D01*
X150331446Y-80551924D01*
X150399504Y-80599712D01*
X150442763Y-80639715D01*
X150503939Y-80710095D01*
X150545734Y-80782294D01*
X150570709Y-80863065D01*
X150581427Y-80959161D01*
X150582287Y-81007540D01*
X150575508Y-81115739D01*
X150554509Y-81206067D01*
X150517036Y-81285041D01*
X150460832Y-81359180D01*
X150460435Y-81359623D01*
X150377352Y-81432109D01*
X150277643Y-81484769D01*
X150164221Y-81516649D01*
X150039997Y-81526797D01*
X149963400Y-81522268D01*
X149862815Y-81498220D01*
X149768317Y-81450837D01*
X149685389Y-81383944D01*
X149619514Y-81301366D01*
X149601788Y-81270027D01*
X149568370Y-81180029D01*
X149550724Y-81077505D01*
X149549034Y-80971136D01*
X149550889Y-80958107D01*
X149655268Y-80958107D01*
X149661112Y-81058151D01*
X149684400Y-81156453D01*
X149725417Y-81249032D01*
X149784450Y-81331905D01*
X149820406Y-81368092D01*
X149906539Y-81429374D01*
X150000826Y-81467619D01*
X150098884Y-81481811D01*
X150196326Y-81470933D01*
X150226087Y-81462188D01*
X150307315Y-81421643D01*
X150374073Y-81359579D01*
X150428163Y-81274316D01*
X150428985Y-81272652D01*
X150467073Y-81165760D01*
X150480533Y-81054063D01*
X150470241Y-80942119D01*
X150437071Y-80834484D01*
X150381898Y-80735715D01*
X150310339Y-80654647D01*
X150260985Y-80615327D01*
X150208799Y-80582840D01*
X150174872Y-80567537D01*
X150104460Y-80551603D01*
X150025666Y-80546429D01*
X149949126Y-80551885D01*
X149885470Y-80567842D01*
X149877685Y-80571136D01*
X149800604Y-80620157D01*
X149739536Y-80687347D01*
X149694766Y-80768723D01*
X149666582Y-80860304D01*
X149655268Y-80958107D01*
X149550889Y-80958107D01*
X149563485Y-80869609D01*
X149591490Y-80787320D01*
X149643328Y-80697589D01*
X149706980Y-80627203D01*
X149788729Y-80569818D01*
X149827066Y-80549497D01*
X149876279Y-80525914D01*
X149914514Y-80510964D01*
X149950913Y-80502708D01*
X149994618Y-80499210D01*
X150054770Y-80498532D01*
X150067429Y-80498559D01*
G37*
G36*
X145515192Y-85791367D02*
G01*
X145534296Y-85794061D01*
X145535022Y-85794540D01*
X145531090Y-85807063D01*
X145512775Y-85825730D01*
X145499350Y-85844626D01*
X145476989Y-85885276D01*
X145447299Y-85944397D01*
X145411887Y-86018708D01*
X145372358Y-86104925D01*
X145334939Y-86189190D01*
X145295529Y-86278496D01*
X145259259Y-86359265D01*
X145227638Y-86428251D01*
X145202174Y-86482207D01*
X145184375Y-86517888D01*
X145175751Y-86532047D01*
X145175577Y-86532135D01*
X145167533Y-86521152D01*
X145150311Y-86488353D01*
X145125405Y-86436904D01*
X145094311Y-86369970D01*
X145058526Y-86290718D01*
X145019544Y-86202312D01*
X145017191Y-86196913D01*
X144971029Y-86091459D01*
X144933780Y-86008156D01*
X144903815Y-85944115D01*
X144879510Y-85896450D01*
X144859235Y-85862274D01*
X144841366Y-85838697D01*
X144824275Y-85822833D01*
X144806336Y-85811795D01*
X144797986Y-85807826D01*
X144791883Y-85801230D01*
X144808548Y-85796358D01*
X144849762Y-85792847D01*
X144877750Y-85791577D01*
X144942501Y-85790600D01*
X144981291Y-85793760D01*
X144995048Y-85801296D01*
X144984694Y-85813450D01*
X144977846Y-85817576D01*
X144958101Y-85837945D01*
X144954189Y-85851482D01*
X144959473Y-85871903D01*
X144974022Y-85910766D01*
X144995888Y-85963823D01*
X145023120Y-86026826D01*
X145053768Y-86095526D01*
X145085881Y-86165675D01*
X145117509Y-86233023D01*
X145146702Y-86293324D01*
X145171509Y-86342327D01*
X145189981Y-86375785D01*
X145200166Y-86389449D01*
X145201106Y-86389372D01*
X145212025Y-86370754D01*
X145230143Y-86331580D01*
X145253499Y-86276870D01*
X145280133Y-86211642D01*
X145308087Y-86140917D01*
X145335399Y-86069713D01*
X145360110Y-86003051D01*
X145380261Y-85945950D01*
X145393890Y-85903428D01*
X145398821Y-85882998D01*
X145401368Y-85847580D01*
X145393210Y-85828128D01*
X145369531Y-85814091D01*
X145366816Y-85812883D01*
X145348817Y-85804055D01*
X145346364Y-85798527D01*
X145362812Y-85795128D01*
X145401512Y-85792684D01*
X145427830Y-85791554D01*
X145477262Y-85790463D01*
X145515192Y-85791367D01*
G37*
G36*
X153819693Y-85783183D02*
G01*
X153925984Y-85807470D01*
X153947453Y-85815161D01*
X153989066Y-85828692D01*
X154021703Y-85835238D01*
X154033494Y-85834706D01*
X154044681Y-85840062D01*
X154053325Y-85867657D01*
X154059535Y-85912517D01*
X154063355Y-85957278D01*
X154064523Y-85989839D01*
X154063091Y-86002204D01*
X154053542Y-85995204D01*
X154035799Y-85971366D01*
X154027882Y-85959026D01*
X153977303Y-85899989D01*
X153908591Y-85851164D01*
X153830190Y-85817148D01*
X153750544Y-85802535D01*
X153739854Y-85802299D01*
X153664894Y-85813579D01*
X153599089Y-85848620D01*
X153549349Y-85896407D01*
X153501428Y-85972040D01*
X153475434Y-86057260D01*
X153470331Y-86147136D01*
X153485085Y-86236735D01*
X153518661Y-86321128D01*
X153570026Y-86395381D01*
X153638145Y-86454564D01*
X153670333Y-86473156D01*
X153731087Y-86492108D01*
X153797545Y-86494204D01*
X153863000Y-86481330D01*
X153920746Y-86455369D01*
X153964077Y-86418207D01*
X153982647Y-86385391D01*
X153997588Y-86323538D01*
X153999949Y-86265594D01*
X153990803Y-86216950D01*
X153971220Y-86182995D01*
X153942275Y-86169119D01*
X153939606Y-86169037D01*
X153913919Y-86164429D01*
X153905312Y-86155454D01*
X153918062Y-86148796D01*
X153953061Y-86144187D01*
X154005430Y-86142204D01*
X154017371Y-86142174D01*
X154071947Y-86142542D01*
X154103230Y-86144099D01*
X154115095Y-86148068D01*
X154111416Y-86155671D01*
X154097093Y-86167341D01*
X154081212Y-86181761D01*
X154071757Y-86199372D01*
X154067259Y-86226880D01*
X154066250Y-86270989D01*
X154066676Y-86306264D01*
X154068597Y-86420321D01*
X153966921Y-86464944D01*
X153878839Y-86496074D01*
X153789803Y-86514160D01*
X153707951Y-86518022D01*
X153654029Y-86510322D01*
X153569270Y-86474910D01*
X153495794Y-86418735D01*
X153439580Y-86346913D01*
X153421849Y-86311658D01*
X153403363Y-86242074D01*
X153398287Y-86159871D01*
X153406361Y-86075908D01*
X153427327Y-86001041D01*
X153429381Y-85996167D01*
X153479261Y-85912252D01*
X153546042Y-85848015D01*
X153626913Y-85804437D01*
X153719067Y-85782499D01*
X153819693Y-85783183D01*
G37*
G36*
X148471170Y-80506570D02*
G01*
X148527251Y-80511275D01*
X148557681Y-80518957D01*
X148562040Y-80529486D01*
X148539906Y-80542732D01*
X148527221Y-80547502D01*
X148493580Y-80565178D01*
X148471870Y-80587006D01*
X148468169Y-80607428D01*
X148464946Y-80652199D01*
X148462289Y-80718507D01*
X148460283Y-80803538D01*
X148459016Y-80904479D01*
X148458574Y-81018516D01*
X148458574Y-81018567D01*
X148458742Y-81136733D01*
X148459338Y-81230586D01*
X148460500Y-81302977D01*
X148462368Y-81356755D01*
X148465079Y-81394773D01*
X148468772Y-81419879D01*
X148473585Y-81434927D01*
X148479161Y-81442369D01*
X148501019Y-81451032D01*
X148541868Y-81454744D01*
X148605177Y-81453754D01*
X148625177Y-81452788D01*
X148735261Y-81439724D01*
X148826322Y-81413691D01*
X148896021Y-81375479D01*
X148921424Y-81352806D01*
X148945663Y-81330273D01*
X148962768Y-81320007D01*
X148963509Y-81319946D01*
X148974314Y-81329558D01*
X148971252Y-81354525D01*
X148957496Y-81389047D01*
X148936219Y-81427324D01*
X148910596Y-81463556D01*
X148883799Y-81491943D01*
X148861812Y-81505812D01*
X148839060Y-81509284D01*
X148795406Y-81512069D01*
X148735599Y-81514168D01*
X148664392Y-81515580D01*
X148586536Y-81516306D01*
X148506783Y-81516344D01*
X148429884Y-81515697D01*
X148360590Y-81514363D01*
X148303653Y-81512342D01*
X148263825Y-81509635D01*
X148245856Y-81506241D01*
X148245406Y-81505807D01*
X148242460Y-81492964D01*
X148243284Y-81492225D01*
X148257396Y-81484954D01*
X148285421Y-81470571D01*
X148288628Y-81468927D01*
X148319463Y-81445354D01*
X148335825Y-81408986D01*
X148338948Y-81394222D01*
X148342371Y-81361360D01*
X148345023Y-81307952D01*
X148346928Y-81238326D01*
X148348110Y-81156816D01*
X148348594Y-81067752D01*
X148348405Y-80975466D01*
X148347567Y-80884288D01*
X148346104Y-80798551D01*
X148344041Y-80722586D01*
X148341402Y-80660724D01*
X148338213Y-80617296D01*
X148334496Y-80596634D01*
X148334438Y-80596521D01*
X148312906Y-80573966D01*
X148278652Y-80553172D01*
X148274112Y-80551181D01*
X148240556Y-80534724D01*
X148229600Y-80522303D01*
X148242223Y-80513528D01*
X148279402Y-80508008D01*
X148342116Y-80505354D01*
X148389858Y-80504973D01*
X148471170Y-80506570D01*
G37*
G36*
X145867996Y-85771151D02*
G01*
X145874575Y-85783149D01*
X145883182Y-85802752D01*
X145900028Y-85843843D01*
X145923575Y-85902566D01*
X145952283Y-85975063D01*
X145984612Y-86057479D01*
X146006903Y-86114706D01*
X146049809Y-86223671D01*
X146085149Y-86309514D01*
X146114299Y-86374766D01*
X146138635Y-86421958D01*
X146159532Y-86453620D01*
X146178364Y-86472283D01*
X146196507Y-86480479D01*
X146206183Y-86481444D01*
X146226935Y-86487614D01*
X146230981Y-86495027D01*
X146218158Y-86501535D01*
X146182664Y-86506178D01*
X146128957Y-86508459D01*
X146108735Y-86508610D01*
X146047838Y-86506882D01*
X146006381Y-86502134D01*
X145986356Y-86495016D01*
X145989751Y-86486179D01*
X146013655Y-86477508D01*
X146033656Y-86464955D01*
X146039305Y-86439450D01*
X146030349Y-86397968D01*
X146006536Y-86337484D01*
X146000923Y-86324942D01*
X145961027Y-86236952D01*
X145824541Y-86236952D01*
X145688056Y-86236952D01*
X145646322Y-86319627D01*
X145619290Y-86381718D01*
X145610503Y-86426587D01*
X145619908Y-86457095D01*
X145643521Y-86474478D01*
X145669257Y-86489207D01*
X145669131Y-86499680D01*
X145642810Y-86506073D01*
X145589963Y-86508562D01*
X145579002Y-86508610D01*
X145532135Y-86507636D01*
X145498176Y-86505074D01*
X145483996Y-86501462D01*
X145483922Y-86501167D01*
X145493060Y-86488024D01*
X145515310Y-86466025D01*
X145517791Y-86463814D01*
X145534232Y-86441575D01*
X145559707Y-86396899D01*
X145592860Y-86332450D01*
X145632338Y-86250892D01*
X145660681Y-86189672D01*
X145714831Y-86189672D01*
X145727341Y-86192705D01*
X145760586Y-86194989D01*
X145808138Y-86196138D01*
X145823494Y-86196203D01*
X145879830Y-86195148D01*
X145913612Y-86191440D01*
X145929389Y-86184264D01*
X145932157Y-86176755D01*
X145927534Y-86154953D01*
X145915461Y-86115929D01*
X145898629Y-86067039D01*
X145879731Y-86015638D01*
X145861460Y-85969080D01*
X145846508Y-85934722D01*
X145838373Y-85920556D01*
X145830474Y-85928898D01*
X145814960Y-85956408D01*
X145794562Y-85997136D01*
X145772012Y-86045133D01*
X145750042Y-86094447D01*
X145731383Y-86139129D01*
X145718766Y-86173228D01*
X145714831Y-86189672D01*
X145660681Y-86189672D01*
X145676785Y-86154889D01*
X145692139Y-86120878D01*
X145731242Y-86033989D01*
X145767291Y-85954339D01*
X145798610Y-85885600D01*
X145823519Y-85831443D01*
X145840343Y-85795538D01*
X145846791Y-85782530D01*
X145858740Y-85764829D01*
X145867996Y-85771151D01*
G37*
G36*
X151048360Y-85789748D02*
G01*
X151115557Y-85792252D01*
X151177461Y-85796382D01*
X151228673Y-85802118D01*
X151239305Y-85803824D01*
X151336019Y-85832226D01*
X151414263Y-85880543D01*
X151474063Y-85948792D01*
X151490455Y-85977032D01*
X151521851Y-86064782D01*
X151529386Y-86155899D01*
X151514721Y-86245580D01*
X151479515Y-86329021D01*
X151425431Y-86401419D01*
X151354127Y-86457969D01*
X151317772Y-86476574D01*
X151286900Y-86486881D01*
X151245347Y-86494561D01*
X151188511Y-86500129D01*
X151111794Y-86504102D01*
X151056302Y-86505879D01*
X150984797Y-86507094D01*
X150923975Y-86506735D01*
X150878488Y-86504942D01*
X150852986Y-86501853D01*
X150849163Y-86499699D01*
X150860121Y-86485846D01*
X150879724Y-86474478D01*
X150889709Y-86469371D01*
X150897292Y-86461642D01*
X150902859Y-86447788D01*
X150906795Y-86424303D01*
X150909485Y-86387683D01*
X150911317Y-86334423D01*
X150912676Y-86261020D01*
X150913599Y-86190526D01*
X150982847Y-86190526D01*
X150984383Y-86267222D01*
X150987517Y-86335623D01*
X150992264Y-86390710D01*
X150998641Y-86427463D01*
X151004497Y-86439974D01*
X151050293Y-86464020D01*
X151116466Y-86476057D01*
X151191545Y-86477160D01*
X151247728Y-86472898D01*
X151288639Y-86462756D01*
X151326065Y-86443277D01*
X151340957Y-86433311D01*
X151387050Y-86392035D01*
X151425175Y-86341901D01*
X151430789Y-86331850D01*
X151447139Y-86295925D01*
X151455919Y-86261492D01*
X151458614Y-86218890D01*
X151456904Y-86162246D01*
X151443007Y-86060279D01*
X151411426Y-85977649D01*
X151360545Y-85911790D01*
X151288749Y-85860134D01*
X151256649Y-85844147D01*
X151204726Y-85827147D01*
X151145702Y-85817635D01*
X151087707Y-85815836D01*
X151038873Y-85821975D01*
X151007329Y-85836278D01*
X151006336Y-85837227D01*
X150998604Y-85858290D01*
X150992379Y-85901173D01*
X150987675Y-85960858D01*
X150984508Y-86032324D01*
X150982894Y-86110553D01*
X150982847Y-86190526D01*
X150913599Y-86190526D01*
X150913947Y-86163968D01*
X150913952Y-86163614D01*
X150914963Y-86064794D01*
X150915099Y-85989546D01*
X150914147Y-85934286D01*
X150911896Y-85895428D01*
X150908133Y-85869388D01*
X150902647Y-85852580D01*
X150895225Y-85841419D01*
X150894868Y-85841021D01*
X150867545Y-85821341D01*
X150847057Y-85815882D01*
X150826155Y-85809770D01*
X150821997Y-85802299D01*
X150834652Y-85796380D01*
X150869016Y-85792185D01*
X150919689Y-85789695D01*
X150981270Y-85788889D01*
X151048360Y-85789748D01*
G37*
G36*
X152180286Y-85828354D02*
G01*
X152175970Y-85873761D01*
X152164434Y-85903123D01*
X152151667Y-85910962D01*
X152141545Y-85899670D01*
X152139537Y-85885902D01*
X152132219Y-85854921D01*
X152108270Y-85833808D01*
X152064697Y-85821311D01*
X151998507Y-85816176D01*
X151972336Y-85815882D01*
X151918227Y-85816183D01*
X151881068Y-85819925D01*
X151857866Y-85831373D01*
X151845625Y-85854787D01*
X151841350Y-85894431D01*
X151842048Y-85954567D01*
X151843510Y-85999251D01*
X151847505Y-86121497D01*
X151935374Y-86125618D01*
X152002882Y-86126812D01*
X152048205Y-86122007D01*
X152075914Y-86109899D01*
X152090582Y-86089181D01*
X152093262Y-86080542D01*
X152103640Y-86051633D01*
X152112992Y-86047982D01*
X152120403Y-86067678D01*
X152124957Y-86108812D01*
X152125954Y-86148663D01*
X152123904Y-86203467D01*
X152118365Y-86238149D01*
X152110253Y-86250799D01*
X152100484Y-86239509D01*
X152093262Y-86216784D01*
X152081795Y-86193043D01*
X152058746Y-86178328D01*
X152019544Y-86171334D01*
X151959616Y-86170754D01*
X151935374Y-86171708D01*
X151847505Y-86175829D01*
X151843600Y-86301413D01*
X151842489Y-86374338D01*
X151846186Y-86424436D01*
X151857239Y-86455950D01*
X151878195Y-86473123D01*
X151911602Y-86480198D01*
X151951674Y-86481444D01*
X152048728Y-86473618D01*
X152125802Y-86449655D01*
X152182996Y-86410998D01*
X152212926Y-86384070D01*
X152228302Y-86374946D01*
X152233921Y-86382362D01*
X152234617Y-86397405D01*
X152225323Y-86421787D01*
X152202126Y-86452588D01*
X152193015Y-86461924D01*
X152151412Y-86501818D01*
X151928148Y-86506128D01*
X151853728Y-86506917D01*
X151789824Y-86506357D01*
X151740918Y-86504590D01*
X151711493Y-86501754D01*
X151704884Y-86499162D01*
X151715831Y-86485729D01*
X151735446Y-86474478D01*
X151745380Y-86469405D01*
X151752936Y-86461737D01*
X151758495Y-86447990D01*
X151762436Y-86424683D01*
X151765136Y-86388334D01*
X151766975Y-86335460D01*
X151768332Y-86262581D01*
X151769585Y-86166214D01*
X151769660Y-86160077D01*
X151770647Y-86060214D01*
X151770741Y-85984034D01*
X151769748Y-85928065D01*
X151767475Y-85888833D01*
X151763728Y-85862866D01*
X151758316Y-85846690D01*
X151751711Y-85837483D01*
X151722848Y-85819806D01*
X151703914Y-85815882D01*
X151682375Y-85810006D01*
X151677719Y-85802299D01*
X151690999Y-85797161D01*
X151729672Y-85793155D01*
X151791982Y-85790376D01*
X151876175Y-85788920D01*
X151929002Y-85788717D01*
X152180286Y-85788717D01*
X152180286Y-85828354D01*
G37*
G36*
X142898276Y-85790219D02*
G01*
X142938093Y-85794350D01*
X142956719Y-85800549D01*
X142957505Y-85802299D01*
X142946537Y-85814428D01*
X142937608Y-85815882D01*
X142923200Y-85819040D01*
X142911926Y-85830403D01*
X142903420Y-85852810D01*
X142897317Y-85889095D01*
X142893251Y-85942096D01*
X142890857Y-86014649D01*
X142889770Y-86109591D01*
X142889590Y-86188519D01*
X142889096Y-86281013D01*
X142887701Y-86362349D01*
X142885538Y-86429021D01*
X142882743Y-86477526D01*
X142879447Y-86504357D01*
X142877408Y-86508610D01*
X142865490Y-86498828D01*
X142838203Y-86471278D01*
X142798050Y-86428652D01*
X142747533Y-86373641D01*
X142689154Y-86308936D01*
X142631170Y-86243743D01*
X142568156Y-86172645D01*
X142511179Y-86108760D01*
X142462657Y-86054767D01*
X142425010Y-86013346D01*
X142400655Y-85987178D01*
X142392069Y-85978877D01*
X142390439Y-85991737D01*
X142389029Y-86027426D01*
X142387929Y-86081609D01*
X142387232Y-86149948D01*
X142387024Y-86217757D01*
X142387024Y-86456638D01*
X142427772Y-86472019D01*
X142459298Y-86486698D01*
X142465153Y-86497470D01*
X142444973Y-86504533D01*
X142398391Y-86508082D01*
X142359858Y-86508610D01*
X142309395Y-86507417D01*
X142271396Y-86504247D01*
X142252286Y-86499713D01*
X142251195Y-86498248D01*
X142262103Y-86485479D01*
X142281515Y-86474478D01*
X142303667Y-86461916D01*
X142320194Y-86444071D01*
X142331803Y-86417268D01*
X142339199Y-86377833D01*
X142343088Y-86322094D01*
X142344175Y-86246375D01*
X142343262Y-86153016D01*
X142341638Y-86065572D01*
X142339589Y-86000927D01*
X142336613Y-85954715D01*
X142332206Y-85922571D01*
X142325869Y-85900127D01*
X142317099Y-85883018D01*
X142311252Y-85874567D01*
X142283109Y-85843984D01*
X142254243Y-85823183D01*
X142253525Y-85822849D01*
X142228186Y-85807094D01*
X142229118Y-85795660D01*
X142255635Y-85789510D01*
X142277844Y-85788717D01*
X142294076Y-85789267D01*
X142309200Y-85792391D01*
X142325609Y-85800292D01*
X142345696Y-85815179D01*
X142371854Y-85839256D01*
X142406476Y-85874730D01*
X142451954Y-85923807D01*
X142510682Y-85988693D01*
X142585052Y-86071594D01*
X142586855Y-86073606D01*
X142842050Y-86358496D01*
X142845778Y-86133876D01*
X142846665Y-86037204D01*
X142845100Y-85964015D01*
X142840206Y-85910669D01*
X142831102Y-85873530D01*
X142816910Y-85848959D01*
X142796752Y-85833319D01*
X142770740Y-85823261D01*
X142736622Y-85810568D01*
X142729210Y-85800618D01*
X142748170Y-85793571D01*
X142793165Y-85789591D01*
X142842050Y-85788717D01*
X142898276Y-85790219D01*
G37*
G36*
X143753998Y-85790219D02*
G01*
X143793815Y-85794350D01*
X143812441Y-85800549D01*
X143813227Y-85802299D01*
X143802259Y-85814428D01*
X143793330Y-85815882D01*
X143778922Y-85819040D01*
X143767648Y-85830403D01*
X143759142Y-85852810D01*
X143753039Y-85889095D01*
X143748973Y-85942096D01*
X143746579Y-86014649D01*
X143745492Y-86109591D01*
X143745312Y-86188519D01*
X143744818Y-86281013D01*
X143743422Y-86362349D01*
X143741260Y-86429021D01*
X143738464Y-86477526D01*
X143735168Y-86504357D01*
X143733130Y-86508610D01*
X143721212Y-86498828D01*
X143693925Y-86471278D01*
X143653772Y-86428652D01*
X143603255Y-86373641D01*
X143544876Y-86308936D01*
X143486892Y-86243743D01*
X143423878Y-86172645D01*
X143366901Y-86108760D01*
X143318379Y-86054767D01*
X143280732Y-86013346D01*
X143256377Y-85987178D01*
X143247791Y-85978877D01*
X143246161Y-85991737D01*
X143244751Y-86027426D01*
X143243651Y-86081609D01*
X143242954Y-86149948D01*
X143242745Y-86217757D01*
X143242745Y-86456638D01*
X143283494Y-86472019D01*
X143315020Y-86486698D01*
X143320875Y-86497470D01*
X143300695Y-86504533D01*
X143254113Y-86508082D01*
X143215580Y-86508610D01*
X143165117Y-86507417D01*
X143127117Y-86504247D01*
X143108008Y-86499713D01*
X143106917Y-86498248D01*
X143117825Y-86485479D01*
X143137237Y-86474478D01*
X143159389Y-86461916D01*
X143175916Y-86444071D01*
X143187525Y-86417268D01*
X143194921Y-86377833D01*
X143198810Y-86322094D01*
X143199897Y-86246375D01*
X143198984Y-86153016D01*
X143197360Y-86065572D01*
X143195311Y-86000927D01*
X143192334Y-85954715D01*
X143187928Y-85922571D01*
X143181591Y-85900127D01*
X143172821Y-85883018D01*
X143166974Y-85874567D01*
X143138831Y-85843984D01*
X143109965Y-85823183D01*
X143109247Y-85822849D01*
X143083908Y-85807094D01*
X143084840Y-85795660D01*
X143111357Y-85789510D01*
X143133566Y-85788717D01*
X143149798Y-85789267D01*
X143164922Y-85792391D01*
X143181331Y-85800292D01*
X143201418Y-85815179D01*
X143227576Y-85839256D01*
X143262198Y-85874730D01*
X143307676Y-85923807D01*
X143366404Y-85988693D01*
X143440774Y-86071594D01*
X143442577Y-86073606D01*
X143697772Y-86358496D01*
X143701500Y-86133876D01*
X143702387Y-86037204D01*
X143700822Y-85964015D01*
X143695928Y-85910669D01*
X143686824Y-85873530D01*
X143672632Y-85848959D01*
X143652474Y-85833319D01*
X143626462Y-85823261D01*
X143592344Y-85810568D01*
X143584932Y-85800618D01*
X143603892Y-85793571D01*
X143648887Y-85789591D01*
X143697772Y-85788717D01*
X143753998Y-85790219D01*
G37*
G36*
X148956244Y-85790219D02*
G01*
X148996061Y-85794350D01*
X149014687Y-85800549D01*
X149015473Y-85802299D01*
X149004505Y-85814428D01*
X148995576Y-85815882D01*
X148981168Y-85819040D01*
X148969894Y-85830403D01*
X148961388Y-85852810D01*
X148955285Y-85889095D01*
X148951219Y-85942096D01*
X148948825Y-86014649D01*
X148947738Y-86109591D01*
X148947558Y-86188519D01*
X148947064Y-86281013D01*
X148945668Y-86362349D01*
X148943506Y-86429021D01*
X148940710Y-86477526D01*
X148937414Y-86504357D01*
X148935376Y-86508610D01*
X148923458Y-86498828D01*
X148896171Y-86471278D01*
X148856018Y-86428652D01*
X148805501Y-86373641D01*
X148747122Y-86308936D01*
X148689138Y-86243743D01*
X148626124Y-86172645D01*
X148569147Y-86108760D01*
X148520625Y-86054767D01*
X148482978Y-86013346D01*
X148458623Y-85987178D01*
X148450037Y-85978877D01*
X148448407Y-85991737D01*
X148446997Y-86027426D01*
X148445897Y-86081609D01*
X148445200Y-86149948D01*
X148444991Y-86217757D01*
X148444991Y-86456638D01*
X148485740Y-86472019D01*
X148517266Y-86486698D01*
X148523121Y-86497470D01*
X148502941Y-86504533D01*
X148456358Y-86508082D01*
X148417826Y-86508610D01*
X148367363Y-86507417D01*
X148329363Y-86504247D01*
X148310254Y-86499713D01*
X148309163Y-86498248D01*
X148320071Y-86485479D01*
X148339483Y-86474478D01*
X148361635Y-86461916D01*
X148378162Y-86444071D01*
X148389771Y-86417268D01*
X148397167Y-86377833D01*
X148401056Y-86322094D01*
X148402143Y-86246375D01*
X148401230Y-86153016D01*
X148399606Y-86065572D01*
X148397557Y-86000927D01*
X148394580Y-85954715D01*
X148390174Y-85922571D01*
X148383837Y-85900127D01*
X148375067Y-85883018D01*
X148369220Y-85874567D01*
X148341077Y-85843984D01*
X148312211Y-85823183D01*
X148311493Y-85822849D01*
X148286154Y-85807094D01*
X148287086Y-85795660D01*
X148313603Y-85789510D01*
X148335812Y-85788717D01*
X148352044Y-85789267D01*
X148367168Y-85792391D01*
X148383577Y-85800292D01*
X148403664Y-85815179D01*
X148429822Y-85839256D01*
X148464444Y-85874730D01*
X148509922Y-85923807D01*
X148568650Y-85988693D01*
X148643020Y-86071594D01*
X148644823Y-86073606D01*
X148900018Y-86358496D01*
X148903746Y-86133876D01*
X148904633Y-86037204D01*
X148903068Y-85964015D01*
X148898174Y-85910669D01*
X148889070Y-85873530D01*
X148874878Y-85848959D01*
X148854720Y-85833319D01*
X148828708Y-85823261D01*
X148794590Y-85810568D01*
X148787178Y-85800618D01*
X148806138Y-85793571D01*
X148851133Y-85789591D01*
X148900018Y-85788717D01*
X148956244Y-85790219D01*
G37*
G36*
X154919132Y-85790219D02*
G01*
X154958948Y-85794350D01*
X154977574Y-85800549D01*
X154978360Y-85802299D01*
X154967393Y-85814428D01*
X154958464Y-85815882D01*
X154944056Y-85819040D01*
X154932781Y-85830403D01*
X154924275Y-85852810D01*
X154918172Y-85889095D01*
X154914107Y-85942096D01*
X154911713Y-86014649D01*
X154910626Y-86109591D01*
X154910446Y-86188519D01*
X154909951Y-86281013D01*
X154908556Y-86362349D01*
X154906394Y-86429021D01*
X154903598Y-86477526D01*
X154900302Y-86504357D01*
X154898264Y-86508610D01*
X154886345Y-86498828D01*
X154859058Y-86471278D01*
X154818905Y-86428652D01*
X154768388Y-86373641D01*
X154710010Y-86308936D01*
X154652025Y-86243743D01*
X154589012Y-86172645D01*
X154532035Y-86108760D01*
X154483513Y-86054767D01*
X154445865Y-86013346D01*
X154421511Y-85987178D01*
X154412924Y-85978877D01*
X154411295Y-85991737D01*
X154409885Y-86027426D01*
X154408785Y-86081609D01*
X154408087Y-86149948D01*
X154407879Y-86217757D01*
X154407879Y-86456638D01*
X154448628Y-86472019D01*
X154480154Y-86486698D01*
X154486009Y-86497470D01*
X154465829Y-86504533D01*
X154419246Y-86508082D01*
X154380713Y-86508610D01*
X154330251Y-86507417D01*
X154292251Y-86504247D01*
X154273141Y-86499713D01*
X154272050Y-86498248D01*
X154282959Y-86485479D01*
X154302371Y-86474478D01*
X154324522Y-86461916D01*
X154341050Y-86444071D01*
X154352659Y-86417268D01*
X154360055Y-86377833D01*
X154363944Y-86322094D01*
X154365031Y-86246375D01*
X154364118Y-86153016D01*
X154362494Y-86065572D01*
X154360445Y-86000927D01*
X154357468Y-85954715D01*
X154353062Y-85922571D01*
X154346725Y-85900127D01*
X154337954Y-85883018D01*
X154332108Y-85874567D01*
X154303964Y-85843984D01*
X154275099Y-85823183D01*
X154274380Y-85822849D01*
X154249041Y-85807094D01*
X154249974Y-85795660D01*
X154276491Y-85789510D01*
X154298700Y-85788717D01*
X154314932Y-85789267D01*
X154330056Y-85792391D01*
X154346465Y-85800292D01*
X154366552Y-85815179D01*
X154392710Y-85839256D01*
X154427332Y-85874730D01*
X154472810Y-85923807D01*
X154531538Y-85988693D01*
X154605908Y-86071594D01*
X154607711Y-86073606D01*
X154862906Y-86358496D01*
X154866634Y-86133876D01*
X154867521Y-86037204D01*
X154865956Y-85964015D01*
X154861061Y-85910669D01*
X154851958Y-85873530D01*
X154837766Y-85848959D01*
X154817608Y-85833319D01*
X154791596Y-85823261D01*
X154757477Y-85810568D01*
X154750066Y-85800618D01*
X154769026Y-85793571D01*
X154814021Y-85789591D01*
X154862906Y-85788717D01*
X154919132Y-85790219D01*
G37*
G36*
X154784732Y-80594515D02*
G01*
X154778943Y-80642655D01*
X154770883Y-80680436D01*
X154762943Y-80698658D01*
X154752432Y-80705532D01*
X154744268Y-80698033D01*
X154735851Y-80671628D01*
X154728051Y-80637798D01*
X154717977Y-80611190D01*
X154698552Y-80592344D01*
X154665666Y-80579924D01*
X154615209Y-80572590D01*
X154543073Y-80569006D01*
X154515008Y-80568436D01*
X154446295Y-80568091D01*
X154400054Y-80569965D01*
X154371646Y-80574573D01*
X154356432Y-80582433D01*
X154353085Y-80586471D01*
X154348393Y-80607197D01*
X154344987Y-80649228D01*
X154343156Y-80706721D01*
X154343188Y-80773831D01*
X154343353Y-80783422D01*
X154346756Y-80960000D01*
X154472340Y-80963905D01*
X154546421Y-80964318D01*
X154598423Y-80959092D01*
X154633135Y-80946610D01*
X154655343Y-80925260D01*
X154668356Y-80897825D01*
X154682263Y-80866323D01*
X154692980Y-80861021D01*
X154700579Y-80882118D01*
X154705129Y-80929815D01*
X154706701Y-81004315D01*
X154706703Y-81007540D01*
X154705481Y-81077249D01*
X154701985Y-81126690D01*
X154696466Y-81153160D01*
X154692780Y-81156952D01*
X154680610Y-81145215D01*
X154670865Y-81116987D01*
X154670847Y-81116897D01*
X154660475Y-81081654D01*
X154642925Y-81058001D01*
X154613526Y-81043990D01*
X154567612Y-81037671D01*
X154500515Y-81037095D01*
X154480949Y-81037588D01*
X154346756Y-81041497D01*
X154342986Y-81226917D01*
X154341623Y-81311640D01*
X154343290Y-81372847D01*
X154350665Y-81414184D01*
X154366423Y-81439298D01*
X154393241Y-81451838D01*
X154433796Y-81455449D01*
X154490763Y-81453779D01*
X154508837Y-81452918D01*
X154618081Y-81440192D01*
X154708854Y-81413815D01*
X154778669Y-81374633D01*
X154802814Y-81352806D01*
X154832043Y-81326312D01*
X154849150Y-81323162D01*
X154855860Y-81343324D01*
X154856114Y-81351866D01*
X154847836Y-81381289D01*
X154827011Y-81421115D01*
X154799654Y-81461908D01*
X154771780Y-81494235D01*
X154758536Y-81504909D01*
X154740511Y-81508106D01*
X154700621Y-81510817D01*
X154643558Y-81513018D01*
X154574011Y-81514686D01*
X154496674Y-81515799D01*
X154416238Y-81516332D01*
X154337393Y-81516262D01*
X154264832Y-81515567D01*
X154203246Y-81514222D01*
X154157326Y-81512205D01*
X154131764Y-81509492D01*
X154128154Y-81508041D01*
X154135115Y-81496384D01*
X154159153Y-81477983D01*
X154169760Y-81471405D01*
X154202192Y-81445859D01*
X154222754Y-81417875D01*
X154224688Y-81412348D01*
X154226578Y-81391021D01*
X154228025Y-81346303D01*
X154228994Y-81281963D01*
X154229450Y-81201772D01*
X154229360Y-81109502D01*
X154228689Y-81008922D01*
X154228522Y-80991965D01*
X154227229Y-80878125D01*
X154225822Y-80788322D01*
X154224080Y-80719427D01*
X154221786Y-80668311D01*
X154218719Y-80631845D01*
X154214661Y-80606901D01*
X154209392Y-80590349D01*
X154202694Y-80579062D01*
X154199322Y-80575050D01*
X154170206Y-80552400D01*
X154146054Y-80543085D01*
X154120720Y-80532460D01*
X154112383Y-80521952D01*
X154116222Y-80516523D01*
X154133398Y-80512306D01*
X154166400Y-80509176D01*
X154217714Y-80507009D01*
X154289830Y-80505677D01*
X154385234Y-80505057D01*
X154449356Y-80504973D01*
X154791919Y-80504973D01*
X154784732Y-80594515D01*
G37*
G36*
X145674530Y-80495316D02*
G01*
X145691280Y-80530989D01*
X145715603Y-80586287D01*
X145746299Y-80658388D01*
X145782167Y-80744470D01*
X145822007Y-80841712D01*
X145864618Y-80947291D01*
X145866711Y-80952516D01*
X145909878Y-81059489D01*
X145950748Y-81159171D01*
X145988044Y-81248571D01*
X146020491Y-81324698D01*
X146046816Y-81384563D01*
X146065743Y-81425173D01*
X146075997Y-81443539D01*
X146076065Y-81443615D01*
X146105283Y-81463731D01*
X146144154Y-81477315D01*
X146145148Y-81477507D01*
X146174501Y-81486907D01*
X146186787Y-81498788D01*
X146186548Y-81500785D01*
X146171866Y-81507330D01*
X146136940Y-81512170D01*
X146088058Y-81515297D01*
X146031506Y-81516702D01*
X145973571Y-81516377D01*
X145920540Y-81514312D01*
X145878699Y-81510499D01*
X145854336Y-81504930D01*
X145850659Y-81501248D01*
X145862156Y-81486561D01*
X145890133Y-81471877D01*
X145893128Y-81470794D01*
X145921932Y-81457358D01*
X145930534Y-81439199D01*
X145928025Y-81418530D01*
X145917639Y-81380287D01*
X145900346Y-81329479D01*
X145878999Y-81273196D01*
X145856452Y-81218527D01*
X145835557Y-81172561D01*
X145819168Y-81142388D01*
X145814408Y-81136224D01*
X145799271Y-81127440D01*
X145771751Y-81121494D01*
X145727646Y-81117954D01*
X145662755Y-81116384D01*
X145620285Y-81116203D01*
X145541716Y-81116604D01*
X145484864Y-81119907D01*
X145444281Y-81129263D01*
X145414518Y-81147822D01*
X145390128Y-81178734D01*
X145365662Y-81225151D01*
X145341537Y-81277400D01*
X145312650Y-81347372D01*
X145299717Y-81398511D01*
X145303045Y-81434189D01*
X145322939Y-81457777D01*
X145359229Y-81472525D01*
X145388190Y-81484512D01*
X145399224Y-81498517D01*
X145398893Y-81500328D01*
X145384254Y-81507302D01*
X145350118Y-81512483D01*
X145303313Y-81515800D01*
X145250667Y-81517180D01*
X145199005Y-81516549D01*
X145155156Y-81513837D01*
X145125946Y-81508970D01*
X145117707Y-81503315D01*
X145128537Y-81487865D01*
X145154616Y-81467001D01*
X145161402Y-81462567D01*
X145173966Y-81452567D01*
X145187938Y-81436459D01*
X145204546Y-81411916D01*
X145225020Y-81376614D01*
X145250588Y-81328224D01*
X145282479Y-81264423D01*
X145321921Y-81182885D01*
X145370143Y-81081282D01*
X145385724Y-81048106D01*
X145463470Y-81048106D01*
X145463590Y-81048357D01*
X145479374Y-81053151D01*
X145515449Y-81056644D01*
X145564985Y-81058812D01*
X145621148Y-81059635D01*
X145677108Y-81059090D01*
X145726031Y-81057156D01*
X145761088Y-81053811D01*
X145775295Y-81049355D01*
X145773219Y-81033387D01*
X145762561Y-80998623D01*
X145745496Y-80950494D01*
X145724198Y-80894435D01*
X145700843Y-80835879D01*
X145677606Y-80780259D01*
X145656663Y-80733009D01*
X145640187Y-80699561D01*
X145630356Y-80685348D01*
X145629521Y-80685229D01*
X145619333Y-80698498D01*
X145601285Y-80731209D01*
X145577862Y-80777928D01*
X145551545Y-80833221D01*
X145524818Y-80891654D01*
X145500164Y-80947793D01*
X145480066Y-80996204D01*
X145467007Y-81031453D01*
X145463470Y-81048106D01*
X145385724Y-81048106D01*
X145428374Y-80957290D01*
X145428755Y-80956476D01*
X145478647Y-80850725D01*
X145525365Y-80753295D01*
X145567599Y-80666805D01*
X145604036Y-80593872D01*
X145633363Y-80537111D01*
X145654270Y-80499142D01*
X145665445Y-80482581D01*
X145666555Y-80482090D01*
X145674530Y-80495316D01*
G37*
G36*
X149857566Y-85800248D02*
G01*
X149892687Y-85808215D01*
X149919015Y-85807103D01*
X149919117Y-85807064D01*
X149931321Y-85807742D01*
X149937280Y-85825324D01*
X149938682Y-85864840D01*
X149938679Y-85865365D01*
X149938248Y-85931337D01*
X149910103Y-85893604D01*
X149868567Y-85851744D01*
X149822450Y-85826708D01*
X149776889Y-85818348D01*
X149737018Y-85826519D01*
X149707972Y-85851072D01*
X149694887Y-85891861D01*
X149694617Y-85899772D01*
X149704354Y-85928596D01*
X149731559Y-85971669D01*
X149773218Y-86025391D01*
X149826321Y-86086162D01*
X149887857Y-86150380D01*
X149954813Y-86214446D01*
X149967267Y-86225737D01*
X150016976Y-86269103D01*
X150050528Y-86293294D01*
X150071160Y-86298155D01*
X150082111Y-86283530D01*
X150086620Y-86249264D01*
X150087566Y-86219973D01*
X150079590Y-86174177D01*
X150057485Y-86137140D01*
X150026663Y-86116587D01*
X150013815Y-86114706D01*
X149995739Y-86107371D01*
X149993441Y-86101123D01*
X150006103Y-86094316D01*
X150040475Y-86089559D01*
X150091133Y-86087561D01*
X150097417Y-86087540D01*
X150149401Y-86087905D01*
X150178592Y-86089882D01*
X150189364Y-86094795D01*
X150186087Y-86103968D01*
X150179028Y-86112254D01*
X150163601Y-86139675D01*
X150149182Y-86182047D01*
X150143248Y-86207700D01*
X150132704Y-86253890D01*
X150120824Y-86292568D01*
X150115026Y-86306100D01*
X150107870Y-86325779D01*
X150111588Y-86344254D01*
X150129342Y-86365366D01*
X150164295Y-86392953D01*
X150215553Y-86428151D01*
X150263617Y-86458207D01*
X150297945Y-86473652D01*
X150325701Y-86477227D01*
X150339132Y-86475466D01*
X150365222Y-86471816D01*
X150368812Y-86477210D01*
X150362440Y-86484585D01*
X150338617Y-86494683D01*
X150296331Y-86500536D01*
X150267364Y-86501393D01*
X150215719Y-86498224D01*
X150175023Y-86486394D01*
X150131040Y-86461401D01*
X150122167Y-86455490D01*
X150084264Y-86430617D01*
X150060308Y-86419295D01*
X150041754Y-86419843D01*
X150020055Y-86430581D01*
X150013925Y-86434194D01*
X149956755Y-86466349D01*
X149912368Y-86486161D01*
X149871411Y-86497032D01*
X149827084Y-86502185D01*
X149777077Y-86503179D01*
X149731405Y-86499782D01*
X149714991Y-86496688D01*
X149630364Y-86463520D01*
X149567556Y-86414254D01*
X149526684Y-86349022D01*
X149507861Y-86267953D01*
X149507202Y-86259091D01*
X149506275Y-86218736D01*
X149571884Y-86218736D01*
X149584771Y-86281379D01*
X149608405Y-86320444D01*
X149647223Y-86363132D01*
X149692246Y-86400656D01*
X149728113Y-86421679D01*
X149784434Y-86436125D01*
X149851737Y-86439143D01*
X149916356Y-86430731D01*
X149944679Y-86421707D01*
X149983879Y-86401581D01*
X149997473Y-86381738D01*
X149986072Y-86357537D01*
X149956774Y-86329729D01*
X149925853Y-86302039D01*
X149882364Y-86260916D01*
X149832646Y-86212433D01*
X149793546Y-86173339D01*
X149747950Y-86128805D01*
X149707781Y-86092544D01*
X149677564Y-86068449D01*
X149662320Y-86060374D01*
X149641646Y-86070060D01*
X149614667Y-86094126D01*
X149607536Y-86102165D01*
X149579519Y-86155249D01*
X149571884Y-86218736D01*
X149506275Y-86218736D01*
X149506015Y-86207407D01*
X149511764Y-86171296D01*
X149526742Y-86139566D01*
X149534007Y-86128289D01*
X149568215Y-86090294D01*
X149610453Y-86059144D01*
X149616685Y-86055865D01*
X149647981Y-86039104D01*
X149658549Y-86026187D01*
X149652463Y-86009878D01*
X149647067Y-86001907D01*
X149628733Y-85955298D01*
X149628491Y-85902156D01*
X149645510Y-85854039D01*
X149658954Y-85836727D01*
X149700895Y-85810453D01*
X149757253Y-85794928D01*
X149816701Y-85792232D01*
X149857566Y-85800248D01*
G37*
G36*
X144418344Y-80505517D02*
G01*
X144464016Y-80507518D01*
X144490995Y-80511527D01*
X144503511Y-80518095D01*
X144505954Y-80525348D01*
X144495081Y-80543355D01*
X144485580Y-80545722D01*
X144461477Y-80554713D01*
X144438040Y-80572888D01*
X144430234Y-80581855D01*
X144424084Y-80593422D01*
X144419394Y-80610679D01*
X144415966Y-80636720D01*
X144413604Y-80674638D01*
X144412111Y-80727525D01*
X144411289Y-80798475D01*
X144410942Y-80890580D01*
X144410874Y-80999638D01*
X144411163Y-81102054D01*
X144411979Y-81196313D01*
X144413249Y-81278804D01*
X144414897Y-81345913D01*
X144416848Y-81394028D01*
X144419027Y-81419536D01*
X144419626Y-81422030D01*
X144436670Y-81440666D01*
X144469786Y-81461687D01*
X144488410Y-81470572D01*
X144521960Y-81487370D01*
X144540626Y-81501532D01*
X144542079Y-81506601D01*
X144525930Y-81511827D01*
X144489424Y-81515152D01*
X144438946Y-81516705D01*
X144380877Y-81516614D01*
X144321600Y-81515007D01*
X144267500Y-81512012D01*
X144224958Y-81507758D01*
X144200358Y-81502373D01*
X144196858Y-81499663D01*
X144204274Y-81485353D01*
X144226857Y-81475099D01*
X144254222Y-81465374D01*
X144274139Y-81449374D01*
X144287749Y-81423162D01*
X144296193Y-81382802D01*
X144300611Y-81324359D01*
X144302143Y-81243895D01*
X144302211Y-81215053D01*
X144302211Y-81021123D01*
X144023761Y-81021123D01*
X143745312Y-81021123D01*
X143745312Y-81223203D01*
X143745640Y-81306157D01*
X143747618Y-81366293D01*
X143752743Y-81407960D01*
X143762509Y-81435504D01*
X143778410Y-81453274D01*
X143801942Y-81465618D01*
X143832269Y-81476130D01*
X143865308Y-81489811D01*
X143871438Y-81500747D01*
X143850781Y-81508900D01*
X143803458Y-81514234D01*
X143729591Y-81516712D01*
X143696689Y-81516898D01*
X143631352Y-81516135D01*
X143576467Y-81514051D01*
X143537409Y-81510955D01*
X143519553Y-81507154D01*
X143519117Y-81506711D01*
X143519093Y-81486816D01*
X143537922Y-81472098D01*
X143553848Y-81469358D01*
X143581516Y-81459844D01*
X143600587Y-81444519D01*
X143607010Y-81434898D01*
X143612098Y-81419849D01*
X143616001Y-81396414D01*
X143618872Y-81361638D01*
X143620861Y-81312565D01*
X143622120Y-81246239D01*
X143622799Y-81159704D01*
X143623051Y-81050004D01*
X143623066Y-81005180D01*
X143623044Y-80883735D01*
X143622628Y-80786596D01*
X143621291Y-80710904D01*
X143618509Y-80653800D01*
X143613756Y-80612424D01*
X143606505Y-80583917D01*
X143596232Y-80565420D01*
X143582411Y-80554074D01*
X143564516Y-80547019D01*
X143542022Y-80541396D01*
X143537618Y-80540357D01*
X143513226Y-80530108D01*
X143507858Y-80518158D01*
X143523552Y-80512956D01*
X143559193Y-80509061D01*
X143608457Y-80506496D01*
X143665020Y-80505286D01*
X143722560Y-80505454D01*
X143774754Y-80507023D01*
X143815277Y-80510018D01*
X143837808Y-80514463D01*
X143840392Y-80516908D01*
X143829171Y-80529745D01*
X143801915Y-80544760D01*
X143799471Y-80545793D01*
X143768624Y-80566091D01*
X143751472Y-80591307D01*
X143751401Y-80591586D01*
X143748950Y-80615906D01*
X143747519Y-80661007D01*
X143747211Y-80720520D01*
X143748129Y-80788075D01*
X143748178Y-80790214D01*
X143752104Y-80960000D01*
X144023761Y-80960000D01*
X144295419Y-80960000D01*
X144299353Y-80797005D01*
X144300797Y-80714668D01*
X144299836Y-80655062D01*
X144295415Y-80613787D01*
X144286482Y-80586444D01*
X144271985Y-80568630D01*
X144250871Y-80555947D01*
X144240604Y-80551436D01*
X144206593Y-80534740D01*
X144195556Y-80522163D01*
X144208404Y-80513316D01*
X144246050Y-80507811D01*
X144309403Y-80505262D01*
X144349751Y-80504973D01*
X144418344Y-80505517D01*
G37*
G36*
X146946297Y-80506359D02*
G01*
X147008601Y-80507330D01*
X147099685Y-80509037D01*
X147168060Y-80510986D01*
X147218179Y-80513709D01*
X147254498Y-80517739D01*
X147281470Y-80523607D01*
X147303550Y-80531846D01*
X147325192Y-80542987D01*
X147330057Y-80545722D01*
X147389811Y-80593495D01*
X147427016Y-80656409D01*
X147441686Y-80734487D01*
X147441933Y-80750299D01*
X147429361Y-80826100D01*
X147395748Y-80895971D01*
X147345480Y-80951827D01*
X147324523Y-80966717D01*
X147294802Y-80987132D01*
X147278153Y-81002541D01*
X147276863Y-81005489D01*
X147284020Y-81019242D01*
X147303923Y-81051866D01*
X147334218Y-81099647D01*
X147372552Y-81158872D01*
X147416088Y-81225103D01*
X147467379Y-81301768D01*
X147507158Y-81358848D01*
X147538291Y-81399805D01*
X147563641Y-81428103D01*
X147586076Y-81447206D01*
X147608460Y-81460576D01*
X147612547Y-81462567D01*
X147646505Y-81480506D01*
X147667284Y-81494987D01*
X147670275Y-81499304D01*
X147659054Y-81511436D01*
X147629130Y-81517861D01*
X147588408Y-81518343D01*
X147544792Y-81512647D01*
X147514338Y-81503951D01*
X147487330Y-81492058D01*
X147462743Y-81476496D01*
X147437911Y-81454096D01*
X147410170Y-81421689D01*
X147376852Y-81376103D01*
X147335293Y-81314170D01*
X147282828Y-81232719D01*
X147272139Y-81215928D01*
X147233147Y-81156265D01*
X147197673Y-81105034D01*
X147168896Y-81066610D01*
X147149997Y-81045364D01*
X147146183Y-81042747D01*
X147113588Y-81036679D01*
X147068267Y-81034992D01*
X147024300Y-81037668D01*
X146999525Y-81042950D01*
X146990470Y-81050358D01*
X146984307Y-81067281D01*
X146980523Y-81098051D01*
X146978606Y-81147002D01*
X146978042Y-81218467D01*
X146978040Y-81224488D01*
X146979539Y-81310838D01*
X146985107Y-81374093D01*
X146996347Y-81418208D01*
X147014864Y-81447143D01*
X147042263Y-81464853D01*
X147079673Y-81475209D01*
X147111132Y-81485186D01*
X147126981Y-81498192D01*
X147127436Y-81500535D01*
X147118964Y-81507761D01*
X147091826Y-81512730D01*
X147043412Y-81515681D01*
X146971113Y-81516854D01*
X146949722Y-81516898D01*
X146883199Y-81516498D01*
X146827140Y-81515403D01*
X146786785Y-81513772D01*
X146767371Y-81511764D01*
X146766487Y-81511357D01*
X146768161Y-81497812D01*
X146783969Y-81480835D01*
X146804193Y-81469993D01*
X146809146Y-81469358D01*
X146829659Y-81459197D01*
X146848232Y-81439170D01*
X146854451Y-81426865D01*
X146859353Y-81407730D01*
X146863084Y-81378768D01*
X146865793Y-81336980D01*
X146867628Y-81279368D01*
X146868738Y-81202934D01*
X146869268Y-81104679D01*
X146869376Y-81010692D01*
X146869376Y-80818649D01*
X146978735Y-80818649D01*
X146979914Y-80878057D01*
X146982439Y-80925893D01*
X146986357Y-80955732D01*
X146988435Y-80961359D01*
X147017824Y-80982526D01*
X147066726Y-80992245D01*
X147129804Y-80990044D01*
X147188038Y-80979092D01*
X147236872Y-80959305D01*
X147279727Y-80929773D01*
X147285108Y-80924525D01*
X147307655Y-80896289D01*
X147320353Y-80864578D01*
X147326717Y-80819201D01*
X147327988Y-80800165D01*
X147324751Y-80722204D01*
X147303527Y-80662144D01*
X147262190Y-80615835D01*
X147220143Y-80589375D01*
X147171766Y-80570552D01*
X147117438Y-80558620D01*
X147064684Y-80554122D01*
X147021024Y-80557599D01*
X146993984Y-80569594D01*
X146991341Y-80572888D01*
X146986513Y-80593787D01*
X146982791Y-80635237D01*
X146980222Y-80690814D01*
X146978854Y-80754093D01*
X146978735Y-80818649D01*
X146869376Y-80818649D01*
X146869376Y-80612401D01*
X146836037Y-80579062D01*
X146805415Y-80556114D01*
X146776448Y-80545769D01*
X146774914Y-80545722D01*
X146751949Y-80536941D01*
X146747130Y-80524309D01*
X146749781Y-80516892D01*
X146760038Y-80511545D01*
X146781360Y-80508042D01*
X146817205Y-80506160D01*
X146871031Y-80505674D01*
X146946297Y-80506359D01*
G37*
G36*
X142837719Y-81998057D02*
G01*
X142875679Y-82006084D01*
X142897382Y-82021781D01*
X142903339Y-82033048D01*
X142908888Y-82059858D01*
X142900795Y-82080315D01*
X142875208Y-82098009D01*
X142828275Y-82116529D01*
X142805777Y-82123973D01*
X142717041Y-82162427D01*
X142652148Y-82213189D01*
X142610441Y-82276831D01*
X142601425Y-82301507D01*
X142598298Y-82317345D01*
X142595540Y-82343944D01*
X142593131Y-82382748D01*
X142591053Y-82435204D01*
X142589285Y-82502754D01*
X142587809Y-82586844D01*
X142586605Y-82688918D01*
X142585653Y-82810421D01*
X142584935Y-82952798D01*
X142584430Y-83117493D01*
X142584120Y-83305950D01*
X142583985Y-83519616D01*
X142583975Y-83601872D01*
X142583940Y-83819239D01*
X142583910Y-84011087D01*
X142584001Y-84179061D01*
X142584330Y-84324809D01*
X142585013Y-84449974D01*
X142586164Y-84556205D01*
X142587900Y-84645147D01*
X142590336Y-84718445D01*
X142593589Y-84777747D01*
X142597774Y-84824697D01*
X142603007Y-84860943D01*
X142609404Y-84888130D01*
X142617081Y-84907904D01*
X142626153Y-84921912D01*
X142636736Y-84931799D01*
X142648946Y-84939211D01*
X142662900Y-84945795D01*
X142678711Y-84953197D01*
X142679056Y-84953369D01*
X142701047Y-84963103D01*
X142725302Y-84970205D01*
X142756339Y-84975072D01*
X142798677Y-84978101D01*
X142856835Y-84979690D01*
X142935331Y-84980236D01*
X142984671Y-84980241D01*
X143100295Y-84979011D01*
X143195062Y-84975346D01*
X143275205Y-84968833D01*
X143346956Y-84959063D01*
X143371783Y-84954697D01*
X143560460Y-84910338D01*
X143728435Y-84851426D01*
X143874917Y-84778354D01*
X143999114Y-84691518D01*
X144100066Y-84591513D01*
X144131709Y-84557053D01*
X144158977Y-84533169D01*
X144174179Y-84525508D01*
X144192765Y-84537614D01*
X144202498Y-84570496D01*
X144202624Y-84618997D01*
X144194929Y-84667263D01*
X144170026Y-84740087D01*
X144128334Y-84820403D01*
X144074261Y-84902578D01*
X144012217Y-84980978D01*
X143946609Y-85049969D01*
X143881846Y-85103918D01*
X143829445Y-85134309D01*
X143810895Y-85141610D01*
X143790439Y-85147788D01*
X143765897Y-85152899D01*
X143735088Y-85157004D01*
X143695834Y-85160158D01*
X143645953Y-85162422D01*
X143583265Y-85163854D01*
X143505591Y-85164510D01*
X143410749Y-85164451D01*
X143296560Y-85163734D01*
X143160844Y-85162417D01*
X143001421Y-85160558D01*
X142896382Y-85159245D01*
X142772814Y-85158011D01*
X142648393Y-85157383D01*
X142528083Y-85157343D01*
X142416852Y-85157872D01*
X142319664Y-85158951D01*
X142241486Y-85160561D01*
X142203655Y-85161864D01*
X142128234Y-85164727D01*
X142059111Y-85166607D01*
X142002426Y-85167390D01*
X141964319Y-85166963D01*
X141955767Y-85166439D01*
X141924544Y-85159638D01*
X141912680Y-85143506D01*
X141911622Y-85130749D01*
X141913774Y-85110242D01*
X141923287Y-85093772D01*
X141944746Y-85077876D01*
X141982740Y-85059093D01*
X142037386Y-85035810D01*
X142110132Y-84999329D01*
X142160366Y-84957492D01*
X142192741Y-84905303D01*
X142209235Y-84851225D01*
X142212172Y-84824797D01*
X142214774Y-84774241D01*
X142217046Y-84699208D01*
X142218991Y-84599350D01*
X142220613Y-84474319D01*
X142221916Y-84323768D01*
X142222904Y-84147348D01*
X142223581Y-83944710D01*
X142223951Y-83715507D01*
X142224029Y-83533761D01*
X142224029Y-82285277D01*
X142183949Y-82239629D01*
X142156952Y-82212810D01*
X142124283Y-82189569D01*
X142080617Y-82167109D01*
X142020634Y-82142634D01*
X141952371Y-82117994D01*
X141905620Y-82100752D01*
X141879119Y-82086994D01*
X141867183Y-82072118D01*
X141864128Y-82051524D01*
X141864082Y-82046527D01*
X141864082Y-82005882D01*
X142224029Y-82010001D01*
X142327627Y-82010704D01*
X142428896Y-82010507D01*
X142522623Y-82009486D01*
X142603598Y-82007718D01*
X142666608Y-82005281D01*
X142699430Y-82003012D01*
X142780103Y-81997200D01*
X142837719Y-81998057D01*
G37*
G36*
X150084847Y-82004287D02*
G01*
X150111374Y-82019892D01*
X150129526Y-82051004D01*
X150141477Y-82101433D01*
X150149401Y-82174987D01*
X150149705Y-82178997D01*
X150154322Y-82253314D01*
X150158248Y-82339156D01*
X150160797Y-82420882D01*
X150161165Y-82440535D01*
X150161886Y-82502196D01*
X150161014Y-82541782D01*
X150157385Y-82564382D01*
X150149834Y-82575082D01*
X150137197Y-82578971D01*
X150129269Y-82579882D01*
X150094342Y-82578194D01*
X150070821Y-82561672D01*
X150055393Y-82526100D01*
X150045569Y-82473436D01*
X150029268Y-82395880D01*
X150002838Y-82339201D01*
X149963152Y-82298027D01*
X149932318Y-82278865D01*
X149916395Y-82271149D01*
X149899118Y-82264923D01*
X149877455Y-82259995D01*
X149848375Y-82256172D01*
X149808847Y-82253262D01*
X149755839Y-82251073D01*
X149686319Y-82249414D01*
X149597257Y-82248091D01*
X149485621Y-82246914D01*
X149418375Y-82246302D01*
X149282898Y-82245392D01*
X149172759Y-82245326D01*
X149086143Y-82246152D01*
X149021235Y-82247912D01*
X148976219Y-82250652D01*
X148949280Y-82254417D01*
X148939578Y-82258152D01*
X148936294Y-82264090D01*
X148933397Y-82277144D01*
X148930865Y-82298857D01*
X148928677Y-82330767D01*
X148926808Y-82374417D01*
X148925237Y-82431346D01*
X148923941Y-82503096D01*
X148922898Y-82591208D01*
X148922086Y-82697221D01*
X148921481Y-82822678D01*
X148921062Y-82969118D01*
X148920805Y-83138082D01*
X148920689Y-83331112D01*
X148920690Y-83549748D01*
X148920691Y-83552599D01*
X148920761Y-83768130D01*
X148920887Y-83958181D01*
X148921100Y-84124436D01*
X148921432Y-84268582D01*
X148921917Y-84392303D01*
X148922585Y-84497284D01*
X148923469Y-84585212D01*
X148924602Y-84657771D01*
X148926015Y-84716646D01*
X148927741Y-84763523D01*
X148929811Y-84800088D01*
X148932258Y-84828024D01*
X148935115Y-84849019D01*
X148938412Y-84864756D01*
X148942183Y-84876922D01*
X148946150Y-84886522D01*
X148982544Y-84944488D01*
X149034157Y-84986854D01*
X149105992Y-85017468D01*
X149122881Y-85022423D01*
X149189160Y-85041777D01*
X149233432Y-85057696D01*
X149260258Y-85072412D01*
X149274198Y-85088159D01*
X149278117Y-85098411D01*
X149282475Y-85116849D01*
X149282955Y-85131334D01*
X149276784Y-85142291D01*
X149261194Y-85150143D01*
X149233414Y-85155313D01*
X149190675Y-85158225D01*
X149130207Y-85159302D01*
X149049239Y-85158969D01*
X148945001Y-85157649D01*
X148895453Y-85156929D01*
X148789478Y-85155804D01*
X148685611Y-85155482D01*
X148588979Y-85155921D01*
X148504706Y-85157077D01*
X148437921Y-85158909D01*
X148397451Y-85161064D01*
X148338875Y-85164930D01*
X148287581Y-85166972D01*
X148251836Y-85166911D01*
X148243861Y-85166252D01*
X148222222Y-85158610D01*
X148215670Y-85138542D01*
X148216696Y-85118712D01*
X148218579Y-85101525D01*
X148222858Y-85088026D01*
X148233255Y-85075652D01*
X148253496Y-85061839D01*
X148287304Y-85044024D01*
X148338405Y-85019643D01*
X148406802Y-84987859D01*
X148466422Y-84956227D01*
X148506435Y-84924382D01*
X148529048Y-84895202D01*
X148560446Y-84844706D01*
X148564529Y-83595080D01*
X148565185Y-83356916D01*
X148565506Y-83145105D01*
X148565484Y-82958837D01*
X148565112Y-82797302D01*
X148564384Y-82659690D01*
X148563292Y-82545190D01*
X148561831Y-82452993D01*
X148559993Y-82382288D01*
X148557771Y-82332264D01*
X148555159Y-82302112D01*
X148553596Y-82293851D01*
X148538581Y-82242247D01*
X148080904Y-82246311D01*
X147956784Y-82247489D01*
X147856835Y-82248713D01*
X147778061Y-82250173D01*
X147717468Y-82252058D01*
X147672060Y-82254558D01*
X147638843Y-82257863D01*
X147614821Y-82262162D01*
X147597000Y-82267645D01*
X147582385Y-82274501D01*
X147575694Y-82278297D01*
X147538525Y-82307192D01*
X147505905Y-82349335D01*
X147475468Y-82408820D01*
X147444845Y-82489739D01*
X147433686Y-82523754D01*
X147407659Y-82594581D01*
X147382559Y-82639413D01*
X147357401Y-82659352D01*
X147331197Y-82655503D01*
X147321809Y-82648916D01*
X147310577Y-82633729D01*
X147305671Y-82608118D01*
X147306314Y-82565523D01*
X147308467Y-82535915D01*
X147316582Y-82444704D01*
X147325782Y-82352702D01*
X147335527Y-82264268D01*
X147345281Y-82183759D01*
X147354504Y-82115532D01*
X147362658Y-82063944D01*
X147369205Y-82033355D01*
X147371216Y-82028040D01*
X147374990Y-82024333D01*
X147382972Y-82021051D01*
X147396754Y-82018165D01*
X147417924Y-82015646D01*
X147448074Y-82013464D01*
X147488794Y-82011590D01*
X147541673Y-82009993D01*
X147608303Y-82008646D01*
X147690273Y-82007517D01*
X147789174Y-82006578D01*
X147906596Y-82005798D01*
X148044129Y-82005149D01*
X148203364Y-82004601D01*
X148385890Y-82004124D01*
X148593299Y-82003689D01*
X148691925Y-82003505D01*
X148879132Y-82003158D01*
X149059304Y-82002811D01*
X149230498Y-82002468D01*
X149390771Y-82002134D01*
X149538177Y-82001814D01*
X149670775Y-82001511D01*
X149786619Y-82001231D01*
X149883766Y-82000978D01*
X149960273Y-82000756D01*
X150014195Y-82000570D01*
X150043589Y-82000424D01*
X150047772Y-82000382D01*
X150084847Y-82004287D01*
G37*
G36*
X146051721Y-81927706D02*
G01*
X146081546Y-81954642D01*
X146109253Y-82004409D01*
X146117231Y-82024524D01*
X146125525Y-82045934D01*
X146143229Y-82090712D01*
X146169610Y-82157026D01*
X146203935Y-82243045D01*
X146245470Y-82346936D01*
X146293481Y-82466868D01*
X146347236Y-82601009D01*
X146406000Y-82747525D01*
X146469040Y-82904586D01*
X146535622Y-83070359D01*
X146605013Y-83243013D01*
X146631883Y-83309840D01*
X146702700Y-83486000D01*
X146771372Y-83656935D01*
X146837124Y-83820712D01*
X146899180Y-83975395D01*
X146956767Y-84119049D01*
X147009110Y-84249738D01*
X147055433Y-84365528D01*
X147094961Y-84464485D01*
X147126920Y-84544672D01*
X147150535Y-84604155D01*
X147165031Y-84640999D01*
X147167641Y-84647754D01*
X147213207Y-84754797D01*
X147262052Y-84847777D01*
X147311836Y-84922846D01*
X147360217Y-84976156D01*
X147374515Y-84987628D01*
X147439314Y-85021796D01*
X147528913Y-85048737D01*
X147539480Y-85051075D01*
X147615991Y-85071655D01*
X147665775Y-85094860D01*
X147689163Y-85120899D01*
X147688608Y-85145232D01*
X147683932Y-85152205D01*
X147673849Y-85157422D01*
X147655188Y-85161013D01*
X147624781Y-85163107D01*
X147579457Y-85163833D01*
X147516047Y-85163323D01*
X147431380Y-85161705D01*
X147339157Y-85159526D01*
X147237916Y-85157550D01*
X147138714Y-85156560D01*
X147047011Y-85156542D01*
X146968271Y-85157477D01*
X146907954Y-85159350D01*
X146882959Y-85160911D01*
X146817825Y-85164787D01*
X146752140Y-85166013D01*
X146698745Y-85164387D01*
X146692799Y-85163904D01*
X146649923Y-85158930D01*
X146627587Y-85151672D01*
X146619198Y-85138535D01*
X146618093Y-85123155D01*
X146623020Y-85100445D01*
X146641653Y-85081509D01*
X146679766Y-85060795D01*
X146686007Y-85057887D01*
X146753036Y-85026515D01*
X146799678Y-85003037D01*
X146830462Y-84984521D01*
X146849917Y-84968034D01*
X146862570Y-84950642D01*
X146868128Y-84939925D01*
X146878080Y-84914035D01*
X146880266Y-84887665D01*
X146874468Y-84851498D01*
X146865182Y-84813984D01*
X146853384Y-84775410D01*
X146833529Y-84717597D01*
X146807252Y-84644758D01*
X146776188Y-84561109D01*
X146741971Y-84470862D01*
X146706234Y-84378233D01*
X146670613Y-84287436D01*
X146636740Y-84202684D01*
X146606252Y-84128192D01*
X146580782Y-84068174D01*
X146561964Y-84026845D01*
X146554336Y-84012425D01*
X146541881Y-83992419D01*
X146529481Y-83975808D01*
X146514645Y-83962294D01*
X146494883Y-83951579D01*
X146467704Y-83943366D01*
X146430619Y-83937356D01*
X146381135Y-83933253D01*
X146316764Y-83930758D01*
X146235015Y-83929574D01*
X146133398Y-83929403D01*
X146009421Y-83929947D01*
X145871871Y-83930833D01*
X145731563Y-83931804D01*
X145615852Y-83932772D01*
X145522166Y-83933870D01*
X145447936Y-83935232D01*
X145390593Y-83936992D01*
X145347565Y-83939285D01*
X145316284Y-83942242D01*
X145294180Y-83946000D01*
X145278682Y-83950690D01*
X145267221Y-83956448D01*
X145258044Y-83962795D01*
X145241978Y-83980052D01*
X145220799Y-84012458D01*
X145193454Y-84062021D01*
X145158889Y-84130751D01*
X145116051Y-84220656D01*
X145065951Y-84329225D01*
X145013501Y-84444973D01*
X144971817Y-84539421D01*
X144939859Y-84615736D01*
X144916590Y-84677085D01*
X144900972Y-84726635D01*
X144891968Y-84767553D01*
X144888539Y-84803007D01*
X144889649Y-84836165D01*
X144892431Y-84858790D01*
X144915282Y-84925208D01*
X144959495Y-84979788D01*
X145020578Y-85019037D01*
X145094040Y-85039459D01*
X145127371Y-85041582D01*
X145162141Y-85051467D01*
X145188498Y-85075864D01*
X145202711Y-85107169D01*
X145201050Y-85137776D01*
X145184285Y-85157615D01*
X145159767Y-85163753D01*
X145114345Y-85167259D01*
X145054160Y-85168054D01*
X144985354Y-85166056D01*
X144914068Y-85161187D01*
X144913441Y-85161130D01*
X144859799Y-85158078D01*
X144786634Y-85156416D01*
X144701554Y-85156191D01*
X144612169Y-85157448D01*
X144558976Y-85158957D01*
X144472532Y-85161727D01*
X144409401Y-85163027D01*
X144365760Y-85162630D01*
X144337785Y-85160309D01*
X144321652Y-85155834D01*
X144313536Y-85148979D01*
X144311137Y-85144195D01*
X144309616Y-85110726D01*
X144333307Y-85082037D01*
X144383001Y-85057315D01*
X144401309Y-85051110D01*
X144462351Y-85024366D01*
X144521488Y-84986306D01*
X144535560Y-84974735D01*
X144546527Y-84965122D01*
X144556566Y-84955824D01*
X144566457Y-84945283D01*
X144576981Y-84931940D01*
X144588918Y-84914237D01*
X144603049Y-84890614D01*
X144620155Y-84859512D01*
X144641016Y-84819373D01*
X144666413Y-84768637D01*
X144697126Y-84705747D01*
X144733936Y-84629142D01*
X144777624Y-84537264D01*
X144828970Y-84428554D01*
X144888755Y-84301453D01*
X144957759Y-84154402D01*
X145036764Y-83985843D01*
X145124390Y-83798823D01*
X145168204Y-83705317D01*
X145380775Y-83705317D01*
X145395926Y-83710618D01*
X145434583Y-83715148D01*
X145493096Y-83718909D01*
X145567817Y-83721901D01*
X145655096Y-83724127D01*
X145751285Y-83725585D01*
X145852733Y-83726279D01*
X145955793Y-83726208D01*
X146056815Y-83725373D01*
X146152149Y-83723775D01*
X146238148Y-83721416D01*
X146311161Y-83718296D01*
X146367539Y-83714416D01*
X146403634Y-83709777D01*
X146415727Y-83705051D01*
X146412075Y-83689510D01*
X146399248Y-83651958D01*
X146378484Y-83595477D01*
X146351020Y-83523148D01*
X146318092Y-83438053D01*
X146280938Y-83343273D01*
X146240794Y-83241890D01*
X146198896Y-83136985D01*
X146156483Y-83031638D01*
X146114790Y-82928932D01*
X146075055Y-82831949D01*
X146038513Y-82743768D01*
X146006403Y-82667472D01*
X145979961Y-82606142D01*
X145960424Y-82562860D01*
X145949028Y-82540706D01*
X145947631Y-82538864D01*
X145931494Y-82531380D01*
X145913724Y-82542653D01*
X145892107Y-82575099D01*
X145865735Y-82628297D01*
X145851361Y-82659381D01*
X145827033Y-82711835D01*
X145794263Y-82782399D01*
X145754567Y-82867819D01*
X145709457Y-82964835D01*
X145660448Y-83070190D01*
X145609053Y-83180629D01*
X145600336Y-83199355D01*
X145550650Y-83306932D01*
X145505085Y-83407214D01*
X145464832Y-83497456D01*
X145431084Y-83574911D01*
X145405031Y-83636833D01*
X145387866Y-83680477D01*
X145380779Y-83703095D01*
X145380775Y-83705317D01*
X145168204Y-83705317D01*
X145181063Y-83677873D01*
X145236040Y-83560549D01*
X145287860Y-83449967D01*
X145335064Y-83349240D01*
X145376192Y-83261485D01*
X145409783Y-83189816D01*
X145434379Y-83137348D01*
X145445850Y-83112888D01*
X145465315Y-83071278D01*
X145494284Y-83009203D01*
X145530812Y-82930837D01*
X145572955Y-82840350D01*
X145618771Y-82741915D01*
X145666315Y-82639704D01*
X145683134Y-82603529D01*
X145751516Y-82456620D01*
X145809517Y-82332491D01*
X145858089Y-82229237D01*
X145898186Y-82144950D01*
X145930761Y-82077722D01*
X145956767Y-82025648D01*
X145977157Y-81986819D01*
X145992883Y-81959329D01*
X146004899Y-81941270D01*
X146014158Y-81930735D01*
X146021613Y-81925818D01*
X146021833Y-81925732D01*
X146051721Y-81927706D01*
G37*
G36*
X152225944Y-82007889D02*
G01*
X152256696Y-82031741D01*
X152267007Y-82042568D01*
X152306113Y-82086988D01*
X152359636Y-82147314D01*
X152426242Y-82222068D01*
X152504598Y-82309771D01*
X152593372Y-82408945D01*
X152691229Y-82518109D01*
X152796837Y-82635786D01*
X152908862Y-82760497D01*
X153025972Y-82890763D01*
X153146832Y-83025104D01*
X153270111Y-83162042D01*
X153394474Y-83300099D01*
X153518589Y-83437794D01*
X153641122Y-83573650D01*
X153760741Y-83706188D01*
X153876111Y-83833928D01*
X153985901Y-83955392D01*
X154088775Y-84069101D01*
X154183403Y-84173576D01*
X154268449Y-84267338D01*
X154342582Y-84348909D01*
X154404468Y-84416809D01*
X154452773Y-84469559D01*
X154486165Y-84505682D01*
X154503310Y-84523697D01*
X154505351Y-84525508D01*
X154507803Y-84512349D01*
X154509953Y-84474565D01*
X154511808Y-84414695D01*
X154513372Y-84335278D01*
X154514652Y-84238852D01*
X154515651Y-84127958D01*
X154516377Y-84005133D01*
X154516833Y-83872917D01*
X154517025Y-83733848D01*
X154516960Y-83590466D01*
X154516641Y-83445310D01*
X154516075Y-83300918D01*
X154515267Y-83159830D01*
X154514222Y-83024584D01*
X154512946Y-82897720D01*
X154511443Y-82781776D01*
X154509720Y-82679292D01*
X154507781Y-82592806D01*
X154505632Y-82524857D01*
X154503279Y-82477984D01*
X154500980Y-82455866D01*
X154469101Y-82355096D01*
X154417127Y-82271889D01*
X154344427Y-82205633D01*
X154250369Y-82155717D01*
X154162367Y-82127878D01*
X154090299Y-82106652D01*
X154043659Y-82084005D01*
X154020710Y-82058725D01*
X154019714Y-82029601D01*
X154020017Y-82028618D01*
X154023492Y-82019361D01*
X154029461Y-82012279D01*
X154041172Y-82007126D01*
X154061869Y-82003654D01*
X154094800Y-82001613D01*
X154143211Y-82000757D01*
X154210349Y-82000838D01*
X154299460Y-82001607D01*
X154364711Y-82002295D01*
X154466171Y-82003109D01*
X154566494Y-82003420D01*
X154659928Y-82003247D01*
X154740721Y-82002609D01*
X154803121Y-82001525D01*
X154826567Y-82000784D01*
X154889490Y-81999794D01*
X154936975Y-82002162D01*
X154963941Y-82007570D01*
X154967141Y-82009604D01*
X154976560Y-82035037D01*
X154962318Y-82065076D01*
X154926739Y-82096401D01*
X154892463Y-82116285D01*
X154845476Y-82142752D01*
X154802636Y-82171787D01*
X154784485Y-82186767D01*
X154772352Y-82198117D01*
X154761550Y-82209145D01*
X154752003Y-82221415D01*
X154743633Y-82236487D01*
X154736363Y-82255927D01*
X154730114Y-82281295D01*
X154724811Y-82314155D01*
X154720374Y-82356070D01*
X154716728Y-82408603D01*
X154713795Y-82473316D01*
X154711497Y-82551773D01*
X154709757Y-82645535D01*
X154708497Y-82756166D01*
X154707641Y-82885229D01*
X154707111Y-83034286D01*
X154706828Y-83204901D01*
X154706717Y-83398635D01*
X154706700Y-83617053D01*
X154706703Y-83757824D01*
X154706630Y-83996154D01*
X154706402Y-84208522D01*
X154706006Y-84396130D01*
X154705426Y-84560183D01*
X154704651Y-84701882D01*
X154703665Y-84822432D01*
X154702455Y-84923034D01*
X154701007Y-85004892D01*
X154699308Y-85069210D01*
X154697343Y-85117190D01*
X154695098Y-85150035D01*
X154692560Y-85168949D01*
X154690403Y-85174770D01*
X154671019Y-85187967D01*
X154648698Y-85187058D01*
X154618252Y-85170232D01*
X154574494Y-85135677D01*
X154571734Y-85133342D01*
X154554885Y-85116556D01*
X154521321Y-85080831D01*
X154472312Y-85027587D01*
X154409126Y-84958246D01*
X154333035Y-84874229D01*
X154245306Y-84776957D01*
X154147209Y-84667851D01*
X154040013Y-84548332D01*
X153924988Y-84419822D01*
X153803404Y-84283741D01*
X153676529Y-84141511D01*
X153545633Y-83994552D01*
X153411985Y-83844286D01*
X153276854Y-83692134D01*
X153141511Y-83539517D01*
X153007224Y-83387856D01*
X152875263Y-83238573D01*
X152746897Y-83093087D01*
X152623395Y-82952822D01*
X152581964Y-82905693D01*
X152558022Y-82877717D01*
X152537195Y-82853014D01*
X152519267Y-82833116D01*
X152504023Y-82819554D01*
X152491249Y-82813862D01*
X152480729Y-82817571D01*
X152472248Y-82832212D01*
X152465590Y-82859318D01*
X152460542Y-82900422D01*
X152456886Y-82957054D01*
X152454410Y-83030747D01*
X152452896Y-83123034D01*
X152452130Y-83235445D01*
X152451897Y-83369514D01*
X152451982Y-83526771D01*
X152452170Y-83708750D01*
X152452242Y-83829385D01*
X152452326Y-84020190D01*
X152452488Y-84185742D01*
X152452775Y-84327954D01*
X152453232Y-84448740D01*
X152453904Y-84550011D01*
X152454837Y-84633682D01*
X152456078Y-84701666D01*
X152457671Y-84755875D01*
X152459663Y-84798222D01*
X152462099Y-84830620D01*
X152465025Y-84854983D01*
X152468486Y-84873223D01*
X152472528Y-84887253D01*
X152477197Y-84898987D01*
X152477825Y-84900381D01*
X152511100Y-84953321D01*
X152558865Y-84992775D01*
X152625765Y-85021881D01*
X152678627Y-85036047D01*
X152730959Y-85049142D01*
X152776970Y-85062870D01*
X152805002Y-85073533D01*
X152836065Y-85098530D01*
X152843850Y-85126518D01*
X152830469Y-85150826D01*
X152798033Y-85164782D01*
X152775800Y-85165819D01*
X152751297Y-85165135D01*
X152703306Y-85164325D01*
X152635505Y-85163432D01*
X152551572Y-85162499D01*
X152455185Y-85161568D01*
X152350021Y-85160681D01*
X152295740Y-85160270D01*
X152175711Y-85159346D01*
X152080054Y-85158379D01*
X152005978Y-85157175D01*
X151950690Y-85155542D01*
X151911397Y-85153286D01*
X151885308Y-85150215D01*
X151869629Y-85146134D01*
X151861569Y-85140850D01*
X151858334Y-85134171D01*
X151857614Y-85129946D01*
X151858631Y-85102708D01*
X151872447Y-85080829D01*
X151903275Y-85060709D01*
X151955325Y-85038748D01*
X151971145Y-85032911D01*
X152053211Y-84998084D01*
X152113746Y-84959435D01*
X152158380Y-84912621D01*
X152186060Y-84867087D01*
X152197450Y-84843623D01*
X152207358Y-84819923D01*
X152215887Y-84794012D01*
X152223138Y-84763916D01*
X152229213Y-84727658D01*
X152234214Y-84683263D01*
X152238242Y-84628755D01*
X152241400Y-84562159D01*
X152243789Y-84481500D01*
X152245511Y-84384801D01*
X152246669Y-84270088D01*
X152247363Y-84135385D01*
X152247695Y-83978715D01*
X152247768Y-83798105D01*
X152247726Y-83670687D01*
X152247572Y-83473291D01*
X152247243Y-83300999D01*
X152246630Y-83151748D01*
X152245622Y-83023479D01*
X152244111Y-82914128D01*
X152241986Y-82821634D01*
X152239139Y-82743935D01*
X152235460Y-82678969D01*
X152230840Y-82624676D01*
X152225169Y-82578992D01*
X152218337Y-82539856D01*
X152210235Y-82505207D01*
X152200755Y-82472982D01*
X152189785Y-82441121D01*
X152181222Y-82418088D01*
X152129775Y-82316929D01*
X152059328Y-82235153D01*
X151969813Y-82172705D01*
X151861165Y-82129529D01*
X151830287Y-82121572D01*
X151767713Y-82102137D01*
X151726504Y-82078656D01*
X151708707Y-82052723D01*
X151713169Y-82030503D01*
X151721346Y-82021254D01*
X151735542Y-82014516D01*
X151759841Y-82009816D01*
X151798327Y-82006682D01*
X151855087Y-82004641D01*
X151934203Y-82003220D01*
X151950870Y-82002997D01*
X152027765Y-82001951D01*
X152096610Y-82000924D01*
X152152155Y-82000000D01*
X152189147Y-81999266D01*
X152200660Y-81998934D01*
X152225944Y-82007889D01*
G37*
G36*
X173837583Y-82941225D02*
G01*
X173837583Y-83253802D01*
X173990746Y-83253802D01*
X174143908Y-83253802D01*
X174143908Y-83328820D01*
X174143908Y-83403839D01*
X173903224Y-83403839D01*
X173662540Y-83403839D01*
X173662540Y-83016243D01*
X173662540Y-82628648D01*
X173750061Y-82628648D01*
X173837583Y-82628648D01*
X173837583Y-82941225D01*
G37*
G36*
X171930864Y-82700541D02*
G01*
X171930864Y-82772433D01*
X171783953Y-82772433D01*
X171637041Y-82772433D01*
X171637041Y-82859955D01*
X171637041Y-82947476D01*
X171774575Y-82947476D01*
X171912109Y-82947476D01*
X171912109Y-83019369D01*
X171912109Y-83091262D01*
X171774684Y-83091262D01*
X171637260Y-83091262D01*
X171635588Y-83245987D01*
X171633916Y-83400713D01*
X171547957Y-83402452D01*
X171461998Y-83404191D01*
X171461998Y-83016420D01*
X171461998Y-82628648D01*
X171696431Y-82628648D01*
X171930864Y-82628648D01*
X171930864Y-82700541D01*
G37*
G36*
X172513938Y-83008357D02*
G01*
X172534411Y-83074766D01*
X172553746Y-83137730D01*
X172571631Y-83196219D01*
X172587754Y-83249203D01*
X172601805Y-83295652D01*
X172613471Y-83334534D01*
X172622441Y-83364820D01*
X172628404Y-83385480D01*
X172631048Y-83395482D01*
X172631154Y-83396191D01*
X172628303Y-83399385D01*
X172618862Y-83401498D01*
X172601328Y-83402634D01*
X172574201Y-83402894D01*
X172539208Y-83402443D01*
X172447380Y-83400713D01*
X172418476Y-83303814D01*
X172389573Y-83206915D01*
X172277911Y-83206915D01*
X172166250Y-83206915D01*
X172145329Y-83281934D01*
X172136610Y-83313248D01*
X172128520Y-83342392D01*
X172121984Y-83366026D01*
X172118042Y-83380395D01*
X172111676Y-83403839D01*
X172021270Y-83403839D01*
X171989276Y-83403737D01*
X171962271Y-83403457D01*
X171942452Y-83403037D01*
X171932018Y-83402516D01*
X171930963Y-83402276D01*
X171932760Y-83396189D01*
X171937912Y-83379150D01*
X171946114Y-83352162D01*
X171957058Y-83316230D01*
X171970439Y-83272355D01*
X171985951Y-83221542D01*
X172003288Y-83164793D01*
X172022144Y-83103112D01*
X172033511Y-83065952D01*
X172195376Y-83065952D01*
X172198607Y-83068984D01*
X172207219Y-83070909D01*
X172223061Y-83071974D01*
X172247980Y-83072424D01*
X172277824Y-83072507D01*
X172311941Y-83072389D01*
X172335396Y-83071869D01*
X172350030Y-83070702D01*
X172357685Y-83068641D01*
X172360201Y-83065441D01*
X172359651Y-83061567D01*
X172353478Y-83041101D01*
X172345294Y-83013012D01*
X172335734Y-82979588D01*
X172325436Y-82943115D01*
X172315036Y-82905880D01*
X172305172Y-82870168D01*
X172296478Y-82838266D01*
X172289593Y-82812462D01*
X172285152Y-82795040D01*
X172283938Y-82789625D01*
X172280187Y-82774610D01*
X172276342Y-82766594D01*
X172275509Y-82766182D01*
X172272433Y-82771839D01*
X172267733Y-82786926D01*
X172262248Y-82808612D01*
X172260185Y-82817757D01*
X172253463Y-82846417D01*
X172243712Y-82885036D01*
X172231467Y-82931591D01*
X172217264Y-82984055D01*
X172201638Y-83040406D01*
X172195679Y-83061567D01*
X172195376Y-83065952D01*
X172033511Y-83065952D01*
X172042213Y-83037503D01*
X172048718Y-83016243D01*
X172166374Y-82631774D01*
X172281489Y-82630139D01*
X172396603Y-82628505D01*
X172513938Y-83008357D01*
G37*
G36*
X174615176Y-82630011D02*
G01*
X174640554Y-82630730D01*
X174657382Y-82631870D01*
X174663467Y-82633188D01*
X174666134Y-82639886D01*
X174672071Y-82657304D01*
X174680891Y-82684204D01*
X174692211Y-82719349D01*
X174705645Y-82761501D01*
X174720808Y-82809422D01*
X174737317Y-82861874D01*
X174754785Y-82917621D01*
X174772828Y-82975424D01*
X174791062Y-83034045D01*
X174809102Y-83092248D01*
X174826562Y-83148794D01*
X174843058Y-83202447D01*
X174858205Y-83251967D01*
X174871619Y-83296119D01*
X174882914Y-83333663D01*
X174891707Y-83363363D01*
X174897611Y-83383980D01*
X174900242Y-83394278D01*
X174900344Y-83395065D01*
X174898571Y-83398633D01*
X174892089Y-83401046D01*
X174879156Y-83402444D01*
X174858031Y-83402967D01*
X174826973Y-83402755D01*
X174808516Y-83402443D01*
X174716688Y-83400713D01*
X174687785Y-83303814D01*
X174658881Y-83206915D01*
X174547220Y-83206915D01*
X174435559Y-83206915D01*
X174414637Y-83281934D01*
X174405918Y-83313248D01*
X174397828Y-83342392D01*
X174391293Y-83366026D01*
X174387350Y-83380395D01*
X174380985Y-83403839D01*
X174290578Y-83403839D01*
X174258585Y-83403737D01*
X174231581Y-83403457D01*
X174211764Y-83403037D01*
X174201332Y-83402516D01*
X174200278Y-83402276D01*
X174202075Y-83396188D01*
X174207225Y-83379148D01*
X174215423Y-83352160D01*
X174226362Y-83316225D01*
X174239737Y-83272349D01*
X174255241Y-83221533D01*
X174272569Y-83164782D01*
X174291414Y-83103099D01*
X174302770Y-83065952D01*
X174464710Y-83065952D01*
X174467922Y-83068983D01*
X174476518Y-83070909D01*
X174492343Y-83071973D01*
X174517244Y-83072424D01*
X174547132Y-83072507D01*
X174632371Y-83072507D01*
X174627872Y-83058441D01*
X174622547Y-83040960D01*
X174615018Y-83015137D01*
X174605932Y-82983299D01*
X174595933Y-82947775D01*
X174585667Y-82910893D01*
X174575779Y-82874980D01*
X174566915Y-82842365D01*
X174559721Y-82815376D01*
X174554841Y-82796340D01*
X174553092Y-82788703D01*
X174549359Y-82774041D01*
X174545512Y-82766466D01*
X174544817Y-82766182D01*
X174541727Y-82771836D01*
X174536987Y-82786915D01*
X174531445Y-82808593D01*
X174529352Y-82817757D01*
X174523672Y-82841819D01*
X174515353Y-82874980D01*
X174505168Y-82914312D01*
X174493888Y-82956884D01*
X174482288Y-82999767D01*
X174471140Y-83040034D01*
X174465032Y-83061567D01*
X174464710Y-83065952D01*
X174302770Y-83065952D01*
X174311472Y-83037487D01*
X174317968Y-83016243D01*
X174435554Y-82631774D01*
X174547146Y-82630062D01*
X174583342Y-82629770D01*
X174615176Y-82630011D01*
G37*
G36*
X173013559Y-82624759D02*
G01*
X173013710Y-82624769D01*
X173061692Y-82628848D01*
X173100604Y-82634675D01*
X173133837Y-82643000D01*
X173164785Y-82654576D01*
X173180004Y-82661594D01*
X173220231Y-82687038D01*
X173250879Y-82718526D01*
X173271916Y-82754380D01*
X173283311Y-82792922D01*
X173285034Y-82832476D01*
X173277053Y-82871363D01*
X173259338Y-82907905D01*
X173231857Y-82940425D01*
X173194579Y-82967244D01*
X173185749Y-82971873D01*
X173160237Y-82984495D01*
X173190817Y-82997604D01*
X173234603Y-83022406D01*
X173269339Y-83055091D01*
X173291710Y-83089769D01*
X173301228Y-83111340D01*
X173306610Y-83130920D01*
X173308937Y-83153786D01*
X173309328Y-83175789D01*
X173308645Y-83203718D01*
X173305772Y-83224734D01*
X173299469Y-83244392D01*
X173288882Y-83267464D01*
X173266860Y-83304255D01*
X173239875Y-83333068D01*
X173204909Y-83356782D01*
X173184046Y-83367365D01*
X173154319Y-83379893D01*
X173123878Y-83389521D01*
X173090412Y-83396628D01*
X173051606Y-83401591D01*
X173005150Y-83404788D01*
X172948730Y-83406599D01*
X172943613Y-83406697D01*
X172904946Y-83407247D01*
X172868905Y-83407464D01*
X172838037Y-83407353D01*
X172814888Y-83406924D01*
X172802953Y-83406291D01*
X172780584Y-83403675D01*
X172759410Y-83400678D01*
X172757630Y-83400389D01*
X172737312Y-83397021D01*
X172737312Y-83280191D01*
X172912355Y-83280191D01*
X172979559Y-83277628D01*
X173013014Y-83275836D01*
X173037263Y-83273057D01*
X173055595Y-83268712D01*
X173071302Y-83262221D01*
X173073578Y-83261056D01*
X173100165Y-83241048D01*
X173118413Y-83214761D01*
X173127858Y-83184835D01*
X173128035Y-83153910D01*
X173118477Y-83124627D01*
X173101564Y-83102236D01*
X173079158Y-83085087D01*
X173052026Y-83073095D01*
X173017686Y-83065469D01*
X172973656Y-83061418D01*
X172973308Y-83061401D01*
X172912355Y-83058332D01*
X172912355Y-83169262D01*
X172912355Y-83280191D01*
X172737312Y-83280191D01*
X172737312Y-83169262D01*
X172737312Y-83019755D01*
X172737342Y-82940783D01*
X172737349Y-82936427D01*
X172912355Y-82936427D01*
X172973308Y-82933767D01*
X173007316Y-82931482D01*
X173032224Y-82927678D01*
X173051401Y-82921732D01*
X173059874Y-82917771D01*
X173086674Y-82898075D01*
X173103617Y-82873544D01*
X173110661Y-82846477D01*
X173107763Y-82819175D01*
X173094882Y-82793939D01*
X173071975Y-82773069D01*
X173062630Y-82767745D01*
X173046754Y-82760834D01*
X173030103Y-82756577D01*
X173008991Y-82754390D01*
X172979730Y-82753691D01*
X172973546Y-82753679D01*
X172912355Y-82753679D01*
X172912355Y-82845053D01*
X172912355Y-82936427D01*
X172737349Y-82936427D01*
X172737447Y-82873409D01*
X172737548Y-82845053D01*
X172737649Y-82816731D01*
X172737970Y-82769843D01*
X172738433Y-82731842D01*
X172739059Y-82701823D01*
X172739872Y-82678883D01*
X172740893Y-82662117D01*
X172742145Y-82650622D01*
X172743650Y-82643492D01*
X172745430Y-82639825D01*
X172746697Y-82638887D01*
X172759302Y-82636231D01*
X172781937Y-82633541D01*
X172812130Y-82630948D01*
X172847408Y-82628584D01*
X172885300Y-82626578D01*
X172923333Y-82625062D01*
X172959036Y-82624167D01*
X172989935Y-82624022D01*
X173013559Y-82624759D01*
G37*
G36*
X175319463Y-82627528D02*
G01*
X175368908Y-82634009D01*
X175376792Y-82635551D01*
X175424003Y-82649895D01*
X175466909Y-82671662D01*
X175503284Y-82699281D01*
X175530904Y-82731182D01*
X175542824Y-82752806D01*
X175550529Y-82781204D01*
X175553079Y-82815312D01*
X175550607Y-82850007D01*
X175543248Y-82880167D01*
X175539237Y-82889298D01*
X175518230Y-82920412D01*
X175490754Y-82948014D01*
X175460939Y-82968085D01*
X175455827Y-82970506D01*
X175440964Y-82977933D01*
X175432483Y-82983856D01*
X175431725Y-82985199D01*
X175437103Y-82989335D01*
X175450560Y-82994787D01*
X175456339Y-82996632D01*
X175489165Y-83011938D01*
X175520673Y-83036401D01*
X175547319Y-83066876D01*
X175560811Y-83089343D01*
X175570423Y-83111062D01*
X175575864Y-83130621D01*
X175578227Y-83153321D01*
X175578636Y-83175789D01*
X175577954Y-83203718D01*
X175575080Y-83224734D01*
X175568777Y-83244392D01*
X175558190Y-83267464D01*
X175536168Y-83304255D01*
X175509184Y-83333068D01*
X175474217Y-83356782D01*
X175453354Y-83367365D01*
X175423627Y-83379893D01*
X175393187Y-83389521D01*
X175359720Y-83396628D01*
X175320915Y-83401591D01*
X175274458Y-83404788D01*
X175218039Y-83406599D01*
X175212921Y-83406697D01*
X175174255Y-83407247D01*
X175138214Y-83407464D01*
X175107345Y-83407353D01*
X175084196Y-83406924D01*
X175072262Y-83406291D01*
X175049893Y-83403675D01*
X175028719Y-83400678D01*
X175026938Y-83400389D01*
X175006621Y-83397021D01*
X175006621Y-83280191D01*
X175181664Y-83280191D01*
X175248868Y-83277628D01*
X175282322Y-83275836D01*
X175306571Y-83273057D01*
X175324903Y-83268712D01*
X175340610Y-83262221D01*
X175342886Y-83261056D01*
X175369473Y-83241048D01*
X175387722Y-83214761D01*
X175397167Y-83184835D01*
X175397343Y-83153910D01*
X175387785Y-83124627D01*
X175370872Y-83102236D01*
X175348680Y-83085342D01*
X175321511Y-83073440D01*
X175286953Y-83065763D01*
X175242784Y-83061554D01*
X175181664Y-83058186D01*
X175181664Y-83169188D01*
X175181664Y-83280191D01*
X175006621Y-83280191D01*
X175006621Y-83169188D01*
X175006621Y-83019755D01*
X175006650Y-82940783D01*
X175006657Y-82936427D01*
X175181664Y-82936427D01*
X175242616Y-82933767D01*
X175276625Y-82931482D01*
X175301533Y-82927678D01*
X175320709Y-82921732D01*
X175329183Y-82917771D01*
X175355982Y-82898075D01*
X175372925Y-82873544D01*
X175379969Y-82846477D01*
X175377072Y-82819175D01*
X175364190Y-82793939D01*
X175341283Y-82773069D01*
X175331939Y-82767745D01*
X175316062Y-82760834D01*
X175299412Y-82756577D01*
X175278300Y-82754390D01*
X175249039Y-82753691D01*
X175242854Y-82753679D01*
X175181664Y-82753679D01*
X175181664Y-82845053D01*
X175181664Y-82936427D01*
X175006657Y-82936427D01*
X175006755Y-82873409D01*
X175006856Y-82845053D01*
X175006957Y-82816731D01*
X175007278Y-82769843D01*
X175007741Y-82731842D01*
X175008368Y-82701823D01*
X175009180Y-82678883D01*
X175010202Y-82662117D01*
X175011454Y-82650622D01*
X175012959Y-82643492D01*
X175014739Y-82639825D01*
X175016005Y-82638887D01*
X175025237Y-82637211D01*
X175044567Y-82634943D01*
X175071617Y-82632321D01*
X175104011Y-82629584D01*
X175123844Y-82628072D01*
X175194659Y-82624493D01*
X175260623Y-82624334D01*
X175319463Y-82627528D01*
G37*
G36*
X171391632Y-78849763D02*
G01*
X171406721Y-78858945D01*
X171428872Y-78872957D01*
X171456420Y-78890743D01*
X171487696Y-78911247D01*
X171491366Y-78913671D01*
X171593006Y-78980875D01*
X171593361Y-80040511D01*
X171593717Y-81100147D01*
X171885758Y-81266488D01*
X172177799Y-81432829D01*
X172179444Y-81221177D01*
X172181089Y-81009524D01*
X172151752Y-80973566D01*
X172095390Y-80896953D01*
X172043152Y-80811172D01*
X171996498Y-80719273D01*
X171956886Y-80624304D01*
X171925774Y-80529313D01*
X171911240Y-80471033D01*
X171903846Y-80427352D01*
X171898478Y-80375972D01*
X171895240Y-80320546D01*
X171894240Y-80264727D01*
X171895582Y-80212166D01*
X171899371Y-80166516D01*
X171901941Y-80148977D01*
X171920845Y-80070555D01*
X171948776Y-79998828D01*
X171985112Y-79934538D01*
X172029232Y-79878422D01*
X172080511Y-79831221D01*
X172138329Y-79793673D01*
X172202061Y-79766519D01*
X172230938Y-79758269D01*
X172263577Y-79752990D01*
X172304382Y-79750472D01*
X172349347Y-79750610D01*
X172394467Y-79753301D01*
X172435737Y-79758441D01*
X172463483Y-79764298D01*
X172555370Y-79795169D01*
X172643380Y-79837308D01*
X172727959Y-79890991D01*
X172809552Y-79956492D01*
X172871816Y-80016386D01*
X172951659Y-80107206D01*
X173021561Y-80203899D01*
X173081086Y-80305535D01*
X173129800Y-80411189D01*
X173167268Y-80519931D01*
X173193056Y-80630833D01*
X173205696Y-80728912D01*
X173208061Y-80824570D01*
X173199510Y-80915594D01*
X173180152Y-81001333D01*
X173150095Y-81081136D01*
X173145846Y-81090134D01*
X173131000Y-81119137D01*
X173116420Y-81142786D01*
X173099283Y-81164946D01*
X173076767Y-81189483D01*
X173063364Y-81203095D01*
X173026601Y-81237534D01*
X172993839Y-81262868D01*
X172967079Y-81278748D01*
X172924905Y-81300196D01*
X172925036Y-81587767D01*
X172925167Y-81875338D01*
X173171948Y-82018499D01*
X173418730Y-82161661D01*
X173418730Y-82285753D01*
X173418730Y-82409844D01*
X173370280Y-82409013D01*
X173339023Y-82407860D01*
X173302979Y-82405621D01*
X173269763Y-82402771D01*
X173268693Y-82402661D01*
X173092199Y-82378321D01*
X172920626Y-82342487D01*
X172753955Y-82295152D01*
X172592168Y-82236308D01*
X172435246Y-82165947D01*
X172283171Y-82084063D01*
X172135925Y-81990647D01*
X171993489Y-81885692D01*
X171980876Y-81875657D01*
X171943193Y-81844059D01*
X171899847Y-81805343D01*
X171853116Y-81761738D01*
X171805274Y-81715471D01*
X171758596Y-81668772D01*
X171715358Y-81623868D01*
X171677836Y-81582987D01*
X171654981Y-81556509D01*
X171545672Y-81415869D01*
X171448042Y-81270786D01*
X171362052Y-81121167D01*
X171287659Y-80966922D01*
X171224823Y-80807960D01*
X171173503Y-80644189D01*
X171133657Y-80475518D01*
X171111898Y-80349962D01*
X171099049Y-80241756D01*
X171091051Y-80126322D01*
X171087966Y-80007772D01*
X171089855Y-79890219D01*
X171096780Y-79777777D01*
X171102510Y-79721683D01*
X171124199Y-79578702D01*
X171155427Y-79433161D01*
X171195226Y-79288684D01*
X171242624Y-79148894D01*
X171282433Y-79049642D01*
X171294696Y-79022101D01*
X171309100Y-78991229D01*
X171324638Y-78959013D01*
X171340307Y-78927438D01*
X171355099Y-78898491D01*
X171368011Y-78874158D01*
X171378036Y-78856425D01*
X171384169Y-78847278D01*
X171385275Y-78846467D01*
X171391632Y-78849763D01*
G37*
G36*
X175622775Y-78864561D02*
G01*
X175633121Y-78880153D01*
X175646800Y-78904483D01*
X175663073Y-78936151D01*
X175681199Y-78973757D01*
X175700438Y-79015899D01*
X175705678Y-79027762D01*
X175770566Y-79190921D01*
X175823245Y-79356493D01*
X175863682Y-79524091D01*
X175891844Y-79693326D01*
X175907699Y-79863811D01*
X175911214Y-80035156D01*
X175902357Y-80206975D01*
X175881095Y-80378879D01*
X175847394Y-80550480D01*
X175837348Y-80591993D01*
X175789984Y-80755367D01*
X175731077Y-80914812D01*
X175661087Y-81069614D01*
X175580476Y-81219062D01*
X175489702Y-81362440D01*
X175389229Y-81499037D01*
X175279515Y-81628139D01*
X175161022Y-81749033D01*
X175034210Y-81861005D01*
X174999526Y-81888890D01*
X174862662Y-81989161D01*
X174719280Y-82079626D01*
X174570281Y-82159940D01*
X174416568Y-82229757D01*
X174259043Y-82288731D01*
X174098609Y-82336517D01*
X173936167Y-82372769D01*
X173772619Y-82397140D01*
X173645849Y-82407629D01*
X173568767Y-82411750D01*
X173568767Y-82289527D01*
X173568767Y-82167304D01*
X173967302Y-81934569D01*
X174035776Y-81894587D01*
X174113326Y-81849313D01*
X174198229Y-81799754D01*
X174288759Y-81746917D01*
X174383192Y-81691806D01*
X174479804Y-81635430D01*
X174576870Y-81578793D01*
X174672665Y-81522904D01*
X174765466Y-81468766D01*
X174853547Y-81417388D01*
X174885292Y-81398873D01*
X175404746Y-81095912D01*
X175408845Y-80941741D01*
X175410094Y-80888169D01*
X175411105Y-80831324D01*
X175411882Y-80772519D01*
X175412428Y-80713068D01*
X175412745Y-80654284D01*
X175412838Y-80597479D01*
X175412709Y-80543967D01*
X175412361Y-80495062D01*
X175411799Y-80452076D01*
X175411024Y-80416323D01*
X175410040Y-80389116D01*
X175408850Y-80371768D01*
X175407458Y-80365592D01*
X175407440Y-80365591D01*
X175400823Y-80368604D01*
X175384784Y-80377129D01*
X175360707Y-80390392D01*
X175329979Y-80407619D01*
X175293987Y-80428039D01*
X175254116Y-80450876D01*
X175240691Y-80458611D01*
X175079473Y-80551631D01*
X175040710Y-80660223D01*
X175022553Y-80710534D01*
X175007364Y-80751109D01*
X174994208Y-80784091D01*
X174982148Y-80811622D01*
X174970251Y-80835845D01*
X174957581Y-80858901D01*
X174944282Y-80881182D01*
X174886578Y-80966173D01*
X174822360Y-81044378D01*
X174752684Y-81115002D01*
X174678611Y-81177251D01*
X174601199Y-81230330D01*
X174521505Y-81273445D01*
X174440590Y-81305801D01*
X174359511Y-81326605D01*
X174348129Y-81328563D01*
X174289548Y-81333975D01*
X174227900Y-81332563D01*
X174168059Y-81324673D01*
X174119826Y-81312335D01*
X174054589Y-81284547D01*
X173997167Y-81247094D01*
X173947521Y-81199930D01*
X173905614Y-81143008D01*
X173871409Y-81076281D01*
X173844869Y-80999702D01*
X173834086Y-80955981D01*
X173828385Y-80919358D01*
X173824723Y-80873892D01*
X173823104Y-80823076D01*
X173823533Y-80770403D01*
X173826016Y-80719365D01*
X173830555Y-80673457D01*
X173833662Y-80653162D01*
X173859244Y-80539857D01*
X173895022Y-80428930D01*
X173940224Y-80321784D01*
X173994080Y-80219820D01*
X174055817Y-80124440D01*
X174124664Y-80037044D01*
X174199849Y-79959035D01*
X174231132Y-79931109D01*
X174309352Y-79870326D01*
X174388319Y-79820638D01*
X174467492Y-79782192D01*
X174546328Y-79755132D01*
X174624286Y-79739603D01*
X174700824Y-79735752D01*
X174775399Y-79743722D01*
X174847471Y-79763661D01*
X174850840Y-79764915D01*
X174875782Y-79777239D01*
X174905918Y-79796805D01*
X174938083Y-79821555D01*
X174938361Y-79821786D01*
X174961221Y-79840408D01*
X174981762Y-79856473D01*
X174997365Y-79867967D01*
X175004261Y-79872384D01*
X175009377Y-79873724D01*
X175016960Y-79872941D01*
X175028231Y-79869495D01*
X175044416Y-79862843D01*
X175066735Y-79852446D01*
X175096412Y-79837762D01*
X175134670Y-79818249D01*
X175182430Y-79793523D01*
X175225739Y-79770991D01*
X175266848Y-79749572D01*
X175304049Y-79730159D01*
X175335632Y-79713646D01*
X175359889Y-79700924D01*
X175375112Y-79692886D01*
X175376973Y-79691892D01*
X175406617Y-79675990D01*
X175408231Y-79323040D01*
X175409845Y-78970089D01*
X175509869Y-78914667D01*
X175542098Y-78896994D01*
X175570744Y-78881635D01*
X175593949Y-78869557D01*
X175609859Y-78861728D01*
X175616504Y-78859107D01*
X175622775Y-78864561D01*
G37*
G36*
X173579549Y-77594419D02*
G01*
X173650175Y-77596644D01*
X173715390Y-77600734D01*
X173778708Y-77606975D01*
X173843642Y-77615655D01*
X173913704Y-77627059D01*
X173918853Y-77627960D01*
X174084990Y-77663447D01*
X174248037Y-77710792D01*
X174407295Y-77769583D01*
X174562067Y-77839406D01*
X174711658Y-77919848D01*
X174855368Y-78010496D01*
X174992503Y-78110936D01*
X175122363Y-78220757D01*
X175244253Y-78339544D01*
X175357474Y-78466884D01*
X175379053Y-78493387D01*
X175401942Y-78522674D01*
X175426337Y-78555189D01*
X175451196Y-78589399D01*
X175475474Y-78623768D01*
X175498130Y-78656763D01*
X175518118Y-78686849D01*
X175534396Y-78712491D01*
X175545921Y-78732157D01*
X175551648Y-78744311D01*
X175551816Y-78747415D01*
X175545144Y-78751656D01*
X175529333Y-78760849D01*
X175506218Y-78773954D01*
X175477633Y-78789928D01*
X175448418Y-78806079D01*
X175412732Y-78825560D01*
X175386191Y-78839549D01*
X175367086Y-78848753D01*
X175353706Y-78853881D01*
X175344338Y-78855640D01*
X175337272Y-78854738D01*
X175333923Y-78853445D01*
X175327144Y-78849862D01*
X175312645Y-78841754D01*
X175290171Y-78828973D01*
X175259465Y-78811369D01*
X175220272Y-78788797D01*
X175172337Y-78761107D01*
X175115405Y-78728151D01*
X175049219Y-78689782D01*
X174973524Y-78645852D01*
X174888065Y-78596213D01*
X174792587Y-78540717D01*
X174686833Y-78479217D01*
X174570548Y-78411563D01*
X174565887Y-78408851D01*
X174542391Y-78395183D01*
X174509480Y-78376044D01*
X174468549Y-78352246D01*
X174420994Y-78324600D01*
X174368211Y-78293917D01*
X174311595Y-78261009D01*
X174252541Y-78226686D01*
X174192445Y-78191760D01*
X174165789Y-78176269D01*
X174101853Y-78139114D01*
X174035251Y-78100410D01*
X173967868Y-78061251D01*
X173901586Y-78022732D01*
X173838288Y-77985948D01*
X173779858Y-77951992D01*
X173728178Y-77921959D01*
X173685133Y-77896943D01*
X173679339Y-77893576D01*
X173499215Y-77788898D01*
X173282366Y-77912515D01*
X173230092Y-77942295D01*
X173177140Y-77972424D01*
X173125441Y-78001806D01*
X173076924Y-78029347D01*
X173033521Y-78053949D01*
X172997162Y-78074517D01*
X172970320Y-78089651D01*
X172939422Y-78107187D01*
X172912695Y-78122673D01*
X172891897Y-78135064D01*
X172878784Y-78143316D01*
X172874993Y-78146295D01*
X172879941Y-78150543D01*
X172893686Y-78160238D01*
X172914441Y-78174171D01*
X172940419Y-78191134D01*
X172957688Y-78202211D01*
X172991006Y-78223449D01*
X173025132Y-78245204D01*
X173056629Y-78265284D01*
X173082057Y-78281499D01*
X173088022Y-78285302D01*
X173135532Y-78315603D01*
X173209927Y-78302926D01*
X173274169Y-78292683D01*
X173330505Y-78285412D01*
X173383075Y-78280735D01*
X173436018Y-78278269D01*
X173485614Y-78277629D01*
X173593377Y-78281971D01*
X173696124Y-78294892D01*
X173793163Y-78316041D01*
X173883804Y-78345066D01*
X173967352Y-78381617D01*
X174043118Y-78425343D01*
X174110408Y-78475893D01*
X174168531Y-78532916D01*
X174216796Y-78596062D01*
X174254509Y-78664979D01*
X174255986Y-78668298D01*
X174275632Y-78724589D01*
X174288214Y-78786197D01*
X174293331Y-78849179D01*
X174290583Y-78909590D01*
X174284206Y-78946397D01*
X174262552Y-79011724D01*
X174229308Y-79075005D01*
X174185327Y-79135445D01*
X174131457Y-79192248D01*
X174068551Y-79244620D01*
X173997458Y-79291766D01*
X173919031Y-79332891D01*
X173834119Y-79367199D01*
X173833664Y-79367358D01*
X173745248Y-79393118D01*
X173649197Y-79411804D01*
X173565641Y-79421516D01*
X173532762Y-79424123D01*
X173506927Y-79425787D01*
X173484627Y-79426502D01*
X173462349Y-79426265D01*
X173436585Y-79425071D01*
X173403822Y-79422915D01*
X173381221Y-79421295D01*
X173280263Y-79410044D01*
X173182858Y-79391468D01*
X173089874Y-79366072D01*
X173002182Y-79334357D01*
X172920651Y-79296828D01*
X172846153Y-79253987D01*
X172779557Y-79206337D01*
X172721734Y-79154382D01*
X172673553Y-79098623D01*
X172635885Y-79039566D01*
X172609599Y-78977711D01*
X172608620Y-78974622D01*
X172602555Y-78954260D01*
X172598319Y-78936601D01*
X172595650Y-78918781D01*
X172594282Y-78897932D01*
X172593953Y-78871188D01*
X172594399Y-78835681D01*
X172594647Y-78822788D01*
X172596653Y-78722207D01*
X172549766Y-78694677D01*
X172530847Y-78683530D01*
X172503383Y-78667299D01*
X172469579Y-78647288D01*
X172431638Y-78624801D01*
X172391762Y-78601144D01*
X172369392Y-78587862D01*
X172235904Y-78508577D01*
X171978670Y-78666168D01*
X171926171Y-78698330D01*
X171876025Y-78729049D01*
X171829424Y-78757594D01*
X171787561Y-78783235D01*
X171751629Y-78805241D01*
X171722820Y-78822881D01*
X171702327Y-78835427D01*
X171691545Y-78842022D01*
X171661653Y-78860286D01*
X171558700Y-78795766D01*
X171526904Y-78775579D01*
X171499096Y-78757422D01*
X171476897Y-78742398D01*
X171461928Y-78731604D01*
X171455810Y-78726143D01*
X171455747Y-78725916D01*
X171459287Y-78718112D01*
X171469137Y-78701939D01*
X171484141Y-78679058D01*
X171503144Y-78651128D01*
X171524989Y-78619811D01*
X171548522Y-78586766D01*
X171572587Y-78553655D01*
X171596029Y-78522138D01*
X171613309Y-78499507D01*
X171638598Y-78468621D01*
X171671319Y-78431323D01*
X171709592Y-78389542D01*
X171751536Y-78345207D01*
X171795270Y-78300247D01*
X171838911Y-78256590D01*
X171880580Y-78216166D01*
X171918394Y-78180904D01*
X171950473Y-78152732D01*
X171955870Y-78148254D01*
X172095469Y-78041589D01*
X172240807Y-77945720D01*
X172391399Y-77860895D01*
X172546756Y-77787356D01*
X172706395Y-77725351D01*
X172869827Y-77675125D01*
X172918929Y-77662536D01*
X173023650Y-77638821D01*
X173122949Y-77620612D01*
X173220571Y-77607463D01*
X173320263Y-77598932D01*
X173425769Y-77594575D01*
X173500000Y-77593771D01*
X173579549Y-77594419D01*
G37*
G04 #@! TO.C,C2*
D13*
X162090000Y-74648752D02*
X162090000Y-73226248D01*
X163910000Y-74648752D02*
X163910000Y-73226248D01*
G04 #@! TO.C,R2*
X162090000Y-80227064D02*
X162090000Y-78772936D01*
X163910000Y-80227064D02*
X163910000Y-78772936D01*
G04 #@! TO.C,R1*
X157772936Y-80090000D02*
X159227064Y-80090000D01*
X157772936Y-81910000D02*
X159227064Y-81910000D01*
G04 #@! TO.C,J2*
X167620000Y-71850000D02*
X167620000Y-72420000D01*
X167620000Y-71850000D02*
X170380000Y-71850000D01*
X167620000Y-72420000D02*
X166150000Y-72420000D01*
X167620000Y-74040000D02*
X167620000Y-77150000D01*
X167620000Y-77150000D02*
X170380000Y-77150000D01*
X170380000Y-72420000D02*
X170380000Y-74960000D01*
X170380000Y-76580000D02*
X170380000Y-77150000D01*
G04 #@! TO.C,J1*
X145620000Y-74350000D02*
X145620000Y-74920000D01*
X145620000Y-74350000D02*
X148380000Y-74350000D01*
X145620000Y-74920000D02*
X144150000Y-74920000D01*
X145620000Y-76540000D02*
X145620000Y-79650000D01*
X145620000Y-79650000D02*
X148380000Y-79650000D01*
X148380000Y-74920000D02*
X148380000Y-77460000D01*
X148380000Y-79080000D02*
X148380000Y-79650000D01*
G04 #@! TO.C,D1*
X163960000Y-85135000D02*
X163960000Y-82865000D01*
X163960000Y-82865000D02*
X159900000Y-82865000D01*
X159900000Y-85135000D02*
X163960000Y-85135000D01*
G04 #@! TO.C,C1*
X154910000Y-75788748D02*
X154910000Y-77211252D01*
X153090000Y-75788748D02*
X153090000Y-77211252D01*
G04 #@! TO.C,U1*
D14*
X159528700Y-74823600D02*
X157471300Y-74823600D01*
X157471300Y-76136739D02*
X157471300Y-76863261D01*
X157471300Y-78176400D02*
X159528700Y-78176400D01*
G04 #@! TD*
M02*
