G04 #@! TF.GenerationSoftware,KiCad,Pcbnew,10.0.3*
G04 #@! TF.CreationDate,2026-07-16T11:26:42-04:00*
G04 #@! TF.ProjectId,ShiftRegisterBoard,53686966-7452-4656-9769-73746572426f,rev?*
G04 #@! TF.SameCoordinates,Original*
G04 #@! TF.FileFunction,Copper,L1,Top*
G04 #@! TF.FilePolarity,Positive*
%FSLAX46Y46*%
G04 Gerber Fmt 4.6, Leading zero omitted, Abs format (unit mm)*
G04 Created by KiCad (PCBNEW 10.0.3) date 2026-07-16 11:26:42*
%MOMM*%
%LPD*%
G01*
G04 APERTURE LIST*
G04 Aperture macros list*
%AMRoundRect*
0 Rectangle with rounded corners*
0 $1 Rounding radius*
0 $2 $3 $4 $5 $6 $7 $8 $9 X,Y pos of 4 corners*
0 Add a 4 corners polygon primitive as box body*
4,1,4,$2,$3,$4,$5,$6,$7,$8,$9,$2,$3,0*
0 Add four circle primitives for the rounded corners*
1,1,$1+$1,$2,$3*
1,1,$1+$1,$4,$5*
1,1,$1+$1,$6,$7*
1,1,$1+$1,$8,$9*
0 Add four rect primitives between the rounded corners*
20,1,$1+$1,$2,$3,$4,$5,0*
20,1,$1+$1,$4,$5,$6,$7,0*
20,1,$1+$1,$6,$7,$8,$9,0*
20,1,$1+$1,$8,$9,$2,$3,0*%
G04 Aperture macros list end*
G04 #@! TA.AperFunction,SMDPad,CuDef*
%ADD10R,2.510000X1.000000*%
G04 #@! TD*
G04 #@! TA.AperFunction,SMDPad,CuDef*
%ADD11RoundRect,0.250000X0.400000X0.625000X-0.400000X0.625000X-0.400000X-0.625000X0.400000X-0.625000X0*%
G04 #@! TD*
G04 #@! TA.AperFunction,SMDPad,CuDef*
%ADD12R,1.473200X0.355600*%
G04 #@! TD*
G04 #@! TA.AperFunction,SMDPad,CuDef*
%ADD13RoundRect,0.250000X-0.400000X-0.625000X0.400000X-0.625000X0.400000X0.625000X-0.400000X0.625000X0*%
G04 #@! TD*
G04 #@! TA.AperFunction,Conductor*
%ADD14C,0.200000*%
G04 #@! TD*
G04 APERTURE END LIST*
D10*
G04 #@! TO.P,J2,1,Pin_1_1*
G04 #@! TO.N,GND*
X158250000Y-108740000D03*
G04 #@! TO.P,J2,2,Pin_2_2*
G04 #@! TO.N,/DATAIN*
X154940000Y-106200000D03*
G04 #@! TO.P,J2,3,Pin_3_3*
G04 #@! TO.N,/OUTPUTENABLE*
X158250000Y-103660000D03*
G04 #@! TO.P,J2,4,Pin_4_4*
G04 #@! TO.N,/LATCHCLK*
X154940000Y-101120000D03*
G04 #@! TO.P,J2,5,Pin_5_5*
G04 #@! TO.N,/SHIFTREGISTERCLK*
X158250000Y-98580000D03*
G04 #@! TO.P,J2,6,Pin_6_6*
G04 #@! TO.N,/SHIFTREGISTERCLEAR*
X154940000Y-96040000D03*
G04 #@! TO.P,J2,7,Pin_7_7*
G04 #@! TO.N,5V0*
X158250000Y-93500000D03*
G04 #@! TD*
D11*
G04 #@! TO.P,R2,1*
G04 #@! TO.N,5V0*
X177550000Y-96000000D03*
G04 #@! TO.P,R2,2*
G04 #@! TO.N,/SHIFTREGISTERCLEAR*
X174450000Y-96000000D03*
G04 #@! TD*
D12*
G04 #@! TO.P,U2,16,VCC_16*
G04 #@! TO.N,5V0*
X172579000Y-102536000D03*
G04 #@! TO.P,U2,15,Q0_15*
G04 #@! TO.N,/QA*
X172579000Y-101875600D03*
G04 #@! TO.P,U2,14,DS_14*
G04 #@! TO.N,/DATAIN*
X172579000Y-101215200D03*
G04 #@! TO.P,U2,13,~OE_13*
G04 #@! TO.N,/OUTPUTENABLE*
X172579000Y-100580200D03*
G04 #@! TO.P,U2,12,ST_CP_12*
G04 #@! TO.N,/LATCHCLK*
X172579000Y-99919800D03*
G04 #@! TO.P,U2,11,SH_CP_11*
G04 #@! TO.N,/SHIFTREGISTERCLK*
X172579000Y-99284800D03*
G04 #@! TO.P,U2,10,~MR_10*
G04 #@! TO.N,/SHIFTREGISTERCLEAR*
X172579000Y-98624400D03*
G04 #@! TO.P,U2,9,Q7_2_9*
G04 #@! TO.N,unconnected-(U2-Q7_2-Pad9)*
X172579000Y-97964000D03*
G04 #@! TO.P,U2,8,GND_8*
G04 #@! TO.N,GND*
X178421000Y-97964000D03*
G04 #@! TO.P,U2,7,Q7_7*
G04 #@! TO.N,/QH*
X178421000Y-98624400D03*
G04 #@! TO.P,U2,6,Q6_6*
G04 #@! TO.N,/QG*
X178421000Y-99284800D03*
G04 #@! TO.P,U2,5,Q5_5*
G04 #@! TO.N,/QF*
X178421000Y-99919800D03*
G04 #@! TO.P,U2,4,Q4_4*
G04 #@! TO.N,/QE*
X178421000Y-100580200D03*
G04 #@! TO.P,U2,3,Q3_3*
G04 #@! TO.N,/QD*
X178421000Y-101215200D03*
G04 #@! TO.P,U2,2,Q2_2*
G04 #@! TO.N,/QC*
X178421000Y-101875600D03*
G04 #@! TO.P,U2,1,Q1_1*
G04 #@! TO.N,/QB*
X178421000Y-102536000D03*
G04 #@! TD*
D13*
G04 #@! TO.P,R1,2*
G04 #@! TO.N,GND*
X176800000Y-105000000D03*
G04 #@! TO.P,R1,1*
G04 #@! TO.N,/OUTPUTENABLE*
X173700000Y-105000000D03*
G04 #@! TD*
D10*
G04 #@! TO.P,J1,8,Pin_8_8*
G04 #@! TO.N,/QA*
X190310000Y-111280000D03*
G04 #@! TO.P,J1,7,Pin_7_7*
G04 #@! TO.N,/QB*
X187000000Y-108740000D03*
G04 #@! TO.P,J1,6,Pin_6_6*
G04 #@! TO.N,/QC*
X190310000Y-106200000D03*
G04 #@! TO.P,J1,5,Pin_5_5*
G04 #@! TO.N,/QD*
X187000000Y-103660000D03*
G04 #@! TO.P,J1,4,Pin_4_4*
G04 #@! TO.N,/QE*
X190310000Y-101120000D03*
G04 #@! TO.P,J1,3,Pin_3_3*
G04 #@! TO.N,/QF*
X187000000Y-98580000D03*
G04 #@! TO.P,J1,2,Pin_2_2*
G04 #@! TO.N,/QG*
X190310000Y-96040000D03*
G04 #@! TO.P,J1,1,Pin_1_1*
G04 #@! TO.N,/QH*
X187000000Y-93500000D03*
G04 #@! TD*
G04 #@! TO.N,GND*
D14*
X176800000Y-105700000D02*
X176800000Y-104500000D01*
X158250000Y-108740000D02*
X173760000Y-108740000D01*
X173760000Y-108740000D02*
X176800000Y-105700000D01*
G04 #@! TO.N,5V0*
X176250000Y-93500000D02*
X158250000Y-93500000D01*
X177550000Y-94800000D02*
X176250000Y-93500000D01*
X177550000Y-96000000D02*
X177550000Y-94800000D01*
G04 #@! TO.N,/SHIFTREGISTERCLEAR*
X168444400Y-98624400D02*
X172579000Y-98624400D01*
X165860000Y-96040000D02*
X168444400Y-98624400D01*
G04 #@! TO.N,/SHIFTREGISTERCLK*
X158954800Y-99284800D02*
X158250000Y-98580000D01*
X172579000Y-99284800D02*
X158954800Y-99284800D01*
G04 #@! TO.N,/LATCHCLK*
X167580200Y-99919800D02*
X172579000Y-99919800D01*
X166380000Y-101120000D02*
X167580200Y-99919800D01*
X164630000Y-101120000D02*
X166380000Y-101120000D01*
G04 #@! TO.N,/OUTPUTENABLE*
X169169800Y-100580200D02*
X172579000Y-100580200D01*
X166090000Y-103660000D02*
X169169800Y-100580200D01*
X164400000Y-103660000D02*
X166090000Y-103660000D01*
G04 #@! TO.N,/DATAIN*
X170534800Y-101215200D02*
X172579000Y-101215200D01*
X165550000Y-106200000D02*
X170534800Y-101215200D01*
X163860000Y-106200000D02*
X165550000Y-106200000D01*
G04 #@! TO.N,5V0*
X170524000Y-102536000D02*
X165690000Y-107370000D01*
X172579000Y-102536000D02*
X170524000Y-102536000D01*
G04 #@! TO.N,/DATAIN*
X154940000Y-106200000D02*
X163860000Y-106200000D01*
G04 #@! TO.N,/OUTPUTENABLE*
X158250000Y-103660000D02*
X164400000Y-103660000D01*
G04 #@! TO.N,/LATCHCLK*
X154940000Y-101120000D02*
X164690000Y-101120000D01*
G04 #@! TO.N,/SHIFTREGISTERCLEAR*
X154940000Y-96040000D02*
X165860000Y-96040000D01*
G04 #@! TO.N,5V0*
X155940000Y-108120000D02*
X153690000Y-108120000D01*
X153690000Y-108120000D02*
X152790000Y-107220000D01*
X152790000Y-94520000D02*
X153810000Y-93500000D01*
X153810000Y-93500000D02*
X158250000Y-93500000D01*
X156690000Y-107370000D02*
X155940000Y-108120000D01*
X165690000Y-107370000D02*
X156690000Y-107370000D01*
G04 #@! TO.N,GND*
X184750000Y-92250000D02*
X179036000Y-97964000D01*
X189750000Y-92250000D02*
X184750000Y-92250000D01*
X192400000Y-94900000D02*
X189750000Y-92250000D01*
X192400000Y-112491358D02*
X192400000Y-94900000D01*
X191891358Y-113000000D02*
X192400000Y-112491358D01*
X186000000Y-113000000D02*
X191891358Y-113000000D01*
X178000000Y-105000000D02*
X186000000Y-113000000D01*
X176800000Y-105000000D02*
X178000000Y-105000000D01*
X179036000Y-97964000D02*
X178421000Y-97964000D01*
G04 #@! TO.N,/QH*
X185500000Y-93500000D02*
X187000000Y-93500000D01*
X180375600Y-98624400D02*
X185500000Y-93500000D01*
X178421000Y-98624400D02*
X180375600Y-98624400D01*
G04 #@! TO.N,/QG*
X181465200Y-99284800D02*
X178421000Y-99284800D01*
X184710000Y-96040000D02*
X181465200Y-99284800D01*
X190310000Y-96040000D02*
X184710000Y-96040000D01*
G04 #@! TO.N,/QF*
X183330200Y-99919800D02*
X178421000Y-99919800D01*
X187000000Y-98580000D02*
X184670000Y-98580000D01*
X184670000Y-98580000D02*
X183330200Y-99919800D01*
G04 #@! TO.N,/QE*
X184580200Y-100580200D02*
X178421000Y-100580200D01*
X185120000Y-101120000D02*
X184580200Y-100580200D01*
X190310000Y-101120000D02*
X185120000Y-101120000D01*
G04 #@! TO.N,/QD*
X183215200Y-101215200D02*
X178421000Y-101215200D01*
X185660000Y-103660000D02*
X183215200Y-101215200D01*
X187000000Y-103660000D02*
X185660000Y-103660000D01*
G04 #@! TO.N,/QC*
X181875600Y-101875600D02*
X178421000Y-101875600D01*
X190310000Y-106200000D02*
X186200000Y-106200000D01*
X186200000Y-106200000D02*
X181875600Y-101875600D01*
G04 #@! TO.N,/QB*
X180796000Y-102536000D02*
X178421000Y-102536000D01*
X187000000Y-108740000D02*
X180796000Y-102536000D01*
G04 #@! TO.N,5V0*
X152790000Y-107220000D02*
X152790000Y-94520000D01*
G04 #@! TO.N,/SHIFTREGISTERCLEAR*
X173875600Y-98624400D02*
X174450000Y-98050000D01*
X174450000Y-98050000D02*
X174450000Y-96000000D01*
X172579000Y-98624400D02*
X173875600Y-98624400D01*
G04 #@! TO.N,/OUTPUTENABLE*
X174080200Y-100580200D02*
X172579000Y-100580200D01*
X173700000Y-104550000D02*
X175000000Y-103250000D01*
X175000000Y-103250000D02*
X175000000Y-101500000D01*
X173700000Y-105000000D02*
X173700000Y-104550000D01*
X175000000Y-101500000D02*
X174080200Y-100580200D01*
G04 #@! TO.N,/QA*
X186780000Y-111280000D02*
X190310000Y-111280000D01*
X179000000Y-103500000D02*
X186780000Y-111280000D01*
X176000000Y-103500000D02*
X179000000Y-103500000D01*
X174750000Y-106750000D02*
X175250000Y-106250000D01*
X172500000Y-106750000D02*
X174750000Y-106750000D01*
X172000000Y-106250000D02*
X172500000Y-106750000D01*
X172000000Y-104000000D02*
X172000000Y-106250000D01*
X175250000Y-106250000D02*
X175250000Y-104250000D01*
X175250000Y-104250000D02*
X176000000Y-103500000D01*
X172750000Y-103250000D02*
X172000000Y-104000000D01*
X173750000Y-103250000D02*
X172750000Y-103250000D01*
X174000000Y-103000000D02*
X173750000Y-103250000D01*
X174000000Y-102250000D02*
X174000000Y-103000000D01*
X173625600Y-101875600D02*
X174000000Y-102250000D01*
X172579000Y-101875600D02*
X173625600Y-101875600D01*
G04 #@! TO.N,/SHIFTREGISTERCLK*
X172504200Y-99210000D02*
X172579000Y-99284800D01*
G04 #@! TD*
M02*
