G04 #@! TF.GenerationSoftware,KiCad,Pcbnew,10.0.3*
G04 #@! TF.CreationDate,2026-07-16T11:44:51-04:00*
G04 #@! TF.ProjectId,ATtinyBoard,41547469-6e79-4426-9f61-72642e6b6963,rev?*
G04 #@! TF.SameCoordinates,Original*
G04 #@! TF.FileFunction,Legend,Top*
G04 #@! TF.FilePolarity,Positive*
%FSLAX46Y46*%
G04 Gerber Fmt 4.6, Leading zero omitted, Abs format (unit mm)*
G04 Created by KiCad (PCBNEW 10.0.3) date 2026-07-16 11:44:51*
%MOMM*%
%LPD*%
G01*
G04 APERTURE LIST*
%ADD10C,0.250000*%
%ADD11C,0.150000*%
%ADD12C,0.000000*%
%ADD13C,0.120000*%
G04 APERTURE END LIST*
D10*
X137954949Y-96928904D02*
X138431139Y-96928904D01*
X137859711Y-97214619D02*
X138193044Y-96214619D01*
X138193044Y-96214619D02*
X138526377Y-97214619D01*
X138716854Y-96214619D02*
X139288282Y-96214619D01*
X139002568Y-97214619D02*
X139002568Y-96214619D01*
X139478759Y-96547952D02*
X139859711Y-96547952D01*
X139621616Y-96214619D02*
X139621616Y-97071761D01*
X139621616Y-97071761D02*
X139669235Y-97167000D01*
X139669235Y-97167000D02*
X139764473Y-97214619D01*
X139764473Y-97214619D02*
X139859711Y-97214619D01*
X140193045Y-97214619D02*
X140193045Y-96547952D01*
X140193045Y-96214619D02*
X140145426Y-96262238D01*
X140145426Y-96262238D02*
X140193045Y-96309857D01*
X140193045Y-96309857D02*
X140240664Y-96262238D01*
X140240664Y-96262238D02*
X140193045Y-96214619D01*
X140193045Y-96214619D02*
X140193045Y-96309857D01*
X140669235Y-96547952D02*
X140669235Y-97214619D01*
X140669235Y-96643190D02*
X140716854Y-96595571D01*
X140716854Y-96595571D02*
X140812092Y-96547952D01*
X140812092Y-96547952D02*
X140954949Y-96547952D01*
X140954949Y-96547952D02*
X141050187Y-96595571D01*
X141050187Y-96595571D02*
X141097806Y-96690809D01*
X141097806Y-96690809D02*
X141097806Y-97214619D01*
X141478759Y-96547952D02*
X141716854Y-97214619D01*
X141954949Y-96547952D02*
X141716854Y-97214619D01*
X141716854Y-97214619D02*
X141621616Y-97452714D01*
X141621616Y-97452714D02*
X141573997Y-97500333D01*
X141573997Y-97500333D02*
X141478759Y-97547952D01*
X142764473Y-96547952D02*
X142764473Y-97214619D01*
X142526378Y-96167000D02*
X142288283Y-96881285D01*
X142288283Y-96881285D02*
X142907330Y-96881285D01*
X143812092Y-97214619D02*
X143240664Y-97214619D01*
X143526378Y-97214619D02*
X143526378Y-96214619D01*
X143526378Y-96214619D02*
X143431140Y-96357476D01*
X143431140Y-96357476D02*
X143335902Y-96452714D01*
X143335902Y-96452714D02*
X143240664Y-96500333D01*
X144193045Y-96309857D02*
X144240664Y-96262238D01*
X144240664Y-96262238D02*
X144335902Y-96214619D01*
X144335902Y-96214619D02*
X144573997Y-96214619D01*
X144573997Y-96214619D02*
X144669235Y-96262238D01*
X144669235Y-96262238D02*
X144716854Y-96309857D01*
X144716854Y-96309857D02*
X144764473Y-96405095D01*
X144764473Y-96405095D02*
X144764473Y-96500333D01*
X144764473Y-96500333D02*
X144716854Y-96643190D01*
X144716854Y-96643190D02*
X144145426Y-97214619D01*
X144145426Y-97214619D02*
X144764473Y-97214619D01*
X146288283Y-96690809D02*
X146431140Y-96738428D01*
X146431140Y-96738428D02*
X146478759Y-96786047D01*
X146478759Y-96786047D02*
X146526378Y-96881285D01*
X146526378Y-96881285D02*
X146526378Y-97024142D01*
X146526378Y-97024142D02*
X146478759Y-97119380D01*
X146478759Y-97119380D02*
X146431140Y-97167000D01*
X146431140Y-97167000D02*
X146335902Y-97214619D01*
X146335902Y-97214619D02*
X145954950Y-97214619D01*
X145954950Y-97214619D02*
X145954950Y-96214619D01*
X145954950Y-96214619D02*
X146288283Y-96214619D01*
X146288283Y-96214619D02*
X146383521Y-96262238D01*
X146383521Y-96262238D02*
X146431140Y-96309857D01*
X146431140Y-96309857D02*
X146478759Y-96405095D01*
X146478759Y-96405095D02*
X146478759Y-96500333D01*
X146478759Y-96500333D02*
X146431140Y-96595571D01*
X146431140Y-96595571D02*
X146383521Y-96643190D01*
X146383521Y-96643190D02*
X146288283Y-96690809D01*
X146288283Y-96690809D02*
X145954950Y-96690809D01*
X147097807Y-97214619D02*
X147002569Y-97167000D01*
X147002569Y-97167000D02*
X146954950Y-97119380D01*
X146954950Y-97119380D02*
X146907331Y-97024142D01*
X146907331Y-97024142D02*
X146907331Y-96738428D01*
X146907331Y-96738428D02*
X146954950Y-96643190D01*
X146954950Y-96643190D02*
X147002569Y-96595571D01*
X147002569Y-96595571D02*
X147097807Y-96547952D01*
X147097807Y-96547952D02*
X147240664Y-96547952D01*
X147240664Y-96547952D02*
X147335902Y-96595571D01*
X147335902Y-96595571D02*
X147383521Y-96643190D01*
X147383521Y-96643190D02*
X147431140Y-96738428D01*
X147431140Y-96738428D02*
X147431140Y-97024142D01*
X147431140Y-97024142D02*
X147383521Y-97119380D01*
X147383521Y-97119380D02*
X147335902Y-97167000D01*
X147335902Y-97167000D02*
X147240664Y-97214619D01*
X147240664Y-97214619D02*
X147097807Y-97214619D01*
X148288283Y-97214619D02*
X148288283Y-96690809D01*
X148288283Y-96690809D02*
X148240664Y-96595571D01*
X148240664Y-96595571D02*
X148145426Y-96547952D01*
X148145426Y-96547952D02*
X147954950Y-96547952D01*
X147954950Y-96547952D02*
X147859712Y-96595571D01*
X148288283Y-97167000D02*
X148193045Y-97214619D01*
X148193045Y-97214619D02*
X147954950Y-97214619D01*
X147954950Y-97214619D02*
X147859712Y-97167000D01*
X147859712Y-97167000D02*
X147812093Y-97071761D01*
X147812093Y-97071761D02*
X147812093Y-96976523D01*
X147812093Y-96976523D02*
X147859712Y-96881285D01*
X147859712Y-96881285D02*
X147954950Y-96833666D01*
X147954950Y-96833666D02*
X148193045Y-96833666D01*
X148193045Y-96833666D02*
X148288283Y-96786047D01*
X148764474Y-97214619D02*
X148764474Y-96547952D01*
X148764474Y-96738428D02*
X148812093Y-96643190D01*
X148812093Y-96643190D02*
X148859712Y-96595571D01*
X148859712Y-96595571D02*
X148954950Y-96547952D01*
X148954950Y-96547952D02*
X149050188Y-96547952D01*
X149812093Y-97214619D02*
X149812093Y-96214619D01*
X149812093Y-97167000D02*
X149716855Y-97214619D01*
X149716855Y-97214619D02*
X149526379Y-97214619D01*
X149526379Y-97214619D02*
X149431141Y-97167000D01*
X149431141Y-97167000D02*
X149383522Y-97119380D01*
X149383522Y-97119380D02*
X149335903Y-97024142D01*
X149335903Y-97024142D02*
X149335903Y-96738428D01*
X149335903Y-96738428D02*
X149383522Y-96643190D01*
X149383522Y-96643190D02*
X149431141Y-96595571D01*
X149431141Y-96595571D02*
X149526379Y-96547952D01*
X149526379Y-96547952D02*
X149716855Y-96547952D01*
X149716855Y-96547952D02*
X149812093Y-96595571D01*
X137549812Y-99247238D02*
X137454574Y-99199619D01*
X137454574Y-99199619D02*
X137311717Y-99199619D01*
X137311717Y-99199619D02*
X137168860Y-99247238D01*
X137168860Y-99247238D02*
X137073622Y-99342476D01*
X137073622Y-99342476D02*
X137026003Y-99437714D01*
X137026003Y-99437714D02*
X136978384Y-99628190D01*
X136978384Y-99628190D02*
X136978384Y-99771047D01*
X136978384Y-99771047D02*
X137026003Y-99961523D01*
X137026003Y-99961523D02*
X137073622Y-100056761D01*
X137073622Y-100056761D02*
X137168860Y-100152000D01*
X137168860Y-100152000D02*
X137311717Y-100199619D01*
X137311717Y-100199619D02*
X137406955Y-100199619D01*
X137406955Y-100199619D02*
X137549812Y-100152000D01*
X137549812Y-100152000D02*
X137597431Y-100104380D01*
X137597431Y-100104380D02*
X137597431Y-99771047D01*
X137597431Y-99771047D02*
X137406955Y-99771047D01*
X138026003Y-100199619D02*
X138026003Y-99199619D01*
X138026003Y-99199619D02*
X138597431Y-100199619D01*
X138597431Y-100199619D02*
X138597431Y-99199619D01*
X139073622Y-100199619D02*
X139073622Y-99199619D01*
X139073622Y-99199619D02*
X139311717Y-99199619D01*
X139311717Y-99199619D02*
X139454574Y-99247238D01*
X139454574Y-99247238D02*
X139549812Y-99342476D01*
X139549812Y-99342476D02*
X139597431Y-99437714D01*
X139597431Y-99437714D02*
X139645050Y-99628190D01*
X139645050Y-99628190D02*
X139645050Y-99771047D01*
X139645050Y-99771047D02*
X139597431Y-99961523D01*
X139597431Y-99961523D02*
X139549812Y-100056761D01*
X139549812Y-100056761D02*
X139454574Y-100152000D01*
X139454574Y-100152000D02*
X139311717Y-100199619D01*
X139311717Y-100199619D02*
X139073622Y-100199619D01*
X137787907Y-101699619D02*
X137311717Y-101699619D01*
X137311717Y-101699619D02*
X137264098Y-102175809D01*
X137264098Y-102175809D02*
X137311717Y-102128190D01*
X137311717Y-102128190D02*
X137406955Y-102080571D01*
X137406955Y-102080571D02*
X137645050Y-102080571D01*
X137645050Y-102080571D02*
X137740288Y-102128190D01*
X137740288Y-102128190D02*
X137787907Y-102175809D01*
X137787907Y-102175809D02*
X137835526Y-102271047D01*
X137835526Y-102271047D02*
X137835526Y-102509142D01*
X137835526Y-102509142D02*
X137787907Y-102604380D01*
X137787907Y-102604380D02*
X137740288Y-102652000D01*
X137740288Y-102652000D02*
X137645050Y-102699619D01*
X137645050Y-102699619D02*
X137406955Y-102699619D01*
X137406955Y-102699619D02*
X137311717Y-102652000D01*
X137311717Y-102652000D02*
X137264098Y-102604380D01*
X138121241Y-101699619D02*
X138454574Y-102699619D01*
X138454574Y-102699619D02*
X138787907Y-101699619D01*
X139311717Y-101699619D02*
X139406955Y-101699619D01*
X139406955Y-101699619D02*
X139502193Y-101747238D01*
X139502193Y-101747238D02*
X139549812Y-101794857D01*
X139549812Y-101794857D02*
X139597431Y-101890095D01*
X139597431Y-101890095D02*
X139645050Y-102080571D01*
X139645050Y-102080571D02*
X139645050Y-102318666D01*
X139645050Y-102318666D02*
X139597431Y-102509142D01*
X139597431Y-102509142D02*
X139549812Y-102604380D01*
X139549812Y-102604380D02*
X139502193Y-102652000D01*
X139502193Y-102652000D02*
X139406955Y-102699619D01*
X139406955Y-102699619D02*
X139311717Y-102699619D01*
X139311717Y-102699619D02*
X139216479Y-102652000D01*
X139216479Y-102652000D02*
X139168860Y-102604380D01*
X139168860Y-102604380D02*
X139121241Y-102509142D01*
X139121241Y-102509142D02*
X139073622Y-102318666D01*
X139073622Y-102318666D02*
X139073622Y-102080571D01*
X139073622Y-102080571D02*
X139121241Y-101890095D01*
X139121241Y-101890095D02*
X139168860Y-101794857D01*
X139168860Y-101794857D02*
X139216479Y-101747238D01*
X139216479Y-101747238D02*
X139311717Y-101699619D01*
X136549813Y-104199619D02*
X136549813Y-105009142D01*
X136549813Y-105009142D02*
X136597432Y-105104380D01*
X136597432Y-105104380D02*
X136645051Y-105152000D01*
X136645051Y-105152000D02*
X136740289Y-105199619D01*
X136740289Y-105199619D02*
X136930765Y-105199619D01*
X136930765Y-105199619D02*
X137026003Y-105152000D01*
X137026003Y-105152000D02*
X137073622Y-105104380D01*
X137073622Y-105104380D02*
X137121241Y-105009142D01*
X137121241Y-105009142D02*
X137121241Y-104199619D01*
X137597432Y-105199619D02*
X137597432Y-104199619D01*
X137597432Y-104199619D02*
X137978384Y-104199619D01*
X137978384Y-104199619D02*
X138073622Y-104247238D01*
X138073622Y-104247238D02*
X138121241Y-104294857D01*
X138121241Y-104294857D02*
X138168860Y-104390095D01*
X138168860Y-104390095D02*
X138168860Y-104532952D01*
X138168860Y-104532952D02*
X138121241Y-104628190D01*
X138121241Y-104628190D02*
X138073622Y-104675809D01*
X138073622Y-104675809D02*
X137978384Y-104723428D01*
X137978384Y-104723428D02*
X137597432Y-104723428D01*
X138597432Y-105199619D02*
X138597432Y-104199619D01*
X138597432Y-104199619D02*
X138835527Y-104199619D01*
X138835527Y-104199619D02*
X138978384Y-104247238D01*
X138978384Y-104247238D02*
X139073622Y-104342476D01*
X139073622Y-104342476D02*
X139121241Y-104437714D01*
X139121241Y-104437714D02*
X139168860Y-104628190D01*
X139168860Y-104628190D02*
X139168860Y-104771047D01*
X139168860Y-104771047D02*
X139121241Y-104961523D01*
X139121241Y-104961523D02*
X139073622Y-105056761D01*
X139073622Y-105056761D02*
X138978384Y-105152000D01*
X138978384Y-105152000D02*
X138835527Y-105199619D01*
X138835527Y-105199619D02*
X138597432Y-105199619D01*
X139597432Y-105199619D02*
X139597432Y-104199619D01*
D11*
X145916666Y-103454819D02*
X145916666Y-104169104D01*
X145916666Y-104169104D02*
X145869047Y-104311961D01*
X145869047Y-104311961D02*
X145773809Y-104407200D01*
X145773809Y-104407200D02*
X145630952Y-104454819D01*
X145630952Y-104454819D02*
X145535714Y-104454819D01*
X146916666Y-104454819D02*
X146345238Y-104454819D01*
X146630952Y-104454819D02*
X146630952Y-103454819D01*
X146630952Y-103454819D02*
X146535714Y-103597676D01*
X146535714Y-103597676D02*
X146440476Y-103692914D01*
X146440476Y-103692914D02*
X146345238Y-103740533D01*
X161416667Y-98157200D02*
X161559524Y-98204819D01*
X161559524Y-98204819D02*
X161797619Y-98204819D01*
X161797619Y-98204819D02*
X161892857Y-98157200D01*
X161892857Y-98157200D02*
X161940476Y-98109580D01*
X161940476Y-98109580D02*
X161988095Y-98014342D01*
X161988095Y-98014342D02*
X161988095Y-97919104D01*
X161988095Y-97919104D02*
X161940476Y-97823866D01*
X161940476Y-97823866D02*
X161892857Y-97776247D01*
X161892857Y-97776247D02*
X161797619Y-97728628D01*
X161797619Y-97728628D02*
X161607143Y-97681009D01*
X161607143Y-97681009D02*
X161511905Y-97633390D01*
X161511905Y-97633390D02*
X161464286Y-97585771D01*
X161464286Y-97585771D02*
X161416667Y-97490533D01*
X161416667Y-97490533D02*
X161416667Y-97395295D01*
X161416667Y-97395295D02*
X161464286Y-97300057D01*
X161464286Y-97300057D02*
X161511905Y-97252438D01*
X161511905Y-97252438D02*
X161607143Y-97204819D01*
X161607143Y-97204819D02*
X161845238Y-97204819D01*
X161845238Y-97204819D02*
X161988095Y-97252438D01*
X162321429Y-97204819D02*
X162559524Y-98204819D01*
X162559524Y-98204819D02*
X162750000Y-97490533D01*
X162750000Y-97490533D02*
X162940476Y-98204819D01*
X162940476Y-98204819D02*
X163178572Y-97204819D01*
X164083333Y-98204819D02*
X163511905Y-98204819D01*
X163797619Y-98204819D02*
X163797619Y-97204819D01*
X163797619Y-97204819D02*
X163702381Y-97347676D01*
X163702381Y-97347676D02*
X163607143Y-97442914D01*
X163607143Y-97442914D02*
X163511905Y-97490533D01*
X157238095Y-101204819D02*
X157238095Y-102014342D01*
X157238095Y-102014342D02*
X157285714Y-102109580D01*
X157285714Y-102109580D02*
X157333333Y-102157200D01*
X157333333Y-102157200D02*
X157428571Y-102204819D01*
X157428571Y-102204819D02*
X157619047Y-102204819D01*
X157619047Y-102204819D02*
X157714285Y-102157200D01*
X157714285Y-102157200D02*
X157761904Y-102109580D01*
X157761904Y-102109580D02*
X157809523Y-102014342D01*
X157809523Y-102014342D02*
X157809523Y-101204819D01*
X158809523Y-102204819D02*
X158238095Y-102204819D01*
X158523809Y-102204819D02*
X158523809Y-101204819D01*
X158523809Y-101204819D02*
X158428571Y-101347676D01*
X158428571Y-101347676D02*
X158333333Y-101442914D01*
X158333333Y-101442914D02*
X158238095Y-101490533D01*
X158108333Y-108879819D02*
X157775000Y-108403628D01*
X157536905Y-108879819D02*
X157536905Y-107879819D01*
X157536905Y-107879819D02*
X157917857Y-107879819D01*
X157917857Y-107879819D02*
X158013095Y-107927438D01*
X158013095Y-107927438D02*
X158060714Y-107975057D01*
X158060714Y-107975057D02*
X158108333Y-108070295D01*
X158108333Y-108070295D02*
X158108333Y-108213152D01*
X158108333Y-108213152D02*
X158060714Y-108308390D01*
X158060714Y-108308390D02*
X158013095Y-108356009D01*
X158013095Y-108356009D02*
X157917857Y-108403628D01*
X157917857Y-108403628D02*
X157536905Y-108403628D01*
X159060714Y-108879819D02*
X158489286Y-108879819D01*
X158775000Y-108879819D02*
X158775000Y-107879819D01*
X158775000Y-107879819D02*
X158679762Y-108022676D01*
X158679762Y-108022676D02*
X158584524Y-108117914D01*
X158584524Y-108117914D02*
X158489286Y-108165533D01*
X156583333Y-98609580D02*
X156535714Y-98657200D01*
X156535714Y-98657200D02*
X156392857Y-98704819D01*
X156392857Y-98704819D02*
X156297619Y-98704819D01*
X156297619Y-98704819D02*
X156154762Y-98657200D01*
X156154762Y-98657200D02*
X156059524Y-98561961D01*
X156059524Y-98561961D02*
X156011905Y-98466723D01*
X156011905Y-98466723D02*
X155964286Y-98276247D01*
X155964286Y-98276247D02*
X155964286Y-98133390D01*
X155964286Y-98133390D02*
X156011905Y-97942914D01*
X156011905Y-97942914D02*
X156059524Y-97847676D01*
X156059524Y-97847676D02*
X156154762Y-97752438D01*
X156154762Y-97752438D02*
X156297619Y-97704819D01*
X156297619Y-97704819D02*
X156392857Y-97704819D01*
X156392857Y-97704819D02*
X156535714Y-97752438D01*
X156535714Y-97752438D02*
X156583333Y-97800057D01*
X157535714Y-98704819D02*
X156964286Y-98704819D01*
X157250000Y-98704819D02*
X157250000Y-97704819D01*
X157250000Y-97704819D02*
X157154762Y-97847676D01*
X157154762Y-97847676D02*
X157059524Y-97942914D01*
X157059524Y-97942914D02*
X156964286Y-97990533D01*
X148936905Y-105954819D02*
X148936905Y-104954819D01*
X148936905Y-104954819D02*
X149175000Y-104954819D01*
X149175000Y-104954819D02*
X149317857Y-105002438D01*
X149317857Y-105002438D02*
X149413095Y-105097676D01*
X149413095Y-105097676D02*
X149460714Y-105192914D01*
X149460714Y-105192914D02*
X149508333Y-105383390D01*
X149508333Y-105383390D02*
X149508333Y-105526247D01*
X149508333Y-105526247D02*
X149460714Y-105716723D01*
X149460714Y-105716723D02*
X149413095Y-105811961D01*
X149413095Y-105811961D02*
X149317857Y-105907200D01*
X149317857Y-105907200D02*
X149175000Y-105954819D01*
X149175000Y-105954819D02*
X148936905Y-105954819D01*
X150460714Y-105954819D02*
X149889286Y-105954819D01*
X150175000Y-105954819D02*
X150175000Y-104954819D01*
X150175000Y-104954819D02*
X150079762Y-105097676D01*
X150079762Y-105097676D02*
X149984524Y-105192914D01*
X149984524Y-105192914D02*
X149889286Y-105240533D01*
D12*
G04 #@! TO.C,G\u002A\u002A\u002A*
G36*
X162587583Y-112216225D02*
G01*
X162587583Y-112528802D01*
X162740746Y-112528802D01*
X162893908Y-112528802D01*
X162893908Y-112603820D01*
X162893908Y-112678839D01*
X162653224Y-112678839D01*
X162412540Y-112678839D01*
X162412540Y-112291243D01*
X162412540Y-111903648D01*
X162500061Y-111903648D01*
X162587583Y-111903648D01*
X162587583Y-112216225D01*
G37*
G36*
X160680864Y-111975541D02*
G01*
X160680864Y-112047433D01*
X160533953Y-112047433D01*
X160387041Y-112047433D01*
X160387041Y-112134955D01*
X160387041Y-112222476D01*
X160524575Y-112222476D01*
X160662109Y-112222476D01*
X160662109Y-112294369D01*
X160662109Y-112366262D01*
X160524684Y-112366262D01*
X160387260Y-112366262D01*
X160385588Y-112520987D01*
X160383916Y-112675713D01*
X160297957Y-112677452D01*
X160211998Y-112679191D01*
X160211998Y-112291420D01*
X160211998Y-111903648D01*
X160446431Y-111903648D01*
X160680864Y-111903648D01*
X160680864Y-111975541D01*
G37*
G36*
X161263938Y-112283357D02*
G01*
X161284411Y-112349766D01*
X161303746Y-112412730D01*
X161321631Y-112471219D01*
X161337754Y-112524203D01*
X161351805Y-112570652D01*
X161363471Y-112609534D01*
X161372441Y-112639820D01*
X161378404Y-112660480D01*
X161381048Y-112670482D01*
X161381154Y-112671191D01*
X161378303Y-112674385D01*
X161368862Y-112676498D01*
X161351328Y-112677634D01*
X161324201Y-112677894D01*
X161289208Y-112677443D01*
X161197380Y-112675713D01*
X161168476Y-112578814D01*
X161139573Y-112481915D01*
X161027911Y-112481915D01*
X160916250Y-112481915D01*
X160895329Y-112556934D01*
X160886610Y-112588248D01*
X160878520Y-112617392D01*
X160871984Y-112641026D01*
X160868042Y-112655395D01*
X160861676Y-112678839D01*
X160771270Y-112678839D01*
X160739276Y-112678737D01*
X160712271Y-112678457D01*
X160692452Y-112678037D01*
X160682018Y-112677516D01*
X160680963Y-112677276D01*
X160682760Y-112671189D01*
X160687912Y-112654150D01*
X160696114Y-112627162D01*
X160707058Y-112591230D01*
X160720439Y-112547355D01*
X160735951Y-112496542D01*
X160753288Y-112439793D01*
X160772144Y-112378112D01*
X160783511Y-112340952D01*
X160945376Y-112340952D01*
X160948607Y-112343984D01*
X160957219Y-112345909D01*
X160973061Y-112346974D01*
X160997980Y-112347424D01*
X161027824Y-112347507D01*
X161061941Y-112347389D01*
X161085396Y-112346869D01*
X161100030Y-112345702D01*
X161107685Y-112343641D01*
X161110201Y-112340441D01*
X161109651Y-112336567D01*
X161103478Y-112316101D01*
X161095294Y-112288012D01*
X161085734Y-112254588D01*
X161075436Y-112218115D01*
X161065036Y-112180880D01*
X161055172Y-112145168D01*
X161046478Y-112113266D01*
X161039593Y-112087462D01*
X161035152Y-112070040D01*
X161033938Y-112064625D01*
X161030187Y-112049610D01*
X161026342Y-112041594D01*
X161025509Y-112041182D01*
X161022433Y-112046839D01*
X161017733Y-112061926D01*
X161012248Y-112083612D01*
X161010185Y-112092757D01*
X161003463Y-112121417D01*
X160993712Y-112160036D01*
X160981467Y-112206591D01*
X160967264Y-112259055D01*
X160951638Y-112315406D01*
X160945679Y-112336567D01*
X160945376Y-112340952D01*
X160783511Y-112340952D01*
X160792213Y-112312503D01*
X160798718Y-112291243D01*
X160916374Y-111906774D01*
X161031489Y-111905139D01*
X161146603Y-111903505D01*
X161263938Y-112283357D01*
G37*
G36*
X163365176Y-111905011D02*
G01*
X163390554Y-111905730D01*
X163407382Y-111906870D01*
X163413467Y-111908188D01*
X163416134Y-111914886D01*
X163422071Y-111932304D01*
X163430891Y-111959204D01*
X163442211Y-111994349D01*
X163455645Y-112036501D01*
X163470808Y-112084422D01*
X163487317Y-112136874D01*
X163504785Y-112192621D01*
X163522828Y-112250424D01*
X163541062Y-112309045D01*
X163559102Y-112367248D01*
X163576562Y-112423794D01*
X163593058Y-112477447D01*
X163608205Y-112526967D01*
X163621619Y-112571119D01*
X163632914Y-112608663D01*
X163641707Y-112638363D01*
X163647611Y-112658980D01*
X163650242Y-112669278D01*
X163650344Y-112670065D01*
X163648571Y-112673633D01*
X163642089Y-112676046D01*
X163629156Y-112677444D01*
X163608031Y-112677967D01*
X163576973Y-112677755D01*
X163558516Y-112677443D01*
X163466688Y-112675713D01*
X163437785Y-112578814D01*
X163408881Y-112481915D01*
X163297220Y-112481915D01*
X163185559Y-112481915D01*
X163164637Y-112556934D01*
X163155918Y-112588248D01*
X163147828Y-112617392D01*
X163141293Y-112641026D01*
X163137350Y-112655395D01*
X163130985Y-112678839D01*
X163040578Y-112678839D01*
X163008585Y-112678737D01*
X162981581Y-112678457D01*
X162961764Y-112678037D01*
X162951332Y-112677516D01*
X162950278Y-112677276D01*
X162952075Y-112671188D01*
X162957225Y-112654148D01*
X162965423Y-112627160D01*
X162976362Y-112591225D01*
X162989737Y-112547349D01*
X163005241Y-112496533D01*
X163022569Y-112439782D01*
X163041414Y-112378099D01*
X163052770Y-112340952D01*
X163214710Y-112340952D01*
X163217922Y-112343983D01*
X163226518Y-112345909D01*
X163242343Y-112346973D01*
X163267244Y-112347424D01*
X163297132Y-112347507D01*
X163382371Y-112347507D01*
X163377872Y-112333441D01*
X163372547Y-112315960D01*
X163365018Y-112290137D01*
X163355932Y-112258299D01*
X163345933Y-112222775D01*
X163335667Y-112185893D01*
X163325779Y-112149980D01*
X163316915Y-112117365D01*
X163309721Y-112090376D01*
X163304841Y-112071340D01*
X163303092Y-112063703D01*
X163299359Y-112049041D01*
X163295512Y-112041466D01*
X163294817Y-112041182D01*
X163291727Y-112046836D01*
X163286987Y-112061915D01*
X163281445Y-112083593D01*
X163279352Y-112092757D01*
X163273672Y-112116819D01*
X163265353Y-112149980D01*
X163255168Y-112189312D01*
X163243888Y-112231884D01*
X163232288Y-112274767D01*
X163221140Y-112315034D01*
X163215032Y-112336567D01*
X163214710Y-112340952D01*
X163052770Y-112340952D01*
X163061472Y-112312487D01*
X163067968Y-112291243D01*
X163185554Y-111906774D01*
X163297146Y-111905062D01*
X163333342Y-111904770D01*
X163365176Y-111905011D01*
G37*
G36*
X161763559Y-111899759D02*
G01*
X161763710Y-111899769D01*
X161811692Y-111903848D01*
X161850604Y-111909675D01*
X161883837Y-111918000D01*
X161914785Y-111929576D01*
X161930004Y-111936594D01*
X161970231Y-111962038D01*
X162000879Y-111993526D01*
X162021916Y-112029380D01*
X162033311Y-112067922D01*
X162035034Y-112107476D01*
X162027053Y-112146363D01*
X162009338Y-112182905D01*
X161981857Y-112215425D01*
X161944579Y-112242244D01*
X161935749Y-112246873D01*
X161910237Y-112259495D01*
X161940817Y-112272604D01*
X161984603Y-112297406D01*
X162019339Y-112330091D01*
X162041710Y-112364769D01*
X162051228Y-112386340D01*
X162056610Y-112405920D01*
X162058937Y-112428786D01*
X162059328Y-112450789D01*
X162058645Y-112478718D01*
X162055772Y-112499734D01*
X162049469Y-112519392D01*
X162038882Y-112542464D01*
X162016860Y-112579255D01*
X161989875Y-112608068D01*
X161954909Y-112631782D01*
X161934046Y-112642365D01*
X161904319Y-112654893D01*
X161873878Y-112664521D01*
X161840412Y-112671628D01*
X161801606Y-112676591D01*
X161755150Y-112679788D01*
X161698730Y-112681599D01*
X161693613Y-112681697D01*
X161654946Y-112682247D01*
X161618905Y-112682464D01*
X161588037Y-112682353D01*
X161564888Y-112681924D01*
X161552953Y-112681291D01*
X161530584Y-112678675D01*
X161509410Y-112675678D01*
X161507630Y-112675389D01*
X161487312Y-112672021D01*
X161487312Y-112555191D01*
X161662355Y-112555191D01*
X161729559Y-112552628D01*
X161763014Y-112550836D01*
X161787263Y-112548057D01*
X161805595Y-112543712D01*
X161821302Y-112537221D01*
X161823578Y-112536056D01*
X161850165Y-112516048D01*
X161868413Y-112489761D01*
X161877858Y-112459835D01*
X161878035Y-112428910D01*
X161868477Y-112399627D01*
X161851564Y-112377236D01*
X161829158Y-112360087D01*
X161802026Y-112348095D01*
X161767686Y-112340469D01*
X161723656Y-112336418D01*
X161723308Y-112336401D01*
X161662355Y-112333332D01*
X161662355Y-112444262D01*
X161662355Y-112555191D01*
X161487312Y-112555191D01*
X161487312Y-112444262D01*
X161487312Y-112294755D01*
X161487342Y-112215783D01*
X161487349Y-112211427D01*
X161662355Y-112211427D01*
X161723308Y-112208767D01*
X161757316Y-112206482D01*
X161782224Y-112202678D01*
X161801401Y-112196732D01*
X161809874Y-112192771D01*
X161836674Y-112173075D01*
X161853617Y-112148544D01*
X161860661Y-112121477D01*
X161857763Y-112094175D01*
X161844882Y-112068939D01*
X161821975Y-112048069D01*
X161812630Y-112042745D01*
X161796754Y-112035834D01*
X161780103Y-112031577D01*
X161758991Y-112029390D01*
X161729730Y-112028691D01*
X161723546Y-112028679D01*
X161662355Y-112028679D01*
X161662355Y-112120053D01*
X161662355Y-112211427D01*
X161487349Y-112211427D01*
X161487447Y-112148409D01*
X161487548Y-112120053D01*
X161487649Y-112091731D01*
X161487970Y-112044843D01*
X161488433Y-112006842D01*
X161489059Y-111976823D01*
X161489872Y-111953883D01*
X161490893Y-111937117D01*
X161492145Y-111925622D01*
X161493650Y-111918492D01*
X161495430Y-111914825D01*
X161496697Y-111913887D01*
X161509302Y-111911231D01*
X161531937Y-111908541D01*
X161562130Y-111905948D01*
X161597408Y-111903584D01*
X161635300Y-111901578D01*
X161673333Y-111900062D01*
X161709036Y-111899167D01*
X161739935Y-111899022D01*
X161763559Y-111899759D01*
G37*
G36*
X164069463Y-111902528D02*
G01*
X164118908Y-111909009D01*
X164126792Y-111910551D01*
X164174003Y-111924895D01*
X164216909Y-111946662D01*
X164253284Y-111974281D01*
X164280904Y-112006182D01*
X164292824Y-112027806D01*
X164300529Y-112056204D01*
X164303079Y-112090312D01*
X164300607Y-112125007D01*
X164293248Y-112155167D01*
X164289237Y-112164298D01*
X164268230Y-112195412D01*
X164240754Y-112223014D01*
X164210939Y-112243085D01*
X164205827Y-112245506D01*
X164190964Y-112252933D01*
X164182483Y-112258856D01*
X164181725Y-112260199D01*
X164187103Y-112264335D01*
X164200560Y-112269787D01*
X164206339Y-112271632D01*
X164239165Y-112286938D01*
X164270673Y-112311401D01*
X164297319Y-112341876D01*
X164310811Y-112364343D01*
X164320423Y-112386062D01*
X164325864Y-112405621D01*
X164328227Y-112428321D01*
X164328636Y-112450789D01*
X164327954Y-112478718D01*
X164325080Y-112499734D01*
X164318777Y-112519392D01*
X164308190Y-112542464D01*
X164286168Y-112579255D01*
X164259184Y-112608068D01*
X164224217Y-112631782D01*
X164203354Y-112642365D01*
X164173627Y-112654893D01*
X164143187Y-112664521D01*
X164109720Y-112671628D01*
X164070915Y-112676591D01*
X164024458Y-112679788D01*
X163968039Y-112681599D01*
X163962921Y-112681697D01*
X163924255Y-112682247D01*
X163888214Y-112682464D01*
X163857345Y-112682353D01*
X163834196Y-112681924D01*
X163822262Y-112681291D01*
X163799893Y-112678675D01*
X163778719Y-112675678D01*
X163776938Y-112675389D01*
X163756621Y-112672021D01*
X163756621Y-112555191D01*
X163931664Y-112555191D01*
X163998868Y-112552628D01*
X164032322Y-112550836D01*
X164056571Y-112548057D01*
X164074903Y-112543712D01*
X164090610Y-112537221D01*
X164092886Y-112536056D01*
X164119473Y-112516048D01*
X164137722Y-112489761D01*
X164147167Y-112459835D01*
X164147343Y-112428910D01*
X164137785Y-112399627D01*
X164120872Y-112377236D01*
X164098680Y-112360342D01*
X164071511Y-112348440D01*
X164036953Y-112340763D01*
X163992784Y-112336554D01*
X163931664Y-112333186D01*
X163931664Y-112444188D01*
X163931664Y-112555191D01*
X163756621Y-112555191D01*
X163756621Y-112444188D01*
X163756621Y-112294755D01*
X163756650Y-112215783D01*
X163756657Y-112211427D01*
X163931664Y-112211427D01*
X163992616Y-112208767D01*
X164026625Y-112206482D01*
X164051533Y-112202678D01*
X164070709Y-112196732D01*
X164079183Y-112192771D01*
X164105982Y-112173075D01*
X164122925Y-112148544D01*
X164129969Y-112121477D01*
X164127072Y-112094175D01*
X164114190Y-112068939D01*
X164091283Y-112048069D01*
X164081939Y-112042745D01*
X164066062Y-112035834D01*
X164049412Y-112031577D01*
X164028300Y-112029390D01*
X163999039Y-112028691D01*
X163992854Y-112028679D01*
X163931664Y-112028679D01*
X163931664Y-112120053D01*
X163931664Y-112211427D01*
X163756657Y-112211427D01*
X163756755Y-112148409D01*
X163756856Y-112120053D01*
X163756957Y-112091731D01*
X163757278Y-112044843D01*
X163757741Y-112006842D01*
X163758368Y-111976823D01*
X163759180Y-111953883D01*
X163760202Y-111937117D01*
X163761454Y-111925622D01*
X163762959Y-111918492D01*
X163764739Y-111914825D01*
X163766005Y-111913887D01*
X163775237Y-111912211D01*
X163794567Y-111909943D01*
X163821617Y-111907321D01*
X163854011Y-111904584D01*
X163873844Y-111903072D01*
X163944659Y-111899493D01*
X164010623Y-111899334D01*
X164069463Y-111902528D01*
G37*
G36*
X160141632Y-108124763D02*
G01*
X160156721Y-108133945D01*
X160178872Y-108147957D01*
X160206420Y-108165743D01*
X160237696Y-108186247D01*
X160241366Y-108188671D01*
X160343006Y-108255875D01*
X160343361Y-109315511D01*
X160343717Y-110375147D01*
X160635758Y-110541488D01*
X160927799Y-110707829D01*
X160929444Y-110496177D01*
X160931089Y-110284524D01*
X160901752Y-110248566D01*
X160845390Y-110171953D01*
X160793152Y-110086172D01*
X160746498Y-109994273D01*
X160706886Y-109899304D01*
X160675774Y-109804313D01*
X160661240Y-109746033D01*
X160653846Y-109702352D01*
X160648478Y-109650972D01*
X160645240Y-109595546D01*
X160644240Y-109539727D01*
X160645582Y-109487166D01*
X160649371Y-109441516D01*
X160651941Y-109423977D01*
X160670845Y-109345555D01*
X160698776Y-109273828D01*
X160735112Y-109209538D01*
X160779232Y-109153422D01*
X160830511Y-109106221D01*
X160888329Y-109068673D01*
X160952061Y-109041519D01*
X160980938Y-109033269D01*
X161013577Y-109027990D01*
X161054382Y-109025472D01*
X161099347Y-109025610D01*
X161144467Y-109028301D01*
X161185737Y-109033441D01*
X161213483Y-109039298D01*
X161305370Y-109070169D01*
X161393380Y-109112308D01*
X161477959Y-109165991D01*
X161559552Y-109231492D01*
X161621816Y-109291386D01*
X161701659Y-109382206D01*
X161771561Y-109478899D01*
X161831086Y-109580535D01*
X161879800Y-109686189D01*
X161917268Y-109794931D01*
X161943056Y-109905833D01*
X161955696Y-110003912D01*
X161958061Y-110099570D01*
X161949510Y-110190594D01*
X161930152Y-110276333D01*
X161900095Y-110356136D01*
X161895846Y-110365134D01*
X161881000Y-110394137D01*
X161866420Y-110417786D01*
X161849283Y-110439946D01*
X161826767Y-110464483D01*
X161813364Y-110478095D01*
X161776601Y-110512534D01*
X161743839Y-110537868D01*
X161717079Y-110553748D01*
X161674905Y-110575196D01*
X161675036Y-110862767D01*
X161675167Y-111150338D01*
X161921948Y-111293499D01*
X162168730Y-111436661D01*
X162168730Y-111560753D01*
X162168730Y-111684844D01*
X162120280Y-111684013D01*
X162089023Y-111682860D01*
X162052979Y-111680621D01*
X162019763Y-111677771D01*
X162018693Y-111677661D01*
X161842199Y-111653321D01*
X161670626Y-111617487D01*
X161503955Y-111570152D01*
X161342168Y-111511308D01*
X161185246Y-111440947D01*
X161033171Y-111359063D01*
X160885925Y-111265647D01*
X160743489Y-111160692D01*
X160730876Y-111150657D01*
X160693193Y-111119059D01*
X160649847Y-111080343D01*
X160603116Y-111036738D01*
X160555274Y-110990471D01*
X160508596Y-110943772D01*
X160465358Y-110898868D01*
X160427836Y-110857987D01*
X160404981Y-110831509D01*
X160295672Y-110690869D01*
X160198042Y-110545786D01*
X160112052Y-110396167D01*
X160037659Y-110241922D01*
X159974823Y-110082960D01*
X159923503Y-109919189D01*
X159883657Y-109750518D01*
X159861898Y-109624962D01*
X159849049Y-109516756D01*
X159841051Y-109401322D01*
X159837966Y-109282772D01*
X159839855Y-109165219D01*
X159846780Y-109052777D01*
X159852510Y-108996683D01*
X159874199Y-108853702D01*
X159905427Y-108708161D01*
X159945226Y-108563684D01*
X159992624Y-108423894D01*
X160032433Y-108324642D01*
X160044696Y-108297101D01*
X160059100Y-108266229D01*
X160074638Y-108234013D01*
X160090307Y-108202438D01*
X160105099Y-108173491D01*
X160118011Y-108149158D01*
X160128036Y-108131425D01*
X160134169Y-108122278D01*
X160135275Y-108121467D01*
X160141632Y-108124763D01*
G37*
G36*
X164372775Y-108139561D02*
G01*
X164383121Y-108155153D01*
X164396800Y-108179483D01*
X164413073Y-108211151D01*
X164431199Y-108248757D01*
X164450438Y-108290899D01*
X164455678Y-108302762D01*
X164520566Y-108465921D01*
X164573245Y-108631493D01*
X164613682Y-108799091D01*
X164641844Y-108968326D01*
X164657699Y-109138811D01*
X164661214Y-109310156D01*
X164652357Y-109481975D01*
X164631095Y-109653879D01*
X164597394Y-109825480D01*
X164587348Y-109866993D01*
X164539984Y-110030367D01*
X164481077Y-110189812D01*
X164411087Y-110344614D01*
X164330476Y-110494062D01*
X164239702Y-110637440D01*
X164139229Y-110774037D01*
X164029515Y-110903139D01*
X163911022Y-111024033D01*
X163784210Y-111136005D01*
X163749526Y-111163890D01*
X163612662Y-111264161D01*
X163469280Y-111354626D01*
X163320281Y-111434940D01*
X163166568Y-111504757D01*
X163009043Y-111563731D01*
X162848609Y-111611517D01*
X162686167Y-111647769D01*
X162522619Y-111672140D01*
X162395849Y-111682629D01*
X162318767Y-111686750D01*
X162318767Y-111564527D01*
X162318767Y-111442304D01*
X162717302Y-111209569D01*
X162785776Y-111169587D01*
X162863326Y-111124313D01*
X162948229Y-111074754D01*
X163038759Y-111021917D01*
X163133192Y-110966806D01*
X163229804Y-110910430D01*
X163326870Y-110853793D01*
X163422665Y-110797904D01*
X163515466Y-110743766D01*
X163603547Y-110692388D01*
X163635292Y-110673873D01*
X164154746Y-110370912D01*
X164158845Y-110216741D01*
X164160094Y-110163169D01*
X164161105Y-110106324D01*
X164161882Y-110047519D01*
X164162428Y-109988068D01*
X164162745Y-109929284D01*
X164162838Y-109872479D01*
X164162709Y-109818967D01*
X164162361Y-109770062D01*
X164161799Y-109727076D01*
X164161024Y-109691323D01*
X164160040Y-109664116D01*
X164158850Y-109646768D01*
X164157458Y-109640592D01*
X164157440Y-109640591D01*
X164150823Y-109643604D01*
X164134784Y-109652129D01*
X164110707Y-109665392D01*
X164079979Y-109682619D01*
X164043987Y-109703039D01*
X164004116Y-109725876D01*
X163990691Y-109733611D01*
X163829473Y-109826631D01*
X163790710Y-109935223D01*
X163772553Y-109985534D01*
X163757364Y-110026109D01*
X163744208Y-110059091D01*
X163732148Y-110086622D01*
X163720251Y-110110845D01*
X163707581Y-110133901D01*
X163694282Y-110156182D01*
X163636578Y-110241173D01*
X163572360Y-110319378D01*
X163502684Y-110390002D01*
X163428611Y-110452251D01*
X163351199Y-110505330D01*
X163271505Y-110548445D01*
X163190590Y-110580801D01*
X163109511Y-110601605D01*
X163098129Y-110603563D01*
X163039548Y-110608975D01*
X162977900Y-110607563D01*
X162918059Y-110599673D01*
X162869826Y-110587335D01*
X162804589Y-110559547D01*
X162747167Y-110522094D01*
X162697521Y-110474930D01*
X162655614Y-110418008D01*
X162621409Y-110351281D01*
X162594869Y-110274702D01*
X162584086Y-110230981D01*
X162578385Y-110194358D01*
X162574723Y-110148892D01*
X162573104Y-110098076D01*
X162573533Y-110045403D01*
X162576016Y-109994365D01*
X162580555Y-109948457D01*
X162583662Y-109928162D01*
X162609244Y-109814857D01*
X162645022Y-109703930D01*
X162690224Y-109596784D01*
X162744080Y-109494820D01*
X162805817Y-109399440D01*
X162874664Y-109312044D01*
X162949849Y-109234035D01*
X162981132Y-109206109D01*
X163059352Y-109145326D01*
X163138319Y-109095638D01*
X163217492Y-109057192D01*
X163296328Y-109030132D01*
X163374286Y-109014603D01*
X163450824Y-109010752D01*
X163525399Y-109018722D01*
X163597471Y-109038661D01*
X163600840Y-109039915D01*
X163625782Y-109052239D01*
X163655918Y-109071805D01*
X163688083Y-109096555D01*
X163688361Y-109096786D01*
X163711221Y-109115408D01*
X163731762Y-109131473D01*
X163747365Y-109142967D01*
X163754261Y-109147384D01*
X163759377Y-109148724D01*
X163766960Y-109147941D01*
X163778231Y-109144495D01*
X163794416Y-109137843D01*
X163816735Y-109127446D01*
X163846412Y-109112762D01*
X163884670Y-109093249D01*
X163932430Y-109068523D01*
X163975739Y-109045991D01*
X164016848Y-109024572D01*
X164054049Y-109005159D01*
X164085632Y-108988646D01*
X164109889Y-108975924D01*
X164125112Y-108967886D01*
X164126973Y-108966892D01*
X164156617Y-108950990D01*
X164158231Y-108598040D01*
X164159845Y-108245089D01*
X164259869Y-108189667D01*
X164292098Y-108171994D01*
X164320744Y-108156635D01*
X164343949Y-108144557D01*
X164359859Y-108136728D01*
X164366504Y-108134107D01*
X164372775Y-108139561D01*
G37*
G36*
X162329549Y-106869419D02*
G01*
X162400175Y-106871644D01*
X162465390Y-106875734D01*
X162528708Y-106881975D01*
X162593642Y-106890655D01*
X162663704Y-106902059D01*
X162668853Y-106902960D01*
X162834990Y-106938447D01*
X162998037Y-106985792D01*
X163157295Y-107044583D01*
X163312067Y-107114406D01*
X163461658Y-107194848D01*
X163605368Y-107285496D01*
X163742503Y-107385936D01*
X163872363Y-107495757D01*
X163994253Y-107614544D01*
X164107474Y-107741884D01*
X164129053Y-107768387D01*
X164151942Y-107797674D01*
X164176337Y-107830189D01*
X164201196Y-107864399D01*
X164225474Y-107898768D01*
X164248130Y-107931763D01*
X164268118Y-107961849D01*
X164284396Y-107987491D01*
X164295921Y-108007157D01*
X164301648Y-108019311D01*
X164301816Y-108022415D01*
X164295144Y-108026656D01*
X164279333Y-108035849D01*
X164256218Y-108048954D01*
X164227633Y-108064928D01*
X164198418Y-108081079D01*
X164162732Y-108100560D01*
X164136191Y-108114549D01*
X164117086Y-108123753D01*
X164103706Y-108128881D01*
X164094338Y-108130640D01*
X164087272Y-108129738D01*
X164083923Y-108128445D01*
X164077144Y-108124862D01*
X164062645Y-108116754D01*
X164040171Y-108103973D01*
X164009465Y-108086369D01*
X163970272Y-108063797D01*
X163922337Y-108036107D01*
X163865405Y-108003151D01*
X163799219Y-107964782D01*
X163723524Y-107920852D01*
X163638065Y-107871213D01*
X163542587Y-107815717D01*
X163436833Y-107754217D01*
X163320548Y-107686563D01*
X163315887Y-107683851D01*
X163292391Y-107670183D01*
X163259480Y-107651044D01*
X163218549Y-107627246D01*
X163170994Y-107599600D01*
X163118211Y-107568917D01*
X163061595Y-107536009D01*
X163002541Y-107501686D01*
X162942445Y-107466760D01*
X162915789Y-107451269D01*
X162851853Y-107414114D01*
X162785251Y-107375410D01*
X162717868Y-107336251D01*
X162651586Y-107297732D01*
X162588288Y-107260948D01*
X162529858Y-107226992D01*
X162478178Y-107196959D01*
X162435133Y-107171943D01*
X162429339Y-107168576D01*
X162249215Y-107063898D01*
X162032366Y-107187515D01*
X161980092Y-107217295D01*
X161927140Y-107247424D01*
X161875441Y-107276806D01*
X161826924Y-107304347D01*
X161783521Y-107328949D01*
X161747162Y-107349517D01*
X161720320Y-107364651D01*
X161689422Y-107382187D01*
X161662695Y-107397673D01*
X161641897Y-107410064D01*
X161628784Y-107418316D01*
X161624993Y-107421295D01*
X161629941Y-107425543D01*
X161643686Y-107435238D01*
X161664441Y-107449171D01*
X161690419Y-107466134D01*
X161707688Y-107477211D01*
X161741006Y-107498449D01*
X161775132Y-107520204D01*
X161806629Y-107540284D01*
X161832057Y-107556499D01*
X161838022Y-107560302D01*
X161885532Y-107590603D01*
X161959927Y-107577926D01*
X162024169Y-107567683D01*
X162080505Y-107560412D01*
X162133075Y-107555735D01*
X162186018Y-107553269D01*
X162235614Y-107552629D01*
X162343377Y-107556971D01*
X162446124Y-107569892D01*
X162543163Y-107591041D01*
X162633804Y-107620066D01*
X162717352Y-107656617D01*
X162793118Y-107700343D01*
X162860408Y-107750893D01*
X162918531Y-107807916D01*
X162966796Y-107871062D01*
X163004509Y-107939979D01*
X163005986Y-107943298D01*
X163025632Y-107999589D01*
X163038214Y-108061197D01*
X163043331Y-108124179D01*
X163040583Y-108184590D01*
X163034206Y-108221397D01*
X163012552Y-108286724D01*
X162979308Y-108350005D01*
X162935327Y-108410445D01*
X162881457Y-108467248D01*
X162818551Y-108519620D01*
X162747458Y-108566766D01*
X162669031Y-108607891D01*
X162584119Y-108642199D01*
X162583664Y-108642358D01*
X162495248Y-108668118D01*
X162399197Y-108686804D01*
X162315641Y-108696516D01*
X162282762Y-108699123D01*
X162256927Y-108700787D01*
X162234627Y-108701502D01*
X162212349Y-108701265D01*
X162186585Y-108700071D01*
X162153822Y-108697915D01*
X162131221Y-108696295D01*
X162030263Y-108685044D01*
X161932858Y-108666468D01*
X161839874Y-108641072D01*
X161752182Y-108609357D01*
X161670651Y-108571828D01*
X161596153Y-108528987D01*
X161529557Y-108481337D01*
X161471734Y-108429382D01*
X161423553Y-108373623D01*
X161385885Y-108314566D01*
X161359599Y-108252711D01*
X161358620Y-108249622D01*
X161352555Y-108229260D01*
X161348319Y-108211601D01*
X161345650Y-108193781D01*
X161344282Y-108172932D01*
X161343953Y-108146188D01*
X161344399Y-108110681D01*
X161344647Y-108097788D01*
X161346653Y-107997207D01*
X161299766Y-107969677D01*
X161280847Y-107958530D01*
X161253383Y-107942299D01*
X161219579Y-107922288D01*
X161181638Y-107899801D01*
X161141762Y-107876144D01*
X161119392Y-107862862D01*
X160985904Y-107783577D01*
X160728670Y-107941168D01*
X160676171Y-107973330D01*
X160626025Y-108004049D01*
X160579424Y-108032594D01*
X160537561Y-108058235D01*
X160501629Y-108080241D01*
X160472820Y-108097881D01*
X160452327Y-108110427D01*
X160441545Y-108117022D01*
X160411653Y-108135286D01*
X160308700Y-108070766D01*
X160276904Y-108050579D01*
X160249096Y-108032422D01*
X160226897Y-108017398D01*
X160211928Y-108006604D01*
X160205810Y-108001143D01*
X160205747Y-108000916D01*
X160209287Y-107993112D01*
X160219137Y-107976939D01*
X160234141Y-107954058D01*
X160253144Y-107926128D01*
X160274989Y-107894811D01*
X160298522Y-107861766D01*
X160322587Y-107828655D01*
X160346029Y-107797138D01*
X160363309Y-107774507D01*
X160388598Y-107743621D01*
X160421319Y-107706323D01*
X160459592Y-107664542D01*
X160501536Y-107620207D01*
X160545270Y-107575247D01*
X160588911Y-107531590D01*
X160630580Y-107491166D01*
X160668394Y-107455904D01*
X160700473Y-107427732D01*
X160705870Y-107423254D01*
X160845469Y-107316589D01*
X160990807Y-107220720D01*
X161141399Y-107135895D01*
X161296756Y-107062356D01*
X161456395Y-107000351D01*
X161619827Y-106950125D01*
X161668929Y-106937536D01*
X161773650Y-106913821D01*
X161872949Y-106895612D01*
X161970571Y-106882463D01*
X162070263Y-106873932D01*
X162175769Y-106869575D01*
X162250000Y-106868771D01*
X162329549Y-106869419D01*
G37*
G36*
X149847245Y-111656230D02*
G01*
X149847245Y-111710561D01*
X143327459Y-111710561D01*
X136807673Y-111710561D01*
X136807673Y-111656230D01*
X136807673Y-111601898D01*
X143327459Y-111601898D01*
X149847245Y-111601898D01*
X149847245Y-111656230D01*
G37*
G36*
X149955908Y-108083930D02*
G01*
X149955908Y-108138262D01*
X143408956Y-108138262D01*
X136862005Y-108138262D01*
X136862005Y-108083930D01*
X136862005Y-108029599D01*
X143408956Y-108029599D01*
X149955908Y-108029599D01*
X149955908Y-108083930D01*
G37*
G36*
X146193448Y-109829963D02*
G01*
X146193337Y-110009034D01*
X146193014Y-110180128D01*
X146192496Y-110341324D01*
X146191798Y-110490702D01*
X146190938Y-110626340D01*
X146189930Y-110746318D01*
X146188790Y-110848714D01*
X146187536Y-110931610D01*
X146186184Y-110993083D01*
X146184748Y-111031212D01*
X146183261Y-111044081D01*
X146164263Y-111037996D01*
X146142513Y-111028422D01*
X146111951Y-111013683D01*
X146112037Y-109837443D01*
X146112123Y-108661203D01*
X146152786Y-108638065D01*
X146193448Y-108614927D01*
X146193448Y-109829963D01*
G37*
G36*
X146030419Y-108681517D02*
G01*
X146031411Y-108696468D01*
X146032277Y-108736589D01*
X146033013Y-108799882D01*
X146033613Y-108884351D01*
X146034071Y-108988000D01*
X146034382Y-109108832D01*
X146034540Y-109244850D01*
X146034539Y-109394059D01*
X146034375Y-109554462D01*
X146034040Y-109724061D01*
X146033698Y-109848404D01*
X146032970Y-110060477D01*
X146032154Y-110246791D01*
X146031224Y-110408752D01*
X146030156Y-110547768D01*
X146028924Y-110665245D01*
X146027505Y-110762590D01*
X146025873Y-110841209D01*
X146024003Y-110902509D01*
X146021870Y-110947897D01*
X146019451Y-110978780D01*
X146016719Y-110996564D01*
X146013650Y-111002655D01*
X146013324Y-111002676D01*
X145985766Y-110997968D01*
X145972726Y-110994888D01*
X145968521Y-110992624D01*
X145964842Y-110987036D01*
X145961653Y-110976423D01*
X145958921Y-110959081D01*
X145956609Y-110933308D01*
X145954683Y-110897400D01*
X145953109Y-110849656D01*
X145951850Y-110788373D01*
X145950873Y-110711847D01*
X145950142Y-110618377D01*
X145949622Y-110506258D01*
X145949278Y-110373789D01*
X145949076Y-110219267D01*
X145948981Y-110040989D01*
X145948956Y-109837252D01*
X145948956Y-109836710D01*
X145948956Y-108684744D01*
X145986275Y-108677611D01*
X146015634Y-108675911D01*
X146030419Y-108681517D01*
G37*
G36*
X146546421Y-108277055D02*
G01*
X146573397Y-108282921D01*
X146585065Y-108295906D01*
X146587352Y-108315163D01*
X146583361Y-108333720D01*
X146568556Y-108348686D01*
X146538689Y-108362112D01*
X146489511Y-108376050D01*
X146435491Y-108388493D01*
X146349768Y-108412483D01*
X146286431Y-108443176D01*
X146240983Y-108483351D01*
X146213823Y-108525495D01*
X146186657Y-108579706D01*
X146137686Y-108555756D01*
X146079868Y-108536999D01*
X146003902Y-108525732D01*
X145917713Y-108521823D01*
X145829229Y-108525139D01*
X145746375Y-108535545D01*
X145677076Y-108552910D01*
X145650426Y-108563941D01*
X145625245Y-108574470D01*
X145611242Y-108569287D01*
X145599416Y-108543778D01*
X145596730Y-108536410D01*
X145573821Y-108496508D01*
X145534405Y-108462159D01*
X145475545Y-108431708D01*
X145394310Y-108403501D01*
X145330205Y-108386108D01*
X145265713Y-108369542D01*
X145223144Y-108357023D01*
X145197978Y-108346385D01*
X145185693Y-108335461D01*
X145181767Y-108322084D01*
X145181523Y-108314840D01*
X145181523Y-108280882D01*
X145806336Y-108278303D01*
X145936638Y-108277771D01*
X146060665Y-108277274D01*
X146175339Y-108276825D01*
X146277581Y-108276435D01*
X146364313Y-108276116D01*
X146432455Y-108275879D01*
X146478930Y-108275736D01*
X146498241Y-108275696D01*
X146546421Y-108277055D01*
G37*
G36*
X145643578Y-108631608D02*
G01*
X145662552Y-108640206D01*
X145690882Y-108655367D01*
X145690882Y-109836123D01*
X145690868Y-110042266D01*
X145690802Y-110222945D01*
X145690647Y-110379861D01*
X145690365Y-110514716D01*
X145689919Y-110629211D01*
X145689271Y-110725048D01*
X145688384Y-110803928D01*
X145687220Y-110867552D01*
X145685743Y-110917623D01*
X145683914Y-110955842D01*
X145681696Y-110983909D01*
X145679052Y-111003527D01*
X145675944Y-111016398D01*
X145672336Y-111024222D01*
X145668188Y-111028701D01*
X145664609Y-111030939D01*
X145640396Y-111042229D01*
X145630652Y-111045000D01*
X145629484Y-111031742D01*
X145628335Y-110993272D01*
X145627220Y-110931540D01*
X145626155Y-110848500D01*
X145625154Y-110746103D01*
X145624233Y-110626304D01*
X145623407Y-110491052D01*
X145622692Y-110342303D01*
X145622103Y-110182007D01*
X145621655Y-110012117D01*
X145621403Y-109866684D01*
X145621135Y-109655649D01*
X145620933Y-109470131D01*
X145620810Y-109308479D01*
X145620776Y-109169046D01*
X145620843Y-109050181D01*
X145621021Y-108950236D01*
X145621324Y-108867561D01*
X145621761Y-108800507D01*
X145622345Y-108747425D01*
X145623086Y-108706665D01*
X145623996Y-108676578D01*
X145625086Y-108655515D01*
X145626368Y-108641828D01*
X145627853Y-108633865D01*
X145629553Y-108629979D01*
X145629923Y-108629541D01*
X145643578Y-108631608D01*
G37*
G36*
X146195742Y-111101896D02*
G01*
X146200926Y-111116547D01*
X146222041Y-111155692D01*
X146258699Y-111197749D01*
X146302193Y-111233386D01*
X146319653Y-111243804D01*
X146348786Y-111255407D01*
X146396738Y-111270720D01*
X146455844Y-111287402D01*
X146496231Y-111297775D01*
X146577154Y-111319227D01*
X146634285Y-111338424D01*
X146670715Y-111357008D01*
X146689537Y-111376618D01*
X146693844Y-111398896D01*
X146693452Y-111402409D01*
X146689224Y-111432112D01*
X145956883Y-111432277D01*
X145791681Y-111432202D01*
X145651699Y-111431864D01*
X145534990Y-111431218D01*
X145439609Y-111430217D01*
X145363610Y-111428814D01*
X145305048Y-111426963D01*
X145261977Y-111424617D01*
X145232451Y-111421730D01*
X145214525Y-111418255D01*
X145206428Y-111414328D01*
X145188523Y-111384844D01*
X145196635Y-111357844D01*
X145231065Y-111333074D01*
X145292117Y-111310278D01*
X145346312Y-111296378D01*
X145444400Y-111265597D01*
X145518793Y-111222740D01*
X145570416Y-111167210D01*
X145584033Y-111143124D01*
X145605708Y-111106048D01*
X145622623Y-111094737D01*
X145627802Y-111096892D01*
X145672014Y-111118881D01*
X145736139Y-111134947D01*
X145813554Y-111144985D01*
X145897635Y-111148890D01*
X145981760Y-111146557D01*
X146059305Y-111137879D01*
X146123649Y-111122753D01*
X146162047Y-111105378D01*
X146184584Y-111093850D01*
X146195742Y-111101896D01*
G37*
G36*
X137058956Y-112064018D02*
G01*
X137014812Y-112098809D01*
X136970668Y-112133600D01*
X136970668Y-112423877D01*
X136970756Y-112519764D01*
X136971255Y-112592130D01*
X136972519Y-112644622D01*
X136974901Y-112680886D01*
X136978755Y-112704567D01*
X136984433Y-112719311D01*
X136992290Y-112728764D01*
X137000856Y-112735299D01*
X137032528Y-112751453D01*
X137055187Y-112756444D01*
X137075562Y-112762762D01*
X137079331Y-112770027D01*
X137066417Y-112776337D01*
X137030285Y-112780899D01*
X136974849Y-112783321D01*
X136943502Y-112783610D01*
X136880402Y-112782318D01*
X136834783Y-112778705D01*
X136810556Y-112773161D01*
X136807673Y-112770027D01*
X136818920Y-112758609D01*
X136832122Y-112756444D01*
X136850045Y-112754852D01*
X136863777Y-112747964D01*
X136873872Y-112732610D01*
X136880883Y-112705619D01*
X136885365Y-112663822D01*
X136887871Y-112604048D01*
X136888954Y-112523127D01*
X136889170Y-112429843D01*
X136888996Y-112332370D01*
X136888285Y-112258449D01*
X136886753Y-112204466D01*
X136884116Y-112166809D01*
X136880092Y-112141866D01*
X136874396Y-112126022D01*
X136866745Y-112115665D01*
X136864331Y-112113362D01*
X136836025Y-112095662D01*
X136816791Y-112090882D01*
X136797269Y-112084210D01*
X136794090Y-112077299D01*
X136806987Y-112070947D01*
X136843009Y-112066406D01*
X136898149Y-112064083D01*
X136926523Y-112063867D01*
X137058956Y-112064018D01*
G37*
G36*
X142220454Y-112064018D02*
G01*
X142176309Y-112098809D01*
X142132165Y-112133600D01*
X142132165Y-112423877D01*
X142132253Y-112519764D01*
X142132752Y-112592130D01*
X142134016Y-112644622D01*
X142136398Y-112680886D01*
X142140252Y-112704567D01*
X142145931Y-112719311D01*
X142153788Y-112728764D01*
X142162353Y-112735299D01*
X142194025Y-112751453D01*
X142216685Y-112756444D01*
X142237060Y-112762762D01*
X142240828Y-112770027D01*
X142227914Y-112776337D01*
X142191783Y-112780899D01*
X142136346Y-112783321D01*
X142104999Y-112783610D01*
X142041900Y-112782318D01*
X141996280Y-112778705D01*
X141972053Y-112773161D01*
X141969170Y-112770027D01*
X141980417Y-112758609D01*
X141993620Y-112756444D01*
X142011543Y-112754852D01*
X142025275Y-112747964D01*
X142035369Y-112732610D01*
X142042381Y-112705619D01*
X142046862Y-112663822D01*
X142049368Y-112604048D01*
X142050451Y-112523127D01*
X142050668Y-112429843D01*
X142050494Y-112332370D01*
X142049782Y-112258449D01*
X142048250Y-112204466D01*
X142045614Y-112166809D01*
X142041589Y-112141866D01*
X142035894Y-112126022D01*
X142028243Y-112115665D01*
X142025828Y-112113362D01*
X141997522Y-112095662D01*
X141978288Y-112090882D01*
X141958767Y-112084210D01*
X141955587Y-112077299D01*
X141968485Y-112070947D01*
X142004506Y-112066406D01*
X142059646Y-112064083D01*
X142088021Y-112063867D01*
X142220454Y-112064018D01*
G37*
G36*
X145793864Y-108673333D02*
G01*
X145826349Y-108680571D01*
X145841404Y-108681577D01*
X145846000Y-108682174D01*
X145850021Y-108685098D01*
X145853506Y-108692047D01*
X145856493Y-108704724D01*
X145859021Y-108724826D01*
X145861127Y-108754055D01*
X145862850Y-108794109D01*
X145864229Y-108846689D01*
X145865301Y-108913495D01*
X145866106Y-108996226D01*
X145866681Y-109096582D01*
X145867065Y-109216264D01*
X145867297Y-109356970D01*
X145867414Y-109520402D01*
X145867455Y-109708258D01*
X145867459Y-109836123D01*
X145867384Y-110047569D01*
X145867147Y-110233283D01*
X145866724Y-110394700D01*
X145866097Y-110533253D01*
X145865242Y-110650376D01*
X145864140Y-110747503D01*
X145862770Y-110826068D01*
X145861109Y-110887504D01*
X145859138Y-110933246D01*
X145856835Y-110964727D01*
X145854179Y-110983381D01*
X145851148Y-110990642D01*
X145850480Y-110990854D01*
X145824276Y-110994359D01*
X145802940Y-110999229D01*
X145772379Y-111007420D01*
X145772379Y-109836254D01*
X145772412Y-109630039D01*
X145772533Y-109449346D01*
X145772771Y-109292529D01*
X145773158Y-109157944D01*
X145773722Y-109043946D01*
X145774495Y-108948890D01*
X145775508Y-108871132D01*
X145776790Y-108809027D01*
X145778372Y-108760930D01*
X145780284Y-108725198D01*
X145782557Y-108700184D01*
X145785220Y-108684245D01*
X145788306Y-108675736D01*
X145791843Y-108673012D01*
X145793864Y-108673333D01*
G37*
G36*
X148210507Y-112064018D02*
G01*
X148166363Y-112098809D01*
X148122218Y-112133600D01*
X148122218Y-112423877D01*
X148122306Y-112519764D01*
X148122806Y-112592130D01*
X148124070Y-112644622D01*
X148126452Y-112680886D01*
X148130305Y-112704567D01*
X148135984Y-112719311D01*
X148143841Y-112728764D01*
X148152407Y-112735299D01*
X148184078Y-112751453D01*
X148206738Y-112756444D01*
X148227113Y-112762762D01*
X148230882Y-112770027D01*
X148217968Y-112776337D01*
X148181836Y-112780899D01*
X148126400Y-112783321D01*
X148095053Y-112783610D01*
X148031953Y-112782318D01*
X147986333Y-112778705D01*
X147962107Y-112773161D01*
X147959224Y-112770027D01*
X147970471Y-112758609D01*
X147983673Y-112756444D01*
X148001596Y-112754852D01*
X148015328Y-112747964D01*
X148025423Y-112732610D01*
X148032434Y-112705619D01*
X148036916Y-112663822D01*
X148039421Y-112604048D01*
X148040505Y-112523127D01*
X148040721Y-112429843D01*
X148040547Y-112332370D01*
X148039836Y-112258449D01*
X148038304Y-112204466D01*
X148035667Y-112166809D01*
X148031643Y-112141866D01*
X148025947Y-112126022D01*
X148018296Y-112115665D01*
X148015882Y-112113362D01*
X147987576Y-112095662D01*
X147968341Y-112090882D01*
X147948820Y-112084210D01*
X147945641Y-112077299D01*
X147958538Y-112070947D01*
X147994559Y-112066406D01*
X148049699Y-112064083D01*
X148078074Y-112063867D01*
X148210507Y-112064018D01*
G37*
G36*
X141626092Y-112063737D02*
G01*
X141704918Y-112064336D01*
X141762792Y-112066322D01*
X141802820Y-112070505D01*
X141828108Y-112077691D01*
X141841763Y-112088690D01*
X141846892Y-112104309D01*
X141846599Y-112125357D01*
X141844486Y-112147317D01*
X141840133Y-112192754D01*
X141819615Y-112152005D01*
X141808653Y-112132429D01*
X141795683Y-112120184D01*
X141774459Y-112113265D01*
X141738739Y-112109670D01*
X141682277Y-112107394D01*
X141680390Y-112107332D01*
X141561684Y-112103408D01*
X141561684Y-112417523D01*
X141561684Y-112731638D01*
X141602432Y-112747019D01*
X141633494Y-112761338D01*
X141639880Y-112771873D01*
X141620974Y-112778903D01*
X141576155Y-112782705D01*
X141520935Y-112783610D01*
X141462360Y-112782185D01*
X141420576Y-112778241D01*
X141400043Y-112772274D01*
X141398689Y-112770027D01*
X141409936Y-112758609D01*
X141423138Y-112756444D01*
X141440687Y-112754956D01*
X141454226Y-112748424D01*
X141464271Y-112733748D01*
X141471340Y-112707826D01*
X141475948Y-112667556D01*
X141478614Y-112609839D01*
X141479853Y-112531573D01*
X141480183Y-112429656D01*
X141480186Y-112414155D01*
X141480186Y-112104465D01*
X141374919Y-112104673D01*
X141313871Y-112105813D01*
X141273940Y-112110513D01*
X141249103Y-112121135D01*
X141233339Y-112140036D01*
X141222581Y-112164353D01*
X141209414Y-112192063D01*
X141201432Y-112194233D01*
X141199269Y-112172104D01*
X141203539Y-112127059D01*
X141212221Y-112063717D01*
X141523208Y-112063717D01*
X141626092Y-112063737D01*
G37*
G36*
X139393350Y-112059548D02*
G01*
X139437301Y-112066691D01*
X139477680Y-112081764D01*
X139508905Y-112097821D01*
X139585802Y-112151433D01*
X139640092Y-112216986D01*
X139673227Y-112297103D01*
X139686658Y-112394408D01*
X139687112Y-112419831D01*
X139676396Y-112522363D01*
X139643843Y-112609911D01*
X139588407Y-112684982D01*
X139567940Y-112704741D01*
X139494017Y-112754132D01*
X139406044Y-112784900D01*
X139311165Y-112795414D01*
X139218636Y-112784555D01*
X139125601Y-112750107D01*
X139052037Y-112696923D01*
X138998548Y-112625810D01*
X138965738Y-112537579D01*
X138954210Y-112433036D01*
X138954200Y-112430454D01*
X138959696Y-112373504D01*
X139021982Y-112373504D01*
X139027636Y-112467937D01*
X139046908Y-112545673D01*
X139082164Y-112614738D01*
X139100833Y-112641156D01*
X139162277Y-112703744D01*
X139234512Y-112747165D01*
X139312202Y-112769555D01*
X139390011Y-112769051D01*
X139433569Y-112757354D01*
X139483302Y-112728465D01*
X139533897Y-112682916D01*
X139576624Y-112629463D01*
X139596306Y-112594042D01*
X139620515Y-112509767D01*
X139623246Y-112421367D01*
X139606546Y-112333826D01*
X139572464Y-112252128D01*
X139523051Y-112181255D01*
X139460353Y-112126192D01*
X139390344Y-112093063D01*
X139298188Y-112077180D01*
X139215193Y-112085733D01*
X139143853Y-112116822D01*
X139086665Y-112168548D01*
X139046123Y-112239010D01*
X139024722Y-112326310D01*
X139021982Y-112373504D01*
X138959696Y-112373504D01*
X138964087Y-112328012D01*
X138994941Y-112241220D01*
X139048008Y-112167043D01*
X139072108Y-112143457D01*
X139130015Y-112100227D01*
X139192997Y-112073231D01*
X139268560Y-112060011D01*
X139334090Y-112057638D01*
X139393350Y-112059548D01*
G37*
G36*
X142829821Y-112059548D02*
G01*
X142873772Y-112066691D01*
X142914151Y-112081764D01*
X142945376Y-112097821D01*
X143022273Y-112151433D01*
X143076563Y-112216986D01*
X143109697Y-112297103D01*
X143123129Y-112394408D01*
X143123583Y-112419831D01*
X143112866Y-112522363D01*
X143080314Y-112609911D01*
X143024878Y-112684982D01*
X143004411Y-112704741D01*
X142930488Y-112754132D01*
X142842514Y-112784900D01*
X142747636Y-112795414D01*
X142655106Y-112784555D01*
X142562071Y-112750107D01*
X142488508Y-112696923D01*
X142435019Y-112625810D01*
X142402209Y-112537579D01*
X142390681Y-112433036D01*
X142390671Y-112430454D01*
X142396167Y-112373504D01*
X142458453Y-112373504D01*
X142464106Y-112467937D01*
X142483379Y-112545673D01*
X142518635Y-112614738D01*
X142537304Y-112641156D01*
X142598747Y-112703744D01*
X142670983Y-112747165D01*
X142748673Y-112769555D01*
X142826481Y-112769051D01*
X142870039Y-112757354D01*
X142919773Y-112728465D01*
X142970367Y-112682916D01*
X143013095Y-112629463D01*
X143032777Y-112594042D01*
X143056986Y-112509767D01*
X143059716Y-112421367D01*
X143043016Y-112333826D01*
X143008935Y-112252128D01*
X142959521Y-112181255D01*
X142896824Y-112126192D01*
X142826815Y-112093063D01*
X142734659Y-112077180D01*
X142651663Y-112085733D01*
X142580324Y-112116822D01*
X142523136Y-112168548D01*
X142482594Y-112239010D01*
X142461193Y-112326310D01*
X142458453Y-112373504D01*
X142396167Y-112373504D01*
X142400558Y-112328012D01*
X142431412Y-112241220D01*
X142484479Y-112167043D01*
X142508579Y-112143457D01*
X142566486Y-112100227D01*
X142629468Y-112073231D01*
X142705030Y-112060011D01*
X142770561Y-112057638D01*
X142829821Y-112059548D01*
G37*
G36*
X148052780Y-106783186D02*
G01*
X148495748Y-106786765D01*
X148499795Y-106879798D01*
X148500806Y-106930485D01*
X148497887Y-106958355D01*
X148490392Y-106967557D01*
X148486212Y-106967023D01*
X148470993Y-106950467D01*
X148464226Y-106928321D01*
X148457227Y-106901561D01*
X148441746Y-106882895D01*
X148413632Y-106870949D01*
X148368734Y-106864350D01*
X148302901Y-106861723D01*
X148262243Y-106861471D01*
X148108636Y-106861471D01*
X148108844Y-107279144D01*
X148109209Y-107383438D01*
X148110145Y-107479215D01*
X148111571Y-107563033D01*
X148113405Y-107631449D01*
X148115566Y-107681019D01*
X148117974Y-107708300D01*
X148119031Y-107712270D01*
X148137114Y-107726890D01*
X148170094Y-107744552D01*
X148182031Y-107749801D01*
X148212250Y-107765177D01*
X148226105Y-107777977D01*
X148225521Y-107781412D01*
X148208240Y-107786040D01*
X148171255Y-107789230D01*
X148120751Y-107791036D01*
X148062917Y-107791514D01*
X148003940Y-107790718D01*
X147950006Y-107788705D01*
X147907304Y-107785528D01*
X147882021Y-107781244D01*
X147877775Y-107778315D01*
X147888717Y-107764095D01*
X147916128Y-107744682D01*
X147928699Y-107737546D01*
X147979598Y-107710359D01*
X147983187Y-107285915D01*
X147986777Y-106861471D01*
X147840567Y-106861679D01*
X147778589Y-106862896D01*
X147725592Y-106866026D01*
X147688177Y-106870555D01*
X147674280Y-106874582D01*
X147656252Y-106895663D01*
X147640050Y-106929357D01*
X147639387Y-106931282D01*
X147624991Y-106962665D01*
X147609792Y-106980099D01*
X147608529Y-106980633D01*
X147596767Y-106972880D01*
X147592744Y-106939452D01*
X147596479Y-106880723D01*
X147601149Y-106842809D01*
X147609811Y-106779607D01*
X148052780Y-106783186D01*
G37*
G36*
X137599761Y-106784237D02*
G01*
X137699535Y-106814909D01*
X137752903Y-106841100D01*
X137794099Y-106860265D01*
X137828155Y-106867337D01*
X137835947Y-106866459D01*
X137849641Y-106865016D01*
X137858680Y-106872715D01*
X137864851Y-106894563D01*
X137869943Y-106935566D01*
X137873156Y-106970673D01*
X137877152Y-107037934D01*
X137874791Y-107079168D01*
X137865601Y-107094870D01*
X137849110Y-107085535D01*
X137824847Y-107051657D01*
X137813752Y-107032908D01*
X137747893Y-106940991D01*
X137669784Y-106873182D01*
X137580381Y-106829846D01*
X137480638Y-106811350D01*
X137371511Y-106818061D01*
X137298775Y-106835275D01*
X137220230Y-106872363D01*
X137154375Y-106930759D01*
X137102735Y-107007006D01*
X137066835Y-107097648D01*
X137048200Y-107199227D01*
X137048354Y-107308286D01*
X137058796Y-107379333D01*
X137093031Y-107492711D01*
X137144501Y-107587704D01*
X137211132Y-107662929D01*
X137290851Y-107717005D01*
X137381582Y-107748553D01*
X137481252Y-107756191D01*
X137587787Y-107738537D01*
X137595099Y-107736422D01*
X137692609Y-107696801D01*
X137773643Y-107639118D01*
X137817529Y-107593682D01*
X137845533Y-107563470D01*
X137866474Y-107545477D01*
X137874128Y-107543077D01*
X137875543Y-107559286D01*
X137871439Y-107593121D01*
X137866320Y-107620009D01*
X137845493Y-107681158D01*
X137816358Y-107717314D01*
X137766287Y-107745098D01*
X137695752Y-107768454D01*
X137611248Y-107786294D01*
X137519271Y-107797530D01*
X137426316Y-107801073D01*
X137344197Y-107796455D01*
X137232612Y-107771304D01*
X137134664Y-107723816D01*
X137052421Y-107656234D01*
X136987953Y-107570801D01*
X136943328Y-107469759D01*
X136920617Y-107355351D01*
X136919141Y-107335717D01*
X136924216Y-107215082D01*
X136952613Y-107102698D01*
X137002337Y-107001565D01*
X137071394Y-106914683D01*
X137157789Y-106845050D01*
X137259527Y-106795666D01*
X137283456Y-106787910D01*
X137382672Y-106769712D01*
X137491124Y-106768829D01*
X137599761Y-106784237D01*
G37*
G36*
X146687754Y-106780074D02*
G01*
X146784931Y-106780359D01*
X146869722Y-106780805D01*
X146938925Y-106781386D01*
X146989338Y-106782078D01*
X147017759Y-106782857D01*
X147022932Y-106783369D01*
X147024380Y-106797548D01*
X147027302Y-106831566D01*
X147031078Y-106878178D01*
X147031229Y-106880083D01*
X147034191Y-106930027D01*
X147032793Y-106957699D01*
X147026445Y-106967732D01*
X147020114Y-106967246D01*
X147002383Y-106950117D01*
X146996832Y-106935051D01*
X146988214Y-106905193D01*
X146972314Y-106884561D01*
X146944709Y-106871526D01*
X146900976Y-106864456D01*
X146836691Y-106861722D01*
X146797235Y-106861471D01*
X146729397Y-106862020D01*
X146683993Y-106864106D01*
X146656305Y-106868387D01*
X146641615Y-106875522D01*
X146635959Y-106883963D01*
X146633628Y-106903524D01*
X146631772Y-106945926D01*
X146630378Y-107006850D01*
X146629438Y-107081977D01*
X146628942Y-107166988D01*
X146628877Y-107257563D01*
X146629236Y-107349381D01*
X146630007Y-107438125D01*
X146631180Y-107519473D01*
X146632745Y-107589108D01*
X146634692Y-107642708D01*
X146637010Y-107675955D01*
X146637848Y-107681693D01*
X146651073Y-107712393D01*
X146680986Y-107734135D01*
X146697953Y-107741481D01*
X146735752Y-107758698D01*
X146750255Y-107771935D01*
X146740676Y-107781529D01*
X146706226Y-107787820D01*
X146646118Y-107791146D01*
X146580561Y-107791898D01*
X146506993Y-107790852D01*
X146452302Y-107787871D01*
X146419428Y-107783189D01*
X146410811Y-107778315D01*
X146421761Y-107764094D01*
X146449177Y-107744681D01*
X146461747Y-107737546D01*
X146512646Y-107710359D01*
X146516236Y-107285482D01*
X146519826Y-106860605D01*
X146360033Y-106864434D01*
X146200240Y-106868262D01*
X146169185Y-106933277D01*
X146147052Y-106971635D01*
X146129274Y-106988246D01*
X146118552Y-106982438D01*
X146117587Y-106953541D01*
X146118658Y-106945837D01*
X146123976Y-106909417D01*
X146130389Y-106861917D01*
X146132628Y-106844492D01*
X146140781Y-106779973D01*
X146581393Y-106779973D01*
X146687754Y-106780074D01*
G37*
G36*
X147612860Y-112057052D02*
G01*
X147659101Y-112063250D01*
X147698483Y-112067678D01*
X147711003Y-112068704D01*
X147726435Y-112070964D01*
X147737122Y-112079047D01*
X147745354Y-112098232D01*
X147753419Y-112133800D01*
X147763319Y-112189358D01*
X147765743Y-112226425D01*
X147757630Y-112239530D01*
X147741234Y-112228679D01*
X147718809Y-112193876D01*
X147716410Y-112189252D01*
X147679893Y-112138793D01*
X147633049Y-112103822D01*
X147580794Y-112084208D01*
X147528044Y-112079822D01*
X147479714Y-112090533D01*
X147440721Y-112116213D01*
X147415980Y-112156732D01*
X147409734Y-112197338D01*
X147415612Y-112241254D01*
X147435552Y-112277479D01*
X147473015Y-112309242D01*
X147531458Y-112339774D01*
X147585978Y-112361867D01*
X147675708Y-112403245D01*
X147739432Y-112450326D01*
X147777902Y-112504142D01*
X147791873Y-112565725D01*
X147783286Y-112631820D01*
X147753568Y-112692931D01*
X147703520Y-112741942D01*
X147638220Y-112776375D01*
X147562744Y-112793750D01*
X147482169Y-112791586D01*
X147463448Y-112788063D01*
X147410170Y-112773033D01*
X147376513Y-112752422D01*
X147354952Y-112719650D01*
X147341754Y-112681624D01*
X147327541Y-112629576D01*
X147321913Y-112598433D01*
X147324497Y-112583452D01*
X147333775Y-112579866D01*
X147346397Y-112591200D01*
X147363783Y-112619979D01*
X147372812Y-112638845D01*
X147409406Y-112696394D01*
X147457443Y-112736704D01*
X147512286Y-112760156D01*
X147569294Y-112767135D01*
X147623830Y-112758021D01*
X147671255Y-112733197D01*
X147706930Y-112693047D01*
X147726216Y-112637951D01*
X147728315Y-112609538D01*
X147719840Y-112566163D01*
X147692612Y-112528683D01*
X147643919Y-112494614D01*
X147571053Y-112461472D01*
X147563789Y-112458668D01*
X147483789Y-112425482D01*
X147426089Y-112394628D01*
X147386356Y-112363085D01*
X147360258Y-112327833D01*
X147352346Y-112311257D01*
X147337714Y-112246370D01*
X147347060Y-112186184D01*
X147377246Y-112133760D01*
X147425133Y-112092162D01*
X147487582Y-112064451D01*
X147561455Y-112053690D01*
X147612860Y-112057052D01*
G37*
G36*
X145031394Y-106773559D02*
G01*
X145136064Y-106778863D01*
X145221840Y-106795813D01*
X145295411Y-106826924D01*
X145363469Y-106874712D01*
X145406728Y-106914715D01*
X145467904Y-106985095D01*
X145509699Y-107057294D01*
X145534674Y-107138065D01*
X145545392Y-107234161D01*
X145546252Y-107282540D01*
X145539473Y-107390739D01*
X145518474Y-107481067D01*
X145481001Y-107560041D01*
X145424797Y-107634180D01*
X145424400Y-107634623D01*
X145341317Y-107707109D01*
X145241608Y-107759769D01*
X145128186Y-107791649D01*
X145003962Y-107801797D01*
X144927365Y-107797268D01*
X144826780Y-107773220D01*
X144732282Y-107725837D01*
X144649354Y-107658944D01*
X144583479Y-107576366D01*
X144565753Y-107545027D01*
X144532335Y-107455029D01*
X144514689Y-107352505D01*
X144512999Y-107246136D01*
X144514854Y-107233107D01*
X144619233Y-107233107D01*
X144625077Y-107333151D01*
X144648365Y-107431453D01*
X144689382Y-107524032D01*
X144748415Y-107606905D01*
X144784371Y-107643092D01*
X144870504Y-107704374D01*
X144964791Y-107742619D01*
X145062849Y-107756811D01*
X145160291Y-107745933D01*
X145190052Y-107737188D01*
X145271280Y-107696643D01*
X145338038Y-107634579D01*
X145392128Y-107549316D01*
X145392950Y-107547652D01*
X145431038Y-107440760D01*
X145444498Y-107329063D01*
X145434206Y-107217119D01*
X145401036Y-107109484D01*
X145345863Y-107010715D01*
X145274304Y-106929647D01*
X145224950Y-106890327D01*
X145172764Y-106857840D01*
X145138837Y-106842537D01*
X145068425Y-106826603D01*
X144989631Y-106821429D01*
X144913091Y-106826885D01*
X144849435Y-106842842D01*
X144841650Y-106846136D01*
X144764569Y-106895157D01*
X144703501Y-106962347D01*
X144658731Y-107043723D01*
X144630547Y-107135304D01*
X144619233Y-107233107D01*
X144514854Y-107233107D01*
X144527450Y-107144609D01*
X144555455Y-107062320D01*
X144607293Y-106972589D01*
X144670945Y-106902203D01*
X144752694Y-106844818D01*
X144791031Y-106824497D01*
X144840244Y-106800914D01*
X144878479Y-106785964D01*
X144914878Y-106777708D01*
X144958583Y-106774210D01*
X145018735Y-106773532D01*
X145031394Y-106773559D01*
G37*
G36*
X140479157Y-112066367D02*
G01*
X140498261Y-112069061D01*
X140498987Y-112069540D01*
X140495055Y-112082063D01*
X140476740Y-112100730D01*
X140463315Y-112119626D01*
X140440954Y-112160276D01*
X140411264Y-112219397D01*
X140375852Y-112293708D01*
X140336323Y-112379925D01*
X140298904Y-112464190D01*
X140259494Y-112553496D01*
X140223224Y-112634265D01*
X140191603Y-112703251D01*
X140166139Y-112757207D01*
X140148340Y-112792888D01*
X140139716Y-112807047D01*
X140139542Y-112807135D01*
X140131498Y-112796152D01*
X140114276Y-112763353D01*
X140089370Y-112711904D01*
X140058276Y-112644970D01*
X140022491Y-112565718D01*
X139983509Y-112477312D01*
X139981156Y-112471913D01*
X139934994Y-112366459D01*
X139897745Y-112283156D01*
X139867780Y-112219115D01*
X139843475Y-112171450D01*
X139823200Y-112137274D01*
X139805331Y-112113697D01*
X139788240Y-112097833D01*
X139770301Y-112086795D01*
X139761951Y-112082826D01*
X139755848Y-112076230D01*
X139772513Y-112071358D01*
X139813727Y-112067847D01*
X139841715Y-112066577D01*
X139906466Y-112065600D01*
X139945256Y-112068760D01*
X139959013Y-112076296D01*
X139948659Y-112088450D01*
X139941811Y-112092576D01*
X139922066Y-112112945D01*
X139918154Y-112126482D01*
X139923438Y-112146903D01*
X139937987Y-112185766D01*
X139959853Y-112238823D01*
X139987085Y-112301826D01*
X140017733Y-112370526D01*
X140049846Y-112440675D01*
X140081474Y-112508023D01*
X140110667Y-112568324D01*
X140135474Y-112617327D01*
X140153946Y-112650785D01*
X140164131Y-112664449D01*
X140165071Y-112664372D01*
X140175990Y-112645754D01*
X140194108Y-112606580D01*
X140217464Y-112551870D01*
X140244098Y-112486642D01*
X140272052Y-112415917D01*
X140299364Y-112344713D01*
X140324075Y-112278051D01*
X140344226Y-112220950D01*
X140357855Y-112178428D01*
X140362786Y-112157998D01*
X140365333Y-112122580D01*
X140357175Y-112103128D01*
X140333496Y-112089091D01*
X140330781Y-112087883D01*
X140312782Y-112079055D01*
X140310329Y-112073527D01*
X140326777Y-112070128D01*
X140365477Y-112067684D01*
X140391795Y-112066554D01*
X140441227Y-112065463D01*
X140479157Y-112066367D01*
G37*
G36*
X148783658Y-112058183D02*
G01*
X148889949Y-112082470D01*
X148911418Y-112090161D01*
X148953031Y-112103692D01*
X148985668Y-112110238D01*
X148997459Y-112109706D01*
X149008646Y-112115062D01*
X149017290Y-112142657D01*
X149023500Y-112187517D01*
X149027320Y-112232278D01*
X149028488Y-112264839D01*
X149027056Y-112277204D01*
X149017507Y-112270204D01*
X148999764Y-112246366D01*
X148991847Y-112234026D01*
X148941268Y-112174989D01*
X148872556Y-112126164D01*
X148794155Y-112092148D01*
X148714509Y-112077535D01*
X148703819Y-112077299D01*
X148628859Y-112088579D01*
X148563054Y-112123620D01*
X148513314Y-112171407D01*
X148465393Y-112247040D01*
X148439399Y-112332260D01*
X148434296Y-112422136D01*
X148449050Y-112511735D01*
X148482626Y-112596128D01*
X148533991Y-112670381D01*
X148602110Y-112729564D01*
X148634298Y-112748156D01*
X148695052Y-112767108D01*
X148761510Y-112769204D01*
X148826965Y-112756330D01*
X148884711Y-112730369D01*
X148928042Y-112693207D01*
X148946612Y-112660391D01*
X148961553Y-112598538D01*
X148963914Y-112540594D01*
X148954768Y-112491950D01*
X148935185Y-112457995D01*
X148906240Y-112444119D01*
X148903571Y-112444037D01*
X148877884Y-112439429D01*
X148869277Y-112430454D01*
X148882027Y-112423796D01*
X148917026Y-112419187D01*
X148969395Y-112417204D01*
X148981336Y-112417174D01*
X149035912Y-112417542D01*
X149067195Y-112419099D01*
X149079060Y-112423068D01*
X149075381Y-112430671D01*
X149061058Y-112442341D01*
X149045177Y-112456761D01*
X149035722Y-112474372D01*
X149031224Y-112501880D01*
X149030215Y-112545989D01*
X149030641Y-112581264D01*
X149032562Y-112695321D01*
X148930886Y-112739944D01*
X148842804Y-112771074D01*
X148753768Y-112789160D01*
X148671916Y-112793022D01*
X148617994Y-112785322D01*
X148533235Y-112749910D01*
X148459759Y-112693735D01*
X148403545Y-112621913D01*
X148385814Y-112586658D01*
X148367328Y-112517074D01*
X148362252Y-112434871D01*
X148370326Y-112350908D01*
X148391292Y-112276041D01*
X148393346Y-112271167D01*
X148443226Y-112187252D01*
X148510007Y-112123015D01*
X148590878Y-112079437D01*
X148683032Y-112057499D01*
X148783658Y-112058183D01*
G37*
G36*
X143435135Y-106781570D02*
G01*
X143491216Y-106786275D01*
X143521646Y-106793957D01*
X143526005Y-106804486D01*
X143503871Y-106817732D01*
X143491186Y-106822502D01*
X143457545Y-106840178D01*
X143435835Y-106862006D01*
X143432134Y-106882428D01*
X143428911Y-106927199D01*
X143426254Y-106993507D01*
X143424248Y-107078538D01*
X143422981Y-107179479D01*
X143422539Y-107293516D01*
X143422539Y-107293567D01*
X143422707Y-107411733D01*
X143423303Y-107505586D01*
X143424465Y-107577977D01*
X143426333Y-107631755D01*
X143429044Y-107669773D01*
X143432737Y-107694879D01*
X143437550Y-107709927D01*
X143443126Y-107717369D01*
X143464984Y-107726032D01*
X143505833Y-107729744D01*
X143569142Y-107728754D01*
X143589142Y-107727788D01*
X143699226Y-107714724D01*
X143790287Y-107688691D01*
X143859986Y-107650479D01*
X143885389Y-107627806D01*
X143909628Y-107605273D01*
X143926733Y-107595007D01*
X143927474Y-107594946D01*
X143938279Y-107604558D01*
X143935217Y-107629525D01*
X143921461Y-107664047D01*
X143900184Y-107702324D01*
X143874561Y-107738556D01*
X143847764Y-107766943D01*
X143825777Y-107780812D01*
X143803025Y-107784284D01*
X143759371Y-107787069D01*
X143699564Y-107789168D01*
X143628357Y-107790580D01*
X143550501Y-107791306D01*
X143470748Y-107791344D01*
X143393849Y-107790697D01*
X143324555Y-107789363D01*
X143267618Y-107787342D01*
X143227790Y-107784635D01*
X143209821Y-107781241D01*
X143209371Y-107780807D01*
X143206425Y-107767964D01*
X143207249Y-107767225D01*
X143221361Y-107759954D01*
X143249386Y-107745571D01*
X143252593Y-107743927D01*
X143283428Y-107720354D01*
X143299790Y-107683986D01*
X143302913Y-107669222D01*
X143306336Y-107636360D01*
X143308988Y-107582952D01*
X143310893Y-107513326D01*
X143312075Y-107431816D01*
X143312559Y-107342752D01*
X143312370Y-107250466D01*
X143311532Y-107159288D01*
X143310069Y-107073551D01*
X143308006Y-106997586D01*
X143305367Y-106935724D01*
X143302178Y-106892296D01*
X143298461Y-106871634D01*
X143298403Y-106871521D01*
X143276871Y-106848966D01*
X143242617Y-106828172D01*
X143238077Y-106826181D01*
X143204521Y-106809724D01*
X143193565Y-106797303D01*
X143206188Y-106788528D01*
X143243367Y-106783008D01*
X143306081Y-106780354D01*
X143353823Y-106779973D01*
X143435135Y-106781570D01*
G37*
G36*
X140831961Y-112046151D02*
G01*
X140838540Y-112058149D01*
X140847147Y-112077752D01*
X140863993Y-112118843D01*
X140887540Y-112177566D01*
X140916248Y-112250063D01*
X140948577Y-112332479D01*
X140970868Y-112389706D01*
X141013774Y-112498671D01*
X141049114Y-112584514D01*
X141078264Y-112649766D01*
X141102600Y-112696958D01*
X141123497Y-112728620D01*
X141142329Y-112747283D01*
X141160472Y-112755479D01*
X141170148Y-112756444D01*
X141190900Y-112762614D01*
X141194946Y-112770027D01*
X141182123Y-112776535D01*
X141146629Y-112781178D01*
X141092922Y-112783459D01*
X141072700Y-112783610D01*
X141011803Y-112781882D01*
X140970346Y-112777134D01*
X140950321Y-112770016D01*
X140953716Y-112761179D01*
X140977620Y-112752508D01*
X140997621Y-112739955D01*
X141003270Y-112714450D01*
X140994314Y-112672968D01*
X140970501Y-112612484D01*
X140964888Y-112599942D01*
X140924992Y-112511952D01*
X140788506Y-112511952D01*
X140652021Y-112511952D01*
X140610287Y-112594627D01*
X140583255Y-112656718D01*
X140574468Y-112701587D01*
X140583873Y-112732095D01*
X140607486Y-112749478D01*
X140633222Y-112764207D01*
X140633096Y-112774680D01*
X140606775Y-112781073D01*
X140553928Y-112783562D01*
X140542967Y-112783610D01*
X140496100Y-112782636D01*
X140462141Y-112780074D01*
X140447961Y-112776462D01*
X140447887Y-112776167D01*
X140457025Y-112763024D01*
X140479275Y-112741025D01*
X140481756Y-112738814D01*
X140498197Y-112716575D01*
X140523672Y-112671899D01*
X140556825Y-112607450D01*
X140596303Y-112525892D01*
X140624646Y-112464672D01*
X140678796Y-112464672D01*
X140691306Y-112467705D01*
X140724551Y-112469989D01*
X140772103Y-112471138D01*
X140787459Y-112471203D01*
X140843795Y-112470148D01*
X140877577Y-112466440D01*
X140893354Y-112459264D01*
X140896122Y-112451755D01*
X140891499Y-112429953D01*
X140879426Y-112390929D01*
X140862594Y-112342039D01*
X140843696Y-112290638D01*
X140825425Y-112244080D01*
X140810473Y-112209722D01*
X140802338Y-112195556D01*
X140794439Y-112203898D01*
X140778925Y-112231408D01*
X140758527Y-112272136D01*
X140735977Y-112320133D01*
X140714007Y-112369447D01*
X140695348Y-112414129D01*
X140682731Y-112448228D01*
X140678796Y-112464672D01*
X140624646Y-112464672D01*
X140640750Y-112429889D01*
X140656104Y-112395878D01*
X140695207Y-112308989D01*
X140731256Y-112229339D01*
X140762575Y-112160600D01*
X140787484Y-112106443D01*
X140804308Y-112070538D01*
X140810756Y-112057530D01*
X140822705Y-112039829D01*
X140831961Y-112046151D01*
G37*
G36*
X146012325Y-112064748D02*
G01*
X146079522Y-112067252D01*
X146141426Y-112071382D01*
X146192638Y-112077118D01*
X146203270Y-112078824D01*
X146299984Y-112107226D01*
X146378228Y-112155543D01*
X146438028Y-112223792D01*
X146454420Y-112252032D01*
X146485816Y-112339782D01*
X146493351Y-112430899D01*
X146478686Y-112520580D01*
X146443480Y-112604021D01*
X146389396Y-112676419D01*
X146318092Y-112732969D01*
X146281737Y-112751574D01*
X146250865Y-112761881D01*
X146209312Y-112769561D01*
X146152476Y-112775129D01*
X146075759Y-112779102D01*
X146020267Y-112780879D01*
X145948762Y-112782094D01*
X145887940Y-112781735D01*
X145842453Y-112779942D01*
X145816951Y-112776853D01*
X145813128Y-112774699D01*
X145824086Y-112760846D01*
X145843689Y-112749478D01*
X145853674Y-112744371D01*
X145861257Y-112736642D01*
X145866824Y-112722788D01*
X145870760Y-112699303D01*
X145873450Y-112662683D01*
X145875282Y-112609423D01*
X145876641Y-112536020D01*
X145877564Y-112465526D01*
X145946812Y-112465526D01*
X145948348Y-112542222D01*
X145951482Y-112610623D01*
X145956229Y-112665710D01*
X145962606Y-112702463D01*
X145968462Y-112714974D01*
X146014258Y-112739020D01*
X146080431Y-112751057D01*
X146155510Y-112752160D01*
X146211693Y-112747898D01*
X146252604Y-112737756D01*
X146290030Y-112718277D01*
X146304922Y-112708311D01*
X146351015Y-112667035D01*
X146389140Y-112616901D01*
X146394754Y-112606850D01*
X146411104Y-112570925D01*
X146419884Y-112536492D01*
X146422579Y-112493890D01*
X146420869Y-112437246D01*
X146406972Y-112335279D01*
X146375391Y-112252649D01*
X146324510Y-112186790D01*
X146252714Y-112135134D01*
X146220614Y-112119147D01*
X146168691Y-112102147D01*
X146109667Y-112092635D01*
X146051672Y-112090836D01*
X146002838Y-112096975D01*
X145971294Y-112111278D01*
X145970301Y-112112227D01*
X145962569Y-112133290D01*
X145956344Y-112176173D01*
X145951640Y-112235858D01*
X145948473Y-112307324D01*
X145946859Y-112385553D01*
X145946812Y-112465526D01*
X145877564Y-112465526D01*
X145877912Y-112438968D01*
X145877917Y-112438614D01*
X145878928Y-112339794D01*
X145879064Y-112264546D01*
X145878112Y-112209286D01*
X145875861Y-112170428D01*
X145872098Y-112144388D01*
X145866612Y-112127580D01*
X145859190Y-112116419D01*
X145858833Y-112116021D01*
X145831510Y-112096341D01*
X145811022Y-112090882D01*
X145790120Y-112084770D01*
X145785962Y-112077299D01*
X145798617Y-112071380D01*
X145832981Y-112067185D01*
X145883654Y-112064695D01*
X145945235Y-112063889D01*
X146012325Y-112064748D01*
G37*
G36*
X147144251Y-112103354D02*
G01*
X147139935Y-112148761D01*
X147128399Y-112178123D01*
X147115632Y-112185962D01*
X147105510Y-112174670D01*
X147103502Y-112160902D01*
X147096184Y-112129921D01*
X147072235Y-112108808D01*
X147028662Y-112096311D01*
X146962472Y-112091176D01*
X146936301Y-112090882D01*
X146882192Y-112091183D01*
X146845033Y-112094925D01*
X146821831Y-112106373D01*
X146809590Y-112129787D01*
X146805315Y-112169431D01*
X146806013Y-112229567D01*
X146807475Y-112274251D01*
X146811470Y-112396497D01*
X146899339Y-112400618D01*
X146966847Y-112401812D01*
X147012170Y-112397007D01*
X147039879Y-112384899D01*
X147054547Y-112364181D01*
X147057227Y-112355542D01*
X147067605Y-112326633D01*
X147076957Y-112322982D01*
X147084368Y-112342678D01*
X147088922Y-112383812D01*
X147089919Y-112423663D01*
X147087869Y-112478467D01*
X147082330Y-112513149D01*
X147074218Y-112525799D01*
X147064449Y-112514509D01*
X147057227Y-112491784D01*
X147045760Y-112468043D01*
X147022711Y-112453328D01*
X146983509Y-112446334D01*
X146923581Y-112445754D01*
X146899339Y-112446708D01*
X146811470Y-112450829D01*
X146807565Y-112576413D01*
X146806454Y-112649338D01*
X146810151Y-112699436D01*
X146821204Y-112730950D01*
X146842160Y-112748123D01*
X146875567Y-112755198D01*
X146915639Y-112756444D01*
X147012693Y-112748618D01*
X147089767Y-112724655D01*
X147146961Y-112685998D01*
X147176891Y-112659070D01*
X147192267Y-112649946D01*
X147197886Y-112657362D01*
X147198582Y-112672405D01*
X147189288Y-112696787D01*
X147166091Y-112727588D01*
X147156980Y-112736924D01*
X147115377Y-112776818D01*
X146892113Y-112781128D01*
X146817693Y-112781917D01*
X146753789Y-112781357D01*
X146704883Y-112779590D01*
X146675458Y-112776754D01*
X146668849Y-112774162D01*
X146679796Y-112760729D01*
X146699411Y-112749478D01*
X146709345Y-112744405D01*
X146716901Y-112736737D01*
X146722460Y-112722990D01*
X146726401Y-112699683D01*
X146729101Y-112663334D01*
X146730940Y-112610460D01*
X146732297Y-112537581D01*
X146733550Y-112441214D01*
X146733625Y-112435077D01*
X146734612Y-112335214D01*
X146734706Y-112259034D01*
X146733713Y-112203065D01*
X146731440Y-112163833D01*
X146727693Y-112137866D01*
X146722281Y-112121690D01*
X146715676Y-112112483D01*
X146686813Y-112094806D01*
X146667879Y-112090882D01*
X146646340Y-112085006D01*
X146641684Y-112077299D01*
X146654964Y-112072161D01*
X146693637Y-112068155D01*
X146755947Y-112065376D01*
X146840140Y-112063920D01*
X146892967Y-112063717D01*
X147144251Y-112063717D01*
X147144251Y-112103354D01*
G37*
G36*
X137862241Y-112065219D02*
G01*
X137902058Y-112069350D01*
X137920684Y-112075549D01*
X137921470Y-112077299D01*
X137910502Y-112089428D01*
X137901573Y-112090882D01*
X137887165Y-112094040D01*
X137875891Y-112105403D01*
X137867385Y-112127810D01*
X137861282Y-112164095D01*
X137857216Y-112217096D01*
X137854822Y-112289649D01*
X137853735Y-112384591D01*
X137853555Y-112463519D01*
X137853061Y-112556013D01*
X137851666Y-112637349D01*
X137849503Y-112704021D01*
X137846708Y-112752526D01*
X137843412Y-112779357D01*
X137841373Y-112783610D01*
X137829455Y-112773828D01*
X137802168Y-112746278D01*
X137762015Y-112703652D01*
X137711498Y-112648641D01*
X137653119Y-112583936D01*
X137595135Y-112518743D01*
X137532121Y-112447645D01*
X137475144Y-112383760D01*
X137426622Y-112329767D01*
X137388975Y-112288346D01*
X137364620Y-112262178D01*
X137356034Y-112253877D01*
X137354404Y-112266737D01*
X137352994Y-112302426D01*
X137351894Y-112356609D01*
X137351197Y-112424948D01*
X137350989Y-112492757D01*
X137350989Y-112731638D01*
X137391737Y-112747019D01*
X137423263Y-112761698D01*
X137429118Y-112772470D01*
X137408938Y-112779533D01*
X137362356Y-112783082D01*
X137323823Y-112783610D01*
X137273360Y-112782417D01*
X137235361Y-112779247D01*
X137216251Y-112774713D01*
X137215160Y-112773248D01*
X137226068Y-112760479D01*
X137245480Y-112749478D01*
X137267632Y-112736916D01*
X137284159Y-112719071D01*
X137295768Y-112692268D01*
X137303164Y-112652833D01*
X137307053Y-112597094D01*
X137308140Y-112521375D01*
X137307227Y-112428016D01*
X137305603Y-112340572D01*
X137303554Y-112275927D01*
X137300578Y-112229715D01*
X137296171Y-112197571D01*
X137289834Y-112175127D01*
X137281064Y-112158018D01*
X137275217Y-112149567D01*
X137247074Y-112118984D01*
X137218208Y-112098183D01*
X137217490Y-112097849D01*
X137192151Y-112082094D01*
X137193083Y-112070660D01*
X137219600Y-112064510D01*
X137241809Y-112063717D01*
X137258041Y-112064267D01*
X137273165Y-112067391D01*
X137289574Y-112075292D01*
X137309661Y-112090179D01*
X137335819Y-112114256D01*
X137370441Y-112149730D01*
X137415919Y-112198807D01*
X137474647Y-112263693D01*
X137549017Y-112346594D01*
X137550820Y-112348606D01*
X137806015Y-112633496D01*
X137809743Y-112408876D01*
X137810630Y-112312204D01*
X137809065Y-112239015D01*
X137804171Y-112185669D01*
X137795067Y-112148530D01*
X137780875Y-112123959D01*
X137760717Y-112108319D01*
X137734705Y-112098261D01*
X137700587Y-112085568D01*
X137693175Y-112075618D01*
X137712135Y-112068571D01*
X137757130Y-112064591D01*
X137806015Y-112063717D01*
X137862241Y-112065219D01*
G37*
G36*
X138717963Y-112065219D02*
G01*
X138757780Y-112069350D01*
X138776406Y-112075549D01*
X138777192Y-112077299D01*
X138766224Y-112089428D01*
X138757295Y-112090882D01*
X138742887Y-112094040D01*
X138731613Y-112105403D01*
X138723107Y-112127810D01*
X138717004Y-112164095D01*
X138712938Y-112217096D01*
X138710544Y-112289649D01*
X138709457Y-112384591D01*
X138709277Y-112463519D01*
X138708783Y-112556013D01*
X138707387Y-112637349D01*
X138705225Y-112704021D01*
X138702429Y-112752526D01*
X138699133Y-112779357D01*
X138697095Y-112783610D01*
X138685177Y-112773828D01*
X138657890Y-112746278D01*
X138617737Y-112703652D01*
X138567220Y-112648641D01*
X138508841Y-112583936D01*
X138450857Y-112518743D01*
X138387843Y-112447645D01*
X138330866Y-112383760D01*
X138282344Y-112329767D01*
X138244697Y-112288346D01*
X138220342Y-112262178D01*
X138211756Y-112253877D01*
X138210126Y-112266737D01*
X138208716Y-112302426D01*
X138207616Y-112356609D01*
X138206919Y-112424948D01*
X138206710Y-112492757D01*
X138206710Y-112731638D01*
X138247459Y-112747019D01*
X138278985Y-112761698D01*
X138284840Y-112772470D01*
X138264660Y-112779533D01*
X138218078Y-112783082D01*
X138179545Y-112783610D01*
X138129082Y-112782417D01*
X138091082Y-112779247D01*
X138071973Y-112774713D01*
X138070882Y-112773248D01*
X138081790Y-112760479D01*
X138101202Y-112749478D01*
X138123354Y-112736916D01*
X138139881Y-112719071D01*
X138151490Y-112692268D01*
X138158886Y-112652833D01*
X138162775Y-112597094D01*
X138163862Y-112521375D01*
X138162949Y-112428016D01*
X138161325Y-112340572D01*
X138159276Y-112275927D01*
X138156299Y-112229715D01*
X138151893Y-112197571D01*
X138145556Y-112175127D01*
X138136786Y-112158018D01*
X138130939Y-112149567D01*
X138102796Y-112118984D01*
X138073930Y-112098183D01*
X138073212Y-112097849D01*
X138047873Y-112082094D01*
X138048805Y-112070660D01*
X138075322Y-112064510D01*
X138097531Y-112063717D01*
X138113763Y-112064267D01*
X138128887Y-112067391D01*
X138145296Y-112075292D01*
X138165383Y-112090179D01*
X138191541Y-112114256D01*
X138226163Y-112149730D01*
X138271641Y-112198807D01*
X138330369Y-112263693D01*
X138404739Y-112346594D01*
X138406542Y-112348606D01*
X138661737Y-112633496D01*
X138665465Y-112408876D01*
X138666352Y-112312204D01*
X138664787Y-112239015D01*
X138659893Y-112185669D01*
X138650789Y-112148530D01*
X138636597Y-112123959D01*
X138616439Y-112108319D01*
X138590427Y-112098261D01*
X138556309Y-112085568D01*
X138548897Y-112075618D01*
X138567857Y-112068571D01*
X138612852Y-112064591D01*
X138661737Y-112063717D01*
X138717963Y-112065219D01*
G37*
G36*
X143920209Y-112065219D02*
G01*
X143960026Y-112069350D01*
X143978652Y-112075549D01*
X143979438Y-112077299D01*
X143968470Y-112089428D01*
X143959541Y-112090882D01*
X143945133Y-112094040D01*
X143933859Y-112105403D01*
X143925353Y-112127810D01*
X143919250Y-112164095D01*
X143915184Y-112217096D01*
X143912790Y-112289649D01*
X143911703Y-112384591D01*
X143911523Y-112463519D01*
X143911029Y-112556013D01*
X143909633Y-112637349D01*
X143907471Y-112704021D01*
X143904675Y-112752526D01*
X143901379Y-112779357D01*
X143899341Y-112783610D01*
X143887423Y-112773828D01*
X143860136Y-112746278D01*
X143819983Y-112703652D01*
X143769466Y-112648641D01*
X143711087Y-112583936D01*
X143653103Y-112518743D01*
X143590089Y-112447645D01*
X143533112Y-112383760D01*
X143484590Y-112329767D01*
X143446943Y-112288346D01*
X143422588Y-112262178D01*
X143414002Y-112253877D01*
X143412372Y-112266737D01*
X143410962Y-112302426D01*
X143409862Y-112356609D01*
X143409165Y-112424948D01*
X143408956Y-112492757D01*
X143408956Y-112731638D01*
X143449705Y-112747019D01*
X143481231Y-112761698D01*
X143487086Y-112772470D01*
X143466906Y-112779533D01*
X143420323Y-112783082D01*
X143381791Y-112783610D01*
X143331328Y-112782417D01*
X143293328Y-112779247D01*
X143274219Y-112774713D01*
X143273128Y-112773248D01*
X143284036Y-112760479D01*
X143303448Y-112749478D01*
X143325600Y-112736916D01*
X143342127Y-112719071D01*
X143353736Y-112692268D01*
X143361132Y-112652833D01*
X143365021Y-112597094D01*
X143366108Y-112521375D01*
X143365195Y-112428016D01*
X143363571Y-112340572D01*
X143361522Y-112275927D01*
X143358545Y-112229715D01*
X143354139Y-112197571D01*
X143347802Y-112175127D01*
X143339032Y-112158018D01*
X143333185Y-112149567D01*
X143305042Y-112118984D01*
X143276176Y-112098183D01*
X143275458Y-112097849D01*
X143250119Y-112082094D01*
X143251051Y-112070660D01*
X143277568Y-112064510D01*
X143299777Y-112063717D01*
X143316009Y-112064267D01*
X143331133Y-112067391D01*
X143347542Y-112075292D01*
X143367629Y-112090179D01*
X143393787Y-112114256D01*
X143428409Y-112149730D01*
X143473887Y-112198807D01*
X143532615Y-112263693D01*
X143606985Y-112346594D01*
X143608788Y-112348606D01*
X143863983Y-112633496D01*
X143867711Y-112408876D01*
X143868598Y-112312204D01*
X143867033Y-112239015D01*
X143862139Y-112185669D01*
X143853035Y-112148530D01*
X143838843Y-112123959D01*
X143818685Y-112108319D01*
X143792673Y-112098261D01*
X143758555Y-112085568D01*
X143751143Y-112075618D01*
X143770103Y-112068571D01*
X143815098Y-112064591D01*
X143863983Y-112063717D01*
X143920209Y-112065219D01*
G37*
G36*
X149883097Y-112065219D02*
G01*
X149922913Y-112069350D01*
X149941539Y-112075549D01*
X149942325Y-112077299D01*
X149931358Y-112089428D01*
X149922429Y-112090882D01*
X149908021Y-112094040D01*
X149896746Y-112105403D01*
X149888240Y-112127810D01*
X149882137Y-112164095D01*
X149878072Y-112217096D01*
X149875678Y-112289649D01*
X149874591Y-112384591D01*
X149874411Y-112463519D01*
X149873916Y-112556013D01*
X149872521Y-112637349D01*
X149870359Y-112704021D01*
X149867563Y-112752526D01*
X149864267Y-112779357D01*
X149862229Y-112783610D01*
X149850310Y-112773828D01*
X149823023Y-112746278D01*
X149782870Y-112703652D01*
X149732353Y-112648641D01*
X149673975Y-112583936D01*
X149615990Y-112518743D01*
X149552977Y-112447645D01*
X149496000Y-112383760D01*
X149447478Y-112329767D01*
X149409830Y-112288346D01*
X149385476Y-112262178D01*
X149376889Y-112253877D01*
X149375260Y-112266737D01*
X149373850Y-112302426D01*
X149372750Y-112356609D01*
X149372052Y-112424948D01*
X149371844Y-112492757D01*
X149371844Y-112731638D01*
X149412593Y-112747019D01*
X149444119Y-112761698D01*
X149449974Y-112772470D01*
X149429794Y-112779533D01*
X149383211Y-112783082D01*
X149344678Y-112783610D01*
X149294216Y-112782417D01*
X149256216Y-112779247D01*
X149237106Y-112774713D01*
X149236015Y-112773248D01*
X149246924Y-112760479D01*
X149266336Y-112749478D01*
X149288487Y-112736916D01*
X149305015Y-112719071D01*
X149316624Y-112692268D01*
X149324020Y-112652833D01*
X149327909Y-112597094D01*
X149328996Y-112521375D01*
X149328083Y-112428016D01*
X149326459Y-112340572D01*
X149324410Y-112275927D01*
X149321433Y-112229715D01*
X149317027Y-112197571D01*
X149310690Y-112175127D01*
X149301919Y-112158018D01*
X149296073Y-112149567D01*
X149267929Y-112118984D01*
X149239064Y-112098183D01*
X149238345Y-112097849D01*
X149213006Y-112082094D01*
X149213939Y-112070660D01*
X149240456Y-112064510D01*
X149262665Y-112063717D01*
X149278897Y-112064267D01*
X149294021Y-112067391D01*
X149310430Y-112075292D01*
X149330517Y-112090179D01*
X149356675Y-112114256D01*
X149391297Y-112149730D01*
X149436775Y-112198807D01*
X149495503Y-112263693D01*
X149569873Y-112346594D01*
X149571676Y-112348606D01*
X149826871Y-112633496D01*
X149830599Y-112408876D01*
X149831486Y-112312204D01*
X149829921Y-112239015D01*
X149825026Y-112185669D01*
X149815923Y-112148530D01*
X149801731Y-112123959D01*
X149781573Y-112108319D01*
X149755561Y-112098261D01*
X149721442Y-112085568D01*
X149714031Y-112075618D01*
X149732991Y-112068571D01*
X149777986Y-112064591D01*
X149826871Y-112063717D01*
X149883097Y-112065219D01*
G37*
G36*
X149748697Y-106869515D02*
G01*
X149742908Y-106917655D01*
X149734848Y-106955436D01*
X149726908Y-106973658D01*
X149716397Y-106980532D01*
X149708233Y-106973033D01*
X149699816Y-106946628D01*
X149692016Y-106912798D01*
X149681942Y-106886190D01*
X149662517Y-106867344D01*
X149629631Y-106854924D01*
X149579174Y-106847590D01*
X149507038Y-106844006D01*
X149478973Y-106843436D01*
X149410260Y-106843091D01*
X149364019Y-106844965D01*
X149335611Y-106849573D01*
X149320397Y-106857433D01*
X149317050Y-106861471D01*
X149312358Y-106882197D01*
X149308952Y-106924228D01*
X149307121Y-106981721D01*
X149307153Y-107048831D01*
X149307318Y-107058422D01*
X149310721Y-107235000D01*
X149436305Y-107238905D01*
X149510386Y-107239318D01*
X149562388Y-107234092D01*
X149597100Y-107221610D01*
X149619308Y-107200260D01*
X149632321Y-107172825D01*
X149646228Y-107141323D01*
X149656945Y-107136021D01*
X149664544Y-107157118D01*
X149669094Y-107204815D01*
X149670666Y-107279315D01*
X149670668Y-107282540D01*
X149669446Y-107352249D01*
X149665950Y-107401690D01*
X149660431Y-107428160D01*
X149656745Y-107431952D01*
X149644575Y-107420215D01*
X149634830Y-107391987D01*
X149634812Y-107391897D01*
X149624440Y-107356654D01*
X149606890Y-107333001D01*
X149577491Y-107318990D01*
X149531577Y-107312671D01*
X149464480Y-107312095D01*
X149444914Y-107312588D01*
X149310721Y-107316497D01*
X149306951Y-107501917D01*
X149305588Y-107586640D01*
X149307255Y-107647847D01*
X149314630Y-107689184D01*
X149330388Y-107714298D01*
X149357206Y-107726838D01*
X149397761Y-107730449D01*
X149454728Y-107728779D01*
X149472802Y-107727918D01*
X149582046Y-107715192D01*
X149672819Y-107688815D01*
X149742634Y-107649633D01*
X149766779Y-107627806D01*
X149796008Y-107601312D01*
X149813115Y-107598162D01*
X149819825Y-107618324D01*
X149820079Y-107626866D01*
X149811801Y-107656289D01*
X149790976Y-107696115D01*
X149763619Y-107736908D01*
X149735745Y-107769235D01*
X149722501Y-107779909D01*
X149704476Y-107783106D01*
X149664586Y-107785817D01*
X149607523Y-107788018D01*
X149537976Y-107789686D01*
X149460639Y-107790799D01*
X149380203Y-107791332D01*
X149301358Y-107791262D01*
X149228797Y-107790567D01*
X149167211Y-107789222D01*
X149121291Y-107787205D01*
X149095729Y-107784492D01*
X149092119Y-107783041D01*
X149099080Y-107771384D01*
X149123118Y-107752983D01*
X149133725Y-107746405D01*
X149166157Y-107720859D01*
X149186719Y-107692875D01*
X149188653Y-107687348D01*
X149190543Y-107666021D01*
X149191990Y-107621303D01*
X149192959Y-107556963D01*
X149193415Y-107476772D01*
X149193325Y-107384502D01*
X149192654Y-107283922D01*
X149192487Y-107266965D01*
X149191194Y-107153125D01*
X149189787Y-107063322D01*
X149188045Y-106994427D01*
X149185751Y-106943311D01*
X149182684Y-106906845D01*
X149178626Y-106881901D01*
X149173357Y-106865349D01*
X149166659Y-106854062D01*
X149163287Y-106850050D01*
X149134171Y-106827400D01*
X149110019Y-106818085D01*
X149084685Y-106807460D01*
X149076348Y-106796952D01*
X149080187Y-106791523D01*
X149097363Y-106787306D01*
X149130365Y-106784176D01*
X149181679Y-106782009D01*
X149253795Y-106780677D01*
X149349199Y-106780057D01*
X149413321Y-106779973D01*
X149755884Y-106779973D01*
X149748697Y-106869515D01*
G37*
G36*
X140638495Y-106770316D02*
G01*
X140655245Y-106805989D01*
X140679568Y-106861287D01*
X140710264Y-106933388D01*
X140746132Y-107019470D01*
X140785972Y-107116712D01*
X140828583Y-107222291D01*
X140830676Y-107227516D01*
X140873843Y-107334489D01*
X140914713Y-107434171D01*
X140952009Y-107523571D01*
X140984456Y-107599698D01*
X141010781Y-107659563D01*
X141029708Y-107700173D01*
X141039962Y-107718539D01*
X141040030Y-107718615D01*
X141069248Y-107738731D01*
X141108119Y-107752315D01*
X141109113Y-107752507D01*
X141138466Y-107761907D01*
X141150752Y-107773788D01*
X141150513Y-107775785D01*
X141135831Y-107782330D01*
X141100905Y-107787170D01*
X141052023Y-107790297D01*
X140995471Y-107791702D01*
X140937536Y-107791377D01*
X140884505Y-107789312D01*
X140842664Y-107785499D01*
X140818301Y-107779930D01*
X140814624Y-107776248D01*
X140826121Y-107761561D01*
X140854098Y-107746877D01*
X140857093Y-107745794D01*
X140885897Y-107732358D01*
X140894499Y-107714199D01*
X140891990Y-107693530D01*
X140881604Y-107655287D01*
X140864311Y-107604479D01*
X140842964Y-107548196D01*
X140820417Y-107493527D01*
X140799522Y-107447561D01*
X140783133Y-107417388D01*
X140778373Y-107411224D01*
X140763236Y-107402440D01*
X140735716Y-107396494D01*
X140691611Y-107392954D01*
X140626720Y-107391384D01*
X140584250Y-107391203D01*
X140505681Y-107391604D01*
X140448829Y-107394907D01*
X140408246Y-107404263D01*
X140378483Y-107422822D01*
X140354093Y-107453734D01*
X140329627Y-107500151D01*
X140305502Y-107552400D01*
X140276615Y-107622372D01*
X140263682Y-107673511D01*
X140267010Y-107709189D01*
X140286904Y-107732777D01*
X140323194Y-107747525D01*
X140352155Y-107759512D01*
X140363189Y-107773517D01*
X140362858Y-107775328D01*
X140348219Y-107782302D01*
X140314083Y-107787483D01*
X140267278Y-107790800D01*
X140214632Y-107792180D01*
X140162970Y-107791549D01*
X140119121Y-107788837D01*
X140089911Y-107783970D01*
X140081672Y-107778315D01*
X140092502Y-107762865D01*
X140118581Y-107742001D01*
X140125367Y-107737567D01*
X140137931Y-107727567D01*
X140151903Y-107711459D01*
X140168511Y-107686916D01*
X140188985Y-107651614D01*
X140214553Y-107603224D01*
X140246444Y-107539423D01*
X140285886Y-107457885D01*
X140334108Y-107356282D01*
X140349689Y-107323106D01*
X140427435Y-107323106D01*
X140427555Y-107323357D01*
X140443339Y-107328151D01*
X140479414Y-107331644D01*
X140528950Y-107333812D01*
X140585113Y-107334635D01*
X140641073Y-107334090D01*
X140689996Y-107332156D01*
X140725053Y-107328811D01*
X140739260Y-107324355D01*
X140737184Y-107308387D01*
X140726526Y-107273623D01*
X140709461Y-107225494D01*
X140688163Y-107169435D01*
X140664808Y-107110879D01*
X140641571Y-107055259D01*
X140620628Y-107008009D01*
X140604152Y-106974561D01*
X140594321Y-106960348D01*
X140593486Y-106960229D01*
X140583298Y-106973498D01*
X140565250Y-107006209D01*
X140541827Y-107052928D01*
X140515510Y-107108221D01*
X140488783Y-107166654D01*
X140464129Y-107222793D01*
X140444031Y-107271204D01*
X140430972Y-107306453D01*
X140427435Y-107323106D01*
X140349689Y-107323106D01*
X140392339Y-107232290D01*
X140392720Y-107231476D01*
X140442612Y-107125725D01*
X140489330Y-107028295D01*
X140531564Y-106941805D01*
X140568001Y-106868872D01*
X140597328Y-106812111D01*
X140618235Y-106774142D01*
X140629410Y-106757581D01*
X140630520Y-106757090D01*
X140638495Y-106770316D01*
G37*
G36*
X144821531Y-112075248D02*
G01*
X144856652Y-112083215D01*
X144882980Y-112082103D01*
X144883082Y-112082064D01*
X144895286Y-112082742D01*
X144901245Y-112100324D01*
X144902647Y-112139840D01*
X144902644Y-112140365D01*
X144902213Y-112206337D01*
X144874068Y-112168604D01*
X144832532Y-112126744D01*
X144786415Y-112101708D01*
X144740854Y-112093348D01*
X144700983Y-112101519D01*
X144671937Y-112126072D01*
X144658852Y-112166861D01*
X144658582Y-112174772D01*
X144668319Y-112203596D01*
X144695524Y-112246669D01*
X144737183Y-112300391D01*
X144790286Y-112361162D01*
X144851822Y-112425380D01*
X144918778Y-112489446D01*
X144931232Y-112500737D01*
X144980941Y-112544103D01*
X145014493Y-112568294D01*
X145035125Y-112573155D01*
X145046076Y-112558530D01*
X145050585Y-112524264D01*
X145051531Y-112494973D01*
X145043555Y-112449177D01*
X145021450Y-112412140D01*
X144990628Y-112391587D01*
X144977780Y-112389706D01*
X144959704Y-112382371D01*
X144957406Y-112376123D01*
X144970068Y-112369316D01*
X145004440Y-112364559D01*
X145055098Y-112362561D01*
X145061382Y-112362540D01*
X145113366Y-112362905D01*
X145142557Y-112364882D01*
X145153329Y-112369795D01*
X145150052Y-112378968D01*
X145142993Y-112387254D01*
X145127566Y-112414675D01*
X145113147Y-112457047D01*
X145107213Y-112482700D01*
X145096669Y-112528890D01*
X145084789Y-112567568D01*
X145078991Y-112581100D01*
X145071835Y-112600779D01*
X145075553Y-112619254D01*
X145093307Y-112640366D01*
X145128260Y-112667953D01*
X145179518Y-112703151D01*
X145227582Y-112733207D01*
X145261910Y-112748652D01*
X145289666Y-112752227D01*
X145303097Y-112750466D01*
X145329187Y-112746816D01*
X145332777Y-112752210D01*
X145326405Y-112759585D01*
X145302582Y-112769683D01*
X145260296Y-112775536D01*
X145231329Y-112776393D01*
X145179684Y-112773224D01*
X145138988Y-112761394D01*
X145095005Y-112736401D01*
X145086132Y-112730490D01*
X145048229Y-112705617D01*
X145024273Y-112694295D01*
X145005719Y-112694843D01*
X144984020Y-112705581D01*
X144977890Y-112709194D01*
X144920720Y-112741349D01*
X144876333Y-112761161D01*
X144835376Y-112772032D01*
X144791049Y-112777185D01*
X144741042Y-112778179D01*
X144695370Y-112774782D01*
X144678956Y-112771688D01*
X144594329Y-112738520D01*
X144531521Y-112689254D01*
X144490649Y-112624022D01*
X144471826Y-112542953D01*
X144471167Y-112534091D01*
X144470240Y-112493736D01*
X144535849Y-112493736D01*
X144548736Y-112556379D01*
X144572370Y-112595444D01*
X144611188Y-112638132D01*
X144656211Y-112675656D01*
X144692078Y-112696679D01*
X144748399Y-112711125D01*
X144815702Y-112714143D01*
X144880321Y-112705731D01*
X144908644Y-112696707D01*
X144947844Y-112676581D01*
X144961438Y-112656738D01*
X144950037Y-112632537D01*
X144920739Y-112604729D01*
X144889818Y-112577039D01*
X144846329Y-112535916D01*
X144796611Y-112487433D01*
X144757511Y-112448339D01*
X144711915Y-112403805D01*
X144671746Y-112367544D01*
X144641529Y-112343449D01*
X144626285Y-112335374D01*
X144605611Y-112345060D01*
X144578632Y-112369126D01*
X144571501Y-112377165D01*
X144543484Y-112430249D01*
X144535849Y-112493736D01*
X144470240Y-112493736D01*
X144469980Y-112482407D01*
X144475729Y-112446296D01*
X144490707Y-112414566D01*
X144497972Y-112403289D01*
X144532180Y-112365294D01*
X144574418Y-112334144D01*
X144580650Y-112330865D01*
X144611946Y-112314104D01*
X144622514Y-112301187D01*
X144616428Y-112284878D01*
X144611032Y-112276907D01*
X144592698Y-112230298D01*
X144592456Y-112177156D01*
X144609475Y-112129039D01*
X144622919Y-112111727D01*
X144664860Y-112085453D01*
X144721218Y-112069928D01*
X144780666Y-112067232D01*
X144821531Y-112075248D01*
G37*
G36*
X139382309Y-106780517D02*
G01*
X139427981Y-106782518D01*
X139454960Y-106786527D01*
X139467476Y-106793095D01*
X139469919Y-106800348D01*
X139459046Y-106818355D01*
X139449545Y-106820722D01*
X139425442Y-106829713D01*
X139402005Y-106847888D01*
X139394199Y-106856855D01*
X139388049Y-106868422D01*
X139383359Y-106885679D01*
X139379931Y-106911720D01*
X139377569Y-106949638D01*
X139376076Y-107002525D01*
X139375254Y-107073475D01*
X139374907Y-107165580D01*
X139374839Y-107274638D01*
X139375128Y-107377054D01*
X139375944Y-107471313D01*
X139377214Y-107553804D01*
X139378862Y-107620913D01*
X139380813Y-107669028D01*
X139382992Y-107694536D01*
X139383591Y-107697030D01*
X139400635Y-107715666D01*
X139433751Y-107736687D01*
X139452375Y-107745572D01*
X139485925Y-107762370D01*
X139504591Y-107776532D01*
X139506044Y-107781601D01*
X139489895Y-107786827D01*
X139453389Y-107790152D01*
X139402911Y-107791705D01*
X139344842Y-107791614D01*
X139285565Y-107790007D01*
X139231465Y-107787012D01*
X139188923Y-107782758D01*
X139164323Y-107777373D01*
X139160823Y-107774663D01*
X139168239Y-107760353D01*
X139190822Y-107750099D01*
X139218187Y-107740374D01*
X139238104Y-107724374D01*
X139251714Y-107698162D01*
X139260158Y-107657802D01*
X139264576Y-107599359D01*
X139266108Y-107518895D01*
X139266176Y-107490053D01*
X139266176Y-107296123D01*
X138987726Y-107296123D01*
X138709277Y-107296123D01*
X138709277Y-107498203D01*
X138709605Y-107581157D01*
X138711583Y-107641293D01*
X138716708Y-107682960D01*
X138726474Y-107710504D01*
X138742375Y-107728274D01*
X138765907Y-107740618D01*
X138796234Y-107751130D01*
X138829273Y-107764811D01*
X138835403Y-107775747D01*
X138814746Y-107783900D01*
X138767423Y-107789234D01*
X138693556Y-107791712D01*
X138660654Y-107791898D01*
X138595317Y-107791135D01*
X138540432Y-107789051D01*
X138501374Y-107785955D01*
X138483518Y-107782154D01*
X138483082Y-107781711D01*
X138483058Y-107761816D01*
X138501887Y-107747098D01*
X138517813Y-107744358D01*
X138545481Y-107734844D01*
X138564552Y-107719519D01*
X138570975Y-107709898D01*
X138576063Y-107694849D01*
X138579966Y-107671414D01*
X138582837Y-107636638D01*
X138584826Y-107587565D01*
X138586085Y-107521239D01*
X138586764Y-107434704D01*
X138587016Y-107325004D01*
X138587031Y-107280180D01*
X138587009Y-107158735D01*
X138586593Y-107061596D01*
X138585256Y-106985904D01*
X138582474Y-106928800D01*
X138577721Y-106887424D01*
X138570470Y-106858917D01*
X138560197Y-106840420D01*
X138546376Y-106829074D01*
X138528481Y-106822019D01*
X138505987Y-106816396D01*
X138501583Y-106815357D01*
X138477191Y-106805108D01*
X138471823Y-106793158D01*
X138487517Y-106787956D01*
X138523158Y-106784061D01*
X138572422Y-106781496D01*
X138628985Y-106780286D01*
X138686525Y-106780454D01*
X138738719Y-106782023D01*
X138779242Y-106785018D01*
X138801773Y-106789463D01*
X138804357Y-106791908D01*
X138793136Y-106804745D01*
X138765880Y-106819760D01*
X138763436Y-106820793D01*
X138732589Y-106841091D01*
X138715437Y-106866307D01*
X138715366Y-106866586D01*
X138712915Y-106890906D01*
X138711484Y-106936007D01*
X138711176Y-106995520D01*
X138712094Y-107063075D01*
X138712143Y-107065214D01*
X138716069Y-107235000D01*
X138987726Y-107235000D01*
X139259384Y-107235000D01*
X139263318Y-107072005D01*
X139264762Y-106989668D01*
X139263801Y-106930062D01*
X139259380Y-106888787D01*
X139250447Y-106861444D01*
X139235950Y-106843630D01*
X139214836Y-106830947D01*
X139204569Y-106826436D01*
X139170558Y-106809740D01*
X139159521Y-106797163D01*
X139172369Y-106788316D01*
X139210015Y-106782811D01*
X139273368Y-106780262D01*
X139313716Y-106779973D01*
X139382309Y-106780517D01*
G37*
G36*
X141910262Y-106781359D02*
G01*
X141972566Y-106782330D01*
X142063650Y-106784037D01*
X142132025Y-106785986D01*
X142182144Y-106788709D01*
X142218463Y-106792739D01*
X142245435Y-106798607D01*
X142267515Y-106806846D01*
X142289157Y-106817987D01*
X142294022Y-106820722D01*
X142353776Y-106868495D01*
X142390981Y-106931409D01*
X142405651Y-107009487D01*
X142405898Y-107025299D01*
X142393326Y-107101100D01*
X142359713Y-107170971D01*
X142309445Y-107226827D01*
X142288488Y-107241717D01*
X142258767Y-107262132D01*
X142242118Y-107277541D01*
X142240828Y-107280489D01*
X142247985Y-107294242D01*
X142267888Y-107326866D01*
X142298183Y-107374647D01*
X142336517Y-107433872D01*
X142380053Y-107500103D01*
X142431344Y-107576768D01*
X142471123Y-107633848D01*
X142502256Y-107674805D01*
X142527606Y-107703103D01*
X142550041Y-107722206D01*
X142572425Y-107735576D01*
X142576512Y-107737567D01*
X142610470Y-107755506D01*
X142631249Y-107769987D01*
X142634240Y-107774304D01*
X142623019Y-107786436D01*
X142593095Y-107792861D01*
X142552373Y-107793343D01*
X142508757Y-107787647D01*
X142478303Y-107778951D01*
X142451295Y-107767058D01*
X142426708Y-107751496D01*
X142401876Y-107729096D01*
X142374135Y-107696689D01*
X142340817Y-107651103D01*
X142299258Y-107589170D01*
X142246793Y-107507719D01*
X142236104Y-107490928D01*
X142197112Y-107431265D01*
X142161638Y-107380034D01*
X142132861Y-107341610D01*
X142113962Y-107320364D01*
X142110148Y-107317747D01*
X142077553Y-107311679D01*
X142032232Y-107309992D01*
X141988265Y-107312668D01*
X141963490Y-107317950D01*
X141954435Y-107325358D01*
X141948272Y-107342281D01*
X141944488Y-107373051D01*
X141942571Y-107422002D01*
X141942007Y-107493467D01*
X141942005Y-107499488D01*
X141943504Y-107585838D01*
X141949072Y-107649093D01*
X141960312Y-107693208D01*
X141978829Y-107722143D01*
X142006228Y-107739853D01*
X142043638Y-107750209D01*
X142075097Y-107760186D01*
X142090946Y-107773192D01*
X142091401Y-107775535D01*
X142082929Y-107782761D01*
X142055791Y-107787730D01*
X142007377Y-107790681D01*
X141935078Y-107791854D01*
X141913687Y-107791898D01*
X141847164Y-107791498D01*
X141791105Y-107790403D01*
X141750750Y-107788772D01*
X141731336Y-107786764D01*
X141730452Y-107786357D01*
X141732126Y-107772812D01*
X141747934Y-107755835D01*
X141768158Y-107744993D01*
X141773111Y-107744358D01*
X141793624Y-107734197D01*
X141812197Y-107714170D01*
X141818416Y-107701865D01*
X141823318Y-107682730D01*
X141827049Y-107653768D01*
X141829758Y-107611980D01*
X141831593Y-107554368D01*
X141832703Y-107477934D01*
X141833233Y-107379679D01*
X141833341Y-107285692D01*
X141833341Y-107093649D01*
X141942700Y-107093649D01*
X141943879Y-107153057D01*
X141946404Y-107200893D01*
X141950322Y-107230732D01*
X141952400Y-107236359D01*
X141981789Y-107257526D01*
X142030691Y-107267245D01*
X142093769Y-107265044D01*
X142152003Y-107254092D01*
X142200837Y-107234305D01*
X142243692Y-107204773D01*
X142249073Y-107199525D01*
X142271620Y-107171289D01*
X142284318Y-107139578D01*
X142290682Y-107094201D01*
X142291953Y-107075165D01*
X142288716Y-106997204D01*
X142267492Y-106937144D01*
X142226155Y-106890835D01*
X142184108Y-106864375D01*
X142135731Y-106845552D01*
X142081403Y-106833620D01*
X142028649Y-106829122D01*
X141984989Y-106832599D01*
X141957949Y-106844594D01*
X141955306Y-106847888D01*
X141950478Y-106868787D01*
X141946756Y-106910237D01*
X141944187Y-106965814D01*
X141942819Y-107029093D01*
X141942700Y-107093649D01*
X141833341Y-107093649D01*
X141833341Y-106887401D01*
X141800002Y-106854062D01*
X141769380Y-106831114D01*
X141740413Y-106820769D01*
X141738879Y-106820722D01*
X141715914Y-106811941D01*
X141711095Y-106799309D01*
X141713746Y-106791892D01*
X141724003Y-106786545D01*
X141745325Y-106783042D01*
X141781170Y-106781160D01*
X141834996Y-106780674D01*
X141910262Y-106781359D01*
G37*
G36*
X137801684Y-108273057D02*
G01*
X137839644Y-108281084D01*
X137861347Y-108296781D01*
X137867304Y-108308048D01*
X137872853Y-108334858D01*
X137864760Y-108355315D01*
X137839173Y-108373009D01*
X137792240Y-108391529D01*
X137769742Y-108398973D01*
X137681006Y-108437427D01*
X137616113Y-108488189D01*
X137574406Y-108551831D01*
X137565390Y-108576507D01*
X137562263Y-108592345D01*
X137559505Y-108618944D01*
X137557096Y-108657748D01*
X137555018Y-108710204D01*
X137553250Y-108777754D01*
X137551774Y-108861844D01*
X137550570Y-108963918D01*
X137549618Y-109085421D01*
X137548900Y-109227798D01*
X137548395Y-109392493D01*
X137548085Y-109580950D01*
X137547950Y-109794616D01*
X137547940Y-109876872D01*
X137547905Y-110094239D01*
X137547875Y-110286087D01*
X137547966Y-110454061D01*
X137548295Y-110599809D01*
X137548978Y-110724974D01*
X137550129Y-110831205D01*
X137551865Y-110920147D01*
X137554301Y-110993445D01*
X137557554Y-111052747D01*
X137561739Y-111099697D01*
X137566972Y-111135943D01*
X137573369Y-111163130D01*
X137581046Y-111182904D01*
X137590118Y-111196912D01*
X137600701Y-111206799D01*
X137612911Y-111214211D01*
X137626865Y-111220795D01*
X137642676Y-111228197D01*
X137643021Y-111228369D01*
X137665012Y-111238103D01*
X137689267Y-111245205D01*
X137720304Y-111250072D01*
X137762642Y-111253101D01*
X137820800Y-111254690D01*
X137899296Y-111255236D01*
X137948636Y-111255241D01*
X138064260Y-111254011D01*
X138159027Y-111250346D01*
X138239170Y-111243833D01*
X138310921Y-111234063D01*
X138335748Y-111229697D01*
X138524425Y-111185338D01*
X138692400Y-111126426D01*
X138838882Y-111053354D01*
X138963079Y-110966518D01*
X139064031Y-110866513D01*
X139095674Y-110832053D01*
X139122942Y-110808169D01*
X139138144Y-110800508D01*
X139156730Y-110812614D01*
X139166463Y-110845496D01*
X139166589Y-110893997D01*
X139158894Y-110942263D01*
X139133991Y-111015087D01*
X139092299Y-111095403D01*
X139038226Y-111177578D01*
X138976182Y-111255978D01*
X138910574Y-111324969D01*
X138845811Y-111378918D01*
X138793410Y-111409309D01*
X138774860Y-111416610D01*
X138754404Y-111422788D01*
X138729862Y-111427899D01*
X138699053Y-111432004D01*
X138659799Y-111435158D01*
X138609918Y-111437422D01*
X138547230Y-111438854D01*
X138469556Y-111439510D01*
X138374714Y-111439451D01*
X138260525Y-111438734D01*
X138124809Y-111437417D01*
X137965386Y-111435558D01*
X137860347Y-111434245D01*
X137736779Y-111433011D01*
X137612358Y-111432383D01*
X137492048Y-111432343D01*
X137380817Y-111432872D01*
X137283629Y-111433951D01*
X137205451Y-111435561D01*
X137167620Y-111436864D01*
X137092199Y-111439727D01*
X137023076Y-111441607D01*
X136966391Y-111442390D01*
X136928284Y-111441963D01*
X136919732Y-111441439D01*
X136888509Y-111434638D01*
X136876645Y-111418506D01*
X136875587Y-111405749D01*
X136877739Y-111385242D01*
X136887252Y-111368772D01*
X136908711Y-111352876D01*
X136946705Y-111334093D01*
X137001351Y-111310810D01*
X137074097Y-111274329D01*
X137124331Y-111232492D01*
X137156706Y-111180303D01*
X137173200Y-111126225D01*
X137176137Y-111099797D01*
X137178739Y-111049241D01*
X137181011Y-110974208D01*
X137182956Y-110874350D01*
X137184578Y-110749319D01*
X137185881Y-110598768D01*
X137186869Y-110422348D01*
X137187546Y-110219710D01*
X137187916Y-109990507D01*
X137187994Y-109808761D01*
X137187994Y-108560277D01*
X137147914Y-108514629D01*
X137120917Y-108487810D01*
X137088248Y-108464569D01*
X137044582Y-108442109D01*
X136984599Y-108417634D01*
X136916336Y-108392994D01*
X136869585Y-108375752D01*
X136843084Y-108361994D01*
X136831148Y-108347118D01*
X136828093Y-108326524D01*
X136828047Y-108321527D01*
X136828047Y-108280882D01*
X137187994Y-108285001D01*
X137291592Y-108285704D01*
X137392861Y-108285507D01*
X137486588Y-108284486D01*
X137567563Y-108282718D01*
X137630573Y-108280281D01*
X137663395Y-108278012D01*
X137744068Y-108272200D01*
X137801684Y-108273057D01*
G37*
G36*
X145048812Y-108279287D02*
G01*
X145075339Y-108294892D01*
X145093491Y-108326004D01*
X145105442Y-108376433D01*
X145113366Y-108449987D01*
X145113670Y-108453997D01*
X145118287Y-108528314D01*
X145122213Y-108614156D01*
X145124762Y-108695882D01*
X145125130Y-108715535D01*
X145125851Y-108777196D01*
X145124979Y-108816782D01*
X145121350Y-108839382D01*
X145113799Y-108850082D01*
X145101162Y-108853971D01*
X145093234Y-108854882D01*
X145058307Y-108853194D01*
X145034786Y-108836672D01*
X145019358Y-108801100D01*
X145009534Y-108748436D01*
X144993233Y-108670880D01*
X144966803Y-108614201D01*
X144927117Y-108573027D01*
X144896283Y-108553865D01*
X144880360Y-108546149D01*
X144863083Y-108539923D01*
X144841420Y-108534995D01*
X144812340Y-108531172D01*
X144772812Y-108528262D01*
X144719804Y-108526073D01*
X144650284Y-108524414D01*
X144561222Y-108523091D01*
X144449586Y-108521914D01*
X144382340Y-108521302D01*
X144246863Y-108520392D01*
X144136724Y-108520326D01*
X144050108Y-108521152D01*
X143985200Y-108522912D01*
X143940184Y-108525652D01*
X143913245Y-108529417D01*
X143903543Y-108533152D01*
X143900259Y-108539090D01*
X143897362Y-108552144D01*
X143894830Y-108573857D01*
X143892642Y-108605767D01*
X143890773Y-108649417D01*
X143889202Y-108706346D01*
X143887906Y-108778096D01*
X143886863Y-108866208D01*
X143886051Y-108972221D01*
X143885446Y-109097678D01*
X143885027Y-109244118D01*
X143884770Y-109413082D01*
X143884654Y-109606112D01*
X143884655Y-109824748D01*
X143884656Y-109827599D01*
X143884726Y-110043130D01*
X143884852Y-110233181D01*
X143885065Y-110399436D01*
X143885397Y-110543582D01*
X143885882Y-110667303D01*
X143886550Y-110772284D01*
X143887434Y-110860212D01*
X143888567Y-110932771D01*
X143889980Y-110991646D01*
X143891706Y-111038523D01*
X143893776Y-111075088D01*
X143896223Y-111103024D01*
X143899080Y-111124019D01*
X143902377Y-111139756D01*
X143906148Y-111151922D01*
X143910115Y-111161522D01*
X143946509Y-111219488D01*
X143998122Y-111261854D01*
X144069957Y-111292468D01*
X144086846Y-111297423D01*
X144153125Y-111316777D01*
X144197397Y-111332696D01*
X144224223Y-111347412D01*
X144238163Y-111363159D01*
X144242082Y-111373411D01*
X144246440Y-111391849D01*
X144246920Y-111406334D01*
X144240749Y-111417291D01*
X144225159Y-111425143D01*
X144197379Y-111430313D01*
X144154640Y-111433225D01*
X144094172Y-111434302D01*
X144013204Y-111433969D01*
X143908966Y-111432649D01*
X143859418Y-111431929D01*
X143753443Y-111430804D01*
X143649576Y-111430482D01*
X143552944Y-111430921D01*
X143468671Y-111432077D01*
X143401886Y-111433909D01*
X143361416Y-111436064D01*
X143302840Y-111439930D01*
X143251546Y-111441972D01*
X143215801Y-111441911D01*
X143207826Y-111441252D01*
X143186187Y-111433610D01*
X143179635Y-111413542D01*
X143180661Y-111393712D01*
X143182544Y-111376525D01*
X143186823Y-111363026D01*
X143197220Y-111350652D01*
X143217461Y-111336839D01*
X143251269Y-111319024D01*
X143302370Y-111294643D01*
X143370767Y-111262859D01*
X143430387Y-111231227D01*
X143470400Y-111199382D01*
X143493013Y-111170202D01*
X143524411Y-111119706D01*
X143528494Y-109870080D01*
X143529150Y-109631916D01*
X143529471Y-109420105D01*
X143529449Y-109233837D01*
X143529077Y-109072302D01*
X143528349Y-108934690D01*
X143527257Y-108820190D01*
X143525796Y-108727993D01*
X143523958Y-108657288D01*
X143521736Y-108607264D01*
X143519124Y-108577112D01*
X143517561Y-108568851D01*
X143502546Y-108517247D01*
X143044869Y-108521311D01*
X142920749Y-108522489D01*
X142820800Y-108523713D01*
X142742026Y-108525173D01*
X142681433Y-108527058D01*
X142636025Y-108529558D01*
X142602808Y-108532863D01*
X142578786Y-108537162D01*
X142560965Y-108542645D01*
X142546350Y-108549501D01*
X142539659Y-108553297D01*
X142502490Y-108582192D01*
X142469870Y-108624335D01*
X142439433Y-108683820D01*
X142408810Y-108764739D01*
X142397651Y-108798754D01*
X142371624Y-108869581D01*
X142346524Y-108914413D01*
X142321366Y-108934352D01*
X142295162Y-108930503D01*
X142285774Y-108923916D01*
X142274542Y-108908729D01*
X142269636Y-108883118D01*
X142270279Y-108840523D01*
X142272432Y-108810915D01*
X142280547Y-108719704D01*
X142289747Y-108627702D01*
X142299492Y-108539268D01*
X142309246Y-108458759D01*
X142318469Y-108390532D01*
X142326623Y-108338944D01*
X142333170Y-108308355D01*
X142335181Y-108303040D01*
X142338955Y-108299333D01*
X142346937Y-108296051D01*
X142360719Y-108293165D01*
X142381889Y-108290646D01*
X142412039Y-108288464D01*
X142452759Y-108286590D01*
X142505638Y-108284993D01*
X142572268Y-108283646D01*
X142654238Y-108282517D01*
X142753139Y-108281578D01*
X142870561Y-108280798D01*
X143008094Y-108280149D01*
X143167329Y-108279601D01*
X143349855Y-108279124D01*
X143557264Y-108278689D01*
X143655890Y-108278505D01*
X143843097Y-108278158D01*
X144023269Y-108277811D01*
X144194463Y-108277468D01*
X144354736Y-108277134D01*
X144502142Y-108276814D01*
X144634740Y-108276511D01*
X144750584Y-108276231D01*
X144847731Y-108275978D01*
X144924238Y-108275756D01*
X144978160Y-108275570D01*
X145007554Y-108275424D01*
X145011737Y-108275382D01*
X145048812Y-108279287D01*
G37*
G36*
X141015686Y-108202706D02*
G01*
X141045511Y-108229642D01*
X141073218Y-108279409D01*
X141081196Y-108299524D01*
X141089490Y-108320934D01*
X141107194Y-108365712D01*
X141133575Y-108432026D01*
X141167900Y-108518045D01*
X141209435Y-108621936D01*
X141257446Y-108741868D01*
X141311201Y-108876009D01*
X141369965Y-109022525D01*
X141433005Y-109179586D01*
X141499587Y-109345359D01*
X141568978Y-109518013D01*
X141595848Y-109584840D01*
X141666665Y-109761000D01*
X141735337Y-109931935D01*
X141801089Y-110095712D01*
X141863145Y-110250395D01*
X141920732Y-110394049D01*
X141973075Y-110524738D01*
X142019398Y-110640528D01*
X142058926Y-110739485D01*
X142090885Y-110819672D01*
X142114500Y-110879155D01*
X142128996Y-110915999D01*
X142131606Y-110922754D01*
X142177172Y-111029797D01*
X142226017Y-111122777D01*
X142275801Y-111197846D01*
X142324182Y-111251156D01*
X142338480Y-111262628D01*
X142403279Y-111296796D01*
X142492878Y-111323737D01*
X142503445Y-111326075D01*
X142579956Y-111346655D01*
X142629740Y-111369860D01*
X142653128Y-111395899D01*
X142652573Y-111420232D01*
X142647897Y-111427205D01*
X142637814Y-111432422D01*
X142619153Y-111436013D01*
X142588746Y-111438107D01*
X142543422Y-111438833D01*
X142480012Y-111438323D01*
X142395345Y-111436705D01*
X142303122Y-111434526D01*
X142201881Y-111432550D01*
X142102679Y-111431560D01*
X142010976Y-111431542D01*
X141932236Y-111432477D01*
X141871919Y-111434350D01*
X141846924Y-111435911D01*
X141781790Y-111439787D01*
X141716105Y-111441013D01*
X141662710Y-111439387D01*
X141656764Y-111438904D01*
X141613888Y-111433930D01*
X141591552Y-111426672D01*
X141583163Y-111413535D01*
X141582058Y-111398155D01*
X141586985Y-111375445D01*
X141605618Y-111356509D01*
X141643731Y-111335795D01*
X141649972Y-111332887D01*
X141717001Y-111301515D01*
X141763643Y-111278037D01*
X141794427Y-111259521D01*
X141813882Y-111243034D01*
X141826535Y-111225642D01*
X141832093Y-111214925D01*
X141842045Y-111189035D01*
X141844231Y-111162665D01*
X141838433Y-111126498D01*
X141829147Y-111088984D01*
X141817349Y-111050410D01*
X141797494Y-110992597D01*
X141771217Y-110919758D01*
X141740153Y-110836109D01*
X141705936Y-110745862D01*
X141670199Y-110653233D01*
X141634578Y-110562436D01*
X141600705Y-110477684D01*
X141570217Y-110403192D01*
X141544747Y-110343174D01*
X141525929Y-110301845D01*
X141518301Y-110287425D01*
X141505846Y-110267419D01*
X141493446Y-110250808D01*
X141478610Y-110237294D01*
X141458848Y-110226579D01*
X141431669Y-110218366D01*
X141394584Y-110212356D01*
X141345100Y-110208253D01*
X141280729Y-110205758D01*
X141198980Y-110204574D01*
X141097363Y-110204403D01*
X140973386Y-110204947D01*
X140835836Y-110205833D01*
X140695528Y-110206804D01*
X140579817Y-110207772D01*
X140486131Y-110208870D01*
X140411901Y-110210232D01*
X140354558Y-110211992D01*
X140311530Y-110214285D01*
X140280249Y-110217242D01*
X140258145Y-110221000D01*
X140242647Y-110225690D01*
X140231186Y-110231448D01*
X140222009Y-110237795D01*
X140205943Y-110255052D01*
X140184764Y-110287458D01*
X140157419Y-110337021D01*
X140122854Y-110405751D01*
X140080016Y-110495656D01*
X140029916Y-110604225D01*
X139977466Y-110719973D01*
X139935782Y-110814421D01*
X139903824Y-110890736D01*
X139880555Y-110952085D01*
X139864937Y-111001635D01*
X139855933Y-111042553D01*
X139852504Y-111078007D01*
X139853614Y-111111165D01*
X139856396Y-111133790D01*
X139879247Y-111200208D01*
X139923460Y-111254788D01*
X139984543Y-111294037D01*
X140058005Y-111314459D01*
X140091336Y-111316582D01*
X140126106Y-111326467D01*
X140152463Y-111350864D01*
X140166676Y-111382169D01*
X140165015Y-111412776D01*
X140148250Y-111432615D01*
X140123732Y-111438753D01*
X140078310Y-111442259D01*
X140018125Y-111443054D01*
X139949319Y-111441056D01*
X139878033Y-111436187D01*
X139877406Y-111436130D01*
X139823764Y-111433078D01*
X139750599Y-111431416D01*
X139665519Y-111431191D01*
X139576134Y-111432448D01*
X139522941Y-111433957D01*
X139436497Y-111436727D01*
X139373366Y-111438027D01*
X139329725Y-111437630D01*
X139301750Y-111435309D01*
X139285617Y-111430834D01*
X139277501Y-111423979D01*
X139275102Y-111419195D01*
X139273581Y-111385726D01*
X139297272Y-111357037D01*
X139346966Y-111332315D01*
X139365274Y-111326110D01*
X139426316Y-111299366D01*
X139485453Y-111261306D01*
X139499525Y-111249735D01*
X139510492Y-111240122D01*
X139520531Y-111230824D01*
X139530422Y-111220283D01*
X139540946Y-111206940D01*
X139552883Y-111189237D01*
X139567014Y-111165614D01*
X139584120Y-111134512D01*
X139604981Y-111094373D01*
X139630378Y-111043637D01*
X139661091Y-110980747D01*
X139697901Y-110904142D01*
X139741589Y-110812264D01*
X139792935Y-110703554D01*
X139852720Y-110576453D01*
X139921724Y-110429402D01*
X140000729Y-110260843D01*
X140088355Y-110073823D01*
X140132169Y-109980317D01*
X140344740Y-109980317D01*
X140359891Y-109985618D01*
X140398548Y-109990148D01*
X140457061Y-109993909D01*
X140531782Y-109996901D01*
X140619061Y-109999127D01*
X140715250Y-110000585D01*
X140816698Y-110001279D01*
X140919758Y-110001208D01*
X141020780Y-110000373D01*
X141116114Y-109998775D01*
X141202113Y-109996416D01*
X141275126Y-109993296D01*
X141331504Y-109989416D01*
X141367599Y-109984777D01*
X141379692Y-109980051D01*
X141376040Y-109964510D01*
X141363213Y-109926958D01*
X141342449Y-109870477D01*
X141314985Y-109798148D01*
X141282057Y-109713053D01*
X141244903Y-109618273D01*
X141204759Y-109516890D01*
X141162861Y-109411985D01*
X141120448Y-109306638D01*
X141078755Y-109203932D01*
X141039020Y-109106949D01*
X141002478Y-109018768D01*
X140970368Y-108942472D01*
X140943926Y-108881142D01*
X140924389Y-108837860D01*
X140912993Y-108815706D01*
X140911596Y-108813864D01*
X140895459Y-108806380D01*
X140877689Y-108817653D01*
X140856072Y-108850099D01*
X140829700Y-108903297D01*
X140815326Y-108934381D01*
X140790998Y-108986835D01*
X140758228Y-109057399D01*
X140718532Y-109142819D01*
X140673422Y-109239835D01*
X140624413Y-109345190D01*
X140573018Y-109455629D01*
X140564301Y-109474355D01*
X140514615Y-109581932D01*
X140469050Y-109682214D01*
X140428797Y-109772456D01*
X140395049Y-109849911D01*
X140368996Y-109911833D01*
X140351831Y-109955477D01*
X140344744Y-109978095D01*
X140344740Y-109980317D01*
X140132169Y-109980317D01*
X140145028Y-109952873D01*
X140200005Y-109835549D01*
X140251825Y-109724967D01*
X140299029Y-109624240D01*
X140340157Y-109536485D01*
X140373748Y-109464816D01*
X140398344Y-109412348D01*
X140409815Y-109387888D01*
X140429280Y-109346278D01*
X140458249Y-109284203D01*
X140494777Y-109205837D01*
X140536920Y-109115350D01*
X140582736Y-109016915D01*
X140630280Y-108914704D01*
X140647099Y-108878529D01*
X140715481Y-108731620D01*
X140773482Y-108607491D01*
X140822054Y-108504237D01*
X140862151Y-108419950D01*
X140894726Y-108352722D01*
X140920732Y-108300648D01*
X140941122Y-108261819D01*
X140956848Y-108234329D01*
X140968864Y-108216270D01*
X140978123Y-108205735D01*
X140985578Y-108200818D01*
X140985798Y-108200732D01*
X141015686Y-108202706D01*
G37*
G36*
X147189909Y-108282889D02*
G01*
X147220661Y-108306741D01*
X147230972Y-108317568D01*
X147270078Y-108361988D01*
X147323601Y-108422314D01*
X147390207Y-108497068D01*
X147468563Y-108584771D01*
X147557337Y-108683945D01*
X147655194Y-108793109D01*
X147760802Y-108910786D01*
X147872827Y-109035497D01*
X147989937Y-109165763D01*
X148110797Y-109300104D01*
X148234076Y-109437042D01*
X148358439Y-109575099D01*
X148482554Y-109712794D01*
X148605087Y-109848650D01*
X148724706Y-109981188D01*
X148840076Y-110108928D01*
X148949866Y-110230392D01*
X149052740Y-110344101D01*
X149147368Y-110448576D01*
X149232414Y-110542338D01*
X149306547Y-110623909D01*
X149368433Y-110691809D01*
X149416738Y-110744559D01*
X149450130Y-110780682D01*
X149467275Y-110798697D01*
X149469316Y-110800508D01*
X149471768Y-110787349D01*
X149473918Y-110749565D01*
X149475773Y-110689695D01*
X149477337Y-110610278D01*
X149478617Y-110513852D01*
X149479616Y-110402958D01*
X149480342Y-110280133D01*
X149480798Y-110147917D01*
X149480990Y-110008848D01*
X149480925Y-109865466D01*
X149480606Y-109720310D01*
X149480040Y-109575918D01*
X149479232Y-109434830D01*
X149478187Y-109299584D01*
X149476911Y-109172720D01*
X149475408Y-109056776D01*
X149473685Y-108954292D01*
X149471746Y-108867806D01*
X149469597Y-108799857D01*
X149467244Y-108752984D01*
X149464945Y-108730866D01*
X149433066Y-108630096D01*
X149381092Y-108546889D01*
X149308392Y-108480633D01*
X149214334Y-108430717D01*
X149126332Y-108402878D01*
X149054264Y-108381652D01*
X149007624Y-108359005D01*
X148984675Y-108333725D01*
X148983679Y-108304601D01*
X148983982Y-108303618D01*
X148987457Y-108294361D01*
X148993426Y-108287279D01*
X149005137Y-108282126D01*
X149025834Y-108278654D01*
X149058765Y-108276613D01*
X149107176Y-108275757D01*
X149174314Y-108275838D01*
X149263425Y-108276607D01*
X149328676Y-108277295D01*
X149430136Y-108278109D01*
X149530459Y-108278420D01*
X149623893Y-108278247D01*
X149704686Y-108277609D01*
X149767086Y-108276525D01*
X149790532Y-108275784D01*
X149853455Y-108274794D01*
X149900940Y-108277162D01*
X149927906Y-108282570D01*
X149931106Y-108284604D01*
X149940525Y-108310037D01*
X149926283Y-108340076D01*
X149890704Y-108371401D01*
X149856428Y-108391285D01*
X149809441Y-108417752D01*
X149766601Y-108446787D01*
X149748450Y-108461767D01*
X149736317Y-108473117D01*
X149725515Y-108484145D01*
X149715968Y-108496415D01*
X149707598Y-108511487D01*
X149700328Y-108530927D01*
X149694079Y-108556295D01*
X149688776Y-108589155D01*
X149684339Y-108631070D01*
X149680693Y-108683603D01*
X149677760Y-108748316D01*
X149675462Y-108826773D01*
X149673722Y-108920535D01*
X149672462Y-109031166D01*
X149671606Y-109160229D01*
X149671076Y-109309286D01*
X149670793Y-109479901D01*
X149670682Y-109673635D01*
X149670665Y-109892053D01*
X149670668Y-110032824D01*
X149670595Y-110271154D01*
X149670367Y-110483522D01*
X149669971Y-110671130D01*
X149669391Y-110835183D01*
X149668616Y-110976882D01*
X149667630Y-111097432D01*
X149666420Y-111198034D01*
X149664972Y-111279892D01*
X149663273Y-111344210D01*
X149661308Y-111392190D01*
X149659063Y-111425035D01*
X149656525Y-111443949D01*
X149654368Y-111449770D01*
X149634984Y-111462967D01*
X149612663Y-111462058D01*
X149582217Y-111445232D01*
X149538459Y-111410677D01*
X149535699Y-111408342D01*
X149518850Y-111391556D01*
X149485286Y-111355831D01*
X149436277Y-111302587D01*
X149373091Y-111233246D01*
X149297000Y-111149229D01*
X149209271Y-111051957D01*
X149111174Y-110942851D01*
X149003978Y-110823332D01*
X148888953Y-110694822D01*
X148767369Y-110558741D01*
X148640494Y-110416511D01*
X148509598Y-110269552D01*
X148375950Y-110119286D01*
X148240819Y-109967134D01*
X148105476Y-109814517D01*
X147971189Y-109662856D01*
X147839228Y-109513573D01*
X147710862Y-109368087D01*
X147587360Y-109227822D01*
X147545929Y-109180693D01*
X147521987Y-109152717D01*
X147501160Y-109128014D01*
X147483232Y-109108116D01*
X147467988Y-109094554D01*
X147455214Y-109088862D01*
X147444694Y-109092571D01*
X147436213Y-109107212D01*
X147429555Y-109134318D01*
X147424507Y-109175422D01*
X147420851Y-109232054D01*
X147418375Y-109305747D01*
X147416861Y-109398034D01*
X147416095Y-109510445D01*
X147415862Y-109644514D01*
X147415947Y-109801771D01*
X147416135Y-109983750D01*
X147416207Y-110104385D01*
X147416291Y-110295190D01*
X147416453Y-110460742D01*
X147416740Y-110602954D01*
X147417197Y-110723740D01*
X147417869Y-110825011D01*
X147418802Y-110908682D01*
X147420043Y-110976666D01*
X147421636Y-111030875D01*
X147423628Y-111073222D01*
X147426064Y-111105620D01*
X147428990Y-111129983D01*
X147432451Y-111148223D01*
X147436493Y-111162253D01*
X147441162Y-111173987D01*
X147441790Y-111175381D01*
X147475065Y-111228321D01*
X147522830Y-111267775D01*
X147589730Y-111296881D01*
X147642592Y-111311047D01*
X147694924Y-111324142D01*
X147740935Y-111337870D01*
X147768967Y-111348533D01*
X147800030Y-111373530D01*
X147807815Y-111401518D01*
X147794434Y-111425826D01*
X147761998Y-111439782D01*
X147739765Y-111440819D01*
X147715262Y-111440135D01*
X147667271Y-111439325D01*
X147599470Y-111438432D01*
X147515537Y-111437499D01*
X147419150Y-111436568D01*
X147313986Y-111435681D01*
X147259705Y-111435270D01*
X147139676Y-111434346D01*
X147044019Y-111433379D01*
X146969943Y-111432175D01*
X146914655Y-111430542D01*
X146875362Y-111428286D01*
X146849273Y-111425215D01*
X146833594Y-111421134D01*
X146825534Y-111415850D01*
X146822299Y-111409171D01*
X146821579Y-111404946D01*
X146822596Y-111377708D01*
X146836412Y-111355829D01*
X146867240Y-111335709D01*
X146919290Y-111313748D01*
X146935110Y-111307911D01*
X147017176Y-111273084D01*
X147077711Y-111234435D01*
X147122345Y-111187621D01*
X147150025Y-111142087D01*
X147161415Y-111118623D01*
X147171323Y-111094923D01*
X147179852Y-111069012D01*
X147187103Y-111038916D01*
X147193178Y-111002658D01*
X147198179Y-110958263D01*
X147202207Y-110903755D01*
X147205365Y-110837159D01*
X147207754Y-110756500D01*
X147209476Y-110659801D01*
X147210634Y-110545088D01*
X147211328Y-110410385D01*
X147211660Y-110253715D01*
X147211733Y-110073105D01*
X147211691Y-109945687D01*
X147211537Y-109748291D01*
X147211208Y-109575999D01*
X147210595Y-109426748D01*
X147209587Y-109298479D01*
X147208076Y-109189128D01*
X147205951Y-109096634D01*
X147203104Y-109018935D01*
X147199425Y-108953969D01*
X147194805Y-108899676D01*
X147189134Y-108853992D01*
X147182302Y-108814856D01*
X147174200Y-108780207D01*
X147164720Y-108747982D01*
X147153750Y-108716121D01*
X147145187Y-108693088D01*
X147093740Y-108591929D01*
X147023293Y-108510153D01*
X146933778Y-108447705D01*
X146825130Y-108404529D01*
X146794252Y-108396572D01*
X146731678Y-108377137D01*
X146690469Y-108353656D01*
X146672672Y-108327723D01*
X146677134Y-108305503D01*
X146685311Y-108296254D01*
X146699507Y-108289516D01*
X146723806Y-108284816D01*
X146762292Y-108281682D01*
X146819052Y-108279641D01*
X146898168Y-108278220D01*
X146914835Y-108277997D01*
X146991730Y-108276951D01*
X147060575Y-108275924D01*
X147116120Y-108275000D01*
X147153112Y-108274266D01*
X147164625Y-108273934D01*
X147189909Y-108282889D01*
G37*
G04 #@! TO.C,J1*
D13*
X142120000Y-103980000D02*
X142120000Y-100520000D01*
X142120000Y-105600000D02*
X140650000Y-105600000D01*
X142120000Y-106170000D02*
X142120000Y-105600000D01*
X144880000Y-98330000D02*
X142120000Y-98330000D01*
X144880000Y-98900000D02*
X144880000Y-98330000D01*
X144880000Y-101440000D02*
X144880000Y-98330000D01*
X144880000Y-105600000D02*
X144880000Y-103060000D01*
X144880000Y-106170000D02*
X142120000Y-106170000D01*
X144880000Y-106170000D02*
X144880000Y-103060000D01*
G04 #@! TO.C,SW1*
X160890000Y-99790000D02*
X160890000Y-104710000D01*
X161140000Y-99790000D02*
X160890000Y-99790000D01*
X161140000Y-104710000D02*
X160890000Y-104710000D01*
X164610000Y-99790000D02*
X164360000Y-99790000D01*
X164610000Y-104710000D02*
X164360000Y-104710000D01*
X164610000Y-104710000D02*
X164610000Y-99790000D01*
G04 #@! TO.C,U1*
X150915000Y-99800000D02*
X155035000Y-99800000D01*
X150915000Y-99895000D02*
X150915000Y-99800000D01*
X150915000Y-104920000D02*
X150915000Y-104825000D01*
X155035000Y-99800000D02*
X155035000Y-99895000D01*
X155035000Y-104825000D02*
X155035000Y-104920000D01*
X155035000Y-104920000D02*
X150915000Y-104920000D01*
X150375000Y-99890000D02*
X150135000Y-99560000D01*
X150615000Y-99560000D01*
X150375000Y-99890000D01*
G36*
X150375000Y-99890000D02*
G01*
X150135000Y-99560000D01*
X150615000Y-99560000D01*
X150375000Y-99890000D01*
G37*
G04 #@! TO.C,R1*
X157340000Y-105977064D02*
X157340000Y-104522936D01*
X159160000Y-105977064D02*
X159160000Y-104522936D01*
G04 #@! TO.C,C1*
X152288748Y-97090000D02*
X153711252Y-97090000D01*
X152288748Y-98910000D02*
X153711252Y-98910000D01*
G04 #@! TO.C,D1*
X151400000Y-107885000D02*
X155460000Y-107885000D01*
X155460000Y-105615000D02*
X151400000Y-105615000D01*
X155460000Y-107885000D02*
X155460000Y-105615000D01*
G04 #@! TD*
M02*
