G04 #@! TF.GenerationSoftware,KiCad,Pcbnew,10.0.3*
G04 #@! TF.CreationDate,2026-07-16T11:44:50-04:00*
G04 #@! TF.ProjectId,ATtinyBoard,41547469-6e79-4426-9f61-72642e6b6963,rev?*
G04 #@! TF.SameCoordinates,Original*
G04 #@! TF.FileFunction,Copper,L1,Top*
G04 #@! TF.FilePolarity,Positive*
%FSLAX46Y46*%
G04 Gerber Fmt 4.6, Leading zero omitted, Abs format (unit mm)*
G04 Created by KiCad (PCBNEW 10.0.3) date 2026-07-16 11:44:50*
%MOMM*%
%LPD*%
G01*
G04 APERTURE LIST*
G04 Aperture macros list*
%AMRoundRect*
0 Rectangle with rounded corners*
0 $1 Rounding radius*
0 $2 $3 $4 $5 $6 $7 $8 $9 X,Y pos of 4 corners*
0 Add a 4 corners polygon primitive as box body*
4,1,4,$2,$3,$4,$5,$6,$7,$8,$9,$2,$3,0*
0 Add four circle primitives for the rounded corners*
1,1,$1+$1,$2,$3*
1,1,$1+$1,$4,$5*
1,1,$1+$1,$6,$7*
1,1,$1+$1,$8,$9*
0 Add four rect primitives between the rounded corners*
20,1,$1+$1,$2,$3,$4,$5,0*
20,1,$1+$1,$4,$5,$6,$7,0*
20,1,$1+$1,$6,$7,$8,$9,0*
20,1,$1+$1,$8,$9,$2,$3,0*%
G04 Aperture macros list end*
G04 #@! TA.AperFunction,SMDPad,CuDef*
%ADD10R,2.510000X1.000000*%
G04 #@! TD*
G04 #@! TA.AperFunction,SMDPad,CuDef*
%ADD11RoundRect,0.250000X-0.250000X0.475000X-0.250000X-0.475000X0.250000X-0.475000X0.250000X0.475000X0*%
G04 #@! TD*
G04 #@! TA.AperFunction,SMDPad,CuDef*
%ADD12RoundRect,0.150000X-0.825000X-0.150000X0.825000X-0.150000X0.825000X0.150000X-0.825000X0.150000X0*%
G04 #@! TD*
G04 #@! TA.AperFunction,SMDPad,CuDef*
%ADD13RoundRect,0.250000X0.625000X-0.312500X0.625000X0.312500X-0.625000X0.312500X-0.625000X-0.312500X0*%
G04 #@! TD*
G04 #@! TA.AperFunction,SMDPad,CuDef*
%ADD14RoundRect,0.250000X-0.412500X-0.650000X0.412500X-0.650000X0.412500X0.650000X-0.412500X0.650000X0*%
G04 #@! TD*
G04 #@! TA.AperFunction,SMDPad,CuDef*
%ADD15RoundRect,0.250001X0.462499X0.624999X-0.462499X0.624999X-0.462499X-0.624999X0.462499X-0.624999X0*%
G04 #@! TD*
G04 #@! TA.AperFunction,Conductor*
%ADD16C,0.200000*%
G04 #@! TD*
G04 APERTURE END LIST*
D10*
G04 #@! TO.P,J1,1,Pin_1_1*
G04 #@! TO.N,/UPDI*
X141845000Y-104790000D03*
G04 #@! TO.P,J1,2,Pin_2_2*
G04 #@! TO.N,5V0*
X145155000Y-102250000D03*
G04 #@! TO.P,J1,3,Pin_3_3*
G04 #@! TO.N,GND*
X141845000Y-99710000D03*
G04 #@! TD*
D11*
G04 #@! TO.P,SW1,1,1_1*
G04 #@! TO.N,Net-(U1-PA6)*
X163600000Y-99675000D03*
X163600000Y-104825000D03*
G04 #@! TO.P,SW1,2,2_2*
G04 #@! TO.N,GND*
X161900000Y-99675000D03*
X161900000Y-104825000D03*
G04 #@! TD*
D12*
G04 #@! TO.P,U1,1,VCC_1*
G04 #@! TO.N,5V0*
X150500000Y-100455000D03*
G04 #@! TO.P,U1,2,PA6_2*
G04 #@! TO.N,Net-(U1-PA6)*
X150500000Y-101725000D03*
G04 #@! TO.P,U1,3,PA7_3*
G04 #@! TO.N,unconnected-(U1-PA7-Pad3)*
X150500000Y-102995000D03*
G04 #@! TO.P,U1,4,PA1_4*
G04 #@! TO.N,Net-(D1-A)*
X150500000Y-104265000D03*
G04 #@! TO.P,U1,5,PA2_5*
G04 #@! TO.N,unconnected-(U1-PA2-Pad5)*
X155450000Y-104265000D03*
G04 #@! TO.P,U1,6,~{RESET}/PA0_6*
G04 #@! TO.N,/UPDI*
X155450000Y-102995000D03*
G04 #@! TO.P,U1,7,PA3_7*
G04 #@! TO.N,unconnected-(U1-PA3-Pad7)*
X155450000Y-101725000D03*
G04 #@! TO.P,U1,8,GND_8*
G04 #@! TO.N,GND*
X155450000Y-100455000D03*
G04 #@! TD*
D13*
G04 #@! TO.P,R1,1*
G04 #@! TO.N,Net-(D1-K)*
X158250000Y-106712500D03*
G04 #@! TO.P,R1,2*
G04 #@! TO.N,GND*
X158250000Y-103787500D03*
G04 #@! TD*
D14*
G04 #@! TO.P,C1,1*
G04 #@! TO.N,5V0*
X151437500Y-98000000D03*
G04 #@! TO.P,C1,2*
G04 #@! TO.N,GND*
X154562500Y-98000000D03*
G04 #@! TD*
D15*
G04 #@! TO.P,D1,1,K_1*
G04 #@! TO.N,Net-(D1-K)*
X154487500Y-106750000D03*
G04 #@! TO.P,D1,2,A_2*
G04 #@! TO.N,Net-(D1-A)*
X151512500Y-106750000D03*
G04 #@! TD*
G04 #@! TO.N,/UPDI*
D16*
X144750000Y-108750000D02*
X152250000Y-108750000D01*
X153000000Y-103750000D02*
X153755000Y-102995000D01*
X141845000Y-105845000D02*
X144750000Y-108750000D01*
X141845000Y-104790000D02*
X141845000Y-105845000D01*
X152250000Y-108750000D02*
X153000000Y-108000000D01*
X153755000Y-102995000D02*
X155450000Y-102995000D01*
X153000000Y-108000000D02*
X153000000Y-103750000D01*
G04 #@! TO.N,5V0*
X145155000Y-102250000D02*
X146950000Y-100455000D01*
X151437500Y-99312500D02*
X151437500Y-98000000D01*
X150500000Y-100455000D02*
X150500000Y-100250000D01*
X146950000Y-100455000D02*
X150500000Y-100455000D01*
X150500000Y-100250000D02*
X151437500Y-99312500D01*
G04 #@! TO.N,GND*
X155450000Y-100455000D02*
X161120000Y-100455000D01*
X154562500Y-97562500D02*
X154562500Y-98000000D01*
X160862500Y-103787500D02*
X158250000Y-103787500D01*
X154562500Y-98000000D02*
X154562500Y-99567500D01*
X161120000Y-100455000D02*
X161900000Y-99675000D01*
X161900000Y-104825000D02*
X161900000Y-99675000D01*
X141845000Y-99710000D02*
X145290000Y-99710000D01*
X145290000Y-99710000D02*
X148750000Y-96250000D01*
X148750000Y-96250000D02*
X153250000Y-96250000D01*
X153250000Y-96250000D02*
X154562500Y-97562500D01*
X154562500Y-99567500D02*
X155450000Y-100455000D01*
X161900000Y-104825000D02*
X160862500Y-103787500D01*
G04 #@! TO.N,Net-(U1-PA6)*
X148775000Y-101725000D02*
X147000000Y-103500000D01*
X140000000Y-98250000D02*
X142750000Y-95500000D01*
X147000000Y-103500000D02*
X142250000Y-103500000D01*
X142250000Y-103500000D02*
X140000000Y-101250000D01*
X163600000Y-99675000D02*
X163600000Y-104825000D01*
X161000000Y-95500000D02*
X163600000Y-98100000D01*
X140000000Y-101250000D02*
X140000000Y-98250000D01*
X142750000Y-95500000D02*
X161000000Y-95500000D01*
X150500000Y-101725000D02*
X148775000Y-101725000D01*
X163600000Y-98100000D02*
X163600000Y-99675000D01*
G04 #@! TO.N,Net-(D1-A)*
X151512500Y-106750000D02*
X151512500Y-105277500D01*
X151512500Y-105277500D02*
X150500000Y-104265000D01*
G04 #@! TO.N,Net-(D1-K)*
X158212500Y-106750000D02*
X158250000Y-106712500D01*
X154487500Y-106750000D02*
X158212500Y-106750000D01*
G04 #@! TD*
M02*
