G04 #@! TF.GenerationSoftware,KiCad,Pcbnew,10.0.3*
G04 #@! TF.CreationDate,2026-07-16T11:49:37-04:00*
G04 #@! TF.ProjectId,FTDIAdapterBoard,46544449-4164-4617-9074-6572426f6172,rev?*
G04 #@! TF.SameCoordinates,Original*
G04 #@! TF.FileFunction,Legend,Top*
G04 #@! TF.FilePolarity,Positive*
%FSLAX46Y46*%
G04 Gerber Fmt 4.6, Leading zero omitted, Abs format (unit mm)*
G04 Created by KiCad (PCBNEW 10.0.3) date 2026-07-16 11:49:37*
%MOMM*%
%LPD*%
G01*
G04 APERTURE LIST*
%ADD10C,0.250000*%
%ADD11C,0.150000*%
%ADD12C,0.000000*%
%ADD13C,0.120000*%
G04 APERTURE END LIST*
D10*
X147252568Y-100949619D02*
X147252568Y-99949619D01*
X147252568Y-99949619D02*
X147823996Y-100949619D01*
X147823996Y-100949619D02*
X147823996Y-99949619D01*
X148871615Y-100854380D02*
X148823996Y-100902000D01*
X148823996Y-100902000D02*
X148681139Y-100949619D01*
X148681139Y-100949619D02*
X148585901Y-100949619D01*
X148585901Y-100949619D02*
X148443044Y-100902000D01*
X148443044Y-100902000D02*
X148347806Y-100806761D01*
X148347806Y-100806761D02*
X148300187Y-100711523D01*
X148300187Y-100711523D02*
X148252568Y-100521047D01*
X148252568Y-100521047D02*
X148252568Y-100378190D01*
X148252568Y-100378190D02*
X148300187Y-100187714D01*
X148300187Y-100187714D02*
X148347806Y-100092476D01*
X148347806Y-100092476D02*
X148443044Y-99997238D01*
X148443044Y-99997238D02*
X148585901Y-99949619D01*
X148585901Y-99949619D02*
X148681139Y-99949619D01*
X148681139Y-99949619D02*
X148823996Y-99997238D01*
X148823996Y-99997238D02*
X148871615Y-100044857D01*
X147973996Y-103449619D02*
X147640663Y-102973428D01*
X147402568Y-103449619D02*
X147402568Y-102449619D01*
X147402568Y-102449619D02*
X147783520Y-102449619D01*
X147783520Y-102449619D02*
X147878758Y-102497238D01*
X147878758Y-102497238D02*
X147926377Y-102544857D01*
X147926377Y-102544857D02*
X147973996Y-102640095D01*
X147973996Y-102640095D02*
X147973996Y-102782952D01*
X147973996Y-102782952D02*
X147926377Y-102878190D01*
X147926377Y-102878190D02*
X147878758Y-102925809D01*
X147878758Y-102925809D02*
X147783520Y-102973428D01*
X147783520Y-102973428D02*
X147402568Y-102973428D01*
X148307330Y-102449619D02*
X148973996Y-103449619D01*
X148973996Y-102449619D02*
X148307330Y-103449619D01*
X147259711Y-104949619D02*
X147831139Y-104949619D01*
X147545425Y-105949619D02*
X147545425Y-104949619D01*
X148069235Y-104949619D02*
X148735901Y-105949619D01*
X148735901Y-104949619D02*
X148069235Y-105949619D01*
X147878758Y-107449619D02*
X147402568Y-107449619D01*
X147402568Y-107449619D02*
X147354949Y-107925809D01*
X147354949Y-107925809D02*
X147402568Y-107878190D01*
X147402568Y-107878190D02*
X147497806Y-107830571D01*
X147497806Y-107830571D02*
X147735901Y-107830571D01*
X147735901Y-107830571D02*
X147831139Y-107878190D01*
X147831139Y-107878190D02*
X147878758Y-107925809D01*
X147878758Y-107925809D02*
X147926377Y-108021047D01*
X147926377Y-108021047D02*
X147926377Y-108259142D01*
X147926377Y-108259142D02*
X147878758Y-108354380D01*
X147878758Y-108354380D02*
X147831139Y-108402000D01*
X147831139Y-108402000D02*
X147735901Y-108449619D01*
X147735901Y-108449619D02*
X147497806Y-108449619D01*
X147497806Y-108449619D02*
X147402568Y-108402000D01*
X147402568Y-108402000D02*
X147354949Y-108354380D01*
X148212092Y-107449619D02*
X148545425Y-108449619D01*
X148545425Y-108449619D02*
X148878758Y-107449619D01*
X149402568Y-107449619D02*
X149497806Y-107449619D01*
X149497806Y-107449619D02*
X149593044Y-107497238D01*
X149593044Y-107497238D02*
X149640663Y-107544857D01*
X149640663Y-107544857D02*
X149688282Y-107640095D01*
X149688282Y-107640095D02*
X149735901Y-107830571D01*
X149735901Y-107830571D02*
X149735901Y-108068666D01*
X149735901Y-108068666D02*
X149688282Y-108259142D01*
X149688282Y-108259142D02*
X149640663Y-108354380D01*
X149640663Y-108354380D02*
X149593044Y-108402000D01*
X149593044Y-108402000D02*
X149497806Y-108449619D01*
X149497806Y-108449619D02*
X149402568Y-108449619D01*
X149402568Y-108449619D02*
X149307330Y-108402000D01*
X149307330Y-108402000D02*
X149259711Y-108354380D01*
X149259711Y-108354380D02*
X149212092Y-108259142D01*
X149212092Y-108259142D02*
X149164473Y-108068666D01*
X149164473Y-108068666D02*
X149164473Y-107830571D01*
X149164473Y-107830571D02*
X149212092Y-107640095D01*
X149212092Y-107640095D02*
X149259711Y-107544857D01*
X149259711Y-107544857D02*
X149307330Y-107497238D01*
X149307330Y-107497238D02*
X149402568Y-107449619D01*
X150878758Y-107402000D02*
X150021616Y-108687714D01*
X151116854Y-107449619D02*
X151735901Y-107449619D01*
X151735901Y-107449619D02*
X151402568Y-107830571D01*
X151402568Y-107830571D02*
X151545425Y-107830571D01*
X151545425Y-107830571D02*
X151640663Y-107878190D01*
X151640663Y-107878190D02*
X151688282Y-107925809D01*
X151688282Y-107925809D02*
X151735901Y-108021047D01*
X151735901Y-108021047D02*
X151735901Y-108259142D01*
X151735901Y-108259142D02*
X151688282Y-108354380D01*
X151688282Y-108354380D02*
X151640663Y-108402000D01*
X151640663Y-108402000D02*
X151545425Y-108449619D01*
X151545425Y-108449619D02*
X151259711Y-108449619D01*
X151259711Y-108449619D02*
X151164473Y-108402000D01*
X151164473Y-108402000D02*
X151116854Y-108354380D01*
X152021616Y-107449619D02*
X152354949Y-108449619D01*
X152354949Y-108449619D02*
X152688282Y-107449619D01*
X152926378Y-107449619D02*
X153545425Y-107449619D01*
X153545425Y-107449619D02*
X153212092Y-107830571D01*
X153212092Y-107830571D02*
X153354949Y-107830571D01*
X153354949Y-107830571D02*
X153450187Y-107878190D01*
X153450187Y-107878190D02*
X153497806Y-107925809D01*
X153497806Y-107925809D02*
X153545425Y-108021047D01*
X153545425Y-108021047D02*
X153545425Y-108259142D01*
X153545425Y-108259142D02*
X153497806Y-108354380D01*
X153497806Y-108354380D02*
X153450187Y-108402000D01*
X153450187Y-108402000D02*
X153354949Y-108449619D01*
X153354949Y-108449619D02*
X153069235Y-108449619D01*
X153069235Y-108449619D02*
X152973997Y-108402000D01*
X152973997Y-108402000D02*
X152926378Y-108354380D01*
X147402568Y-110949619D02*
X147402568Y-109949619D01*
X147402568Y-109949619D02*
X147973996Y-110949619D01*
X147973996Y-110949619D02*
X147973996Y-109949619D01*
X149021615Y-110854380D02*
X148973996Y-110902000D01*
X148973996Y-110902000D02*
X148831139Y-110949619D01*
X148831139Y-110949619D02*
X148735901Y-110949619D01*
X148735901Y-110949619D02*
X148593044Y-110902000D01*
X148593044Y-110902000D02*
X148497806Y-110806761D01*
X148497806Y-110806761D02*
X148450187Y-110711523D01*
X148450187Y-110711523D02*
X148402568Y-110521047D01*
X148402568Y-110521047D02*
X148402568Y-110378190D01*
X148402568Y-110378190D02*
X148450187Y-110187714D01*
X148450187Y-110187714D02*
X148497806Y-110092476D01*
X148497806Y-110092476D02*
X148593044Y-109997238D01*
X148593044Y-109997238D02*
X148735901Y-109949619D01*
X148735901Y-109949619D02*
X148831139Y-109949619D01*
X148831139Y-109949619D02*
X148973996Y-109997238D01*
X148973996Y-109997238D02*
X149021615Y-110044857D01*
X147926377Y-112497238D02*
X147831139Y-112449619D01*
X147831139Y-112449619D02*
X147688282Y-112449619D01*
X147688282Y-112449619D02*
X147545425Y-112497238D01*
X147545425Y-112497238D02*
X147450187Y-112592476D01*
X147450187Y-112592476D02*
X147402568Y-112687714D01*
X147402568Y-112687714D02*
X147354949Y-112878190D01*
X147354949Y-112878190D02*
X147354949Y-113021047D01*
X147354949Y-113021047D02*
X147402568Y-113211523D01*
X147402568Y-113211523D02*
X147450187Y-113306761D01*
X147450187Y-113306761D02*
X147545425Y-113402000D01*
X147545425Y-113402000D02*
X147688282Y-113449619D01*
X147688282Y-113449619D02*
X147783520Y-113449619D01*
X147783520Y-113449619D02*
X147926377Y-113402000D01*
X147926377Y-113402000D02*
X147973996Y-113354380D01*
X147973996Y-113354380D02*
X147973996Y-113021047D01*
X147973996Y-113021047D02*
X147783520Y-113021047D01*
X148402568Y-113449619D02*
X148402568Y-112449619D01*
X148402568Y-112449619D02*
X148973996Y-113449619D01*
X148973996Y-113449619D02*
X148973996Y-112449619D01*
X149450187Y-113449619D02*
X149450187Y-112449619D01*
X149450187Y-112449619D02*
X149688282Y-112449619D01*
X149688282Y-112449619D02*
X149831139Y-112497238D01*
X149831139Y-112497238D02*
X149926377Y-112592476D01*
X149926377Y-112592476D02*
X149973996Y-112687714D01*
X149973996Y-112687714D02*
X150021615Y-112878190D01*
X150021615Y-112878190D02*
X150021615Y-113021047D01*
X150021615Y-113021047D02*
X149973996Y-113211523D01*
X149973996Y-113211523D02*
X149926377Y-113306761D01*
X149926377Y-113306761D02*
X149831139Y-113402000D01*
X149831139Y-113402000D02*
X149688282Y-113449619D01*
X149688282Y-113449619D02*
X149450187Y-113449619D01*
X144523809Y-98340809D02*
X144190476Y-98340809D01*
X144190476Y-98864619D02*
X144190476Y-97864619D01*
X144190476Y-97864619D02*
X144666666Y-97864619D01*
X144904762Y-97864619D02*
X145476190Y-97864619D01*
X145190476Y-98864619D02*
X145190476Y-97864619D01*
X145809524Y-98864619D02*
X145809524Y-97864619D01*
X145809524Y-97864619D02*
X146047619Y-97864619D01*
X146047619Y-97864619D02*
X146190476Y-97912238D01*
X146190476Y-97912238D02*
X146285714Y-98007476D01*
X146285714Y-98007476D02*
X146333333Y-98102714D01*
X146333333Y-98102714D02*
X146380952Y-98293190D01*
X146380952Y-98293190D02*
X146380952Y-98436047D01*
X146380952Y-98436047D02*
X146333333Y-98626523D01*
X146333333Y-98626523D02*
X146285714Y-98721761D01*
X146285714Y-98721761D02*
X146190476Y-98817000D01*
X146190476Y-98817000D02*
X146047619Y-98864619D01*
X146047619Y-98864619D02*
X145809524Y-98864619D01*
X146809524Y-98864619D02*
X146809524Y-97864619D01*
X150238094Y-98340809D02*
X149904761Y-98340809D01*
X149904761Y-98864619D02*
X149904761Y-97864619D01*
X149904761Y-97864619D02*
X150380951Y-97864619D01*
X150619047Y-97864619D02*
X151190475Y-97864619D01*
X150904761Y-98864619D02*
X150904761Y-97864619D01*
X151523809Y-98864619D02*
X151523809Y-97864619D01*
X151523809Y-97864619D02*
X151761904Y-97864619D01*
X151761904Y-97864619D02*
X151904761Y-97912238D01*
X151904761Y-97912238D02*
X151999999Y-98007476D01*
X151999999Y-98007476D02*
X152047618Y-98102714D01*
X152047618Y-98102714D02*
X152095237Y-98293190D01*
X152095237Y-98293190D02*
X152095237Y-98436047D01*
X152095237Y-98436047D02*
X152047618Y-98626523D01*
X152047618Y-98626523D02*
X151999999Y-98721761D01*
X151999999Y-98721761D02*
X151904761Y-98817000D01*
X151904761Y-98817000D02*
X151761904Y-98864619D01*
X151761904Y-98864619D02*
X151523809Y-98864619D01*
X152523809Y-98864619D02*
X152523809Y-97864619D01*
X153619047Y-98197952D02*
X153999999Y-98197952D01*
X153761904Y-97864619D02*
X153761904Y-98721761D01*
X153761904Y-98721761D02*
X153809523Y-98817000D01*
X153809523Y-98817000D02*
X153904761Y-98864619D01*
X153904761Y-98864619D02*
X153999999Y-98864619D01*
X154476190Y-98864619D02*
X154380952Y-98817000D01*
X154380952Y-98817000D02*
X154333333Y-98769380D01*
X154333333Y-98769380D02*
X154285714Y-98674142D01*
X154285714Y-98674142D02*
X154285714Y-98388428D01*
X154285714Y-98388428D02*
X154333333Y-98293190D01*
X154333333Y-98293190D02*
X154380952Y-98245571D01*
X154380952Y-98245571D02*
X154476190Y-98197952D01*
X154476190Y-98197952D02*
X154619047Y-98197952D01*
X154619047Y-98197952D02*
X154714285Y-98245571D01*
X154714285Y-98245571D02*
X154761904Y-98293190D01*
X154761904Y-98293190D02*
X154809523Y-98388428D01*
X154809523Y-98388428D02*
X154809523Y-98674142D01*
X154809523Y-98674142D02*
X154761904Y-98769380D01*
X154761904Y-98769380D02*
X154714285Y-98817000D01*
X154714285Y-98817000D02*
X154619047Y-98864619D01*
X154619047Y-98864619D02*
X154476190Y-98864619D01*
X156000000Y-98864619D02*
X156000000Y-97864619D01*
X156000000Y-97864619D02*
X156333333Y-98578904D01*
X156333333Y-98578904D02*
X156666666Y-97864619D01*
X156666666Y-97864619D02*
X156666666Y-98864619D01*
X157714285Y-98769380D02*
X157666666Y-98817000D01*
X157666666Y-98817000D02*
X157523809Y-98864619D01*
X157523809Y-98864619D02*
X157428571Y-98864619D01*
X157428571Y-98864619D02*
X157285714Y-98817000D01*
X157285714Y-98817000D02*
X157190476Y-98721761D01*
X157190476Y-98721761D02*
X157142857Y-98626523D01*
X157142857Y-98626523D02*
X157095238Y-98436047D01*
X157095238Y-98436047D02*
X157095238Y-98293190D01*
X157095238Y-98293190D02*
X157142857Y-98102714D01*
X157142857Y-98102714D02*
X157190476Y-98007476D01*
X157190476Y-98007476D02*
X157285714Y-97912238D01*
X157285714Y-97912238D02*
X157428571Y-97864619D01*
X157428571Y-97864619D02*
X157523809Y-97864619D01*
X157523809Y-97864619D02*
X157666666Y-97912238D01*
X157666666Y-97912238D02*
X157714285Y-97959857D01*
X158142857Y-97864619D02*
X158142857Y-98674142D01*
X158142857Y-98674142D02*
X158190476Y-98769380D01*
X158190476Y-98769380D02*
X158238095Y-98817000D01*
X158238095Y-98817000D02*
X158333333Y-98864619D01*
X158333333Y-98864619D02*
X158523809Y-98864619D01*
X158523809Y-98864619D02*
X158619047Y-98817000D01*
X158619047Y-98817000D02*
X158666666Y-98769380D01*
X158666666Y-98769380D02*
X158714285Y-98674142D01*
X158714285Y-98674142D02*
X158714285Y-97864619D01*
X159904762Y-98578904D02*
X160380952Y-98578904D01*
X159809524Y-98864619D02*
X160142857Y-97864619D01*
X160142857Y-97864619D02*
X160476190Y-98864619D01*
X161238095Y-98864619D02*
X161238095Y-97864619D01*
X161238095Y-98817000D02*
X161142857Y-98864619D01*
X161142857Y-98864619D02*
X160952381Y-98864619D01*
X160952381Y-98864619D02*
X160857143Y-98817000D01*
X160857143Y-98817000D02*
X160809524Y-98769380D01*
X160809524Y-98769380D02*
X160761905Y-98674142D01*
X160761905Y-98674142D02*
X160761905Y-98388428D01*
X160761905Y-98388428D02*
X160809524Y-98293190D01*
X160809524Y-98293190D02*
X160857143Y-98245571D01*
X160857143Y-98245571D02*
X160952381Y-98197952D01*
X160952381Y-98197952D02*
X161142857Y-98197952D01*
X161142857Y-98197952D02*
X161238095Y-98245571D01*
X162142857Y-98864619D02*
X162142857Y-98340809D01*
X162142857Y-98340809D02*
X162095238Y-98245571D01*
X162095238Y-98245571D02*
X162000000Y-98197952D01*
X162000000Y-98197952D02*
X161809524Y-98197952D01*
X161809524Y-98197952D02*
X161714286Y-98245571D01*
X162142857Y-98817000D02*
X162047619Y-98864619D01*
X162047619Y-98864619D02*
X161809524Y-98864619D01*
X161809524Y-98864619D02*
X161714286Y-98817000D01*
X161714286Y-98817000D02*
X161666667Y-98721761D01*
X161666667Y-98721761D02*
X161666667Y-98626523D01*
X161666667Y-98626523D02*
X161714286Y-98531285D01*
X161714286Y-98531285D02*
X161809524Y-98483666D01*
X161809524Y-98483666D02*
X162047619Y-98483666D01*
X162047619Y-98483666D02*
X162142857Y-98436047D01*
X162619048Y-98197952D02*
X162619048Y-99197952D01*
X162619048Y-98245571D02*
X162714286Y-98197952D01*
X162714286Y-98197952D02*
X162904762Y-98197952D01*
X162904762Y-98197952D02*
X163000000Y-98245571D01*
X163000000Y-98245571D02*
X163047619Y-98293190D01*
X163047619Y-98293190D02*
X163095238Y-98388428D01*
X163095238Y-98388428D02*
X163095238Y-98674142D01*
X163095238Y-98674142D02*
X163047619Y-98769380D01*
X163047619Y-98769380D02*
X163000000Y-98817000D01*
X163000000Y-98817000D02*
X162904762Y-98864619D01*
X162904762Y-98864619D02*
X162714286Y-98864619D01*
X162714286Y-98864619D02*
X162619048Y-98817000D01*
X163380953Y-98197952D02*
X163761905Y-98197952D01*
X163523810Y-97864619D02*
X163523810Y-98721761D01*
X163523810Y-98721761D02*
X163571429Y-98817000D01*
X163571429Y-98817000D02*
X163666667Y-98864619D01*
X163666667Y-98864619D02*
X163761905Y-98864619D01*
X164476191Y-98817000D02*
X164380953Y-98864619D01*
X164380953Y-98864619D02*
X164190477Y-98864619D01*
X164190477Y-98864619D02*
X164095239Y-98817000D01*
X164095239Y-98817000D02*
X164047620Y-98721761D01*
X164047620Y-98721761D02*
X164047620Y-98340809D01*
X164047620Y-98340809D02*
X164095239Y-98245571D01*
X164095239Y-98245571D02*
X164190477Y-98197952D01*
X164190477Y-98197952D02*
X164380953Y-98197952D01*
X164380953Y-98197952D02*
X164476191Y-98245571D01*
X164476191Y-98245571D02*
X164523810Y-98340809D01*
X164523810Y-98340809D02*
X164523810Y-98436047D01*
X164523810Y-98436047D02*
X164047620Y-98531285D01*
X164952382Y-98864619D02*
X164952382Y-98197952D01*
X164952382Y-98388428D02*
X165000001Y-98293190D01*
X165000001Y-98293190D02*
X165047620Y-98245571D01*
X165047620Y-98245571D02*
X165142858Y-98197952D01*
X165142858Y-98197952D02*
X165238096Y-98197952D01*
X167492462Y-101289619D02*
X167492462Y-100289619D01*
X167492462Y-100289619D02*
X167825795Y-101003904D01*
X167825795Y-101003904D02*
X168159128Y-100289619D01*
X168159128Y-100289619D02*
X168159128Y-101289619D01*
X169206747Y-101194380D02*
X169159128Y-101242000D01*
X169159128Y-101242000D02*
X169016271Y-101289619D01*
X169016271Y-101289619D02*
X168921033Y-101289619D01*
X168921033Y-101289619D02*
X168778176Y-101242000D01*
X168778176Y-101242000D02*
X168682938Y-101146761D01*
X168682938Y-101146761D02*
X168635319Y-101051523D01*
X168635319Y-101051523D02*
X168587700Y-100861047D01*
X168587700Y-100861047D02*
X168587700Y-100718190D01*
X168587700Y-100718190D02*
X168635319Y-100527714D01*
X168635319Y-100527714D02*
X168682938Y-100432476D01*
X168682938Y-100432476D02*
X168778176Y-100337238D01*
X168778176Y-100337238D02*
X168921033Y-100289619D01*
X168921033Y-100289619D02*
X169016271Y-100289619D01*
X169016271Y-100289619D02*
X169159128Y-100337238D01*
X169159128Y-100337238D02*
X169206747Y-100384857D01*
X169635319Y-100289619D02*
X169635319Y-101099142D01*
X169635319Y-101099142D02*
X169682938Y-101194380D01*
X169682938Y-101194380D02*
X169730557Y-101242000D01*
X169730557Y-101242000D02*
X169825795Y-101289619D01*
X169825795Y-101289619D02*
X170016271Y-101289619D01*
X170016271Y-101289619D02*
X170111509Y-101242000D01*
X170111509Y-101242000D02*
X170159128Y-101194380D01*
X170159128Y-101194380D02*
X170206747Y-101099142D01*
X170206747Y-101099142D02*
X170206747Y-100289619D01*
X164899417Y-102422238D02*
X164804179Y-102374619D01*
X164804179Y-102374619D02*
X164661322Y-102374619D01*
X164661322Y-102374619D02*
X164518465Y-102422238D01*
X164518465Y-102422238D02*
X164423227Y-102517476D01*
X164423227Y-102517476D02*
X164375608Y-102612714D01*
X164375608Y-102612714D02*
X164327989Y-102803190D01*
X164327989Y-102803190D02*
X164327989Y-102946047D01*
X164327989Y-102946047D02*
X164375608Y-103136523D01*
X164375608Y-103136523D02*
X164423227Y-103231761D01*
X164423227Y-103231761D02*
X164518465Y-103327000D01*
X164518465Y-103327000D02*
X164661322Y-103374619D01*
X164661322Y-103374619D02*
X164756560Y-103374619D01*
X164756560Y-103374619D02*
X164899417Y-103327000D01*
X164899417Y-103327000D02*
X164947036Y-103279380D01*
X164947036Y-103279380D02*
X164947036Y-102946047D01*
X164947036Y-102946047D02*
X164756560Y-102946047D01*
X165375608Y-103374619D02*
X165375608Y-102374619D01*
X165375608Y-102374619D02*
X165947036Y-103374619D01*
X165947036Y-103374619D02*
X165947036Y-102374619D01*
X166423227Y-103374619D02*
X166423227Y-102374619D01*
X166423227Y-102374619D02*
X166661322Y-102374619D01*
X166661322Y-102374619D02*
X166804179Y-102422238D01*
X166804179Y-102422238D02*
X166899417Y-102517476D01*
X166899417Y-102517476D02*
X166947036Y-102612714D01*
X166947036Y-102612714D02*
X166994655Y-102803190D01*
X166994655Y-102803190D02*
X166994655Y-102946047D01*
X166994655Y-102946047D02*
X166947036Y-103136523D01*
X166947036Y-103136523D02*
X166899417Y-103231761D01*
X166899417Y-103231761D02*
X166804179Y-103327000D01*
X166804179Y-103327000D02*
X166661322Y-103374619D01*
X166661322Y-103374619D02*
X166423227Y-103374619D01*
X161327988Y-104874619D02*
X160851798Y-104874619D01*
X160851798Y-104874619D02*
X160804179Y-105350809D01*
X160804179Y-105350809D02*
X160851798Y-105303190D01*
X160851798Y-105303190D02*
X160947036Y-105255571D01*
X160947036Y-105255571D02*
X161185131Y-105255571D01*
X161185131Y-105255571D02*
X161280369Y-105303190D01*
X161280369Y-105303190D02*
X161327988Y-105350809D01*
X161327988Y-105350809D02*
X161375607Y-105446047D01*
X161375607Y-105446047D02*
X161375607Y-105684142D01*
X161375607Y-105684142D02*
X161327988Y-105779380D01*
X161327988Y-105779380D02*
X161280369Y-105827000D01*
X161280369Y-105827000D02*
X161185131Y-105874619D01*
X161185131Y-105874619D02*
X160947036Y-105874619D01*
X160947036Y-105874619D02*
X160851798Y-105827000D01*
X160851798Y-105827000D02*
X160804179Y-105779380D01*
X161661322Y-104874619D02*
X161994655Y-105874619D01*
X161994655Y-105874619D02*
X162327988Y-104874619D01*
X162851798Y-104874619D02*
X162947036Y-104874619D01*
X162947036Y-104874619D02*
X163042274Y-104922238D01*
X163042274Y-104922238D02*
X163089893Y-104969857D01*
X163089893Y-104969857D02*
X163137512Y-105065095D01*
X163137512Y-105065095D02*
X163185131Y-105255571D01*
X163185131Y-105255571D02*
X163185131Y-105493666D01*
X163185131Y-105493666D02*
X163137512Y-105684142D01*
X163137512Y-105684142D02*
X163089893Y-105779380D01*
X163089893Y-105779380D02*
X163042274Y-105827000D01*
X163042274Y-105827000D02*
X162947036Y-105874619D01*
X162947036Y-105874619D02*
X162851798Y-105874619D01*
X162851798Y-105874619D02*
X162756560Y-105827000D01*
X162756560Y-105827000D02*
X162708941Y-105779380D01*
X162708941Y-105779380D02*
X162661322Y-105684142D01*
X162661322Y-105684142D02*
X162613703Y-105493666D01*
X162613703Y-105493666D02*
X162613703Y-105255571D01*
X162613703Y-105255571D02*
X162661322Y-105065095D01*
X162661322Y-105065095D02*
X162708941Y-104969857D01*
X162708941Y-104969857D02*
X162756560Y-104922238D01*
X162756560Y-104922238D02*
X162851798Y-104874619D01*
X164327988Y-104827000D02*
X163470846Y-106112714D01*
X164566084Y-104874619D02*
X165185131Y-104874619D01*
X165185131Y-104874619D02*
X164851798Y-105255571D01*
X164851798Y-105255571D02*
X164994655Y-105255571D01*
X164994655Y-105255571D02*
X165089893Y-105303190D01*
X165089893Y-105303190D02*
X165137512Y-105350809D01*
X165137512Y-105350809D02*
X165185131Y-105446047D01*
X165185131Y-105446047D02*
X165185131Y-105684142D01*
X165185131Y-105684142D02*
X165137512Y-105779380D01*
X165137512Y-105779380D02*
X165089893Y-105827000D01*
X165089893Y-105827000D02*
X164994655Y-105874619D01*
X164994655Y-105874619D02*
X164708941Y-105874619D01*
X164708941Y-105874619D02*
X164613703Y-105827000D01*
X164613703Y-105827000D02*
X164566084Y-105779380D01*
X165470846Y-104874619D02*
X165804179Y-105874619D01*
X165804179Y-105874619D02*
X166137512Y-104874619D01*
X166375608Y-104874619D02*
X166994655Y-104874619D01*
X166994655Y-104874619D02*
X166661322Y-105255571D01*
X166661322Y-105255571D02*
X166804179Y-105255571D01*
X166804179Y-105255571D02*
X166899417Y-105303190D01*
X166899417Y-105303190D02*
X166947036Y-105350809D01*
X166947036Y-105350809D02*
X166994655Y-105446047D01*
X166994655Y-105446047D02*
X166994655Y-105684142D01*
X166994655Y-105684142D02*
X166947036Y-105779380D01*
X166947036Y-105779380D02*
X166899417Y-105827000D01*
X166899417Y-105827000D02*
X166804179Y-105874619D01*
X166804179Y-105874619D02*
X166518465Y-105874619D01*
X166518465Y-105874619D02*
X166423227Y-105827000D01*
X166423227Y-105827000D02*
X166375608Y-105779380D01*
X163899418Y-107374619D02*
X163899418Y-108184142D01*
X163899418Y-108184142D02*
X163947037Y-108279380D01*
X163947037Y-108279380D02*
X163994656Y-108327000D01*
X163994656Y-108327000D02*
X164089894Y-108374619D01*
X164089894Y-108374619D02*
X164280370Y-108374619D01*
X164280370Y-108374619D02*
X164375608Y-108327000D01*
X164375608Y-108327000D02*
X164423227Y-108279380D01*
X164423227Y-108279380D02*
X164470846Y-108184142D01*
X164470846Y-108184142D02*
X164470846Y-107374619D01*
X164947037Y-108374619D02*
X164947037Y-107374619D01*
X164947037Y-107374619D02*
X165327989Y-107374619D01*
X165327989Y-107374619D02*
X165423227Y-107422238D01*
X165423227Y-107422238D02*
X165470846Y-107469857D01*
X165470846Y-107469857D02*
X165518465Y-107565095D01*
X165518465Y-107565095D02*
X165518465Y-107707952D01*
X165518465Y-107707952D02*
X165470846Y-107803190D01*
X165470846Y-107803190D02*
X165423227Y-107850809D01*
X165423227Y-107850809D02*
X165327989Y-107898428D01*
X165327989Y-107898428D02*
X164947037Y-107898428D01*
X165947037Y-108374619D02*
X165947037Y-107374619D01*
X165947037Y-107374619D02*
X166185132Y-107374619D01*
X166185132Y-107374619D02*
X166327989Y-107422238D01*
X166327989Y-107422238D02*
X166423227Y-107517476D01*
X166423227Y-107517476D02*
X166470846Y-107612714D01*
X166470846Y-107612714D02*
X166518465Y-107803190D01*
X166518465Y-107803190D02*
X166518465Y-107946047D01*
X166518465Y-107946047D02*
X166470846Y-108136523D01*
X166470846Y-108136523D02*
X166423227Y-108231761D01*
X166423227Y-108231761D02*
X166327989Y-108327000D01*
X166327989Y-108327000D02*
X166185132Y-108374619D01*
X166185132Y-108374619D02*
X165947037Y-108374619D01*
X166947037Y-108374619D02*
X166947037Y-107374619D01*
D11*
X151534905Y-104049819D02*
X151534905Y-103049819D01*
X151534905Y-103049819D02*
X151773000Y-103049819D01*
X151773000Y-103049819D02*
X151915857Y-103097438D01*
X151915857Y-103097438D02*
X152011095Y-103192676D01*
X152011095Y-103192676D02*
X152058714Y-103287914D01*
X152058714Y-103287914D02*
X152106333Y-103478390D01*
X152106333Y-103478390D02*
X152106333Y-103621247D01*
X152106333Y-103621247D02*
X152058714Y-103811723D01*
X152058714Y-103811723D02*
X152011095Y-103906961D01*
X152011095Y-103906961D02*
X151915857Y-104002200D01*
X151915857Y-104002200D02*
X151773000Y-104049819D01*
X151773000Y-104049819D02*
X151534905Y-104049819D01*
X153058714Y-104049819D02*
X152487286Y-104049819D01*
X152773000Y-104049819D02*
X152773000Y-103049819D01*
X152773000Y-103049819D02*
X152677762Y-103192676D01*
X152677762Y-103192676D02*
X152582524Y-103287914D01*
X152582524Y-103287914D02*
X152487286Y-103335533D01*
X157608333Y-101624819D02*
X157275000Y-101148628D01*
X157036905Y-101624819D02*
X157036905Y-100624819D01*
X157036905Y-100624819D02*
X157417857Y-100624819D01*
X157417857Y-100624819D02*
X157513095Y-100672438D01*
X157513095Y-100672438D02*
X157560714Y-100720057D01*
X157560714Y-100720057D02*
X157608333Y-100815295D01*
X157608333Y-100815295D02*
X157608333Y-100958152D01*
X157608333Y-100958152D02*
X157560714Y-101053390D01*
X157560714Y-101053390D02*
X157513095Y-101101009D01*
X157513095Y-101101009D02*
X157417857Y-101148628D01*
X157417857Y-101148628D02*
X157036905Y-101148628D01*
X158513095Y-100624819D02*
X158036905Y-100624819D01*
X158036905Y-100624819D02*
X157989286Y-101101009D01*
X157989286Y-101101009D02*
X158036905Y-101053390D01*
X158036905Y-101053390D02*
X158132143Y-101005771D01*
X158132143Y-101005771D02*
X158370238Y-101005771D01*
X158370238Y-101005771D02*
X158465476Y-101053390D01*
X158465476Y-101053390D02*
X158513095Y-101101009D01*
X158513095Y-101101009D02*
X158560714Y-101196247D01*
X158560714Y-101196247D02*
X158560714Y-101434342D01*
X158560714Y-101434342D02*
X158513095Y-101529580D01*
X158513095Y-101529580D02*
X158465476Y-101577200D01*
X158465476Y-101577200D02*
X158370238Y-101624819D01*
X158370238Y-101624819D02*
X158132143Y-101624819D01*
X158132143Y-101624819D02*
X158036905Y-101577200D01*
X158036905Y-101577200D02*
X157989286Y-101529580D01*
D12*
G04 #@! TO.C,G\u002A\u002A\u002A*
G36*
X164422245Y-114931230D02*
G01*
X164422245Y-114985561D01*
X157902459Y-114985561D01*
X151382673Y-114985561D01*
X151382673Y-114931230D01*
X151382673Y-114876898D01*
X157902459Y-114876898D01*
X164422245Y-114876898D01*
X164422245Y-114931230D01*
G37*
G36*
X164530908Y-111358930D02*
G01*
X164530908Y-111413262D01*
X157983956Y-111413262D01*
X151437005Y-111413262D01*
X151437005Y-111358930D01*
X151437005Y-111304599D01*
X157983956Y-111304599D01*
X164530908Y-111304599D01*
X164530908Y-111358930D01*
G37*
G36*
X160768448Y-113104963D02*
G01*
X160768337Y-113284034D01*
X160768014Y-113455128D01*
X160767496Y-113616324D01*
X160766798Y-113765702D01*
X160765938Y-113901340D01*
X160764930Y-114021318D01*
X160763790Y-114123714D01*
X160762536Y-114206610D01*
X160761184Y-114268083D01*
X160759748Y-114306212D01*
X160758261Y-114319081D01*
X160739263Y-114312996D01*
X160717513Y-114303422D01*
X160686951Y-114288683D01*
X160687037Y-113112443D01*
X160687123Y-111936203D01*
X160727786Y-111913065D01*
X160768448Y-111889927D01*
X160768448Y-113104963D01*
G37*
G36*
X160605419Y-111956517D02*
G01*
X160606411Y-111971468D01*
X160607277Y-112011589D01*
X160608013Y-112074882D01*
X160608613Y-112159351D01*
X160609071Y-112263000D01*
X160609382Y-112383832D01*
X160609540Y-112519850D01*
X160609539Y-112669059D01*
X160609375Y-112829462D01*
X160609040Y-112999061D01*
X160608698Y-113123404D01*
X160607970Y-113335477D01*
X160607154Y-113521791D01*
X160606224Y-113683752D01*
X160605156Y-113822768D01*
X160603924Y-113940245D01*
X160602505Y-114037590D01*
X160600873Y-114116209D01*
X160599003Y-114177509D01*
X160596870Y-114222897D01*
X160594451Y-114253780D01*
X160591719Y-114271564D01*
X160588650Y-114277655D01*
X160588324Y-114277676D01*
X160560766Y-114272968D01*
X160547726Y-114269888D01*
X160543521Y-114267624D01*
X160539842Y-114262036D01*
X160536653Y-114251423D01*
X160533921Y-114234081D01*
X160531609Y-114208308D01*
X160529683Y-114172400D01*
X160528109Y-114124656D01*
X160526850Y-114063373D01*
X160525873Y-113986847D01*
X160525142Y-113893377D01*
X160524622Y-113781258D01*
X160524278Y-113648789D01*
X160524076Y-113494267D01*
X160523981Y-113315989D01*
X160523956Y-113112252D01*
X160523956Y-113111710D01*
X160523956Y-111959744D01*
X160561275Y-111952611D01*
X160590634Y-111950911D01*
X160605419Y-111956517D01*
G37*
G36*
X161121421Y-111552055D02*
G01*
X161148397Y-111557921D01*
X161160065Y-111570906D01*
X161162352Y-111590163D01*
X161158361Y-111608720D01*
X161143556Y-111623686D01*
X161113689Y-111637112D01*
X161064511Y-111651050D01*
X161010491Y-111663493D01*
X160924768Y-111687483D01*
X160861431Y-111718176D01*
X160815983Y-111758351D01*
X160788823Y-111800495D01*
X160761657Y-111854706D01*
X160712686Y-111830756D01*
X160654868Y-111811999D01*
X160578902Y-111800732D01*
X160492713Y-111796823D01*
X160404229Y-111800139D01*
X160321375Y-111810545D01*
X160252076Y-111827910D01*
X160225426Y-111838941D01*
X160200245Y-111849470D01*
X160186242Y-111844287D01*
X160174416Y-111818778D01*
X160171730Y-111811410D01*
X160148821Y-111771508D01*
X160109405Y-111737159D01*
X160050545Y-111706708D01*
X159969310Y-111678501D01*
X159905205Y-111661108D01*
X159840713Y-111644542D01*
X159798144Y-111632023D01*
X159772978Y-111621385D01*
X159760693Y-111610461D01*
X159756767Y-111597084D01*
X159756523Y-111589840D01*
X159756523Y-111555882D01*
X160381336Y-111553303D01*
X160511638Y-111552771D01*
X160635665Y-111552274D01*
X160750339Y-111551825D01*
X160852581Y-111551435D01*
X160939313Y-111551116D01*
X161007455Y-111550879D01*
X161053930Y-111550736D01*
X161073241Y-111550696D01*
X161121421Y-111552055D01*
G37*
G36*
X160218578Y-111906608D02*
G01*
X160237552Y-111915206D01*
X160265882Y-111930367D01*
X160265882Y-113111123D01*
X160265868Y-113317266D01*
X160265802Y-113497945D01*
X160265647Y-113654861D01*
X160265365Y-113789716D01*
X160264919Y-113904211D01*
X160264271Y-114000048D01*
X160263384Y-114078928D01*
X160262220Y-114142552D01*
X160260743Y-114192623D01*
X160258914Y-114230842D01*
X160256696Y-114258909D01*
X160254052Y-114278527D01*
X160250944Y-114291398D01*
X160247336Y-114299222D01*
X160243188Y-114303701D01*
X160239609Y-114305939D01*
X160215396Y-114317229D01*
X160205652Y-114320000D01*
X160204484Y-114306742D01*
X160203335Y-114268272D01*
X160202220Y-114206540D01*
X160201155Y-114123500D01*
X160200154Y-114021103D01*
X160199233Y-113901304D01*
X160198407Y-113766052D01*
X160197692Y-113617303D01*
X160197103Y-113457007D01*
X160196655Y-113287117D01*
X160196403Y-113141684D01*
X160196135Y-112930649D01*
X160195933Y-112745131D01*
X160195810Y-112583479D01*
X160195776Y-112444046D01*
X160195843Y-112325181D01*
X160196021Y-112225236D01*
X160196324Y-112142561D01*
X160196761Y-112075507D01*
X160197345Y-112022425D01*
X160198086Y-111981665D01*
X160198996Y-111951578D01*
X160200086Y-111930515D01*
X160201368Y-111916828D01*
X160202853Y-111908865D01*
X160204553Y-111904979D01*
X160204923Y-111904541D01*
X160218578Y-111906608D01*
G37*
G36*
X160770742Y-114376896D02*
G01*
X160775926Y-114391547D01*
X160797041Y-114430692D01*
X160833699Y-114472749D01*
X160877193Y-114508386D01*
X160894653Y-114518804D01*
X160923786Y-114530407D01*
X160971738Y-114545720D01*
X161030844Y-114562402D01*
X161071231Y-114572775D01*
X161152154Y-114594227D01*
X161209285Y-114613424D01*
X161245715Y-114632008D01*
X161264537Y-114651618D01*
X161268844Y-114673896D01*
X161268452Y-114677409D01*
X161264224Y-114707112D01*
X160531883Y-114707277D01*
X160366681Y-114707202D01*
X160226699Y-114706864D01*
X160109990Y-114706218D01*
X160014609Y-114705217D01*
X159938610Y-114703814D01*
X159880048Y-114701963D01*
X159836977Y-114699617D01*
X159807451Y-114696730D01*
X159789525Y-114693255D01*
X159781428Y-114689328D01*
X159763523Y-114659844D01*
X159771635Y-114632844D01*
X159806065Y-114608074D01*
X159867117Y-114585278D01*
X159921312Y-114571378D01*
X160019400Y-114540597D01*
X160093793Y-114497740D01*
X160145416Y-114442210D01*
X160159033Y-114418124D01*
X160180708Y-114381048D01*
X160197623Y-114369737D01*
X160202802Y-114371892D01*
X160247014Y-114393881D01*
X160311139Y-114409947D01*
X160388554Y-114419985D01*
X160472635Y-114423890D01*
X160556760Y-114421557D01*
X160634305Y-114412879D01*
X160698649Y-114397753D01*
X160737047Y-114380378D01*
X160759584Y-114368850D01*
X160770742Y-114376896D01*
G37*
G36*
X151633956Y-115339018D02*
G01*
X151589812Y-115373809D01*
X151545668Y-115408600D01*
X151545668Y-115698877D01*
X151545756Y-115794764D01*
X151546255Y-115867130D01*
X151547519Y-115919622D01*
X151549901Y-115955886D01*
X151553755Y-115979567D01*
X151559433Y-115994311D01*
X151567290Y-116003764D01*
X151575856Y-116010299D01*
X151607528Y-116026453D01*
X151630187Y-116031444D01*
X151650562Y-116037762D01*
X151654331Y-116045027D01*
X151641417Y-116051337D01*
X151605285Y-116055899D01*
X151549849Y-116058321D01*
X151518502Y-116058610D01*
X151455402Y-116057318D01*
X151409783Y-116053705D01*
X151385556Y-116048161D01*
X151382673Y-116045027D01*
X151393920Y-116033609D01*
X151407122Y-116031444D01*
X151425045Y-116029852D01*
X151438777Y-116022964D01*
X151448872Y-116007610D01*
X151455883Y-115980619D01*
X151460365Y-115938822D01*
X151462871Y-115879048D01*
X151463954Y-115798127D01*
X151464170Y-115704843D01*
X151463996Y-115607370D01*
X151463285Y-115533449D01*
X151461753Y-115479466D01*
X151459116Y-115441809D01*
X151455092Y-115416866D01*
X151449396Y-115401022D01*
X151441745Y-115390665D01*
X151439331Y-115388362D01*
X151411025Y-115370662D01*
X151391791Y-115365882D01*
X151372269Y-115359210D01*
X151369090Y-115352299D01*
X151381987Y-115345947D01*
X151418009Y-115341406D01*
X151473149Y-115339083D01*
X151501523Y-115338867D01*
X151633956Y-115339018D01*
G37*
G36*
X156795454Y-115339018D02*
G01*
X156751309Y-115373809D01*
X156707165Y-115408600D01*
X156707165Y-115698877D01*
X156707253Y-115794764D01*
X156707752Y-115867130D01*
X156709016Y-115919622D01*
X156711398Y-115955886D01*
X156715252Y-115979567D01*
X156720931Y-115994311D01*
X156728788Y-116003764D01*
X156737353Y-116010299D01*
X156769025Y-116026453D01*
X156791685Y-116031444D01*
X156812060Y-116037762D01*
X156815828Y-116045027D01*
X156802914Y-116051337D01*
X156766783Y-116055899D01*
X156711346Y-116058321D01*
X156679999Y-116058610D01*
X156616900Y-116057318D01*
X156571280Y-116053705D01*
X156547053Y-116048161D01*
X156544170Y-116045027D01*
X156555417Y-116033609D01*
X156568620Y-116031444D01*
X156586543Y-116029852D01*
X156600275Y-116022964D01*
X156610369Y-116007610D01*
X156617381Y-115980619D01*
X156621862Y-115938822D01*
X156624368Y-115879048D01*
X156625451Y-115798127D01*
X156625668Y-115704843D01*
X156625494Y-115607370D01*
X156624782Y-115533449D01*
X156623250Y-115479466D01*
X156620614Y-115441809D01*
X156616589Y-115416866D01*
X156610894Y-115401022D01*
X156603243Y-115390665D01*
X156600828Y-115388362D01*
X156572522Y-115370662D01*
X156553288Y-115365882D01*
X156533767Y-115359210D01*
X156530587Y-115352299D01*
X156543485Y-115345947D01*
X156579506Y-115341406D01*
X156634646Y-115339083D01*
X156663021Y-115338867D01*
X156795454Y-115339018D01*
G37*
G36*
X160368864Y-111948333D02*
G01*
X160401349Y-111955571D01*
X160416404Y-111956577D01*
X160421000Y-111957174D01*
X160425021Y-111960098D01*
X160428506Y-111967047D01*
X160431493Y-111979724D01*
X160434021Y-111999826D01*
X160436127Y-112029055D01*
X160437850Y-112069109D01*
X160439229Y-112121689D01*
X160440301Y-112188495D01*
X160441106Y-112271226D01*
X160441681Y-112371582D01*
X160442065Y-112491264D01*
X160442297Y-112631970D01*
X160442414Y-112795402D01*
X160442455Y-112983258D01*
X160442459Y-113111123D01*
X160442384Y-113322569D01*
X160442147Y-113508283D01*
X160441724Y-113669700D01*
X160441097Y-113808253D01*
X160440242Y-113925376D01*
X160439140Y-114022503D01*
X160437770Y-114101068D01*
X160436109Y-114162504D01*
X160434138Y-114208246D01*
X160431835Y-114239727D01*
X160429179Y-114258381D01*
X160426148Y-114265642D01*
X160425480Y-114265854D01*
X160399276Y-114269359D01*
X160377940Y-114274229D01*
X160347379Y-114282420D01*
X160347379Y-113111254D01*
X160347412Y-112905039D01*
X160347533Y-112724346D01*
X160347771Y-112567529D01*
X160348158Y-112432944D01*
X160348722Y-112318946D01*
X160349495Y-112223890D01*
X160350508Y-112146132D01*
X160351790Y-112084027D01*
X160353372Y-112035930D01*
X160355284Y-112000198D01*
X160357557Y-111975184D01*
X160360220Y-111959245D01*
X160363306Y-111950736D01*
X160366843Y-111948012D01*
X160368864Y-111948333D01*
G37*
G36*
X162785507Y-115339018D02*
G01*
X162741363Y-115373809D01*
X162697218Y-115408600D01*
X162697218Y-115698877D01*
X162697306Y-115794764D01*
X162697806Y-115867130D01*
X162699070Y-115919622D01*
X162701452Y-115955886D01*
X162705305Y-115979567D01*
X162710984Y-115994311D01*
X162718841Y-116003764D01*
X162727407Y-116010299D01*
X162759078Y-116026453D01*
X162781738Y-116031444D01*
X162802113Y-116037762D01*
X162805882Y-116045027D01*
X162792968Y-116051337D01*
X162756836Y-116055899D01*
X162701400Y-116058321D01*
X162670053Y-116058610D01*
X162606953Y-116057318D01*
X162561333Y-116053705D01*
X162537107Y-116048161D01*
X162534224Y-116045027D01*
X162545471Y-116033609D01*
X162558673Y-116031444D01*
X162576596Y-116029852D01*
X162590328Y-116022964D01*
X162600423Y-116007610D01*
X162607434Y-115980619D01*
X162611916Y-115938822D01*
X162614421Y-115879048D01*
X162615505Y-115798127D01*
X162615721Y-115704843D01*
X162615547Y-115607370D01*
X162614836Y-115533449D01*
X162613304Y-115479466D01*
X162610667Y-115441809D01*
X162606643Y-115416866D01*
X162600947Y-115401022D01*
X162593296Y-115390665D01*
X162590882Y-115388362D01*
X162562576Y-115370662D01*
X162543341Y-115365882D01*
X162523820Y-115359210D01*
X162520641Y-115352299D01*
X162533538Y-115345947D01*
X162569559Y-115341406D01*
X162624699Y-115339083D01*
X162653074Y-115338867D01*
X162785507Y-115339018D01*
G37*
G36*
X156201092Y-115338737D02*
G01*
X156279918Y-115339336D01*
X156337792Y-115341322D01*
X156377820Y-115345505D01*
X156403108Y-115352691D01*
X156416763Y-115363690D01*
X156421892Y-115379309D01*
X156421599Y-115400357D01*
X156419486Y-115422317D01*
X156415133Y-115467754D01*
X156394615Y-115427005D01*
X156383653Y-115407429D01*
X156370683Y-115395184D01*
X156349459Y-115388265D01*
X156313739Y-115384670D01*
X156257277Y-115382394D01*
X156255390Y-115382332D01*
X156136684Y-115378408D01*
X156136684Y-115692523D01*
X156136684Y-116006638D01*
X156177432Y-116022019D01*
X156208494Y-116036338D01*
X156214880Y-116046873D01*
X156195974Y-116053903D01*
X156151155Y-116057705D01*
X156095935Y-116058610D01*
X156037360Y-116057185D01*
X155995576Y-116053241D01*
X155975043Y-116047274D01*
X155973689Y-116045027D01*
X155984936Y-116033609D01*
X155998138Y-116031444D01*
X156015687Y-116029956D01*
X156029226Y-116023424D01*
X156039271Y-116008748D01*
X156046340Y-115982826D01*
X156050948Y-115942556D01*
X156053614Y-115884839D01*
X156054853Y-115806573D01*
X156055183Y-115704656D01*
X156055186Y-115689155D01*
X156055186Y-115379465D01*
X155949919Y-115379673D01*
X155888871Y-115380813D01*
X155848940Y-115385513D01*
X155824103Y-115396135D01*
X155808339Y-115415036D01*
X155797581Y-115439353D01*
X155784414Y-115467063D01*
X155776432Y-115469233D01*
X155774269Y-115447104D01*
X155778539Y-115402059D01*
X155787221Y-115338717D01*
X156098208Y-115338717D01*
X156201092Y-115338737D01*
G37*
G36*
X153968350Y-115334548D02*
G01*
X154012301Y-115341691D01*
X154052680Y-115356764D01*
X154083905Y-115372821D01*
X154160802Y-115426433D01*
X154215092Y-115491986D01*
X154248227Y-115572103D01*
X154261658Y-115669408D01*
X154262112Y-115694831D01*
X154251396Y-115797363D01*
X154218843Y-115884911D01*
X154163407Y-115959982D01*
X154142940Y-115979741D01*
X154069017Y-116029132D01*
X153981044Y-116059900D01*
X153886165Y-116070414D01*
X153793636Y-116059555D01*
X153700601Y-116025107D01*
X153627037Y-115971923D01*
X153573548Y-115900810D01*
X153540738Y-115812579D01*
X153529210Y-115708036D01*
X153529200Y-115705454D01*
X153534696Y-115648504D01*
X153596982Y-115648504D01*
X153602636Y-115742937D01*
X153621908Y-115820673D01*
X153657164Y-115889738D01*
X153675833Y-115916156D01*
X153737277Y-115978744D01*
X153809512Y-116022165D01*
X153887202Y-116044555D01*
X153965011Y-116044051D01*
X154008569Y-116032354D01*
X154058302Y-116003465D01*
X154108897Y-115957916D01*
X154151624Y-115904463D01*
X154171306Y-115869042D01*
X154195515Y-115784767D01*
X154198246Y-115696367D01*
X154181546Y-115608826D01*
X154147464Y-115527128D01*
X154098051Y-115456255D01*
X154035353Y-115401192D01*
X153965344Y-115368063D01*
X153873188Y-115352180D01*
X153790193Y-115360733D01*
X153718853Y-115391822D01*
X153661665Y-115443548D01*
X153621123Y-115514010D01*
X153599722Y-115601310D01*
X153596982Y-115648504D01*
X153534696Y-115648504D01*
X153539087Y-115603012D01*
X153569941Y-115516220D01*
X153623008Y-115442043D01*
X153647108Y-115418457D01*
X153705015Y-115375227D01*
X153767997Y-115348231D01*
X153843560Y-115335011D01*
X153909090Y-115332638D01*
X153968350Y-115334548D01*
G37*
G36*
X157404821Y-115334548D02*
G01*
X157448772Y-115341691D01*
X157489151Y-115356764D01*
X157520376Y-115372821D01*
X157597273Y-115426433D01*
X157651563Y-115491986D01*
X157684697Y-115572103D01*
X157698129Y-115669408D01*
X157698583Y-115694831D01*
X157687866Y-115797363D01*
X157655314Y-115884911D01*
X157599878Y-115959982D01*
X157579411Y-115979741D01*
X157505488Y-116029132D01*
X157417514Y-116059900D01*
X157322636Y-116070414D01*
X157230106Y-116059555D01*
X157137071Y-116025107D01*
X157063508Y-115971923D01*
X157010019Y-115900810D01*
X156977209Y-115812579D01*
X156965681Y-115708036D01*
X156965671Y-115705454D01*
X156971167Y-115648504D01*
X157033453Y-115648504D01*
X157039106Y-115742937D01*
X157058379Y-115820673D01*
X157093635Y-115889738D01*
X157112304Y-115916156D01*
X157173747Y-115978744D01*
X157245983Y-116022165D01*
X157323673Y-116044555D01*
X157401481Y-116044051D01*
X157445039Y-116032354D01*
X157494773Y-116003465D01*
X157545367Y-115957916D01*
X157588095Y-115904463D01*
X157607777Y-115869042D01*
X157631986Y-115784767D01*
X157634716Y-115696367D01*
X157618016Y-115608826D01*
X157583935Y-115527128D01*
X157534521Y-115456255D01*
X157471824Y-115401192D01*
X157401815Y-115368063D01*
X157309659Y-115352180D01*
X157226663Y-115360733D01*
X157155324Y-115391822D01*
X157098136Y-115443548D01*
X157057594Y-115514010D01*
X157036193Y-115601310D01*
X157033453Y-115648504D01*
X156971167Y-115648504D01*
X156975558Y-115603012D01*
X157006412Y-115516220D01*
X157059479Y-115442043D01*
X157083579Y-115418457D01*
X157141486Y-115375227D01*
X157204468Y-115348231D01*
X157280030Y-115335011D01*
X157345561Y-115332638D01*
X157404821Y-115334548D01*
G37*
G36*
X162627780Y-110058186D02*
G01*
X163070748Y-110061765D01*
X163074795Y-110154798D01*
X163075806Y-110205485D01*
X163072887Y-110233355D01*
X163065392Y-110242557D01*
X163061212Y-110242023D01*
X163045993Y-110225467D01*
X163039226Y-110203321D01*
X163032227Y-110176561D01*
X163016746Y-110157895D01*
X162988632Y-110145949D01*
X162943734Y-110139350D01*
X162877901Y-110136723D01*
X162837243Y-110136471D01*
X162683636Y-110136471D01*
X162683844Y-110554144D01*
X162684209Y-110658438D01*
X162685145Y-110754215D01*
X162686571Y-110838033D01*
X162688405Y-110906449D01*
X162690566Y-110956019D01*
X162692974Y-110983300D01*
X162694031Y-110987270D01*
X162712114Y-111001890D01*
X162745094Y-111019552D01*
X162757031Y-111024801D01*
X162787250Y-111040177D01*
X162801105Y-111052977D01*
X162800521Y-111056412D01*
X162783240Y-111061040D01*
X162746255Y-111064230D01*
X162695751Y-111066036D01*
X162637917Y-111066514D01*
X162578940Y-111065718D01*
X162525006Y-111063705D01*
X162482304Y-111060528D01*
X162457021Y-111056244D01*
X162452775Y-111053315D01*
X162463717Y-111039095D01*
X162491128Y-111019682D01*
X162503699Y-111012546D01*
X162554598Y-110985359D01*
X162558187Y-110560915D01*
X162561777Y-110136471D01*
X162415567Y-110136679D01*
X162353589Y-110137896D01*
X162300592Y-110141026D01*
X162263177Y-110145555D01*
X162249280Y-110149582D01*
X162231252Y-110170663D01*
X162215050Y-110204357D01*
X162214387Y-110206282D01*
X162199991Y-110237665D01*
X162184792Y-110255099D01*
X162183529Y-110255633D01*
X162171767Y-110247880D01*
X162167744Y-110214452D01*
X162171479Y-110155723D01*
X162176149Y-110117809D01*
X162184811Y-110054607D01*
X162627780Y-110058186D01*
G37*
G36*
X152174761Y-110059237D02*
G01*
X152274535Y-110089909D01*
X152327903Y-110116100D01*
X152369099Y-110135265D01*
X152403155Y-110142337D01*
X152410947Y-110141459D01*
X152424641Y-110140016D01*
X152433680Y-110147715D01*
X152439851Y-110169563D01*
X152444943Y-110210566D01*
X152448156Y-110245673D01*
X152452152Y-110312934D01*
X152449791Y-110354168D01*
X152440601Y-110369870D01*
X152424110Y-110360535D01*
X152399847Y-110326657D01*
X152388752Y-110307908D01*
X152322893Y-110215991D01*
X152244784Y-110148182D01*
X152155381Y-110104846D01*
X152055638Y-110086350D01*
X151946511Y-110093061D01*
X151873775Y-110110275D01*
X151795230Y-110147363D01*
X151729375Y-110205759D01*
X151677735Y-110282006D01*
X151641835Y-110372648D01*
X151623200Y-110474227D01*
X151623354Y-110583286D01*
X151633796Y-110654333D01*
X151668031Y-110767711D01*
X151719501Y-110862704D01*
X151786132Y-110937929D01*
X151865851Y-110992005D01*
X151956582Y-111023553D01*
X152056252Y-111031191D01*
X152162787Y-111013537D01*
X152170099Y-111011422D01*
X152267609Y-110971801D01*
X152348643Y-110914118D01*
X152392529Y-110868682D01*
X152420533Y-110838470D01*
X152441474Y-110820477D01*
X152449128Y-110818077D01*
X152450543Y-110834286D01*
X152446439Y-110868121D01*
X152441320Y-110895009D01*
X152420493Y-110956158D01*
X152391358Y-110992314D01*
X152341287Y-111020098D01*
X152270752Y-111043454D01*
X152186248Y-111061294D01*
X152094271Y-111072530D01*
X152001316Y-111076073D01*
X151919197Y-111071455D01*
X151807612Y-111046304D01*
X151709664Y-110998816D01*
X151627421Y-110931234D01*
X151562953Y-110845801D01*
X151518328Y-110744759D01*
X151495617Y-110630351D01*
X151494141Y-110610717D01*
X151499216Y-110490082D01*
X151527613Y-110377698D01*
X151577337Y-110276565D01*
X151646394Y-110189683D01*
X151732789Y-110120050D01*
X151834527Y-110070666D01*
X151858456Y-110062910D01*
X151957672Y-110044712D01*
X152066124Y-110043829D01*
X152174761Y-110059237D01*
G37*
G36*
X161262754Y-110055074D02*
G01*
X161359931Y-110055359D01*
X161444722Y-110055805D01*
X161513925Y-110056386D01*
X161564338Y-110057078D01*
X161592759Y-110057857D01*
X161597932Y-110058369D01*
X161599380Y-110072548D01*
X161602302Y-110106566D01*
X161606078Y-110153178D01*
X161606229Y-110155083D01*
X161609191Y-110205027D01*
X161607793Y-110232699D01*
X161601445Y-110242732D01*
X161595114Y-110242246D01*
X161577383Y-110225117D01*
X161571832Y-110210051D01*
X161563214Y-110180193D01*
X161547314Y-110159561D01*
X161519709Y-110146526D01*
X161475976Y-110139456D01*
X161411691Y-110136722D01*
X161372235Y-110136471D01*
X161304397Y-110137020D01*
X161258993Y-110139106D01*
X161231305Y-110143387D01*
X161216615Y-110150522D01*
X161210959Y-110158963D01*
X161208628Y-110178524D01*
X161206772Y-110220926D01*
X161205378Y-110281850D01*
X161204438Y-110356977D01*
X161203942Y-110441988D01*
X161203877Y-110532563D01*
X161204236Y-110624381D01*
X161205007Y-110713125D01*
X161206180Y-110794473D01*
X161207745Y-110864108D01*
X161209692Y-110917708D01*
X161212010Y-110950955D01*
X161212848Y-110956693D01*
X161226073Y-110987393D01*
X161255986Y-111009135D01*
X161272953Y-111016481D01*
X161310752Y-111033698D01*
X161325255Y-111046935D01*
X161315676Y-111056529D01*
X161281226Y-111062820D01*
X161221118Y-111066146D01*
X161155561Y-111066898D01*
X161081993Y-111065852D01*
X161027302Y-111062871D01*
X160994428Y-111058189D01*
X160985811Y-111053315D01*
X160996761Y-111039094D01*
X161024177Y-111019681D01*
X161036747Y-111012546D01*
X161087646Y-110985359D01*
X161091236Y-110560482D01*
X161094826Y-110135605D01*
X160935033Y-110139434D01*
X160775240Y-110143262D01*
X160744185Y-110208277D01*
X160722052Y-110246635D01*
X160704274Y-110263246D01*
X160693552Y-110257438D01*
X160692587Y-110228541D01*
X160693658Y-110220837D01*
X160698976Y-110184417D01*
X160705389Y-110136917D01*
X160707628Y-110119492D01*
X160715781Y-110054973D01*
X161156393Y-110054973D01*
X161262754Y-110055074D01*
G37*
G36*
X162187860Y-115332052D02*
G01*
X162234101Y-115338250D01*
X162273483Y-115342678D01*
X162286003Y-115343704D01*
X162301435Y-115345964D01*
X162312122Y-115354047D01*
X162320354Y-115373232D01*
X162328419Y-115408800D01*
X162338319Y-115464358D01*
X162340743Y-115501425D01*
X162332630Y-115514530D01*
X162316234Y-115503679D01*
X162293809Y-115468876D01*
X162291410Y-115464252D01*
X162254893Y-115413793D01*
X162208049Y-115378822D01*
X162155794Y-115359208D01*
X162103044Y-115354822D01*
X162054714Y-115365533D01*
X162015721Y-115391213D01*
X161990980Y-115431732D01*
X161984734Y-115472338D01*
X161990612Y-115516254D01*
X162010552Y-115552479D01*
X162048015Y-115584242D01*
X162106458Y-115614774D01*
X162160978Y-115636867D01*
X162250708Y-115678245D01*
X162314432Y-115725326D01*
X162352902Y-115779142D01*
X162366873Y-115840725D01*
X162358286Y-115906820D01*
X162328568Y-115967931D01*
X162278520Y-116016942D01*
X162213220Y-116051375D01*
X162137744Y-116068750D01*
X162057169Y-116066586D01*
X162038448Y-116063063D01*
X161985170Y-116048033D01*
X161951513Y-116027422D01*
X161929952Y-115994650D01*
X161916754Y-115956624D01*
X161902541Y-115904576D01*
X161896913Y-115873433D01*
X161899497Y-115858452D01*
X161908775Y-115854866D01*
X161921397Y-115866200D01*
X161938783Y-115894979D01*
X161947812Y-115913845D01*
X161984406Y-115971394D01*
X162032443Y-116011704D01*
X162087286Y-116035156D01*
X162144294Y-116042135D01*
X162198830Y-116033021D01*
X162246255Y-116008197D01*
X162281930Y-115968047D01*
X162301216Y-115912951D01*
X162303315Y-115884538D01*
X162294840Y-115841163D01*
X162267612Y-115803683D01*
X162218919Y-115769614D01*
X162146053Y-115736472D01*
X162138789Y-115733668D01*
X162058789Y-115700482D01*
X162001089Y-115669628D01*
X161961356Y-115638085D01*
X161935258Y-115602833D01*
X161927346Y-115586257D01*
X161912714Y-115521370D01*
X161922060Y-115461184D01*
X161952246Y-115408760D01*
X162000133Y-115367162D01*
X162062582Y-115339451D01*
X162136455Y-115328690D01*
X162187860Y-115332052D01*
G37*
G36*
X159606394Y-110048559D02*
G01*
X159711064Y-110053863D01*
X159796840Y-110070813D01*
X159870411Y-110101924D01*
X159938469Y-110149712D01*
X159981728Y-110189715D01*
X160042904Y-110260095D01*
X160084699Y-110332294D01*
X160109674Y-110413065D01*
X160120392Y-110509161D01*
X160121252Y-110557540D01*
X160114473Y-110665739D01*
X160093474Y-110756067D01*
X160056001Y-110835041D01*
X159999797Y-110909180D01*
X159999400Y-110909623D01*
X159916317Y-110982109D01*
X159816608Y-111034769D01*
X159703186Y-111066649D01*
X159578962Y-111076797D01*
X159502365Y-111072268D01*
X159401780Y-111048220D01*
X159307282Y-111000837D01*
X159224354Y-110933944D01*
X159158479Y-110851366D01*
X159140753Y-110820027D01*
X159107335Y-110730029D01*
X159089689Y-110627505D01*
X159087999Y-110521136D01*
X159089854Y-110508107D01*
X159194233Y-110508107D01*
X159200077Y-110608151D01*
X159223365Y-110706453D01*
X159264382Y-110799032D01*
X159323415Y-110881905D01*
X159359371Y-110918092D01*
X159445504Y-110979374D01*
X159539791Y-111017619D01*
X159637849Y-111031811D01*
X159735291Y-111020933D01*
X159765052Y-111012188D01*
X159846280Y-110971643D01*
X159913038Y-110909579D01*
X159967128Y-110824316D01*
X159967950Y-110822652D01*
X160006038Y-110715760D01*
X160019498Y-110604063D01*
X160009206Y-110492119D01*
X159976036Y-110384484D01*
X159920863Y-110285715D01*
X159849304Y-110204647D01*
X159799950Y-110165327D01*
X159747764Y-110132840D01*
X159713837Y-110117537D01*
X159643425Y-110101603D01*
X159564631Y-110096429D01*
X159488091Y-110101885D01*
X159424435Y-110117842D01*
X159416650Y-110121136D01*
X159339569Y-110170157D01*
X159278501Y-110237347D01*
X159233731Y-110318723D01*
X159205547Y-110410304D01*
X159194233Y-110508107D01*
X159089854Y-110508107D01*
X159102450Y-110419609D01*
X159130455Y-110337320D01*
X159182293Y-110247589D01*
X159245945Y-110177203D01*
X159327694Y-110119818D01*
X159366031Y-110099497D01*
X159415244Y-110075914D01*
X159453479Y-110060964D01*
X159489878Y-110052708D01*
X159533583Y-110049210D01*
X159593735Y-110048532D01*
X159606394Y-110048559D01*
G37*
G36*
X155054157Y-115341367D02*
G01*
X155073261Y-115344061D01*
X155073987Y-115344540D01*
X155070055Y-115357063D01*
X155051740Y-115375730D01*
X155038315Y-115394626D01*
X155015954Y-115435276D01*
X154986264Y-115494397D01*
X154950852Y-115568708D01*
X154911323Y-115654925D01*
X154873904Y-115739190D01*
X154834494Y-115828496D01*
X154798224Y-115909265D01*
X154766603Y-115978251D01*
X154741139Y-116032207D01*
X154723340Y-116067888D01*
X154714716Y-116082047D01*
X154714542Y-116082135D01*
X154706498Y-116071152D01*
X154689276Y-116038353D01*
X154664370Y-115986904D01*
X154633276Y-115919970D01*
X154597491Y-115840718D01*
X154558509Y-115752312D01*
X154556156Y-115746913D01*
X154509994Y-115641459D01*
X154472745Y-115558156D01*
X154442780Y-115494115D01*
X154418475Y-115446450D01*
X154398200Y-115412274D01*
X154380331Y-115388697D01*
X154363240Y-115372833D01*
X154345301Y-115361795D01*
X154336951Y-115357826D01*
X154330848Y-115351230D01*
X154347513Y-115346358D01*
X154388727Y-115342847D01*
X154416715Y-115341577D01*
X154481466Y-115340600D01*
X154520256Y-115343760D01*
X154534013Y-115351296D01*
X154523659Y-115363450D01*
X154516811Y-115367576D01*
X154497066Y-115387945D01*
X154493154Y-115401482D01*
X154498438Y-115421903D01*
X154512987Y-115460766D01*
X154534853Y-115513823D01*
X154562085Y-115576826D01*
X154592733Y-115645526D01*
X154624846Y-115715675D01*
X154656474Y-115783023D01*
X154685667Y-115843324D01*
X154710474Y-115892327D01*
X154728946Y-115925785D01*
X154739131Y-115939449D01*
X154740071Y-115939372D01*
X154750990Y-115920754D01*
X154769108Y-115881580D01*
X154792464Y-115826870D01*
X154819098Y-115761642D01*
X154847052Y-115690917D01*
X154874364Y-115619713D01*
X154899075Y-115553051D01*
X154919226Y-115495950D01*
X154932855Y-115453428D01*
X154937786Y-115432998D01*
X154940333Y-115397580D01*
X154932175Y-115378128D01*
X154908496Y-115364091D01*
X154905781Y-115362883D01*
X154887782Y-115354055D01*
X154885329Y-115348527D01*
X154901777Y-115345128D01*
X154940477Y-115342684D01*
X154966795Y-115341554D01*
X155016227Y-115340463D01*
X155054157Y-115341367D01*
G37*
G36*
X163358658Y-115333183D02*
G01*
X163464949Y-115357470D01*
X163486418Y-115365161D01*
X163528031Y-115378692D01*
X163560668Y-115385238D01*
X163572459Y-115384706D01*
X163583646Y-115390062D01*
X163592290Y-115417657D01*
X163598500Y-115462517D01*
X163602320Y-115507278D01*
X163603488Y-115539839D01*
X163602056Y-115552204D01*
X163592507Y-115545204D01*
X163574764Y-115521366D01*
X163566847Y-115509026D01*
X163516268Y-115449989D01*
X163447556Y-115401164D01*
X163369155Y-115367148D01*
X163289509Y-115352535D01*
X163278819Y-115352299D01*
X163203859Y-115363579D01*
X163138054Y-115398620D01*
X163088314Y-115446407D01*
X163040393Y-115522040D01*
X163014399Y-115607260D01*
X163009296Y-115697136D01*
X163024050Y-115786735D01*
X163057626Y-115871128D01*
X163108991Y-115945381D01*
X163177110Y-116004564D01*
X163209298Y-116023156D01*
X163270052Y-116042108D01*
X163336510Y-116044204D01*
X163401965Y-116031330D01*
X163459711Y-116005369D01*
X163503042Y-115968207D01*
X163521612Y-115935391D01*
X163536553Y-115873538D01*
X163538914Y-115815594D01*
X163529768Y-115766950D01*
X163510185Y-115732995D01*
X163481240Y-115719119D01*
X163478571Y-115719037D01*
X163452884Y-115714429D01*
X163444277Y-115705454D01*
X163457027Y-115698796D01*
X163492026Y-115694187D01*
X163544395Y-115692204D01*
X163556336Y-115692174D01*
X163610912Y-115692542D01*
X163642195Y-115694099D01*
X163654060Y-115698068D01*
X163650381Y-115705671D01*
X163636058Y-115717341D01*
X163620177Y-115731761D01*
X163610722Y-115749372D01*
X163606224Y-115776880D01*
X163605215Y-115820989D01*
X163605641Y-115856264D01*
X163607562Y-115970321D01*
X163505886Y-116014944D01*
X163417804Y-116046074D01*
X163328768Y-116064160D01*
X163246916Y-116068022D01*
X163192994Y-116060322D01*
X163108235Y-116024910D01*
X163034759Y-115968735D01*
X162978545Y-115896913D01*
X162960814Y-115861658D01*
X162942328Y-115792074D01*
X162937252Y-115709871D01*
X162945326Y-115625908D01*
X162966292Y-115551041D01*
X162968346Y-115546167D01*
X163018226Y-115462252D01*
X163085007Y-115398015D01*
X163165878Y-115354437D01*
X163258032Y-115332499D01*
X163358658Y-115333183D01*
G37*
G36*
X158010135Y-110056570D02*
G01*
X158066216Y-110061275D01*
X158096646Y-110068957D01*
X158101005Y-110079486D01*
X158078871Y-110092732D01*
X158066186Y-110097502D01*
X158032545Y-110115178D01*
X158010835Y-110137006D01*
X158007134Y-110157428D01*
X158003911Y-110202199D01*
X158001254Y-110268507D01*
X157999248Y-110353538D01*
X157997981Y-110454479D01*
X157997539Y-110568516D01*
X157997539Y-110568567D01*
X157997707Y-110686733D01*
X157998303Y-110780586D01*
X157999465Y-110852977D01*
X158001333Y-110906755D01*
X158004044Y-110944773D01*
X158007737Y-110969879D01*
X158012550Y-110984927D01*
X158018126Y-110992369D01*
X158039984Y-111001032D01*
X158080833Y-111004744D01*
X158144142Y-111003754D01*
X158164142Y-111002788D01*
X158274226Y-110989724D01*
X158365287Y-110963691D01*
X158434986Y-110925479D01*
X158460389Y-110902806D01*
X158484628Y-110880273D01*
X158501733Y-110870007D01*
X158502474Y-110869946D01*
X158513279Y-110879558D01*
X158510217Y-110904525D01*
X158496461Y-110939047D01*
X158475184Y-110977324D01*
X158449561Y-111013556D01*
X158422764Y-111041943D01*
X158400777Y-111055812D01*
X158378025Y-111059284D01*
X158334371Y-111062069D01*
X158274564Y-111064168D01*
X158203357Y-111065580D01*
X158125501Y-111066306D01*
X158045748Y-111066344D01*
X157968849Y-111065697D01*
X157899555Y-111064363D01*
X157842618Y-111062342D01*
X157802790Y-111059635D01*
X157784821Y-111056241D01*
X157784371Y-111055807D01*
X157781425Y-111042964D01*
X157782249Y-111042225D01*
X157796361Y-111034954D01*
X157824386Y-111020571D01*
X157827593Y-111018927D01*
X157858428Y-110995354D01*
X157874790Y-110958986D01*
X157877913Y-110944222D01*
X157881336Y-110911360D01*
X157883988Y-110857952D01*
X157885893Y-110788326D01*
X157887075Y-110706816D01*
X157887559Y-110617752D01*
X157887370Y-110525466D01*
X157886532Y-110434288D01*
X157885069Y-110348551D01*
X157883006Y-110272586D01*
X157880367Y-110210724D01*
X157877178Y-110167296D01*
X157873461Y-110146634D01*
X157873403Y-110146521D01*
X157851871Y-110123966D01*
X157817617Y-110103172D01*
X157813077Y-110101181D01*
X157779521Y-110084724D01*
X157768565Y-110072303D01*
X157781188Y-110063528D01*
X157818367Y-110058008D01*
X157881081Y-110055354D01*
X157928823Y-110054973D01*
X158010135Y-110056570D01*
G37*
G36*
X155406961Y-115321151D02*
G01*
X155413540Y-115333149D01*
X155422147Y-115352752D01*
X155438993Y-115393843D01*
X155462540Y-115452566D01*
X155491248Y-115525063D01*
X155523577Y-115607479D01*
X155545868Y-115664706D01*
X155588774Y-115773671D01*
X155624114Y-115859514D01*
X155653264Y-115924766D01*
X155677600Y-115971958D01*
X155698497Y-116003620D01*
X155717329Y-116022283D01*
X155735472Y-116030479D01*
X155745148Y-116031444D01*
X155765900Y-116037614D01*
X155769946Y-116045027D01*
X155757123Y-116051535D01*
X155721629Y-116056178D01*
X155667922Y-116058459D01*
X155647700Y-116058610D01*
X155586803Y-116056882D01*
X155545346Y-116052134D01*
X155525321Y-116045016D01*
X155528716Y-116036179D01*
X155552620Y-116027508D01*
X155572621Y-116014955D01*
X155578270Y-115989450D01*
X155569314Y-115947968D01*
X155545501Y-115887484D01*
X155539888Y-115874942D01*
X155499992Y-115786952D01*
X155363506Y-115786952D01*
X155227021Y-115786952D01*
X155185287Y-115869627D01*
X155158255Y-115931718D01*
X155149468Y-115976587D01*
X155158873Y-116007095D01*
X155182486Y-116024478D01*
X155208222Y-116039207D01*
X155208096Y-116049680D01*
X155181775Y-116056073D01*
X155128928Y-116058562D01*
X155117967Y-116058610D01*
X155071100Y-116057636D01*
X155037141Y-116055074D01*
X155022961Y-116051462D01*
X155022887Y-116051167D01*
X155032025Y-116038024D01*
X155054275Y-116016025D01*
X155056756Y-116013814D01*
X155073197Y-115991575D01*
X155098672Y-115946899D01*
X155131825Y-115882450D01*
X155171303Y-115800892D01*
X155199646Y-115739672D01*
X155253796Y-115739672D01*
X155266306Y-115742705D01*
X155299551Y-115744989D01*
X155347103Y-115746138D01*
X155362459Y-115746203D01*
X155418795Y-115745148D01*
X155452577Y-115741440D01*
X155468354Y-115734264D01*
X155471122Y-115726755D01*
X155466499Y-115704953D01*
X155454426Y-115665929D01*
X155437594Y-115617039D01*
X155418696Y-115565638D01*
X155400425Y-115519080D01*
X155385473Y-115484722D01*
X155377338Y-115470556D01*
X155369439Y-115478898D01*
X155353925Y-115506408D01*
X155333527Y-115547136D01*
X155310977Y-115595133D01*
X155289007Y-115644447D01*
X155270348Y-115689129D01*
X155257731Y-115723228D01*
X155253796Y-115739672D01*
X155199646Y-115739672D01*
X155215750Y-115704889D01*
X155231104Y-115670878D01*
X155270207Y-115583989D01*
X155306256Y-115504339D01*
X155337575Y-115435600D01*
X155362484Y-115381443D01*
X155379308Y-115345538D01*
X155385756Y-115332530D01*
X155397705Y-115314829D01*
X155406961Y-115321151D01*
G37*
G36*
X160587325Y-115339748D02*
G01*
X160654522Y-115342252D01*
X160716426Y-115346382D01*
X160767638Y-115352118D01*
X160778270Y-115353824D01*
X160874984Y-115382226D01*
X160953228Y-115430543D01*
X161013028Y-115498792D01*
X161029420Y-115527032D01*
X161060816Y-115614782D01*
X161068351Y-115705899D01*
X161053686Y-115795580D01*
X161018480Y-115879021D01*
X160964396Y-115951419D01*
X160893092Y-116007969D01*
X160856737Y-116026574D01*
X160825865Y-116036881D01*
X160784312Y-116044561D01*
X160727476Y-116050129D01*
X160650759Y-116054102D01*
X160595267Y-116055879D01*
X160523762Y-116057094D01*
X160462940Y-116056735D01*
X160417453Y-116054942D01*
X160391951Y-116051853D01*
X160388128Y-116049699D01*
X160399086Y-116035846D01*
X160418689Y-116024478D01*
X160428674Y-116019371D01*
X160436257Y-116011642D01*
X160441824Y-115997788D01*
X160445760Y-115974303D01*
X160448450Y-115937683D01*
X160450282Y-115884423D01*
X160451641Y-115811020D01*
X160452564Y-115740526D01*
X160521812Y-115740526D01*
X160523348Y-115817222D01*
X160526482Y-115885623D01*
X160531229Y-115940710D01*
X160537606Y-115977463D01*
X160543462Y-115989974D01*
X160589258Y-116014020D01*
X160655431Y-116026057D01*
X160730510Y-116027160D01*
X160786693Y-116022898D01*
X160827604Y-116012756D01*
X160865030Y-115993277D01*
X160879922Y-115983311D01*
X160926015Y-115942035D01*
X160964140Y-115891901D01*
X160969754Y-115881850D01*
X160986104Y-115845925D01*
X160994884Y-115811492D01*
X160997579Y-115768890D01*
X160995869Y-115712246D01*
X160981972Y-115610279D01*
X160950391Y-115527649D01*
X160899510Y-115461790D01*
X160827714Y-115410134D01*
X160795614Y-115394147D01*
X160743691Y-115377147D01*
X160684667Y-115367635D01*
X160626672Y-115365836D01*
X160577838Y-115371975D01*
X160546294Y-115386278D01*
X160545301Y-115387227D01*
X160537569Y-115408290D01*
X160531344Y-115451173D01*
X160526640Y-115510858D01*
X160523473Y-115582324D01*
X160521859Y-115660553D01*
X160521812Y-115740526D01*
X160452564Y-115740526D01*
X160452912Y-115713968D01*
X160452917Y-115713614D01*
X160453928Y-115614794D01*
X160454064Y-115539546D01*
X160453112Y-115484286D01*
X160450861Y-115445428D01*
X160447098Y-115419388D01*
X160441612Y-115402580D01*
X160434190Y-115391419D01*
X160433833Y-115391021D01*
X160406510Y-115371341D01*
X160386022Y-115365882D01*
X160365120Y-115359770D01*
X160360962Y-115352299D01*
X160373617Y-115346380D01*
X160407981Y-115342185D01*
X160458654Y-115339695D01*
X160520235Y-115338889D01*
X160587325Y-115339748D01*
G37*
G36*
X161719251Y-115378354D02*
G01*
X161714935Y-115423761D01*
X161703399Y-115453123D01*
X161690632Y-115460962D01*
X161680510Y-115449670D01*
X161678502Y-115435902D01*
X161671184Y-115404921D01*
X161647235Y-115383808D01*
X161603662Y-115371311D01*
X161537472Y-115366176D01*
X161511301Y-115365882D01*
X161457192Y-115366183D01*
X161420033Y-115369925D01*
X161396831Y-115381373D01*
X161384590Y-115404787D01*
X161380315Y-115444431D01*
X161381013Y-115504567D01*
X161382475Y-115549251D01*
X161386470Y-115671497D01*
X161474339Y-115675618D01*
X161541847Y-115676812D01*
X161587170Y-115672007D01*
X161614879Y-115659899D01*
X161629547Y-115639181D01*
X161632227Y-115630542D01*
X161642605Y-115601633D01*
X161651957Y-115597982D01*
X161659368Y-115617678D01*
X161663922Y-115658812D01*
X161664919Y-115698663D01*
X161662869Y-115753467D01*
X161657330Y-115788149D01*
X161649218Y-115800799D01*
X161639449Y-115789509D01*
X161632227Y-115766784D01*
X161620760Y-115743043D01*
X161597711Y-115728328D01*
X161558509Y-115721334D01*
X161498581Y-115720754D01*
X161474339Y-115721708D01*
X161386470Y-115725829D01*
X161382565Y-115851413D01*
X161381454Y-115924338D01*
X161385151Y-115974436D01*
X161396204Y-116005950D01*
X161417160Y-116023123D01*
X161450567Y-116030198D01*
X161490639Y-116031444D01*
X161587693Y-116023618D01*
X161664767Y-115999655D01*
X161721961Y-115960998D01*
X161751891Y-115934070D01*
X161767267Y-115924946D01*
X161772886Y-115932362D01*
X161773582Y-115947405D01*
X161764288Y-115971787D01*
X161741091Y-116002588D01*
X161731980Y-116011924D01*
X161690377Y-116051818D01*
X161467113Y-116056128D01*
X161392693Y-116056917D01*
X161328789Y-116056357D01*
X161279883Y-116054590D01*
X161250458Y-116051754D01*
X161243849Y-116049162D01*
X161254796Y-116035729D01*
X161274411Y-116024478D01*
X161284345Y-116019405D01*
X161291901Y-116011737D01*
X161297460Y-115997990D01*
X161301401Y-115974683D01*
X161304101Y-115938334D01*
X161305940Y-115885460D01*
X161307297Y-115812581D01*
X161308550Y-115716214D01*
X161308625Y-115710077D01*
X161309612Y-115610214D01*
X161309706Y-115534034D01*
X161308713Y-115478065D01*
X161306440Y-115438833D01*
X161302693Y-115412866D01*
X161297281Y-115396690D01*
X161290676Y-115387483D01*
X161261813Y-115369806D01*
X161242879Y-115365882D01*
X161221340Y-115360006D01*
X161216684Y-115352299D01*
X161229964Y-115347161D01*
X161268637Y-115343155D01*
X161330947Y-115340376D01*
X161415140Y-115338920D01*
X161467967Y-115338717D01*
X161719251Y-115338717D01*
X161719251Y-115378354D01*
G37*
G36*
X152437241Y-115340219D02*
G01*
X152477058Y-115344350D01*
X152495684Y-115350549D01*
X152496470Y-115352299D01*
X152485502Y-115364428D01*
X152476573Y-115365882D01*
X152462165Y-115369040D01*
X152450891Y-115380403D01*
X152442385Y-115402810D01*
X152436282Y-115439095D01*
X152432216Y-115492096D01*
X152429822Y-115564649D01*
X152428735Y-115659591D01*
X152428555Y-115738519D01*
X152428061Y-115831013D01*
X152426666Y-115912349D01*
X152424503Y-115979021D01*
X152421708Y-116027526D01*
X152418412Y-116054357D01*
X152416373Y-116058610D01*
X152404455Y-116048828D01*
X152377168Y-116021278D01*
X152337015Y-115978652D01*
X152286498Y-115923641D01*
X152228119Y-115858936D01*
X152170135Y-115793743D01*
X152107121Y-115722645D01*
X152050144Y-115658760D01*
X152001622Y-115604767D01*
X151963975Y-115563346D01*
X151939620Y-115537178D01*
X151931034Y-115528877D01*
X151929404Y-115541737D01*
X151927994Y-115577426D01*
X151926894Y-115631609D01*
X151926197Y-115699948D01*
X151925989Y-115767757D01*
X151925989Y-116006638D01*
X151966737Y-116022019D01*
X151998263Y-116036698D01*
X152004118Y-116047470D01*
X151983938Y-116054533D01*
X151937356Y-116058082D01*
X151898823Y-116058610D01*
X151848360Y-116057417D01*
X151810361Y-116054247D01*
X151791251Y-116049713D01*
X151790160Y-116048248D01*
X151801068Y-116035479D01*
X151820480Y-116024478D01*
X151842632Y-116011916D01*
X151859159Y-115994071D01*
X151870768Y-115967268D01*
X151878164Y-115927833D01*
X151882053Y-115872094D01*
X151883140Y-115796375D01*
X151882227Y-115703016D01*
X151880603Y-115615572D01*
X151878554Y-115550927D01*
X151875578Y-115504715D01*
X151871171Y-115472571D01*
X151864834Y-115450127D01*
X151856064Y-115433018D01*
X151850217Y-115424567D01*
X151822074Y-115393984D01*
X151793208Y-115373183D01*
X151792490Y-115372849D01*
X151767151Y-115357094D01*
X151768083Y-115345660D01*
X151794600Y-115339510D01*
X151816809Y-115338717D01*
X151833041Y-115339267D01*
X151848165Y-115342391D01*
X151864574Y-115350292D01*
X151884661Y-115365179D01*
X151910819Y-115389256D01*
X151945441Y-115424730D01*
X151990919Y-115473807D01*
X152049647Y-115538693D01*
X152124017Y-115621594D01*
X152125820Y-115623606D01*
X152381015Y-115908496D01*
X152384743Y-115683876D01*
X152385630Y-115587204D01*
X152384065Y-115514015D01*
X152379171Y-115460669D01*
X152370067Y-115423530D01*
X152355875Y-115398959D01*
X152335717Y-115383319D01*
X152309705Y-115373261D01*
X152275587Y-115360568D01*
X152268175Y-115350618D01*
X152287135Y-115343571D01*
X152332130Y-115339591D01*
X152381015Y-115338717D01*
X152437241Y-115340219D01*
G37*
G36*
X153292963Y-115340219D02*
G01*
X153332780Y-115344350D01*
X153351406Y-115350549D01*
X153352192Y-115352299D01*
X153341224Y-115364428D01*
X153332295Y-115365882D01*
X153317887Y-115369040D01*
X153306613Y-115380403D01*
X153298107Y-115402810D01*
X153292004Y-115439095D01*
X153287938Y-115492096D01*
X153285544Y-115564649D01*
X153284457Y-115659591D01*
X153284277Y-115738519D01*
X153283783Y-115831013D01*
X153282387Y-115912349D01*
X153280225Y-115979021D01*
X153277429Y-116027526D01*
X153274133Y-116054357D01*
X153272095Y-116058610D01*
X153260177Y-116048828D01*
X153232890Y-116021278D01*
X153192737Y-115978652D01*
X153142220Y-115923641D01*
X153083841Y-115858936D01*
X153025857Y-115793743D01*
X152962843Y-115722645D01*
X152905866Y-115658760D01*
X152857344Y-115604767D01*
X152819697Y-115563346D01*
X152795342Y-115537178D01*
X152786756Y-115528877D01*
X152785126Y-115541737D01*
X152783716Y-115577426D01*
X152782616Y-115631609D01*
X152781919Y-115699948D01*
X152781710Y-115767757D01*
X152781710Y-116006638D01*
X152822459Y-116022019D01*
X152853985Y-116036698D01*
X152859840Y-116047470D01*
X152839660Y-116054533D01*
X152793078Y-116058082D01*
X152754545Y-116058610D01*
X152704082Y-116057417D01*
X152666082Y-116054247D01*
X152646973Y-116049713D01*
X152645882Y-116048248D01*
X152656790Y-116035479D01*
X152676202Y-116024478D01*
X152698354Y-116011916D01*
X152714881Y-115994071D01*
X152726490Y-115967268D01*
X152733886Y-115927833D01*
X152737775Y-115872094D01*
X152738862Y-115796375D01*
X152737949Y-115703016D01*
X152736325Y-115615572D01*
X152734276Y-115550927D01*
X152731299Y-115504715D01*
X152726893Y-115472571D01*
X152720556Y-115450127D01*
X152711786Y-115433018D01*
X152705939Y-115424567D01*
X152677796Y-115393984D01*
X152648930Y-115373183D01*
X152648212Y-115372849D01*
X152622873Y-115357094D01*
X152623805Y-115345660D01*
X152650322Y-115339510D01*
X152672531Y-115338717D01*
X152688763Y-115339267D01*
X152703887Y-115342391D01*
X152720296Y-115350292D01*
X152740383Y-115365179D01*
X152766541Y-115389256D01*
X152801163Y-115424730D01*
X152846641Y-115473807D01*
X152905369Y-115538693D01*
X152979739Y-115621594D01*
X152981542Y-115623606D01*
X153236737Y-115908496D01*
X153240465Y-115683876D01*
X153241352Y-115587204D01*
X153239787Y-115514015D01*
X153234893Y-115460669D01*
X153225789Y-115423530D01*
X153211597Y-115398959D01*
X153191439Y-115383319D01*
X153165427Y-115373261D01*
X153131309Y-115360568D01*
X153123897Y-115350618D01*
X153142857Y-115343571D01*
X153187852Y-115339591D01*
X153236737Y-115338717D01*
X153292963Y-115340219D01*
G37*
G36*
X158495209Y-115340219D02*
G01*
X158535026Y-115344350D01*
X158553652Y-115350549D01*
X158554438Y-115352299D01*
X158543470Y-115364428D01*
X158534541Y-115365882D01*
X158520133Y-115369040D01*
X158508859Y-115380403D01*
X158500353Y-115402810D01*
X158494250Y-115439095D01*
X158490184Y-115492096D01*
X158487790Y-115564649D01*
X158486703Y-115659591D01*
X158486523Y-115738519D01*
X158486029Y-115831013D01*
X158484633Y-115912349D01*
X158482471Y-115979021D01*
X158479675Y-116027526D01*
X158476379Y-116054357D01*
X158474341Y-116058610D01*
X158462423Y-116048828D01*
X158435136Y-116021278D01*
X158394983Y-115978652D01*
X158344466Y-115923641D01*
X158286087Y-115858936D01*
X158228103Y-115793743D01*
X158165089Y-115722645D01*
X158108112Y-115658760D01*
X158059590Y-115604767D01*
X158021943Y-115563346D01*
X157997588Y-115537178D01*
X157989002Y-115528877D01*
X157987372Y-115541737D01*
X157985962Y-115577426D01*
X157984862Y-115631609D01*
X157984165Y-115699948D01*
X157983956Y-115767757D01*
X157983956Y-116006638D01*
X158024705Y-116022019D01*
X158056231Y-116036698D01*
X158062086Y-116047470D01*
X158041906Y-116054533D01*
X157995323Y-116058082D01*
X157956791Y-116058610D01*
X157906328Y-116057417D01*
X157868328Y-116054247D01*
X157849219Y-116049713D01*
X157848128Y-116048248D01*
X157859036Y-116035479D01*
X157878448Y-116024478D01*
X157900600Y-116011916D01*
X157917127Y-115994071D01*
X157928736Y-115967268D01*
X157936132Y-115927833D01*
X157940021Y-115872094D01*
X157941108Y-115796375D01*
X157940195Y-115703016D01*
X157938571Y-115615572D01*
X157936522Y-115550927D01*
X157933545Y-115504715D01*
X157929139Y-115472571D01*
X157922802Y-115450127D01*
X157914032Y-115433018D01*
X157908185Y-115424567D01*
X157880042Y-115393984D01*
X157851176Y-115373183D01*
X157850458Y-115372849D01*
X157825119Y-115357094D01*
X157826051Y-115345660D01*
X157852568Y-115339510D01*
X157874777Y-115338717D01*
X157891009Y-115339267D01*
X157906133Y-115342391D01*
X157922542Y-115350292D01*
X157942629Y-115365179D01*
X157968787Y-115389256D01*
X158003409Y-115424730D01*
X158048887Y-115473807D01*
X158107615Y-115538693D01*
X158181985Y-115621594D01*
X158183788Y-115623606D01*
X158438983Y-115908496D01*
X158442711Y-115683876D01*
X158443598Y-115587204D01*
X158442033Y-115514015D01*
X158437139Y-115460669D01*
X158428035Y-115423530D01*
X158413843Y-115398959D01*
X158393685Y-115383319D01*
X158367673Y-115373261D01*
X158333555Y-115360568D01*
X158326143Y-115350618D01*
X158345103Y-115343571D01*
X158390098Y-115339591D01*
X158438983Y-115338717D01*
X158495209Y-115340219D01*
G37*
G36*
X164458097Y-115340219D02*
G01*
X164497913Y-115344350D01*
X164516539Y-115350549D01*
X164517325Y-115352299D01*
X164506358Y-115364428D01*
X164497429Y-115365882D01*
X164483021Y-115369040D01*
X164471746Y-115380403D01*
X164463240Y-115402810D01*
X164457137Y-115439095D01*
X164453072Y-115492096D01*
X164450678Y-115564649D01*
X164449591Y-115659591D01*
X164449411Y-115738519D01*
X164448916Y-115831013D01*
X164447521Y-115912349D01*
X164445359Y-115979021D01*
X164442563Y-116027526D01*
X164439267Y-116054357D01*
X164437229Y-116058610D01*
X164425310Y-116048828D01*
X164398023Y-116021278D01*
X164357870Y-115978652D01*
X164307353Y-115923641D01*
X164248975Y-115858936D01*
X164190990Y-115793743D01*
X164127977Y-115722645D01*
X164071000Y-115658760D01*
X164022478Y-115604767D01*
X163984830Y-115563346D01*
X163960476Y-115537178D01*
X163951889Y-115528877D01*
X163950260Y-115541737D01*
X163948850Y-115577426D01*
X163947750Y-115631609D01*
X163947052Y-115699948D01*
X163946844Y-115767757D01*
X163946844Y-116006638D01*
X163987593Y-116022019D01*
X164019119Y-116036698D01*
X164024974Y-116047470D01*
X164004794Y-116054533D01*
X163958211Y-116058082D01*
X163919678Y-116058610D01*
X163869216Y-116057417D01*
X163831216Y-116054247D01*
X163812106Y-116049713D01*
X163811015Y-116048248D01*
X163821924Y-116035479D01*
X163841336Y-116024478D01*
X163863487Y-116011916D01*
X163880015Y-115994071D01*
X163891624Y-115967268D01*
X163899020Y-115927833D01*
X163902909Y-115872094D01*
X163903996Y-115796375D01*
X163903083Y-115703016D01*
X163901459Y-115615572D01*
X163899410Y-115550927D01*
X163896433Y-115504715D01*
X163892027Y-115472571D01*
X163885690Y-115450127D01*
X163876919Y-115433018D01*
X163871073Y-115424567D01*
X163842929Y-115393984D01*
X163814064Y-115373183D01*
X163813345Y-115372849D01*
X163788006Y-115357094D01*
X163788939Y-115345660D01*
X163815456Y-115339510D01*
X163837665Y-115338717D01*
X163853897Y-115339267D01*
X163869021Y-115342391D01*
X163885430Y-115350292D01*
X163905517Y-115365179D01*
X163931675Y-115389256D01*
X163966297Y-115424730D01*
X164011775Y-115473807D01*
X164070503Y-115538693D01*
X164144873Y-115621594D01*
X164146676Y-115623606D01*
X164401871Y-115908496D01*
X164405599Y-115683876D01*
X164406486Y-115587204D01*
X164404921Y-115514015D01*
X164400026Y-115460669D01*
X164390923Y-115423530D01*
X164376731Y-115398959D01*
X164356573Y-115383319D01*
X164330561Y-115373261D01*
X164296442Y-115360568D01*
X164289031Y-115350618D01*
X164307991Y-115343571D01*
X164352986Y-115339591D01*
X164401871Y-115338717D01*
X164458097Y-115340219D01*
G37*
G36*
X164323697Y-110144515D02*
G01*
X164317908Y-110192655D01*
X164309848Y-110230436D01*
X164301908Y-110248658D01*
X164291397Y-110255532D01*
X164283233Y-110248033D01*
X164274816Y-110221628D01*
X164267016Y-110187798D01*
X164256942Y-110161190D01*
X164237517Y-110142344D01*
X164204631Y-110129924D01*
X164154174Y-110122590D01*
X164082038Y-110119006D01*
X164053973Y-110118436D01*
X163985260Y-110118091D01*
X163939019Y-110119965D01*
X163910611Y-110124573D01*
X163895397Y-110132433D01*
X163892050Y-110136471D01*
X163887358Y-110157197D01*
X163883952Y-110199228D01*
X163882121Y-110256721D01*
X163882153Y-110323831D01*
X163882318Y-110333422D01*
X163885721Y-110510000D01*
X164011305Y-110513905D01*
X164085386Y-110514318D01*
X164137388Y-110509092D01*
X164172100Y-110496610D01*
X164194308Y-110475260D01*
X164207321Y-110447825D01*
X164221228Y-110416323D01*
X164231945Y-110411021D01*
X164239544Y-110432118D01*
X164244094Y-110479815D01*
X164245666Y-110554315D01*
X164245668Y-110557540D01*
X164244446Y-110627249D01*
X164240950Y-110676690D01*
X164235431Y-110703160D01*
X164231745Y-110706952D01*
X164219575Y-110695215D01*
X164209830Y-110666987D01*
X164209812Y-110666897D01*
X164199440Y-110631654D01*
X164181890Y-110608001D01*
X164152491Y-110593990D01*
X164106577Y-110587671D01*
X164039480Y-110587095D01*
X164019914Y-110587588D01*
X163885721Y-110591497D01*
X163881951Y-110776917D01*
X163880588Y-110861640D01*
X163882255Y-110922847D01*
X163889630Y-110964184D01*
X163905388Y-110989298D01*
X163932206Y-111001838D01*
X163972761Y-111005449D01*
X164029728Y-111003779D01*
X164047802Y-111002918D01*
X164157046Y-110990192D01*
X164247819Y-110963815D01*
X164317634Y-110924633D01*
X164341779Y-110902806D01*
X164371008Y-110876312D01*
X164388115Y-110873162D01*
X164394825Y-110893324D01*
X164395079Y-110901866D01*
X164386801Y-110931289D01*
X164365976Y-110971115D01*
X164338619Y-111011908D01*
X164310745Y-111044235D01*
X164297501Y-111054909D01*
X164279476Y-111058106D01*
X164239586Y-111060817D01*
X164182523Y-111063018D01*
X164112976Y-111064686D01*
X164035639Y-111065799D01*
X163955203Y-111066332D01*
X163876358Y-111066262D01*
X163803797Y-111065567D01*
X163742211Y-111064222D01*
X163696291Y-111062205D01*
X163670729Y-111059492D01*
X163667119Y-111058041D01*
X163674080Y-111046384D01*
X163698118Y-111027983D01*
X163708725Y-111021405D01*
X163741157Y-110995859D01*
X163761719Y-110967875D01*
X163763653Y-110962348D01*
X163765543Y-110941021D01*
X163766990Y-110896303D01*
X163767959Y-110831963D01*
X163768415Y-110751772D01*
X163768325Y-110659502D01*
X163767654Y-110558922D01*
X163767487Y-110541965D01*
X163766194Y-110428125D01*
X163764787Y-110338322D01*
X163763045Y-110269427D01*
X163760751Y-110218311D01*
X163757684Y-110181845D01*
X163753626Y-110156901D01*
X163748357Y-110140349D01*
X163741659Y-110129062D01*
X163738287Y-110125050D01*
X163709171Y-110102400D01*
X163685019Y-110093085D01*
X163659685Y-110082460D01*
X163651348Y-110071952D01*
X163655187Y-110066523D01*
X163672363Y-110062306D01*
X163705365Y-110059176D01*
X163756679Y-110057009D01*
X163828795Y-110055677D01*
X163924199Y-110055057D01*
X163988321Y-110054973D01*
X164330884Y-110054973D01*
X164323697Y-110144515D01*
G37*
G36*
X155213495Y-110045316D02*
G01*
X155230245Y-110080989D01*
X155254568Y-110136287D01*
X155285264Y-110208388D01*
X155321132Y-110294470D01*
X155360972Y-110391712D01*
X155403583Y-110497291D01*
X155405676Y-110502516D01*
X155448843Y-110609489D01*
X155489713Y-110709171D01*
X155527009Y-110798571D01*
X155559456Y-110874698D01*
X155585781Y-110934563D01*
X155604708Y-110975173D01*
X155614962Y-110993539D01*
X155615030Y-110993615D01*
X155644248Y-111013731D01*
X155683119Y-111027315D01*
X155684113Y-111027507D01*
X155713466Y-111036907D01*
X155725752Y-111048788D01*
X155725513Y-111050785D01*
X155710831Y-111057330D01*
X155675905Y-111062170D01*
X155627023Y-111065297D01*
X155570471Y-111066702D01*
X155512536Y-111066377D01*
X155459505Y-111064312D01*
X155417664Y-111060499D01*
X155393301Y-111054930D01*
X155389624Y-111051248D01*
X155401121Y-111036561D01*
X155429098Y-111021877D01*
X155432093Y-111020794D01*
X155460897Y-111007358D01*
X155469499Y-110989199D01*
X155466990Y-110968530D01*
X155456604Y-110930287D01*
X155439311Y-110879479D01*
X155417964Y-110823196D01*
X155395417Y-110768527D01*
X155374522Y-110722561D01*
X155358133Y-110692388D01*
X155353373Y-110686224D01*
X155338236Y-110677440D01*
X155310716Y-110671494D01*
X155266611Y-110667954D01*
X155201720Y-110666384D01*
X155159250Y-110666203D01*
X155080681Y-110666604D01*
X155023829Y-110669907D01*
X154983246Y-110679263D01*
X154953483Y-110697822D01*
X154929093Y-110728734D01*
X154904627Y-110775151D01*
X154880502Y-110827400D01*
X154851615Y-110897372D01*
X154838682Y-110948511D01*
X154842010Y-110984189D01*
X154861904Y-111007777D01*
X154898194Y-111022525D01*
X154927155Y-111034512D01*
X154938189Y-111048517D01*
X154937858Y-111050328D01*
X154923219Y-111057302D01*
X154889083Y-111062483D01*
X154842278Y-111065800D01*
X154789632Y-111067180D01*
X154737970Y-111066549D01*
X154694121Y-111063837D01*
X154664911Y-111058970D01*
X154656672Y-111053315D01*
X154667502Y-111037865D01*
X154693581Y-111017001D01*
X154700367Y-111012567D01*
X154712931Y-111002567D01*
X154726903Y-110986459D01*
X154743511Y-110961916D01*
X154763985Y-110926614D01*
X154789553Y-110878224D01*
X154821444Y-110814423D01*
X154860886Y-110732885D01*
X154909108Y-110631282D01*
X154924689Y-110598106D01*
X155002435Y-110598106D01*
X155002555Y-110598357D01*
X155018339Y-110603151D01*
X155054414Y-110606644D01*
X155103950Y-110608812D01*
X155160113Y-110609635D01*
X155216073Y-110609090D01*
X155264996Y-110607156D01*
X155300053Y-110603811D01*
X155314260Y-110599355D01*
X155312184Y-110583387D01*
X155301526Y-110548623D01*
X155284461Y-110500494D01*
X155263163Y-110444435D01*
X155239808Y-110385879D01*
X155216571Y-110330259D01*
X155195628Y-110283009D01*
X155179152Y-110249561D01*
X155169321Y-110235348D01*
X155168486Y-110235229D01*
X155158298Y-110248498D01*
X155140250Y-110281209D01*
X155116827Y-110327928D01*
X155090510Y-110383221D01*
X155063783Y-110441654D01*
X155039129Y-110497793D01*
X155019031Y-110546204D01*
X155005972Y-110581453D01*
X155002435Y-110598106D01*
X154924689Y-110598106D01*
X154967339Y-110507290D01*
X154967720Y-110506476D01*
X155017612Y-110400725D01*
X155064330Y-110303295D01*
X155106564Y-110216805D01*
X155143001Y-110143872D01*
X155172328Y-110087111D01*
X155193235Y-110049142D01*
X155204410Y-110032581D01*
X155205520Y-110032090D01*
X155213495Y-110045316D01*
G37*
G36*
X159396531Y-115350248D02*
G01*
X159431652Y-115358215D01*
X159457980Y-115357103D01*
X159458082Y-115357064D01*
X159470286Y-115357742D01*
X159476245Y-115375324D01*
X159477647Y-115414840D01*
X159477644Y-115415365D01*
X159477213Y-115481337D01*
X159449068Y-115443604D01*
X159407532Y-115401744D01*
X159361415Y-115376708D01*
X159315854Y-115368348D01*
X159275983Y-115376519D01*
X159246937Y-115401072D01*
X159233852Y-115441861D01*
X159233582Y-115449772D01*
X159243319Y-115478596D01*
X159270524Y-115521669D01*
X159312183Y-115575391D01*
X159365286Y-115636162D01*
X159426822Y-115700380D01*
X159493778Y-115764446D01*
X159506232Y-115775737D01*
X159555941Y-115819103D01*
X159589493Y-115843294D01*
X159610125Y-115848155D01*
X159621076Y-115833530D01*
X159625585Y-115799264D01*
X159626531Y-115769973D01*
X159618555Y-115724177D01*
X159596450Y-115687140D01*
X159565628Y-115666587D01*
X159552780Y-115664706D01*
X159534704Y-115657371D01*
X159532406Y-115651123D01*
X159545068Y-115644316D01*
X159579440Y-115639559D01*
X159630098Y-115637561D01*
X159636382Y-115637540D01*
X159688366Y-115637905D01*
X159717557Y-115639882D01*
X159728329Y-115644795D01*
X159725052Y-115653968D01*
X159717993Y-115662254D01*
X159702566Y-115689675D01*
X159688147Y-115732047D01*
X159682213Y-115757700D01*
X159671669Y-115803890D01*
X159659789Y-115842568D01*
X159653991Y-115856100D01*
X159646835Y-115875779D01*
X159650553Y-115894254D01*
X159668307Y-115915366D01*
X159703260Y-115942953D01*
X159754518Y-115978151D01*
X159802582Y-116008207D01*
X159836910Y-116023652D01*
X159864666Y-116027227D01*
X159878097Y-116025466D01*
X159904187Y-116021816D01*
X159907777Y-116027210D01*
X159901405Y-116034585D01*
X159877582Y-116044683D01*
X159835296Y-116050536D01*
X159806329Y-116051393D01*
X159754684Y-116048224D01*
X159713988Y-116036394D01*
X159670005Y-116011401D01*
X159661132Y-116005490D01*
X159623229Y-115980617D01*
X159599273Y-115969295D01*
X159580719Y-115969843D01*
X159559020Y-115980581D01*
X159552890Y-115984194D01*
X159495720Y-116016349D01*
X159451333Y-116036161D01*
X159410376Y-116047032D01*
X159366049Y-116052185D01*
X159316042Y-116053179D01*
X159270370Y-116049782D01*
X159253956Y-116046688D01*
X159169329Y-116013520D01*
X159106521Y-115964254D01*
X159065649Y-115899022D01*
X159046826Y-115817953D01*
X159046167Y-115809091D01*
X159045240Y-115768736D01*
X159110849Y-115768736D01*
X159123736Y-115831379D01*
X159147370Y-115870444D01*
X159186188Y-115913132D01*
X159231211Y-115950656D01*
X159267078Y-115971679D01*
X159323399Y-115986125D01*
X159390702Y-115989143D01*
X159455321Y-115980731D01*
X159483644Y-115971707D01*
X159522844Y-115951581D01*
X159536438Y-115931738D01*
X159525037Y-115907537D01*
X159495739Y-115879729D01*
X159464818Y-115852039D01*
X159421329Y-115810916D01*
X159371611Y-115762433D01*
X159332511Y-115723339D01*
X159286915Y-115678805D01*
X159246746Y-115642544D01*
X159216529Y-115618449D01*
X159201285Y-115610374D01*
X159180611Y-115620060D01*
X159153632Y-115644126D01*
X159146501Y-115652165D01*
X159118484Y-115705249D01*
X159110849Y-115768736D01*
X159045240Y-115768736D01*
X159044980Y-115757407D01*
X159050729Y-115721296D01*
X159065707Y-115689566D01*
X159072972Y-115678289D01*
X159107180Y-115640294D01*
X159149418Y-115609144D01*
X159155650Y-115605865D01*
X159186946Y-115589104D01*
X159197514Y-115576187D01*
X159191428Y-115559878D01*
X159186032Y-115551907D01*
X159167698Y-115505298D01*
X159167456Y-115452156D01*
X159184475Y-115404039D01*
X159197919Y-115386727D01*
X159239860Y-115360453D01*
X159296218Y-115344928D01*
X159355666Y-115342232D01*
X159396531Y-115350248D01*
G37*
G36*
X153957309Y-110055517D02*
G01*
X154002981Y-110057518D01*
X154029960Y-110061527D01*
X154042476Y-110068095D01*
X154044919Y-110075348D01*
X154034046Y-110093355D01*
X154024545Y-110095722D01*
X154000442Y-110104713D01*
X153977005Y-110122888D01*
X153969199Y-110131855D01*
X153963049Y-110143422D01*
X153958359Y-110160679D01*
X153954931Y-110186720D01*
X153952569Y-110224638D01*
X153951076Y-110277525D01*
X153950254Y-110348475D01*
X153949907Y-110440580D01*
X153949839Y-110549638D01*
X153950128Y-110652054D01*
X153950944Y-110746313D01*
X153952214Y-110828804D01*
X153953862Y-110895913D01*
X153955813Y-110944028D01*
X153957992Y-110969536D01*
X153958591Y-110972030D01*
X153975635Y-110990666D01*
X154008751Y-111011687D01*
X154027375Y-111020572D01*
X154060925Y-111037370D01*
X154079591Y-111051532D01*
X154081044Y-111056601D01*
X154064895Y-111061827D01*
X154028389Y-111065152D01*
X153977911Y-111066705D01*
X153919842Y-111066614D01*
X153860565Y-111065007D01*
X153806465Y-111062012D01*
X153763923Y-111057758D01*
X153739323Y-111052373D01*
X153735823Y-111049663D01*
X153743239Y-111035353D01*
X153765822Y-111025099D01*
X153793187Y-111015374D01*
X153813104Y-110999374D01*
X153826714Y-110973162D01*
X153835158Y-110932802D01*
X153839576Y-110874359D01*
X153841108Y-110793895D01*
X153841176Y-110765053D01*
X153841176Y-110571123D01*
X153562726Y-110571123D01*
X153284277Y-110571123D01*
X153284277Y-110773203D01*
X153284605Y-110856157D01*
X153286583Y-110916293D01*
X153291708Y-110957960D01*
X153301474Y-110985504D01*
X153317375Y-111003274D01*
X153340907Y-111015618D01*
X153371234Y-111026130D01*
X153404273Y-111039811D01*
X153410403Y-111050747D01*
X153389746Y-111058900D01*
X153342423Y-111064234D01*
X153268556Y-111066712D01*
X153235654Y-111066898D01*
X153170317Y-111066135D01*
X153115432Y-111064051D01*
X153076374Y-111060955D01*
X153058518Y-111057154D01*
X153058082Y-111056711D01*
X153058058Y-111036816D01*
X153076887Y-111022098D01*
X153092813Y-111019358D01*
X153120481Y-111009844D01*
X153139552Y-110994519D01*
X153145975Y-110984898D01*
X153151063Y-110969849D01*
X153154966Y-110946414D01*
X153157837Y-110911638D01*
X153159826Y-110862565D01*
X153161085Y-110796239D01*
X153161764Y-110709704D01*
X153162016Y-110600004D01*
X153162031Y-110555180D01*
X153162009Y-110433735D01*
X153161593Y-110336596D01*
X153160256Y-110260904D01*
X153157474Y-110203800D01*
X153152721Y-110162424D01*
X153145470Y-110133917D01*
X153135197Y-110115420D01*
X153121376Y-110104074D01*
X153103481Y-110097019D01*
X153080987Y-110091396D01*
X153076583Y-110090357D01*
X153052191Y-110080108D01*
X153046823Y-110068158D01*
X153062517Y-110062956D01*
X153098158Y-110059061D01*
X153147422Y-110056496D01*
X153203985Y-110055286D01*
X153261525Y-110055454D01*
X153313719Y-110057023D01*
X153354242Y-110060018D01*
X153376773Y-110064463D01*
X153379357Y-110066908D01*
X153368136Y-110079745D01*
X153340880Y-110094760D01*
X153338436Y-110095793D01*
X153307589Y-110116091D01*
X153290437Y-110141307D01*
X153290366Y-110141586D01*
X153287915Y-110165906D01*
X153286484Y-110211007D01*
X153286176Y-110270520D01*
X153287094Y-110338075D01*
X153287143Y-110340214D01*
X153291069Y-110510000D01*
X153562726Y-110510000D01*
X153834384Y-110510000D01*
X153838318Y-110347005D01*
X153839762Y-110264668D01*
X153838801Y-110205062D01*
X153834380Y-110163787D01*
X153825447Y-110136444D01*
X153810950Y-110118630D01*
X153789836Y-110105947D01*
X153779569Y-110101436D01*
X153745558Y-110084740D01*
X153734521Y-110072163D01*
X153747369Y-110063316D01*
X153785015Y-110057811D01*
X153848368Y-110055262D01*
X153888716Y-110054973D01*
X153957309Y-110055517D01*
G37*
G36*
X156485262Y-110056359D02*
G01*
X156547566Y-110057330D01*
X156638650Y-110059037D01*
X156707025Y-110060986D01*
X156757144Y-110063709D01*
X156793463Y-110067739D01*
X156820435Y-110073607D01*
X156842515Y-110081846D01*
X156864157Y-110092987D01*
X156869022Y-110095722D01*
X156928776Y-110143495D01*
X156965981Y-110206409D01*
X156980651Y-110284487D01*
X156980898Y-110300299D01*
X156968326Y-110376100D01*
X156934713Y-110445971D01*
X156884445Y-110501827D01*
X156863488Y-110516717D01*
X156833767Y-110537132D01*
X156817118Y-110552541D01*
X156815828Y-110555489D01*
X156822985Y-110569242D01*
X156842888Y-110601866D01*
X156873183Y-110649647D01*
X156911517Y-110708872D01*
X156955053Y-110775103D01*
X157006344Y-110851768D01*
X157046123Y-110908848D01*
X157077256Y-110949805D01*
X157102606Y-110978103D01*
X157125041Y-110997206D01*
X157147425Y-111010576D01*
X157151512Y-111012567D01*
X157185470Y-111030506D01*
X157206249Y-111044987D01*
X157209240Y-111049304D01*
X157198019Y-111061436D01*
X157168095Y-111067861D01*
X157127373Y-111068343D01*
X157083757Y-111062647D01*
X157053303Y-111053951D01*
X157026295Y-111042058D01*
X157001708Y-111026496D01*
X156976876Y-111004096D01*
X156949135Y-110971689D01*
X156915817Y-110926103D01*
X156874258Y-110864170D01*
X156821793Y-110782719D01*
X156811104Y-110765928D01*
X156772112Y-110706265D01*
X156736638Y-110655034D01*
X156707861Y-110616610D01*
X156688962Y-110595364D01*
X156685148Y-110592747D01*
X156652553Y-110586679D01*
X156607232Y-110584992D01*
X156563265Y-110587668D01*
X156538490Y-110592950D01*
X156529435Y-110600358D01*
X156523272Y-110617281D01*
X156519488Y-110648051D01*
X156517571Y-110697002D01*
X156517007Y-110768467D01*
X156517005Y-110774488D01*
X156518504Y-110860838D01*
X156524072Y-110924093D01*
X156535312Y-110968208D01*
X156553829Y-110997143D01*
X156581228Y-111014853D01*
X156618638Y-111025209D01*
X156650097Y-111035186D01*
X156665946Y-111048192D01*
X156666401Y-111050535D01*
X156657929Y-111057761D01*
X156630791Y-111062730D01*
X156582377Y-111065681D01*
X156510078Y-111066854D01*
X156488687Y-111066898D01*
X156422164Y-111066498D01*
X156366105Y-111065403D01*
X156325750Y-111063772D01*
X156306336Y-111061764D01*
X156305452Y-111061357D01*
X156307126Y-111047812D01*
X156322934Y-111030835D01*
X156343158Y-111019993D01*
X156348111Y-111019358D01*
X156368624Y-111009197D01*
X156387197Y-110989170D01*
X156393416Y-110976865D01*
X156398318Y-110957730D01*
X156402049Y-110928768D01*
X156404758Y-110886980D01*
X156406593Y-110829368D01*
X156407703Y-110752934D01*
X156408233Y-110654679D01*
X156408341Y-110560692D01*
X156408341Y-110368649D01*
X156517700Y-110368649D01*
X156518879Y-110428057D01*
X156521404Y-110475893D01*
X156525322Y-110505732D01*
X156527400Y-110511359D01*
X156556789Y-110532526D01*
X156605691Y-110542245D01*
X156668769Y-110540044D01*
X156727003Y-110529092D01*
X156775837Y-110509305D01*
X156818692Y-110479773D01*
X156824073Y-110474525D01*
X156846620Y-110446289D01*
X156859318Y-110414578D01*
X156865682Y-110369201D01*
X156866953Y-110350165D01*
X156863716Y-110272204D01*
X156842492Y-110212144D01*
X156801155Y-110165835D01*
X156759108Y-110139375D01*
X156710731Y-110120552D01*
X156656403Y-110108620D01*
X156603649Y-110104122D01*
X156559989Y-110107599D01*
X156532949Y-110119594D01*
X156530306Y-110122888D01*
X156525478Y-110143787D01*
X156521756Y-110185237D01*
X156519187Y-110240814D01*
X156517819Y-110304093D01*
X156517700Y-110368649D01*
X156408341Y-110368649D01*
X156408341Y-110162401D01*
X156375002Y-110129062D01*
X156344380Y-110106114D01*
X156315413Y-110095769D01*
X156313879Y-110095722D01*
X156290914Y-110086941D01*
X156286095Y-110074309D01*
X156288746Y-110066892D01*
X156299003Y-110061545D01*
X156320325Y-110058042D01*
X156356170Y-110056160D01*
X156409996Y-110055674D01*
X156485262Y-110056359D01*
G37*
G36*
X152376684Y-111548057D02*
G01*
X152414644Y-111556084D01*
X152436347Y-111571781D01*
X152442304Y-111583048D01*
X152447853Y-111609858D01*
X152439760Y-111630315D01*
X152414173Y-111648009D01*
X152367240Y-111666529D01*
X152344742Y-111673973D01*
X152256006Y-111712427D01*
X152191113Y-111763189D01*
X152149406Y-111826831D01*
X152140390Y-111851507D01*
X152137263Y-111867345D01*
X152134505Y-111893944D01*
X152132096Y-111932748D01*
X152130018Y-111985204D01*
X152128250Y-112052754D01*
X152126774Y-112136844D01*
X152125570Y-112238918D01*
X152124618Y-112360421D01*
X152123900Y-112502798D01*
X152123395Y-112667493D01*
X152123085Y-112855950D01*
X152122950Y-113069616D01*
X152122940Y-113151872D01*
X152122905Y-113369239D01*
X152122875Y-113561087D01*
X152122966Y-113729061D01*
X152123295Y-113874809D01*
X152123978Y-113999974D01*
X152125129Y-114106205D01*
X152126865Y-114195147D01*
X152129301Y-114268445D01*
X152132554Y-114327747D01*
X152136739Y-114374697D01*
X152141972Y-114410943D01*
X152148369Y-114438130D01*
X152156046Y-114457904D01*
X152165118Y-114471912D01*
X152175701Y-114481799D01*
X152187911Y-114489211D01*
X152201865Y-114495795D01*
X152217676Y-114503197D01*
X152218021Y-114503369D01*
X152240012Y-114513103D01*
X152264267Y-114520205D01*
X152295304Y-114525072D01*
X152337642Y-114528101D01*
X152395800Y-114529690D01*
X152474296Y-114530236D01*
X152523636Y-114530241D01*
X152639260Y-114529011D01*
X152734027Y-114525346D01*
X152814170Y-114518833D01*
X152885921Y-114509063D01*
X152910748Y-114504697D01*
X153099425Y-114460338D01*
X153267400Y-114401426D01*
X153413882Y-114328354D01*
X153538079Y-114241518D01*
X153639031Y-114141513D01*
X153670674Y-114107053D01*
X153697942Y-114083169D01*
X153713144Y-114075508D01*
X153731730Y-114087614D01*
X153741463Y-114120496D01*
X153741589Y-114168997D01*
X153733894Y-114217263D01*
X153708991Y-114290087D01*
X153667299Y-114370403D01*
X153613226Y-114452578D01*
X153551182Y-114530978D01*
X153485574Y-114599969D01*
X153420811Y-114653918D01*
X153368410Y-114684309D01*
X153349860Y-114691610D01*
X153329404Y-114697788D01*
X153304862Y-114702899D01*
X153274053Y-114707004D01*
X153234799Y-114710158D01*
X153184918Y-114712422D01*
X153122230Y-114713854D01*
X153044556Y-114714510D01*
X152949714Y-114714451D01*
X152835525Y-114713734D01*
X152699809Y-114712417D01*
X152540386Y-114710558D01*
X152435347Y-114709245D01*
X152311779Y-114708011D01*
X152187358Y-114707383D01*
X152067048Y-114707343D01*
X151955817Y-114707872D01*
X151858629Y-114708951D01*
X151780451Y-114710561D01*
X151742620Y-114711864D01*
X151667199Y-114714727D01*
X151598076Y-114716607D01*
X151541391Y-114717390D01*
X151503284Y-114716963D01*
X151494732Y-114716439D01*
X151463509Y-114709638D01*
X151451645Y-114693506D01*
X151450587Y-114680749D01*
X151452739Y-114660242D01*
X151462252Y-114643772D01*
X151483711Y-114627876D01*
X151521705Y-114609093D01*
X151576351Y-114585810D01*
X151649097Y-114549329D01*
X151699331Y-114507492D01*
X151731706Y-114455303D01*
X151748200Y-114401225D01*
X151751137Y-114374797D01*
X151753739Y-114324241D01*
X151756011Y-114249208D01*
X151757956Y-114149350D01*
X151759578Y-114024319D01*
X151760881Y-113873768D01*
X151761869Y-113697348D01*
X151762546Y-113494710D01*
X151762916Y-113265507D01*
X151762994Y-113083761D01*
X151762994Y-111835277D01*
X151722914Y-111789629D01*
X151695917Y-111762810D01*
X151663248Y-111739569D01*
X151619582Y-111717109D01*
X151559599Y-111692634D01*
X151491336Y-111667994D01*
X151444585Y-111650752D01*
X151418084Y-111636994D01*
X151406148Y-111622118D01*
X151403093Y-111601524D01*
X151403047Y-111596527D01*
X151403047Y-111555882D01*
X151762994Y-111560001D01*
X151866592Y-111560704D01*
X151967861Y-111560507D01*
X152061588Y-111559486D01*
X152142563Y-111557718D01*
X152205573Y-111555281D01*
X152238395Y-111553012D01*
X152319068Y-111547200D01*
X152376684Y-111548057D01*
G37*
G36*
X159623812Y-111554287D02*
G01*
X159650339Y-111569892D01*
X159668491Y-111601004D01*
X159680442Y-111651433D01*
X159688366Y-111724987D01*
X159688670Y-111728997D01*
X159693287Y-111803314D01*
X159697213Y-111889156D01*
X159699762Y-111970882D01*
X159700130Y-111990535D01*
X159700851Y-112052196D01*
X159699979Y-112091782D01*
X159696350Y-112114382D01*
X159688799Y-112125082D01*
X159676162Y-112128971D01*
X159668234Y-112129882D01*
X159633307Y-112128194D01*
X159609786Y-112111672D01*
X159594358Y-112076100D01*
X159584534Y-112023436D01*
X159568233Y-111945880D01*
X159541803Y-111889201D01*
X159502117Y-111848027D01*
X159471283Y-111828865D01*
X159455360Y-111821149D01*
X159438083Y-111814923D01*
X159416420Y-111809995D01*
X159387340Y-111806172D01*
X159347812Y-111803262D01*
X159294804Y-111801073D01*
X159225284Y-111799414D01*
X159136222Y-111798091D01*
X159024586Y-111796914D01*
X158957340Y-111796302D01*
X158821863Y-111795392D01*
X158711724Y-111795326D01*
X158625108Y-111796152D01*
X158560200Y-111797912D01*
X158515184Y-111800652D01*
X158488245Y-111804417D01*
X158478543Y-111808152D01*
X158475259Y-111814090D01*
X158472362Y-111827144D01*
X158469830Y-111848857D01*
X158467642Y-111880767D01*
X158465773Y-111924417D01*
X158464202Y-111981346D01*
X158462906Y-112053096D01*
X158461863Y-112141208D01*
X158461051Y-112247221D01*
X158460446Y-112372678D01*
X158460027Y-112519118D01*
X158459770Y-112688082D01*
X158459654Y-112881112D01*
X158459655Y-113099748D01*
X158459656Y-113102599D01*
X158459726Y-113318130D01*
X158459852Y-113508181D01*
X158460065Y-113674436D01*
X158460397Y-113818582D01*
X158460882Y-113942303D01*
X158461550Y-114047284D01*
X158462434Y-114135212D01*
X158463567Y-114207771D01*
X158464980Y-114266646D01*
X158466706Y-114313523D01*
X158468776Y-114350088D01*
X158471223Y-114378024D01*
X158474080Y-114399019D01*
X158477377Y-114414756D01*
X158481148Y-114426922D01*
X158485115Y-114436522D01*
X158521509Y-114494488D01*
X158573122Y-114536854D01*
X158644957Y-114567468D01*
X158661846Y-114572423D01*
X158728125Y-114591777D01*
X158772397Y-114607696D01*
X158799223Y-114622412D01*
X158813163Y-114638159D01*
X158817082Y-114648411D01*
X158821440Y-114666849D01*
X158821920Y-114681334D01*
X158815749Y-114692291D01*
X158800159Y-114700143D01*
X158772379Y-114705313D01*
X158729640Y-114708225D01*
X158669172Y-114709302D01*
X158588204Y-114708969D01*
X158483966Y-114707649D01*
X158434418Y-114706929D01*
X158328443Y-114705804D01*
X158224576Y-114705482D01*
X158127944Y-114705921D01*
X158043671Y-114707077D01*
X157976886Y-114708909D01*
X157936416Y-114711064D01*
X157877840Y-114714930D01*
X157826546Y-114716972D01*
X157790801Y-114716911D01*
X157782826Y-114716252D01*
X157761187Y-114708610D01*
X157754635Y-114688542D01*
X157755661Y-114668712D01*
X157757544Y-114651525D01*
X157761823Y-114638026D01*
X157772220Y-114625652D01*
X157792461Y-114611839D01*
X157826269Y-114594024D01*
X157877370Y-114569643D01*
X157945767Y-114537859D01*
X158005387Y-114506227D01*
X158045400Y-114474382D01*
X158068013Y-114445202D01*
X158099411Y-114394706D01*
X158103494Y-113145080D01*
X158104150Y-112906916D01*
X158104471Y-112695105D01*
X158104449Y-112508837D01*
X158104077Y-112347302D01*
X158103349Y-112209690D01*
X158102257Y-112095190D01*
X158100796Y-112002993D01*
X158098958Y-111932288D01*
X158096736Y-111882264D01*
X158094124Y-111852112D01*
X158092561Y-111843851D01*
X158077546Y-111792247D01*
X157619869Y-111796311D01*
X157495749Y-111797489D01*
X157395800Y-111798713D01*
X157317026Y-111800173D01*
X157256433Y-111802058D01*
X157211025Y-111804558D01*
X157177808Y-111807863D01*
X157153786Y-111812162D01*
X157135965Y-111817645D01*
X157121350Y-111824501D01*
X157114659Y-111828297D01*
X157077490Y-111857192D01*
X157044870Y-111899335D01*
X157014433Y-111958820D01*
X156983810Y-112039739D01*
X156972651Y-112073754D01*
X156946624Y-112144581D01*
X156921524Y-112189413D01*
X156896366Y-112209352D01*
X156870162Y-112205503D01*
X156860774Y-112198916D01*
X156849542Y-112183729D01*
X156844636Y-112158118D01*
X156845279Y-112115523D01*
X156847432Y-112085915D01*
X156855547Y-111994704D01*
X156864747Y-111902702D01*
X156874492Y-111814268D01*
X156884246Y-111733759D01*
X156893469Y-111665532D01*
X156901623Y-111613944D01*
X156908170Y-111583355D01*
X156910181Y-111578040D01*
X156913955Y-111574333D01*
X156921937Y-111571051D01*
X156935719Y-111568165D01*
X156956889Y-111565646D01*
X156987039Y-111563464D01*
X157027759Y-111561590D01*
X157080638Y-111559993D01*
X157147268Y-111558646D01*
X157229238Y-111557517D01*
X157328139Y-111556578D01*
X157445561Y-111555798D01*
X157583094Y-111555149D01*
X157742329Y-111554601D01*
X157924855Y-111554124D01*
X158132264Y-111553689D01*
X158230890Y-111553505D01*
X158418097Y-111553158D01*
X158598269Y-111552811D01*
X158769463Y-111552468D01*
X158929736Y-111552134D01*
X159077142Y-111551814D01*
X159209740Y-111551511D01*
X159325584Y-111551231D01*
X159422731Y-111550978D01*
X159499238Y-111550756D01*
X159553160Y-111550570D01*
X159582554Y-111550424D01*
X159586737Y-111550382D01*
X159623812Y-111554287D01*
G37*
G36*
X155590686Y-111477706D02*
G01*
X155620511Y-111504642D01*
X155648218Y-111554409D01*
X155656196Y-111574524D01*
X155664490Y-111595934D01*
X155682194Y-111640712D01*
X155708575Y-111707026D01*
X155742900Y-111793045D01*
X155784435Y-111896936D01*
X155832446Y-112016868D01*
X155886201Y-112151009D01*
X155944965Y-112297525D01*
X156008005Y-112454586D01*
X156074587Y-112620359D01*
X156143978Y-112793013D01*
X156170848Y-112859840D01*
X156241665Y-113036000D01*
X156310337Y-113206935D01*
X156376089Y-113370712D01*
X156438145Y-113525395D01*
X156495732Y-113669049D01*
X156548075Y-113799738D01*
X156594398Y-113915528D01*
X156633926Y-114014485D01*
X156665885Y-114094672D01*
X156689500Y-114154155D01*
X156703996Y-114190999D01*
X156706606Y-114197754D01*
X156752172Y-114304797D01*
X156801017Y-114397777D01*
X156850801Y-114472846D01*
X156899182Y-114526156D01*
X156913480Y-114537628D01*
X156978279Y-114571796D01*
X157067878Y-114598737D01*
X157078445Y-114601075D01*
X157154956Y-114621655D01*
X157204740Y-114644860D01*
X157228128Y-114670899D01*
X157227573Y-114695232D01*
X157222897Y-114702205D01*
X157212814Y-114707422D01*
X157194153Y-114711013D01*
X157163746Y-114713107D01*
X157118422Y-114713833D01*
X157055012Y-114713323D01*
X156970345Y-114711705D01*
X156878122Y-114709526D01*
X156776881Y-114707550D01*
X156677679Y-114706560D01*
X156585976Y-114706542D01*
X156507236Y-114707477D01*
X156446919Y-114709350D01*
X156421924Y-114710911D01*
X156356790Y-114714787D01*
X156291105Y-114716013D01*
X156237710Y-114714387D01*
X156231764Y-114713904D01*
X156188888Y-114708930D01*
X156166552Y-114701672D01*
X156158163Y-114688535D01*
X156157058Y-114673155D01*
X156161985Y-114650445D01*
X156180618Y-114631509D01*
X156218731Y-114610795D01*
X156224972Y-114607887D01*
X156292001Y-114576515D01*
X156338643Y-114553037D01*
X156369427Y-114534521D01*
X156388882Y-114518034D01*
X156401535Y-114500642D01*
X156407093Y-114489925D01*
X156417045Y-114464035D01*
X156419231Y-114437665D01*
X156413433Y-114401498D01*
X156404147Y-114363984D01*
X156392349Y-114325410D01*
X156372494Y-114267597D01*
X156346217Y-114194758D01*
X156315153Y-114111109D01*
X156280936Y-114020862D01*
X156245199Y-113928233D01*
X156209578Y-113837436D01*
X156175705Y-113752684D01*
X156145217Y-113678192D01*
X156119747Y-113618174D01*
X156100929Y-113576845D01*
X156093301Y-113562425D01*
X156080846Y-113542419D01*
X156068446Y-113525808D01*
X156053610Y-113512294D01*
X156033848Y-113501579D01*
X156006669Y-113493366D01*
X155969584Y-113487356D01*
X155920100Y-113483253D01*
X155855729Y-113480758D01*
X155773980Y-113479574D01*
X155672363Y-113479403D01*
X155548386Y-113479947D01*
X155410836Y-113480833D01*
X155270528Y-113481804D01*
X155154817Y-113482772D01*
X155061131Y-113483870D01*
X154986901Y-113485232D01*
X154929558Y-113486992D01*
X154886530Y-113489285D01*
X154855249Y-113492242D01*
X154833145Y-113496000D01*
X154817647Y-113500690D01*
X154806186Y-113506448D01*
X154797009Y-113512795D01*
X154780943Y-113530052D01*
X154759764Y-113562458D01*
X154732419Y-113612021D01*
X154697854Y-113680751D01*
X154655016Y-113770656D01*
X154604916Y-113879225D01*
X154552466Y-113994973D01*
X154510782Y-114089421D01*
X154478824Y-114165736D01*
X154455555Y-114227085D01*
X154439937Y-114276635D01*
X154430933Y-114317553D01*
X154427504Y-114353007D01*
X154428614Y-114386165D01*
X154431396Y-114408790D01*
X154454247Y-114475208D01*
X154498460Y-114529788D01*
X154559543Y-114569037D01*
X154633005Y-114589459D01*
X154666336Y-114591582D01*
X154701106Y-114601467D01*
X154727463Y-114625864D01*
X154741676Y-114657169D01*
X154740015Y-114687776D01*
X154723250Y-114707615D01*
X154698732Y-114713753D01*
X154653310Y-114717259D01*
X154593125Y-114718054D01*
X154524319Y-114716056D01*
X154453033Y-114711187D01*
X154452406Y-114711130D01*
X154398764Y-114708078D01*
X154325599Y-114706416D01*
X154240519Y-114706191D01*
X154151134Y-114707448D01*
X154097941Y-114708957D01*
X154011497Y-114711727D01*
X153948366Y-114713027D01*
X153904725Y-114712630D01*
X153876750Y-114710309D01*
X153860617Y-114705834D01*
X153852501Y-114698979D01*
X153850102Y-114694195D01*
X153848581Y-114660726D01*
X153872272Y-114632037D01*
X153921966Y-114607315D01*
X153940274Y-114601110D01*
X154001316Y-114574366D01*
X154060453Y-114536306D01*
X154074525Y-114524735D01*
X154085492Y-114515122D01*
X154095531Y-114505824D01*
X154105422Y-114495283D01*
X154115946Y-114481940D01*
X154127883Y-114464237D01*
X154142014Y-114440614D01*
X154159120Y-114409512D01*
X154179981Y-114369373D01*
X154205378Y-114318637D01*
X154236091Y-114255747D01*
X154272901Y-114179142D01*
X154316589Y-114087264D01*
X154367935Y-113978554D01*
X154427720Y-113851453D01*
X154496724Y-113704402D01*
X154575729Y-113535843D01*
X154663355Y-113348823D01*
X154707169Y-113255317D01*
X154919740Y-113255317D01*
X154934891Y-113260618D01*
X154973548Y-113265148D01*
X155032061Y-113268909D01*
X155106782Y-113271901D01*
X155194061Y-113274127D01*
X155290250Y-113275585D01*
X155391698Y-113276279D01*
X155494758Y-113276208D01*
X155595780Y-113275373D01*
X155691114Y-113273775D01*
X155777113Y-113271416D01*
X155850126Y-113268296D01*
X155906504Y-113264416D01*
X155942599Y-113259777D01*
X155954692Y-113255051D01*
X155951040Y-113239510D01*
X155938213Y-113201958D01*
X155917449Y-113145477D01*
X155889985Y-113073148D01*
X155857057Y-112988053D01*
X155819903Y-112893273D01*
X155779759Y-112791890D01*
X155737861Y-112686985D01*
X155695448Y-112581638D01*
X155653755Y-112478932D01*
X155614020Y-112381949D01*
X155577478Y-112293768D01*
X155545368Y-112217472D01*
X155518926Y-112156142D01*
X155499389Y-112112860D01*
X155487993Y-112090706D01*
X155486596Y-112088864D01*
X155470459Y-112081380D01*
X155452689Y-112092653D01*
X155431072Y-112125099D01*
X155404700Y-112178297D01*
X155390326Y-112209381D01*
X155365998Y-112261835D01*
X155333228Y-112332399D01*
X155293532Y-112417819D01*
X155248422Y-112514835D01*
X155199413Y-112620190D01*
X155148018Y-112730629D01*
X155139301Y-112749355D01*
X155089615Y-112856932D01*
X155044050Y-112957214D01*
X155003797Y-113047456D01*
X154970049Y-113124911D01*
X154943996Y-113186833D01*
X154926831Y-113230477D01*
X154919744Y-113253095D01*
X154919740Y-113255317D01*
X154707169Y-113255317D01*
X154720028Y-113227873D01*
X154775005Y-113110549D01*
X154826825Y-112999967D01*
X154874029Y-112899240D01*
X154915157Y-112811485D01*
X154948748Y-112739816D01*
X154973344Y-112687348D01*
X154984815Y-112662888D01*
X155004280Y-112621278D01*
X155033249Y-112559203D01*
X155069777Y-112480837D01*
X155111920Y-112390350D01*
X155157736Y-112291915D01*
X155205280Y-112189704D01*
X155222099Y-112153529D01*
X155290481Y-112006620D01*
X155348482Y-111882491D01*
X155397054Y-111779237D01*
X155437151Y-111694950D01*
X155469726Y-111627722D01*
X155495732Y-111575648D01*
X155516122Y-111536819D01*
X155531848Y-111509329D01*
X155543864Y-111491270D01*
X155553123Y-111480735D01*
X155560578Y-111475818D01*
X155560798Y-111475732D01*
X155590686Y-111477706D01*
G37*
G36*
X161764909Y-111557889D02*
G01*
X161795661Y-111581741D01*
X161805972Y-111592568D01*
X161845078Y-111636988D01*
X161898601Y-111697314D01*
X161965207Y-111772068D01*
X162043563Y-111859771D01*
X162132337Y-111958945D01*
X162230194Y-112068109D01*
X162335802Y-112185786D01*
X162447827Y-112310497D01*
X162564937Y-112440763D01*
X162685797Y-112575104D01*
X162809076Y-112712042D01*
X162933439Y-112850099D01*
X163057554Y-112987794D01*
X163180087Y-113123650D01*
X163299706Y-113256188D01*
X163415076Y-113383928D01*
X163524866Y-113505392D01*
X163627740Y-113619101D01*
X163722368Y-113723576D01*
X163807414Y-113817338D01*
X163881547Y-113898909D01*
X163943433Y-113966809D01*
X163991738Y-114019559D01*
X164025130Y-114055682D01*
X164042275Y-114073697D01*
X164044316Y-114075508D01*
X164046768Y-114062349D01*
X164048918Y-114024565D01*
X164050773Y-113964695D01*
X164052337Y-113885278D01*
X164053617Y-113788852D01*
X164054616Y-113677958D01*
X164055342Y-113555133D01*
X164055798Y-113422917D01*
X164055990Y-113283848D01*
X164055925Y-113140466D01*
X164055606Y-112995310D01*
X164055040Y-112850918D01*
X164054232Y-112709830D01*
X164053187Y-112574584D01*
X164051911Y-112447720D01*
X164050408Y-112331776D01*
X164048685Y-112229292D01*
X164046746Y-112142806D01*
X164044597Y-112074857D01*
X164042244Y-112027984D01*
X164039945Y-112005866D01*
X164008066Y-111905096D01*
X163956092Y-111821889D01*
X163883392Y-111755633D01*
X163789334Y-111705717D01*
X163701332Y-111677878D01*
X163629264Y-111656652D01*
X163582624Y-111634005D01*
X163559675Y-111608725D01*
X163558679Y-111579601D01*
X163558982Y-111578618D01*
X163562457Y-111569361D01*
X163568426Y-111562279D01*
X163580137Y-111557126D01*
X163600834Y-111553654D01*
X163633765Y-111551613D01*
X163682176Y-111550757D01*
X163749314Y-111550838D01*
X163838425Y-111551607D01*
X163903676Y-111552295D01*
X164005136Y-111553109D01*
X164105459Y-111553420D01*
X164198893Y-111553247D01*
X164279686Y-111552609D01*
X164342086Y-111551525D01*
X164365532Y-111550784D01*
X164428455Y-111549794D01*
X164475940Y-111552162D01*
X164502906Y-111557570D01*
X164506106Y-111559604D01*
X164515525Y-111585037D01*
X164501283Y-111615076D01*
X164465704Y-111646401D01*
X164431428Y-111666285D01*
X164384441Y-111692752D01*
X164341601Y-111721787D01*
X164323450Y-111736767D01*
X164311317Y-111748117D01*
X164300515Y-111759145D01*
X164290968Y-111771415D01*
X164282598Y-111786487D01*
X164275328Y-111805927D01*
X164269079Y-111831295D01*
X164263776Y-111864155D01*
X164259339Y-111906070D01*
X164255693Y-111958603D01*
X164252760Y-112023316D01*
X164250462Y-112101773D01*
X164248722Y-112195535D01*
X164247462Y-112306166D01*
X164246606Y-112435229D01*
X164246076Y-112584286D01*
X164245793Y-112754901D01*
X164245682Y-112948635D01*
X164245665Y-113167053D01*
X164245668Y-113307824D01*
X164245595Y-113546154D01*
X164245367Y-113758522D01*
X164244971Y-113946130D01*
X164244391Y-114110183D01*
X164243616Y-114251882D01*
X164242630Y-114372432D01*
X164241420Y-114473034D01*
X164239972Y-114554892D01*
X164238273Y-114619210D01*
X164236308Y-114667190D01*
X164234063Y-114700035D01*
X164231525Y-114718949D01*
X164229368Y-114724770D01*
X164209984Y-114737967D01*
X164187663Y-114737058D01*
X164157217Y-114720232D01*
X164113459Y-114685677D01*
X164110699Y-114683342D01*
X164093850Y-114666556D01*
X164060286Y-114630831D01*
X164011277Y-114577587D01*
X163948091Y-114508246D01*
X163872000Y-114424229D01*
X163784271Y-114326957D01*
X163686174Y-114217851D01*
X163578978Y-114098332D01*
X163463953Y-113969822D01*
X163342369Y-113833741D01*
X163215494Y-113691511D01*
X163084598Y-113544552D01*
X162950950Y-113394286D01*
X162815819Y-113242134D01*
X162680476Y-113089517D01*
X162546189Y-112937856D01*
X162414228Y-112788573D01*
X162285862Y-112643087D01*
X162162360Y-112502822D01*
X162120929Y-112455693D01*
X162096987Y-112427717D01*
X162076160Y-112403014D01*
X162058232Y-112383116D01*
X162042988Y-112369554D01*
X162030214Y-112363862D01*
X162019694Y-112367571D01*
X162011213Y-112382212D01*
X162004555Y-112409318D01*
X161999507Y-112450422D01*
X161995851Y-112507054D01*
X161993375Y-112580747D01*
X161991861Y-112673034D01*
X161991095Y-112785445D01*
X161990862Y-112919514D01*
X161990947Y-113076771D01*
X161991135Y-113258750D01*
X161991207Y-113379385D01*
X161991291Y-113570190D01*
X161991453Y-113735742D01*
X161991740Y-113877954D01*
X161992197Y-113998740D01*
X161992869Y-114100011D01*
X161993802Y-114183682D01*
X161995043Y-114251666D01*
X161996636Y-114305875D01*
X161998628Y-114348222D01*
X162001064Y-114380620D01*
X162003990Y-114404983D01*
X162007451Y-114423223D01*
X162011493Y-114437253D01*
X162016162Y-114448987D01*
X162016790Y-114450381D01*
X162050065Y-114503321D01*
X162097830Y-114542775D01*
X162164730Y-114571881D01*
X162217592Y-114586047D01*
X162269924Y-114599142D01*
X162315935Y-114612870D01*
X162343967Y-114623533D01*
X162375030Y-114648530D01*
X162382815Y-114676518D01*
X162369434Y-114700826D01*
X162336998Y-114714782D01*
X162314765Y-114715819D01*
X162290262Y-114715135D01*
X162242271Y-114714325D01*
X162174470Y-114713432D01*
X162090537Y-114712499D01*
X161994150Y-114711568D01*
X161888986Y-114710681D01*
X161834705Y-114710270D01*
X161714676Y-114709346D01*
X161619019Y-114708379D01*
X161544943Y-114707175D01*
X161489655Y-114705542D01*
X161450362Y-114703286D01*
X161424273Y-114700215D01*
X161408594Y-114696134D01*
X161400534Y-114690850D01*
X161397299Y-114684171D01*
X161396579Y-114679946D01*
X161397596Y-114652708D01*
X161411412Y-114630829D01*
X161442240Y-114610709D01*
X161494290Y-114588748D01*
X161510110Y-114582911D01*
X161592176Y-114548084D01*
X161652711Y-114509435D01*
X161697345Y-114462621D01*
X161725025Y-114417087D01*
X161736415Y-114393623D01*
X161746323Y-114369923D01*
X161754852Y-114344012D01*
X161762103Y-114313916D01*
X161768178Y-114277658D01*
X161773179Y-114233263D01*
X161777207Y-114178755D01*
X161780365Y-114112159D01*
X161782754Y-114031500D01*
X161784476Y-113934801D01*
X161785634Y-113820088D01*
X161786328Y-113685385D01*
X161786660Y-113528715D01*
X161786733Y-113348105D01*
X161786691Y-113220687D01*
X161786537Y-113023291D01*
X161786208Y-112850999D01*
X161785595Y-112701748D01*
X161784587Y-112573479D01*
X161783076Y-112464128D01*
X161780951Y-112371634D01*
X161778104Y-112293935D01*
X161774425Y-112228969D01*
X161769805Y-112174676D01*
X161764134Y-112128992D01*
X161757302Y-112089856D01*
X161749200Y-112055207D01*
X161739720Y-112022982D01*
X161728750Y-111991121D01*
X161720187Y-111968088D01*
X161668740Y-111866929D01*
X161598293Y-111785153D01*
X161508778Y-111722705D01*
X161400130Y-111679529D01*
X161369252Y-111671572D01*
X161306678Y-111652137D01*
X161265469Y-111628656D01*
X161247672Y-111602723D01*
X161252134Y-111580503D01*
X161260311Y-111571254D01*
X161274507Y-111564516D01*
X161298806Y-111559816D01*
X161337292Y-111556682D01*
X161394052Y-111554641D01*
X161473168Y-111553220D01*
X161489835Y-111552997D01*
X161566730Y-111551951D01*
X161635575Y-111550924D01*
X161691120Y-111550000D01*
X161728112Y-111549266D01*
X161739625Y-111548934D01*
X161764909Y-111557889D01*
G37*
G36*
X168612583Y-115391225D02*
G01*
X168612583Y-115703802D01*
X168765746Y-115703802D01*
X168918908Y-115703802D01*
X168918908Y-115778820D01*
X168918908Y-115853839D01*
X168678224Y-115853839D01*
X168437540Y-115853839D01*
X168437540Y-115466243D01*
X168437540Y-115078648D01*
X168525061Y-115078648D01*
X168612583Y-115078648D01*
X168612583Y-115391225D01*
G37*
G36*
X166705864Y-115150541D02*
G01*
X166705864Y-115222433D01*
X166558953Y-115222433D01*
X166412041Y-115222433D01*
X166412041Y-115309955D01*
X166412041Y-115397476D01*
X166549575Y-115397476D01*
X166687109Y-115397476D01*
X166687109Y-115469369D01*
X166687109Y-115541262D01*
X166549684Y-115541262D01*
X166412260Y-115541262D01*
X166410588Y-115695987D01*
X166408916Y-115850713D01*
X166322957Y-115852452D01*
X166236998Y-115854191D01*
X166236998Y-115466420D01*
X166236998Y-115078648D01*
X166471431Y-115078648D01*
X166705864Y-115078648D01*
X166705864Y-115150541D01*
G37*
G36*
X167288938Y-115458357D02*
G01*
X167309411Y-115524766D01*
X167328746Y-115587730D01*
X167346631Y-115646219D01*
X167362754Y-115699203D01*
X167376805Y-115745652D01*
X167388471Y-115784534D01*
X167397441Y-115814820D01*
X167403404Y-115835480D01*
X167406048Y-115845482D01*
X167406154Y-115846191D01*
X167403303Y-115849385D01*
X167393862Y-115851498D01*
X167376328Y-115852634D01*
X167349201Y-115852894D01*
X167314208Y-115852443D01*
X167222380Y-115850713D01*
X167193476Y-115753814D01*
X167164573Y-115656915D01*
X167052911Y-115656915D01*
X166941250Y-115656915D01*
X166920329Y-115731934D01*
X166911610Y-115763248D01*
X166903520Y-115792392D01*
X166896984Y-115816026D01*
X166893042Y-115830395D01*
X166886676Y-115853839D01*
X166796270Y-115853839D01*
X166764276Y-115853737D01*
X166737271Y-115853457D01*
X166717452Y-115853037D01*
X166707018Y-115852516D01*
X166705963Y-115852276D01*
X166707760Y-115846189D01*
X166712912Y-115829150D01*
X166721114Y-115802162D01*
X166732058Y-115766230D01*
X166745439Y-115722355D01*
X166760951Y-115671542D01*
X166778288Y-115614793D01*
X166797144Y-115553112D01*
X166808511Y-115515952D01*
X166970376Y-115515952D01*
X166973607Y-115518984D01*
X166982219Y-115520909D01*
X166998061Y-115521974D01*
X167022980Y-115522424D01*
X167052824Y-115522507D01*
X167086941Y-115522389D01*
X167110396Y-115521869D01*
X167125030Y-115520702D01*
X167132685Y-115518641D01*
X167135201Y-115515441D01*
X167134651Y-115511567D01*
X167128478Y-115491101D01*
X167120294Y-115463012D01*
X167110734Y-115429588D01*
X167100436Y-115393115D01*
X167090036Y-115355880D01*
X167080172Y-115320168D01*
X167071478Y-115288266D01*
X167064593Y-115262462D01*
X167060152Y-115245040D01*
X167058938Y-115239625D01*
X167055187Y-115224610D01*
X167051342Y-115216594D01*
X167050509Y-115216182D01*
X167047433Y-115221839D01*
X167042733Y-115236926D01*
X167037248Y-115258612D01*
X167035185Y-115267757D01*
X167028463Y-115296417D01*
X167018712Y-115335036D01*
X167006467Y-115381591D01*
X166992264Y-115434055D01*
X166976638Y-115490406D01*
X166970679Y-115511567D01*
X166970376Y-115515952D01*
X166808511Y-115515952D01*
X166817213Y-115487503D01*
X166823718Y-115466243D01*
X166941374Y-115081774D01*
X167056489Y-115080139D01*
X167171603Y-115078505D01*
X167288938Y-115458357D01*
G37*
G36*
X169390176Y-115080011D02*
G01*
X169415554Y-115080730D01*
X169432382Y-115081870D01*
X169438467Y-115083188D01*
X169441134Y-115089886D01*
X169447071Y-115107304D01*
X169455891Y-115134204D01*
X169467211Y-115169349D01*
X169480645Y-115211501D01*
X169495808Y-115259422D01*
X169512317Y-115311874D01*
X169529785Y-115367621D01*
X169547828Y-115425424D01*
X169566062Y-115484045D01*
X169584102Y-115542248D01*
X169601562Y-115598794D01*
X169618058Y-115652447D01*
X169633205Y-115701967D01*
X169646619Y-115746119D01*
X169657914Y-115783663D01*
X169666707Y-115813363D01*
X169672611Y-115833980D01*
X169675242Y-115844278D01*
X169675344Y-115845065D01*
X169673571Y-115848633D01*
X169667089Y-115851046D01*
X169654156Y-115852444D01*
X169633031Y-115852967D01*
X169601973Y-115852755D01*
X169583516Y-115852443D01*
X169491688Y-115850713D01*
X169462785Y-115753814D01*
X169433881Y-115656915D01*
X169322220Y-115656915D01*
X169210559Y-115656915D01*
X169189637Y-115731934D01*
X169180918Y-115763248D01*
X169172828Y-115792392D01*
X169166293Y-115816026D01*
X169162350Y-115830395D01*
X169155985Y-115853839D01*
X169065578Y-115853839D01*
X169033585Y-115853737D01*
X169006581Y-115853457D01*
X168986764Y-115853037D01*
X168976332Y-115852516D01*
X168975278Y-115852276D01*
X168977075Y-115846188D01*
X168982225Y-115829148D01*
X168990423Y-115802160D01*
X169001362Y-115766225D01*
X169014737Y-115722349D01*
X169030241Y-115671533D01*
X169047569Y-115614782D01*
X169066414Y-115553099D01*
X169077770Y-115515952D01*
X169239710Y-115515952D01*
X169242922Y-115518983D01*
X169251518Y-115520909D01*
X169267343Y-115521973D01*
X169292244Y-115522424D01*
X169322132Y-115522507D01*
X169407371Y-115522507D01*
X169402872Y-115508441D01*
X169397547Y-115490960D01*
X169390018Y-115465137D01*
X169380932Y-115433299D01*
X169370933Y-115397775D01*
X169360667Y-115360893D01*
X169350779Y-115324980D01*
X169341915Y-115292365D01*
X169334721Y-115265376D01*
X169329841Y-115246340D01*
X169328092Y-115238703D01*
X169324359Y-115224041D01*
X169320512Y-115216466D01*
X169319817Y-115216182D01*
X169316727Y-115221836D01*
X169311987Y-115236915D01*
X169306445Y-115258593D01*
X169304352Y-115267757D01*
X169298672Y-115291819D01*
X169290353Y-115324980D01*
X169280168Y-115364312D01*
X169268888Y-115406884D01*
X169257288Y-115449767D01*
X169246140Y-115490034D01*
X169240032Y-115511567D01*
X169239710Y-115515952D01*
X169077770Y-115515952D01*
X169086472Y-115487487D01*
X169092968Y-115466243D01*
X169210554Y-115081774D01*
X169322146Y-115080062D01*
X169358342Y-115079770D01*
X169390176Y-115080011D01*
G37*
G36*
X167788559Y-115074759D02*
G01*
X167788710Y-115074769D01*
X167836692Y-115078848D01*
X167875604Y-115084675D01*
X167908837Y-115093000D01*
X167939785Y-115104576D01*
X167955004Y-115111594D01*
X167995231Y-115137038D01*
X168025879Y-115168526D01*
X168046916Y-115204380D01*
X168058311Y-115242922D01*
X168060034Y-115282476D01*
X168052053Y-115321363D01*
X168034338Y-115357905D01*
X168006857Y-115390425D01*
X167969579Y-115417244D01*
X167960749Y-115421873D01*
X167935237Y-115434495D01*
X167965817Y-115447604D01*
X168009603Y-115472406D01*
X168044339Y-115505091D01*
X168066710Y-115539769D01*
X168076228Y-115561340D01*
X168081610Y-115580920D01*
X168083937Y-115603786D01*
X168084328Y-115625789D01*
X168083645Y-115653718D01*
X168080772Y-115674734D01*
X168074469Y-115694392D01*
X168063882Y-115717464D01*
X168041860Y-115754255D01*
X168014875Y-115783068D01*
X167979909Y-115806782D01*
X167959046Y-115817365D01*
X167929319Y-115829893D01*
X167898878Y-115839521D01*
X167865412Y-115846628D01*
X167826606Y-115851591D01*
X167780150Y-115854788D01*
X167723730Y-115856599D01*
X167718613Y-115856697D01*
X167679946Y-115857247D01*
X167643905Y-115857464D01*
X167613037Y-115857353D01*
X167589888Y-115856924D01*
X167577953Y-115856291D01*
X167555584Y-115853675D01*
X167534410Y-115850678D01*
X167532630Y-115850389D01*
X167512312Y-115847021D01*
X167512312Y-115730191D01*
X167687355Y-115730191D01*
X167754559Y-115727628D01*
X167788014Y-115725836D01*
X167812263Y-115723057D01*
X167830595Y-115718712D01*
X167846302Y-115712221D01*
X167848578Y-115711056D01*
X167875165Y-115691048D01*
X167893413Y-115664761D01*
X167902858Y-115634835D01*
X167903035Y-115603910D01*
X167893477Y-115574627D01*
X167876564Y-115552236D01*
X167854158Y-115535087D01*
X167827026Y-115523095D01*
X167792686Y-115515469D01*
X167748656Y-115511418D01*
X167748308Y-115511401D01*
X167687355Y-115508332D01*
X167687355Y-115619262D01*
X167687355Y-115730191D01*
X167512312Y-115730191D01*
X167512312Y-115619262D01*
X167512312Y-115469755D01*
X167512342Y-115390783D01*
X167512349Y-115386427D01*
X167687355Y-115386427D01*
X167748308Y-115383767D01*
X167782316Y-115381482D01*
X167807224Y-115377678D01*
X167826401Y-115371732D01*
X167834874Y-115367771D01*
X167861674Y-115348075D01*
X167878617Y-115323544D01*
X167885661Y-115296477D01*
X167882763Y-115269175D01*
X167869882Y-115243939D01*
X167846975Y-115223069D01*
X167837630Y-115217745D01*
X167821754Y-115210834D01*
X167805103Y-115206577D01*
X167783991Y-115204390D01*
X167754730Y-115203691D01*
X167748546Y-115203679D01*
X167687355Y-115203679D01*
X167687355Y-115295053D01*
X167687355Y-115386427D01*
X167512349Y-115386427D01*
X167512447Y-115323409D01*
X167512548Y-115295053D01*
X167512649Y-115266731D01*
X167512970Y-115219843D01*
X167513433Y-115181842D01*
X167514059Y-115151823D01*
X167514872Y-115128883D01*
X167515893Y-115112117D01*
X167517145Y-115100622D01*
X167518650Y-115093492D01*
X167520430Y-115089825D01*
X167521697Y-115088887D01*
X167534302Y-115086231D01*
X167556937Y-115083541D01*
X167587130Y-115080948D01*
X167622408Y-115078584D01*
X167660300Y-115076578D01*
X167698333Y-115075062D01*
X167734036Y-115074167D01*
X167764935Y-115074022D01*
X167788559Y-115074759D01*
G37*
G36*
X170094463Y-115077528D02*
G01*
X170143908Y-115084009D01*
X170151792Y-115085551D01*
X170199003Y-115099895D01*
X170241909Y-115121662D01*
X170278284Y-115149281D01*
X170305904Y-115181182D01*
X170317824Y-115202806D01*
X170325529Y-115231204D01*
X170328079Y-115265312D01*
X170325607Y-115300007D01*
X170318248Y-115330167D01*
X170314237Y-115339298D01*
X170293230Y-115370412D01*
X170265754Y-115398014D01*
X170235939Y-115418085D01*
X170230827Y-115420506D01*
X170215964Y-115427933D01*
X170207483Y-115433856D01*
X170206725Y-115435199D01*
X170212103Y-115439335D01*
X170225560Y-115444787D01*
X170231339Y-115446632D01*
X170264165Y-115461938D01*
X170295673Y-115486401D01*
X170322319Y-115516876D01*
X170335811Y-115539343D01*
X170345423Y-115561062D01*
X170350864Y-115580621D01*
X170353227Y-115603321D01*
X170353636Y-115625789D01*
X170352954Y-115653718D01*
X170350080Y-115674734D01*
X170343777Y-115694392D01*
X170333190Y-115717464D01*
X170311168Y-115754255D01*
X170284184Y-115783068D01*
X170249217Y-115806782D01*
X170228354Y-115817365D01*
X170198627Y-115829893D01*
X170168187Y-115839521D01*
X170134720Y-115846628D01*
X170095915Y-115851591D01*
X170049458Y-115854788D01*
X169993039Y-115856599D01*
X169987921Y-115856697D01*
X169949255Y-115857247D01*
X169913214Y-115857464D01*
X169882345Y-115857353D01*
X169859196Y-115856924D01*
X169847262Y-115856291D01*
X169824893Y-115853675D01*
X169803719Y-115850678D01*
X169801938Y-115850389D01*
X169781621Y-115847021D01*
X169781621Y-115730191D01*
X169956664Y-115730191D01*
X170023868Y-115727628D01*
X170057322Y-115725836D01*
X170081571Y-115723057D01*
X170099903Y-115718712D01*
X170115610Y-115712221D01*
X170117886Y-115711056D01*
X170144473Y-115691048D01*
X170162722Y-115664761D01*
X170172167Y-115634835D01*
X170172343Y-115603910D01*
X170162785Y-115574627D01*
X170145872Y-115552236D01*
X170123680Y-115535342D01*
X170096511Y-115523440D01*
X170061953Y-115515763D01*
X170017784Y-115511554D01*
X169956664Y-115508186D01*
X169956664Y-115619188D01*
X169956664Y-115730191D01*
X169781621Y-115730191D01*
X169781621Y-115619188D01*
X169781621Y-115469755D01*
X169781650Y-115390783D01*
X169781657Y-115386427D01*
X169956664Y-115386427D01*
X170017616Y-115383767D01*
X170051625Y-115381482D01*
X170076533Y-115377678D01*
X170095709Y-115371732D01*
X170104183Y-115367771D01*
X170130982Y-115348075D01*
X170147925Y-115323544D01*
X170154969Y-115296477D01*
X170152072Y-115269175D01*
X170139190Y-115243939D01*
X170116283Y-115223069D01*
X170106939Y-115217745D01*
X170091062Y-115210834D01*
X170074412Y-115206577D01*
X170053300Y-115204390D01*
X170024039Y-115203691D01*
X170017854Y-115203679D01*
X169956664Y-115203679D01*
X169956664Y-115295053D01*
X169956664Y-115386427D01*
X169781657Y-115386427D01*
X169781755Y-115323409D01*
X169781856Y-115295053D01*
X169781957Y-115266731D01*
X169782278Y-115219843D01*
X169782741Y-115181842D01*
X169783368Y-115151823D01*
X169784180Y-115128883D01*
X169785202Y-115112117D01*
X169786454Y-115100622D01*
X169787959Y-115093492D01*
X169789739Y-115089825D01*
X169791005Y-115088887D01*
X169800237Y-115087211D01*
X169819567Y-115084943D01*
X169846617Y-115082321D01*
X169879011Y-115079584D01*
X169898844Y-115078072D01*
X169969659Y-115074493D01*
X170035623Y-115074334D01*
X170094463Y-115077528D01*
G37*
G36*
X166166632Y-111299763D02*
G01*
X166181721Y-111308945D01*
X166203872Y-111322957D01*
X166231420Y-111340743D01*
X166262696Y-111361247D01*
X166266366Y-111363671D01*
X166368006Y-111430875D01*
X166368361Y-112490511D01*
X166368717Y-113550147D01*
X166660758Y-113716488D01*
X166952799Y-113882829D01*
X166954444Y-113671177D01*
X166956089Y-113459524D01*
X166926752Y-113423566D01*
X166870390Y-113346953D01*
X166818152Y-113261172D01*
X166771498Y-113169273D01*
X166731886Y-113074304D01*
X166700774Y-112979313D01*
X166686240Y-112921033D01*
X166678846Y-112877352D01*
X166673478Y-112825972D01*
X166670240Y-112770546D01*
X166669240Y-112714727D01*
X166670582Y-112662166D01*
X166674371Y-112616516D01*
X166676941Y-112598977D01*
X166695845Y-112520555D01*
X166723776Y-112448828D01*
X166760112Y-112384538D01*
X166804232Y-112328422D01*
X166855511Y-112281221D01*
X166913329Y-112243673D01*
X166977061Y-112216519D01*
X167005938Y-112208269D01*
X167038577Y-112202990D01*
X167079382Y-112200472D01*
X167124347Y-112200610D01*
X167169467Y-112203301D01*
X167210737Y-112208441D01*
X167238483Y-112214298D01*
X167330370Y-112245169D01*
X167418380Y-112287308D01*
X167502959Y-112340991D01*
X167584552Y-112406492D01*
X167646816Y-112466386D01*
X167726659Y-112557206D01*
X167796561Y-112653899D01*
X167856086Y-112755535D01*
X167904800Y-112861189D01*
X167942268Y-112969931D01*
X167968056Y-113080833D01*
X167980696Y-113178912D01*
X167983061Y-113274570D01*
X167974510Y-113365594D01*
X167955152Y-113451333D01*
X167925095Y-113531136D01*
X167920846Y-113540134D01*
X167906000Y-113569137D01*
X167891420Y-113592786D01*
X167874283Y-113614946D01*
X167851767Y-113639483D01*
X167838364Y-113653095D01*
X167801601Y-113687534D01*
X167768839Y-113712868D01*
X167742079Y-113728748D01*
X167699905Y-113750196D01*
X167700036Y-114037767D01*
X167700167Y-114325338D01*
X167946948Y-114468499D01*
X168193730Y-114611661D01*
X168193730Y-114735753D01*
X168193730Y-114859844D01*
X168145280Y-114859013D01*
X168114023Y-114857860D01*
X168077979Y-114855621D01*
X168044763Y-114852771D01*
X168043693Y-114852661D01*
X167867199Y-114828321D01*
X167695626Y-114792487D01*
X167528955Y-114745152D01*
X167367168Y-114686308D01*
X167210246Y-114615947D01*
X167058171Y-114534063D01*
X166910925Y-114440647D01*
X166768489Y-114335692D01*
X166755876Y-114325657D01*
X166718193Y-114294059D01*
X166674847Y-114255343D01*
X166628116Y-114211738D01*
X166580274Y-114165471D01*
X166533596Y-114118772D01*
X166490358Y-114073868D01*
X166452836Y-114032987D01*
X166429981Y-114006509D01*
X166320672Y-113865869D01*
X166223042Y-113720786D01*
X166137052Y-113571167D01*
X166062659Y-113416922D01*
X165999823Y-113257960D01*
X165948503Y-113094189D01*
X165908657Y-112925518D01*
X165886898Y-112799962D01*
X165874049Y-112691756D01*
X165866051Y-112576322D01*
X165862966Y-112457772D01*
X165864855Y-112340219D01*
X165871780Y-112227777D01*
X165877510Y-112171683D01*
X165899199Y-112028702D01*
X165930427Y-111883161D01*
X165970226Y-111738684D01*
X166017624Y-111598894D01*
X166057433Y-111499642D01*
X166069696Y-111472101D01*
X166084100Y-111441229D01*
X166099638Y-111409013D01*
X166115307Y-111377438D01*
X166130099Y-111348491D01*
X166143011Y-111324158D01*
X166153036Y-111306425D01*
X166159169Y-111297278D01*
X166160275Y-111296467D01*
X166166632Y-111299763D01*
G37*
G36*
X170397775Y-111314561D02*
G01*
X170408121Y-111330153D01*
X170421800Y-111354483D01*
X170438073Y-111386151D01*
X170456199Y-111423757D01*
X170475438Y-111465899D01*
X170480678Y-111477762D01*
X170545566Y-111640921D01*
X170598245Y-111806493D01*
X170638682Y-111974091D01*
X170666844Y-112143326D01*
X170682699Y-112313811D01*
X170686214Y-112485156D01*
X170677357Y-112656975D01*
X170656095Y-112828879D01*
X170622394Y-113000480D01*
X170612348Y-113041993D01*
X170564984Y-113205367D01*
X170506077Y-113364812D01*
X170436087Y-113519614D01*
X170355476Y-113669062D01*
X170264702Y-113812440D01*
X170164229Y-113949037D01*
X170054515Y-114078139D01*
X169936022Y-114199033D01*
X169809210Y-114311005D01*
X169774526Y-114338890D01*
X169637662Y-114439161D01*
X169494280Y-114529626D01*
X169345281Y-114609940D01*
X169191568Y-114679757D01*
X169034043Y-114738731D01*
X168873609Y-114786517D01*
X168711167Y-114822769D01*
X168547619Y-114847140D01*
X168420849Y-114857629D01*
X168343767Y-114861750D01*
X168343767Y-114739527D01*
X168343767Y-114617304D01*
X168742302Y-114384569D01*
X168810776Y-114344587D01*
X168888326Y-114299313D01*
X168973229Y-114249754D01*
X169063759Y-114196917D01*
X169158192Y-114141806D01*
X169254804Y-114085430D01*
X169351870Y-114028793D01*
X169447665Y-113972904D01*
X169540466Y-113918766D01*
X169628547Y-113867388D01*
X169660292Y-113848873D01*
X170179746Y-113545912D01*
X170183845Y-113391741D01*
X170185094Y-113338169D01*
X170186105Y-113281324D01*
X170186882Y-113222519D01*
X170187428Y-113163068D01*
X170187745Y-113104284D01*
X170187838Y-113047479D01*
X170187709Y-112993967D01*
X170187361Y-112945062D01*
X170186799Y-112902076D01*
X170186024Y-112866323D01*
X170185040Y-112839116D01*
X170183850Y-112821768D01*
X170182458Y-112815592D01*
X170182440Y-112815591D01*
X170175823Y-112818604D01*
X170159784Y-112827129D01*
X170135707Y-112840392D01*
X170104979Y-112857619D01*
X170068987Y-112878039D01*
X170029116Y-112900876D01*
X170015691Y-112908611D01*
X169854473Y-113001631D01*
X169815710Y-113110223D01*
X169797553Y-113160534D01*
X169782364Y-113201109D01*
X169769208Y-113234091D01*
X169757148Y-113261622D01*
X169745251Y-113285845D01*
X169732581Y-113308901D01*
X169719282Y-113331182D01*
X169661578Y-113416173D01*
X169597360Y-113494378D01*
X169527684Y-113565002D01*
X169453611Y-113627251D01*
X169376199Y-113680330D01*
X169296505Y-113723445D01*
X169215590Y-113755801D01*
X169134511Y-113776605D01*
X169123129Y-113778563D01*
X169064548Y-113783975D01*
X169002900Y-113782563D01*
X168943059Y-113774673D01*
X168894826Y-113762335D01*
X168829589Y-113734547D01*
X168772167Y-113697094D01*
X168722521Y-113649930D01*
X168680614Y-113593008D01*
X168646409Y-113526281D01*
X168619869Y-113449702D01*
X168609086Y-113405981D01*
X168603385Y-113369358D01*
X168599723Y-113323892D01*
X168598104Y-113273076D01*
X168598533Y-113220403D01*
X168601016Y-113169365D01*
X168605555Y-113123457D01*
X168608662Y-113103162D01*
X168634244Y-112989857D01*
X168670022Y-112878930D01*
X168715224Y-112771784D01*
X168769080Y-112669820D01*
X168830817Y-112574440D01*
X168899664Y-112487044D01*
X168974849Y-112409035D01*
X169006132Y-112381109D01*
X169084352Y-112320326D01*
X169163319Y-112270638D01*
X169242492Y-112232192D01*
X169321328Y-112205132D01*
X169399286Y-112189603D01*
X169475824Y-112185752D01*
X169550399Y-112193722D01*
X169622471Y-112213661D01*
X169625840Y-112214915D01*
X169650782Y-112227239D01*
X169680918Y-112246805D01*
X169713083Y-112271555D01*
X169713361Y-112271786D01*
X169736221Y-112290408D01*
X169756762Y-112306473D01*
X169772365Y-112317967D01*
X169779261Y-112322384D01*
X169784377Y-112323724D01*
X169791960Y-112322941D01*
X169803231Y-112319495D01*
X169819416Y-112312843D01*
X169841735Y-112302446D01*
X169871412Y-112287762D01*
X169909670Y-112268249D01*
X169957430Y-112243523D01*
X170000739Y-112220991D01*
X170041848Y-112199572D01*
X170079049Y-112180159D01*
X170110632Y-112163646D01*
X170134889Y-112150924D01*
X170150112Y-112142886D01*
X170151973Y-112141892D01*
X170181617Y-112125990D01*
X170183231Y-111773040D01*
X170184845Y-111420089D01*
X170284869Y-111364667D01*
X170317098Y-111346994D01*
X170345744Y-111331635D01*
X170368949Y-111319557D01*
X170384859Y-111311728D01*
X170391504Y-111309107D01*
X170397775Y-111314561D01*
G37*
G36*
X168354549Y-110044419D02*
G01*
X168425175Y-110046644D01*
X168490390Y-110050734D01*
X168553708Y-110056975D01*
X168618642Y-110065655D01*
X168688704Y-110077059D01*
X168693853Y-110077960D01*
X168859990Y-110113447D01*
X169023037Y-110160792D01*
X169182295Y-110219583D01*
X169337067Y-110289406D01*
X169486658Y-110369848D01*
X169630368Y-110460496D01*
X169767503Y-110560936D01*
X169897363Y-110670757D01*
X170019253Y-110789544D01*
X170132474Y-110916884D01*
X170154053Y-110943387D01*
X170176942Y-110972674D01*
X170201337Y-111005189D01*
X170226196Y-111039399D01*
X170250474Y-111073768D01*
X170273130Y-111106763D01*
X170293118Y-111136849D01*
X170309396Y-111162491D01*
X170320921Y-111182157D01*
X170326648Y-111194311D01*
X170326816Y-111197415D01*
X170320144Y-111201656D01*
X170304333Y-111210849D01*
X170281218Y-111223954D01*
X170252633Y-111239928D01*
X170223418Y-111256079D01*
X170187732Y-111275560D01*
X170161191Y-111289549D01*
X170142086Y-111298753D01*
X170128706Y-111303881D01*
X170119338Y-111305640D01*
X170112272Y-111304738D01*
X170108923Y-111303445D01*
X170102144Y-111299862D01*
X170087645Y-111291754D01*
X170065171Y-111278973D01*
X170034465Y-111261369D01*
X169995272Y-111238797D01*
X169947337Y-111211107D01*
X169890405Y-111178151D01*
X169824219Y-111139782D01*
X169748524Y-111095852D01*
X169663065Y-111046213D01*
X169567587Y-110990717D01*
X169461833Y-110929217D01*
X169345548Y-110861563D01*
X169340887Y-110858851D01*
X169317391Y-110845183D01*
X169284480Y-110826044D01*
X169243549Y-110802246D01*
X169195994Y-110774600D01*
X169143211Y-110743917D01*
X169086595Y-110711009D01*
X169027541Y-110676686D01*
X168967445Y-110641760D01*
X168940789Y-110626269D01*
X168876853Y-110589114D01*
X168810251Y-110550410D01*
X168742868Y-110511251D01*
X168676586Y-110472732D01*
X168613288Y-110435948D01*
X168554858Y-110401992D01*
X168503178Y-110371959D01*
X168460133Y-110346943D01*
X168454339Y-110343576D01*
X168274215Y-110238898D01*
X168057366Y-110362515D01*
X168005092Y-110392295D01*
X167952140Y-110422424D01*
X167900441Y-110451806D01*
X167851924Y-110479347D01*
X167808521Y-110503949D01*
X167772162Y-110524517D01*
X167745320Y-110539651D01*
X167714422Y-110557187D01*
X167687695Y-110572673D01*
X167666897Y-110585064D01*
X167653784Y-110593316D01*
X167649993Y-110596295D01*
X167654941Y-110600543D01*
X167668686Y-110610238D01*
X167689441Y-110624171D01*
X167715419Y-110641134D01*
X167732688Y-110652211D01*
X167766006Y-110673449D01*
X167800132Y-110695204D01*
X167831629Y-110715284D01*
X167857057Y-110731499D01*
X167863022Y-110735302D01*
X167910532Y-110765603D01*
X167984927Y-110752926D01*
X168049169Y-110742683D01*
X168105505Y-110735412D01*
X168158075Y-110730735D01*
X168211018Y-110728269D01*
X168260614Y-110727629D01*
X168368377Y-110731971D01*
X168471124Y-110744892D01*
X168568163Y-110766041D01*
X168658804Y-110795066D01*
X168742352Y-110831617D01*
X168818118Y-110875343D01*
X168885408Y-110925893D01*
X168943531Y-110982916D01*
X168991796Y-111046062D01*
X169029509Y-111114979D01*
X169030986Y-111118298D01*
X169050632Y-111174589D01*
X169063214Y-111236197D01*
X169068331Y-111299179D01*
X169065583Y-111359590D01*
X169059206Y-111396397D01*
X169037552Y-111461724D01*
X169004308Y-111525005D01*
X168960327Y-111585445D01*
X168906457Y-111642248D01*
X168843551Y-111694620D01*
X168772458Y-111741766D01*
X168694031Y-111782891D01*
X168609119Y-111817199D01*
X168608664Y-111817358D01*
X168520248Y-111843118D01*
X168424197Y-111861804D01*
X168340641Y-111871516D01*
X168307762Y-111874123D01*
X168281927Y-111875787D01*
X168259627Y-111876502D01*
X168237349Y-111876265D01*
X168211585Y-111875071D01*
X168178822Y-111872915D01*
X168156221Y-111871295D01*
X168055263Y-111860044D01*
X167957858Y-111841468D01*
X167864874Y-111816072D01*
X167777182Y-111784357D01*
X167695651Y-111746828D01*
X167621153Y-111703987D01*
X167554557Y-111656337D01*
X167496734Y-111604382D01*
X167448553Y-111548623D01*
X167410885Y-111489566D01*
X167384599Y-111427711D01*
X167383620Y-111424622D01*
X167377555Y-111404260D01*
X167373319Y-111386601D01*
X167370650Y-111368781D01*
X167369282Y-111347932D01*
X167368953Y-111321188D01*
X167369399Y-111285681D01*
X167369647Y-111272788D01*
X167371653Y-111172207D01*
X167324766Y-111144677D01*
X167305847Y-111133530D01*
X167278383Y-111117299D01*
X167244579Y-111097288D01*
X167206638Y-111074801D01*
X167166762Y-111051144D01*
X167144392Y-111037862D01*
X167010904Y-110958577D01*
X166753670Y-111116168D01*
X166701171Y-111148330D01*
X166651025Y-111179049D01*
X166604424Y-111207594D01*
X166562561Y-111233235D01*
X166526629Y-111255241D01*
X166497820Y-111272881D01*
X166477327Y-111285427D01*
X166466545Y-111292022D01*
X166436653Y-111310286D01*
X166333700Y-111245766D01*
X166301904Y-111225579D01*
X166274096Y-111207422D01*
X166251897Y-111192398D01*
X166236928Y-111181604D01*
X166230810Y-111176143D01*
X166230747Y-111175916D01*
X166234287Y-111168112D01*
X166244137Y-111151939D01*
X166259141Y-111129058D01*
X166278144Y-111101128D01*
X166299989Y-111069811D01*
X166323522Y-111036766D01*
X166347587Y-111003655D01*
X166371029Y-110972138D01*
X166388309Y-110949507D01*
X166413598Y-110918621D01*
X166446319Y-110881323D01*
X166484592Y-110839542D01*
X166526536Y-110795207D01*
X166570270Y-110750247D01*
X166613911Y-110706590D01*
X166655580Y-110666166D01*
X166693394Y-110630904D01*
X166725473Y-110602732D01*
X166730870Y-110598254D01*
X166870469Y-110491589D01*
X167015807Y-110395720D01*
X167166399Y-110310895D01*
X167321756Y-110237356D01*
X167481395Y-110175351D01*
X167644827Y-110125125D01*
X167693929Y-110112536D01*
X167798650Y-110088821D01*
X167897949Y-110070612D01*
X167995571Y-110057463D01*
X168095263Y-110048932D01*
X168200769Y-110044575D01*
X168275000Y-110043771D01*
X168354549Y-110044419D01*
G37*
G04 #@! TO.C,D1*
D13*
X150190000Y-104500000D02*
X150190000Y-106500000D01*
X150190000Y-104500000D02*
X154050000Y-104500000D01*
X150190000Y-106500000D02*
X154050000Y-106500000D01*
G04 #@! TO.C,R5*
X157047936Y-102090000D02*
X158502064Y-102090000D01*
X157047936Y-103910000D02*
X158502064Y-103910000D01*
G04 #@! TD*
M02*
