G04 #@! TF.GenerationSoftware,KiCad,Pcbnew,10.0.3*
G04 #@! TF.CreationDate,2026-07-16T12:13:44-04:00*
G04 #@! TF.ProjectId,SEEEDXIAOESP32C6_Neopixel,53454545-4458-4494-914f-455350333243,rev?*
G04 #@! TF.SameCoordinates,Original*
G04 #@! TF.FileFunction,Copper,L2,Bot*
G04 #@! TF.FilePolarity,Positive*
%FSLAX46Y46*%
G04 Gerber Fmt 4.6, Leading zero omitted, Abs format (unit mm)*
G04 Created by KiCad (PCBNEW 10.0.3) date 2026-07-16 12:13:44*
%MOMM*%
%LPD*%
G01*
G04 APERTURE LIST*
G04 #@! TA.AperFunction,ComponentPad*
%ADD10R,1.700000X1.700000*%
G04 #@! TD*
G04 #@! TA.AperFunction,ComponentPad*
%ADD11C,1.700000*%
G04 #@! TD*
G04 #@! TA.AperFunction,ViaPad*
%ADD12C,0.600000*%
G04 #@! TD*
G04 APERTURE END LIST*
D10*
G04 #@! TO.P,J1,1,Pin_1_1*
G04 #@! TO.N,unconnected-(J1-Pin_1-Pad1)*
X156130000Y-85190000D03*
D11*
G04 #@! TO.P,J1,2,Pin_2_2*
G04 #@! TO.N,GND*
X156130000Y-87730000D03*
G04 #@! TO.P,J1,3,Pin_3_3*
G04 #@! TO.N,3V3*
X156130000Y-90270000D03*
G04 #@! TO.P,J1,4,Pin_4_4*
G04 #@! TO.N,unconnected-(J1-Pin_4-Pad4)*
X156130000Y-92810000D03*
G04 #@! TO.P,J1,5,Pin_5_5*
G04 #@! TO.N,unconnected-(J1-Pin_5-Pad5)*
X156130000Y-95350000D03*
G04 #@! TO.P,J1,6,Pin_6_6*
G04 #@! TO.N,unconnected-(J1-Pin_6-Pad6)*
X156130000Y-97890000D03*
G04 #@! TO.P,J1,7,Pin_7_7*
G04 #@! TO.N,unconnected-(J1-Pin_7-Pad7)*
X156130000Y-100430000D03*
G04 #@! TD*
D10*
G04 #@! TO.P,J2,1,Pin_1_1*
G04 #@! TO.N,unconnected-(J2-Pin_1-Pad1)*
X140880000Y-85200000D03*
D11*
G04 #@! TO.P,J2,2,Pin_2_2*
G04 #@! TO.N,unconnected-(J2-Pin_2-Pad2)*
X140880000Y-87740000D03*
G04 #@! TO.P,J2,3,Pin_3_3*
G04 #@! TO.N,unconnected-(J2-Pin_3-Pad3)*
X140880000Y-90280000D03*
G04 #@! TO.P,J2,4,Pin_4_4*
G04 #@! TO.N,/DIN*
X140880000Y-92820000D03*
G04 #@! TO.P,J2,5,Pin_5_5*
G04 #@! TO.N,unconnected-(J2-Pin_5-Pad5)*
X140880000Y-95360000D03*
G04 #@! TO.P,J2,6,Pin_6_6*
G04 #@! TO.N,unconnected-(J2-Pin_6-Pad6)*
X140880000Y-97900000D03*
G04 #@! TO.P,J2,7,Pin_7_7*
G04 #@! TO.N,unconnected-(J2-Pin_7-Pad7)*
X140880000Y-100440000D03*
G04 #@! TD*
D12*
G04 #@! TO.N,GND*
X132450000Y-95900000D03*
X131550000Y-98925000D03*
X132450000Y-104750000D03*
X131562500Y-90000000D03*
G04 #@! TD*
G04 #@! TA.AperFunction,Conductor*
G04 #@! TO.N,GND*
G36*
X157504418Y-81000816D02*
G01*
X157704561Y-81015130D01*
X157722063Y-81017647D01*
X157913795Y-81059355D01*
X157930760Y-81064336D01*
X158114611Y-81132909D01*
X158130694Y-81140253D01*
X158247495Y-81204032D01*
X158302908Y-81234290D01*
X158317791Y-81243855D01*
X158474864Y-81361438D01*
X158488235Y-81373024D01*
X158626975Y-81511764D01*
X158638561Y-81525135D01*
X158756144Y-81682208D01*
X158765709Y-81697091D01*
X158859743Y-81869300D01*
X158867093Y-81885394D01*
X158935661Y-82069234D01*
X158940645Y-82086209D01*
X158982351Y-82277931D01*
X158984869Y-82295442D01*
X158999184Y-82495580D01*
X158999500Y-82504427D01*
X158999500Y-104895572D01*
X158999184Y-104904419D01*
X158984869Y-105104557D01*
X158982351Y-105122068D01*
X158940645Y-105313790D01*
X158935661Y-105330765D01*
X158867093Y-105514605D01*
X158859743Y-105530699D01*
X158765709Y-105702908D01*
X158756144Y-105717791D01*
X158638561Y-105874864D01*
X158626975Y-105888235D01*
X158488235Y-106026975D01*
X158474864Y-106038561D01*
X158317791Y-106156144D01*
X158302908Y-106165709D01*
X158130699Y-106259743D01*
X158114605Y-106267093D01*
X157930765Y-106335661D01*
X157913790Y-106340645D01*
X157722068Y-106382351D01*
X157704557Y-106384869D01*
X157523779Y-106397799D01*
X157504417Y-106399184D01*
X157495572Y-106399500D01*
X126754428Y-106399500D01*
X126745582Y-106399184D01*
X126723622Y-106397613D01*
X126545442Y-106384869D01*
X126527931Y-106382351D01*
X126336209Y-106340645D01*
X126319234Y-106335661D01*
X126135394Y-106267093D01*
X126119300Y-106259743D01*
X125947091Y-106165709D01*
X125932208Y-106156144D01*
X125775135Y-106038561D01*
X125761764Y-106026975D01*
X125623024Y-105888235D01*
X125611438Y-105874864D01*
X125493855Y-105717791D01*
X125484290Y-105702908D01*
X125390256Y-105530699D01*
X125382909Y-105514611D01*
X125314336Y-105330760D01*
X125309354Y-105313790D01*
X125267648Y-105122068D01*
X125265130Y-105104556D01*
X125250816Y-104904418D01*
X125250500Y-104895572D01*
X125250500Y-84302135D01*
X139529500Y-84302135D01*
X139529500Y-86097870D01*
X139529501Y-86097876D01*
X139535908Y-86157483D01*
X139586202Y-86292328D01*
X139586206Y-86292335D01*
X139672452Y-86407544D01*
X139672455Y-86407547D01*
X139787664Y-86493793D01*
X139787671Y-86493797D01*
X139919082Y-86542810D01*
X139975016Y-86584681D01*
X139999433Y-86650145D01*
X139984582Y-86718418D01*
X139963431Y-86746673D01*
X139849889Y-86860215D01*
X139724951Y-87032179D01*
X139628444Y-87221585D01*
X139562753Y-87423760D01*
X139529500Y-87633713D01*
X139529500Y-87846286D01*
X139561151Y-88046127D01*
X139562754Y-88056243D01*
X139625130Y-88248217D01*
X139628444Y-88258414D01*
X139724951Y-88447820D01*
X139849890Y-88619786D01*
X140000213Y-88770109D01*
X140172182Y-88895050D01*
X140180946Y-88899516D01*
X140231742Y-88947491D01*
X140248536Y-89015312D01*
X140225998Y-89081447D01*
X140180946Y-89120484D01*
X140172182Y-89124949D01*
X140000213Y-89249890D01*
X139849890Y-89400213D01*
X139724951Y-89572179D01*
X139628444Y-89761585D01*
X139562753Y-89963760D01*
X139529500Y-90173713D01*
X139529500Y-90386286D01*
X139561169Y-90586239D01*
X139562754Y-90596243D01*
X139625194Y-90788414D01*
X139628444Y-90798414D01*
X139724951Y-90987820D01*
X139849890Y-91159786D01*
X140000213Y-91310109D01*
X140172182Y-91435050D01*
X140180946Y-91439516D01*
X140231742Y-91487491D01*
X140248536Y-91555312D01*
X140225998Y-91621447D01*
X140180946Y-91660484D01*
X140172182Y-91664949D01*
X140000213Y-91789890D01*
X139849890Y-91940213D01*
X139724951Y-92112179D01*
X139628444Y-92301585D01*
X139562753Y-92503760D01*
X139529500Y-92713713D01*
X139529500Y-92926286D01*
X139561169Y-93126239D01*
X139562754Y-93136243D01*
X139625194Y-93328414D01*
X139628444Y-93338414D01*
X139724951Y-93527820D01*
X139849890Y-93699786D01*
X140000213Y-93850109D01*
X140172182Y-93975050D01*
X140180946Y-93979516D01*
X140231742Y-94027491D01*
X140248536Y-94095312D01*
X140225998Y-94161447D01*
X140180946Y-94200484D01*
X140172182Y-94204949D01*
X140000213Y-94329890D01*
X139849890Y-94480213D01*
X139724951Y-94652179D01*
X139628444Y-94841585D01*
X139562753Y-95043760D01*
X139529500Y-95253713D01*
X139529500Y-95466286D01*
X139561169Y-95666239D01*
X139562754Y-95676243D01*
X139625194Y-95868414D01*
X139628444Y-95878414D01*
X139724951Y-96067820D01*
X139849890Y-96239786D01*
X140000213Y-96390109D01*
X140172182Y-96515050D01*
X140180946Y-96519516D01*
X140231742Y-96567491D01*
X140248536Y-96635312D01*
X140225998Y-96701447D01*
X140180946Y-96740484D01*
X140172182Y-96744949D01*
X140000213Y-96869890D01*
X139849890Y-97020213D01*
X139724951Y-97192179D01*
X139628444Y-97381585D01*
X139562753Y-97583760D01*
X139529500Y-97793713D01*
X139529500Y-98006286D01*
X139561169Y-98206239D01*
X139562754Y-98216243D01*
X139625194Y-98408414D01*
X139628444Y-98418414D01*
X139724951Y-98607820D01*
X139849890Y-98779786D01*
X140000213Y-98930109D01*
X140172182Y-99055050D01*
X140180946Y-99059516D01*
X140231742Y-99107491D01*
X140248536Y-99175312D01*
X140225998Y-99241447D01*
X140180946Y-99280484D01*
X140172182Y-99284949D01*
X140000213Y-99409890D01*
X139849890Y-99560213D01*
X139724951Y-99732179D01*
X139628444Y-99921585D01*
X139562753Y-100123760D01*
X139529500Y-100333713D01*
X139529500Y-100546286D01*
X139561169Y-100746239D01*
X139562754Y-100756243D01*
X139625194Y-100948414D01*
X139628444Y-100958414D01*
X139724951Y-101147820D01*
X139849890Y-101319786D01*
X140000213Y-101470109D01*
X140172179Y-101595048D01*
X140172181Y-101595049D01*
X140172184Y-101595051D01*
X140361588Y-101691557D01*
X140563757Y-101757246D01*
X140773713Y-101790500D01*
X140773714Y-101790500D01*
X140986286Y-101790500D01*
X140986287Y-101790500D01*
X141196243Y-101757246D01*
X141398412Y-101691557D01*
X141587816Y-101595051D01*
X141609789Y-101579086D01*
X141759786Y-101470109D01*
X141759788Y-101470106D01*
X141759792Y-101470104D01*
X141910104Y-101319792D01*
X141910106Y-101319788D01*
X141910109Y-101319786D01*
X142035048Y-101147820D01*
X142035047Y-101147820D01*
X142035051Y-101147816D01*
X142131557Y-100958412D01*
X142197246Y-100756243D01*
X142230500Y-100546287D01*
X142230500Y-100333713D01*
X142197246Y-100123757D01*
X142131557Y-99921588D01*
X142035051Y-99732184D01*
X142035049Y-99732181D01*
X142035048Y-99732179D01*
X141910109Y-99560213D01*
X141759786Y-99409890D01*
X141587820Y-99284951D01*
X141587115Y-99284591D01*
X141579054Y-99280485D01*
X141528259Y-99232512D01*
X141511463Y-99164692D01*
X141533999Y-99098556D01*
X141579054Y-99059515D01*
X141587816Y-99055051D01*
X141609789Y-99039086D01*
X141759786Y-98930109D01*
X141759788Y-98930106D01*
X141759792Y-98930104D01*
X141910104Y-98779792D01*
X141910106Y-98779788D01*
X141910109Y-98779786D01*
X142035048Y-98607820D01*
X142035047Y-98607820D01*
X142035051Y-98607816D01*
X142131557Y-98418412D01*
X142197246Y-98216243D01*
X142230500Y-98006287D01*
X142230500Y-97793713D01*
X142197246Y-97583757D01*
X142131557Y-97381588D01*
X142035051Y-97192184D01*
X142035049Y-97192181D01*
X142035048Y-97192179D01*
X141910109Y-97020213D01*
X141759786Y-96869890D01*
X141587820Y-96744951D01*
X141587115Y-96744591D01*
X141579054Y-96740485D01*
X141528259Y-96692512D01*
X141511463Y-96624692D01*
X141533999Y-96558556D01*
X141579054Y-96519515D01*
X141587816Y-96515051D01*
X141609789Y-96499086D01*
X141759786Y-96390109D01*
X141759788Y-96390106D01*
X141759792Y-96390104D01*
X141910104Y-96239792D01*
X141910106Y-96239788D01*
X141910109Y-96239786D01*
X142035048Y-96067820D01*
X142035047Y-96067820D01*
X142035051Y-96067816D01*
X142131557Y-95878412D01*
X142197246Y-95676243D01*
X142230500Y-95466287D01*
X142230500Y-95253713D01*
X142197246Y-95043757D01*
X142131557Y-94841588D01*
X142035051Y-94652184D01*
X142035049Y-94652181D01*
X142035048Y-94652179D01*
X141910109Y-94480213D01*
X141759786Y-94329890D01*
X141587820Y-94204951D01*
X141587115Y-94204591D01*
X141579054Y-94200485D01*
X141528259Y-94152512D01*
X141511463Y-94084692D01*
X141533999Y-94018556D01*
X141579054Y-93979515D01*
X141587816Y-93975051D01*
X141609789Y-93959086D01*
X141759786Y-93850109D01*
X141759788Y-93850106D01*
X141759792Y-93850104D01*
X141910104Y-93699792D01*
X141910106Y-93699788D01*
X141910109Y-93699786D01*
X142035048Y-93527820D01*
X142035047Y-93527820D01*
X142035051Y-93527816D01*
X142131557Y-93338412D01*
X142197246Y-93136243D01*
X142230500Y-92926287D01*
X142230500Y-92713713D01*
X142197246Y-92503757D01*
X142131557Y-92301588D01*
X142035051Y-92112184D01*
X142035049Y-92112181D01*
X142035048Y-92112179D01*
X141910109Y-91940213D01*
X141759786Y-91789890D01*
X141587820Y-91664951D01*
X141587115Y-91664591D01*
X141579054Y-91660485D01*
X141528259Y-91612512D01*
X141511463Y-91544692D01*
X141533999Y-91478556D01*
X141579054Y-91439515D01*
X141587816Y-91435051D01*
X141609789Y-91419086D01*
X141759786Y-91310109D01*
X141759788Y-91310106D01*
X141759792Y-91310104D01*
X141910104Y-91159792D01*
X141910106Y-91159788D01*
X141910109Y-91159786D01*
X142035048Y-90987820D01*
X142035047Y-90987820D01*
X142035051Y-90987816D01*
X142131557Y-90798412D01*
X142197246Y-90596243D01*
X142230500Y-90386287D01*
X142230500Y-90173713D01*
X142197246Y-89963757D01*
X142131557Y-89761588D01*
X142035051Y-89572184D01*
X142035049Y-89572181D01*
X142035048Y-89572179D01*
X141910109Y-89400213D01*
X141759786Y-89249890D01*
X141587820Y-89124951D01*
X141587115Y-89124591D01*
X141579054Y-89120485D01*
X141528259Y-89072512D01*
X141511463Y-89004692D01*
X141533999Y-88938556D01*
X141579054Y-88899515D01*
X141587816Y-88895051D01*
X141656336Y-88845269D01*
X141759786Y-88770109D01*
X141759788Y-88770106D01*
X141759792Y-88770104D01*
X141910104Y-88619792D01*
X141910106Y-88619788D01*
X141910109Y-88619786D01*
X142035048Y-88447820D01*
X142035047Y-88447820D01*
X142035051Y-88447816D01*
X142131557Y-88258412D01*
X142197246Y-88056243D01*
X142230500Y-87846287D01*
X142230500Y-87633713D01*
X142197246Y-87423757D01*
X142131557Y-87221588D01*
X142035051Y-87032184D01*
X142035049Y-87032181D01*
X142035048Y-87032179D01*
X141910109Y-86860213D01*
X141796569Y-86746673D01*
X141763084Y-86685350D01*
X141768068Y-86615658D01*
X141809940Y-86559725D01*
X141840915Y-86542810D01*
X141972331Y-86493796D01*
X142087546Y-86407546D01*
X142173796Y-86292331D01*
X142224091Y-86157483D01*
X142230500Y-86097873D01*
X142230499Y-84302128D01*
X142229424Y-84292135D01*
X154779500Y-84292135D01*
X154779500Y-86087870D01*
X154779501Y-86087876D01*
X154785908Y-86147483D01*
X154836202Y-86282328D01*
X154836206Y-86282335D01*
X154922452Y-86397544D01*
X154922455Y-86397547D01*
X155037664Y-86483793D01*
X155037671Y-86483797D01*
X155064472Y-86493793D01*
X155172517Y-86534091D01*
X155232127Y-86540500D01*
X155242685Y-86540499D01*
X155309723Y-86560179D01*
X155330372Y-86576818D01*
X156000591Y-87247037D01*
X155937007Y-87264075D01*
X155822993Y-87329901D01*
X155729901Y-87422993D01*
X155664075Y-87537007D01*
X155647037Y-87600591D01*
X155014728Y-86968282D01*
X155014727Y-86968282D01*
X154975380Y-87022439D01*
X154878904Y-87211782D01*
X154813242Y-87413869D01*
X154813242Y-87413872D01*
X154780000Y-87623753D01*
X154780000Y-87836246D01*
X154813242Y-88046127D01*
X154813242Y-88046130D01*
X154878904Y-88248217D01*
X154975375Y-88437550D01*
X155014728Y-88491716D01*
X155647037Y-87859408D01*
X155664075Y-87922993D01*
X155729901Y-88037007D01*
X155822993Y-88130099D01*
X155937007Y-88195925D01*
X156000590Y-88212962D01*
X155368282Y-88845269D01*
X155368282Y-88845270D01*
X155422452Y-88884626D01*
X155422451Y-88884626D01*
X155431495Y-88889234D01*
X155482292Y-88937208D01*
X155499087Y-89005029D01*
X155476550Y-89071164D01*
X155431499Y-89110202D01*
X155422182Y-89114949D01*
X155250213Y-89239890D01*
X155099890Y-89390213D01*
X154974951Y-89562179D01*
X154878444Y-89751585D01*
X154812753Y-89953760D01*
X154779500Y-90163713D01*
X154779500Y-90376287D01*
X154812754Y-90586243D01*
X154816003Y-90596243D01*
X154878444Y-90788414D01*
X154974951Y-90977820D01*
X155099890Y-91149786D01*
X155250213Y-91300109D01*
X155422182Y-91425050D01*
X155430946Y-91429516D01*
X155481742Y-91477491D01*
X155498536Y-91545312D01*
X155475998Y-91611447D01*
X155430946Y-91650484D01*
X155422182Y-91654949D01*
X155250213Y-91779890D01*
X155099890Y-91930213D01*
X154974951Y-92102179D01*
X154878444Y-92291585D01*
X154812753Y-92493760D01*
X154779500Y-92703713D01*
X154779500Y-92916287D01*
X154812754Y-93126243D01*
X154816003Y-93136243D01*
X154878444Y-93328414D01*
X154974951Y-93517820D01*
X155099890Y-93689786D01*
X155250213Y-93840109D01*
X155422182Y-93965050D01*
X155430946Y-93969516D01*
X155481742Y-94017491D01*
X155498536Y-94085312D01*
X155475998Y-94151447D01*
X155430946Y-94190484D01*
X155422182Y-94194949D01*
X155250213Y-94319890D01*
X155099890Y-94470213D01*
X154974951Y-94642179D01*
X154878444Y-94831585D01*
X154812753Y-95033760D01*
X154779500Y-95243713D01*
X154779500Y-95456287D01*
X154812754Y-95666243D01*
X154816003Y-95676243D01*
X154878444Y-95868414D01*
X154974951Y-96057820D01*
X155099890Y-96229786D01*
X155250213Y-96380109D01*
X155422182Y-96505050D01*
X155430946Y-96509516D01*
X155481742Y-96557491D01*
X155498536Y-96625312D01*
X155475998Y-96691447D01*
X155430946Y-96730484D01*
X155422182Y-96734949D01*
X155250213Y-96859890D01*
X155099890Y-97010213D01*
X154974951Y-97182179D01*
X154878444Y-97371585D01*
X154812753Y-97573760D01*
X154779500Y-97783713D01*
X154779500Y-97996287D01*
X154812754Y-98206243D01*
X154816003Y-98216243D01*
X154878444Y-98408414D01*
X154974951Y-98597820D01*
X155099890Y-98769786D01*
X155250213Y-98920109D01*
X155422182Y-99045050D01*
X155430946Y-99049516D01*
X155481742Y-99097491D01*
X155498536Y-99165312D01*
X155475998Y-99231447D01*
X155430946Y-99270484D01*
X155422182Y-99274949D01*
X155250213Y-99399890D01*
X155099890Y-99550213D01*
X154974951Y-99722179D01*
X154878444Y-99911585D01*
X154812753Y-100113760D01*
X154779500Y-100323713D01*
X154779500Y-100536287D01*
X154812754Y-100746243D01*
X154816003Y-100756243D01*
X154878444Y-100948414D01*
X154974951Y-101137820D01*
X155099890Y-101309786D01*
X155250213Y-101460109D01*
X155422179Y-101585048D01*
X155422181Y-101585049D01*
X155422184Y-101585051D01*
X155611588Y-101681557D01*
X155813757Y-101747246D01*
X156023713Y-101780500D01*
X156023714Y-101780500D01*
X156236286Y-101780500D01*
X156236287Y-101780500D01*
X156446243Y-101747246D01*
X156648412Y-101681557D01*
X156837816Y-101585051D01*
X156859789Y-101569086D01*
X157009786Y-101460109D01*
X157009788Y-101460106D01*
X157009792Y-101460104D01*
X157160104Y-101309792D01*
X157160106Y-101309788D01*
X157160109Y-101309786D01*
X157285048Y-101137820D01*
X157285047Y-101137820D01*
X157285051Y-101137816D01*
X157381557Y-100948412D01*
X157447246Y-100746243D01*
X157480500Y-100536287D01*
X157480500Y-100323713D01*
X157447246Y-100113757D01*
X157381557Y-99911588D01*
X157285051Y-99722184D01*
X157285049Y-99722181D01*
X157285048Y-99722179D01*
X157160109Y-99550213D01*
X157009786Y-99399890D01*
X156837820Y-99274951D01*
X156837115Y-99274591D01*
X156829054Y-99270485D01*
X156778259Y-99222512D01*
X156761463Y-99154692D01*
X156783999Y-99088556D01*
X156829054Y-99049515D01*
X156837816Y-99045051D01*
X156859789Y-99029086D01*
X157009786Y-98920109D01*
X157009788Y-98920106D01*
X157009792Y-98920104D01*
X157160104Y-98769792D01*
X157160106Y-98769788D01*
X157160109Y-98769786D01*
X157285048Y-98597820D01*
X157285047Y-98597820D01*
X157285051Y-98597816D01*
X157381557Y-98408412D01*
X157447246Y-98206243D01*
X157480500Y-97996287D01*
X157480500Y-97783713D01*
X157447246Y-97573757D01*
X157381557Y-97371588D01*
X157285051Y-97182184D01*
X157285049Y-97182181D01*
X157285048Y-97182179D01*
X157160109Y-97010213D01*
X157009786Y-96859890D01*
X156837820Y-96734951D01*
X156837115Y-96734591D01*
X156829054Y-96730485D01*
X156778259Y-96682512D01*
X156761463Y-96614692D01*
X156783999Y-96548556D01*
X156829054Y-96509515D01*
X156837816Y-96505051D01*
X156859789Y-96489086D01*
X157009786Y-96380109D01*
X157009788Y-96380106D01*
X157009792Y-96380104D01*
X157160104Y-96229792D01*
X157160106Y-96229788D01*
X157160109Y-96229786D01*
X157285048Y-96057820D01*
X157285047Y-96057820D01*
X157285051Y-96057816D01*
X157381557Y-95868412D01*
X157447246Y-95666243D01*
X157480500Y-95456287D01*
X157480500Y-95243713D01*
X157447246Y-95033757D01*
X157381557Y-94831588D01*
X157285051Y-94642184D01*
X157285049Y-94642181D01*
X157285048Y-94642179D01*
X157160109Y-94470213D01*
X157009786Y-94319890D01*
X156837820Y-94194951D01*
X156837115Y-94194591D01*
X156829054Y-94190485D01*
X156778259Y-94142512D01*
X156761463Y-94074692D01*
X156783999Y-94008556D01*
X156829054Y-93969515D01*
X156837816Y-93965051D01*
X156859789Y-93949086D01*
X157009786Y-93840109D01*
X157009788Y-93840106D01*
X157009792Y-93840104D01*
X157160104Y-93689792D01*
X157160106Y-93689788D01*
X157160109Y-93689786D01*
X157285048Y-93517820D01*
X157285047Y-93517820D01*
X157285051Y-93517816D01*
X157381557Y-93328412D01*
X157447246Y-93126243D01*
X157480500Y-92916287D01*
X157480500Y-92703713D01*
X157447246Y-92493757D01*
X157381557Y-92291588D01*
X157285051Y-92102184D01*
X157285049Y-92102181D01*
X157285048Y-92102179D01*
X157160109Y-91930213D01*
X157009786Y-91779890D01*
X156837820Y-91654951D01*
X156837115Y-91654591D01*
X156829054Y-91650485D01*
X156778259Y-91602512D01*
X156761463Y-91534692D01*
X156783999Y-91468556D01*
X156829054Y-91429515D01*
X156837816Y-91425051D01*
X156859789Y-91409086D01*
X157009786Y-91300109D01*
X157009788Y-91300106D01*
X157009792Y-91300104D01*
X157160104Y-91149792D01*
X157160106Y-91149788D01*
X157160109Y-91149786D01*
X157285048Y-90977820D01*
X157285047Y-90977820D01*
X157285051Y-90977816D01*
X157381557Y-90788412D01*
X157447246Y-90586243D01*
X157480500Y-90376287D01*
X157480500Y-90163713D01*
X157447246Y-89953757D01*
X157381557Y-89751588D01*
X157285051Y-89562184D01*
X157285049Y-89562181D01*
X157285048Y-89562179D01*
X157160109Y-89390213D01*
X157009786Y-89239890D01*
X156837817Y-89114949D01*
X156828504Y-89110204D01*
X156777707Y-89062230D01*
X156760912Y-88994409D01*
X156783449Y-88928274D01*
X156828507Y-88889232D01*
X156837555Y-88884622D01*
X156891716Y-88845270D01*
X156891717Y-88845270D01*
X156259408Y-88212962D01*
X156322993Y-88195925D01*
X156437007Y-88130099D01*
X156530099Y-88037007D01*
X156595925Y-87922993D01*
X156612962Y-87859409D01*
X157245270Y-88491717D01*
X157245270Y-88491716D01*
X157284622Y-88437554D01*
X157381095Y-88248217D01*
X157446757Y-88046130D01*
X157446757Y-88046127D01*
X157480000Y-87836246D01*
X157480000Y-87623753D01*
X157446757Y-87413872D01*
X157446757Y-87413869D01*
X157381095Y-87211782D01*
X157284624Y-87022449D01*
X157245270Y-86968282D01*
X157245269Y-86968282D01*
X156612962Y-87600590D01*
X156595925Y-87537007D01*
X156530099Y-87422993D01*
X156437007Y-87329901D01*
X156322993Y-87264075D01*
X156259409Y-87247037D01*
X156929627Y-86576818D01*
X156990950Y-86543333D01*
X157017307Y-86540499D01*
X157027872Y-86540499D01*
X157087483Y-86534091D01*
X157222331Y-86483796D01*
X157337546Y-86397546D01*
X157423796Y-86282331D01*
X157474091Y-86147483D01*
X157480500Y-86087873D01*
X157480499Y-84292128D01*
X157474091Y-84232517D01*
X157423796Y-84097669D01*
X157423795Y-84097668D01*
X157423793Y-84097664D01*
X157337547Y-83982455D01*
X157337544Y-83982452D01*
X157222335Y-83896206D01*
X157222328Y-83896202D01*
X157087482Y-83845908D01*
X157087483Y-83845908D01*
X157027883Y-83839501D01*
X157027881Y-83839500D01*
X157027873Y-83839500D01*
X157027864Y-83839500D01*
X155232129Y-83839500D01*
X155232123Y-83839501D01*
X155172516Y-83845908D01*
X155037671Y-83896202D01*
X155037664Y-83896206D01*
X154922455Y-83982452D01*
X154922452Y-83982455D01*
X154836206Y-84097664D01*
X154836202Y-84097671D01*
X154785908Y-84232517D01*
X154779501Y-84292116D01*
X154779501Y-84292123D01*
X154779500Y-84292135D01*
X142229424Y-84292135D01*
X142229423Y-84292123D01*
X142228562Y-84284116D01*
X142224091Y-84242517D01*
X142173796Y-84107669D01*
X142173795Y-84107668D01*
X142173793Y-84107664D01*
X142087547Y-83992455D01*
X142087544Y-83992452D01*
X141972335Y-83906206D01*
X141972328Y-83906202D01*
X141837482Y-83855908D01*
X141837483Y-83855908D01*
X141777883Y-83849501D01*
X141777881Y-83849500D01*
X141777873Y-83849500D01*
X141777864Y-83849500D01*
X139982129Y-83849500D01*
X139982123Y-83849501D01*
X139922516Y-83855908D01*
X139787671Y-83906202D01*
X139787664Y-83906206D01*
X139672455Y-83992452D01*
X139672452Y-83992455D01*
X139586206Y-84107664D01*
X139586202Y-84107671D01*
X139535908Y-84242517D01*
X139529501Y-84302116D01*
X139529500Y-84302135D01*
X125250500Y-84302135D01*
X125250500Y-82504427D01*
X125250816Y-82495581D01*
X125265130Y-82295443D01*
X125265131Y-82295434D01*
X125267646Y-82277938D01*
X125309356Y-82086200D01*
X125314335Y-82069242D01*
X125382911Y-81885382D01*
X125390251Y-81869310D01*
X125484294Y-81697083D01*
X125493850Y-81682214D01*
X125611443Y-81525128D01*
X125623017Y-81511771D01*
X125761771Y-81373017D01*
X125775128Y-81361443D01*
X125932214Y-81243850D01*
X125947083Y-81234294D01*
X126119310Y-81140251D01*
X126135382Y-81132911D01*
X126319242Y-81064335D01*
X126336200Y-81059356D01*
X126527938Y-81017646D01*
X126545436Y-81015130D01*
X126745582Y-81000816D01*
X126754428Y-81000500D01*
X126815892Y-81000500D01*
X157434108Y-81000500D01*
X157495572Y-81000500D01*
X157504418Y-81000816D01*
G37*
G04 #@! TD.AperFunction*
G04 #@! TD*
M02*
