G04 #@! TF.GenerationSoftware,KiCad,Pcbnew,10.0.3*
G04 #@! TF.CreationDate,2026-07-17T14:39:29-04:00*
G04 #@! TF.ProjectId,ServoTesterBoard,53657276-6f54-4657-9374-6572426f6172,rev?*
G04 #@! TF.SameCoordinates,Original*
G04 #@! TF.FileFunction,Legend,Top*
G04 #@! TF.FilePolarity,Positive*
%FSLAX46Y46*%
G04 Gerber Fmt 4.6, Leading zero omitted, Abs format (unit mm)*
G04 Created by KiCad (PCBNEW 10.0.3) date 2026-07-17 14:39:29*
%MOMM*%
%LPD*%
G01*
G04 APERTURE LIST*
%ADD10C,0.100000*%
%ADD11C,0.250000*%
%ADD12C,0.350000*%
%ADD13C,0.150000*%
%ADD14C,0.000000*%
%ADD15C,0.120000*%
%ADD16C,0.152400*%
G04 APERTURE END LIST*
D10*
X152884911Y-63661099D02*
X163615089Y-63661099D01*
X163615089Y-87068200D01*
X152884911Y-87068200D01*
X152884911Y-63661099D01*
D11*
X148757330Y-65792142D02*
X148985901Y-65792142D01*
X148985901Y-65792142D02*
X149100187Y-65735000D01*
X149100187Y-65735000D02*
X149157330Y-65677857D01*
X149157330Y-65677857D02*
X149271615Y-65506428D01*
X149271615Y-65506428D02*
X149328758Y-65277857D01*
X149328758Y-65277857D02*
X149328758Y-64820714D01*
X149328758Y-64820714D02*
X149271615Y-64706428D01*
X149271615Y-64706428D02*
X149214473Y-64649285D01*
X149214473Y-64649285D02*
X149100187Y-64592142D01*
X149100187Y-64592142D02*
X148871615Y-64592142D01*
X148871615Y-64592142D02*
X148757330Y-64649285D01*
X148757330Y-64649285D02*
X148700187Y-64706428D01*
X148700187Y-64706428D02*
X148643044Y-64820714D01*
X148643044Y-64820714D02*
X148643044Y-65106428D01*
X148643044Y-65106428D02*
X148700187Y-65220714D01*
X148700187Y-65220714D02*
X148757330Y-65277857D01*
X148757330Y-65277857D02*
X148871615Y-65335000D01*
X148871615Y-65335000D02*
X149100187Y-65335000D01*
X149100187Y-65335000D02*
X149214473Y-65277857D01*
X149214473Y-65277857D02*
X149271615Y-65220714D01*
X149271615Y-65220714D02*
X149328758Y-65106428D01*
X149671615Y-64592142D02*
X150071615Y-65792142D01*
X150071615Y-65792142D02*
X150471615Y-64592142D01*
X151100186Y-64592142D02*
X151214472Y-64592142D01*
X151214472Y-64592142D02*
X151328758Y-64649285D01*
X151328758Y-64649285D02*
X151385901Y-64706428D01*
X151385901Y-64706428D02*
X151443043Y-64820714D01*
X151443043Y-64820714D02*
X151500186Y-65049285D01*
X151500186Y-65049285D02*
X151500186Y-65335000D01*
X151500186Y-65335000D02*
X151443043Y-65563571D01*
X151443043Y-65563571D02*
X151385901Y-65677857D01*
X151385901Y-65677857D02*
X151328758Y-65735000D01*
X151328758Y-65735000D02*
X151214472Y-65792142D01*
X151214472Y-65792142D02*
X151100186Y-65792142D01*
X151100186Y-65792142D02*
X150985901Y-65735000D01*
X150985901Y-65735000D02*
X150928758Y-65677857D01*
X150928758Y-65677857D02*
X150871615Y-65563571D01*
X150871615Y-65563571D02*
X150814472Y-65335000D01*
X150814472Y-65335000D02*
X150814472Y-65049285D01*
X150814472Y-65049285D02*
X150871615Y-64820714D01*
X150871615Y-64820714D02*
X150928758Y-64706428D01*
X150928758Y-64706428D02*
X150985901Y-64649285D01*
X150985901Y-64649285D02*
X151100186Y-64592142D01*
X149328758Y-67149285D02*
X149214473Y-67092142D01*
X149214473Y-67092142D02*
X149043044Y-67092142D01*
X149043044Y-67092142D02*
X148871615Y-67149285D01*
X148871615Y-67149285D02*
X148757330Y-67263571D01*
X148757330Y-67263571D02*
X148700187Y-67377857D01*
X148700187Y-67377857D02*
X148643044Y-67606428D01*
X148643044Y-67606428D02*
X148643044Y-67777857D01*
X148643044Y-67777857D02*
X148700187Y-68006428D01*
X148700187Y-68006428D02*
X148757330Y-68120714D01*
X148757330Y-68120714D02*
X148871615Y-68235000D01*
X148871615Y-68235000D02*
X149043044Y-68292142D01*
X149043044Y-68292142D02*
X149157330Y-68292142D01*
X149157330Y-68292142D02*
X149328758Y-68235000D01*
X149328758Y-68235000D02*
X149385901Y-68177857D01*
X149385901Y-68177857D02*
X149385901Y-67777857D01*
X149385901Y-67777857D02*
X149157330Y-67777857D01*
X149900187Y-68292142D02*
X149900187Y-67092142D01*
X149900187Y-67092142D02*
X150585901Y-68292142D01*
X150585901Y-68292142D02*
X150585901Y-67092142D01*
X151157330Y-68292142D02*
X151157330Y-67092142D01*
X151157330Y-67092142D02*
X151443044Y-67092142D01*
X151443044Y-67092142D02*
X151614473Y-67149285D01*
X151614473Y-67149285D02*
X151728758Y-67263571D01*
X151728758Y-67263571D02*
X151785901Y-67377857D01*
X151785901Y-67377857D02*
X151843044Y-67606428D01*
X151843044Y-67606428D02*
X151843044Y-67777857D01*
X151843044Y-67777857D02*
X151785901Y-68006428D01*
X151785901Y-68006428D02*
X151728758Y-68120714D01*
X151728758Y-68120714D02*
X151614473Y-68235000D01*
X151614473Y-68235000D02*
X151443044Y-68292142D01*
X151443044Y-68292142D02*
X151157330Y-68292142D01*
X193350187Y-80163571D02*
X192950187Y-80163571D01*
X192950187Y-80792142D02*
X192950187Y-79592142D01*
X192950187Y-79592142D02*
X193521615Y-79592142D01*
X194207329Y-79592142D02*
X194435901Y-79592142D01*
X194435901Y-79592142D02*
X194550186Y-79649285D01*
X194550186Y-79649285D02*
X194664472Y-79763571D01*
X194664472Y-79763571D02*
X194721615Y-79992142D01*
X194721615Y-79992142D02*
X194721615Y-80392142D01*
X194721615Y-80392142D02*
X194664472Y-80620714D01*
X194664472Y-80620714D02*
X194550186Y-80735000D01*
X194550186Y-80735000D02*
X194435901Y-80792142D01*
X194435901Y-80792142D02*
X194207329Y-80792142D01*
X194207329Y-80792142D02*
X194093044Y-80735000D01*
X194093044Y-80735000D02*
X193978758Y-80620714D01*
X193978758Y-80620714D02*
X193921615Y-80392142D01*
X193921615Y-80392142D02*
X193921615Y-79992142D01*
X193921615Y-79992142D02*
X193978758Y-79763571D01*
X193978758Y-79763571D02*
X194093044Y-79649285D01*
X194093044Y-79649285D02*
X194207329Y-79592142D01*
X195921615Y-80792142D02*
X195521615Y-80220714D01*
X195235901Y-80792142D02*
X195235901Y-79592142D01*
X195235901Y-79592142D02*
X195693044Y-79592142D01*
X195693044Y-79592142D02*
X195807329Y-79649285D01*
X195807329Y-79649285D02*
X195864472Y-79706428D01*
X195864472Y-79706428D02*
X195921615Y-79820714D01*
X195921615Y-79820714D02*
X195921615Y-79992142D01*
X195921615Y-79992142D02*
X195864472Y-80106428D01*
X195864472Y-80106428D02*
X195807329Y-80163571D01*
X195807329Y-80163571D02*
X195693044Y-80220714D01*
X195693044Y-80220714D02*
X195235901Y-80220714D01*
X196321615Y-79592142D02*
X196607329Y-80792142D01*
X196607329Y-80792142D02*
X196835901Y-79935000D01*
X196835901Y-79935000D02*
X197064472Y-80792142D01*
X197064472Y-80792142D02*
X197350187Y-79592142D01*
X197750187Y-80449285D02*
X198321616Y-80449285D01*
X197635901Y-80792142D02*
X198035901Y-79592142D01*
X198035901Y-79592142D02*
X198435901Y-80792142D01*
X199521615Y-80792142D02*
X199121615Y-80220714D01*
X198835901Y-80792142D02*
X198835901Y-79592142D01*
X198835901Y-79592142D02*
X199293044Y-79592142D01*
X199293044Y-79592142D02*
X199407329Y-79649285D01*
X199407329Y-79649285D02*
X199464472Y-79706428D01*
X199464472Y-79706428D02*
X199521615Y-79820714D01*
X199521615Y-79820714D02*
X199521615Y-79992142D01*
X199521615Y-79992142D02*
X199464472Y-80106428D01*
X199464472Y-80106428D02*
X199407329Y-80163571D01*
X199407329Y-80163571D02*
X199293044Y-80220714D01*
X199293044Y-80220714D02*
X198835901Y-80220714D01*
X200035901Y-80792142D02*
X200035901Y-79592142D01*
X200035901Y-79592142D02*
X200321615Y-79592142D01*
X200321615Y-79592142D02*
X200493044Y-79649285D01*
X200493044Y-79649285D02*
X200607329Y-79763571D01*
X200607329Y-79763571D02*
X200664472Y-79877857D01*
X200664472Y-79877857D02*
X200721615Y-80106428D01*
X200721615Y-80106428D02*
X200721615Y-80277857D01*
X200721615Y-80277857D02*
X200664472Y-80506428D01*
X200664472Y-80506428D02*
X200607329Y-80620714D01*
X200607329Y-80620714D02*
X200493044Y-80735000D01*
X200493044Y-80735000D02*
X200321615Y-80792142D01*
X200321615Y-80792142D02*
X200035901Y-80792142D01*
X193350187Y-89163571D02*
X193521615Y-89220714D01*
X193521615Y-89220714D02*
X193578758Y-89277857D01*
X193578758Y-89277857D02*
X193635901Y-89392142D01*
X193635901Y-89392142D02*
X193635901Y-89563571D01*
X193635901Y-89563571D02*
X193578758Y-89677857D01*
X193578758Y-89677857D02*
X193521615Y-89735000D01*
X193521615Y-89735000D02*
X193407330Y-89792142D01*
X193407330Y-89792142D02*
X192950187Y-89792142D01*
X192950187Y-89792142D02*
X192950187Y-88592142D01*
X192950187Y-88592142D02*
X193350187Y-88592142D01*
X193350187Y-88592142D02*
X193464473Y-88649285D01*
X193464473Y-88649285D02*
X193521615Y-88706428D01*
X193521615Y-88706428D02*
X193578758Y-88820714D01*
X193578758Y-88820714D02*
X193578758Y-88935000D01*
X193578758Y-88935000D02*
X193521615Y-89049285D01*
X193521615Y-89049285D02*
X193464473Y-89106428D01*
X193464473Y-89106428D02*
X193350187Y-89163571D01*
X193350187Y-89163571D02*
X192950187Y-89163571D01*
X194093044Y-89449285D02*
X194664473Y-89449285D01*
X193978758Y-89792142D02*
X194378758Y-88592142D01*
X194378758Y-88592142D02*
X194778758Y-89792142D01*
X195864472Y-89677857D02*
X195807329Y-89735000D01*
X195807329Y-89735000D02*
X195635901Y-89792142D01*
X195635901Y-89792142D02*
X195521615Y-89792142D01*
X195521615Y-89792142D02*
X195350186Y-89735000D01*
X195350186Y-89735000D02*
X195235901Y-89620714D01*
X195235901Y-89620714D02*
X195178758Y-89506428D01*
X195178758Y-89506428D02*
X195121615Y-89277857D01*
X195121615Y-89277857D02*
X195121615Y-89106428D01*
X195121615Y-89106428D02*
X195178758Y-88877857D01*
X195178758Y-88877857D02*
X195235901Y-88763571D01*
X195235901Y-88763571D02*
X195350186Y-88649285D01*
X195350186Y-88649285D02*
X195521615Y-88592142D01*
X195521615Y-88592142D02*
X195635901Y-88592142D01*
X195635901Y-88592142D02*
X195807329Y-88649285D01*
X195807329Y-88649285D02*
X195864472Y-88706428D01*
X196378758Y-89792142D02*
X196378758Y-88592142D01*
X197064472Y-89792142D02*
X196550186Y-89106428D01*
X197064472Y-88592142D02*
X196378758Y-89277857D01*
X197464472Y-88592142D02*
X197750186Y-89792142D01*
X197750186Y-89792142D02*
X197978758Y-88935000D01*
X197978758Y-88935000D02*
X198207329Y-89792142D01*
X198207329Y-89792142D02*
X198493044Y-88592142D01*
X198893044Y-89449285D02*
X199464473Y-89449285D01*
X198778758Y-89792142D02*
X199178758Y-88592142D01*
X199178758Y-88592142D02*
X199578758Y-89792142D01*
X200664472Y-89792142D02*
X200264472Y-89220714D01*
X199978758Y-89792142D02*
X199978758Y-88592142D01*
X199978758Y-88592142D02*
X200435901Y-88592142D01*
X200435901Y-88592142D02*
X200550186Y-88649285D01*
X200550186Y-88649285D02*
X200607329Y-88706428D01*
X200607329Y-88706428D02*
X200664472Y-88820714D01*
X200664472Y-88820714D02*
X200664472Y-88992142D01*
X200664472Y-88992142D02*
X200607329Y-89106428D01*
X200607329Y-89106428D02*
X200550186Y-89163571D01*
X200550186Y-89163571D02*
X200435901Y-89220714D01*
X200435901Y-89220714D02*
X199978758Y-89220714D01*
X201178758Y-89792142D02*
X201178758Y-88592142D01*
X201178758Y-88592142D02*
X201464472Y-88592142D01*
X201464472Y-88592142D02*
X201635901Y-88649285D01*
X201635901Y-88649285D02*
X201750186Y-88763571D01*
X201750186Y-88763571D02*
X201807329Y-88877857D01*
X201807329Y-88877857D02*
X201864472Y-89106428D01*
X201864472Y-89106428D02*
X201864472Y-89277857D01*
X201864472Y-89277857D02*
X201807329Y-89506428D01*
X201807329Y-89506428D02*
X201750186Y-89620714D01*
X201750186Y-89620714D02*
X201635901Y-89735000D01*
X201635901Y-89735000D02*
X201464472Y-89792142D01*
X201464472Y-89792142D02*
X201178758Y-89792142D01*
X193393044Y-72485000D02*
X193564473Y-72542142D01*
X193564473Y-72542142D02*
X193850187Y-72542142D01*
X193850187Y-72542142D02*
X193964473Y-72485000D01*
X193964473Y-72485000D02*
X194021615Y-72427857D01*
X194021615Y-72427857D02*
X194078758Y-72313571D01*
X194078758Y-72313571D02*
X194078758Y-72199285D01*
X194078758Y-72199285D02*
X194021615Y-72085000D01*
X194021615Y-72085000D02*
X193964473Y-72027857D01*
X193964473Y-72027857D02*
X193850187Y-71970714D01*
X193850187Y-71970714D02*
X193621615Y-71913571D01*
X193621615Y-71913571D02*
X193507330Y-71856428D01*
X193507330Y-71856428D02*
X193450187Y-71799285D01*
X193450187Y-71799285D02*
X193393044Y-71685000D01*
X193393044Y-71685000D02*
X193393044Y-71570714D01*
X193393044Y-71570714D02*
X193450187Y-71456428D01*
X193450187Y-71456428D02*
X193507330Y-71399285D01*
X193507330Y-71399285D02*
X193621615Y-71342142D01*
X193621615Y-71342142D02*
X193907330Y-71342142D01*
X193907330Y-71342142D02*
X194078758Y-71399285D01*
X194593044Y-71913571D02*
X194993044Y-71913571D01*
X195164472Y-72542142D02*
X194593044Y-72542142D01*
X194593044Y-72542142D02*
X194593044Y-71342142D01*
X194593044Y-71342142D02*
X195164472Y-71342142D01*
X196364472Y-72542142D02*
X195964472Y-71970714D01*
X195678758Y-72542142D02*
X195678758Y-71342142D01*
X195678758Y-71342142D02*
X196135901Y-71342142D01*
X196135901Y-71342142D02*
X196250186Y-71399285D01*
X196250186Y-71399285D02*
X196307329Y-71456428D01*
X196307329Y-71456428D02*
X196364472Y-71570714D01*
X196364472Y-71570714D02*
X196364472Y-71742142D01*
X196364472Y-71742142D02*
X196307329Y-71856428D01*
X196307329Y-71856428D02*
X196250186Y-71913571D01*
X196250186Y-71913571D02*
X196135901Y-71970714D01*
X196135901Y-71970714D02*
X195678758Y-71970714D01*
X196707329Y-71342142D02*
X197107329Y-72542142D01*
X197107329Y-72542142D02*
X197507329Y-71342142D01*
X198135900Y-71342142D02*
X198364472Y-71342142D01*
X198364472Y-71342142D02*
X198478757Y-71399285D01*
X198478757Y-71399285D02*
X198593043Y-71513571D01*
X198593043Y-71513571D02*
X198650186Y-71742142D01*
X198650186Y-71742142D02*
X198650186Y-72142142D01*
X198650186Y-72142142D02*
X198593043Y-72370714D01*
X198593043Y-72370714D02*
X198478757Y-72485000D01*
X198478757Y-72485000D02*
X198364472Y-72542142D01*
X198364472Y-72542142D02*
X198135900Y-72542142D01*
X198135900Y-72542142D02*
X198021615Y-72485000D01*
X198021615Y-72485000D02*
X197907329Y-72370714D01*
X197907329Y-72370714D02*
X197850186Y-72142142D01*
X197850186Y-72142142D02*
X197850186Y-71742142D01*
X197850186Y-71742142D02*
X197907329Y-71513571D01*
X197907329Y-71513571D02*
X198021615Y-71399285D01*
X198021615Y-71399285D02*
X198135900Y-71342142D01*
X139907143Y-98044142D02*
X140135715Y-98044142D01*
X140135715Y-98044142D02*
X140250000Y-98101285D01*
X140250000Y-98101285D02*
X140364286Y-98215571D01*
X140364286Y-98215571D02*
X140421429Y-98444142D01*
X140421429Y-98444142D02*
X140421429Y-98844142D01*
X140421429Y-98844142D02*
X140364286Y-99072714D01*
X140364286Y-99072714D02*
X140250000Y-99187000D01*
X140250000Y-99187000D02*
X140135715Y-99244142D01*
X140135715Y-99244142D02*
X139907143Y-99244142D01*
X139907143Y-99244142D02*
X139792858Y-99187000D01*
X139792858Y-99187000D02*
X139678572Y-99072714D01*
X139678572Y-99072714D02*
X139621429Y-98844142D01*
X139621429Y-98844142D02*
X139621429Y-98444142D01*
X139621429Y-98444142D02*
X139678572Y-98215571D01*
X139678572Y-98215571D02*
X139792858Y-98101285D01*
X139792858Y-98101285D02*
X139907143Y-98044142D01*
X141335715Y-98615571D02*
X140935715Y-98615571D01*
X140935715Y-99244142D02*
X140935715Y-98044142D01*
X140935715Y-98044142D02*
X141507143Y-98044142D01*
X142364286Y-98615571D02*
X141964286Y-98615571D01*
X141964286Y-99244142D02*
X141964286Y-98044142D01*
X141964286Y-98044142D02*
X142535714Y-98044142D01*
X144307142Y-98044142D02*
X144535714Y-98044142D01*
X144535714Y-98044142D02*
X144649999Y-98101285D01*
X144649999Y-98101285D02*
X144764285Y-98215571D01*
X144764285Y-98215571D02*
X144821428Y-98444142D01*
X144821428Y-98444142D02*
X144821428Y-98844142D01*
X144821428Y-98844142D02*
X144764285Y-99072714D01*
X144764285Y-99072714D02*
X144649999Y-99187000D01*
X144649999Y-99187000D02*
X144535714Y-99244142D01*
X144535714Y-99244142D02*
X144307142Y-99244142D01*
X144307142Y-99244142D02*
X144192857Y-99187000D01*
X144192857Y-99187000D02*
X144078571Y-99072714D01*
X144078571Y-99072714D02*
X144021428Y-98844142D01*
X144021428Y-98844142D02*
X144021428Y-98444142D01*
X144021428Y-98444142D02*
X144078571Y-98215571D01*
X144078571Y-98215571D02*
X144192857Y-98101285D01*
X144192857Y-98101285D02*
X144307142Y-98044142D01*
X145335714Y-99244142D02*
X145335714Y-98044142D01*
X145335714Y-98044142D02*
X146021428Y-99244142D01*
X146021428Y-99244142D02*
X146021428Y-98044142D01*
X185185714Y-75244142D02*
X185185714Y-74044142D01*
X185185714Y-74044142D02*
X185471428Y-74044142D01*
X185471428Y-74044142D02*
X185642857Y-74101285D01*
X185642857Y-74101285D02*
X185757142Y-74215571D01*
X185757142Y-74215571D02*
X185814285Y-74329857D01*
X185814285Y-74329857D02*
X185871428Y-74558428D01*
X185871428Y-74558428D02*
X185871428Y-74729857D01*
X185871428Y-74729857D02*
X185814285Y-74958428D01*
X185814285Y-74958428D02*
X185757142Y-75072714D01*
X185757142Y-75072714D02*
X185642857Y-75187000D01*
X185642857Y-75187000D02*
X185471428Y-75244142D01*
X185471428Y-75244142D02*
X185185714Y-75244142D01*
X187542857Y-74787000D02*
X188457143Y-74787000D01*
X188000000Y-75244142D02*
X188000000Y-74329857D01*
X190042857Y-74787000D02*
X190957143Y-74787000D01*
X133971429Y-82792142D02*
X134200000Y-82792142D01*
X134200000Y-82792142D02*
X134314286Y-82735000D01*
X134314286Y-82735000D02*
X134371429Y-82677857D01*
X134371429Y-82677857D02*
X134485714Y-82506428D01*
X134485714Y-82506428D02*
X134542857Y-82277857D01*
X134542857Y-82277857D02*
X134542857Y-81820714D01*
X134542857Y-81820714D02*
X134485714Y-81706428D01*
X134485714Y-81706428D02*
X134428572Y-81649285D01*
X134428572Y-81649285D02*
X134314286Y-81592142D01*
X134314286Y-81592142D02*
X134085714Y-81592142D01*
X134085714Y-81592142D02*
X133971429Y-81649285D01*
X133971429Y-81649285D02*
X133914286Y-81706428D01*
X133914286Y-81706428D02*
X133857143Y-81820714D01*
X133857143Y-81820714D02*
X133857143Y-82106428D01*
X133857143Y-82106428D02*
X133914286Y-82220714D01*
X133914286Y-82220714D02*
X133971429Y-82277857D01*
X133971429Y-82277857D02*
X134085714Y-82335000D01*
X134085714Y-82335000D02*
X134314286Y-82335000D01*
X134314286Y-82335000D02*
X134428572Y-82277857D01*
X134428572Y-82277857D02*
X134485714Y-82220714D01*
X134485714Y-82220714D02*
X134542857Y-82106428D01*
X134885714Y-81592142D02*
X135285714Y-82792142D01*
X135285714Y-82792142D02*
X135685714Y-81592142D01*
X137000000Y-82792142D02*
X137000000Y-81592142D01*
X137571429Y-81992142D02*
X137571429Y-82792142D01*
X137571429Y-82106428D02*
X137628572Y-82049285D01*
X137628572Y-82049285D02*
X137742857Y-81992142D01*
X137742857Y-81992142D02*
X137914286Y-81992142D01*
X137914286Y-81992142D02*
X138028572Y-82049285D01*
X138028572Y-82049285D02*
X138085715Y-82163571D01*
X138085715Y-82163571D02*
X138085715Y-82792142D01*
X134049813Y-95163571D02*
X134449813Y-95163571D01*
X134621241Y-95792142D02*
X134049813Y-95792142D01*
X134049813Y-95792142D02*
X134049813Y-94592142D01*
X134049813Y-94592142D02*
X134621241Y-94592142D01*
X135135527Y-95792142D02*
X135135527Y-94592142D01*
X135135527Y-94592142D02*
X135821241Y-95792142D01*
X135821241Y-95792142D02*
X135821241Y-94592142D01*
X136335527Y-95449285D02*
X136906956Y-95449285D01*
X136221241Y-95792142D02*
X136621241Y-94592142D01*
X136621241Y-94592142D02*
X137021241Y-95792142D01*
X134914099Y-86542142D02*
X135142670Y-86542142D01*
X135142670Y-86542142D02*
X135256956Y-86485000D01*
X135256956Y-86485000D02*
X135314099Y-86427857D01*
X135314099Y-86427857D02*
X135428384Y-86256428D01*
X135428384Y-86256428D02*
X135485527Y-86027857D01*
X135485527Y-86027857D02*
X135485527Y-85570714D01*
X135485527Y-85570714D02*
X135428384Y-85456428D01*
X135428384Y-85456428D02*
X135371242Y-85399285D01*
X135371242Y-85399285D02*
X135256956Y-85342142D01*
X135256956Y-85342142D02*
X135028384Y-85342142D01*
X135028384Y-85342142D02*
X134914099Y-85399285D01*
X134914099Y-85399285D02*
X134856956Y-85456428D01*
X134856956Y-85456428D02*
X134799813Y-85570714D01*
X134799813Y-85570714D02*
X134799813Y-85856428D01*
X134799813Y-85856428D02*
X134856956Y-85970714D01*
X134856956Y-85970714D02*
X134914099Y-86027857D01*
X134914099Y-86027857D02*
X135028384Y-86085000D01*
X135028384Y-86085000D02*
X135256956Y-86085000D01*
X135256956Y-86085000D02*
X135371242Y-86027857D01*
X135371242Y-86027857D02*
X135428384Y-85970714D01*
X135428384Y-85970714D02*
X135485527Y-85856428D01*
X135828384Y-85342142D02*
X136228384Y-86542142D01*
X136228384Y-86542142D02*
X136628384Y-85342142D01*
X137256955Y-85342142D02*
X137371241Y-85342142D01*
X137371241Y-85342142D02*
X137485527Y-85399285D01*
X137485527Y-85399285D02*
X137542670Y-85456428D01*
X137542670Y-85456428D02*
X137599812Y-85570714D01*
X137599812Y-85570714D02*
X137656955Y-85799285D01*
X137656955Y-85799285D02*
X137656955Y-86085000D01*
X137656955Y-86085000D02*
X137599812Y-86313571D01*
X137599812Y-86313571D02*
X137542670Y-86427857D01*
X137542670Y-86427857D02*
X137485527Y-86485000D01*
X137485527Y-86485000D02*
X137371241Y-86542142D01*
X137371241Y-86542142D02*
X137256955Y-86542142D01*
X137256955Y-86542142D02*
X137142670Y-86485000D01*
X137142670Y-86485000D02*
X137085527Y-86427857D01*
X137085527Y-86427857D02*
X137028384Y-86313571D01*
X137028384Y-86313571D02*
X136971241Y-86085000D01*
X136971241Y-86085000D02*
X136971241Y-85799285D01*
X136971241Y-85799285D02*
X137028384Y-85570714D01*
X137028384Y-85570714D02*
X137085527Y-85456428D01*
X137085527Y-85456428D02*
X137142670Y-85399285D01*
X137142670Y-85399285D02*
X137256955Y-85342142D01*
X135428384Y-88342142D02*
X134856956Y-88342142D01*
X134856956Y-88342142D02*
X134799813Y-88913571D01*
X134799813Y-88913571D02*
X134856956Y-88856428D01*
X134856956Y-88856428D02*
X134971242Y-88799285D01*
X134971242Y-88799285D02*
X135256956Y-88799285D01*
X135256956Y-88799285D02*
X135371242Y-88856428D01*
X135371242Y-88856428D02*
X135428384Y-88913571D01*
X135428384Y-88913571D02*
X135485527Y-89027857D01*
X135485527Y-89027857D02*
X135485527Y-89313571D01*
X135485527Y-89313571D02*
X135428384Y-89427857D01*
X135428384Y-89427857D02*
X135371242Y-89485000D01*
X135371242Y-89485000D02*
X135256956Y-89542142D01*
X135256956Y-89542142D02*
X134971242Y-89542142D01*
X134971242Y-89542142D02*
X134856956Y-89485000D01*
X134856956Y-89485000D02*
X134799813Y-89427857D01*
X135828384Y-88342142D02*
X136228384Y-89542142D01*
X136228384Y-89542142D02*
X136628384Y-88342142D01*
X137256955Y-88342142D02*
X137371241Y-88342142D01*
X137371241Y-88342142D02*
X137485527Y-88399285D01*
X137485527Y-88399285D02*
X137542670Y-88456428D01*
X137542670Y-88456428D02*
X137599812Y-88570714D01*
X137599812Y-88570714D02*
X137656955Y-88799285D01*
X137656955Y-88799285D02*
X137656955Y-89085000D01*
X137656955Y-89085000D02*
X137599812Y-89313571D01*
X137599812Y-89313571D02*
X137542670Y-89427857D01*
X137542670Y-89427857D02*
X137485527Y-89485000D01*
X137485527Y-89485000D02*
X137371241Y-89542142D01*
X137371241Y-89542142D02*
X137256955Y-89542142D01*
X137256955Y-89542142D02*
X137142670Y-89485000D01*
X137142670Y-89485000D02*
X137085527Y-89427857D01*
X137085527Y-89427857D02*
X137028384Y-89313571D01*
X137028384Y-89313571D02*
X136971241Y-89085000D01*
X136971241Y-89085000D02*
X136971241Y-88799285D01*
X136971241Y-88799285D02*
X137028384Y-88570714D01*
X137028384Y-88570714D02*
X137085527Y-88456428D01*
X137085527Y-88456428D02*
X137142670Y-88399285D01*
X137142670Y-88399285D02*
X137256955Y-88342142D01*
X143135527Y-65335000D02*
X144049813Y-65335000D01*
X143592670Y-65792142D02*
X143592670Y-64877857D01*
X143135527Y-67835000D02*
X144049813Y-67835000D01*
D12*
X151400001Y-98300228D02*
X152257144Y-98300228D01*
X151228572Y-98814514D02*
X151828572Y-97014514D01*
X151828572Y-97014514D02*
X152428572Y-98814514D01*
X153028572Y-97614514D02*
X153028572Y-98814514D01*
X153028572Y-97785942D02*
X153114286Y-97700228D01*
X153114286Y-97700228D02*
X153285715Y-97614514D01*
X153285715Y-97614514D02*
X153542858Y-97614514D01*
X153542858Y-97614514D02*
X153714286Y-97700228D01*
X153714286Y-97700228D02*
X153800001Y-97871657D01*
X153800001Y-97871657D02*
X153800001Y-98814514D01*
X155428572Y-98814514D02*
X155428572Y-97871657D01*
X155428572Y-97871657D02*
X155342857Y-97700228D01*
X155342857Y-97700228D02*
X155171429Y-97614514D01*
X155171429Y-97614514D02*
X154828572Y-97614514D01*
X154828572Y-97614514D02*
X154657143Y-97700228D01*
X155428572Y-98728800D02*
X155257143Y-98814514D01*
X155257143Y-98814514D02*
X154828572Y-98814514D01*
X154828572Y-98814514D02*
X154657143Y-98728800D01*
X154657143Y-98728800D02*
X154571429Y-98557371D01*
X154571429Y-98557371D02*
X154571429Y-98385942D01*
X154571429Y-98385942D02*
X154657143Y-98214514D01*
X154657143Y-98214514D02*
X154828572Y-98128800D01*
X154828572Y-98128800D02*
X155257143Y-98128800D01*
X155257143Y-98128800D02*
X155428572Y-98043085D01*
X156542857Y-98814514D02*
X156371428Y-98728800D01*
X156371428Y-98728800D02*
X156285714Y-98557371D01*
X156285714Y-98557371D02*
X156285714Y-97014514D01*
X157485714Y-98814514D02*
X157314285Y-98728800D01*
X157314285Y-98728800D02*
X157228571Y-98643085D01*
X157228571Y-98643085D02*
X157142857Y-98471657D01*
X157142857Y-98471657D02*
X157142857Y-97957371D01*
X157142857Y-97957371D02*
X157228571Y-97785942D01*
X157228571Y-97785942D02*
X157314285Y-97700228D01*
X157314285Y-97700228D02*
X157485714Y-97614514D01*
X157485714Y-97614514D02*
X157742857Y-97614514D01*
X157742857Y-97614514D02*
X157914285Y-97700228D01*
X157914285Y-97700228D02*
X158000000Y-97785942D01*
X158000000Y-97785942D02*
X158085714Y-97957371D01*
X158085714Y-97957371D02*
X158085714Y-98471657D01*
X158085714Y-98471657D02*
X158000000Y-98643085D01*
X158000000Y-98643085D02*
X157914285Y-98728800D01*
X157914285Y-98728800D02*
X157742857Y-98814514D01*
X157742857Y-98814514D02*
X157485714Y-98814514D01*
X159628571Y-97614514D02*
X159628571Y-99071657D01*
X159628571Y-99071657D02*
X159542856Y-99243085D01*
X159542856Y-99243085D02*
X159457142Y-99328800D01*
X159457142Y-99328800D02*
X159285713Y-99414514D01*
X159285713Y-99414514D02*
X159028571Y-99414514D01*
X159028571Y-99414514D02*
X158857142Y-99328800D01*
X159628571Y-98728800D02*
X159457142Y-98814514D01*
X159457142Y-98814514D02*
X159114285Y-98814514D01*
X159114285Y-98814514D02*
X158942856Y-98728800D01*
X158942856Y-98728800D02*
X158857142Y-98643085D01*
X158857142Y-98643085D02*
X158771428Y-98471657D01*
X158771428Y-98471657D02*
X158771428Y-97957371D01*
X158771428Y-97957371D02*
X158857142Y-97785942D01*
X158857142Y-97785942D02*
X158942856Y-97700228D01*
X158942856Y-97700228D02*
X159114285Y-97614514D01*
X159114285Y-97614514D02*
X159457142Y-97614514D01*
X159457142Y-97614514D02*
X159628571Y-97700228D01*
X163314285Y-98814514D02*
X163228571Y-98814514D01*
X163228571Y-98814514D02*
X163057142Y-98728800D01*
X163057142Y-98728800D02*
X162799999Y-98471657D01*
X162799999Y-98471657D02*
X162371428Y-97957371D01*
X162371428Y-97957371D02*
X162199999Y-97700228D01*
X162199999Y-97700228D02*
X162114285Y-97443085D01*
X162114285Y-97443085D02*
X162114285Y-97271657D01*
X162114285Y-97271657D02*
X162199999Y-97100228D01*
X162199999Y-97100228D02*
X162371428Y-97014514D01*
X162371428Y-97014514D02*
X162457142Y-97014514D01*
X162457142Y-97014514D02*
X162628571Y-97100228D01*
X162628571Y-97100228D02*
X162714285Y-97271657D01*
X162714285Y-97271657D02*
X162714285Y-97357371D01*
X162714285Y-97357371D02*
X162628571Y-97528800D01*
X162628571Y-97528800D02*
X162542856Y-97614514D01*
X162542856Y-97614514D02*
X162028571Y-97957371D01*
X162028571Y-97957371D02*
X161942856Y-98043085D01*
X161942856Y-98043085D02*
X161857142Y-98214514D01*
X161857142Y-98214514D02*
X161857142Y-98471657D01*
X161857142Y-98471657D02*
X161942856Y-98643085D01*
X161942856Y-98643085D02*
X162028571Y-98728800D01*
X162028571Y-98728800D02*
X162199999Y-98814514D01*
X162199999Y-98814514D02*
X162457142Y-98814514D01*
X162457142Y-98814514D02*
X162628571Y-98728800D01*
X162628571Y-98728800D02*
X162714285Y-98643085D01*
X162714285Y-98643085D02*
X162971428Y-98300228D01*
X162971428Y-98300228D02*
X163057142Y-98043085D01*
X163057142Y-98043085D02*
X163057142Y-97871657D01*
X165457142Y-98814514D02*
X165457142Y-97014514D01*
X165457142Y-97014514D02*
X165885713Y-97014514D01*
X165885713Y-97014514D02*
X166142856Y-97100228D01*
X166142856Y-97100228D02*
X166314285Y-97271657D01*
X166314285Y-97271657D02*
X166399999Y-97443085D01*
X166399999Y-97443085D02*
X166485713Y-97785942D01*
X166485713Y-97785942D02*
X166485713Y-98043085D01*
X166485713Y-98043085D02*
X166399999Y-98385942D01*
X166399999Y-98385942D02*
X166314285Y-98557371D01*
X166314285Y-98557371D02*
X166142856Y-98728800D01*
X166142856Y-98728800D02*
X165885713Y-98814514D01*
X165885713Y-98814514D02*
X165457142Y-98814514D01*
X167257142Y-98814514D02*
X167257142Y-97614514D01*
X167257142Y-97014514D02*
X167171428Y-97100228D01*
X167171428Y-97100228D02*
X167257142Y-97185942D01*
X167257142Y-97185942D02*
X167342856Y-97100228D01*
X167342856Y-97100228D02*
X167257142Y-97014514D01*
X167257142Y-97014514D02*
X167257142Y-97185942D01*
X168885714Y-97614514D02*
X168885714Y-99071657D01*
X168885714Y-99071657D02*
X168799999Y-99243085D01*
X168799999Y-99243085D02*
X168714285Y-99328800D01*
X168714285Y-99328800D02*
X168542856Y-99414514D01*
X168542856Y-99414514D02*
X168285714Y-99414514D01*
X168285714Y-99414514D02*
X168114285Y-99328800D01*
X168885714Y-98728800D02*
X168714285Y-98814514D01*
X168714285Y-98814514D02*
X168371428Y-98814514D01*
X168371428Y-98814514D02*
X168199999Y-98728800D01*
X168199999Y-98728800D02*
X168114285Y-98643085D01*
X168114285Y-98643085D02*
X168028571Y-98471657D01*
X168028571Y-98471657D02*
X168028571Y-97957371D01*
X168028571Y-97957371D02*
X168114285Y-97785942D01*
X168114285Y-97785942D02*
X168199999Y-97700228D01*
X168199999Y-97700228D02*
X168371428Y-97614514D01*
X168371428Y-97614514D02*
X168714285Y-97614514D01*
X168714285Y-97614514D02*
X168885714Y-97700228D01*
X169742856Y-98814514D02*
X169742856Y-97614514D01*
X169742856Y-97014514D02*
X169657142Y-97100228D01*
X169657142Y-97100228D02*
X169742856Y-97185942D01*
X169742856Y-97185942D02*
X169828570Y-97100228D01*
X169828570Y-97100228D02*
X169742856Y-97014514D01*
X169742856Y-97014514D02*
X169742856Y-97185942D01*
X170342856Y-97614514D02*
X171028570Y-97614514D01*
X170599999Y-97014514D02*
X170599999Y-98557371D01*
X170599999Y-98557371D02*
X170685713Y-98728800D01*
X170685713Y-98728800D02*
X170857142Y-98814514D01*
X170857142Y-98814514D02*
X171028570Y-98814514D01*
X172399999Y-98814514D02*
X172399999Y-97871657D01*
X172399999Y-97871657D02*
X172314284Y-97700228D01*
X172314284Y-97700228D02*
X172142856Y-97614514D01*
X172142856Y-97614514D02*
X171799999Y-97614514D01*
X171799999Y-97614514D02*
X171628570Y-97700228D01*
X172399999Y-98728800D02*
X172228570Y-98814514D01*
X172228570Y-98814514D02*
X171799999Y-98814514D01*
X171799999Y-98814514D02*
X171628570Y-98728800D01*
X171628570Y-98728800D02*
X171542856Y-98557371D01*
X171542856Y-98557371D02*
X171542856Y-98385942D01*
X171542856Y-98385942D02*
X171628570Y-98214514D01*
X171628570Y-98214514D02*
X171799999Y-98128800D01*
X171799999Y-98128800D02*
X172228570Y-98128800D01*
X172228570Y-98128800D02*
X172399999Y-98043085D01*
X173514284Y-98814514D02*
X173342855Y-98728800D01*
X173342855Y-98728800D02*
X173257141Y-98557371D01*
X173257141Y-98557371D02*
X173257141Y-97014514D01*
X175485713Y-98728800D02*
X175742856Y-98814514D01*
X175742856Y-98814514D02*
X176171427Y-98814514D01*
X176171427Y-98814514D02*
X176342856Y-98728800D01*
X176342856Y-98728800D02*
X176428570Y-98643085D01*
X176428570Y-98643085D02*
X176514284Y-98471657D01*
X176514284Y-98471657D02*
X176514284Y-98300228D01*
X176514284Y-98300228D02*
X176428570Y-98128800D01*
X176428570Y-98128800D02*
X176342856Y-98043085D01*
X176342856Y-98043085D02*
X176171427Y-97957371D01*
X176171427Y-97957371D02*
X175828570Y-97871657D01*
X175828570Y-97871657D02*
X175657141Y-97785942D01*
X175657141Y-97785942D02*
X175571427Y-97700228D01*
X175571427Y-97700228D02*
X175485713Y-97528800D01*
X175485713Y-97528800D02*
X175485713Y-97357371D01*
X175485713Y-97357371D02*
X175571427Y-97185942D01*
X175571427Y-97185942D02*
X175657141Y-97100228D01*
X175657141Y-97100228D02*
X175828570Y-97014514D01*
X175828570Y-97014514D02*
X176257141Y-97014514D01*
X176257141Y-97014514D02*
X176514284Y-97100228D01*
X177971427Y-98728800D02*
X177799999Y-98814514D01*
X177799999Y-98814514D02*
X177457142Y-98814514D01*
X177457142Y-98814514D02*
X177285713Y-98728800D01*
X177285713Y-98728800D02*
X177199999Y-98557371D01*
X177199999Y-98557371D02*
X177199999Y-97871657D01*
X177199999Y-97871657D02*
X177285713Y-97700228D01*
X177285713Y-97700228D02*
X177457142Y-97614514D01*
X177457142Y-97614514D02*
X177799999Y-97614514D01*
X177799999Y-97614514D02*
X177971427Y-97700228D01*
X177971427Y-97700228D02*
X178057142Y-97871657D01*
X178057142Y-97871657D02*
X178057142Y-98043085D01*
X178057142Y-98043085D02*
X177199999Y-98214514D01*
X178828570Y-98814514D02*
X178828570Y-97614514D01*
X178828570Y-97957371D02*
X178914284Y-97785942D01*
X178914284Y-97785942D02*
X178999999Y-97700228D01*
X178999999Y-97700228D02*
X179171427Y-97614514D01*
X179171427Y-97614514D02*
X179342856Y-97614514D01*
X179771427Y-97614514D02*
X180199999Y-98814514D01*
X180199999Y-98814514D02*
X180628570Y-97614514D01*
X181571428Y-98814514D02*
X181399999Y-98728800D01*
X181399999Y-98728800D02*
X181314285Y-98643085D01*
X181314285Y-98643085D02*
X181228571Y-98471657D01*
X181228571Y-98471657D02*
X181228571Y-97957371D01*
X181228571Y-97957371D02*
X181314285Y-97785942D01*
X181314285Y-97785942D02*
X181399999Y-97700228D01*
X181399999Y-97700228D02*
X181571428Y-97614514D01*
X181571428Y-97614514D02*
X181828571Y-97614514D01*
X181828571Y-97614514D02*
X181999999Y-97700228D01*
X181999999Y-97700228D02*
X182085714Y-97785942D01*
X182085714Y-97785942D02*
X182171428Y-97957371D01*
X182171428Y-97957371D02*
X182171428Y-98471657D01*
X182171428Y-98471657D02*
X182085714Y-98643085D01*
X182085714Y-98643085D02*
X181999999Y-98728800D01*
X181999999Y-98728800D02*
X181828571Y-98814514D01*
X181828571Y-98814514D02*
X181571428Y-98814514D01*
X184057142Y-97014514D02*
X185085714Y-97014514D01*
X184571428Y-98814514D02*
X184571428Y-97014514D01*
X186371428Y-98728800D02*
X186200000Y-98814514D01*
X186200000Y-98814514D02*
X185857143Y-98814514D01*
X185857143Y-98814514D02*
X185685714Y-98728800D01*
X185685714Y-98728800D02*
X185600000Y-98557371D01*
X185600000Y-98557371D02*
X185600000Y-97871657D01*
X185600000Y-97871657D02*
X185685714Y-97700228D01*
X185685714Y-97700228D02*
X185857143Y-97614514D01*
X185857143Y-97614514D02*
X186200000Y-97614514D01*
X186200000Y-97614514D02*
X186371428Y-97700228D01*
X186371428Y-97700228D02*
X186457143Y-97871657D01*
X186457143Y-97871657D02*
X186457143Y-98043085D01*
X186457143Y-98043085D02*
X185600000Y-98214514D01*
X187142857Y-98728800D02*
X187314285Y-98814514D01*
X187314285Y-98814514D02*
X187657142Y-98814514D01*
X187657142Y-98814514D02*
X187828571Y-98728800D01*
X187828571Y-98728800D02*
X187914285Y-98557371D01*
X187914285Y-98557371D02*
X187914285Y-98471657D01*
X187914285Y-98471657D02*
X187828571Y-98300228D01*
X187828571Y-98300228D02*
X187657142Y-98214514D01*
X187657142Y-98214514D02*
X187400000Y-98214514D01*
X187400000Y-98214514D02*
X187228571Y-98128800D01*
X187228571Y-98128800D02*
X187142857Y-97957371D01*
X187142857Y-97957371D02*
X187142857Y-97871657D01*
X187142857Y-97871657D02*
X187228571Y-97700228D01*
X187228571Y-97700228D02*
X187400000Y-97614514D01*
X187400000Y-97614514D02*
X187657142Y-97614514D01*
X187657142Y-97614514D02*
X187828571Y-97700228D01*
X188428571Y-97614514D02*
X189114285Y-97614514D01*
X188685714Y-97014514D02*
X188685714Y-98557371D01*
X188685714Y-98557371D02*
X188771428Y-98728800D01*
X188771428Y-98728800D02*
X188942857Y-98814514D01*
X188942857Y-98814514D02*
X189114285Y-98814514D01*
X190399999Y-98728800D02*
X190228571Y-98814514D01*
X190228571Y-98814514D02*
X189885714Y-98814514D01*
X189885714Y-98814514D02*
X189714285Y-98728800D01*
X189714285Y-98728800D02*
X189628571Y-98557371D01*
X189628571Y-98557371D02*
X189628571Y-97871657D01*
X189628571Y-97871657D02*
X189714285Y-97700228D01*
X189714285Y-97700228D02*
X189885714Y-97614514D01*
X189885714Y-97614514D02*
X190228571Y-97614514D01*
X190228571Y-97614514D02*
X190399999Y-97700228D01*
X190399999Y-97700228D02*
X190485714Y-97871657D01*
X190485714Y-97871657D02*
X190485714Y-98043085D01*
X190485714Y-98043085D02*
X189628571Y-98214514D01*
X191257142Y-98814514D02*
X191257142Y-97614514D01*
X191257142Y-97957371D02*
X191342856Y-97785942D01*
X191342856Y-97785942D02*
X191428571Y-97700228D01*
X191428571Y-97700228D02*
X191599999Y-97614514D01*
X191599999Y-97614514D02*
X191771428Y-97614514D01*
D13*
X181083333Y-82704819D02*
X180750000Y-82228628D01*
X180511905Y-82704819D02*
X180511905Y-81704819D01*
X180511905Y-81704819D02*
X180892857Y-81704819D01*
X180892857Y-81704819D02*
X180988095Y-81752438D01*
X180988095Y-81752438D02*
X181035714Y-81800057D01*
X181035714Y-81800057D02*
X181083333Y-81895295D01*
X181083333Y-81895295D02*
X181083333Y-82038152D01*
X181083333Y-82038152D02*
X181035714Y-82133390D01*
X181035714Y-82133390D02*
X180988095Y-82181009D01*
X180988095Y-82181009D02*
X180892857Y-82228628D01*
X180892857Y-82228628D02*
X180511905Y-82228628D01*
X181988095Y-81704819D02*
X181511905Y-81704819D01*
X181511905Y-81704819D02*
X181464286Y-82181009D01*
X181464286Y-82181009D02*
X181511905Y-82133390D01*
X181511905Y-82133390D02*
X181607143Y-82085771D01*
X181607143Y-82085771D02*
X181845238Y-82085771D01*
X181845238Y-82085771D02*
X181940476Y-82133390D01*
X181940476Y-82133390D02*
X181988095Y-82181009D01*
X181988095Y-82181009D02*
X182035714Y-82276247D01*
X182035714Y-82276247D02*
X182035714Y-82514342D01*
X182035714Y-82514342D02*
X181988095Y-82609580D01*
X181988095Y-82609580D02*
X181940476Y-82657200D01*
X181940476Y-82657200D02*
X181845238Y-82704819D01*
X181845238Y-82704819D02*
X181607143Y-82704819D01*
X181607143Y-82704819D02*
X181511905Y-82657200D01*
X181511905Y-82657200D02*
X181464286Y-82609580D01*
X172654761Y-84167734D02*
X172559523Y-84120115D01*
X172559523Y-84120115D02*
X172464285Y-84024877D01*
X172464285Y-84024877D02*
X172321428Y-83882019D01*
X172321428Y-83882019D02*
X172226190Y-83834400D01*
X172226190Y-83834400D02*
X172130952Y-83834400D01*
X172178571Y-84072496D02*
X172083333Y-84024877D01*
X172083333Y-84024877D02*
X171988095Y-83929638D01*
X171988095Y-83929638D02*
X171940476Y-83739162D01*
X171940476Y-83739162D02*
X171940476Y-83405829D01*
X171940476Y-83405829D02*
X171988095Y-83215353D01*
X171988095Y-83215353D02*
X172083333Y-83120115D01*
X172083333Y-83120115D02*
X172178571Y-83072496D01*
X172178571Y-83072496D02*
X172369047Y-83072496D01*
X172369047Y-83072496D02*
X172464285Y-83120115D01*
X172464285Y-83120115D02*
X172559523Y-83215353D01*
X172559523Y-83215353D02*
X172607142Y-83405829D01*
X172607142Y-83405829D02*
X172607142Y-83739162D01*
X172607142Y-83739162D02*
X172559523Y-83929638D01*
X172559523Y-83929638D02*
X172464285Y-84024877D01*
X172464285Y-84024877D02*
X172369047Y-84072496D01*
X172369047Y-84072496D02*
X172178571Y-84072496D01*
X173559523Y-84072496D02*
X172988095Y-84072496D01*
X173273809Y-84072496D02*
X173273809Y-83072496D01*
X173273809Y-83072496D02*
X173178571Y-83215353D01*
X173178571Y-83215353D02*
X173083333Y-83310591D01*
X173083333Y-83310591D02*
X172988095Y-83358210D01*
X139811905Y-91454819D02*
X139811905Y-90454819D01*
X139811905Y-90454819D02*
X140050000Y-90454819D01*
X140050000Y-90454819D02*
X140192857Y-90502438D01*
X140192857Y-90502438D02*
X140288095Y-90597676D01*
X140288095Y-90597676D02*
X140335714Y-90692914D01*
X140335714Y-90692914D02*
X140383333Y-90883390D01*
X140383333Y-90883390D02*
X140383333Y-91026247D01*
X140383333Y-91026247D02*
X140335714Y-91216723D01*
X140335714Y-91216723D02*
X140288095Y-91311961D01*
X140288095Y-91311961D02*
X140192857Y-91407200D01*
X140192857Y-91407200D02*
X140050000Y-91454819D01*
X140050000Y-91454819D02*
X139811905Y-91454819D01*
X140764286Y-90550057D02*
X140811905Y-90502438D01*
X140811905Y-90502438D02*
X140907143Y-90454819D01*
X140907143Y-90454819D02*
X141145238Y-90454819D01*
X141145238Y-90454819D02*
X141240476Y-90502438D01*
X141240476Y-90502438D02*
X141288095Y-90550057D01*
X141288095Y-90550057D02*
X141335714Y-90645295D01*
X141335714Y-90645295D02*
X141335714Y-90740533D01*
X141335714Y-90740533D02*
X141288095Y-90883390D01*
X141288095Y-90883390D02*
X140716667Y-91454819D01*
X140716667Y-91454819D02*
X141335714Y-91454819D01*
X147166666Y-81204819D02*
X147166666Y-81919104D01*
X147166666Y-81919104D02*
X147119047Y-82061961D01*
X147119047Y-82061961D02*
X147023809Y-82157200D01*
X147023809Y-82157200D02*
X146880952Y-82204819D01*
X146880952Y-82204819D02*
X146785714Y-82204819D01*
X148166666Y-82204819D02*
X147595238Y-82204819D01*
X147880952Y-82204819D02*
X147880952Y-81204819D01*
X147880952Y-81204819D02*
X147785714Y-81347676D01*
X147785714Y-81347676D02*
X147690476Y-81442914D01*
X147690476Y-81442914D02*
X147595238Y-81490533D01*
X149083333Y-86454819D02*
X148750000Y-85978628D01*
X148511905Y-86454819D02*
X148511905Y-85454819D01*
X148511905Y-85454819D02*
X148892857Y-85454819D01*
X148892857Y-85454819D02*
X148988095Y-85502438D01*
X148988095Y-85502438D02*
X149035714Y-85550057D01*
X149035714Y-85550057D02*
X149083333Y-85645295D01*
X149083333Y-85645295D02*
X149083333Y-85788152D01*
X149083333Y-85788152D02*
X149035714Y-85883390D01*
X149035714Y-85883390D02*
X148988095Y-85931009D01*
X148988095Y-85931009D02*
X148892857Y-85978628D01*
X148892857Y-85978628D02*
X148511905Y-85978628D01*
X150035714Y-86454819D02*
X149464286Y-86454819D01*
X149750000Y-86454819D02*
X149750000Y-85454819D01*
X149750000Y-85454819D02*
X149654762Y-85597676D01*
X149654762Y-85597676D02*
X149559524Y-85692914D01*
X149559524Y-85692914D02*
X149464286Y-85740533D01*
X139811905Y-84454819D02*
X139811905Y-83454819D01*
X139811905Y-83454819D02*
X140050000Y-83454819D01*
X140050000Y-83454819D02*
X140192857Y-83502438D01*
X140192857Y-83502438D02*
X140288095Y-83597676D01*
X140288095Y-83597676D02*
X140335714Y-83692914D01*
X140335714Y-83692914D02*
X140383333Y-83883390D01*
X140383333Y-83883390D02*
X140383333Y-84026247D01*
X140383333Y-84026247D02*
X140335714Y-84216723D01*
X140335714Y-84216723D02*
X140288095Y-84311961D01*
X140288095Y-84311961D02*
X140192857Y-84407200D01*
X140192857Y-84407200D02*
X140050000Y-84454819D01*
X140050000Y-84454819D02*
X139811905Y-84454819D01*
X141335714Y-84454819D02*
X140764286Y-84454819D01*
X141050000Y-84454819D02*
X141050000Y-83454819D01*
X141050000Y-83454819D02*
X140954762Y-83597676D01*
X140954762Y-83597676D02*
X140859524Y-83692914D01*
X140859524Y-83692914D02*
X140764286Y-83740533D01*
X186666667Y-93907200D02*
X186809524Y-93954819D01*
X186809524Y-93954819D02*
X187047619Y-93954819D01*
X187047619Y-93954819D02*
X187142857Y-93907200D01*
X187142857Y-93907200D02*
X187190476Y-93859580D01*
X187190476Y-93859580D02*
X187238095Y-93764342D01*
X187238095Y-93764342D02*
X187238095Y-93669104D01*
X187238095Y-93669104D02*
X187190476Y-93573866D01*
X187190476Y-93573866D02*
X187142857Y-93526247D01*
X187142857Y-93526247D02*
X187047619Y-93478628D01*
X187047619Y-93478628D02*
X186857143Y-93431009D01*
X186857143Y-93431009D02*
X186761905Y-93383390D01*
X186761905Y-93383390D02*
X186714286Y-93335771D01*
X186714286Y-93335771D02*
X186666667Y-93240533D01*
X186666667Y-93240533D02*
X186666667Y-93145295D01*
X186666667Y-93145295D02*
X186714286Y-93050057D01*
X186714286Y-93050057D02*
X186761905Y-93002438D01*
X186761905Y-93002438D02*
X186857143Y-92954819D01*
X186857143Y-92954819D02*
X187095238Y-92954819D01*
X187095238Y-92954819D02*
X187238095Y-93002438D01*
X187571429Y-92954819D02*
X187809524Y-93954819D01*
X187809524Y-93954819D02*
X188000000Y-93240533D01*
X188000000Y-93240533D02*
X188190476Y-93954819D01*
X188190476Y-93954819D02*
X188428572Y-92954819D01*
X188714286Y-92954819D02*
X189333333Y-92954819D01*
X189333333Y-92954819D02*
X189000000Y-93335771D01*
X189000000Y-93335771D02*
X189142857Y-93335771D01*
X189142857Y-93335771D02*
X189238095Y-93383390D01*
X189238095Y-93383390D02*
X189285714Y-93431009D01*
X189285714Y-93431009D02*
X189333333Y-93526247D01*
X189333333Y-93526247D02*
X189333333Y-93764342D01*
X189333333Y-93764342D02*
X189285714Y-93859580D01*
X189285714Y-93859580D02*
X189238095Y-93907200D01*
X189238095Y-93907200D02*
X189142857Y-93954819D01*
X189142857Y-93954819D02*
X188857143Y-93954819D01*
X188857143Y-93954819D02*
X188761905Y-93907200D01*
X188761905Y-93907200D02*
X188714286Y-93859580D01*
X163988095Y-90023019D02*
X163988095Y-90832542D01*
X163988095Y-90832542D02*
X164035714Y-90927780D01*
X164035714Y-90927780D02*
X164083333Y-90975400D01*
X164083333Y-90975400D02*
X164178571Y-91023019D01*
X164178571Y-91023019D02*
X164369047Y-91023019D01*
X164369047Y-91023019D02*
X164464285Y-90975400D01*
X164464285Y-90975400D02*
X164511904Y-90927780D01*
X164511904Y-90927780D02*
X164559523Y-90832542D01*
X164559523Y-90832542D02*
X164559523Y-90023019D01*
X164988095Y-90118257D02*
X165035714Y-90070638D01*
X165035714Y-90070638D02*
X165130952Y-90023019D01*
X165130952Y-90023019D02*
X165369047Y-90023019D01*
X165369047Y-90023019D02*
X165464285Y-90070638D01*
X165464285Y-90070638D02*
X165511904Y-90118257D01*
X165511904Y-90118257D02*
X165559523Y-90213495D01*
X165559523Y-90213495D02*
X165559523Y-90308733D01*
X165559523Y-90308733D02*
X165511904Y-90451590D01*
X165511904Y-90451590D02*
X164940476Y-91023019D01*
X164940476Y-91023019D02*
X165559523Y-91023019D01*
X175833333Y-93477257D02*
X175785714Y-93524877D01*
X175785714Y-93524877D02*
X175642857Y-93572496D01*
X175642857Y-93572496D02*
X175547619Y-93572496D01*
X175547619Y-93572496D02*
X175404762Y-93524877D01*
X175404762Y-93524877D02*
X175309524Y-93429638D01*
X175309524Y-93429638D02*
X175261905Y-93334400D01*
X175261905Y-93334400D02*
X175214286Y-93143924D01*
X175214286Y-93143924D02*
X175214286Y-93001067D01*
X175214286Y-93001067D02*
X175261905Y-92810591D01*
X175261905Y-92810591D02*
X175309524Y-92715353D01*
X175309524Y-92715353D02*
X175404762Y-92620115D01*
X175404762Y-92620115D02*
X175547619Y-92572496D01*
X175547619Y-92572496D02*
X175642857Y-92572496D01*
X175642857Y-92572496D02*
X175785714Y-92620115D01*
X175785714Y-92620115D02*
X175833333Y-92667734D01*
X176690476Y-92572496D02*
X176500000Y-92572496D01*
X176500000Y-92572496D02*
X176404762Y-92620115D01*
X176404762Y-92620115D02*
X176357143Y-92667734D01*
X176357143Y-92667734D02*
X176261905Y-92810591D01*
X176261905Y-92810591D02*
X176214286Y-93001067D01*
X176214286Y-93001067D02*
X176214286Y-93382019D01*
X176214286Y-93382019D02*
X176261905Y-93477257D01*
X176261905Y-93477257D02*
X176309524Y-93524877D01*
X176309524Y-93524877D02*
X176404762Y-93572496D01*
X176404762Y-93572496D02*
X176595238Y-93572496D01*
X176595238Y-93572496D02*
X176690476Y-93524877D01*
X176690476Y-93524877D02*
X176738095Y-93477257D01*
X176738095Y-93477257D02*
X176785714Y-93382019D01*
X176785714Y-93382019D02*
X176785714Y-93143924D01*
X176785714Y-93143924D02*
X176738095Y-93048686D01*
X176738095Y-93048686D02*
X176690476Y-93001067D01*
X176690476Y-93001067D02*
X176595238Y-92953448D01*
X176595238Y-92953448D02*
X176404762Y-92953448D01*
X176404762Y-92953448D02*
X176309524Y-93001067D01*
X176309524Y-93001067D02*
X176261905Y-93048686D01*
X176261905Y-93048686D02*
X176214286Y-93143924D01*
X163875144Y-94609580D02*
X163827525Y-94657200D01*
X163827525Y-94657200D02*
X163684668Y-94704819D01*
X163684668Y-94704819D02*
X163589430Y-94704819D01*
X163589430Y-94704819D02*
X163446573Y-94657200D01*
X163446573Y-94657200D02*
X163351335Y-94561961D01*
X163351335Y-94561961D02*
X163303716Y-94466723D01*
X163303716Y-94466723D02*
X163256097Y-94276247D01*
X163256097Y-94276247D02*
X163256097Y-94133390D01*
X163256097Y-94133390D02*
X163303716Y-93942914D01*
X163303716Y-93942914D02*
X163351335Y-93847676D01*
X163351335Y-93847676D02*
X163446573Y-93752438D01*
X163446573Y-93752438D02*
X163589430Y-93704819D01*
X163589430Y-93704819D02*
X163684668Y-93704819D01*
X163684668Y-93704819D02*
X163827525Y-93752438D01*
X163827525Y-93752438D02*
X163875144Y-93800057D01*
X164208478Y-93704819D02*
X164827525Y-93704819D01*
X164827525Y-93704819D02*
X164494192Y-94085771D01*
X164494192Y-94085771D02*
X164637049Y-94085771D01*
X164637049Y-94085771D02*
X164732287Y-94133390D01*
X164732287Y-94133390D02*
X164779906Y-94181009D01*
X164779906Y-94181009D02*
X164827525Y-94276247D01*
X164827525Y-94276247D02*
X164827525Y-94514342D01*
X164827525Y-94514342D02*
X164779906Y-94609580D01*
X164779906Y-94609580D02*
X164732287Y-94657200D01*
X164732287Y-94657200D02*
X164637049Y-94704819D01*
X164637049Y-94704819D02*
X164351335Y-94704819D01*
X164351335Y-94704819D02*
X164256097Y-94657200D01*
X164256097Y-94657200D02*
X164208478Y-94609580D01*
X164833333Y-73977257D02*
X164785714Y-74024877D01*
X164785714Y-74024877D02*
X164642857Y-74072496D01*
X164642857Y-74072496D02*
X164547619Y-74072496D01*
X164547619Y-74072496D02*
X164404762Y-74024877D01*
X164404762Y-74024877D02*
X164309524Y-73929638D01*
X164309524Y-73929638D02*
X164261905Y-73834400D01*
X164261905Y-73834400D02*
X164214286Y-73643924D01*
X164214286Y-73643924D02*
X164214286Y-73501067D01*
X164214286Y-73501067D02*
X164261905Y-73310591D01*
X164261905Y-73310591D02*
X164309524Y-73215353D01*
X164309524Y-73215353D02*
X164404762Y-73120115D01*
X164404762Y-73120115D02*
X164547619Y-73072496D01*
X164547619Y-73072496D02*
X164642857Y-73072496D01*
X164642857Y-73072496D02*
X164785714Y-73120115D01*
X164785714Y-73120115D02*
X164833333Y-73167734D01*
X165214286Y-73167734D02*
X165261905Y-73120115D01*
X165261905Y-73120115D02*
X165357143Y-73072496D01*
X165357143Y-73072496D02*
X165595238Y-73072496D01*
X165595238Y-73072496D02*
X165690476Y-73120115D01*
X165690476Y-73120115D02*
X165738095Y-73167734D01*
X165738095Y-73167734D02*
X165785714Y-73262972D01*
X165785714Y-73262972D02*
X165785714Y-73358210D01*
X165785714Y-73358210D02*
X165738095Y-73501067D01*
X165738095Y-73501067D02*
X165166667Y-74072496D01*
X165166667Y-74072496D02*
X165785714Y-74072496D01*
X178333333Y-77477257D02*
X178285714Y-77524877D01*
X178285714Y-77524877D02*
X178142857Y-77572496D01*
X178142857Y-77572496D02*
X178047619Y-77572496D01*
X178047619Y-77572496D02*
X177904762Y-77524877D01*
X177904762Y-77524877D02*
X177809524Y-77429638D01*
X177809524Y-77429638D02*
X177761905Y-77334400D01*
X177761905Y-77334400D02*
X177714286Y-77143924D01*
X177714286Y-77143924D02*
X177714286Y-77001067D01*
X177714286Y-77001067D02*
X177761905Y-76810591D01*
X177761905Y-76810591D02*
X177809524Y-76715353D01*
X177809524Y-76715353D02*
X177904762Y-76620115D01*
X177904762Y-76620115D02*
X178047619Y-76572496D01*
X178047619Y-76572496D02*
X178142857Y-76572496D01*
X178142857Y-76572496D02*
X178285714Y-76620115D01*
X178285714Y-76620115D02*
X178333333Y-76667734D01*
X179190476Y-76905829D02*
X179190476Y-77572496D01*
X178952381Y-76524877D02*
X178714286Y-77239162D01*
X178714286Y-77239162D02*
X179333333Y-77239162D01*
X146166666Y-62324819D02*
X146166666Y-63039104D01*
X146166666Y-63039104D02*
X146119047Y-63181961D01*
X146119047Y-63181961D02*
X146023809Y-63277200D01*
X146023809Y-63277200D02*
X145880952Y-63324819D01*
X145880952Y-63324819D02*
X145785714Y-63324819D01*
X146595238Y-62420057D02*
X146642857Y-62372438D01*
X146642857Y-62372438D02*
X146738095Y-62324819D01*
X146738095Y-62324819D02*
X146976190Y-62324819D01*
X146976190Y-62324819D02*
X147071428Y-62372438D01*
X147071428Y-62372438D02*
X147119047Y-62420057D01*
X147119047Y-62420057D02*
X147166666Y-62515295D01*
X147166666Y-62515295D02*
X147166666Y-62610533D01*
X147166666Y-62610533D02*
X147119047Y-62753390D01*
X147119047Y-62753390D02*
X146547619Y-63324819D01*
X146547619Y-63324819D02*
X147166666Y-63324819D01*
X167083333Y-87204819D02*
X166750000Y-86728628D01*
X166511905Y-87204819D02*
X166511905Y-86204819D01*
X166511905Y-86204819D02*
X166892857Y-86204819D01*
X166892857Y-86204819D02*
X166988095Y-86252438D01*
X166988095Y-86252438D02*
X167035714Y-86300057D01*
X167035714Y-86300057D02*
X167083333Y-86395295D01*
X167083333Y-86395295D02*
X167083333Y-86538152D01*
X167083333Y-86538152D02*
X167035714Y-86633390D01*
X167035714Y-86633390D02*
X166988095Y-86681009D01*
X166988095Y-86681009D02*
X166892857Y-86728628D01*
X166892857Y-86728628D02*
X166511905Y-86728628D01*
X167416667Y-86204819D02*
X168035714Y-86204819D01*
X168035714Y-86204819D02*
X167702381Y-86585771D01*
X167702381Y-86585771D02*
X167845238Y-86585771D01*
X167845238Y-86585771D02*
X167940476Y-86633390D01*
X167940476Y-86633390D02*
X167988095Y-86681009D01*
X167988095Y-86681009D02*
X168035714Y-86776247D01*
X168035714Y-86776247D02*
X168035714Y-87014342D01*
X168035714Y-87014342D02*
X167988095Y-87109580D01*
X167988095Y-87109580D02*
X167940476Y-87157200D01*
X167940476Y-87157200D02*
X167845238Y-87204819D01*
X167845238Y-87204819D02*
X167559524Y-87204819D01*
X167559524Y-87204819D02*
X167464286Y-87157200D01*
X167464286Y-87157200D02*
X167416667Y-87109580D01*
X181083333Y-89454819D02*
X180750000Y-88978628D01*
X180511905Y-89454819D02*
X180511905Y-88454819D01*
X180511905Y-88454819D02*
X180892857Y-88454819D01*
X180892857Y-88454819D02*
X180988095Y-88502438D01*
X180988095Y-88502438D02*
X181035714Y-88550057D01*
X181035714Y-88550057D02*
X181083333Y-88645295D01*
X181083333Y-88645295D02*
X181083333Y-88788152D01*
X181083333Y-88788152D02*
X181035714Y-88883390D01*
X181035714Y-88883390D02*
X180988095Y-88931009D01*
X180988095Y-88931009D02*
X180892857Y-88978628D01*
X180892857Y-88978628D02*
X180511905Y-88978628D01*
X181940476Y-88454819D02*
X181750000Y-88454819D01*
X181750000Y-88454819D02*
X181654762Y-88502438D01*
X181654762Y-88502438D02*
X181607143Y-88550057D01*
X181607143Y-88550057D02*
X181511905Y-88692914D01*
X181511905Y-88692914D02*
X181464286Y-88883390D01*
X181464286Y-88883390D02*
X181464286Y-89264342D01*
X181464286Y-89264342D02*
X181511905Y-89359580D01*
X181511905Y-89359580D02*
X181559524Y-89407200D01*
X181559524Y-89407200D02*
X181654762Y-89454819D01*
X181654762Y-89454819D02*
X181845238Y-89454819D01*
X181845238Y-89454819D02*
X181940476Y-89407200D01*
X181940476Y-89407200D02*
X181988095Y-89359580D01*
X181988095Y-89359580D02*
X182035714Y-89264342D01*
X182035714Y-89264342D02*
X182035714Y-89026247D01*
X182035714Y-89026247D02*
X181988095Y-88931009D01*
X181988095Y-88931009D02*
X181940476Y-88883390D01*
X181940476Y-88883390D02*
X181845238Y-88835771D01*
X181845238Y-88835771D02*
X181654762Y-88835771D01*
X181654762Y-88835771D02*
X181559524Y-88883390D01*
X181559524Y-88883390D02*
X181511905Y-88931009D01*
X181511905Y-88931009D02*
X181464286Y-89026247D01*
X179833333Y-70954819D02*
X179500000Y-70478628D01*
X179261905Y-70954819D02*
X179261905Y-69954819D01*
X179261905Y-69954819D02*
X179642857Y-69954819D01*
X179642857Y-69954819D02*
X179738095Y-70002438D01*
X179738095Y-70002438D02*
X179785714Y-70050057D01*
X179785714Y-70050057D02*
X179833333Y-70145295D01*
X179833333Y-70145295D02*
X179833333Y-70288152D01*
X179833333Y-70288152D02*
X179785714Y-70383390D01*
X179785714Y-70383390D02*
X179738095Y-70431009D01*
X179738095Y-70431009D02*
X179642857Y-70478628D01*
X179642857Y-70478628D02*
X179261905Y-70478628D01*
X180166667Y-69954819D02*
X180833333Y-69954819D01*
X180833333Y-69954819D02*
X180404762Y-70954819D01*
X187666666Y-69204819D02*
X187666666Y-69919104D01*
X187666666Y-69919104D02*
X187619047Y-70061961D01*
X187619047Y-70061961D02*
X187523809Y-70157200D01*
X187523809Y-70157200D02*
X187380952Y-70204819D01*
X187380952Y-70204819D02*
X187285714Y-70204819D01*
X188047619Y-69204819D02*
X188666666Y-69204819D01*
X188666666Y-69204819D02*
X188333333Y-69585771D01*
X188333333Y-69585771D02*
X188476190Y-69585771D01*
X188476190Y-69585771D02*
X188571428Y-69633390D01*
X188571428Y-69633390D02*
X188619047Y-69681009D01*
X188619047Y-69681009D02*
X188666666Y-69776247D01*
X188666666Y-69776247D02*
X188666666Y-70014342D01*
X188666666Y-70014342D02*
X188619047Y-70109580D01*
X188619047Y-70109580D02*
X188571428Y-70157200D01*
X188571428Y-70157200D02*
X188476190Y-70204819D01*
X188476190Y-70204819D02*
X188190476Y-70204819D01*
X188190476Y-70204819D02*
X188095238Y-70157200D01*
X188095238Y-70157200D02*
X188047619Y-70109580D01*
X171988095Y-85672496D02*
X171988095Y-86482019D01*
X171988095Y-86482019D02*
X172035714Y-86577257D01*
X172035714Y-86577257D02*
X172083333Y-86624877D01*
X172083333Y-86624877D02*
X172178571Y-86672496D01*
X172178571Y-86672496D02*
X172369047Y-86672496D01*
X172369047Y-86672496D02*
X172464285Y-86624877D01*
X172464285Y-86624877D02*
X172511904Y-86577257D01*
X172511904Y-86577257D02*
X172559523Y-86482019D01*
X172559523Y-86482019D02*
X172559523Y-85672496D01*
X173559523Y-86672496D02*
X172988095Y-86672496D01*
X173273809Y-86672496D02*
X173273809Y-85672496D01*
X173273809Y-85672496D02*
X173178571Y-85815353D01*
X173178571Y-85815353D02*
X173083333Y-85910591D01*
X173083333Y-85910591D02*
X172988095Y-85958210D01*
X168083333Y-94227257D02*
X168035714Y-94274877D01*
X168035714Y-94274877D02*
X167892857Y-94322496D01*
X167892857Y-94322496D02*
X167797619Y-94322496D01*
X167797619Y-94322496D02*
X167654762Y-94274877D01*
X167654762Y-94274877D02*
X167559524Y-94179638D01*
X167559524Y-94179638D02*
X167511905Y-94084400D01*
X167511905Y-94084400D02*
X167464286Y-93893924D01*
X167464286Y-93893924D02*
X167464286Y-93751067D01*
X167464286Y-93751067D02*
X167511905Y-93560591D01*
X167511905Y-93560591D02*
X167559524Y-93465353D01*
X167559524Y-93465353D02*
X167654762Y-93370115D01*
X167654762Y-93370115D02*
X167797619Y-93322496D01*
X167797619Y-93322496D02*
X167892857Y-93322496D01*
X167892857Y-93322496D02*
X168035714Y-93370115D01*
X168035714Y-93370115D02*
X168083333Y-93417734D01*
X168988095Y-93322496D02*
X168511905Y-93322496D01*
X168511905Y-93322496D02*
X168464286Y-93798686D01*
X168464286Y-93798686D02*
X168511905Y-93751067D01*
X168511905Y-93751067D02*
X168607143Y-93703448D01*
X168607143Y-93703448D02*
X168845238Y-93703448D01*
X168845238Y-93703448D02*
X168940476Y-93751067D01*
X168940476Y-93751067D02*
X168988095Y-93798686D01*
X168988095Y-93798686D02*
X169035714Y-93893924D01*
X169035714Y-93893924D02*
X169035714Y-94132019D01*
X169035714Y-94132019D02*
X168988095Y-94227257D01*
X168988095Y-94227257D02*
X168940476Y-94274877D01*
X168940476Y-94274877D02*
X168845238Y-94322496D01*
X168845238Y-94322496D02*
X168607143Y-94322496D01*
X168607143Y-94322496D02*
X168511905Y-94274877D01*
X168511905Y-94274877D02*
X168464286Y-94227257D01*
X178083333Y-83454819D02*
X177750000Y-82978628D01*
X177511905Y-83454819D02*
X177511905Y-82454819D01*
X177511905Y-82454819D02*
X177892857Y-82454819D01*
X177892857Y-82454819D02*
X177988095Y-82502438D01*
X177988095Y-82502438D02*
X178035714Y-82550057D01*
X178035714Y-82550057D02*
X178083333Y-82645295D01*
X178083333Y-82645295D02*
X178083333Y-82788152D01*
X178083333Y-82788152D02*
X178035714Y-82883390D01*
X178035714Y-82883390D02*
X177988095Y-82931009D01*
X177988095Y-82931009D02*
X177892857Y-82978628D01*
X177892857Y-82978628D02*
X177511905Y-82978628D01*
X178940476Y-82788152D02*
X178940476Y-83454819D01*
X178702381Y-82407200D02*
X178464286Y-83121485D01*
X178464286Y-83121485D02*
X179083333Y-83121485D01*
X186666667Y-84907200D02*
X186809524Y-84954819D01*
X186809524Y-84954819D02*
X187047619Y-84954819D01*
X187047619Y-84954819D02*
X187142857Y-84907200D01*
X187142857Y-84907200D02*
X187190476Y-84859580D01*
X187190476Y-84859580D02*
X187238095Y-84764342D01*
X187238095Y-84764342D02*
X187238095Y-84669104D01*
X187238095Y-84669104D02*
X187190476Y-84573866D01*
X187190476Y-84573866D02*
X187142857Y-84526247D01*
X187142857Y-84526247D02*
X187047619Y-84478628D01*
X187047619Y-84478628D02*
X186857143Y-84431009D01*
X186857143Y-84431009D02*
X186761905Y-84383390D01*
X186761905Y-84383390D02*
X186714286Y-84335771D01*
X186714286Y-84335771D02*
X186666667Y-84240533D01*
X186666667Y-84240533D02*
X186666667Y-84145295D01*
X186666667Y-84145295D02*
X186714286Y-84050057D01*
X186714286Y-84050057D02*
X186761905Y-84002438D01*
X186761905Y-84002438D02*
X186857143Y-83954819D01*
X186857143Y-83954819D02*
X187095238Y-83954819D01*
X187095238Y-83954819D02*
X187238095Y-84002438D01*
X187571429Y-83954819D02*
X187809524Y-84954819D01*
X187809524Y-84954819D02*
X188000000Y-84240533D01*
X188000000Y-84240533D02*
X188190476Y-84954819D01*
X188190476Y-84954819D02*
X188428572Y-83954819D01*
X188761905Y-84050057D02*
X188809524Y-84002438D01*
X188809524Y-84002438D02*
X188904762Y-83954819D01*
X188904762Y-83954819D02*
X189142857Y-83954819D01*
X189142857Y-83954819D02*
X189238095Y-84002438D01*
X189238095Y-84002438D02*
X189285714Y-84050057D01*
X189285714Y-84050057D02*
X189333333Y-84145295D01*
X189333333Y-84145295D02*
X189333333Y-84240533D01*
X189333333Y-84240533D02*
X189285714Y-84383390D01*
X189285714Y-84383390D02*
X188714286Y-84954819D01*
X188714286Y-84954819D02*
X189333333Y-84954819D01*
X149083333Y-89454819D02*
X148750000Y-88978628D01*
X148511905Y-89454819D02*
X148511905Y-88454819D01*
X148511905Y-88454819D02*
X148892857Y-88454819D01*
X148892857Y-88454819D02*
X148988095Y-88502438D01*
X148988095Y-88502438D02*
X149035714Y-88550057D01*
X149035714Y-88550057D02*
X149083333Y-88645295D01*
X149083333Y-88645295D02*
X149083333Y-88788152D01*
X149083333Y-88788152D02*
X149035714Y-88883390D01*
X149035714Y-88883390D02*
X148988095Y-88931009D01*
X148988095Y-88931009D02*
X148892857Y-88978628D01*
X148892857Y-88978628D02*
X148511905Y-88978628D01*
X149464286Y-88550057D02*
X149511905Y-88502438D01*
X149511905Y-88502438D02*
X149607143Y-88454819D01*
X149607143Y-88454819D02*
X149845238Y-88454819D01*
X149845238Y-88454819D02*
X149940476Y-88502438D01*
X149940476Y-88502438D02*
X149988095Y-88550057D01*
X149988095Y-88550057D02*
X150035714Y-88645295D01*
X150035714Y-88645295D02*
X150035714Y-88740533D01*
X150035714Y-88740533D02*
X149988095Y-88883390D01*
X149988095Y-88883390D02*
X149416667Y-89454819D01*
X149416667Y-89454819D02*
X150035714Y-89454819D01*
X152125144Y-94609580D02*
X152077525Y-94657200D01*
X152077525Y-94657200D02*
X151934668Y-94704819D01*
X151934668Y-94704819D02*
X151839430Y-94704819D01*
X151839430Y-94704819D02*
X151696573Y-94657200D01*
X151696573Y-94657200D02*
X151601335Y-94561961D01*
X151601335Y-94561961D02*
X151553716Y-94466723D01*
X151553716Y-94466723D02*
X151506097Y-94276247D01*
X151506097Y-94276247D02*
X151506097Y-94133390D01*
X151506097Y-94133390D02*
X151553716Y-93942914D01*
X151553716Y-93942914D02*
X151601335Y-93847676D01*
X151601335Y-93847676D02*
X151696573Y-93752438D01*
X151696573Y-93752438D02*
X151839430Y-93704819D01*
X151839430Y-93704819D02*
X151934668Y-93704819D01*
X151934668Y-93704819D02*
X152077525Y-93752438D01*
X152077525Y-93752438D02*
X152125144Y-93800057D01*
X153077525Y-94704819D02*
X152506097Y-94704819D01*
X152791811Y-94704819D02*
X152791811Y-93704819D01*
X152791811Y-93704819D02*
X152696573Y-93847676D01*
X152696573Y-93847676D02*
X152601335Y-93942914D01*
X152601335Y-93942914D02*
X152506097Y-93990533D01*
X145666667Y-92407200D02*
X145809524Y-92454819D01*
X145809524Y-92454819D02*
X146047619Y-92454819D01*
X146047619Y-92454819D02*
X146142857Y-92407200D01*
X146142857Y-92407200D02*
X146190476Y-92359580D01*
X146190476Y-92359580D02*
X146238095Y-92264342D01*
X146238095Y-92264342D02*
X146238095Y-92169104D01*
X146238095Y-92169104D02*
X146190476Y-92073866D01*
X146190476Y-92073866D02*
X146142857Y-92026247D01*
X146142857Y-92026247D02*
X146047619Y-91978628D01*
X146047619Y-91978628D02*
X145857143Y-91931009D01*
X145857143Y-91931009D02*
X145761905Y-91883390D01*
X145761905Y-91883390D02*
X145714286Y-91835771D01*
X145714286Y-91835771D02*
X145666667Y-91740533D01*
X145666667Y-91740533D02*
X145666667Y-91645295D01*
X145666667Y-91645295D02*
X145714286Y-91550057D01*
X145714286Y-91550057D02*
X145761905Y-91502438D01*
X145761905Y-91502438D02*
X145857143Y-91454819D01*
X145857143Y-91454819D02*
X146095238Y-91454819D01*
X146095238Y-91454819D02*
X146238095Y-91502438D01*
X146571429Y-91454819D02*
X146809524Y-92454819D01*
X146809524Y-92454819D02*
X147000000Y-91740533D01*
X147000000Y-91740533D02*
X147190476Y-92454819D01*
X147190476Y-92454819D02*
X147428572Y-91454819D01*
X148333333Y-92454819D02*
X147761905Y-92454819D01*
X148047619Y-92454819D02*
X148047619Y-91454819D01*
X148047619Y-91454819D02*
X147952381Y-91597676D01*
X147952381Y-91597676D02*
X147857143Y-91692914D01*
X147857143Y-91692914D02*
X147761905Y-91740533D01*
D14*
G04 #@! TO.C,G\u002A\u002A\u002A*
G36*
X167837583Y-67191225D02*
G01*
X167837583Y-67503802D01*
X167990746Y-67503802D01*
X168143908Y-67503802D01*
X168143908Y-67578820D01*
X168143908Y-67653839D01*
X167903224Y-67653839D01*
X167662540Y-67653839D01*
X167662540Y-67266243D01*
X167662540Y-66878648D01*
X167750061Y-66878648D01*
X167837583Y-66878648D01*
X167837583Y-67191225D01*
G37*
G36*
X165930864Y-66950541D02*
G01*
X165930864Y-67022433D01*
X165783953Y-67022433D01*
X165637041Y-67022433D01*
X165637041Y-67109955D01*
X165637041Y-67197476D01*
X165774575Y-67197476D01*
X165912109Y-67197476D01*
X165912109Y-67269369D01*
X165912109Y-67341262D01*
X165774684Y-67341262D01*
X165637260Y-67341262D01*
X165635588Y-67495987D01*
X165633916Y-67650713D01*
X165547957Y-67652452D01*
X165461998Y-67654191D01*
X165461998Y-67266420D01*
X165461998Y-66878648D01*
X165696431Y-66878648D01*
X165930864Y-66878648D01*
X165930864Y-66950541D01*
G37*
G36*
X166513938Y-67258357D02*
G01*
X166534411Y-67324766D01*
X166553746Y-67387730D01*
X166571631Y-67446219D01*
X166587754Y-67499203D01*
X166601805Y-67545652D01*
X166613471Y-67584534D01*
X166622441Y-67614820D01*
X166628404Y-67635480D01*
X166631048Y-67645482D01*
X166631154Y-67646191D01*
X166628303Y-67649385D01*
X166618862Y-67651498D01*
X166601328Y-67652634D01*
X166574201Y-67652894D01*
X166539208Y-67652443D01*
X166447380Y-67650713D01*
X166418476Y-67553814D01*
X166389573Y-67456915D01*
X166277911Y-67456915D01*
X166166250Y-67456915D01*
X166145329Y-67531934D01*
X166136610Y-67563248D01*
X166128520Y-67592392D01*
X166121984Y-67616026D01*
X166118042Y-67630395D01*
X166111676Y-67653839D01*
X166021270Y-67653839D01*
X165989276Y-67653737D01*
X165962271Y-67653457D01*
X165942452Y-67653037D01*
X165932018Y-67652516D01*
X165930963Y-67652276D01*
X165932760Y-67646189D01*
X165937912Y-67629150D01*
X165946114Y-67602162D01*
X165957058Y-67566230D01*
X165970439Y-67522355D01*
X165985951Y-67471542D01*
X166003288Y-67414793D01*
X166022144Y-67353112D01*
X166033511Y-67315952D01*
X166195376Y-67315952D01*
X166198607Y-67318984D01*
X166207219Y-67320909D01*
X166223061Y-67321974D01*
X166247980Y-67322424D01*
X166277824Y-67322507D01*
X166311941Y-67322389D01*
X166335396Y-67321869D01*
X166350030Y-67320702D01*
X166357685Y-67318641D01*
X166360201Y-67315441D01*
X166359651Y-67311567D01*
X166353478Y-67291101D01*
X166345294Y-67263012D01*
X166335734Y-67229588D01*
X166325436Y-67193115D01*
X166315036Y-67155880D01*
X166305172Y-67120168D01*
X166296478Y-67088266D01*
X166289593Y-67062462D01*
X166285152Y-67045040D01*
X166283938Y-67039625D01*
X166280187Y-67024610D01*
X166276342Y-67016594D01*
X166275509Y-67016182D01*
X166272433Y-67021839D01*
X166267733Y-67036926D01*
X166262248Y-67058612D01*
X166260185Y-67067757D01*
X166253463Y-67096417D01*
X166243712Y-67135036D01*
X166231467Y-67181591D01*
X166217264Y-67234055D01*
X166201638Y-67290406D01*
X166195679Y-67311567D01*
X166195376Y-67315952D01*
X166033511Y-67315952D01*
X166042213Y-67287503D01*
X166048718Y-67266243D01*
X166166374Y-66881774D01*
X166281489Y-66880139D01*
X166396603Y-66878505D01*
X166513938Y-67258357D01*
G37*
G36*
X168615176Y-66880011D02*
G01*
X168640554Y-66880730D01*
X168657382Y-66881870D01*
X168663467Y-66883188D01*
X168666134Y-66889886D01*
X168672071Y-66907304D01*
X168680891Y-66934204D01*
X168692211Y-66969349D01*
X168705645Y-67011501D01*
X168720808Y-67059422D01*
X168737317Y-67111874D01*
X168754785Y-67167621D01*
X168772828Y-67225424D01*
X168791062Y-67284045D01*
X168809102Y-67342248D01*
X168826562Y-67398794D01*
X168843058Y-67452447D01*
X168858205Y-67501967D01*
X168871619Y-67546119D01*
X168882914Y-67583663D01*
X168891707Y-67613363D01*
X168897611Y-67633980D01*
X168900242Y-67644278D01*
X168900344Y-67645065D01*
X168898571Y-67648633D01*
X168892089Y-67651046D01*
X168879156Y-67652444D01*
X168858031Y-67652967D01*
X168826973Y-67652755D01*
X168808516Y-67652443D01*
X168716688Y-67650713D01*
X168687785Y-67553814D01*
X168658881Y-67456915D01*
X168547220Y-67456915D01*
X168435559Y-67456915D01*
X168414637Y-67531934D01*
X168405918Y-67563248D01*
X168397828Y-67592392D01*
X168391293Y-67616026D01*
X168387350Y-67630395D01*
X168380985Y-67653839D01*
X168290578Y-67653839D01*
X168258585Y-67653737D01*
X168231581Y-67653457D01*
X168211764Y-67653037D01*
X168201332Y-67652516D01*
X168200278Y-67652276D01*
X168202075Y-67646188D01*
X168207225Y-67629148D01*
X168215423Y-67602160D01*
X168226362Y-67566225D01*
X168239737Y-67522349D01*
X168255241Y-67471533D01*
X168272569Y-67414782D01*
X168291414Y-67353099D01*
X168302770Y-67315952D01*
X168464710Y-67315952D01*
X168467922Y-67318983D01*
X168476518Y-67320909D01*
X168492343Y-67321973D01*
X168517244Y-67322424D01*
X168547132Y-67322507D01*
X168632371Y-67322507D01*
X168627872Y-67308441D01*
X168622547Y-67290960D01*
X168615018Y-67265137D01*
X168605932Y-67233299D01*
X168595933Y-67197775D01*
X168585667Y-67160893D01*
X168575779Y-67124980D01*
X168566915Y-67092365D01*
X168559721Y-67065376D01*
X168554841Y-67046340D01*
X168553092Y-67038703D01*
X168549359Y-67024041D01*
X168545512Y-67016466D01*
X168544817Y-67016182D01*
X168541727Y-67021836D01*
X168536987Y-67036915D01*
X168531445Y-67058593D01*
X168529352Y-67067757D01*
X168523672Y-67091819D01*
X168515353Y-67124980D01*
X168505168Y-67164312D01*
X168493888Y-67206884D01*
X168482288Y-67249767D01*
X168471140Y-67290034D01*
X168465032Y-67311567D01*
X168464710Y-67315952D01*
X168302770Y-67315952D01*
X168311472Y-67287487D01*
X168317968Y-67266243D01*
X168435554Y-66881774D01*
X168547146Y-66880062D01*
X168583342Y-66879770D01*
X168615176Y-66880011D01*
G37*
G36*
X167013559Y-66874759D02*
G01*
X167013710Y-66874769D01*
X167061692Y-66878848D01*
X167100604Y-66884675D01*
X167133837Y-66893000D01*
X167164785Y-66904576D01*
X167180004Y-66911594D01*
X167220231Y-66937038D01*
X167250879Y-66968526D01*
X167271916Y-67004380D01*
X167283311Y-67042922D01*
X167285034Y-67082476D01*
X167277053Y-67121363D01*
X167259338Y-67157905D01*
X167231857Y-67190425D01*
X167194579Y-67217244D01*
X167185749Y-67221873D01*
X167160237Y-67234495D01*
X167190817Y-67247604D01*
X167234603Y-67272406D01*
X167269339Y-67305091D01*
X167291710Y-67339769D01*
X167301228Y-67361340D01*
X167306610Y-67380920D01*
X167308937Y-67403786D01*
X167309328Y-67425789D01*
X167308645Y-67453718D01*
X167305772Y-67474734D01*
X167299469Y-67494392D01*
X167288882Y-67517464D01*
X167266860Y-67554255D01*
X167239875Y-67583068D01*
X167204909Y-67606782D01*
X167184046Y-67617365D01*
X167154319Y-67629893D01*
X167123878Y-67639521D01*
X167090412Y-67646628D01*
X167051606Y-67651591D01*
X167005150Y-67654788D01*
X166948730Y-67656599D01*
X166943613Y-67656697D01*
X166904946Y-67657247D01*
X166868905Y-67657464D01*
X166838037Y-67657353D01*
X166814888Y-67656924D01*
X166802953Y-67656291D01*
X166780584Y-67653675D01*
X166759410Y-67650678D01*
X166757630Y-67650389D01*
X166737312Y-67647021D01*
X166737312Y-67530191D01*
X166912355Y-67530191D01*
X166979559Y-67527628D01*
X167013014Y-67525836D01*
X167037263Y-67523057D01*
X167055595Y-67518712D01*
X167071302Y-67512221D01*
X167073578Y-67511056D01*
X167100165Y-67491048D01*
X167118413Y-67464761D01*
X167127858Y-67434835D01*
X167128035Y-67403910D01*
X167118477Y-67374627D01*
X167101564Y-67352236D01*
X167079158Y-67335087D01*
X167052026Y-67323095D01*
X167017686Y-67315469D01*
X166973656Y-67311418D01*
X166973308Y-67311401D01*
X166912355Y-67308332D01*
X166912355Y-67419262D01*
X166912355Y-67530191D01*
X166737312Y-67530191D01*
X166737312Y-67419262D01*
X166737312Y-67269755D01*
X166737342Y-67190783D01*
X166737349Y-67186427D01*
X166912355Y-67186427D01*
X166973308Y-67183767D01*
X167007316Y-67181482D01*
X167032224Y-67177678D01*
X167051401Y-67171732D01*
X167059874Y-67167771D01*
X167086674Y-67148075D01*
X167103617Y-67123544D01*
X167110661Y-67096477D01*
X167107763Y-67069175D01*
X167094882Y-67043939D01*
X167071975Y-67023069D01*
X167062630Y-67017745D01*
X167046754Y-67010834D01*
X167030103Y-67006577D01*
X167008991Y-67004390D01*
X166979730Y-67003691D01*
X166973546Y-67003679D01*
X166912355Y-67003679D01*
X166912355Y-67095053D01*
X166912355Y-67186427D01*
X166737349Y-67186427D01*
X166737447Y-67123409D01*
X166737548Y-67095053D01*
X166737649Y-67066731D01*
X166737970Y-67019843D01*
X166738433Y-66981842D01*
X166739059Y-66951823D01*
X166739872Y-66928883D01*
X166740893Y-66912117D01*
X166742145Y-66900622D01*
X166743650Y-66893492D01*
X166745430Y-66889825D01*
X166746697Y-66888887D01*
X166759302Y-66886231D01*
X166781937Y-66883541D01*
X166812130Y-66880948D01*
X166847408Y-66878584D01*
X166885300Y-66876578D01*
X166923333Y-66875062D01*
X166959036Y-66874167D01*
X166989935Y-66874022D01*
X167013559Y-66874759D01*
G37*
G36*
X169319463Y-66877528D02*
G01*
X169368908Y-66884009D01*
X169376792Y-66885551D01*
X169424003Y-66899895D01*
X169466909Y-66921662D01*
X169503284Y-66949281D01*
X169530904Y-66981182D01*
X169542824Y-67002806D01*
X169550529Y-67031204D01*
X169553079Y-67065312D01*
X169550607Y-67100007D01*
X169543248Y-67130167D01*
X169539237Y-67139298D01*
X169518230Y-67170412D01*
X169490754Y-67198014D01*
X169460939Y-67218085D01*
X169455827Y-67220506D01*
X169440964Y-67227933D01*
X169432483Y-67233856D01*
X169431725Y-67235199D01*
X169437103Y-67239335D01*
X169450560Y-67244787D01*
X169456339Y-67246632D01*
X169489165Y-67261938D01*
X169520673Y-67286401D01*
X169547319Y-67316876D01*
X169560811Y-67339343D01*
X169570423Y-67361062D01*
X169575864Y-67380621D01*
X169578227Y-67403321D01*
X169578636Y-67425789D01*
X169577954Y-67453718D01*
X169575080Y-67474734D01*
X169568777Y-67494392D01*
X169558190Y-67517464D01*
X169536168Y-67554255D01*
X169509184Y-67583068D01*
X169474217Y-67606782D01*
X169453354Y-67617365D01*
X169423627Y-67629893D01*
X169393187Y-67639521D01*
X169359720Y-67646628D01*
X169320915Y-67651591D01*
X169274458Y-67654788D01*
X169218039Y-67656599D01*
X169212921Y-67656697D01*
X169174255Y-67657247D01*
X169138214Y-67657464D01*
X169107345Y-67657353D01*
X169084196Y-67656924D01*
X169072262Y-67656291D01*
X169049893Y-67653675D01*
X169028719Y-67650678D01*
X169026938Y-67650389D01*
X169006621Y-67647021D01*
X169006621Y-67530191D01*
X169181664Y-67530191D01*
X169248868Y-67527628D01*
X169282322Y-67525836D01*
X169306571Y-67523057D01*
X169324903Y-67518712D01*
X169340610Y-67512221D01*
X169342886Y-67511056D01*
X169369473Y-67491048D01*
X169387722Y-67464761D01*
X169397167Y-67434835D01*
X169397343Y-67403910D01*
X169387785Y-67374627D01*
X169370872Y-67352236D01*
X169348680Y-67335342D01*
X169321511Y-67323440D01*
X169286953Y-67315763D01*
X169242784Y-67311554D01*
X169181664Y-67308186D01*
X169181664Y-67419188D01*
X169181664Y-67530191D01*
X169006621Y-67530191D01*
X169006621Y-67419188D01*
X169006621Y-67269755D01*
X169006650Y-67190783D01*
X169006657Y-67186427D01*
X169181664Y-67186427D01*
X169242616Y-67183767D01*
X169276625Y-67181482D01*
X169301533Y-67177678D01*
X169320709Y-67171732D01*
X169329183Y-67167771D01*
X169355982Y-67148075D01*
X169372925Y-67123544D01*
X169379969Y-67096477D01*
X169377072Y-67069175D01*
X169364190Y-67043939D01*
X169341283Y-67023069D01*
X169331939Y-67017745D01*
X169316062Y-67010834D01*
X169299412Y-67006577D01*
X169278300Y-67004390D01*
X169249039Y-67003691D01*
X169242854Y-67003679D01*
X169181664Y-67003679D01*
X169181664Y-67095053D01*
X169181664Y-67186427D01*
X169006657Y-67186427D01*
X169006755Y-67123409D01*
X169006856Y-67095053D01*
X169006957Y-67066731D01*
X169007278Y-67019843D01*
X169007741Y-66981842D01*
X169008368Y-66951823D01*
X169009180Y-66928883D01*
X169010202Y-66912117D01*
X169011454Y-66900622D01*
X169012959Y-66893492D01*
X169014739Y-66889825D01*
X169016005Y-66888887D01*
X169025237Y-66887211D01*
X169044567Y-66884943D01*
X169071617Y-66882321D01*
X169104011Y-66879584D01*
X169123844Y-66878072D01*
X169194659Y-66874493D01*
X169260623Y-66874334D01*
X169319463Y-66877528D01*
G37*
G36*
X165391632Y-63099763D02*
G01*
X165406721Y-63108945D01*
X165428872Y-63122957D01*
X165456420Y-63140743D01*
X165487696Y-63161247D01*
X165491366Y-63163671D01*
X165593006Y-63230875D01*
X165593361Y-64290511D01*
X165593717Y-65350147D01*
X165885758Y-65516488D01*
X166177799Y-65682829D01*
X166179444Y-65471177D01*
X166181089Y-65259524D01*
X166151752Y-65223566D01*
X166095390Y-65146953D01*
X166043152Y-65061172D01*
X165996498Y-64969273D01*
X165956886Y-64874304D01*
X165925774Y-64779313D01*
X165911240Y-64721033D01*
X165903846Y-64677352D01*
X165898478Y-64625972D01*
X165895240Y-64570546D01*
X165894240Y-64514727D01*
X165895582Y-64462166D01*
X165899371Y-64416516D01*
X165901941Y-64398977D01*
X165920845Y-64320555D01*
X165948776Y-64248828D01*
X165985112Y-64184538D01*
X166029232Y-64128422D01*
X166080511Y-64081221D01*
X166138329Y-64043673D01*
X166202061Y-64016519D01*
X166230938Y-64008269D01*
X166263577Y-64002990D01*
X166304382Y-64000472D01*
X166349347Y-64000610D01*
X166394467Y-64003301D01*
X166435737Y-64008441D01*
X166463483Y-64014298D01*
X166555370Y-64045169D01*
X166643380Y-64087308D01*
X166727959Y-64140991D01*
X166809552Y-64206492D01*
X166871816Y-64266386D01*
X166951659Y-64357206D01*
X167021561Y-64453899D01*
X167081086Y-64555535D01*
X167129800Y-64661189D01*
X167167268Y-64769931D01*
X167193056Y-64880833D01*
X167205696Y-64978912D01*
X167208061Y-65074570D01*
X167199510Y-65165594D01*
X167180152Y-65251333D01*
X167150095Y-65331136D01*
X167145846Y-65340134D01*
X167131000Y-65369137D01*
X167116420Y-65392786D01*
X167099283Y-65414946D01*
X167076767Y-65439483D01*
X167063364Y-65453095D01*
X167026601Y-65487534D01*
X166993839Y-65512868D01*
X166967079Y-65528748D01*
X166924905Y-65550196D01*
X166925036Y-65837767D01*
X166925167Y-66125338D01*
X167171948Y-66268499D01*
X167418730Y-66411661D01*
X167418730Y-66535753D01*
X167418730Y-66659844D01*
X167370280Y-66659013D01*
X167339023Y-66657860D01*
X167302979Y-66655621D01*
X167269763Y-66652771D01*
X167268693Y-66652661D01*
X167092199Y-66628321D01*
X166920626Y-66592487D01*
X166753955Y-66545152D01*
X166592168Y-66486308D01*
X166435246Y-66415947D01*
X166283171Y-66334063D01*
X166135925Y-66240647D01*
X165993489Y-66135692D01*
X165980876Y-66125657D01*
X165943193Y-66094059D01*
X165899847Y-66055343D01*
X165853116Y-66011738D01*
X165805274Y-65965471D01*
X165758596Y-65918772D01*
X165715358Y-65873868D01*
X165677836Y-65832987D01*
X165654981Y-65806509D01*
X165545672Y-65665869D01*
X165448042Y-65520786D01*
X165362052Y-65371167D01*
X165287659Y-65216922D01*
X165224823Y-65057960D01*
X165173503Y-64894189D01*
X165133657Y-64725518D01*
X165111898Y-64599962D01*
X165099049Y-64491756D01*
X165091051Y-64376322D01*
X165087966Y-64257772D01*
X165089855Y-64140219D01*
X165096780Y-64027777D01*
X165102510Y-63971683D01*
X165124199Y-63828702D01*
X165155427Y-63683161D01*
X165195226Y-63538684D01*
X165242624Y-63398894D01*
X165282433Y-63299642D01*
X165294696Y-63272101D01*
X165309100Y-63241229D01*
X165324638Y-63209013D01*
X165340307Y-63177438D01*
X165355099Y-63148491D01*
X165368011Y-63124158D01*
X165378036Y-63106425D01*
X165384169Y-63097278D01*
X165385275Y-63096467D01*
X165391632Y-63099763D01*
G37*
G36*
X169622775Y-63114561D02*
G01*
X169633121Y-63130153D01*
X169646800Y-63154483D01*
X169663073Y-63186151D01*
X169681199Y-63223757D01*
X169700438Y-63265899D01*
X169705678Y-63277762D01*
X169770566Y-63440921D01*
X169823245Y-63606493D01*
X169863682Y-63774091D01*
X169891844Y-63943326D01*
X169907699Y-64113811D01*
X169911214Y-64285156D01*
X169902357Y-64456975D01*
X169881095Y-64628879D01*
X169847394Y-64800480D01*
X169837348Y-64841993D01*
X169789984Y-65005367D01*
X169731077Y-65164812D01*
X169661087Y-65319614D01*
X169580476Y-65469062D01*
X169489702Y-65612440D01*
X169389229Y-65749037D01*
X169279515Y-65878139D01*
X169161022Y-65999033D01*
X169034210Y-66111005D01*
X168999526Y-66138890D01*
X168862662Y-66239161D01*
X168719280Y-66329626D01*
X168570281Y-66409940D01*
X168416568Y-66479757D01*
X168259043Y-66538731D01*
X168098609Y-66586517D01*
X167936167Y-66622769D01*
X167772619Y-66647140D01*
X167645849Y-66657629D01*
X167568767Y-66661750D01*
X167568767Y-66539527D01*
X167568767Y-66417304D01*
X167967302Y-66184569D01*
X168035776Y-66144587D01*
X168113326Y-66099313D01*
X168198229Y-66049754D01*
X168288759Y-65996917D01*
X168383192Y-65941806D01*
X168479804Y-65885430D01*
X168576870Y-65828793D01*
X168672665Y-65772904D01*
X168765466Y-65718766D01*
X168853547Y-65667388D01*
X168885292Y-65648873D01*
X169404746Y-65345912D01*
X169408845Y-65191741D01*
X169410094Y-65138169D01*
X169411105Y-65081324D01*
X169411882Y-65022519D01*
X169412428Y-64963068D01*
X169412745Y-64904284D01*
X169412838Y-64847479D01*
X169412709Y-64793967D01*
X169412361Y-64745062D01*
X169411799Y-64702076D01*
X169411024Y-64666323D01*
X169410040Y-64639116D01*
X169408850Y-64621768D01*
X169407458Y-64615592D01*
X169407440Y-64615591D01*
X169400823Y-64618604D01*
X169384784Y-64627129D01*
X169360707Y-64640392D01*
X169329979Y-64657619D01*
X169293987Y-64678039D01*
X169254116Y-64700876D01*
X169240691Y-64708611D01*
X169079473Y-64801631D01*
X169040710Y-64910223D01*
X169022553Y-64960534D01*
X169007364Y-65001109D01*
X168994208Y-65034091D01*
X168982148Y-65061622D01*
X168970251Y-65085845D01*
X168957581Y-65108901D01*
X168944282Y-65131182D01*
X168886578Y-65216173D01*
X168822360Y-65294378D01*
X168752684Y-65365002D01*
X168678611Y-65427251D01*
X168601199Y-65480330D01*
X168521505Y-65523445D01*
X168440590Y-65555801D01*
X168359511Y-65576605D01*
X168348129Y-65578563D01*
X168289548Y-65583975D01*
X168227900Y-65582563D01*
X168168059Y-65574673D01*
X168119826Y-65562335D01*
X168054589Y-65534547D01*
X167997167Y-65497094D01*
X167947521Y-65449930D01*
X167905614Y-65393008D01*
X167871409Y-65326281D01*
X167844869Y-65249702D01*
X167834086Y-65205981D01*
X167828385Y-65169358D01*
X167824723Y-65123892D01*
X167823104Y-65073076D01*
X167823533Y-65020403D01*
X167826016Y-64969365D01*
X167830555Y-64923457D01*
X167833662Y-64903162D01*
X167859244Y-64789857D01*
X167895022Y-64678930D01*
X167940224Y-64571784D01*
X167994080Y-64469820D01*
X168055817Y-64374440D01*
X168124664Y-64287044D01*
X168199849Y-64209035D01*
X168231132Y-64181109D01*
X168309352Y-64120326D01*
X168388319Y-64070638D01*
X168467492Y-64032192D01*
X168546328Y-64005132D01*
X168624286Y-63989603D01*
X168700824Y-63985752D01*
X168775399Y-63993722D01*
X168847471Y-64013661D01*
X168850840Y-64014915D01*
X168875782Y-64027239D01*
X168905918Y-64046805D01*
X168938083Y-64071555D01*
X168938361Y-64071786D01*
X168961221Y-64090408D01*
X168981762Y-64106473D01*
X168997365Y-64117967D01*
X169004261Y-64122384D01*
X169009377Y-64123724D01*
X169016960Y-64122941D01*
X169028231Y-64119495D01*
X169044416Y-64112843D01*
X169066735Y-64102446D01*
X169096412Y-64087762D01*
X169134670Y-64068249D01*
X169182430Y-64043523D01*
X169225739Y-64020991D01*
X169266848Y-63999572D01*
X169304049Y-63980159D01*
X169335632Y-63963646D01*
X169359889Y-63950924D01*
X169375112Y-63942886D01*
X169376973Y-63941892D01*
X169406617Y-63925990D01*
X169408231Y-63573040D01*
X169409845Y-63220089D01*
X169509869Y-63164667D01*
X169542098Y-63146994D01*
X169570744Y-63131635D01*
X169593949Y-63119557D01*
X169609859Y-63111728D01*
X169616504Y-63109107D01*
X169622775Y-63114561D01*
G37*
G36*
X167579549Y-61844419D02*
G01*
X167650175Y-61846644D01*
X167715390Y-61850734D01*
X167778708Y-61856975D01*
X167843642Y-61865655D01*
X167913704Y-61877059D01*
X167918853Y-61877960D01*
X168084990Y-61913447D01*
X168248037Y-61960792D01*
X168407295Y-62019583D01*
X168562067Y-62089406D01*
X168711658Y-62169848D01*
X168855368Y-62260496D01*
X168992503Y-62360936D01*
X169122363Y-62470757D01*
X169244253Y-62589544D01*
X169357474Y-62716884D01*
X169379053Y-62743387D01*
X169401942Y-62772674D01*
X169426337Y-62805189D01*
X169451196Y-62839399D01*
X169475474Y-62873768D01*
X169498130Y-62906763D01*
X169518118Y-62936849D01*
X169534396Y-62962491D01*
X169545921Y-62982157D01*
X169551648Y-62994311D01*
X169551816Y-62997415D01*
X169545144Y-63001656D01*
X169529333Y-63010849D01*
X169506218Y-63023954D01*
X169477633Y-63039928D01*
X169448418Y-63056079D01*
X169412732Y-63075560D01*
X169386191Y-63089549D01*
X169367086Y-63098753D01*
X169353706Y-63103881D01*
X169344338Y-63105640D01*
X169337272Y-63104738D01*
X169333923Y-63103445D01*
X169327144Y-63099862D01*
X169312645Y-63091754D01*
X169290171Y-63078973D01*
X169259465Y-63061369D01*
X169220272Y-63038797D01*
X169172337Y-63011107D01*
X169115405Y-62978151D01*
X169049219Y-62939782D01*
X168973524Y-62895852D01*
X168888065Y-62846213D01*
X168792587Y-62790717D01*
X168686833Y-62729217D01*
X168570548Y-62661563D01*
X168565887Y-62658851D01*
X168542391Y-62645183D01*
X168509480Y-62626044D01*
X168468549Y-62602246D01*
X168420994Y-62574600D01*
X168368211Y-62543917D01*
X168311595Y-62511009D01*
X168252541Y-62476686D01*
X168192445Y-62441760D01*
X168165789Y-62426269D01*
X168101853Y-62389114D01*
X168035251Y-62350410D01*
X167967868Y-62311251D01*
X167901586Y-62272732D01*
X167838288Y-62235948D01*
X167779858Y-62201992D01*
X167728178Y-62171959D01*
X167685133Y-62146943D01*
X167679339Y-62143576D01*
X167499215Y-62038898D01*
X167282366Y-62162515D01*
X167230092Y-62192295D01*
X167177140Y-62222424D01*
X167125441Y-62251806D01*
X167076924Y-62279347D01*
X167033521Y-62303949D01*
X166997162Y-62324517D01*
X166970320Y-62339651D01*
X166939422Y-62357187D01*
X166912695Y-62372673D01*
X166891897Y-62385064D01*
X166878784Y-62393316D01*
X166874993Y-62396295D01*
X166879941Y-62400543D01*
X166893686Y-62410238D01*
X166914441Y-62424171D01*
X166940419Y-62441134D01*
X166957688Y-62452211D01*
X166991006Y-62473449D01*
X167025132Y-62495204D01*
X167056629Y-62515284D01*
X167082057Y-62531499D01*
X167088022Y-62535302D01*
X167135532Y-62565603D01*
X167209927Y-62552926D01*
X167274169Y-62542683D01*
X167330505Y-62535412D01*
X167383075Y-62530735D01*
X167436018Y-62528269D01*
X167485614Y-62527629D01*
X167593377Y-62531971D01*
X167696124Y-62544892D01*
X167793163Y-62566041D01*
X167883804Y-62595066D01*
X167967352Y-62631617D01*
X168043118Y-62675343D01*
X168110408Y-62725893D01*
X168168531Y-62782916D01*
X168216796Y-62846062D01*
X168254509Y-62914979D01*
X168255986Y-62918298D01*
X168275632Y-62974589D01*
X168288214Y-63036197D01*
X168293331Y-63099179D01*
X168290583Y-63159590D01*
X168284206Y-63196397D01*
X168262552Y-63261724D01*
X168229308Y-63325005D01*
X168185327Y-63385445D01*
X168131457Y-63442248D01*
X168068551Y-63494620D01*
X167997458Y-63541766D01*
X167919031Y-63582891D01*
X167834119Y-63617199D01*
X167833664Y-63617358D01*
X167745248Y-63643118D01*
X167649197Y-63661804D01*
X167565641Y-63671516D01*
X167532762Y-63674123D01*
X167506927Y-63675787D01*
X167484627Y-63676502D01*
X167462349Y-63676265D01*
X167436585Y-63675071D01*
X167403822Y-63672915D01*
X167381221Y-63671295D01*
X167280263Y-63660044D01*
X167182858Y-63641468D01*
X167089874Y-63616072D01*
X167002182Y-63584357D01*
X166920651Y-63546828D01*
X166846153Y-63503987D01*
X166779557Y-63456337D01*
X166721734Y-63404382D01*
X166673553Y-63348623D01*
X166635885Y-63289566D01*
X166609599Y-63227711D01*
X166608620Y-63224622D01*
X166602555Y-63204260D01*
X166598319Y-63186601D01*
X166595650Y-63168781D01*
X166594282Y-63147932D01*
X166593953Y-63121188D01*
X166594399Y-63085681D01*
X166594647Y-63072788D01*
X166596653Y-62972207D01*
X166549766Y-62944677D01*
X166530847Y-62933530D01*
X166503383Y-62917299D01*
X166469579Y-62897288D01*
X166431638Y-62874801D01*
X166391762Y-62851144D01*
X166369392Y-62837862D01*
X166235904Y-62758577D01*
X165978670Y-62916168D01*
X165926171Y-62948330D01*
X165876025Y-62979049D01*
X165829424Y-63007594D01*
X165787561Y-63033235D01*
X165751629Y-63055241D01*
X165722820Y-63072881D01*
X165702327Y-63085427D01*
X165691545Y-63092022D01*
X165661653Y-63110286D01*
X165558700Y-63045766D01*
X165526904Y-63025579D01*
X165499096Y-63007422D01*
X165476897Y-62992398D01*
X165461928Y-62981604D01*
X165455810Y-62976143D01*
X165455747Y-62975916D01*
X165459287Y-62968112D01*
X165469137Y-62951939D01*
X165484141Y-62929058D01*
X165503144Y-62901128D01*
X165524989Y-62869811D01*
X165548522Y-62836766D01*
X165572587Y-62803655D01*
X165596029Y-62772138D01*
X165613309Y-62749507D01*
X165638598Y-62718621D01*
X165671319Y-62681323D01*
X165709592Y-62639542D01*
X165751536Y-62595207D01*
X165795270Y-62550247D01*
X165838911Y-62506590D01*
X165880580Y-62466166D01*
X165918394Y-62430904D01*
X165950473Y-62402732D01*
X165955870Y-62398254D01*
X166095469Y-62291589D01*
X166240807Y-62195720D01*
X166391399Y-62110895D01*
X166546756Y-62037356D01*
X166706395Y-61975351D01*
X166869827Y-61925125D01*
X166918929Y-61912536D01*
X167023650Y-61888821D01*
X167122949Y-61870612D01*
X167220571Y-61857463D01*
X167320263Y-61848932D01*
X167425769Y-61844575D01*
X167500000Y-61843771D01*
X167579549Y-61844419D01*
G37*
G36*
X191972245Y-66881230D02*
G01*
X191972245Y-66935561D01*
X185452459Y-66935561D01*
X178932673Y-66935561D01*
X178932673Y-66881230D01*
X178932673Y-66826898D01*
X185452459Y-66826898D01*
X191972245Y-66826898D01*
X191972245Y-66881230D01*
G37*
G36*
X192080908Y-63308930D02*
G01*
X192080908Y-63363262D01*
X185533956Y-63363262D01*
X178987005Y-63363262D01*
X178987005Y-63308930D01*
X178987005Y-63254599D01*
X185533956Y-63254599D01*
X192080908Y-63254599D01*
X192080908Y-63308930D01*
G37*
G36*
X188318448Y-65054963D02*
G01*
X188318337Y-65234034D01*
X188318014Y-65405128D01*
X188317496Y-65566324D01*
X188316798Y-65715702D01*
X188315938Y-65851340D01*
X188314930Y-65971318D01*
X188313790Y-66073714D01*
X188312536Y-66156610D01*
X188311184Y-66218083D01*
X188309748Y-66256212D01*
X188308261Y-66269081D01*
X188289263Y-66262996D01*
X188267513Y-66253422D01*
X188236951Y-66238683D01*
X188237037Y-65062443D01*
X188237123Y-63886203D01*
X188277786Y-63863065D01*
X188318448Y-63839927D01*
X188318448Y-65054963D01*
G37*
G36*
X188155419Y-63906517D02*
G01*
X188156411Y-63921468D01*
X188157277Y-63961589D01*
X188158013Y-64024882D01*
X188158613Y-64109351D01*
X188159071Y-64213000D01*
X188159382Y-64333832D01*
X188159540Y-64469850D01*
X188159539Y-64619059D01*
X188159375Y-64779462D01*
X188159040Y-64949061D01*
X188158698Y-65073404D01*
X188157970Y-65285477D01*
X188157154Y-65471791D01*
X188156224Y-65633752D01*
X188155156Y-65772768D01*
X188153924Y-65890245D01*
X188152505Y-65987590D01*
X188150873Y-66066209D01*
X188149003Y-66127509D01*
X188146870Y-66172897D01*
X188144451Y-66203780D01*
X188141719Y-66221564D01*
X188138650Y-66227655D01*
X188138324Y-66227676D01*
X188110766Y-66222968D01*
X188097726Y-66219888D01*
X188093521Y-66217624D01*
X188089842Y-66212036D01*
X188086653Y-66201423D01*
X188083921Y-66184081D01*
X188081609Y-66158308D01*
X188079683Y-66122400D01*
X188078109Y-66074656D01*
X188076850Y-66013373D01*
X188075873Y-65936847D01*
X188075142Y-65843377D01*
X188074622Y-65731258D01*
X188074278Y-65598789D01*
X188074076Y-65444267D01*
X188073981Y-65265989D01*
X188073956Y-65062252D01*
X188073956Y-65061710D01*
X188073956Y-63909744D01*
X188111275Y-63902611D01*
X188140634Y-63900911D01*
X188155419Y-63906517D01*
G37*
G36*
X188671421Y-63502055D02*
G01*
X188698397Y-63507921D01*
X188710065Y-63520906D01*
X188712352Y-63540163D01*
X188708361Y-63558720D01*
X188693556Y-63573686D01*
X188663689Y-63587112D01*
X188614511Y-63601050D01*
X188560491Y-63613493D01*
X188474768Y-63637483D01*
X188411431Y-63668176D01*
X188365983Y-63708351D01*
X188338823Y-63750495D01*
X188311657Y-63804706D01*
X188262686Y-63780756D01*
X188204868Y-63761999D01*
X188128902Y-63750732D01*
X188042713Y-63746823D01*
X187954229Y-63750139D01*
X187871375Y-63760545D01*
X187802076Y-63777910D01*
X187775426Y-63788941D01*
X187750245Y-63799470D01*
X187736242Y-63794287D01*
X187724416Y-63768778D01*
X187721730Y-63761410D01*
X187698821Y-63721508D01*
X187659405Y-63687159D01*
X187600545Y-63656708D01*
X187519310Y-63628501D01*
X187455205Y-63611108D01*
X187390713Y-63594542D01*
X187348144Y-63582023D01*
X187322978Y-63571385D01*
X187310693Y-63560461D01*
X187306767Y-63547084D01*
X187306523Y-63539840D01*
X187306523Y-63505882D01*
X187931336Y-63503303D01*
X188061638Y-63502771D01*
X188185665Y-63502274D01*
X188300339Y-63501825D01*
X188402581Y-63501435D01*
X188489313Y-63501116D01*
X188557455Y-63500879D01*
X188603930Y-63500736D01*
X188623241Y-63500696D01*
X188671421Y-63502055D01*
G37*
G36*
X187768578Y-63856608D02*
G01*
X187787552Y-63865206D01*
X187815882Y-63880367D01*
X187815882Y-65061123D01*
X187815868Y-65267266D01*
X187815802Y-65447945D01*
X187815647Y-65604861D01*
X187815365Y-65739716D01*
X187814919Y-65854211D01*
X187814271Y-65950048D01*
X187813384Y-66028928D01*
X187812220Y-66092552D01*
X187810743Y-66142623D01*
X187808914Y-66180842D01*
X187806696Y-66208909D01*
X187804052Y-66228527D01*
X187800944Y-66241398D01*
X187797336Y-66249222D01*
X187793188Y-66253701D01*
X187789609Y-66255939D01*
X187765396Y-66267229D01*
X187755652Y-66270000D01*
X187754484Y-66256742D01*
X187753335Y-66218272D01*
X187752220Y-66156540D01*
X187751155Y-66073500D01*
X187750154Y-65971103D01*
X187749233Y-65851304D01*
X187748407Y-65716052D01*
X187747692Y-65567303D01*
X187747103Y-65407007D01*
X187746655Y-65237117D01*
X187746403Y-65091684D01*
X187746135Y-64880649D01*
X187745933Y-64695131D01*
X187745810Y-64533479D01*
X187745776Y-64394046D01*
X187745843Y-64275181D01*
X187746021Y-64175236D01*
X187746324Y-64092561D01*
X187746761Y-64025507D01*
X187747345Y-63972425D01*
X187748086Y-63931665D01*
X187748996Y-63901578D01*
X187750086Y-63880515D01*
X187751368Y-63866828D01*
X187752853Y-63858865D01*
X187754553Y-63854979D01*
X187754923Y-63854541D01*
X187768578Y-63856608D01*
G37*
G36*
X188320742Y-66326896D02*
G01*
X188325926Y-66341547D01*
X188347041Y-66380692D01*
X188383699Y-66422749D01*
X188427193Y-66458386D01*
X188444653Y-66468804D01*
X188473786Y-66480407D01*
X188521738Y-66495720D01*
X188580844Y-66512402D01*
X188621231Y-66522775D01*
X188702154Y-66544227D01*
X188759285Y-66563424D01*
X188795715Y-66582008D01*
X188814537Y-66601618D01*
X188818844Y-66623896D01*
X188818452Y-66627409D01*
X188814224Y-66657112D01*
X188081883Y-66657277D01*
X187916681Y-66657202D01*
X187776699Y-66656864D01*
X187659990Y-66656218D01*
X187564609Y-66655217D01*
X187488610Y-66653814D01*
X187430048Y-66651963D01*
X187386977Y-66649617D01*
X187357451Y-66646730D01*
X187339525Y-66643255D01*
X187331428Y-66639328D01*
X187313523Y-66609844D01*
X187321635Y-66582844D01*
X187356065Y-66558074D01*
X187417117Y-66535278D01*
X187471312Y-66521378D01*
X187569400Y-66490597D01*
X187643793Y-66447740D01*
X187695416Y-66392210D01*
X187709033Y-66368124D01*
X187730708Y-66331048D01*
X187747623Y-66319737D01*
X187752802Y-66321892D01*
X187797014Y-66343881D01*
X187861139Y-66359947D01*
X187938554Y-66369985D01*
X188022635Y-66373890D01*
X188106760Y-66371557D01*
X188184305Y-66362879D01*
X188248649Y-66347753D01*
X188287047Y-66330378D01*
X188309584Y-66318850D01*
X188320742Y-66326896D01*
G37*
G36*
X179183956Y-67289018D02*
G01*
X179139812Y-67323809D01*
X179095668Y-67358600D01*
X179095668Y-67648877D01*
X179095756Y-67744764D01*
X179096255Y-67817130D01*
X179097519Y-67869622D01*
X179099901Y-67905886D01*
X179103755Y-67929567D01*
X179109433Y-67944311D01*
X179117290Y-67953764D01*
X179125856Y-67960299D01*
X179157528Y-67976453D01*
X179180187Y-67981444D01*
X179200562Y-67987762D01*
X179204331Y-67995027D01*
X179191417Y-68001337D01*
X179155285Y-68005899D01*
X179099849Y-68008321D01*
X179068502Y-68008610D01*
X179005402Y-68007318D01*
X178959783Y-68003705D01*
X178935556Y-67998161D01*
X178932673Y-67995027D01*
X178943920Y-67983609D01*
X178957122Y-67981444D01*
X178975045Y-67979852D01*
X178988777Y-67972964D01*
X178998872Y-67957610D01*
X179005883Y-67930619D01*
X179010365Y-67888822D01*
X179012871Y-67829048D01*
X179013954Y-67748127D01*
X179014170Y-67654843D01*
X179013996Y-67557370D01*
X179013285Y-67483449D01*
X179011753Y-67429466D01*
X179009116Y-67391809D01*
X179005092Y-67366866D01*
X178999396Y-67351022D01*
X178991745Y-67340665D01*
X178989331Y-67338362D01*
X178961025Y-67320662D01*
X178941791Y-67315882D01*
X178922269Y-67309210D01*
X178919090Y-67302299D01*
X178931987Y-67295947D01*
X178968009Y-67291406D01*
X179023149Y-67289083D01*
X179051523Y-67288867D01*
X179183956Y-67289018D01*
G37*
G36*
X184345454Y-67289018D02*
G01*
X184301309Y-67323809D01*
X184257165Y-67358600D01*
X184257165Y-67648877D01*
X184257253Y-67744764D01*
X184257752Y-67817130D01*
X184259016Y-67869622D01*
X184261398Y-67905886D01*
X184265252Y-67929567D01*
X184270931Y-67944311D01*
X184278788Y-67953764D01*
X184287353Y-67960299D01*
X184319025Y-67976453D01*
X184341685Y-67981444D01*
X184362060Y-67987762D01*
X184365828Y-67995027D01*
X184352914Y-68001337D01*
X184316783Y-68005899D01*
X184261346Y-68008321D01*
X184229999Y-68008610D01*
X184166900Y-68007318D01*
X184121280Y-68003705D01*
X184097053Y-67998161D01*
X184094170Y-67995027D01*
X184105417Y-67983609D01*
X184118620Y-67981444D01*
X184136543Y-67979852D01*
X184150275Y-67972964D01*
X184160369Y-67957610D01*
X184167381Y-67930619D01*
X184171862Y-67888822D01*
X184174368Y-67829048D01*
X184175451Y-67748127D01*
X184175668Y-67654843D01*
X184175494Y-67557370D01*
X184174782Y-67483449D01*
X184173250Y-67429466D01*
X184170614Y-67391809D01*
X184166589Y-67366866D01*
X184160894Y-67351022D01*
X184153243Y-67340665D01*
X184150828Y-67338362D01*
X184122522Y-67320662D01*
X184103288Y-67315882D01*
X184083767Y-67309210D01*
X184080587Y-67302299D01*
X184093485Y-67295947D01*
X184129506Y-67291406D01*
X184184646Y-67289083D01*
X184213021Y-67288867D01*
X184345454Y-67289018D01*
G37*
G36*
X187918864Y-63898333D02*
G01*
X187951349Y-63905571D01*
X187966404Y-63906577D01*
X187971000Y-63907174D01*
X187975021Y-63910098D01*
X187978506Y-63917047D01*
X187981493Y-63929724D01*
X187984021Y-63949826D01*
X187986127Y-63979055D01*
X187987850Y-64019109D01*
X187989229Y-64071689D01*
X187990301Y-64138495D01*
X187991106Y-64221226D01*
X187991681Y-64321582D01*
X187992065Y-64441264D01*
X187992297Y-64581970D01*
X187992414Y-64745402D01*
X187992455Y-64933258D01*
X187992459Y-65061123D01*
X187992384Y-65272569D01*
X187992147Y-65458283D01*
X187991724Y-65619700D01*
X187991097Y-65758253D01*
X187990242Y-65875376D01*
X187989140Y-65972503D01*
X187987770Y-66051068D01*
X187986109Y-66112504D01*
X187984138Y-66158246D01*
X187981835Y-66189727D01*
X187979179Y-66208381D01*
X187976148Y-66215642D01*
X187975480Y-66215854D01*
X187949276Y-66219359D01*
X187927940Y-66224229D01*
X187897379Y-66232420D01*
X187897379Y-65061254D01*
X187897412Y-64855039D01*
X187897533Y-64674346D01*
X187897771Y-64517529D01*
X187898158Y-64382944D01*
X187898722Y-64268946D01*
X187899495Y-64173890D01*
X187900508Y-64096132D01*
X187901790Y-64034027D01*
X187903372Y-63985930D01*
X187905284Y-63950198D01*
X187907557Y-63925184D01*
X187910220Y-63909245D01*
X187913306Y-63900736D01*
X187916843Y-63898012D01*
X187918864Y-63898333D01*
G37*
G36*
X190335507Y-67289018D02*
G01*
X190291363Y-67323809D01*
X190247218Y-67358600D01*
X190247218Y-67648877D01*
X190247306Y-67744764D01*
X190247806Y-67817130D01*
X190249070Y-67869622D01*
X190251452Y-67905886D01*
X190255305Y-67929567D01*
X190260984Y-67944311D01*
X190268841Y-67953764D01*
X190277407Y-67960299D01*
X190309078Y-67976453D01*
X190331738Y-67981444D01*
X190352113Y-67987762D01*
X190355882Y-67995027D01*
X190342968Y-68001337D01*
X190306836Y-68005899D01*
X190251400Y-68008321D01*
X190220053Y-68008610D01*
X190156953Y-68007318D01*
X190111333Y-68003705D01*
X190087107Y-67998161D01*
X190084224Y-67995027D01*
X190095471Y-67983609D01*
X190108673Y-67981444D01*
X190126596Y-67979852D01*
X190140328Y-67972964D01*
X190150423Y-67957610D01*
X190157434Y-67930619D01*
X190161916Y-67888822D01*
X190164421Y-67829048D01*
X190165505Y-67748127D01*
X190165721Y-67654843D01*
X190165547Y-67557370D01*
X190164836Y-67483449D01*
X190163304Y-67429466D01*
X190160667Y-67391809D01*
X190156643Y-67366866D01*
X190150947Y-67351022D01*
X190143296Y-67340665D01*
X190140882Y-67338362D01*
X190112576Y-67320662D01*
X190093341Y-67315882D01*
X190073820Y-67309210D01*
X190070641Y-67302299D01*
X190083538Y-67295947D01*
X190119559Y-67291406D01*
X190174699Y-67289083D01*
X190203074Y-67288867D01*
X190335507Y-67289018D01*
G37*
G36*
X183751092Y-67288737D02*
G01*
X183829918Y-67289336D01*
X183887792Y-67291322D01*
X183927820Y-67295505D01*
X183953108Y-67302691D01*
X183966763Y-67313690D01*
X183971892Y-67329309D01*
X183971599Y-67350357D01*
X183969486Y-67372317D01*
X183965133Y-67417754D01*
X183944615Y-67377005D01*
X183933653Y-67357429D01*
X183920683Y-67345184D01*
X183899459Y-67338265D01*
X183863739Y-67334670D01*
X183807277Y-67332394D01*
X183805390Y-67332332D01*
X183686684Y-67328408D01*
X183686684Y-67642523D01*
X183686684Y-67956638D01*
X183727432Y-67972019D01*
X183758494Y-67986338D01*
X183764880Y-67996873D01*
X183745974Y-68003903D01*
X183701155Y-68007705D01*
X183645935Y-68008610D01*
X183587360Y-68007185D01*
X183545576Y-68003241D01*
X183525043Y-67997274D01*
X183523689Y-67995027D01*
X183534936Y-67983609D01*
X183548138Y-67981444D01*
X183565687Y-67979956D01*
X183579226Y-67973424D01*
X183589271Y-67958748D01*
X183596340Y-67932826D01*
X183600948Y-67892556D01*
X183603614Y-67834839D01*
X183604853Y-67756573D01*
X183605183Y-67654656D01*
X183605186Y-67639155D01*
X183605186Y-67329465D01*
X183499919Y-67329673D01*
X183438871Y-67330813D01*
X183398940Y-67335513D01*
X183374103Y-67346135D01*
X183358339Y-67365036D01*
X183347581Y-67389353D01*
X183334414Y-67417063D01*
X183326432Y-67419233D01*
X183324269Y-67397104D01*
X183328539Y-67352059D01*
X183337221Y-67288717D01*
X183648208Y-67288717D01*
X183751092Y-67288737D01*
G37*
G36*
X181518350Y-67284548D02*
G01*
X181562301Y-67291691D01*
X181602680Y-67306764D01*
X181633905Y-67322821D01*
X181710802Y-67376433D01*
X181765092Y-67441986D01*
X181798227Y-67522103D01*
X181811658Y-67619408D01*
X181812112Y-67644831D01*
X181801396Y-67747363D01*
X181768843Y-67834911D01*
X181713407Y-67909982D01*
X181692940Y-67929741D01*
X181619017Y-67979132D01*
X181531044Y-68009900D01*
X181436165Y-68020414D01*
X181343636Y-68009555D01*
X181250601Y-67975107D01*
X181177037Y-67921923D01*
X181123548Y-67850810D01*
X181090738Y-67762579D01*
X181079210Y-67658036D01*
X181079200Y-67655454D01*
X181084696Y-67598504D01*
X181146982Y-67598504D01*
X181152636Y-67692937D01*
X181171908Y-67770673D01*
X181207164Y-67839738D01*
X181225833Y-67866156D01*
X181287277Y-67928744D01*
X181359512Y-67972165D01*
X181437202Y-67994555D01*
X181515011Y-67994051D01*
X181558569Y-67982354D01*
X181608302Y-67953465D01*
X181658897Y-67907916D01*
X181701624Y-67854463D01*
X181721306Y-67819042D01*
X181745515Y-67734767D01*
X181748246Y-67646367D01*
X181731546Y-67558826D01*
X181697464Y-67477128D01*
X181648051Y-67406255D01*
X181585353Y-67351192D01*
X181515344Y-67318063D01*
X181423188Y-67302180D01*
X181340193Y-67310733D01*
X181268853Y-67341822D01*
X181211665Y-67393548D01*
X181171123Y-67464010D01*
X181149722Y-67551310D01*
X181146982Y-67598504D01*
X181084696Y-67598504D01*
X181089087Y-67553012D01*
X181119941Y-67466220D01*
X181173008Y-67392043D01*
X181197108Y-67368457D01*
X181255015Y-67325227D01*
X181317997Y-67298231D01*
X181393560Y-67285011D01*
X181459090Y-67282638D01*
X181518350Y-67284548D01*
G37*
G36*
X184954821Y-67284548D02*
G01*
X184998772Y-67291691D01*
X185039151Y-67306764D01*
X185070376Y-67322821D01*
X185147273Y-67376433D01*
X185201563Y-67441986D01*
X185234697Y-67522103D01*
X185248129Y-67619408D01*
X185248583Y-67644831D01*
X185237866Y-67747363D01*
X185205314Y-67834911D01*
X185149878Y-67909982D01*
X185129411Y-67929741D01*
X185055488Y-67979132D01*
X184967514Y-68009900D01*
X184872636Y-68020414D01*
X184780106Y-68009555D01*
X184687071Y-67975107D01*
X184613508Y-67921923D01*
X184560019Y-67850810D01*
X184527209Y-67762579D01*
X184515681Y-67658036D01*
X184515671Y-67655454D01*
X184521167Y-67598504D01*
X184583453Y-67598504D01*
X184589106Y-67692937D01*
X184608379Y-67770673D01*
X184643635Y-67839738D01*
X184662304Y-67866156D01*
X184723747Y-67928744D01*
X184795983Y-67972165D01*
X184873673Y-67994555D01*
X184951481Y-67994051D01*
X184995039Y-67982354D01*
X185044773Y-67953465D01*
X185095367Y-67907916D01*
X185138095Y-67854463D01*
X185157777Y-67819042D01*
X185181986Y-67734767D01*
X185184716Y-67646367D01*
X185168016Y-67558826D01*
X185133935Y-67477128D01*
X185084521Y-67406255D01*
X185021824Y-67351192D01*
X184951815Y-67318063D01*
X184859659Y-67302180D01*
X184776663Y-67310733D01*
X184705324Y-67341822D01*
X184648136Y-67393548D01*
X184607594Y-67464010D01*
X184586193Y-67551310D01*
X184583453Y-67598504D01*
X184521167Y-67598504D01*
X184525558Y-67553012D01*
X184556412Y-67466220D01*
X184609479Y-67392043D01*
X184633579Y-67368457D01*
X184691486Y-67325227D01*
X184754468Y-67298231D01*
X184830030Y-67285011D01*
X184895561Y-67282638D01*
X184954821Y-67284548D01*
G37*
G36*
X190177780Y-62008186D02*
G01*
X190620748Y-62011765D01*
X190624795Y-62104798D01*
X190625806Y-62155485D01*
X190622887Y-62183355D01*
X190615392Y-62192557D01*
X190611212Y-62192023D01*
X190595993Y-62175467D01*
X190589226Y-62153321D01*
X190582227Y-62126561D01*
X190566746Y-62107895D01*
X190538632Y-62095949D01*
X190493734Y-62089350D01*
X190427901Y-62086723D01*
X190387243Y-62086471D01*
X190233636Y-62086471D01*
X190233844Y-62504144D01*
X190234209Y-62608438D01*
X190235145Y-62704215D01*
X190236571Y-62788033D01*
X190238405Y-62856449D01*
X190240566Y-62906019D01*
X190242974Y-62933300D01*
X190244031Y-62937270D01*
X190262114Y-62951890D01*
X190295094Y-62969552D01*
X190307031Y-62974801D01*
X190337250Y-62990177D01*
X190351105Y-63002977D01*
X190350521Y-63006412D01*
X190333240Y-63011040D01*
X190296255Y-63014230D01*
X190245751Y-63016036D01*
X190187917Y-63016514D01*
X190128940Y-63015718D01*
X190075006Y-63013705D01*
X190032304Y-63010528D01*
X190007021Y-63006244D01*
X190002775Y-63003315D01*
X190013717Y-62989095D01*
X190041128Y-62969682D01*
X190053699Y-62962546D01*
X190104598Y-62935359D01*
X190108187Y-62510915D01*
X190111777Y-62086471D01*
X189965567Y-62086679D01*
X189903589Y-62087896D01*
X189850592Y-62091026D01*
X189813177Y-62095555D01*
X189799280Y-62099582D01*
X189781252Y-62120663D01*
X189765050Y-62154357D01*
X189764387Y-62156282D01*
X189749991Y-62187665D01*
X189734792Y-62205099D01*
X189733529Y-62205633D01*
X189721767Y-62197880D01*
X189717744Y-62164452D01*
X189721479Y-62105723D01*
X189726149Y-62067809D01*
X189734811Y-62004607D01*
X190177780Y-62008186D01*
G37*
G36*
X179724761Y-62009237D02*
G01*
X179824535Y-62039909D01*
X179877903Y-62066100D01*
X179919099Y-62085265D01*
X179953155Y-62092337D01*
X179960947Y-62091459D01*
X179974641Y-62090016D01*
X179983680Y-62097715D01*
X179989851Y-62119563D01*
X179994943Y-62160566D01*
X179998156Y-62195673D01*
X180002152Y-62262934D01*
X179999791Y-62304168D01*
X179990601Y-62319870D01*
X179974110Y-62310535D01*
X179949847Y-62276657D01*
X179938752Y-62257908D01*
X179872893Y-62165991D01*
X179794784Y-62098182D01*
X179705381Y-62054846D01*
X179605638Y-62036350D01*
X179496511Y-62043061D01*
X179423775Y-62060275D01*
X179345230Y-62097363D01*
X179279375Y-62155759D01*
X179227735Y-62232006D01*
X179191835Y-62322648D01*
X179173200Y-62424227D01*
X179173354Y-62533286D01*
X179183796Y-62604333D01*
X179218031Y-62717711D01*
X179269501Y-62812704D01*
X179336132Y-62887929D01*
X179415851Y-62942005D01*
X179506582Y-62973553D01*
X179606252Y-62981191D01*
X179712787Y-62963537D01*
X179720099Y-62961422D01*
X179817609Y-62921801D01*
X179898643Y-62864118D01*
X179942529Y-62818682D01*
X179970533Y-62788470D01*
X179991474Y-62770477D01*
X179999128Y-62768077D01*
X180000543Y-62784286D01*
X179996439Y-62818121D01*
X179991320Y-62845009D01*
X179970493Y-62906158D01*
X179941358Y-62942314D01*
X179891287Y-62970098D01*
X179820752Y-62993454D01*
X179736248Y-63011294D01*
X179644271Y-63022530D01*
X179551316Y-63026073D01*
X179469197Y-63021455D01*
X179357612Y-62996304D01*
X179259664Y-62948816D01*
X179177421Y-62881234D01*
X179112953Y-62795801D01*
X179068328Y-62694759D01*
X179045617Y-62580351D01*
X179044141Y-62560717D01*
X179049216Y-62440082D01*
X179077613Y-62327698D01*
X179127337Y-62226565D01*
X179196394Y-62139683D01*
X179282789Y-62070050D01*
X179384527Y-62020666D01*
X179408456Y-62012910D01*
X179507672Y-61994712D01*
X179616124Y-61993829D01*
X179724761Y-62009237D01*
G37*
G36*
X188812754Y-62005074D02*
G01*
X188909931Y-62005359D01*
X188994722Y-62005805D01*
X189063925Y-62006386D01*
X189114338Y-62007078D01*
X189142759Y-62007857D01*
X189147932Y-62008369D01*
X189149380Y-62022548D01*
X189152302Y-62056566D01*
X189156078Y-62103178D01*
X189156229Y-62105083D01*
X189159191Y-62155027D01*
X189157793Y-62182699D01*
X189151445Y-62192732D01*
X189145114Y-62192246D01*
X189127383Y-62175117D01*
X189121832Y-62160051D01*
X189113214Y-62130193D01*
X189097314Y-62109561D01*
X189069709Y-62096526D01*
X189025976Y-62089456D01*
X188961691Y-62086722D01*
X188922235Y-62086471D01*
X188854397Y-62087020D01*
X188808993Y-62089106D01*
X188781305Y-62093387D01*
X188766615Y-62100522D01*
X188760959Y-62108963D01*
X188758628Y-62128524D01*
X188756772Y-62170926D01*
X188755378Y-62231850D01*
X188754438Y-62306977D01*
X188753942Y-62391988D01*
X188753877Y-62482563D01*
X188754236Y-62574381D01*
X188755007Y-62663125D01*
X188756180Y-62744473D01*
X188757745Y-62814108D01*
X188759692Y-62867708D01*
X188762010Y-62900955D01*
X188762848Y-62906693D01*
X188776073Y-62937393D01*
X188805986Y-62959135D01*
X188822953Y-62966481D01*
X188860752Y-62983698D01*
X188875255Y-62996935D01*
X188865676Y-63006529D01*
X188831226Y-63012820D01*
X188771118Y-63016146D01*
X188705561Y-63016898D01*
X188631993Y-63015852D01*
X188577302Y-63012871D01*
X188544428Y-63008189D01*
X188535811Y-63003315D01*
X188546761Y-62989094D01*
X188574177Y-62969681D01*
X188586747Y-62962546D01*
X188637646Y-62935359D01*
X188641236Y-62510482D01*
X188644826Y-62085605D01*
X188485033Y-62089434D01*
X188325240Y-62093262D01*
X188294185Y-62158277D01*
X188272052Y-62196635D01*
X188254274Y-62213246D01*
X188243552Y-62207438D01*
X188242587Y-62178541D01*
X188243658Y-62170837D01*
X188248976Y-62134417D01*
X188255389Y-62086917D01*
X188257628Y-62069492D01*
X188265781Y-62004973D01*
X188706393Y-62004973D01*
X188812754Y-62005074D01*
G37*
G36*
X189737860Y-67282052D02*
G01*
X189784101Y-67288250D01*
X189823483Y-67292678D01*
X189836003Y-67293704D01*
X189851435Y-67295964D01*
X189862122Y-67304047D01*
X189870354Y-67323232D01*
X189878419Y-67358800D01*
X189888319Y-67414358D01*
X189890743Y-67451425D01*
X189882630Y-67464530D01*
X189866234Y-67453679D01*
X189843809Y-67418876D01*
X189841410Y-67414252D01*
X189804893Y-67363793D01*
X189758049Y-67328822D01*
X189705794Y-67309208D01*
X189653044Y-67304822D01*
X189604714Y-67315533D01*
X189565721Y-67341213D01*
X189540980Y-67381732D01*
X189534734Y-67422338D01*
X189540612Y-67466254D01*
X189560552Y-67502479D01*
X189598015Y-67534242D01*
X189656458Y-67564774D01*
X189710978Y-67586867D01*
X189800708Y-67628245D01*
X189864432Y-67675326D01*
X189902902Y-67729142D01*
X189916873Y-67790725D01*
X189908286Y-67856820D01*
X189878568Y-67917931D01*
X189828520Y-67966942D01*
X189763220Y-68001375D01*
X189687744Y-68018750D01*
X189607169Y-68016586D01*
X189588448Y-68013063D01*
X189535170Y-67998033D01*
X189501513Y-67977422D01*
X189479952Y-67944650D01*
X189466754Y-67906624D01*
X189452541Y-67854576D01*
X189446913Y-67823433D01*
X189449497Y-67808452D01*
X189458775Y-67804866D01*
X189471397Y-67816200D01*
X189488783Y-67844979D01*
X189497812Y-67863845D01*
X189534406Y-67921394D01*
X189582443Y-67961704D01*
X189637286Y-67985156D01*
X189694294Y-67992135D01*
X189748830Y-67983021D01*
X189796255Y-67958197D01*
X189831930Y-67918047D01*
X189851216Y-67862951D01*
X189853315Y-67834538D01*
X189844840Y-67791163D01*
X189817612Y-67753683D01*
X189768919Y-67719614D01*
X189696053Y-67686472D01*
X189688789Y-67683668D01*
X189608789Y-67650482D01*
X189551089Y-67619628D01*
X189511356Y-67588085D01*
X189485258Y-67552833D01*
X189477346Y-67536257D01*
X189462714Y-67471370D01*
X189472060Y-67411184D01*
X189502246Y-67358760D01*
X189550133Y-67317162D01*
X189612582Y-67289451D01*
X189686455Y-67278690D01*
X189737860Y-67282052D01*
G37*
G36*
X187156394Y-61998559D02*
G01*
X187261064Y-62003863D01*
X187346840Y-62020813D01*
X187420411Y-62051924D01*
X187488469Y-62099712D01*
X187531728Y-62139715D01*
X187592904Y-62210095D01*
X187634699Y-62282294D01*
X187659674Y-62363065D01*
X187670392Y-62459161D01*
X187671252Y-62507540D01*
X187664473Y-62615739D01*
X187643474Y-62706067D01*
X187606001Y-62785041D01*
X187549797Y-62859180D01*
X187549400Y-62859623D01*
X187466317Y-62932109D01*
X187366608Y-62984769D01*
X187253186Y-63016649D01*
X187128962Y-63026797D01*
X187052365Y-63022268D01*
X186951780Y-62998220D01*
X186857282Y-62950837D01*
X186774354Y-62883944D01*
X186708479Y-62801366D01*
X186690753Y-62770027D01*
X186657335Y-62680029D01*
X186639689Y-62577505D01*
X186637999Y-62471136D01*
X186639854Y-62458107D01*
X186744233Y-62458107D01*
X186750077Y-62558151D01*
X186773365Y-62656453D01*
X186814382Y-62749032D01*
X186873415Y-62831905D01*
X186909371Y-62868092D01*
X186995504Y-62929374D01*
X187089791Y-62967619D01*
X187187849Y-62981811D01*
X187285291Y-62970933D01*
X187315052Y-62962188D01*
X187396280Y-62921643D01*
X187463038Y-62859579D01*
X187517128Y-62774316D01*
X187517950Y-62772652D01*
X187556038Y-62665760D01*
X187569498Y-62554063D01*
X187559206Y-62442119D01*
X187526036Y-62334484D01*
X187470863Y-62235715D01*
X187399304Y-62154647D01*
X187349950Y-62115327D01*
X187297764Y-62082840D01*
X187263837Y-62067537D01*
X187193425Y-62051603D01*
X187114631Y-62046429D01*
X187038091Y-62051885D01*
X186974435Y-62067842D01*
X186966650Y-62071136D01*
X186889569Y-62120157D01*
X186828501Y-62187347D01*
X186783731Y-62268723D01*
X186755547Y-62360304D01*
X186744233Y-62458107D01*
X186639854Y-62458107D01*
X186652450Y-62369609D01*
X186680455Y-62287320D01*
X186732293Y-62197589D01*
X186795945Y-62127203D01*
X186877694Y-62069818D01*
X186916031Y-62049497D01*
X186965244Y-62025914D01*
X187003479Y-62010964D01*
X187039878Y-62002708D01*
X187083583Y-61999210D01*
X187143735Y-61998532D01*
X187156394Y-61998559D01*
G37*
G36*
X182604157Y-67291367D02*
G01*
X182623261Y-67294061D01*
X182623987Y-67294540D01*
X182620055Y-67307063D01*
X182601740Y-67325730D01*
X182588315Y-67344626D01*
X182565954Y-67385276D01*
X182536264Y-67444397D01*
X182500852Y-67518708D01*
X182461323Y-67604925D01*
X182423904Y-67689190D01*
X182384494Y-67778496D01*
X182348224Y-67859265D01*
X182316603Y-67928251D01*
X182291139Y-67982207D01*
X182273340Y-68017888D01*
X182264716Y-68032047D01*
X182264542Y-68032135D01*
X182256498Y-68021152D01*
X182239276Y-67988353D01*
X182214370Y-67936904D01*
X182183276Y-67869970D01*
X182147491Y-67790718D01*
X182108509Y-67702312D01*
X182106156Y-67696913D01*
X182059994Y-67591459D01*
X182022745Y-67508156D01*
X181992780Y-67444115D01*
X181968475Y-67396450D01*
X181948200Y-67362274D01*
X181930331Y-67338697D01*
X181913240Y-67322833D01*
X181895301Y-67311795D01*
X181886951Y-67307826D01*
X181880848Y-67301230D01*
X181897513Y-67296358D01*
X181938727Y-67292847D01*
X181966715Y-67291577D01*
X182031466Y-67290600D01*
X182070256Y-67293760D01*
X182084013Y-67301296D01*
X182073659Y-67313450D01*
X182066811Y-67317576D01*
X182047066Y-67337945D01*
X182043154Y-67351482D01*
X182048438Y-67371903D01*
X182062987Y-67410766D01*
X182084853Y-67463823D01*
X182112085Y-67526826D01*
X182142733Y-67595526D01*
X182174846Y-67665675D01*
X182206474Y-67733023D01*
X182235667Y-67793324D01*
X182260474Y-67842327D01*
X182278946Y-67875785D01*
X182289131Y-67889449D01*
X182290071Y-67889372D01*
X182300990Y-67870754D01*
X182319108Y-67831580D01*
X182342464Y-67776870D01*
X182369098Y-67711642D01*
X182397052Y-67640917D01*
X182424364Y-67569713D01*
X182449075Y-67503051D01*
X182469226Y-67445950D01*
X182482855Y-67403428D01*
X182487786Y-67382998D01*
X182490333Y-67347580D01*
X182482175Y-67328128D01*
X182458496Y-67314091D01*
X182455781Y-67312883D01*
X182437782Y-67304055D01*
X182435329Y-67298527D01*
X182451777Y-67295128D01*
X182490477Y-67292684D01*
X182516795Y-67291554D01*
X182566227Y-67290463D01*
X182604157Y-67291367D01*
G37*
G36*
X190908658Y-67283183D02*
G01*
X191014949Y-67307470D01*
X191036418Y-67315161D01*
X191078031Y-67328692D01*
X191110668Y-67335238D01*
X191122459Y-67334706D01*
X191133646Y-67340062D01*
X191142290Y-67367657D01*
X191148500Y-67412517D01*
X191152320Y-67457278D01*
X191153488Y-67489839D01*
X191152056Y-67502204D01*
X191142507Y-67495204D01*
X191124764Y-67471366D01*
X191116847Y-67459026D01*
X191066268Y-67399989D01*
X190997556Y-67351164D01*
X190919155Y-67317148D01*
X190839509Y-67302535D01*
X190828819Y-67302299D01*
X190753859Y-67313579D01*
X190688054Y-67348620D01*
X190638314Y-67396407D01*
X190590393Y-67472040D01*
X190564399Y-67557260D01*
X190559296Y-67647136D01*
X190574050Y-67736735D01*
X190607626Y-67821128D01*
X190658991Y-67895381D01*
X190727110Y-67954564D01*
X190759298Y-67973156D01*
X190820052Y-67992108D01*
X190886510Y-67994204D01*
X190951965Y-67981330D01*
X191009711Y-67955369D01*
X191053042Y-67918207D01*
X191071612Y-67885391D01*
X191086553Y-67823538D01*
X191088914Y-67765594D01*
X191079768Y-67716950D01*
X191060185Y-67682995D01*
X191031240Y-67669119D01*
X191028571Y-67669037D01*
X191002884Y-67664429D01*
X190994277Y-67655454D01*
X191007027Y-67648796D01*
X191042026Y-67644187D01*
X191094395Y-67642204D01*
X191106336Y-67642174D01*
X191160912Y-67642542D01*
X191192195Y-67644099D01*
X191204060Y-67648068D01*
X191200381Y-67655671D01*
X191186058Y-67667341D01*
X191170177Y-67681761D01*
X191160722Y-67699372D01*
X191156224Y-67726880D01*
X191155215Y-67770989D01*
X191155641Y-67806264D01*
X191157562Y-67920321D01*
X191055886Y-67964944D01*
X190967804Y-67996074D01*
X190878768Y-68014160D01*
X190796916Y-68018022D01*
X190742994Y-68010322D01*
X190658235Y-67974910D01*
X190584759Y-67918735D01*
X190528545Y-67846913D01*
X190510814Y-67811658D01*
X190492328Y-67742074D01*
X190487252Y-67659871D01*
X190495326Y-67575908D01*
X190516292Y-67501041D01*
X190518346Y-67496167D01*
X190568226Y-67412252D01*
X190635007Y-67348015D01*
X190715878Y-67304437D01*
X190808032Y-67282499D01*
X190908658Y-67283183D01*
G37*
G36*
X185560135Y-62006570D02*
G01*
X185616216Y-62011275D01*
X185646646Y-62018957D01*
X185651005Y-62029486D01*
X185628871Y-62042732D01*
X185616186Y-62047502D01*
X185582545Y-62065178D01*
X185560835Y-62087006D01*
X185557134Y-62107428D01*
X185553911Y-62152199D01*
X185551254Y-62218507D01*
X185549248Y-62303538D01*
X185547981Y-62404479D01*
X185547539Y-62518516D01*
X185547539Y-62518567D01*
X185547707Y-62636733D01*
X185548303Y-62730586D01*
X185549465Y-62802977D01*
X185551333Y-62856755D01*
X185554044Y-62894773D01*
X185557737Y-62919879D01*
X185562550Y-62934927D01*
X185568126Y-62942369D01*
X185589984Y-62951032D01*
X185630833Y-62954744D01*
X185694142Y-62953754D01*
X185714142Y-62952788D01*
X185824226Y-62939724D01*
X185915287Y-62913691D01*
X185984986Y-62875479D01*
X186010389Y-62852806D01*
X186034628Y-62830273D01*
X186051733Y-62820007D01*
X186052474Y-62819946D01*
X186063279Y-62829558D01*
X186060217Y-62854525D01*
X186046461Y-62889047D01*
X186025184Y-62927324D01*
X185999561Y-62963556D01*
X185972764Y-62991943D01*
X185950777Y-63005812D01*
X185928025Y-63009284D01*
X185884371Y-63012069D01*
X185824564Y-63014168D01*
X185753357Y-63015580D01*
X185675501Y-63016306D01*
X185595748Y-63016344D01*
X185518849Y-63015697D01*
X185449555Y-63014363D01*
X185392618Y-63012342D01*
X185352790Y-63009635D01*
X185334821Y-63006241D01*
X185334371Y-63005807D01*
X185331425Y-62992964D01*
X185332249Y-62992225D01*
X185346361Y-62984954D01*
X185374386Y-62970571D01*
X185377593Y-62968927D01*
X185408428Y-62945354D01*
X185424790Y-62908986D01*
X185427913Y-62894222D01*
X185431336Y-62861360D01*
X185433988Y-62807952D01*
X185435893Y-62738326D01*
X185437075Y-62656816D01*
X185437559Y-62567752D01*
X185437370Y-62475466D01*
X185436532Y-62384288D01*
X185435069Y-62298551D01*
X185433006Y-62222586D01*
X185430367Y-62160724D01*
X185427178Y-62117296D01*
X185423461Y-62096634D01*
X185423403Y-62096521D01*
X185401871Y-62073966D01*
X185367617Y-62053172D01*
X185363077Y-62051181D01*
X185329521Y-62034724D01*
X185318565Y-62022303D01*
X185331188Y-62013528D01*
X185368367Y-62008008D01*
X185431081Y-62005354D01*
X185478823Y-62004973D01*
X185560135Y-62006570D01*
G37*
G36*
X182956961Y-67271151D02*
G01*
X182963540Y-67283149D01*
X182972147Y-67302752D01*
X182988993Y-67343843D01*
X183012540Y-67402566D01*
X183041248Y-67475063D01*
X183073577Y-67557479D01*
X183095868Y-67614706D01*
X183138774Y-67723671D01*
X183174114Y-67809514D01*
X183203264Y-67874766D01*
X183227600Y-67921958D01*
X183248497Y-67953620D01*
X183267329Y-67972283D01*
X183285472Y-67980479D01*
X183295148Y-67981444D01*
X183315900Y-67987614D01*
X183319946Y-67995027D01*
X183307123Y-68001535D01*
X183271629Y-68006178D01*
X183217922Y-68008459D01*
X183197700Y-68008610D01*
X183136803Y-68006882D01*
X183095346Y-68002134D01*
X183075321Y-67995016D01*
X183078716Y-67986179D01*
X183102620Y-67977508D01*
X183122621Y-67964955D01*
X183128270Y-67939450D01*
X183119314Y-67897968D01*
X183095501Y-67837484D01*
X183089888Y-67824942D01*
X183049992Y-67736952D01*
X182913506Y-67736952D01*
X182777021Y-67736952D01*
X182735287Y-67819627D01*
X182708255Y-67881718D01*
X182699468Y-67926587D01*
X182708873Y-67957095D01*
X182732486Y-67974478D01*
X182758222Y-67989207D01*
X182758096Y-67999680D01*
X182731775Y-68006073D01*
X182678928Y-68008562D01*
X182667967Y-68008610D01*
X182621100Y-68007636D01*
X182587141Y-68005074D01*
X182572961Y-68001462D01*
X182572887Y-68001167D01*
X182582025Y-67988024D01*
X182604275Y-67966025D01*
X182606756Y-67963814D01*
X182623197Y-67941575D01*
X182648672Y-67896899D01*
X182681825Y-67832450D01*
X182721303Y-67750892D01*
X182749646Y-67689672D01*
X182803796Y-67689672D01*
X182816306Y-67692705D01*
X182849551Y-67694989D01*
X182897103Y-67696138D01*
X182912459Y-67696203D01*
X182968795Y-67695148D01*
X183002577Y-67691440D01*
X183018354Y-67684264D01*
X183021122Y-67676755D01*
X183016499Y-67654953D01*
X183004426Y-67615929D01*
X182987594Y-67567039D01*
X182968696Y-67515638D01*
X182950425Y-67469080D01*
X182935473Y-67434722D01*
X182927338Y-67420556D01*
X182919439Y-67428898D01*
X182903925Y-67456408D01*
X182883527Y-67497136D01*
X182860977Y-67545133D01*
X182839007Y-67594447D01*
X182820348Y-67639129D01*
X182807731Y-67673228D01*
X182803796Y-67689672D01*
X182749646Y-67689672D01*
X182765750Y-67654889D01*
X182781104Y-67620878D01*
X182820207Y-67533989D01*
X182856256Y-67454339D01*
X182887575Y-67385600D01*
X182912484Y-67331443D01*
X182929308Y-67295538D01*
X182935756Y-67282530D01*
X182947705Y-67264829D01*
X182956961Y-67271151D01*
G37*
G36*
X188137325Y-67289748D02*
G01*
X188204522Y-67292252D01*
X188266426Y-67296382D01*
X188317638Y-67302118D01*
X188328270Y-67303824D01*
X188424984Y-67332226D01*
X188503228Y-67380543D01*
X188563028Y-67448792D01*
X188579420Y-67477032D01*
X188610816Y-67564782D01*
X188618351Y-67655899D01*
X188603686Y-67745580D01*
X188568480Y-67829021D01*
X188514396Y-67901419D01*
X188443092Y-67957969D01*
X188406737Y-67976574D01*
X188375865Y-67986881D01*
X188334312Y-67994561D01*
X188277476Y-68000129D01*
X188200759Y-68004102D01*
X188145267Y-68005879D01*
X188073762Y-68007094D01*
X188012940Y-68006735D01*
X187967453Y-68004942D01*
X187941951Y-68001853D01*
X187938128Y-67999699D01*
X187949086Y-67985846D01*
X187968689Y-67974478D01*
X187978674Y-67969371D01*
X187986257Y-67961642D01*
X187991824Y-67947788D01*
X187995760Y-67924303D01*
X187998450Y-67887683D01*
X188000282Y-67834423D01*
X188001641Y-67761020D01*
X188002564Y-67690526D01*
X188071812Y-67690526D01*
X188073348Y-67767222D01*
X188076482Y-67835623D01*
X188081229Y-67890710D01*
X188087606Y-67927463D01*
X188093462Y-67939974D01*
X188139258Y-67964020D01*
X188205431Y-67976057D01*
X188280510Y-67977160D01*
X188336693Y-67972898D01*
X188377604Y-67962756D01*
X188415030Y-67943277D01*
X188429922Y-67933311D01*
X188476015Y-67892035D01*
X188514140Y-67841901D01*
X188519754Y-67831850D01*
X188536104Y-67795925D01*
X188544884Y-67761492D01*
X188547579Y-67718890D01*
X188545869Y-67662246D01*
X188531972Y-67560279D01*
X188500391Y-67477649D01*
X188449510Y-67411790D01*
X188377714Y-67360134D01*
X188345614Y-67344147D01*
X188293691Y-67327147D01*
X188234667Y-67317635D01*
X188176672Y-67315836D01*
X188127838Y-67321975D01*
X188096294Y-67336278D01*
X188095301Y-67337227D01*
X188087569Y-67358290D01*
X188081344Y-67401173D01*
X188076640Y-67460858D01*
X188073473Y-67532324D01*
X188071859Y-67610553D01*
X188071812Y-67690526D01*
X188002564Y-67690526D01*
X188002912Y-67663968D01*
X188002917Y-67663614D01*
X188003928Y-67564794D01*
X188004064Y-67489546D01*
X188003112Y-67434286D01*
X188000861Y-67395428D01*
X187997098Y-67369388D01*
X187991612Y-67352580D01*
X187984190Y-67341419D01*
X187983833Y-67341021D01*
X187956510Y-67321341D01*
X187936022Y-67315882D01*
X187915120Y-67309770D01*
X187910962Y-67302299D01*
X187923617Y-67296380D01*
X187957981Y-67292185D01*
X188008654Y-67289695D01*
X188070235Y-67288889D01*
X188137325Y-67289748D01*
G37*
G36*
X189269251Y-67328354D02*
G01*
X189264935Y-67373761D01*
X189253399Y-67403123D01*
X189240632Y-67410962D01*
X189230510Y-67399670D01*
X189228502Y-67385902D01*
X189221184Y-67354921D01*
X189197235Y-67333808D01*
X189153662Y-67321311D01*
X189087472Y-67316176D01*
X189061301Y-67315882D01*
X189007192Y-67316183D01*
X188970033Y-67319925D01*
X188946831Y-67331373D01*
X188934590Y-67354787D01*
X188930315Y-67394431D01*
X188931013Y-67454567D01*
X188932475Y-67499251D01*
X188936470Y-67621497D01*
X189024339Y-67625618D01*
X189091847Y-67626812D01*
X189137170Y-67622007D01*
X189164879Y-67609899D01*
X189179547Y-67589181D01*
X189182227Y-67580542D01*
X189192605Y-67551633D01*
X189201957Y-67547982D01*
X189209368Y-67567678D01*
X189213922Y-67608812D01*
X189214919Y-67648663D01*
X189212869Y-67703467D01*
X189207330Y-67738149D01*
X189199218Y-67750799D01*
X189189449Y-67739509D01*
X189182227Y-67716784D01*
X189170760Y-67693043D01*
X189147711Y-67678328D01*
X189108509Y-67671334D01*
X189048581Y-67670754D01*
X189024339Y-67671708D01*
X188936470Y-67675829D01*
X188932565Y-67801413D01*
X188931454Y-67874338D01*
X188935151Y-67924436D01*
X188946204Y-67955950D01*
X188967160Y-67973123D01*
X189000567Y-67980198D01*
X189040639Y-67981444D01*
X189137693Y-67973618D01*
X189214767Y-67949655D01*
X189271961Y-67910998D01*
X189301891Y-67884070D01*
X189317267Y-67874946D01*
X189322886Y-67882362D01*
X189323582Y-67897405D01*
X189314288Y-67921787D01*
X189291091Y-67952588D01*
X189281980Y-67961924D01*
X189240377Y-68001818D01*
X189017113Y-68006128D01*
X188942693Y-68006917D01*
X188878789Y-68006357D01*
X188829883Y-68004590D01*
X188800458Y-68001754D01*
X188793849Y-67999162D01*
X188804796Y-67985729D01*
X188824411Y-67974478D01*
X188834345Y-67969405D01*
X188841901Y-67961737D01*
X188847460Y-67947990D01*
X188851401Y-67924683D01*
X188854101Y-67888334D01*
X188855940Y-67835460D01*
X188857297Y-67762581D01*
X188858550Y-67666214D01*
X188858625Y-67660077D01*
X188859612Y-67560214D01*
X188859706Y-67484034D01*
X188858713Y-67428065D01*
X188856440Y-67388833D01*
X188852693Y-67362866D01*
X188847281Y-67346690D01*
X188840676Y-67337483D01*
X188811813Y-67319806D01*
X188792879Y-67315882D01*
X188771340Y-67310006D01*
X188766684Y-67302299D01*
X188779964Y-67297161D01*
X188818637Y-67293155D01*
X188880947Y-67290376D01*
X188965140Y-67288920D01*
X189017967Y-67288717D01*
X189269251Y-67288717D01*
X189269251Y-67328354D01*
G37*
G36*
X179987241Y-67290219D02*
G01*
X180027058Y-67294350D01*
X180045684Y-67300549D01*
X180046470Y-67302299D01*
X180035502Y-67314428D01*
X180026573Y-67315882D01*
X180012165Y-67319040D01*
X180000891Y-67330403D01*
X179992385Y-67352810D01*
X179986282Y-67389095D01*
X179982216Y-67442096D01*
X179979822Y-67514649D01*
X179978735Y-67609591D01*
X179978555Y-67688519D01*
X179978061Y-67781013D01*
X179976666Y-67862349D01*
X179974503Y-67929021D01*
X179971708Y-67977526D01*
X179968412Y-68004357D01*
X179966373Y-68008610D01*
X179954455Y-67998828D01*
X179927168Y-67971278D01*
X179887015Y-67928652D01*
X179836498Y-67873641D01*
X179778119Y-67808936D01*
X179720135Y-67743743D01*
X179657121Y-67672645D01*
X179600144Y-67608760D01*
X179551622Y-67554767D01*
X179513975Y-67513346D01*
X179489620Y-67487178D01*
X179481034Y-67478877D01*
X179479404Y-67491737D01*
X179477994Y-67527426D01*
X179476894Y-67581609D01*
X179476197Y-67649948D01*
X179475989Y-67717757D01*
X179475989Y-67956638D01*
X179516737Y-67972019D01*
X179548263Y-67986698D01*
X179554118Y-67997470D01*
X179533938Y-68004533D01*
X179487356Y-68008082D01*
X179448823Y-68008610D01*
X179398360Y-68007417D01*
X179360361Y-68004247D01*
X179341251Y-67999713D01*
X179340160Y-67998248D01*
X179351068Y-67985479D01*
X179370480Y-67974478D01*
X179392632Y-67961916D01*
X179409159Y-67944071D01*
X179420768Y-67917268D01*
X179428164Y-67877833D01*
X179432053Y-67822094D01*
X179433140Y-67746375D01*
X179432227Y-67653016D01*
X179430603Y-67565572D01*
X179428554Y-67500927D01*
X179425578Y-67454715D01*
X179421171Y-67422571D01*
X179414834Y-67400127D01*
X179406064Y-67383018D01*
X179400217Y-67374567D01*
X179372074Y-67343984D01*
X179343208Y-67323183D01*
X179342490Y-67322849D01*
X179317151Y-67307094D01*
X179318083Y-67295660D01*
X179344600Y-67289510D01*
X179366809Y-67288717D01*
X179383041Y-67289267D01*
X179398165Y-67292391D01*
X179414574Y-67300292D01*
X179434661Y-67315179D01*
X179460819Y-67339256D01*
X179495441Y-67374730D01*
X179540919Y-67423807D01*
X179599647Y-67488693D01*
X179674017Y-67571594D01*
X179675820Y-67573606D01*
X179931015Y-67858496D01*
X179934743Y-67633876D01*
X179935630Y-67537204D01*
X179934065Y-67464015D01*
X179929171Y-67410669D01*
X179920067Y-67373530D01*
X179905875Y-67348959D01*
X179885717Y-67333319D01*
X179859705Y-67323261D01*
X179825587Y-67310568D01*
X179818175Y-67300618D01*
X179837135Y-67293571D01*
X179882130Y-67289591D01*
X179931015Y-67288717D01*
X179987241Y-67290219D01*
G37*
G36*
X180842963Y-67290219D02*
G01*
X180882780Y-67294350D01*
X180901406Y-67300549D01*
X180902192Y-67302299D01*
X180891224Y-67314428D01*
X180882295Y-67315882D01*
X180867887Y-67319040D01*
X180856613Y-67330403D01*
X180848107Y-67352810D01*
X180842004Y-67389095D01*
X180837938Y-67442096D01*
X180835544Y-67514649D01*
X180834457Y-67609591D01*
X180834277Y-67688519D01*
X180833783Y-67781013D01*
X180832387Y-67862349D01*
X180830225Y-67929021D01*
X180827429Y-67977526D01*
X180824133Y-68004357D01*
X180822095Y-68008610D01*
X180810177Y-67998828D01*
X180782890Y-67971278D01*
X180742737Y-67928652D01*
X180692220Y-67873641D01*
X180633841Y-67808936D01*
X180575857Y-67743743D01*
X180512843Y-67672645D01*
X180455866Y-67608760D01*
X180407344Y-67554767D01*
X180369697Y-67513346D01*
X180345342Y-67487178D01*
X180336756Y-67478877D01*
X180335126Y-67491737D01*
X180333716Y-67527426D01*
X180332616Y-67581609D01*
X180331919Y-67649948D01*
X180331710Y-67717757D01*
X180331710Y-67956638D01*
X180372459Y-67972019D01*
X180403985Y-67986698D01*
X180409840Y-67997470D01*
X180389660Y-68004533D01*
X180343078Y-68008082D01*
X180304545Y-68008610D01*
X180254082Y-68007417D01*
X180216082Y-68004247D01*
X180196973Y-67999713D01*
X180195882Y-67998248D01*
X180206790Y-67985479D01*
X180226202Y-67974478D01*
X180248354Y-67961916D01*
X180264881Y-67944071D01*
X180276490Y-67917268D01*
X180283886Y-67877833D01*
X180287775Y-67822094D01*
X180288862Y-67746375D01*
X180287949Y-67653016D01*
X180286325Y-67565572D01*
X180284276Y-67500927D01*
X180281299Y-67454715D01*
X180276893Y-67422571D01*
X180270556Y-67400127D01*
X180261786Y-67383018D01*
X180255939Y-67374567D01*
X180227796Y-67343984D01*
X180198930Y-67323183D01*
X180198212Y-67322849D01*
X180172873Y-67307094D01*
X180173805Y-67295660D01*
X180200322Y-67289510D01*
X180222531Y-67288717D01*
X180238763Y-67289267D01*
X180253887Y-67292391D01*
X180270296Y-67300292D01*
X180290383Y-67315179D01*
X180316541Y-67339256D01*
X180351163Y-67374730D01*
X180396641Y-67423807D01*
X180455369Y-67488693D01*
X180529739Y-67571594D01*
X180531542Y-67573606D01*
X180786737Y-67858496D01*
X180790465Y-67633876D01*
X180791352Y-67537204D01*
X180789787Y-67464015D01*
X180784893Y-67410669D01*
X180775789Y-67373530D01*
X180761597Y-67348959D01*
X180741439Y-67333319D01*
X180715427Y-67323261D01*
X180681309Y-67310568D01*
X180673897Y-67300618D01*
X180692857Y-67293571D01*
X180737852Y-67289591D01*
X180786737Y-67288717D01*
X180842963Y-67290219D01*
G37*
G36*
X186045209Y-67290219D02*
G01*
X186085026Y-67294350D01*
X186103652Y-67300549D01*
X186104438Y-67302299D01*
X186093470Y-67314428D01*
X186084541Y-67315882D01*
X186070133Y-67319040D01*
X186058859Y-67330403D01*
X186050353Y-67352810D01*
X186044250Y-67389095D01*
X186040184Y-67442096D01*
X186037790Y-67514649D01*
X186036703Y-67609591D01*
X186036523Y-67688519D01*
X186036029Y-67781013D01*
X186034633Y-67862349D01*
X186032471Y-67929021D01*
X186029675Y-67977526D01*
X186026379Y-68004357D01*
X186024341Y-68008610D01*
X186012423Y-67998828D01*
X185985136Y-67971278D01*
X185944983Y-67928652D01*
X185894466Y-67873641D01*
X185836087Y-67808936D01*
X185778103Y-67743743D01*
X185715089Y-67672645D01*
X185658112Y-67608760D01*
X185609590Y-67554767D01*
X185571943Y-67513346D01*
X185547588Y-67487178D01*
X185539002Y-67478877D01*
X185537372Y-67491737D01*
X185535962Y-67527426D01*
X185534862Y-67581609D01*
X185534165Y-67649948D01*
X185533956Y-67717757D01*
X185533956Y-67956638D01*
X185574705Y-67972019D01*
X185606231Y-67986698D01*
X185612086Y-67997470D01*
X185591906Y-68004533D01*
X185545323Y-68008082D01*
X185506791Y-68008610D01*
X185456328Y-68007417D01*
X185418328Y-68004247D01*
X185399219Y-67999713D01*
X185398128Y-67998248D01*
X185409036Y-67985479D01*
X185428448Y-67974478D01*
X185450600Y-67961916D01*
X185467127Y-67944071D01*
X185478736Y-67917268D01*
X185486132Y-67877833D01*
X185490021Y-67822094D01*
X185491108Y-67746375D01*
X185490195Y-67653016D01*
X185488571Y-67565572D01*
X185486522Y-67500927D01*
X185483545Y-67454715D01*
X185479139Y-67422571D01*
X185472802Y-67400127D01*
X185464032Y-67383018D01*
X185458185Y-67374567D01*
X185430042Y-67343984D01*
X185401176Y-67323183D01*
X185400458Y-67322849D01*
X185375119Y-67307094D01*
X185376051Y-67295660D01*
X185402568Y-67289510D01*
X185424777Y-67288717D01*
X185441009Y-67289267D01*
X185456133Y-67292391D01*
X185472542Y-67300292D01*
X185492629Y-67315179D01*
X185518787Y-67339256D01*
X185553409Y-67374730D01*
X185598887Y-67423807D01*
X185657615Y-67488693D01*
X185731985Y-67571594D01*
X185733788Y-67573606D01*
X185988983Y-67858496D01*
X185992711Y-67633876D01*
X185993598Y-67537204D01*
X185992033Y-67464015D01*
X185987139Y-67410669D01*
X185978035Y-67373530D01*
X185963843Y-67348959D01*
X185943685Y-67333319D01*
X185917673Y-67323261D01*
X185883555Y-67310568D01*
X185876143Y-67300618D01*
X185895103Y-67293571D01*
X185940098Y-67289591D01*
X185988983Y-67288717D01*
X186045209Y-67290219D01*
G37*
G36*
X192008097Y-67290219D02*
G01*
X192047913Y-67294350D01*
X192066539Y-67300549D01*
X192067325Y-67302299D01*
X192056358Y-67314428D01*
X192047429Y-67315882D01*
X192033021Y-67319040D01*
X192021746Y-67330403D01*
X192013240Y-67352810D01*
X192007137Y-67389095D01*
X192003072Y-67442096D01*
X192000678Y-67514649D01*
X191999591Y-67609591D01*
X191999411Y-67688519D01*
X191998916Y-67781013D01*
X191997521Y-67862349D01*
X191995359Y-67929021D01*
X191992563Y-67977526D01*
X191989267Y-68004357D01*
X191987229Y-68008610D01*
X191975310Y-67998828D01*
X191948023Y-67971278D01*
X191907870Y-67928652D01*
X191857353Y-67873641D01*
X191798975Y-67808936D01*
X191740990Y-67743743D01*
X191677977Y-67672645D01*
X191621000Y-67608760D01*
X191572478Y-67554767D01*
X191534830Y-67513346D01*
X191510476Y-67487178D01*
X191501889Y-67478877D01*
X191500260Y-67491737D01*
X191498850Y-67527426D01*
X191497750Y-67581609D01*
X191497052Y-67649948D01*
X191496844Y-67717757D01*
X191496844Y-67956638D01*
X191537593Y-67972019D01*
X191569119Y-67986698D01*
X191574974Y-67997470D01*
X191554794Y-68004533D01*
X191508211Y-68008082D01*
X191469678Y-68008610D01*
X191419216Y-68007417D01*
X191381216Y-68004247D01*
X191362106Y-67999713D01*
X191361015Y-67998248D01*
X191371924Y-67985479D01*
X191391336Y-67974478D01*
X191413487Y-67961916D01*
X191430015Y-67944071D01*
X191441624Y-67917268D01*
X191449020Y-67877833D01*
X191452909Y-67822094D01*
X191453996Y-67746375D01*
X191453083Y-67653016D01*
X191451459Y-67565572D01*
X191449410Y-67500927D01*
X191446433Y-67454715D01*
X191442027Y-67422571D01*
X191435690Y-67400127D01*
X191426919Y-67383018D01*
X191421073Y-67374567D01*
X191392929Y-67343984D01*
X191364064Y-67323183D01*
X191363345Y-67322849D01*
X191338006Y-67307094D01*
X191338939Y-67295660D01*
X191365456Y-67289510D01*
X191387665Y-67288717D01*
X191403897Y-67289267D01*
X191419021Y-67292391D01*
X191435430Y-67300292D01*
X191455517Y-67315179D01*
X191481675Y-67339256D01*
X191516297Y-67374730D01*
X191561775Y-67423807D01*
X191620503Y-67488693D01*
X191694873Y-67571594D01*
X191696676Y-67573606D01*
X191951871Y-67858496D01*
X191955599Y-67633876D01*
X191956486Y-67537204D01*
X191954921Y-67464015D01*
X191950026Y-67410669D01*
X191940923Y-67373530D01*
X191926731Y-67348959D01*
X191906573Y-67333319D01*
X191880561Y-67323261D01*
X191846442Y-67310568D01*
X191839031Y-67300618D01*
X191857991Y-67293571D01*
X191902986Y-67289591D01*
X191951871Y-67288717D01*
X192008097Y-67290219D01*
G37*
G36*
X191873697Y-62094515D02*
G01*
X191867908Y-62142655D01*
X191859848Y-62180436D01*
X191851908Y-62198658D01*
X191841397Y-62205532D01*
X191833233Y-62198033D01*
X191824816Y-62171628D01*
X191817016Y-62137798D01*
X191806942Y-62111190D01*
X191787517Y-62092344D01*
X191754631Y-62079924D01*
X191704174Y-62072590D01*
X191632038Y-62069006D01*
X191603973Y-62068436D01*
X191535260Y-62068091D01*
X191489019Y-62069965D01*
X191460611Y-62074573D01*
X191445397Y-62082433D01*
X191442050Y-62086471D01*
X191437358Y-62107197D01*
X191433952Y-62149228D01*
X191432121Y-62206721D01*
X191432153Y-62273831D01*
X191432318Y-62283422D01*
X191435721Y-62460000D01*
X191561305Y-62463905D01*
X191635386Y-62464318D01*
X191687388Y-62459092D01*
X191722100Y-62446610D01*
X191744308Y-62425260D01*
X191757321Y-62397825D01*
X191771228Y-62366323D01*
X191781945Y-62361021D01*
X191789544Y-62382118D01*
X191794094Y-62429815D01*
X191795666Y-62504315D01*
X191795668Y-62507540D01*
X191794446Y-62577249D01*
X191790950Y-62626690D01*
X191785431Y-62653160D01*
X191781745Y-62656952D01*
X191769575Y-62645215D01*
X191759830Y-62616987D01*
X191759812Y-62616897D01*
X191749440Y-62581654D01*
X191731890Y-62558001D01*
X191702491Y-62543990D01*
X191656577Y-62537671D01*
X191589480Y-62537095D01*
X191569914Y-62537588D01*
X191435721Y-62541497D01*
X191431951Y-62726917D01*
X191430588Y-62811640D01*
X191432255Y-62872847D01*
X191439630Y-62914184D01*
X191455388Y-62939298D01*
X191482206Y-62951838D01*
X191522761Y-62955449D01*
X191579728Y-62953779D01*
X191597802Y-62952918D01*
X191707046Y-62940192D01*
X191797819Y-62913815D01*
X191867634Y-62874633D01*
X191891779Y-62852806D01*
X191921008Y-62826312D01*
X191938115Y-62823162D01*
X191944825Y-62843324D01*
X191945079Y-62851866D01*
X191936801Y-62881289D01*
X191915976Y-62921115D01*
X191888619Y-62961908D01*
X191860745Y-62994235D01*
X191847501Y-63004909D01*
X191829476Y-63008106D01*
X191789586Y-63010817D01*
X191732523Y-63013018D01*
X191662976Y-63014686D01*
X191585639Y-63015799D01*
X191505203Y-63016332D01*
X191426358Y-63016262D01*
X191353797Y-63015567D01*
X191292211Y-63014222D01*
X191246291Y-63012205D01*
X191220729Y-63009492D01*
X191217119Y-63008041D01*
X191224080Y-62996384D01*
X191248118Y-62977983D01*
X191258725Y-62971405D01*
X191291157Y-62945859D01*
X191311719Y-62917875D01*
X191313653Y-62912348D01*
X191315543Y-62891021D01*
X191316990Y-62846303D01*
X191317959Y-62781963D01*
X191318415Y-62701772D01*
X191318325Y-62609502D01*
X191317654Y-62508922D01*
X191317487Y-62491965D01*
X191316194Y-62378125D01*
X191314787Y-62288322D01*
X191313045Y-62219427D01*
X191310751Y-62168311D01*
X191307684Y-62131845D01*
X191303626Y-62106901D01*
X191298357Y-62090349D01*
X191291659Y-62079062D01*
X191288287Y-62075050D01*
X191259171Y-62052400D01*
X191235019Y-62043085D01*
X191209685Y-62032460D01*
X191201348Y-62021952D01*
X191205187Y-62016523D01*
X191222363Y-62012306D01*
X191255365Y-62009176D01*
X191306679Y-62007009D01*
X191378795Y-62005677D01*
X191474199Y-62005057D01*
X191538321Y-62004973D01*
X191880884Y-62004973D01*
X191873697Y-62094515D01*
G37*
G36*
X182763495Y-61995316D02*
G01*
X182780245Y-62030989D01*
X182804568Y-62086287D01*
X182835264Y-62158388D01*
X182871132Y-62244470D01*
X182910972Y-62341712D01*
X182953583Y-62447291D01*
X182955676Y-62452516D01*
X182998843Y-62559489D01*
X183039713Y-62659171D01*
X183077009Y-62748571D01*
X183109456Y-62824698D01*
X183135781Y-62884563D01*
X183154708Y-62925173D01*
X183164962Y-62943539D01*
X183165030Y-62943615D01*
X183194248Y-62963731D01*
X183233119Y-62977315D01*
X183234113Y-62977507D01*
X183263466Y-62986907D01*
X183275752Y-62998788D01*
X183275513Y-63000785D01*
X183260831Y-63007330D01*
X183225905Y-63012170D01*
X183177023Y-63015297D01*
X183120471Y-63016702D01*
X183062536Y-63016377D01*
X183009505Y-63014312D01*
X182967664Y-63010499D01*
X182943301Y-63004930D01*
X182939624Y-63001248D01*
X182951121Y-62986561D01*
X182979098Y-62971877D01*
X182982093Y-62970794D01*
X183010897Y-62957358D01*
X183019499Y-62939199D01*
X183016990Y-62918530D01*
X183006604Y-62880287D01*
X182989311Y-62829479D01*
X182967964Y-62773196D01*
X182945417Y-62718527D01*
X182924522Y-62672561D01*
X182908133Y-62642388D01*
X182903373Y-62636224D01*
X182888236Y-62627440D01*
X182860716Y-62621494D01*
X182816611Y-62617954D01*
X182751720Y-62616384D01*
X182709250Y-62616203D01*
X182630681Y-62616604D01*
X182573829Y-62619907D01*
X182533246Y-62629263D01*
X182503483Y-62647822D01*
X182479093Y-62678734D01*
X182454627Y-62725151D01*
X182430502Y-62777400D01*
X182401615Y-62847372D01*
X182388682Y-62898511D01*
X182392010Y-62934189D01*
X182411904Y-62957777D01*
X182448194Y-62972525D01*
X182477155Y-62984512D01*
X182488189Y-62998517D01*
X182487858Y-63000328D01*
X182473219Y-63007302D01*
X182439083Y-63012483D01*
X182392278Y-63015800D01*
X182339632Y-63017180D01*
X182287970Y-63016549D01*
X182244121Y-63013837D01*
X182214911Y-63008970D01*
X182206672Y-63003315D01*
X182217502Y-62987865D01*
X182243581Y-62967001D01*
X182250367Y-62962567D01*
X182262931Y-62952567D01*
X182276903Y-62936459D01*
X182293511Y-62911916D01*
X182313985Y-62876614D01*
X182339553Y-62828224D01*
X182371444Y-62764423D01*
X182410886Y-62682885D01*
X182459108Y-62581282D01*
X182474689Y-62548106D01*
X182552435Y-62548106D01*
X182552555Y-62548357D01*
X182568339Y-62553151D01*
X182604414Y-62556644D01*
X182653950Y-62558812D01*
X182710113Y-62559635D01*
X182766073Y-62559090D01*
X182814996Y-62557156D01*
X182850053Y-62553811D01*
X182864260Y-62549355D01*
X182862184Y-62533387D01*
X182851526Y-62498623D01*
X182834461Y-62450494D01*
X182813163Y-62394435D01*
X182789808Y-62335879D01*
X182766571Y-62280259D01*
X182745628Y-62233009D01*
X182729152Y-62199561D01*
X182719321Y-62185348D01*
X182718486Y-62185229D01*
X182708298Y-62198498D01*
X182690250Y-62231209D01*
X182666827Y-62277928D01*
X182640510Y-62333221D01*
X182613783Y-62391654D01*
X182589129Y-62447793D01*
X182569031Y-62496204D01*
X182555972Y-62531453D01*
X182552435Y-62548106D01*
X182474689Y-62548106D01*
X182517339Y-62457290D01*
X182517720Y-62456476D01*
X182567612Y-62350725D01*
X182614330Y-62253295D01*
X182656564Y-62166805D01*
X182693001Y-62093872D01*
X182722328Y-62037111D01*
X182743235Y-61999142D01*
X182754410Y-61982581D01*
X182755520Y-61982090D01*
X182763495Y-61995316D01*
G37*
G36*
X186946531Y-67300248D02*
G01*
X186981652Y-67308215D01*
X187007980Y-67307103D01*
X187008082Y-67307064D01*
X187020286Y-67307742D01*
X187026245Y-67325324D01*
X187027647Y-67364840D01*
X187027644Y-67365365D01*
X187027213Y-67431337D01*
X186999068Y-67393604D01*
X186957532Y-67351744D01*
X186911415Y-67326708D01*
X186865854Y-67318348D01*
X186825983Y-67326519D01*
X186796937Y-67351072D01*
X186783852Y-67391861D01*
X186783582Y-67399772D01*
X186793319Y-67428596D01*
X186820524Y-67471669D01*
X186862183Y-67525391D01*
X186915286Y-67586162D01*
X186976822Y-67650380D01*
X187043778Y-67714446D01*
X187056232Y-67725737D01*
X187105941Y-67769103D01*
X187139493Y-67793294D01*
X187160125Y-67798155D01*
X187171076Y-67783530D01*
X187175585Y-67749264D01*
X187176531Y-67719973D01*
X187168555Y-67674177D01*
X187146450Y-67637140D01*
X187115628Y-67616587D01*
X187102780Y-67614706D01*
X187084704Y-67607371D01*
X187082406Y-67601123D01*
X187095068Y-67594316D01*
X187129440Y-67589559D01*
X187180098Y-67587561D01*
X187186382Y-67587540D01*
X187238366Y-67587905D01*
X187267557Y-67589882D01*
X187278329Y-67594795D01*
X187275052Y-67603968D01*
X187267993Y-67612254D01*
X187252566Y-67639675D01*
X187238147Y-67682047D01*
X187232213Y-67707700D01*
X187221669Y-67753890D01*
X187209789Y-67792568D01*
X187203991Y-67806100D01*
X187196835Y-67825779D01*
X187200553Y-67844254D01*
X187218307Y-67865366D01*
X187253260Y-67892953D01*
X187304518Y-67928151D01*
X187352582Y-67958207D01*
X187386910Y-67973652D01*
X187414666Y-67977227D01*
X187428097Y-67975466D01*
X187454187Y-67971816D01*
X187457777Y-67977210D01*
X187451405Y-67984585D01*
X187427582Y-67994683D01*
X187385296Y-68000536D01*
X187356329Y-68001393D01*
X187304684Y-67998224D01*
X187263988Y-67986394D01*
X187220005Y-67961401D01*
X187211132Y-67955490D01*
X187173229Y-67930617D01*
X187149273Y-67919295D01*
X187130719Y-67919843D01*
X187109020Y-67930581D01*
X187102890Y-67934194D01*
X187045720Y-67966349D01*
X187001333Y-67986161D01*
X186960376Y-67997032D01*
X186916049Y-68002185D01*
X186866042Y-68003179D01*
X186820370Y-67999782D01*
X186803956Y-67996688D01*
X186719329Y-67963520D01*
X186656521Y-67914254D01*
X186615649Y-67849022D01*
X186596826Y-67767953D01*
X186596167Y-67759091D01*
X186595240Y-67718736D01*
X186660849Y-67718736D01*
X186673736Y-67781379D01*
X186697370Y-67820444D01*
X186736188Y-67863132D01*
X186781211Y-67900656D01*
X186817078Y-67921679D01*
X186873399Y-67936125D01*
X186940702Y-67939143D01*
X187005321Y-67930731D01*
X187033644Y-67921707D01*
X187072844Y-67901581D01*
X187086438Y-67881738D01*
X187075037Y-67857537D01*
X187045739Y-67829729D01*
X187014818Y-67802039D01*
X186971329Y-67760916D01*
X186921611Y-67712433D01*
X186882511Y-67673339D01*
X186836915Y-67628805D01*
X186796746Y-67592544D01*
X186766529Y-67568449D01*
X186751285Y-67560374D01*
X186730611Y-67570060D01*
X186703632Y-67594126D01*
X186696501Y-67602165D01*
X186668484Y-67655249D01*
X186660849Y-67718736D01*
X186595240Y-67718736D01*
X186594980Y-67707407D01*
X186600729Y-67671296D01*
X186615707Y-67639566D01*
X186622972Y-67628289D01*
X186657180Y-67590294D01*
X186699418Y-67559144D01*
X186705650Y-67555865D01*
X186736946Y-67539104D01*
X186747514Y-67526187D01*
X186741428Y-67509878D01*
X186736032Y-67501907D01*
X186717698Y-67455298D01*
X186717456Y-67402156D01*
X186734475Y-67354039D01*
X186747919Y-67336727D01*
X186789860Y-67310453D01*
X186846218Y-67294928D01*
X186905666Y-67292232D01*
X186946531Y-67300248D01*
G37*
G36*
X181507309Y-62005517D02*
G01*
X181552981Y-62007518D01*
X181579960Y-62011527D01*
X181592476Y-62018095D01*
X181594919Y-62025348D01*
X181584046Y-62043355D01*
X181574545Y-62045722D01*
X181550442Y-62054713D01*
X181527005Y-62072888D01*
X181519199Y-62081855D01*
X181513049Y-62093422D01*
X181508359Y-62110679D01*
X181504931Y-62136720D01*
X181502569Y-62174638D01*
X181501076Y-62227525D01*
X181500254Y-62298475D01*
X181499907Y-62390580D01*
X181499839Y-62499638D01*
X181500128Y-62602054D01*
X181500944Y-62696313D01*
X181502214Y-62778804D01*
X181503862Y-62845913D01*
X181505813Y-62894028D01*
X181507992Y-62919536D01*
X181508591Y-62922030D01*
X181525635Y-62940666D01*
X181558751Y-62961687D01*
X181577375Y-62970572D01*
X181610925Y-62987370D01*
X181629591Y-63001532D01*
X181631044Y-63006601D01*
X181614895Y-63011827D01*
X181578389Y-63015152D01*
X181527911Y-63016705D01*
X181469842Y-63016614D01*
X181410565Y-63015007D01*
X181356465Y-63012012D01*
X181313923Y-63007758D01*
X181289323Y-63002373D01*
X181285823Y-62999663D01*
X181293239Y-62985353D01*
X181315822Y-62975099D01*
X181343187Y-62965374D01*
X181363104Y-62949374D01*
X181376714Y-62923162D01*
X181385158Y-62882802D01*
X181389576Y-62824359D01*
X181391108Y-62743895D01*
X181391176Y-62715053D01*
X181391176Y-62521123D01*
X181112726Y-62521123D01*
X180834277Y-62521123D01*
X180834277Y-62723203D01*
X180834605Y-62806157D01*
X180836583Y-62866293D01*
X180841708Y-62907960D01*
X180851474Y-62935504D01*
X180867375Y-62953274D01*
X180890907Y-62965618D01*
X180921234Y-62976130D01*
X180954273Y-62989811D01*
X180960403Y-63000747D01*
X180939746Y-63008900D01*
X180892423Y-63014234D01*
X180818556Y-63016712D01*
X180785654Y-63016898D01*
X180720317Y-63016135D01*
X180665432Y-63014051D01*
X180626374Y-63010955D01*
X180608518Y-63007154D01*
X180608082Y-63006711D01*
X180608058Y-62986816D01*
X180626887Y-62972098D01*
X180642813Y-62969358D01*
X180670481Y-62959844D01*
X180689552Y-62944519D01*
X180695975Y-62934898D01*
X180701063Y-62919849D01*
X180704966Y-62896414D01*
X180707837Y-62861638D01*
X180709826Y-62812565D01*
X180711085Y-62746239D01*
X180711764Y-62659704D01*
X180712016Y-62550004D01*
X180712031Y-62505180D01*
X180712009Y-62383735D01*
X180711593Y-62286596D01*
X180710256Y-62210904D01*
X180707474Y-62153800D01*
X180702721Y-62112424D01*
X180695470Y-62083917D01*
X180685197Y-62065420D01*
X180671376Y-62054074D01*
X180653481Y-62047019D01*
X180630987Y-62041396D01*
X180626583Y-62040357D01*
X180602191Y-62030108D01*
X180596823Y-62018158D01*
X180612517Y-62012956D01*
X180648158Y-62009061D01*
X180697422Y-62006496D01*
X180753985Y-62005286D01*
X180811525Y-62005454D01*
X180863719Y-62007023D01*
X180904242Y-62010018D01*
X180926773Y-62014463D01*
X180929357Y-62016908D01*
X180918136Y-62029745D01*
X180890880Y-62044760D01*
X180888436Y-62045793D01*
X180857589Y-62066091D01*
X180840437Y-62091307D01*
X180840366Y-62091586D01*
X180837915Y-62115906D01*
X180836484Y-62161007D01*
X180836176Y-62220520D01*
X180837094Y-62288075D01*
X180837143Y-62290214D01*
X180841069Y-62460000D01*
X181112726Y-62460000D01*
X181384384Y-62460000D01*
X181388318Y-62297005D01*
X181389762Y-62214668D01*
X181388801Y-62155062D01*
X181384380Y-62113787D01*
X181375447Y-62086444D01*
X181360950Y-62068630D01*
X181339836Y-62055947D01*
X181329569Y-62051436D01*
X181295558Y-62034740D01*
X181284521Y-62022163D01*
X181297369Y-62013316D01*
X181335015Y-62007811D01*
X181398368Y-62005262D01*
X181438716Y-62004973D01*
X181507309Y-62005517D01*
G37*
G36*
X184035262Y-62006359D02*
G01*
X184097566Y-62007330D01*
X184188650Y-62009037D01*
X184257025Y-62010986D01*
X184307144Y-62013709D01*
X184343463Y-62017739D01*
X184370435Y-62023607D01*
X184392515Y-62031846D01*
X184414157Y-62042987D01*
X184419022Y-62045722D01*
X184478776Y-62093495D01*
X184515981Y-62156409D01*
X184530651Y-62234487D01*
X184530898Y-62250299D01*
X184518326Y-62326100D01*
X184484713Y-62395971D01*
X184434445Y-62451827D01*
X184413488Y-62466717D01*
X184383767Y-62487132D01*
X184367118Y-62502541D01*
X184365828Y-62505489D01*
X184372985Y-62519242D01*
X184392888Y-62551866D01*
X184423183Y-62599647D01*
X184461517Y-62658872D01*
X184505053Y-62725103D01*
X184556344Y-62801768D01*
X184596123Y-62858848D01*
X184627256Y-62899805D01*
X184652606Y-62928103D01*
X184675041Y-62947206D01*
X184697425Y-62960576D01*
X184701512Y-62962567D01*
X184735470Y-62980506D01*
X184756249Y-62994987D01*
X184759240Y-62999304D01*
X184748019Y-63011436D01*
X184718095Y-63017861D01*
X184677373Y-63018343D01*
X184633757Y-63012647D01*
X184603303Y-63003951D01*
X184576295Y-62992058D01*
X184551708Y-62976496D01*
X184526876Y-62954096D01*
X184499135Y-62921689D01*
X184465817Y-62876103D01*
X184424258Y-62814170D01*
X184371793Y-62732719D01*
X184361104Y-62715928D01*
X184322112Y-62656265D01*
X184286638Y-62605034D01*
X184257861Y-62566610D01*
X184238962Y-62545364D01*
X184235148Y-62542747D01*
X184202553Y-62536679D01*
X184157232Y-62534992D01*
X184113265Y-62537668D01*
X184088490Y-62542950D01*
X184079435Y-62550358D01*
X184073272Y-62567281D01*
X184069488Y-62598051D01*
X184067571Y-62647002D01*
X184067007Y-62718467D01*
X184067005Y-62724488D01*
X184068504Y-62810838D01*
X184074072Y-62874093D01*
X184085312Y-62918208D01*
X184103829Y-62947143D01*
X184131228Y-62964853D01*
X184168638Y-62975209D01*
X184200097Y-62985186D01*
X184215946Y-62998192D01*
X184216401Y-63000535D01*
X184207929Y-63007761D01*
X184180791Y-63012730D01*
X184132377Y-63015681D01*
X184060078Y-63016854D01*
X184038687Y-63016898D01*
X183972164Y-63016498D01*
X183916105Y-63015403D01*
X183875750Y-63013772D01*
X183856336Y-63011764D01*
X183855452Y-63011357D01*
X183857126Y-62997812D01*
X183872934Y-62980835D01*
X183893158Y-62969993D01*
X183898111Y-62969358D01*
X183918624Y-62959197D01*
X183937197Y-62939170D01*
X183943416Y-62926865D01*
X183948318Y-62907730D01*
X183952049Y-62878768D01*
X183954758Y-62836980D01*
X183956593Y-62779368D01*
X183957703Y-62702934D01*
X183958233Y-62604679D01*
X183958341Y-62510692D01*
X183958341Y-62318649D01*
X184067700Y-62318649D01*
X184068879Y-62378057D01*
X184071404Y-62425893D01*
X184075322Y-62455732D01*
X184077400Y-62461359D01*
X184106789Y-62482526D01*
X184155691Y-62492245D01*
X184218769Y-62490044D01*
X184277003Y-62479092D01*
X184325837Y-62459305D01*
X184368692Y-62429773D01*
X184374073Y-62424525D01*
X184396620Y-62396289D01*
X184409318Y-62364578D01*
X184415682Y-62319201D01*
X184416953Y-62300165D01*
X184413716Y-62222204D01*
X184392492Y-62162144D01*
X184351155Y-62115835D01*
X184309108Y-62089375D01*
X184260731Y-62070552D01*
X184206403Y-62058620D01*
X184153649Y-62054122D01*
X184109989Y-62057599D01*
X184082949Y-62069594D01*
X184080306Y-62072888D01*
X184075478Y-62093787D01*
X184071756Y-62135237D01*
X184069187Y-62190814D01*
X184067819Y-62254093D01*
X184067700Y-62318649D01*
X183958341Y-62318649D01*
X183958341Y-62112401D01*
X183925002Y-62079062D01*
X183894380Y-62056114D01*
X183865413Y-62045769D01*
X183863879Y-62045722D01*
X183840914Y-62036941D01*
X183836095Y-62024309D01*
X183838746Y-62016892D01*
X183849003Y-62011545D01*
X183870325Y-62008042D01*
X183906170Y-62006160D01*
X183959996Y-62005674D01*
X184035262Y-62006359D01*
G37*
G36*
X179926684Y-63498057D02*
G01*
X179964644Y-63506084D01*
X179986347Y-63521781D01*
X179992304Y-63533048D01*
X179997853Y-63559858D01*
X179989760Y-63580315D01*
X179964173Y-63598009D01*
X179917240Y-63616529D01*
X179894742Y-63623973D01*
X179806006Y-63662427D01*
X179741113Y-63713189D01*
X179699406Y-63776831D01*
X179690390Y-63801507D01*
X179687263Y-63817345D01*
X179684505Y-63843944D01*
X179682096Y-63882748D01*
X179680018Y-63935204D01*
X179678250Y-64002754D01*
X179676774Y-64086844D01*
X179675570Y-64188918D01*
X179674618Y-64310421D01*
X179673900Y-64452798D01*
X179673395Y-64617493D01*
X179673085Y-64805950D01*
X179672950Y-65019616D01*
X179672940Y-65101872D01*
X179672905Y-65319239D01*
X179672875Y-65511087D01*
X179672966Y-65679061D01*
X179673295Y-65824809D01*
X179673978Y-65949974D01*
X179675129Y-66056205D01*
X179676865Y-66145147D01*
X179679301Y-66218445D01*
X179682554Y-66277747D01*
X179686739Y-66324697D01*
X179691972Y-66360943D01*
X179698369Y-66388130D01*
X179706046Y-66407904D01*
X179715118Y-66421912D01*
X179725701Y-66431799D01*
X179737911Y-66439211D01*
X179751865Y-66445795D01*
X179767676Y-66453197D01*
X179768021Y-66453369D01*
X179790012Y-66463103D01*
X179814267Y-66470205D01*
X179845304Y-66475072D01*
X179887642Y-66478101D01*
X179945800Y-66479690D01*
X180024296Y-66480236D01*
X180073636Y-66480241D01*
X180189260Y-66479011D01*
X180284027Y-66475346D01*
X180364170Y-66468833D01*
X180435921Y-66459063D01*
X180460748Y-66454697D01*
X180649425Y-66410338D01*
X180817400Y-66351426D01*
X180963882Y-66278354D01*
X181088079Y-66191518D01*
X181189031Y-66091513D01*
X181220674Y-66057053D01*
X181247942Y-66033169D01*
X181263144Y-66025508D01*
X181281730Y-66037614D01*
X181291463Y-66070496D01*
X181291589Y-66118997D01*
X181283894Y-66167263D01*
X181258991Y-66240087D01*
X181217299Y-66320403D01*
X181163226Y-66402578D01*
X181101182Y-66480978D01*
X181035574Y-66549969D01*
X180970811Y-66603918D01*
X180918410Y-66634309D01*
X180899860Y-66641610D01*
X180879404Y-66647788D01*
X180854862Y-66652899D01*
X180824053Y-66657004D01*
X180784799Y-66660158D01*
X180734918Y-66662422D01*
X180672230Y-66663854D01*
X180594556Y-66664510D01*
X180499714Y-66664451D01*
X180385525Y-66663734D01*
X180249809Y-66662417D01*
X180090386Y-66660558D01*
X179985347Y-66659245D01*
X179861779Y-66658011D01*
X179737358Y-66657383D01*
X179617048Y-66657343D01*
X179505817Y-66657872D01*
X179408629Y-66658951D01*
X179330451Y-66660561D01*
X179292620Y-66661864D01*
X179217199Y-66664727D01*
X179148076Y-66666607D01*
X179091391Y-66667390D01*
X179053284Y-66666963D01*
X179044732Y-66666439D01*
X179013509Y-66659638D01*
X179001645Y-66643506D01*
X179000587Y-66630749D01*
X179002739Y-66610242D01*
X179012252Y-66593772D01*
X179033711Y-66577876D01*
X179071705Y-66559093D01*
X179126351Y-66535810D01*
X179199097Y-66499329D01*
X179249331Y-66457492D01*
X179281706Y-66405303D01*
X179298200Y-66351225D01*
X179301137Y-66324797D01*
X179303739Y-66274241D01*
X179306011Y-66199208D01*
X179307956Y-66099350D01*
X179309578Y-65974319D01*
X179310881Y-65823768D01*
X179311869Y-65647348D01*
X179312546Y-65444710D01*
X179312916Y-65215507D01*
X179312994Y-65033761D01*
X179312994Y-63785277D01*
X179272914Y-63739629D01*
X179245917Y-63712810D01*
X179213248Y-63689569D01*
X179169582Y-63667109D01*
X179109599Y-63642634D01*
X179041336Y-63617994D01*
X178994585Y-63600752D01*
X178968084Y-63586994D01*
X178956148Y-63572118D01*
X178953093Y-63551524D01*
X178953047Y-63546527D01*
X178953047Y-63505882D01*
X179312994Y-63510001D01*
X179416592Y-63510704D01*
X179517861Y-63510507D01*
X179611588Y-63509486D01*
X179692563Y-63507718D01*
X179755573Y-63505281D01*
X179788395Y-63503012D01*
X179869068Y-63497200D01*
X179926684Y-63498057D01*
G37*
G36*
X187173812Y-63504287D02*
G01*
X187200339Y-63519892D01*
X187218491Y-63551004D01*
X187230442Y-63601433D01*
X187238366Y-63674987D01*
X187238670Y-63678997D01*
X187243287Y-63753314D01*
X187247213Y-63839156D01*
X187249762Y-63920882D01*
X187250130Y-63940535D01*
X187250851Y-64002196D01*
X187249979Y-64041782D01*
X187246350Y-64064382D01*
X187238799Y-64075082D01*
X187226162Y-64078971D01*
X187218234Y-64079882D01*
X187183307Y-64078194D01*
X187159786Y-64061672D01*
X187144358Y-64026100D01*
X187134534Y-63973436D01*
X187118233Y-63895880D01*
X187091803Y-63839201D01*
X187052117Y-63798027D01*
X187021283Y-63778865D01*
X187005360Y-63771149D01*
X186988083Y-63764923D01*
X186966420Y-63759995D01*
X186937340Y-63756172D01*
X186897812Y-63753262D01*
X186844804Y-63751073D01*
X186775284Y-63749414D01*
X186686222Y-63748091D01*
X186574586Y-63746914D01*
X186507340Y-63746302D01*
X186371863Y-63745392D01*
X186261724Y-63745326D01*
X186175108Y-63746152D01*
X186110200Y-63747912D01*
X186065184Y-63750652D01*
X186038245Y-63754417D01*
X186028543Y-63758152D01*
X186025259Y-63764090D01*
X186022362Y-63777144D01*
X186019830Y-63798857D01*
X186017642Y-63830767D01*
X186015773Y-63874417D01*
X186014202Y-63931346D01*
X186012906Y-64003096D01*
X186011863Y-64091208D01*
X186011051Y-64197221D01*
X186010446Y-64322678D01*
X186010027Y-64469118D01*
X186009770Y-64638082D01*
X186009654Y-64831112D01*
X186009655Y-65049748D01*
X186009656Y-65052599D01*
X186009726Y-65268130D01*
X186009852Y-65458181D01*
X186010065Y-65624436D01*
X186010397Y-65768582D01*
X186010882Y-65892303D01*
X186011550Y-65997284D01*
X186012434Y-66085212D01*
X186013567Y-66157771D01*
X186014980Y-66216646D01*
X186016706Y-66263523D01*
X186018776Y-66300088D01*
X186021223Y-66328024D01*
X186024080Y-66349019D01*
X186027377Y-66364756D01*
X186031148Y-66376922D01*
X186035115Y-66386522D01*
X186071509Y-66444488D01*
X186123122Y-66486854D01*
X186194957Y-66517468D01*
X186211846Y-66522423D01*
X186278125Y-66541777D01*
X186322397Y-66557696D01*
X186349223Y-66572412D01*
X186363163Y-66588159D01*
X186367082Y-66598411D01*
X186371440Y-66616849D01*
X186371920Y-66631334D01*
X186365749Y-66642291D01*
X186350159Y-66650143D01*
X186322379Y-66655313D01*
X186279640Y-66658225D01*
X186219172Y-66659302D01*
X186138204Y-66658969D01*
X186033966Y-66657649D01*
X185984418Y-66656929D01*
X185878443Y-66655804D01*
X185774576Y-66655482D01*
X185677944Y-66655921D01*
X185593671Y-66657077D01*
X185526886Y-66658909D01*
X185486416Y-66661064D01*
X185427840Y-66664930D01*
X185376546Y-66666972D01*
X185340801Y-66666911D01*
X185332826Y-66666252D01*
X185311187Y-66658610D01*
X185304635Y-66638542D01*
X185305661Y-66618712D01*
X185307544Y-66601525D01*
X185311823Y-66588026D01*
X185322220Y-66575652D01*
X185342461Y-66561839D01*
X185376269Y-66544024D01*
X185427370Y-66519643D01*
X185495767Y-66487859D01*
X185555387Y-66456227D01*
X185595400Y-66424382D01*
X185618013Y-66395202D01*
X185649411Y-66344706D01*
X185653494Y-65095080D01*
X185654150Y-64856916D01*
X185654471Y-64645105D01*
X185654449Y-64458837D01*
X185654077Y-64297302D01*
X185653349Y-64159690D01*
X185652257Y-64045190D01*
X185650796Y-63952993D01*
X185648958Y-63882288D01*
X185646736Y-63832264D01*
X185644124Y-63802112D01*
X185642561Y-63793851D01*
X185627546Y-63742247D01*
X185169869Y-63746311D01*
X185045749Y-63747489D01*
X184945800Y-63748713D01*
X184867026Y-63750173D01*
X184806433Y-63752058D01*
X184761025Y-63754558D01*
X184727808Y-63757863D01*
X184703786Y-63762162D01*
X184685965Y-63767645D01*
X184671350Y-63774501D01*
X184664659Y-63778297D01*
X184627490Y-63807192D01*
X184594870Y-63849335D01*
X184564433Y-63908820D01*
X184533810Y-63989739D01*
X184522651Y-64023754D01*
X184496624Y-64094581D01*
X184471524Y-64139413D01*
X184446366Y-64159352D01*
X184420162Y-64155503D01*
X184410774Y-64148916D01*
X184399542Y-64133729D01*
X184394636Y-64108118D01*
X184395279Y-64065523D01*
X184397432Y-64035915D01*
X184405547Y-63944704D01*
X184414747Y-63852702D01*
X184424492Y-63764268D01*
X184434246Y-63683759D01*
X184443469Y-63615532D01*
X184451623Y-63563944D01*
X184458170Y-63533355D01*
X184460181Y-63528040D01*
X184463955Y-63524333D01*
X184471937Y-63521051D01*
X184485719Y-63518165D01*
X184506889Y-63515646D01*
X184537039Y-63513464D01*
X184577759Y-63511590D01*
X184630638Y-63509993D01*
X184697268Y-63508646D01*
X184779238Y-63507517D01*
X184878139Y-63506578D01*
X184995561Y-63505798D01*
X185133094Y-63505149D01*
X185292329Y-63504601D01*
X185474855Y-63504124D01*
X185682264Y-63503689D01*
X185780890Y-63503505D01*
X185968097Y-63503158D01*
X186148269Y-63502811D01*
X186319463Y-63502468D01*
X186479736Y-63502134D01*
X186627142Y-63501814D01*
X186759740Y-63501511D01*
X186875584Y-63501231D01*
X186972731Y-63500978D01*
X187049238Y-63500756D01*
X187103160Y-63500570D01*
X187132554Y-63500424D01*
X187136737Y-63500382D01*
X187173812Y-63504287D01*
G37*
G36*
X183140686Y-63427706D02*
G01*
X183170511Y-63454642D01*
X183198218Y-63504409D01*
X183206196Y-63524524D01*
X183214490Y-63545934D01*
X183232194Y-63590712D01*
X183258575Y-63657026D01*
X183292900Y-63743045D01*
X183334435Y-63846936D01*
X183382446Y-63966868D01*
X183436201Y-64101009D01*
X183494965Y-64247525D01*
X183558005Y-64404586D01*
X183624587Y-64570359D01*
X183693978Y-64743013D01*
X183720848Y-64809840D01*
X183791665Y-64986000D01*
X183860337Y-65156935D01*
X183926089Y-65320712D01*
X183988145Y-65475395D01*
X184045732Y-65619049D01*
X184098075Y-65749738D01*
X184144398Y-65865528D01*
X184183926Y-65964485D01*
X184215885Y-66044672D01*
X184239500Y-66104155D01*
X184253996Y-66140999D01*
X184256606Y-66147754D01*
X184302172Y-66254797D01*
X184351017Y-66347777D01*
X184400801Y-66422846D01*
X184449182Y-66476156D01*
X184463480Y-66487628D01*
X184528279Y-66521796D01*
X184617878Y-66548737D01*
X184628445Y-66551075D01*
X184704956Y-66571655D01*
X184754740Y-66594860D01*
X184778128Y-66620899D01*
X184777573Y-66645232D01*
X184772897Y-66652205D01*
X184762814Y-66657422D01*
X184744153Y-66661013D01*
X184713746Y-66663107D01*
X184668422Y-66663833D01*
X184605012Y-66663323D01*
X184520345Y-66661705D01*
X184428122Y-66659526D01*
X184326881Y-66657550D01*
X184227679Y-66656560D01*
X184135976Y-66656542D01*
X184057236Y-66657477D01*
X183996919Y-66659350D01*
X183971924Y-66660911D01*
X183906790Y-66664787D01*
X183841105Y-66666013D01*
X183787710Y-66664387D01*
X183781764Y-66663904D01*
X183738888Y-66658930D01*
X183716552Y-66651672D01*
X183708163Y-66638535D01*
X183707058Y-66623155D01*
X183711985Y-66600445D01*
X183730618Y-66581509D01*
X183768731Y-66560795D01*
X183774972Y-66557887D01*
X183842001Y-66526515D01*
X183888643Y-66503037D01*
X183919427Y-66484521D01*
X183938882Y-66468034D01*
X183951535Y-66450642D01*
X183957093Y-66439925D01*
X183967045Y-66414035D01*
X183969231Y-66387665D01*
X183963433Y-66351498D01*
X183954147Y-66313984D01*
X183942349Y-66275410D01*
X183922494Y-66217597D01*
X183896217Y-66144758D01*
X183865153Y-66061109D01*
X183830936Y-65970862D01*
X183795199Y-65878233D01*
X183759578Y-65787436D01*
X183725705Y-65702684D01*
X183695217Y-65628192D01*
X183669747Y-65568174D01*
X183650929Y-65526845D01*
X183643301Y-65512425D01*
X183630846Y-65492419D01*
X183618446Y-65475808D01*
X183603610Y-65462294D01*
X183583848Y-65451579D01*
X183556669Y-65443366D01*
X183519584Y-65437356D01*
X183470100Y-65433253D01*
X183405729Y-65430758D01*
X183323980Y-65429574D01*
X183222363Y-65429403D01*
X183098386Y-65429947D01*
X182960836Y-65430833D01*
X182820528Y-65431804D01*
X182704817Y-65432772D01*
X182611131Y-65433870D01*
X182536901Y-65435232D01*
X182479558Y-65436992D01*
X182436530Y-65439285D01*
X182405249Y-65442242D01*
X182383145Y-65446000D01*
X182367647Y-65450690D01*
X182356186Y-65456448D01*
X182347009Y-65462795D01*
X182330943Y-65480052D01*
X182309764Y-65512458D01*
X182282419Y-65562021D01*
X182247854Y-65630751D01*
X182205016Y-65720656D01*
X182154916Y-65829225D01*
X182102466Y-65944973D01*
X182060782Y-66039421D01*
X182028824Y-66115736D01*
X182005555Y-66177085D01*
X181989937Y-66226635D01*
X181980933Y-66267553D01*
X181977504Y-66303007D01*
X181978614Y-66336165D01*
X181981396Y-66358790D01*
X182004247Y-66425208D01*
X182048460Y-66479788D01*
X182109543Y-66519037D01*
X182183005Y-66539459D01*
X182216336Y-66541582D01*
X182251106Y-66551467D01*
X182277463Y-66575864D01*
X182291676Y-66607169D01*
X182290015Y-66637776D01*
X182273250Y-66657615D01*
X182248732Y-66663753D01*
X182203310Y-66667259D01*
X182143125Y-66668054D01*
X182074319Y-66666056D01*
X182003033Y-66661187D01*
X182002406Y-66661130D01*
X181948764Y-66658078D01*
X181875599Y-66656416D01*
X181790519Y-66656191D01*
X181701134Y-66657448D01*
X181647941Y-66658957D01*
X181561497Y-66661727D01*
X181498366Y-66663027D01*
X181454725Y-66662630D01*
X181426750Y-66660309D01*
X181410617Y-66655834D01*
X181402501Y-66648979D01*
X181400102Y-66644195D01*
X181398581Y-66610726D01*
X181422272Y-66582037D01*
X181471966Y-66557315D01*
X181490274Y-66551110D01*
X181551316Y-66524366D01*
X181610453Y-66486306D01*
X181624525Y-66474735D01*
X181635492Y-66465122D01*
X181645531Y-66455824D01*
X181655422Y-66445283D01*
X181665946Y-66431940D01*
X181677883Y-66414237D01*
X181692014Y-66390614D01*
X181709120Y-66359512D01*
X181729981Y-66319373D01*
X181755378Y-66268637D01*
X181786091Y-66205747D01*
X181822901Y-66129142D01*
X181866589Y-66037264D01*
X181917935Y-65928554D01*
X181977720Y-65801453D01*
X182046724Y-65654402D01*
X182125729Y-65485843D01*
X182213355Y-65298823D01*
X182257169Y-65205317D01*
X182469740Y-65205317D01*
X182484891Y-65210618D01*
X182523548Y-65215148D01*
X182582061Y-65218909D01*
X182656782Y-65221901D01*
X182744061Y-65224127D01*
X182840250Y-65225585D01*
X182941698Y-65226279D01*
X183044758Y-65226208D01*
X183145780Y-65225373D01*
X183241114Y-65223775D01*
X183327113Y-65221416D01*
X183400126Y-65218296D01*
X183456504Y-65214416D01*
X183492599Y-65209777D01*
X183504692Y-65205051D01*
X183501040Y-65189510D01*
X183488213Y-65151958D01*
X183467449Y-65095477D01*
X183439985Y-65023148D01*
X183407057Y-64938053D01*
X183369903Y-64843273D01*
X183329759Y-64741890D01*
X183287861Y-64636985D01*
X183245448Y-64531638D01*
X183203755Y-64428932D01*
X183164020Y-64331949D01*
X183127478Y-64243768D01*
X183095368Y-64167472D01*
X183068926Y-64106142D01*
X183049389Y-64062860D01*
X183037993Y-64040706D01*
X183036596Y-64038864D01*
X183020459Y-64031380D01*
X183002689Y-64042653D01*
X182981072Y-64075099D01*
X182954700Y-64128297D01*
X182940326Y-64159381D01*
X182915998Y-64211835D01*
X182883228Y-64282399D01*
X182843532Y-64367819D01*
X182798422Y-64464835D01*
X182749413Y-64570190D01*
X182698018Y-64680629D01*
X182689301Y-64699355D01*
X182639615Y-64806932D01*
X182594050Y-64907214D01*
X182553797Y-64997456D01*
X182520049Y-65074911D01*
X182493996Y-65136833D01*
X182476831Y-65180477D01*
X182469744Y-65203095D01*
X182469740Y-65205317D01*
X182257169Y-65205317D01*
X182270028Y-65177873D01*
X182325005Y-65060549D01*
X182376825Y-64949967D01*
X182424029Y-64849240D01*
X182465157Y-64761485D01*
X182498748Y-64689816D01*
X182523344Y-64637348D01*
X182534815Y-64612888D01*
X182554280Y-64571278D01*
X182583249Y-64509203D01*
X182619777Y-64430837D01*
X182661920Y-64340350D01*
X182707736Y-64241915D01*
X182755280Y-64139704D01*
X182772099Y-64103529D01*
X182840481Y-63956620D01*
X182898482Y-63832491D01*
X182947054Y-63729237D01*
X182987151Y-63644950D01*
X183019726Y-63577722D01*
X183045732Y-63525648D01*
X183066122Y-63486819D01*
X183081848Y-63459329D01*
X183093864Y-63441270D01*
X183103123Y-63430735D01*
X183110578Y-63425818D01*
X183110798Y-63425732D01*
X183140686Y-63427706D01*
G37*
G36*
X189314909Y-63507889D02*
G01*
X189345661Y-63531741D01*
X189355972Y-63542568D01*
X189395078Y-63586988D01*
X189448601Y-63647314D01*
X189515207Y-63722068D01*
X189593563Y-63809771D01*
X189682337Y-63908945D01*
X189780194Y-64018109D01*
X189885802Y-64135786D01*
X189997827Y-64260497D01*
X190114937Y-64390763D01*
X190235797Y-64525104D01*
X190359076Y-64662042D01*
X190483439Y-64800099D01*
X190607554Y-64937794D01*
X190730087Y-65073650D01*
X190849706Y-65206188D01*
X190965076Y-65333928D01*
X191074866Y-65455392D01*
X191177740Y-65569101D01*
X191272368Y-65673576D01*
X191357414Y-65767338D01*
X191431547Y-65848909D01*
X191493433Y-65916809D01*
X191541738Y-65969559D01*
X191575130Y-66005682D01*
X191592275Y-66023697D01*
X191594316Y-66025508D01*
X191596768Y-66012349D01*
X191598918Y-65974565D01*
X191600773Y-65914695D01*
X191602337Y-65835278D01*
X191603617Y-65738852D01*
X191604616Y-65627958D01*
X191605342Y-65505133D01*
X191605798Y-65372917D01*
X191605990Y-65233848D01*
X191605925Y-65090466D01*
X191605606Y-64945310D01*
X191605040Y-64800918D01*
X191604232Y-64659830D01*
X191603187Y-64524584D01*
X191601911Y-64397720D01*
X191600408Y-64281776D01*
X191598685Y-64179292D01*
X191596746Y-64092806D01*
X191594597Y-64024857D01*
X191592244Y-63977984D01*
X191589945Y-63955866D01*
X191558066Y-63855096D01*
X191506092Y-63771889D01*
X191433392Y-63705633D01*
X191339334Y-63655717D01*
X191251332Y-63627878D01*
X191179264Y-63606652D01*
X191132624Y-63584005D01*
X191109675Y-63558725D01*
X191108679Y-63529601D01*
X191108982Y-63528618D01*
X191112457Y-63519361D01*
X191118426Y-63512279D01*
X191130137Y-63507126D01*
X191150834Y-63503654D01*
X191183765Y-63501613D01*
X191232176Y-63500757D01*
X191299314Y-63500838D01*
X191388425Y-63501607D01*
X191453676Y-63502295D01*
X191555136Y-63503109D01*
X191655459Y-63503420D01*
X191748893Y-63503247D01*
X191829686Y-63502609D01*
X191892086Y-63501525D01*
X191915532Y-63500784D01*
X191978455Y-63499794D01*
X192025940Y-63502162D01*
X192052906Y-63507570D01*
X192056106Y-63509604D01*
X192065525Y-63535037D01*
X192051283Y-63565076D01*
X192015704Y-63596401D01*
X191981428Y-63616285D01*
X191934441Y-63642752D01*
X191891601Y-63671787D01*
X191873450Y-63686767D01*
X191861317Y-63698117D01*
X191850515Y-63709145D01*
X191840968Y-63721415D01*
X191832598Y-63736487D01*
X191825328Y-63755927D01*
X191819079Y-63781295D01*
X191813776Y-63814155D01*
X191809339Y-63856070D01*
X191805693Y-63908603D01*
X191802760Y-63973316D01*
X191800462Y-64051773D01*
X191798722Y-64145535D01*
X191797462Y-64256166D01*
X191796606Y-64385229D01*
X191796076Y-64534286D01*
X191795793Y-64704901D01*
X191795682Y-64898635D01*
X191795665Y-65117053D01*
X191795668Y-65257824D01*
X191795595Y-65496154D01*
X191795367Y-65708522D01*
X191794971Y-65896130D01*
X191794391Y-66060183D01*
X191793616Y-66201882D01*
X191792630Y-66322432D01*
X191791420Y-66423034D01*
X191789972Y-66504892D01*
X191788273Y-66569210D01*
X191786308Y-66617190D01*
X191784063Y-66650035D01*
X191781525Y-66668949D01*
X191779368Y-66674770D01*
X191759984Y-66687967D01*
X191737663Y-66687058D01*
X191707217Y-66670232D01*
X191663459Y-66635677D01*
X191660699Y-66633342D01*
X191643850Y-66616556D01*
X191610286Y-66580831D01*
X191561277Y-66527587D01*
X191498091Y-66458246D01*
X191422000Y-66374229D01*
X191334271Y-66276957D01*
X191236174Y-66167851D01*
X191128978Y-66048332D01*
X191013953Y-65919822D01*
X190892369Y-65783741D01*
X190765494Y-65641511D01*
X190634598Y-65494552D01*
X190500950Y-65344286D01*
X190365819Y-65192134D01*
X190230476Y-65039517D01*
X190096189Y-64887856D01*
X189964228Y-64738573D01*
X189835862Y-64593087D01*
X189712360Y-64452822D01*
X189670929Y-64405693D01*
X189646987Y-64377717D01*
X189626160Y-64353014D01*
X189608232Y-64333116D01*
X189592988Y-64319554D01*
X189580214Y-64313862D01*
X189569694Y-64317571D01*
X189561213Y-64332212D01*
X189554555Y-64359318D01*
X189549507Y-64400422D01*
X189545851Y-64457054D01*
X189543375Y-64530747D01*
X189541861Y-64623034D01*
X189541095Y-64735445D01*
X189540862Y-64869514D01*
X189540947Y-65026771D01*
X189541135Y-65208750D01*
X189541207Y-65329385D01*
X189541291Y-65520190D01*
X189541453Y-65685742D01*
X189541740Y-65827954D01*
X189542197Y-65948740D01*
X189542869Y-66050011D01*
X189543802Y-66133682D01*
X189545043Y-66201666D01*
X189546636Y-66255875D01*
X189548628Y-66298222D01*
X189551064Y-66330620D01*
X189553990Y-66354983D01*
X189557451Y-66373223D01*
X189561493Y-66387253D01*
X189566162Y-66398987D01*
X189566790Y-66400381D01*
X189600065Y-66453321D01*
X189647830Y-66492775D01*
X189714730Y-66521881D01*
X189767592Y-66536047D01*
X189819924Y-66549142D01*
X189865935Y-66562870D01*
X189893967Y-66573533D01*
X189925030Y-66598530D01*
X189932815Y-66626518D01*
X189919434Y-66650826D01*
X189886998Y-66664782D01*
X189864765Y-66665819D01*
X189840262Y-66665135D01*
X189792271Y-66664325D01*
X189724470Y-66663432D01*
X189640537Y-66662499D01*
X189544150Y-66661568D01*
X189438986Y-66660681D01*
X189384705Y-66660270D01*
X189264676Y-66659346D01*
X189169019Y-66658379D01*
X189094943Y-66657175D01*
X189039655Y-66655542D01*
X189000362Y-66653286D01*
X188974273Y-66650215D01*
X188958594Y-66646134D01*
X188950534Y-66640850D01*
X188947299Y-66634171D01*
X188946579Y-66629946D01*
X188947596Y-66602708D01*
X188961412Y-66580829D01*
X188992240Y-66560709D01*
X189044290Y-66538748D01*
X189060110Y-66532911D01*
X189142176Y-66498084D01*
X189202711Y-66459435D01*
X189247345Y-66412621D01*
X189275025Y-66367087D01*
X189286415Y-66343623D01*
X189296323Y-66319923D01*
X189304852Y-66294012D01*
X189312103Y-66263916D01*
X189318178Y-66227658D01*
X189323179Y-66183263D01*
X189327207Y-66128755D01*
X189330365Y-66062159D01*
X189332754Y-65981500D01*
X189334476Y-65884801D01*
X189335634Y-65770088D01*
X189336328Y-65635385D01*
X189336660Y-65478715D01*
X189336733Y-65298105D01*
X189336691Y-65170687D01*
X189336537Y-64973291D01*
X189336208Y-64800999D01*
X189335595Y-64651748D01*
X189334587Y-64523479D01*
X189333076Y-64414128D01*
X189330951Y-64321634D01*
X189328104Y-64243935D01*
X189324425Y-64178969D01*
X189319805Y-64124676D01*
X189314134Y-64078992D01*
X189307302Y-64039856D01*
X189299200Y-64005207D01*
X189289720Y-63972982D01*
X189278750Y-63941121D01*
X189270187Y-63918088D01*
X189218740Y-63816929D01*
X189148293Y-63735153D01*
X189058778Y-63672705D01*
X188950130Y-63629529D01*
X188919252Y-63621572D01*
X188856678Y-63602137D01*
X188815469Y-63578656D01*
X188797672Y-63552723D01*
X188802134Y-63530503D01*
X188810311Y-63521254D01*
X188824507Y-63514516D01*
X188848806Y-63509816D01*
X188887292Y-63506682D01*
X188944052Y-63504641D01*
X189023168Y-63503220D01*
X189039835Y-63502997D01*
X189116730Y-63501951D01*
X189185575Y-63500924D01*
X189241120Y-63500000D01*
X189278112Y-63499266D01*
X189289625Y-63498934D01*
X189314909Y-63507889D01*
G37*
G04 #@! TO.C,R5*
D15*
X180340000Y-86227064D02*
X180340000Y-84772936D01*
X182160000Y-86227064D02*
X182160000Y-84772936D01*
G04 #@! TO.C,Q1*
X166930000Y-85467677D02*
X170530000Y-85467677D01*
X166891522Y-85456155D02*
G75*
G02*
X168730000Y-81017676I1838478J1838478D01*
G01*
X168730000Y-81017677D02*
G75*
G02*
X170568478Y-85456155I0J-2600000D01*
G01*
G04 #@! TO.C,D2*
X138950000Y-90135000D02*
X142835000Y-90135000D01*
X142835000Y-87865000D02*
X138950000Y-87865000D01*
X142835000Y-90135000D02*
X142835000Y-87865000D01*
G04 #@! TO.C,J1*
X133550000Y-71500000D02*
X148050000Y-71500000D01*
X133550000Y-80700000D02*
X133550000Y-71500000D01*
X142150000Y-80700000D02*
X133550000Y-80700000D01*
X148050000Y-71500000D02*
X148050000Y-73500000D01*
X148050000Y-78700000D02*
X148050000Y-80700000D01*
X148050000Y-80700000D02*
X146750000Y-80700000D01*
X148350000Y-71200000D02*
X147050000Y-71200000D01*
X148350000Y-72900000D02*
X148350000Y-71200000D01*
G04 #@! TO.C,R1*
X144822936Y-85090000D02*
X146277064Y-85090000D01*
X144822936Y-86910000D02*
X146277064Y-86910000D01*
G04 #@! TO.C,D1*
X138950000Y-87135000D02*
X142835000Y-87135000D01*
X142835000Y-84865000D02*
X138950000Y-84865000D01*
X142835000Y-87135000D02*
X142835000Y-84865000D01*
G04 #@! TO.C,SW3*
X184500000Y-88500000D02*
X184500000Y-90000000D01*
X185750000Y-92500000D02*
X190250000Y-92500000D01*
X190250000Y-86000000D02*
X185750000Y-86000000D01*
X191500000Y-90000000D02*
X191500000Y-88500000D01*
G04 #@! TO.C,U2*
D16*
X152884911Y-87642500D02*
X152884911Y-92493900D01*
X152884911Y-92493900D02*
X163552911Y-92493900D01*
X163552911Y-87642500D02*
X152884911Y-87642500D01*
X163552911Y-92493900D02*
X163552911Y-87642500D01*
X151310111Y-90500000D02*
G75*
G02*
X150903711Y-90500000I-203200J0D01*
G01*
X150903711Y-90500000D02*
G75*
G02*
X151310111Y-90500000I203200J0D01*
G01*
G04 #@! TO.C,C6*
D15*
X177340000Y-92406425D02*
X177340000Y-93828929D01*
X179160000Y-92406425D02*
X179160000Y-93828929D01*
G04 #@! TO.C,C3*
X161503063Y-93340000D02*
X160080559Y-93340000D01*
X161503063Y-95160000D02*
X160080559Y-95160000D01*
G04 #@! TO.C,C2*
X166420000Y-73577677D02*
X176580000Y-73577677D01*
X166420000Y-73617677D02*
X176580000Y-73617677D01*
X166421000Y-73497677D02*
X176579000Y-73497677D01*
X166421000Y-73537677D02*
X176579000Y-73537677D01*
X166423000Y-73457677D02*
X176577000Y-73457677D01*
X166424000Y-73417677D02*
X176576000Y-73417677D01*
X166426000Y-73377677D02*
X176574000Y-73377677D01*
X166428000Y-73337677D02*
X176572000Y-73337677D01*
X166430000Y-73297677D02*
X176570000Y-73297677D01*
X166433000Y-73257677D02*
X176567000Y-73257677D01*
X166436000Y-73217677D02*
X176564000Y-73217677D01*
X166439000Y-73177677D02*
X176561000Y-73177677D01*
X166443000Y-73137677D02*
X176557000Y-73137677D01*
X166446000Y-73097677D02*
X176554000Y-73097677D01*
X166451000Y-73057677D02*
X176549000Y-73057677D01*
X166455000Y-73017677D02*
X176545000Y-73017677D01*
X166460000Y-72977677D02*
X176540000Y-72977677D01*
X166465000Y-72937677D02*
X176535000Y-72937677D01*
X166471000Y-72897677D02*
X176529000Y-72897677D01*
X166477000Y-72857677D02*
X176523000Y-72857677D01*
X166483000Y-72817677D02*
X176517000Y-72817677D01*
X166489000Y-72777677D02*
X176511000Y-72777677D01*
X166496000Y-72737677D02*
X176504000Y-72737677D01*
X166503000Y-72697677D02*
X176497000Y-72697677D01*
X166511000Y-72657677D02*
X176489000Y-72657677D01*
X166519000Y-72617677D02*
X176481000Y-72617677D01*
X166527000Y-72577677D02*
X176473000Y-72577677D01*
X166535000Y-72537677D02*
X176465000Y-72537677D01*
X166544000Y-72497677D02*
X176456000Y-72497677D01*
X166553000Y-72457677D02*
X176447000Y-72457677D01*
X166563000Y-72417677D02*
X176437000Y-72417677D01*
X166572000Y-72377677D02*
X176428000Y-72377677D01*
X166583000Y-72337677D02*
X170260000Y-72337677D01*
X166593000Y-72297677D02*
X170260000Y-72297677D01*
X166604000Y-72257677D02*
X170260000Y-72257677D01*
X166615000Y-72217677D02*
X170260000Y-72217677D01*
X166627000Y-72177677D02*
X170260000Y-72177677D01*
X166639000Y-72137677D02*
X170260000Y-72137677D01*
X166651000Y-72097677D02*
X170260000Y-72097677D01*
X166663000Y-72057677D02*
X170260000Y-72057677D01*
X166676000Y-72017677D02*
X170260000Y-72017677D01*
X166690000Y-71977677D02*
X170260000Y-71977677D01*
X166703000Y-71937677D02*
X170260000Y-71937677D01*
X166718000Y-71897677D02*
X170260000Y-71897677D01*
X166732000Y-71857677D02*
X170260000Y-71857677D01*
X166747000Y-71817677D02*
X170260000Y-71817677D01*
X166762000Y-71777677D02*
X170260000Y-71777677D01*
X166778000Y-71737677D02*
X170260000Y-71737677D01*
X166794000Y-71697677D02*
X170260000Y-71697677D01*
X166810000Y-71657677D02*
X170260000Y-71657677D01*
X166827000Y-71617677D02*
X170260000Y-71617677D01*
X166844000Y-71577677D02*
X170260000Y-71577677D01*
X166862000Y-71537677D02*
X170260000Y-71537677D01*
X166880000Y-71497677D02*
X170260000Y-71497677D01*
X166898000Y-71457677D02*
X170260000Y-71457677D01*
X166917000Y-71417677D02*
X170260000Y-71417677D01*
X166936000Y-71377677D02*
X170260000Y-71377677D01*
X166956000Y-71337677D02*
X170260000Y-71337677D01*
X166976000Y-71297677D02*
X170260000Y-71297677D01*
X166996000Y-71257677D02*
X170260000Y-71257677D01*
X167017000Y-71217677D02*
X170260000Y-71217677D01*
X167039000Y-71177677D02*
X170260000Y-71177677D01*
X167061000Y-71137677D02*
X170260000Y-71137677D01*
X167083000Y-71097677D02*
X170260000Y-71097677D01*
X167106000Y-71057677D02*
X170260000Y-71057677D01*
X167129000Y-71017677D02*
X170260000Y-71017677D01*
X167153000Y-70977677D02*
X170260000Y-70977677D01*
X167177000Y-70937677D02*
X170260000Y-70937677D01*
X167202000Y-70897677D02*
X170260000Y-70897677D01*
X167228000Y-70857677D02*
X170260000Y-70857677D01*
X167253000Y-70817677D02*
X170260000Y-70817677D01*
X167280000Y-70777677D02*
X170260000Y-70777677D01*
X167307000Y-70737677D02*
X170260000Y-70737677D01*
X167334000Y-70697677D02*
X170260000Y-70697677D01*
X167362000Y-70657677D02*
X170260000Y-70657677D01*
X167391000Y-70617677D02*
X170260000Y-70617677D01*
X167420000Y-70577677D02*
X170260000Y-70577677D01*
X167450000Y-70537677D02*
X170260000Y-70537677D01*
X167480000Y-70497677D02*
X170260000Y-70497677D01*
X167512000Y-70457677D02*
X170260000Y-70457677D01*
X167543000Y-70417677D02*
X170260000Y-70417677D01*
X167576000Y-70377677D02*
X170260000Y-70377677D01*
X167609000Y-70337677D02*
X170260000Y-70337677D01*
X167642000Y-70297677D02*
X170260000Y-70297677D01*
X167677000Y-70257677D02*
X170260000Y-70257677D01*
X167712000Y-70217677D02*
X170260000Y-70217677D01*
X167748000Y-70177677D02*
X170260000Y-70177677D01*
X167784000Y-70137677D02*
X170260000Y-70137677D01*
X167822000Y-70097677D02*
X170260000Y-70097677D01*
X167860000Y-70057677D02*
X170260000Y-70057677D01*
X167899000Y-70017677D02*
X170260000Y-70017677D01*
X167939000Y-69977677D02*
X170260000Y-69977677D01*
X167980000Y-69937677D02*
X170260000Y-69937677D01*
X168022000Y-69897677D02*
X170260000Y-69897677D01*
X168065000Y-69857677D02*
X174935000Y-69857677D01*
X168109000Y-69817677D02*
X174891000Y-69817677D01*
X168125000Y-78597323D02*
X169125000Y-78597323D01*
X168153000Y-69777677D02*
X174847000Y-69777677D01*
X168199000Y-69737677D02*
X174801000Y-69737677D01*
X168246000Y-69697677D02*
X174754000Y-69697677D01*
X168295000Y-69657677D02*
X174705000Y-69657677D01*
X168344000Y-69617677D02*
X174656000Y-69617677D01*
X168395000Y-69577677D02*
X174605000Y-69577677D01*
X168447000Y-69537677D02*
X174553000Y-69537677D01*
X168500000Y-69497677D02*
X174500000Y-69497677D01*
X168555000Y-69457677D02*
X174445000Y-69457677D01*
X168612000Y-69417677D02*
X174388000Y-69417677D01*
X168625000Y-79097323D02*
X168625000Y-78097323D01*
X168670000Y-69377677D02*
X174330000Y-69377677D01*
X168730000Y-69337677D02*
X174270000Y-69337677D01*
X168792000Y-69297677D02*
X174208000Y-69297677D01*
X168856000Y-69257677D02*
X174144000Y-69257677D01*
X168922000Y-69217677D02*
X174078000Y-69217677D01*
X168990000Y-69177677D02*
X174010000Y-69177677D01*
X169061000Y-69137677D02*
X173939000Y-69137677D01*
X169135000Y-69097677D02*
X173865000Y-69097677D01*
X169212000Y-69057677D02*
X173788000Y-69057677D01*
X169292000Y-69017677D02*
X173708000Y-69017677D01*
X169376000Y-68977677D02*
X173624000Y-68977677D01*
X169463000Y-68937677D02*
X173537000Y-68937677D01*
X169556000Y-68897677D02*
X173444000Y-68897677D01*
X169654000Y-68857677D02*
X173346000Y-68857677D01*
X169758000Y-68817677D02*
X173242000Y-68817677D01*
X169870000Y-68777677D02*
X173130000Y-68777677D01*
X169991000Y-68737677D02*
X173009000Y-68737677D01*
X170123000Y-68697677D02*
X172877000Y-68697677D01*
X170270000Y-68657677D02*
X172730000Y-68657677D01*
X170438000Y-68617677D02*
X172562000Y-68617677D01*
X170638000Y-68577677D02*
X172362000Y-68577677D01*
X170901000Y-68537677D02*
X172099000Y-68537677D01*
X172740000Y-69897677D02*
X174978000Y-69897677D01*
X172740000Y-69937677D02*
X175020000Y-69937677D01*
X172740000Y-69977677D02*
X175061000Y-69977677D01*
X172740000Y-70017677D02*
X175101000Y-70017677D01*
X172740000Y-70057677D02*
X175140000Y-70057677D01*
X172740000Y-70097677D02*
X175178000Y-70097677D01*
X172740000Y-70137677D02*
X175216000Y-70137677D01*
X172740000Y-70177677D02*
X175252000Y-70177677D01*
X172740000Y-70217677D02*
X175288000Y-70217677D01*
X172740000Y-70257677D02*
X175323000Y-70257677D01*
X172740000Y-70297677D02*
X175358000Y-70297677D01*
X172740000Y-70337677D02*
X175391000Y-70337677D01*
X172740000Y-70377677D02*
X175424000Y-70377677D01*
X172740000Y-70417677D02*
X175457000Y-70417677D01*
X172740000Y-70457677D02*
X175488000Y-70457677D01*
X172740000Y-70497677D02*
X175520000Y-70497677D01*
X172740000Y-70537677D02*
X175550000Y-70537677D01*
X172740000Y-70577677D02*
X175580000Y-70577677D01*
X172740000Y-70617677D02*
X175609000Y-70617677D01*
X172740000Y-70657677D02*
X175638000Y-70657677D01*
X172740000Y-70697677D02*
X175666000Y-70697677D01*
X172740000Y-70737677D02*
X175693000Y-70737677D01*
X172740000Y-70777677D02*
X175720000Y-70777677D01*
X172740000Y-70817677D02*
X175747000Y-70817677D01*
X172740000Y-70857677D02*
X175772000Y-70857677D01*
X172740000Y-70897677D02*
X175798000Y-70897677D01*
X172740000Y-70937677D02*
X175823000Y-70937677D01*
X172740000Y-70977677D02*
X175847000Y-70977677D01*
X172740000Y-71017677D02*
X175871000Y-71017677D01*
X172740000Y-71057677D02*
X175894000Y-71057677D01*
X172740000Y-71097677D02*
X175917000Y-71097677D01*
X172740000Y-71137677D02*
X175939000Y-71137677D01*
X172740000Y-71177677D02*
X175961000Y-71177677D01*
X172740000Y-71217677D02*
X175983000Y-71217677D01*
X172740000Y-71257677D02*
X176004000Y-71257677D01*
X172740000Y-71297677D02*
X176024000Y-71297677D01*
X172740000Y-71337677D02*
X176044000Y-71337677D01*
X172740000Y-71377677D02*
X176064000Y-71377677D01*
X172740000Y-71417677D02*
X176083000Y-71417677D01*
X172740000Y-71457677D02*
X176102000Y-71457677D01*
X172740000Y-71497677D02*
X176120000Y-71497677D01*
X172740000Y-71537677D02*
X176138000Y-71537677D01*
X172740000Y-71577677D02*
X176156000Y-71577677D01*
X172740000Y-71617677D02*
X176173000Y-71617677D01*
X172740000Y-71657677D02*
X176190000Y-71657677D01*
X172740000Y-71697677D02*
X176206000Y-71697677D01*
X172740000Y-71737677D02*
X176222000Y-71737677D01*
X172740000Y-71777677D02*
X176238000Y-71777677D01*
X172740000Y-71817677D02*
X176253000Y-71817677D01*
X172740000Y-71857677D02*
X176268000Y-71857677D01*
X172740000Y-71897677D02*
X176282000Y-71897677D01*
X172740000Y-71937677D02*
X176297000Y-71937677D01*
X172740000Y-71977677D02*
X176310000Y-71977677D01*
X172740000Y-72017677D02*
X176324000Y-72017677D01*
X172740000Y-72057677D02*
X176337000Y-72057677D01*
X172740000Y-72097677D02*
X176349000Y-72097677D01*
X172740000Y-72137677D02*
X176361000Y-72137677D01*
X172740000Y-72177677D02*
X176373000Y-72177677D01*
X172740000Y-72217677D02*
X176385000Y-72217677D01*
X172740000Y-72257677D02*
X176396000Y-72257677D01*
X172740000Y-72297677D02*
X176407000Y-72297677D01*
X172740000Y-72337677D02*
X176417000Y-72337677D01*
X176620000Y-73617677D02*
G75*
G02*
X166380000Y-73617677I-5120000J0D01*
G01*
X166380000Y-73617677D02*
G75*
G02*
X176620000Y-73617677I5120000J0D01*
G01*
G04 #@! TO.C,C4*
X177590000Y-74711252D02*
X177590000Y-73288748D01*
X179410000Y-74711252D02*
X179410000Y-73288748D01*
G04 #@! TO.C,J2*
X145120000Y-63870000D02*
X146500000Y-63870000D01*
X145120000Y-65250000D02*
X145120000Y-63870000D01*
X145120000Y-66520000D02*
X145120000Y-69170000D01*
X145120000Y-66520000D02*
X147880000Y-66520000D01*
X145120000Y-69170000D02*
X147880000Y-69170000D01*
X147880000Y-66520000D02*
X147880000Y-69170000D01*
G04 #@! TO.C,R3*
X166340000Y-90727064D02*
X166340000Y-89272936D01*
X168160000Y-90727064D02*
X168160000Y-89272936D01*
G04 #@! TO.C,R6*
X180340000Y-91522936D02*
X180340000Y-92977064D01*
X182160000Y-91522936D02*
X182160000Y-92977064D01*
G04 #@! TO.C,R7*
X181340000Y-72727064D02*
X181340000Y-71272936D01*
X183160000Y-72727064D02*
X183160000Y-71272936D01*
G04 #@! TO.C,J3*
X184080000Y-70620000D02*
X184080000Y-73380000D01*
X189270000Y-70620000D02*
X184080000Y-70620000D01*
X189270000Y-70620000D02*
X189270000Y-73380000D01*
X189270000Y-73380000D02*
X184080000Y-73380000D01*
X190540000Y-70620000D02*
X191920000Y-70620000D01*
X191920000Y-70620000D02*
X191920000Y-72000000D01*
G04 #@! TO.C,U1*
X170690000Y-87057677D02*
X174810000Y-87057677D01*
X170690000Y-87152677D02*
X170690000Y-87057677D01*
X170690000Y-92177677D02*
X170690000Y-92082677D01*
X174810000Y-87057677D02*
X174810000Y-87152677D01*
X174810000Y-92082677D02*
X174810000Y-92177677D01*
X174810000Y-92177677D02*
X170690000Y-92177677D01*
X170150000Y-87147677D02*
X169910000Y-86817677D01*
X170390000Y-86817677D01*
X170150000Y-87147677D01*
G36*
X170150000Y-87147677D02*
G01*
X169910000Y-86817677D01*
X170390000Y-86817677D01*
X170150000Y-87147677D01*
G37*
G04 #@! TO.C,C5*
X172461252Y-92957677D02*
X171038748Y-92957677D01*
X172461252Y-94777677D02*
X171038748Y-94777677D01*
G04 #@! TO.C,R4*
X177340000Y-85522936D02*
X177340000Y-86977064D01*
X179160000Y-85522936D02*
X179160000Y-86977064D01*
G04 #@! TO.C,SW2*
X184500000Y-79500000D02*
X184500000Y-81000000D01*
X185750000Y-83500000D02*
X190250000Y-83500000D01*
X190250000Y-77000000D02*
X185750000Y-77000000D01*
X191500000Y-81000000D02*
X191500000Y-79500000D01*
G04 #@! TO.C,R2*
X144822936Y-88090000D02*
X146277064Y-88090000D01*
X144822936Y-89910000D02*
X146277064Y-89910000D01*
G04 #@! TO.C,C1*
X154830559Y-93340000D02*
X156253063Y-93340000D01*
X154830559Y-95160000D02*
X156253063Y-95160000D01*
G04 #@! TO.C,SW1*
X138640000Y-92990000D02*
X147460000Y-92990000D01*
X138640000Y-93300000D02*
X138640000Y-92990000D01*
X138640000Y-97510000D02*
X138640000Y-97200000D01*
X140550000Y-92290000D02*
X141050000Y-92790000D01*
X141050000Y-92790000D02*
X141550000Y-92290000D01*
X141550000Y-92290000D02*
X140550000Y-92290000D01*
X147460000Y-92990000D02*
X147460000Y-93300000D01*
X147460000Y-97510000D02*
X138640000Y-97510000D01*
X147460000Y-97510000D02*
X147460000Y-97200000D01*
G04 #@! TD*
M02*
