M48
; DRILL file KiCad 10.0.3 date 2026-07-17T14:39:42
; FORMAT={-:-/ absolute / metric / decimal}
; #@! TF.CreationDate,2026-07-17T14:39:42-04:00
; #@! TF.GenerationSoftware,Kicad,Pcbnew,10.0.3
; #@! TF.FileFunction,MixedPlating,1,2
FMAT,2
METRIC
; #@! TA.AperFunction,Plated,PTH,ViaDrill
T1C0.300
; #@! TA.AperFunction,Plated,PTH,ComponentDrill
T2C0.750
; #@! TA.AperFunction,Plated,PTH,ComponentDrill
T3C0.800
; #@! TA.AperFunction,Plated,PTH,ComponentDrill
T4C1.000
; #@! TA.AperFunction,Plated,PTH,ComponentDrill
T5C1.100
; #@! TA.AperFunction,Plated,PTH,ComponentDrill
T6C1.143
; #@! TA.AperFunction,Plated,PTH,ComponentDrill
T7C1.500
; #@! TA.AperFunction,Plated,PTH,ViaDrill
T8C3.429
%
G90
G05
T1
X148.75Y-84.0
X168.25Y-95.75
X176.25Y-96.0
X178.5Y-70.75
T2
X167.46Y-83.618
X168.73Y-83.618
X170.0Y-83.618
T3
X141.05Y-95.25
X143.05Y-95.25
X145.05Y-95.25
T4
X146.5Y-65.25
X146.5Y-67.79
X171.5Y-71.118
X171.5Y-76.118
X185.46Y-72.0
X188.0Y-72.0
X190.54Y-72.0
T5
X184.75Y-78.0
X184.75Y-82.5
X184.75Y-87.0
X184.75Y-91.5
X191.25Y-78.0
X191.25Y-82.5
X191.25Y-87.0
X191.25Y-91.5
T6
X155.679Y-90.5
X158.219Y-90.5
X160.759Y-90.5
T7
X138.95Y-95.25
X147.15Y-95.25
T8
X138.0Y-65.5
X197.5Y-65.5
X197.5Y-95.25
T4
G00X141.05Y-75.0
M15
G01X141.05Y-77.2
M16
G05
G00X145.55Y-80.9
M15
G01X143.35Y-80.9
M16
G05
G00X147.35Y-74.8
M15
G01X147.35Y-77.4
M16
G05
M30
